<svg width="398" height="235" viewBox="0 0 398 235" fill="none" xmlns="http://www.w3.org/2000/svg">
<path d="M271.223 195.351C267.456 197.416 263.83 199.348 260.063 201.507C248.903 207.843 237.104 213.146 224.539 215.932C192.916 221.548 159.343 213.326 132.301 196.65L128.036 194.405C127.902 194.312 127.357 194.045 127.222 193.999C126.947 193.819 126.496 194.092 126.589 194.445C128.452 195.931 136.027 200.062 138.113 201.455C160.344 214.307 186.753 220.869 212.523 219.61C233.941 218.444 252.769 207.565 270.461 196.558L271.504 195.931C271.504 195.931 271.82 195.751 271.732 195.484C271.685 195.217 271.234 195.304 271.234 195.351H271.223ZM249.213 207.617C248.259 208.11 247.263 208.516 246.267 208.876C247.766 208.203 249.213 207.53 250.666 206.764C250.168 207.031 249.711 207.35 249.213 207.617ZM241.686 30.1113C219.542 16.4932 190.778 16.2727 166.824 25.1677C159.928 27.5524 152.94 29.7515 146.496 33.0763C145.271 33.6159 144.135 34.2019 143.549 34.6023C143.455 34.6893 143.32 34.7358 143.233 34.7822C143.051 34.875 143.139 35.229 143.367 35.0491C159.384 29.972 175.447 23.4096 192.324 21.7907C207.977 20.9842 224.539 23.0034 238.786 29.7457C239.237 29.972 240.508 30.5987 240.918 30.7786C241.281 31.0049 241.914 30.5523 241.691 30.1055L241.686 30.1113ZM109.472 102.235C106.929 106.279 104.756 110.596 103.344 115.133C103.297 115.58 104.024 115.853 104.158 115.359C106.742 111.629 108.423 107.718 110.239 103.586C110.374 103.273 110.509 103.18 110.737 102.687C110.872 102.014 109.876 101.561 109.466 102.24L109.472 102.235ZM121.27 95.0454C117.234 99.136 113.918 103.72 111.879 109.157C111.469 109.963 110.427 112.168 110.017 112.975C109.97 113.247 109.788 113.201 109.747 113.828C109.976 114.367 110.52 114.454 110.925 114.187C112.828 110.549 114.463 107.491 116.414 104.213C117.82 101.968 120.046 97.964 121.674 95.8983C122.266 95.4051 121.809 94.5928 121.264 95.0454H121.27ZM107.386 120.709C105.207 126.059 104.803 130.237 103.438 135.627C103.303 136.347 104.574 136.706 104.797 135.853C105.793 131.856 106.976 127.945 107.656 123.9C107.79 123.181 108.019 121.516 108.247 120.843C108.294 120.303 107.474 120.216 107.386 120.709ZM55.9336 123.401C55.752 123.042 55.1603 122.995 55.0724 123.401H55.1193C55.1193 123.401 55.0724 123.401 55.0724 123.448V123.494C55.0724 123.494 55.0724 123.541 55.0256 123.587C54.1644 125.339 53.7543 126.686 53.9359 128.757C53.9359 129.07 53.8422 129.297 53.8012 129.703C53.9359 130.289 54.7971 130.422 55.0724 129.796C55.8867 127.504 56.3905 125.751 55.9336 123.413V123.401ZM62.3307 121.742C62.4655 121.115 61.4696 120.889 61.3759 121.475C60.6026 123.9 59.9699 125.339 60.1046 128.084C60.1046 128.444 60.0109 128.803 59.923 129.21C59.6067 129.836 60.7842 130.376 61.1474 129.569C62.0554 126.871 62.6002 124.492 62.3249 121.748L62.3307 121.742ZM67.6851 117.738C66.4139 119.357 65.0548 121.556 64.9611 123.848C64.8673 125.873 65.0548 127.805 64.6447 129.778C64.6916 130.451 65.5528 130.544 65.8691 130.092C66.7303 126.541 66.865 123.529 67.6851 120.204C67.8199 119.305 68.2768 118.678 68.4994 117.779C68.4057 117.419 67.8667 117.286 67.6851 117.733V117.738ZM74.3108 115.945C73.3149 117.518 72.2663 119.363 72.2663 121.382C72.1784 121.696 72.1315 122.009 71.9968 122.328C71.7683 122.955 72.7232 123.361 73.0864 122.821C74.2639 120.576 75.1309 118.644 75.4004 116.218C75.3125 115.499 74.4045 115.412 74.3108 115.951V115.945ZM71.6336 126.053C71.3582 125.92 70.954 126.007 71.0009 126.413C70.8193 127.132 69.9581 127.985 70.046 128.838C70.2276 129.558 69.9991 130.77 70.3623 131.037C71.862 132.024 72.8111 126.407 71.6336 126.047V126.053ZM81.5691 114.013C78.2123 119.45 77.3512 124.666 75.7636 130.683C75.6699 130.776 75.582 131.31 75.9452 131.536C76.1737 131.763 76.7595 131.763 76.988 131.357C78.6224 125.92 80.3916 120.976 81.8854 115.626C82.0202 115.22 82.1549 114.86 82.2955 114.501C82.6587 114.054 81.8444 113.375 81.5691 114.007V114.013ZM88.4642 111.721C88.3295 111.495 87.8725 111.454 87.7378 111.768C86.2381 115.139 84.1994 118.371 83.2914 122.015C82.6997 124.574 81.7038 129.07 80.9774 131.542C80.5263 132.308 81.3406 133.341 82.1549 132.395C83.6956 127.364 86.4666 118.736 87.9194 113.793C88.0131 113.073 88.7337 112.447 88.4642 111.727V111.721ZM94.4513 109.696C94.2697 109.516 94.0002 109.516 93.8186 109.743C93.8186 109.774 93.803 109.789 93.7717 109.789V109.836H93.7249V109.882C93.7249 109.882 93.678 109.882 93.678 109.928C90.1865 116.265 88.3236 123.587 87.0524 130.782C86.9586 131.368 86.3728 132.941 86.6892 133.341C86.8708 133.747 87.8257 133.747 87.9135 133.115C89.3664 126.958 91.2234 121.069 92.9047 115.005C93.2211 114.019 93.9006 111.501 94.3107 110.514C94.3576 110.288 94.627 110.068 94.4454 109.708L94.4513 109.696ZM100.034 107.451C98.0365 109.696 98.1712 112.841 96.5837 115.313C96.3552 115.446 96.5368 116.299 96.9937 116.346C97.4038 116.572 98.0365 116.166 98.0834 115.806C99.6709 113.334 100.216 110.549 100.895 107.764C101.165 107.091 100.216 106.818 100.034 107.451ZM95.7225 120.123L95.6756 120.17C95.5819 120.216 95.494 120.216 95.4472 120.303C93.8596 124.574 93.3148 128.571 92.5884 133.022C92.4536 133.428 92.1373 134.414 92.9516 134.548C93.2211 134.635 93.678 134.322 93.7249 134.008C94.7676 130.457 95.8104 126.906 96.0857 123.175C96.1326 122.502 96.2673 121.017 96.3142 120.344C96.2673 120.03 95.951 119.984 95.7225 120.117V120.123ZM100.942 121.562H100.848C100.848 121.696 100.802 121.788 100.802 121.922V121.968C99.7588 124.173 98.4876 126.599 98.0775 129.111C97.849 130.997 97.5327 134.234 97.1226 136.033C96.9879 136.84 98.2123 137.02 98.4407 136.3C99.255 132.616 100.843 126.366 101.434 122.728C101.481 122.369 101.616 122.102 101.704 121.742C101.704 121.249 101.024 121.156 100.93 121.562H100.942ZM341.861 123.181C341.41 122.914 340.865 123.274 341.088 123.721C341 125.966 340.771 126.732 341.767 128.978C341.902 129.337 341.902 130.417 342.763 130.144C343.079 130.057 343.214 129.558 343.173 129.471C343.173 127.312 343.126 124.98 341.855 123.181H341.861ZM337.098 129.198C337.01 126.953 336.917 124.661 336.055 122.549L335.604 121.469C335.423 120.796 334.468 121.156 334.65 121.696C334.696 124.301 334.603 125.786 335.604 128.304C335.833 128.891 335.604 129.97 336.512 129.97C336.922 130.063 337.192 129.343 337.104 129.204L337.098 129.198ZM328.979 117.471C328.616 117.338 328.164 117.785 328.481 118.098C329.752 119.943 329.617 122.322 330.162 124.388C330.613 126.14 330.935 127.939 330.976 129.738C331.023 130.277 331.703 130.591 332.113 130.144C332.611 125.966 332.382 120.483 328.985 117.471H328.979ZM322.716 116.032C322.669 115.806 322.265 115.446 321.99 115.719C321.761 115.766 321.627 116.125 321.761 116.305H321.715C321.621 118.104 322.71 119.224 323.437 120.663L323.706 121.469C323.935 121.963 324.843 121.875 324.978 121.289C324.843 119.09 324.116 117.651 322.71 116.032H322.716ZM325.528 124.214C325.118 123.9 324.573 124.44 324.802 124.661C324.755 126.366 324.532 128.299 325.435 129.964C325.569 130.324 325.481 130.457 325.798 130.95C326.114 131.357 326.975 130.95 326.887 130.411C326.887 128.252 326.799 126.053 325.528 124.208V124.214ZM318.95 123.361C317.995 120.262 317.409 116.978 315.862 114.106C315.681 113.7 315.317 113.253 314.866 113.387C314.368 113.433 314.052 114.013 314.234 114.466C317.227 119.996 317.819 125.972 319.77 131.722C320.449 132.395 321.539 131.902 321.586 131.003C320.994 128.484 319.588 125.926 318.955 123.361H318.95ZM316.05 131.809C315.007 124.887 312.74 118.15 309.289 112.035C309.108 111.228 308.247 111.541 308.428 112.081V112.168C308.428 112.199 308.444 112.215 308.475 112.215C310.379 118.777 313.285 125.293 314.691 131.989C314.644 132.122 314.872 132.842 315.417 132.755C315.868 132.801 316.19 132.082 316.05 131.809ZM305.476 114.553C305.025 113.607 303.841 111.135 303.431 110.236C303.162 109.11 302.113 109.47 302.435 110.102C304.655 117.471 307.561 124.933 308.926 132.569C309.061 132.836 308.791 133.109 309.336 133.556C309.881 133.782 310.426 133.329 310.332 132.749C309.518 126.546 308.112 120.303 305.476 114.547V114.553ZM300.256 115.313C299.623 112.934 298.938 110.503 297.579 108.437L296.852 107.451C296.624 106.824 295.675 107.091 295.944 107.764C296.577 109.25 296.489 111.042 297.35 112.435C297.942 113.514 298.668 114.547 299.032 115.713C299.078 115.98 299.483 116.299 299.805 116.16C300.215 116.207 300.438 115.487 300.256 115.307V115.313ZM302.119 121.202C301.849 120.576 301.392 119.177 301.123 118.551C300.807 118.191 300.215 118.551 300.35 118.957C300.713 124.307 301.984 127.678 303.115 132.708C303.613 133.294 304.433 132.801 304.339 132.169C303.888 128.484 303.343 124.753 302.119 121.202ZM287.145 102.374C286.964 101.968 286.284 102.194 286.331 102.641C287.919 108.304 290.549 110.596 292.412 115.493C292.775 116.299 293.912 115.853 293.865 115.133C292.365 110.503 289.688 106.459 287.151 102.368L287.145 102.374ZM296.448 122.415C296.266 122.102 296.22 121.829 296.038 121.469C295.769 121.063 294.995 121.336 295.265 121.829C296.126 126.32 297.626 130.77 298.393 135.308C298.44 135.755 298.44 136.927 299.348 136.7C299.758 136.7 299.893 136.027 299.799 135.935C299.617 131.264 298.662 126.541 296.442 122.409L296.448 122.415ZM287.057 113.247C284.743 106.505 281.023 100.262 275.898 95.2717C275.4 94.4187 274.626 95.1788 275.036 95.5386C278.938 101.515 283.068 107.132 285.792 113.694C286.021 114.727 287.608 114.28 287.063 113.247H287.057ZM289.506 120.616C289.278 120.123 288.51 120.436 288.692 120.93C289.688 126.639 291.322 130.863 292.183 135.894C292.453 136.7 293.636 136.3 293.501 135.534C292.775 130.411 291.457 125.421 289.506 120.616ZM341.861 123.181C341.41 122.914 340.865 123.274 341.088 123.721C341 125.966 340.771 126.732 341.767 128.978C341.902 129.337 341.902 130.417 342.763 130.144C343.079 130.057 343.214 129.558 343.173 129.471C343.173 127.312 343.126 124.98 341.855 123.181H341.861ZM337.098 129.198C337.01 126.953 336.917 124.661 336.055 122.549L335.604 121.469C335.423 120.796 334.468 121.156 334.65 121.696C334.696 124.301 334.603 125.786 335.604 128.304C335.833 128.891 335.604 129.97 336.512 129.97C336.922 130.063 337.192 129.343 337.104 129.204L337.098 129.198ZM328.979 117.471C328.616 117.338 328.164 117.785 328.481 118.098C329.752 119.943 329.617 122.322 330.162 124.388C330.613 126.14 330.935 127.939 330.976 129.738C331.023 130.277 331.703 130.591 332.113 130.144C332.611 125.966 332.382 120.483 328.985 117.471H328.979ZM325.528 124.214C325.118 123.9 324.573 124.44 324.802 124.661C324.755 126.366 324.532 128.299 325.435 129.964C325.569 130.324 325.481 130.457 325.798 130.95C326.114 131.357 326.975 130.95 326.887 130.411C326.887 128.252 326.799 126.053 325.528 124.208V124.214ZM322.716 116.032C322.669 115.806 322.265 115.446 321.99 115.719C321.761 115.766 321.627 116.125 321.761 116.305H321.715C321.621 118.104 322.71 119.224 323.437 120.663L323.706 121.469C323.935 121.963 324.843 121.875 324.978 121.289C324.843 119.09 324.116 117.651 322.71 116.032H322.716ZM318.95 123.361C317.995 120.262 317.409 116.978 315.862 114.106C315.681 113.7 315.317 113.253 314.866 113.387C314.368 113.433 314.052 114.013 314.234 114.466C317.227 119.996 317.819 125.972 319.77 131.722C320.449 132.395 321.539 131.902 321.586 131.003C320.994 128.484 319.588 125.926 318.955 123.361H318.95ZM316.05 131.809C315.007 124.887 312.74 118.15 309.289 112.035C309.108 111.228 308.247 111.541 308.428 112.081V112.168C308.428 112.199 308.444 112.215 308.475 112.215C310.379 118.777 313.285 125.293 314.691 131.989C314.644 132.122 314.872 132.842 315.417 132.755C315.868 132.801 316.19 132.082 316.05 131.809ZM305.476 114.553C305.025 113.607 303.841 111.135 303.431 110.236C303.162 109.11 302.113 109.47 302.435 110.102C304.655 117.471 307.561 124.933 308.926 132.569C309.061 132.836 308.791 133.109 309.336 133.556C309.881 133.782 310.426 133.329 310.332 132.749C309.518 126.546 308.112 120.303 305.476 114.547V114.553ZM302.119 121.202C301.849 120.576 301.392 119.177 301.123 118.551C300.807 118.191 300.215 118.551 300.35 118.957C300.713 124.307 301.984 127.678 303.115 132.708C303.613 133.294 304.433 132.801 304.339 132.169C303.888 128.484 303.343 124.753 302.119 121.202ZM300.256 115.313C299.623 112.934 298.938 110.503 297.579 108.437L296.852 107.451C296.624 106.824 295.675 107.091 295.944 107.764C296.577 109.25 296.489 111.042 297.35 112.435C297.942 113.514 298.668 114.547 299.032 115.713C299.078 115.98 299.483 116.299 299.805 116.16C300.215 116.207 300.438 115.487 300.256 115.307V115.313ZM296.448 122.415C296.266 122.102 296.22 121.829 296.038 121.469C295.769 121.063 294.995 121.336 295.265 121.829C296.126 126.32 297.626 130.77 298.393 135.308C298.44 135.755 298.44 136.927 299.348 136.7C299.758 136.7 299.893 136.027 299.799 135.935C299.617 131.264 298.662 126.541 296.442 122.409L296.448 122.415ZM287.145 102.374C286.964 101.968 286.284 102.194 286.331 102.641C287.919 108.304 290.549 110.596 292.412 115.493C292.775 116.299 293.912 115.853 293.865 115.133C292.365 110.503 289.688 106.459 287.151 102.368L287.145 102.374ZM289.506 120.616C289.278 120.123 288.51 120.436 288.692 120.93C289.688 126.639 291.322 130.863 292.183 135.894C292.453 136.7 293.636 136.3 293.501 135.534C292.775 130.411 291.457 125.421 289.506 120.616ZM287.057 113.247C284.743 106.505 281.023 100.262 275.898 95.2717C275.4 94.4187 274.626 95.1788 275.036 95.5386C278.938 101.515 283.068 107.132 285.792 113.694C286.021 114.727 287.608 114.28 287.063 113.247H287.057ZM121.27 95.0454C117.234 99.136 113.918 103.72 111.879 109.157C111.469 109.963 110.427 112.168 110.017 112.975C109.97 113.247 109.788 113.201 109.747 113.828C109.976 114.367 110.52 114.454 110.925 114.187C112.828 110.549 114.463 107.491 116.414 104.213C117.82 101.968 120.046 97.964 121.674 95.8983C122.266 95.4051 121.809 94.5928 121.264 95.0454H121.27ZM109.472 102.235C106.929 106.279 104.756 110.596 103.344 115.133C103.297 115.58 104.024 115.853 104.158 115.359C106.742 111.629 108.423 107.718 110.239 103.586C110.374 103.273 110.509 103.18 110.737 102.687C110.872 102.014 109.876 101.561 109.466 102.24L109.472 102.235ZM107.386 120.709C105.207 126.059 104.803 130.237 103.438 135.627C103.303 136.347 104.574 136.706 104.797 135.853C105.793 131.856 106.976 127.945 107.656 123.9C107.79 123.181 108.019 121.516 108.247 120.843C108.294 120.303 107.474 120.216 107.386 120.709ZM100.942 121.562H100.848C100.848 121.696 100.802 121.788 100.802 121.922V121.968C99.7588 124.173 98.4876 126.599 98.0775 129.111C97.849 130.997 97.5327 134.234 97.1226 136.033C96.9879 136.84 98.2123 137.02 98.4407 136.3C99.255 132.616 100.843 126.366 101.434 122.728C101.481 122.369 101.616 122.102 101.704 121.742C101.704 121.249 101.024 121.156 100.93 121.562H100.942ZM100.034 107.451C98.0365 109.696 98.1712 112.841 96.5837 115.313C96.3552 115.446 96.5368 116.299 96.9937 116.346C97.4038 116.572 98.0365 116.166 98.0834 115.806C99.6709 113.334 100.216 110.549 100.895 107.764C101.165 107.091 100.216 106.818 100.034 107.451ZM95.7225 120.123L95.6756 120.17C95.5819 120.216 95.494 120.216 95.4472 120.303C93.8596 124.574 93.3148 128.571 92.5884 133.022C92.4536 133.428 92.1373 134.414 92.9516 134.548C93.2211 134.635 93.678 134.322 93.7249 134.008C94.7676 130.457 95.8104 126.906 96.0857 123.175C96.1326 122.502 96.2673 121.017 96.3142 120.344C96.2673 120.03 95.951 119.984 95.7225 120.117V120.123ZM94.4513 109.696C94.2697 109.516 94.0002 109.516 93.8186 109.743C93.8186 109.774 93.803 109.789 93.7717 109.789V109.836H93.7249V109.882C93.7249 109.882 93.678 109.882 93.678 109.928C90.1865 116.265 88.3236 123.587 87.0524 130.782C86.9586 131.368 86.3728 132.941 86.6892 133.341C86.8708 133.747 87.8257 133.747 87.9135 133.115C89.3664 126.958 91.2234 121.069 92.9047 115.005C93.2211 114.019 93.9006 111.501 94.3107 110.514C94.3576 110.288 94.627 110.068 94.4454 109.708L94.4513 109.696ZM88.4642 111.721C88.3295 111.495 87.8725 111.454 87.7378 111.768C86.2381 115.139 84.1994 118.371 83.2914 122.015C82.6997 124.574 81.7038 129.07 80.9774 131.542C80.5263 132.308 81.3406 133.341 82.1549 132.395C83.6956 127.364 86.4666 118.736 87.9194 113.793C88.0131 113.073 88.7337 112.447 88.4642 111.727V111.721ZM81.5691 114.013C78.2123 119.45 77.3512 124.666 75.7636 130.683C75.6699 130.776 75.582 131.31 75.9452 131.536C76.1737 131.763 76.7595 131.763 76.988 131.357C78.6224 125.92 80.3916 120.976 81.8854 115.626C82.0202 115.22 82.1549 114.86 82.2955 114.501C82.6587 114.054 81.8444 113.375 81.5691 114.007V114.013ZM74.3108 115.945C73.3149 117.518 72.2663 119.363 72.2663 121.382C72.1784 121.696 72.1315 122.009 71.9968 122.328C71.7683 122.955 72.7232 123.361 73.0864 122.821C74.2639 120.576 75.1309 118.644 75.4004 116.218C75.3125 115.499 74.4045 115.412 74.3108 115.951V115.945ZM71.6336 126.053C71.3582 125.92 70.954 126.007 71.0009 126.413C70.8193 127.132 69.9581 127.985 70.046 128.838C70.2276 129.558 69.9991 130.77 70.3623 131.037C71.862 132.024 72.8111 126.407 71.6336 126.047V126.053ZM67.6851 117.738C66.4139 119.357 65.0548 121.556 64.9611 123.848C64.8673 125.873 65.0548 127.805 64.6447 129.778C64.6916 130.451 65.5528 130.544 65.8691 130.092C66.7303 126.541 66.865 123.529 67.6851 120.204C67.8199 119.305 68.2768 118.678 68.4994 117.779C68.4057 117.419 67.8667 117.286 67.6851 117.733V117.738ZM62.3307 121.742C62.4655 121.115 61.4696 120.889 61.3759 121.475C60.6026 123.9 59.9699 125.339 60.1046 128.084C60.1046 128.444 60.0109 128.803 59.923 129.21C59.6067 129.836 60.7842 130.376 61.1474 129.569C62.0554 126.871 62.6002 124.492 62.3249 121.748L62.3307 121.742ZM55.9336 123.401C55.752 123.042 55.1603 122.995 55.0724 123.401H55.1193C55.1193 123.401 55.0724 123.401 55.0724 123.448V123.494C55.0724 123.494 55.0724 123.541 55.0256 123.587C54.1644 125.339 53.7543 126.686 53.9359 128.757C53.9359 129.07 53.8422 129.297 53.8012 129.703C53.9359 130.289 54.7971 130.422 55.0724 129.796C55.8867 127.504 56.3905 125.751 55.9336 123.413V123.401ZM271.223 195.351C267.456 197.416 263.83 199.348 260.063 201.507C248.903 207.843 237.104 213.146 224.539 215.932C192.916 221.548 159.343 213.326 132.301 196.65L128.036 194.405C127.902 194.312 127.357 194.045 127.222 193.999C126.947 193.819 126.496 194.092 126.589 194.445C128.452 195.931 136.027 200.062 138.113 201.455C160.344 214.307 186.753 220.869 212.523 219.61C233.941 218.444 252.769 207.565 270.461 196.558L271.504 195.931C271.504 195.931 271.82 195.751 271.732 195.484C271.685 195.217 271.234 195.304 271.234 195.351H271.223ZM249.213 207.617C248.259 208.11 247.263 208.516 246.267 208.876C247.766 208.203 249.213 207.53 250.666 206.764C250.168 207.031 249.711 207.35 249.213 207.617ZM241.686 30.1113C219.542 16.4932 190.778 16.2727 166.824 25.1677C159.928 27.5524 152.94 29.7515 146.496 33.0763C145.271 33.6159 144.135 34.2019 143.549 34.6023C143.455 34.6893 143.32 34.7358 143.233 34.7822C143.051 34.875 143.139 35.229 143.367 35.0491C159.384 29.972 175.447 23.4096 192.324 21.7907C207.977 20.9842 224.539 23.0034 238.786 29.7457C239.237 29.972 240.508 30.5987 240.918 30.7786C241.281 31.0049 241.914 30.5523 241.691 30.1055L241.686 30.1113ZM55.9336 123.401C55.752 123.042 55.1603 122.995 55.0724 123.401H55.1193C55.1193 123.401 55.0724 123.401 55.0724 123.448V123.494C55.0724 123.494 55.0724 123.541 55.0256 123.587C54.1644 125.339 53.7543 126.686 53.9359 128.757C53.9359 129.07 53.8422 129.297 53.8012 129.703C53.9359 130.289 54.7971 130.422 55.0724 129.796C55.8867 127.504 56.3905 125.751 55.9336 123.413V123.401ZM62.3307 121.742C62.4655 121.115 61.4696 120.889 61.3759 121.475C60.6026 123.9 59.9699 125.339 60.1046 128.084C60.1046 128.444 60.0109 128.803 59.923 129.21C59.6067 129.836 60.7842 130.376 61.1474 129.569C62.0554 126.871 62.6002 124.492 62.3249 121.748L62.3307 121.742ZM67.6851 117.738C66.4139 119.357 65.0548 121.556 64.9611 123.848C64.8673 125.873 65.0548 127.805 64.6447 129.778C64.6916 130.451 65.5528 130.544 65.8691 130.092C66.7303 126.541 66.865 123.529 67.6851 120.204C67.8199 119.305 68.2768 118.678 68.4994 117.779C68.4057 117.419 67.8667 117.286 67.6851 117.733V117.738ZM71.6336 126.053C71.3582 125.92 70.954 126.007 71.0009 126.413C70.8193 127.132 69.9581 127.985 70.046 128.838C70.2276 129.558 69.9991 130.77 70.3623 131.037C71.862 132.024 72.8111 126.407 71.6336 126.047V126.053ZM74.3108 115.945C73.3149 117.518 72.2663 119.363 72.2663 121.382C72.1784 121.696 72.1315 122.009 71.9968 122.328C71.7683 122.955 72.7232 123.361 73.0864 122.821C74.2639 120.576 75.1309 118.644 75.4004 116.218C75.3125 115.499 74.4045 115.412 74.3108 115.951V115.945ZM81.5691 114.013C78.2123 119.45 77.3512 124.666 75.7636 130.683C75.6699 130.776 75.582 131.31 75.9452 131.536C76.1737 131.763 76.7595 131.763 76.988 131.357C78.6224 125.92 80.3916 120.976 81.8854 115.626C82.0202 115.22 82.1549 114.86 82.2955 114.501C82.6587 114.054 81.8444 113.375 81.5691 114.007V114.013ZM88.4642 111.721C88.3295 111.495 87.8725 111.454 87.7378 111.768C86.2381 115.139 84.1994 118.371 83.2914 122.015C82.6997 124.574 81.7038 129.07 80.9774 131.542C80.5263 132.308 81.3406 133.341 82.1549 132.395C83.6956 127.364 86.4666 118.736 87.9194 113.793C88.0131 113.073 88.7337 112.447 88.4642 111.727V111.721ZM94.4513 109.696C94.2697 109.516 94.0002 109.516 93.8186 109.743C93.8186 109.774 93.803 109.789 93.7717 109.789V109.836H93.7249V109.882C93.7249 109.882 93.678 109.882 93.678 109.928C90.1865 116.265 88.3236 123.587 87.0524 130.782C86.9586 131.368 86.3728 132.941 86.6892 133.341C86.8708 133.747 87.8257 133.747 87.9135 133.115C89.3664 126.958 91.2234 121.069 92.9047 115.005C93.2211 114.019 93.9006 111.501 94.3107 110.514C94.3576 110.288 94.627 110.068 94.4454 109.708L94.4513 109.696ZM95.7225 120.123L95.6756 120.17C95.5819 120.216 95.494 120.216 95.4472 120.303C93.8596 124.574 93.3148 128.571 92.5884 133.022C92.4536 133.428 92.1373 134.414 92.9516 134.548C93.2211 134.635 93.678 134.322 93.7249 134.008C94.7676 130.457 95.8104 126.906 96.0857 123.175C96.1326 122.502 96.2673 121.017 96.3142 120.344C96.2673 120.03 95.951 119.984 95.7225 120.117V120.123ZM100.034 107.451C98.0365 109.696 98.1712 112.841 96.5837 115.313C96.3552 115.446 96.5368 116.299 96.9937 116.346C97.4038 116.572 98.0365 116.166 98.0834 115.806C99.6709 113.334 100.216 110.549 100.895 107.764C101.165 107.091 100.216 106.818 100.034 107.451ZM100.942 121.562H100.848C100.848 121.696 100.802 121.788 100.802 121.922V121.968C99.7588 124.173 98.4876 126.599 98.0775 129.111C97.849 130.997 97.5327 134.234 97.1226 136.033C96.9879 136.84 98.2123 137.02 98.4407 136.3C99.255 132.616 100.843 126.366 101.434 122.728C101.481 122.369 101.616 122.102 101.704 121.742C101.704 121.249 101.024 121.156 100.93 121.562H100.942ZM107.386 120.709C105.207 126.059 104.803 130.237 103.438 135.627C103.303 136.347 104.574 136.706 104.797 135.853C105.793 131.856 106.976 127.945 107.656 123.9C107.79 123.181 108.019 121.516 108.247 120.843C108.294 120.303 107.474 120.216 107.386 120.709ZM109.472 102.235C106.929 106.279 104.756 110.596 103.344 115.133C103.297 115.58 104.024 115.853 104.158 115.359C106.742 111.629 108.423 107.718 110.239 103.586C110.374 103.273 110.509 103.18 110.737 102.687C110.872 102.014 109.876 101.561 109.466 102.24L109.472 102.235ZM121.27 95.0454C117.234 99.136 113.918 103.72 111.879 109.157C111.469 109.963 110.427 112.168 110.017 112.975C109.97 113.247 109.788 113.201 109.747 113.828C109.976 114.367 110.52 114.454 110.925 114.187C112.828 110.549 114.463 107.491 116.414 104.213C117.82 101.968 120.046 97.964 121.674 95.8983C122.266 95.4051 121.809 94.5928 121.264 95.0454H121.27ZM241.686 30.1113C219.542 16.4932 190.778 16.2727 166.824 25.1677C159.928 27.5524 152.94 29.7515 146.496 33.0763C145.271 33.6159 144.135 34.2019 143.549 34.6023C143.455 34.6893 143.32 34.7358 143.233 34.7822C143.051 34.875 143.139 35.229 143.367 35.0491C159.384 29.972 175.447 23.4096 192.324 21.7907C207.977 20.9842 224.539 23.0034 238.786 29.7457C239.237 29.972 240.508 30.5987 240.918 30.7786C241.281 31.0049 241.914 30.5523 241.691 30.1055L241.686 30.1113ZM271.223 195.351C267.456 197.416 263.83 199.348 260.063 201.507C248.903 207.843 237.104 213.146 224.539 215.932C192.916 221.548 159.343 213.326 132.301 196.65L128.036 194.405C127.902 194.312 127.357 194.045 127.222 193.999C126.947 193.819 126.496 194.092 126.589 194.445C128.452 195.931 136.027 200.062 138.113 201.455C160.344 214.307 186.753 220.869 212.523 219.61C233.941 218.444 252.769 207.565 270.461 196.558L271.504 195.931C271.504 195.931 271.82 195.751 271.732 195.484C271.685 195.217 271.234 195.304 271.234 195.351H271.223ZM249.213 207.617C248.259 208.11 247.263 208.516 246.267 208.876C247.766 208.203 249.213 207.53 250.666 206.764C250.168 207.031 249.711 207.35 249.213 207.617ZM287.057 113.247C284.743 106.505 281.023 100.262 275.898 95.2717C275.4 94.4187 274.626 95.1788 275.036 95.5386C278.938 101.515 283.068 107.132 285.792 113.694C286.021 114.727 287.608 114.28 287.063 113.247H287.057ZM289.506 120.616C289.278 120.123 288.51 120.436 288.692 120.93C289.688 126.639 291.322 130.863 292.183 135.894C292.453 136.7 293.636 136.3 293.501 135.534C292.775 130.411 291.457 125.421 289.506 120.616ZM287.145 102.374C286.964 101.968 286.284 102.194 286.331 102.641C287.919 108.304 290.549 110.596 292.412 115.493C292.775 116.299 293.912 115.853 293.865 115.133C292.365 110.503 289.688 106.459 287.151 102.368L287.145 102.374ZM296.448 122.415C296.266 122.102 296.22 121.829 296.038 121.469C295.769 121.063 294.995 121.336 295.265 121.829C296.126 126.32 297.626 130.77 298.393 135.308C298.44 135.755 298.44 136.927 299.348 136.7C299.758 136.7 299.893 136.027 299.799 135.935C299.617 131.264 298.662 126.541 296.442 122.409L296.448 122.415ZM300.256 115.313C299.623 112.934 298.938 110.503 297.579 108.437L296.852 107.451C296.624 106.824 295.675 107.091 295.944 107.764C296.577 109.25 296.489 111.042 297.35 112.435C297.942 113.514 298.668 114.547 299.032 115.713C299.078 115.98 299.483 116.299 299.805 116.16C300.215 116.207 300.438 115.487 300.256 115.307V115.313ZM302.119 121.202C301.849 120.576 301.392 119.177 301.123 118.551C300.807 118.191 300.215 118.551 300.35 118.957C300.713 124.307 301.984 127.678 303.115 132.708C303.613 133.294 304.433 132.801 304.339 132.169C303.888 128.484 303.343 124.753 302.119 121.202ZM305.476 114.553C305.025 113.607 303.841 111.135 303.431 110.236C303.162 109.11 302.113 109.47 302.435 110.102C304.655 117.471 307.561 124.933 308.926 132.569C309.061 132.836 308.791 133.109 309.336 133.556C309.881 133.782 310.426 133.329 310.332 132.749C309.518 126.546 308.112 120.303 305.476 114.547V114.553ZM316.05 131.809C315.007 124.887 312.74 118.15 309.289 112.035C309.108 111.228 308.247 111.541 308.428 112.081V112.168C308.428 112.199 308.444 112.215 308.475 112.215C310.379 118.777 313.285 125.293 314.691 131.989C314.644 132.122 314.872 132.842 315.417 132.755C315.868 132.801 316.19 132.082 316.05 131.809ZM318.95 123.361C317.995 120.262 317.409 116.978 315.862 114.106C315.681 113.7 315.317 113.253 314.866 113.387C314.368 113.433 314.052 114.013 314.234 114.466C317.227 119.996 317.819 125.972 319.77 131.722C320.449 132.395 321.539 131.902 321.586 131.003C320.994 128.484 319.588 125.926 318.955 123.361H318.95ZM322.716 116.032C322.669 115.806 322.265 115.446 321.99 115.719C321.761 115.766 321.627 116.125 321.761 116.305H321.715C321.621 118.104 322.71 119.224 323.437 120.663L323.706 121.469C323.935 121.963 324.843 121.875 324.978 121.289C324.843 119.09 324.116 117.651 322.71 116.032H322.716ZM325.528 124.214C325.118 123.9 324.573 124.44 324.802 124.661C324.755 126.366 324.532 128.299 325.435 129.964C325.569 130.324 325.481 130.457 325.798 130.95C326.114 131.357 326.975 130.95 326.887 130.411C326.887 128.252 326.799 126.053 325.528 124.208V124.214ZM328.979 117.471C328.616 117.338 328.164 117.785 328.481 118.098C329.752 119.943 329.617 122.322 330.162 124.388C330.613 126.14 330.935 127.939 330.976 129.738C331.023 130.277 331.703 130.591 332.113 130.144C332.611 125.966 332.382 120.483 328.985 117.471H328.979ZM337.098 129.198C337.01 126.953 336.917 124.661 336.055 122.549L335.604 121.469C335.423 120.796 334.468 121.156 334.65 121.696C334.696 124.301 334.603 125.786 335.604 128.304C335.833 128.891 335.604 129.97 336.512 129.97C336.922 130.063 337.192 129.343 337.104 129.204L337.098 129.198ZM341.861 123.181C341.41 122.914 340.865 123.274 341.088 123.721C341 125.966 340.771 126.732 341.767 128.978C341.902 129.337 341.902 130.417 342.763 130.144C343.079 130.057 343.214 129.558 343.173 129.471C343.173 127.312 343.126 124.98 341.855 123.181H341.861ZM341.861 123.181C341.41 122.914 340.865 123.274 341.088 123.721C341 125.966 340.771 126.732 341.767 128.978C341.902 129.337 341.902 130.417 342.763 130.144C343.079 130.057 343.214 129.558 343.173 129.471C343.173 127.312 343.126 124.98 341.855 123.181H341.861ZM336.055 122.549L335.604 121.469C335.423 120.796 334.468 121.156 334.65 121.696C334.696 124.301 334.603 125.786 335.604 128.304C335.833 128.891 335.604 129.97 336.512 129.97C336.922 130.063 337.192 129.343 337.104 129.204C337.016 126.958 336.922 124.666 336.061 122.554L336.055 122.549ZM328.481 118.098C329.752 119.943 329.617 122.322 330.162 124.388C330.613 126.14 330.935 127.939 330.976 129.738C331.023 130.277 331.703 130.591 332.113 130.144C332.611 125.966 332.382 120.483 328.985 117.471C328.621 117.338 328.17 117.785 328.487 118.098H328.481ZM324.802 124.661C324.755 126.366 324.532 128.299 325.435 129.964C325.569 130.324 325.481 130.457 325.798 130.95C326.114 131.357 326.975 130.95 326.887 130.411C326.887 128.252 326.799 126.053 325.528 124.208C325.118 123.895 324.573 124.434 324.802 124.655V124.661ZM324.983 121.289C324.849 119.09 324.122 117.651 322.716 116.032C322.669 115.806 322.265 115.446 321.99 115.719C321.761 115.766 321.627 116.125 321.761 116.305H321.715C321.621 118.104 322.71 119.224 323.437 120.663L323.706 121.469C323.935 121.963 324.843 121.875 324.978 121.289H324.983ZM315.862 114.1C315.681 113.694 315.317 113.247 314.866 113.381C314.368 113.427 314.052 114.007 314.234 114.46C317.227 119.99 317.819 125.966 319.77 131.716C320.449 132.389 321.539 131.896 321.586 130.997C320.994 128.479 319.588 125.92 318.955 123.355C318 120.257 317.415 116.972 315.868 114.1H315.862ZM309.283 112.035C309.102 111.228 308.241 111.541 308.422 112.081V112.168C308.422 112.199 308.438 112.215 308.469 112.215C310.373 118.777 313.279 125.293 314.685 131.989C314.638 132.122 314.866 132.842 315.411 132.755C315.862 132.801 316.184 132.082 316.044 131.809C315.001 124.887 312.734 118.15 309.283 112.035ZM303.431 110.236C303.162 109.11 302.113 109.47 302.435 110.102C304.655 117.471 307.561 124.933 308.926 132.569C309.061 132.836 308.791 133.109 309.336 133.556C309.881 133.782 310.426 133.329 310.332 132.749C309.518 126.546 308.112 120.303 305.476 114.547C305.025 113.601 303.841 111.13 303.431 110.23V110.236ZM301.117 118.551C300.801 118.191 300.209 118.551 300.344 118.957C300.707 124.307 301.978 127.678 303.109 132.708C303.607 133.294 304.427 132.801 304.333 132.169C303.882 128.484 303.337 124.753 302.113 121.202C301.844 120.576 301.387 119.177 301.117 118.551ZM297.579 108.437L296.852 107.451C296.624 106.824 295.675 107.091 295.944 107.764C296.577 109.25 296.489 111.042 297.35 112.435C297.942 113.514 298.668 114.547 299.032 115.713C299.078 115.98 299.483 116.299 299.805 116.16C300.215 116.207 300.438 115.487 300.256 115.307C299.623 112.928 298.938 110.497 297.579 108.431V108.437ZM296.038 121.469C295.769 121.063 294.995 121.336 295.265 121.829C296.126 126.32 297.626 130.77 298.393 135.308C298.44 135.755 298.44 136.927 299.348 136.7C299.758 136.7 299.893 136.027 299.799 135.935C299.617 131.264 298.662 126.541 296.442 122.409C296.261 122.096 296.214 121.823 296.032 121.463L296.038 121.469ZM286.331 102.641C287.919 108.304 290.549 110.596 292.412 115.493C292.775 116.299 293.912 115.853 293.865 115.133C292.365 110.503 289.688 106.459 287.151 102.368C286.97 101.962 286.29 102.188 286.337 102.635L286.331 102.641ZM288.686 120.93C289.682 126.639 291.316 130.863 292.177 135.894C292.447 136.7 293.63 136.3 293.496 135.534C292.769 130.411 291.451 125.421 289.5 120.616C289.272 120.123 288.504 120.436 288.686 120.93ZM275.892 95.2717C275.394 94.4187 274.62 95.1788 275.031 95.5386C278.932 101.515 283.062 107.132 285.786 113.694C286.015 114.727 287.602 114.28 287.057 113.247C284.743 106.505 281.023 100.262 275.898 95.2717H275.892ZM121.27 95.0454C117.234 99.136 113.918 103.72 111.879 109.157C111.469 109.963 110.427 112.168 110.017 112.975C109.97 113.247 109.788 113.201 109.747 113.828C109.976 114.367 110.52 114.454 110.925 114.187C112.828 110.549 114.463 107.491 116.414 104.213C117.82 101.968 120.046 97.964 121.674 95.8983C122.266 95.4051 121.809 94.5928 121.264 95.0454H121.27ZM104.164 115.359C106.748 111.629 108.429 107.718 110.245 103.586C110.38 103.273 110.514 103.18 110.743 102.687C110.878 102.014 109.882 101.561 109.472 102.24C106.929 106.285 104.756 110.601 103.344 115.139C103.297 115.586 104.024 115.858 104.158 115.365L104.164 115.359ZM107.386 120.709C105.207 126.059 104.803 130.237 103.438 135.627C103.303 136.347 104.574 136.706 104.797 135.853C105.793 131.856 106.976 127.945 107.656 123.9C107.79 123.181 108.019 121.516 108.247 120.843C108.294 120.303 107.474 120.216 107.386 120.709ZM100.942 121.562H100.848C100.848 121.696 100.802 121.788 100.802 121.922V121.968C99.7588 124.173 98.4876 126.599 98.0775 129.111C97.849 130.997 97.5327 134.234 97.1226 136.033C96.9879 136.84 98.2123 137.02 98.4407 136.3C99.255 132.616 100.843 126.366 101.434 122.728C101.481 122.369 101.616 122.102 101.704 121.742C101.704 121.249 101.024 121.156 100.93 121.562H100.942ZM98.0834 115.806C99.6709 113.334 100.216 110.549 100.895 107.764C101.165 107.091 100.216 106.818 100.034 107.451C98.0365 109.696 98.1712 112.841 96.5837 115.313C96.3552 115.446 96.5368 116.299 96.9937 116.346C97.4038 116.572 98.0365 116.166 98.0834 115.806ZM95.7225 120.123L95.6756 120.17C95.5819 120.216 95.494 120.216 95.4472 120.303C93.8596 124.574 93.3148 128.571 92.5884 133.022C92.4536 133.428 92.1373 134.414 92.9516 134.548C93.2211 134.635 93.678 134.322 93.7249 134.008C94.7676 130.457 95.8104 126.906 96.0857 123.175C96.1326 122.502 96.2673 121.017 96.3142 120.344C96.2673 120.03 95.951 119.984 95.7225 120.117V120.123ZM94.3166 110.503C94.3634 110.277 94.6329 110.056 94.4513 109.696C94.2697 109.516 94.0002 109.516 93.8186 109.743C93.8186 109.774 93.803 109.789 93.7717 109.789V109.836H93.7249V109.882C93.7249 109.882 93.678 109.882 93.678 109.928C90.1865 116.265 88.3236 123.587 87.0524 130.782C86.9586 131.368 86.3728 132.941 86.6892 133.341C86.8708 133.747 87.8257 133.747 87.9135 133.115C89.3664 126.958 91.2234 121.069 92.9047 115.005C93.2211 114.019 93.9006 111.501 94.3107 110.514L94.3166 110.503ZM88.4642 111.721C88.3295 111.495 87.8725 111.454 87.7378 111.768C86.2381 115.139 84.1994 118.371 83.2914 122.015C82.6997 124.574 81.7038 129.07 80.9774 131.542C80.5263 132.308 81.3406 133.341 82.1549 132.395C83.6956 127.364 86.4666 118.736 87.9194 113.793C88.0131 113.073 88.7337 112.447 88.4642 111.727V111.721ZM82.2955 114.506C82.6587 114.06 81.8444 113.381 81.5691 114.013C78.2123 119.45 77.3512 124.666 75.7636 130.683C75.6699 130.776 75.582 131.31 75.9452 131.536C76.1737 131.763 76.7595 131.763 76.988 131.357C78.6224 125.92 80.3916 120.976 81.8854 115.626C82.0202 115.22 82.1549 114.86 82.2955 114.501V114.506ZM74.3108 115.945C73.3149 117.518 72.2663 119.363 72.2663 121.382C72.1784 121.696 72.1315 122.009 71.9968 122.328C71.7683 122.955 72.7232 123.361 73.0864 122.821C74.2639 120.576 75.1309 118.644 75.4004 116.218C75.3125 115.499 74.4045 115.412 74.3108 115.951V115.945ZM70.995 126.413C70.8134 127.132 69.9523 127.985 70.0401 128.838C70.2217 129.558 69.9933 130.77 70.3565 131.037C71.8562 132.024 72.8052 126.407 71.6277 126.047C71.3524 125.914 70.9482 126.001 70.995 126.407V126.413ZM67.6851 117.738C66.4139 119.357 65.0548 121.556 64.9611 123.848C64.8673 125.873 65.0548 127.805 64.6447 129.778C64.6916 130.451 65.5528 130.544 65.8691 130.092C66.7303 126.541 66.865 123.529 67.6851 120.204C67.8199 119.305 68.2768 118.678 68.4994 117.779C68.4057 117.419 67.8667 117.286 67.6851 117.733V117.738ZM61.3759 121.469C60.6026 123.895 59.9699 125.334 60.1046 128.078C60.1046 128.438 60.0109 128.798 59.923 129.204C59.6067 129.83 60.7842 130.37 61.1474 129.564C62.0554 126.865 62.6002 124.487 62.3249 121.742C62.4596 121.115 61.4637 120.889 61.37 121.475L61.3759 121.469ZM55.0724 123.401H55.1193C55.1193 123.401 55.0724 123.401 55.0724 123.448V123.494C55.0724 123.494 55.0724 123.541 55.0256 123.587C54.1644 125.339 53.7543 126.686 53.9359 128.757C53.9359 129.07 53.8422 129.297 53.8012 129.703C53.9359 130.289 54.7971 130.422 55.0724 129.796C55.8867 127.504 56.3905 125.751 55.9336 123.413C55.752 123.053 55.1603 123.007 55.0724 123.413V123.401ZM271.223 195.351C267.456 197.416 263.83 199.348 260.063 201.507C248.903 207.843 237.104 213.146 224.539 215.932C192.916 221.548 159.343 213.326 132.301 196.65L128.036 194.405C127.902 194.312 127.357 194.045 127.222 193.999C126.947 193.819 126.496 194.092 126.589 194.445C128.452 195.931 136.027 200.062 138.113 201.455C160.344 214.307 186.753 220.869 212.523 219.61C233.941 218.444 252.769 207.565 270.461 196.558L271.504 195.931C271.504 195.931 271.82 195.751 271.732 195.484C271.685 195.217 271.234 195.304 271.234 195.351H271.223ZM249.213 207.617C248.259 208.11 247.263 208.516 246.267 208.876C247.766 208.203 249.213 207.53 250.666 206.764C250.168 207.031 249.711 207.35 249.213 207.617ZM241.686 30.1113C219.542 16.4932 190.778 16.2727 166.824 25.1677C159.928 27.5524 152.94 29.7515 146.496 33.0763C145.271 33.6159 144.135 34.2019 143.549 34.6023C143.455 34.6893 143.32 34.7358 143.233 34.7822C143.051 34.875 143.139 35.229 143.367 35.0491C159.384 29.972 175.447 23.4096 192.324 21.7907C207.977 20.9842 224.539 23.0034 238.786 29.7457C239.237 29.972 240.508 30.5987 240.918 30.7786C241.281 31.0049 241.914 30.5523 241.691 30.1055L241.686 30.1113ZM389.049 117.785H389.002C388.971 117.754 388.941 117.738 388.914 117.738C381.339 115.626 371.902 107.671 365.593 103.18C354.567 95.585 343.905 85.1582 334.468 75.6307C324.169 66.2831 313.642 57.1154 302.207 49.1604C222.313 -8.75866 148.581 3.28122 76.3084 64.5773C75.1309 65.523 73.9944 66.5094 72.8169 67.4552C66.4666 72.5323 58.933 80.3945 53.0338 85.8371C43.5493 95.498 31.253 103.766 20.1868 111.675C16.6484 114.234 12.7937 116.259 8.48211 117.158C7.93729 117.384 7.89043 117.965 8.07203 118.324V118.417C8.1599 118.551 8.20677 118.644 8.3005 118.731C8.39423 118.818 8.43524 118.864 8.56998 118.957C12.9285 120.663 20.2278 125.92 25.4475 129.697C42.3718 140.797 56.3026 155.355 72.3131 167.668C82.9282 175.936 94.1349 183.438 105.342 190.813C115.049 196.703 129.753 208.069 139.144 212.7C139.19 212.746 139.19 212.833 139.237 212.88L147.269 216.117C147.72 216.297 148.265 216.477 148.769 216.703C172.951 225.871 199.085 228.749 224.357 224.072C232.933 222.587 241.645 220.161 249.629 217.196C262.787 211.446 274.222 202.725 286.155 194.863C310.25 179.539 333.115 162.329 354.075 143.002C363.782 135.499 373.63 127.544 384.292 121.475C382.704 122.374 381.07 123.227 379.482 124.214C382.247 122.369 385.106 120.709 388.059 119.363C386.922 119.949 385.839 120.622 384.749 121.208C386.249 120.402 387.742 119.589 389.242 118.829C389.74 118.696 389.652 117.796 389.061 117.796L389.049 117.785ZM198.897 13.1684C198.985 13.1684 199.032 13.2148 199.126 13.2613H198.716C198.763 13.2148 198.85 13.1684 198.897 13.1684ZM65.0548 84.665C78.0776 74.7778 90.1924 63.6315 103.666 54.3767C105.301 53.2104 107.251 51.5916 109.021 50.6458C109.109 50.5124 109.068 50.7386 109.384 50.2396C109.519 49.9727 109.296 49.6536 108.974 49.613L108.927 49.5666L108.88 49.613C108.786 49.613 108.698 49.613 108.652 49.6594C94.7676 57.568 83.1508 68.488 70.6787 78.2418C61.8328 85.6572 52.2605 92.0398 42.4597 98.1497C51.7157 90.4673 60.0636 81.7928 69.0032 73.8842C80.6611 62.7843 94.0471 52.7637 107.521 44.0891C190.186 -10.2441 264.322 13.8879 332.88 77.1161C338.282 82.1932 343.724 87.3167 349.26 92.2603C350.437 93.3395 351.574 94.4187 352.751 95.4516C354.251 96.7571 355.839 97.9698 357.379 99.1825C359.963 101.295 362.64 103.32 365.364 105.292C356.518 99.8555 347.666 94.4187 339.137 88.5758C322.213 76.4431 307.239 61.0726 289.366 50.3789L288.639 49.9727L288.276 49.7929C288.001 49.4331 287.052 49.9263 287.731 50.5124C295.669 55.456 303.115 61.1655 310.232 67.2753C317.901 73.8378 329.699 83.139 337.543 89.3823C347.297 95.8983 363.993 106.325 375.563 113.427C356.506 106.998 338.451 97.6971 322.617 85.2974C305.786 72.5787 290.813 56.4946 271.029 48.087C270.76 48.1334 271.029 47.8143 270.033 47.9941C269.489 48.261 269.354 49.0734 270.033 49.5201C279.518 54.3709 288.727 59.7671 296.759 66.7763C317.309 83.8991 338.639 100.842 363.407 111.222C360.549 110.143 357.737 108.93 354.925 107.625L343.355 102.501C331.738 97.1981 321.984 89.1966 311.597 81.9205C276.981 59.1346 241.498 29.7457 197.673 30.3318C172.131 30.5581 147.72 42.0583 126.302 55.1368C114.234 63.6315 96.2205 75.1317 84.3342 83.4929C67.8199 96.7513 48.9916 106.499 29.0268 113.601C26.3965 114.408 23.6724 114.86 20.9952 115.307C35.8341 110.59 49.5364 103.534 62.4186 95.086C62.9634 94.7263 63.5551 94.4594 64.0999 94.0532C64.6447 93.7399 65.0958 93.3337 65.6406 92.974C77.6207 84.8855 88.8684 75.6713 99.8057 66.2367C107.562 59.7207 116.232 54.104 125.347 49.6072L126.255 49.1604C126.437 49.0269 126.619 49.0676 126.707 48.8471C126.8 48.6672 126.619 48.3075 126.296 48.5338C125.664 48.8007 125.025 49.1198 124.393 49.4331C122.852 50.1062 121.352 50.8257 119.858 51.5916C118.997 52.0384 118.177 52.5374 117.363 52.9842C116.32 53.5702 115.277 54.1968 114.234 54.8293C99.9873 63.5909 87.7847 75.7236 74.2639 85.4309C66.0507 92.2603 56.9295 97.9234 47.4509 102.821C38.5581 107.358 29.2553 111.222 19.7299 114.187C33.6607 105.379 52.6706 94.5464 65.0548 84.665ZM358.92 111.541C356.788 110.689 354.743 109.836 352.658 108.89C353.747 109.337 354.837 109.789 355.927 110.236C356.922 110.683 357.924 111.089 358.92 111.541ZM317.227 88.3959C313.372 85.7442 309.512 83.0055 305.61 80.261C307.655 81.6072 309.74 82.9591 311.738 84.3981C313.601 85.7036 315.411 87.0498 317.227 88.3959ZM72.7232 87.0033C73.3149 86.5566 73.8597 86.104 74.4455 85.6572C75.8515 84.6244 77.2575 83.5451 78.6634 82.4659C76.7126 84.0383 74.715 85.5237 72.7173 87.0033H72.7232ZM10.5149 118.324V118.371L10.468 118.324L10.4212 118.278H10.5149V118.324ZM289.008 182.945C292.095 180.88 295.136 178.767 298.17 176.609C298.17 176.563 298.217 176.563 298.258 176.516C310.373 167.935 321.943 158.72 333.513 149.373C343.946 140.072 355.88 132.703 368.856 127.44C368.856 127.44 374.526 124.922 378.199 123.303C373.484 126.361 368.762 129.413 364.269 132.784L355.921 138.807L348.071 145.503C344.761 148.241 331.691 159.434 328.469 162.086C314.814 171.973 296.349 185.365 282.055 194.44L264.902 205.806C230.783 227.06 187.632 228.273 150.432 214.481C137.456 210.57 126.613 201.449 115.09 194.213C100.936 185.226 82.6939 171.927 69.1731 162.173C62.1843 156.196 48.9389 145.05 41.9969 139.12C34.9671 133.91 27.0702 128.246 19.6303 123.303C31.1534 128.693 42.9987 133.637 53.2037 141.279L63.8656 149.907C77.9311 161.453 92.2662 172.872 107.333 183.073L107.515 183.206L107.609 183.253H107.656C107.837 183.479 108.154 183.299 108.288 183.026C108.288 182.98 108.335 182.934 108.335 182.893C108.335 182.8 108.288 182.667 108.154 182.62V182.574C93.0922 171.161 78.0717 159.701 63.643 147.522C56.4725 141.319 48.8979 135.523 40.4152 131.211C33.9243 127.887 27.3045 124.875 20.6789 121.817C22.4012 122.311 24.0825 122.804 25.8048 123.303C36.7421 127.034 48.4878 131.618 58.2886 137.82C69.8117 145.102 85.6464 157.635 96.9469 165.59C102.073 169.275 122.219 183.699 128.751 188.376C162.822 209.99 202.072 220.19 240.502 203.207C252.389 197.95 264.322 192.194 274.667 184.332L285.101 176.83C285.189 176.783 285.282 176.737 285.329 176.696C298.803 166.902 318.498 152.97 331.381 142.95C345.675 132.656 362.095 125.74 379.066 121.11C371.855 124.254 363.366 127.805 357.016 131.177C348.399 135.447 340.912 141.377 333.648 147.58C320.9 158.413 307.561 168.521 294.31 178.767C294.175 178.901 294.04 178.994 293.947 179.081C292.265 180.34 290.637 181.64 288.955 182.899V182.945H289.002H289.008ZM113.192 174.41C97.1285 119.45 141.229 62.1983 198.897 62.8249C257.063 62.3317 299.986 120.257 282.881 175.124C277.936 178.002 270.268 184.651 264.005 188.156C208.516 222.221 163.326 211.748 113.192 174.404V174.41ZM383.243 118.324C372.628 120.529 362.33 123.941 352.482 128.479C352.482 127.985 352.388 127.492 352.347 127.04L352.212 126.187C352.212 126.1 352.166 125.827 351.943 125.74C351.761 125.606 351.445 125.92 351.492 126.1C351.492 127.045 351.445 127.985 351.492 128.978L348.768 130.283C348.768 128.304 348.539 126.285 347.59 124.533C347.543 124.353 347.139 124.22 346.999 124.399C346.952 125.746 347.362 126.599 347.543 127.678C347.678 128.711 347.678 129.79 347.59 130.823L337.379 136.573V135.9C337.514 135.633 337.016 134.821 336.518 135.227C336.108 135.673 336.384 135.993 336.29 136.306V137.205L332.523 139.631V135.9C332.523 135.673 332.57 135.494 332.476 135.18C332.341 134.821 331.884 134.687 331.615 134.913C331.205 136.126 331.48 136.799 331.386 137.791V140.397C331.252 140.489 328.299 142.596 327.713 143.002C327.667 141.609 327.579 139.045 327.485 137.971L327.438 137.072C327.532 136.712 326.893 136.126 326.442 136.486C326.032 138.865 326.624 141.429 326.624 143.768C326.442 143.901 323.355 146.147 322.722 146.599C322.675 145.793 322.494 141.836 322.494 141.836C322.4 140.936 322.359 138.824 322.265 137.925C322.218 137.658 322.312 137.565 322.172 137.159C321.943 136.846 321.539 136.712 321.176 136.979C320.812 137.385 321.041 137.652 320.994 137.832L321.041 138.459C321.088 139.312 321.223 141.516 321.223 142.369C321.223 142.369 321.492 147.18 321.492 147.446L318.317 149.785C318 146.727 317.59 141.83 317.274 138.998L317.227 138.192C317.274 137.292 315.64 137.426 315.868 138.372C316.003 140.077 316.319 142.688 316.46 144.394L317.005 150.644L312.06 154.282C312.195 149.471 311.926 144.394 311.428 139.631C311.381 139.538 311.428 139.184 311.111 138.911C310.842 138.731 310.479 138.644 310.115 138.911C309.705 139.451 310.022 139.764 309.981 140.257L310.115 141.244L310.297 143.269C310.525 147.133 310.795 151.404 310.566 155.268C310.297 155.448 307.344 157.647 306.302 158.413C306.753 151.671 306.618 144.888 305.851 138.192C305.897 136.306 303.718 136.486 304.169 138.145L304.257 138.865C304.351 139.764 304.573 142.056 304.62 143.042C305.3 148.032 304.527 155.987 304.755 159.399L300.49 162.544C301.351 155.802 301.445 148.926 300.853 142.143L300.672 140.617V140.211C300.672 139.178 299.131 139.085 298.903 139.938C298.809 140.072 298.768 140.164 298.768 140.298C299.676 148.119 299.582 156.069 298.498 163.89L294.597 166.675C295.37 158.993 295.411 151.172 294.732 143.489L294.638 142.683C294.591 141.963 293.73 141.557 293.097 142.056C292.599 143.002 293.003 143.002 292.916 143.315C292.916 143.855 293.144 145.16 293.097 145.741C293.871 152.703 293.003 162.55 292.869 167.987C292.869 167.987 288.059 171.404 286.425 172.571C293.367 146.373 287.333 117.297 270.59 95.997C249.811 68.9464 219.096 58.2933 189.922 61.2583C189.014 61.3453 188.153 61.4846 187.292 61.5716C185.839 61.7515 184.345 61.9778 182.893 62.2447C181.44 62.471 179.987 62.7379 178.54 63.0977C178.405 63.0977 178.224 63.1441 178.089 63.1905C174.638 63.997 171.282 64.9892 168.019 66.1555C167.245 66.4224 166.431 66.7415 165.658 67.0084C164.34 67.5016 163.074 68.0413 161.803 68.5809C136.712 79.5009 116.25 101.474 109.671 132.302C107.041 145.421 107.175 159.132 110.532 172.118C108.669 170.812 103.906 167.401 103.906 167.401C103.543 160.792 102.911 150.951 103.86 143.269C104.223 141.963 102.817 141.424 102.407 142.642L102.36 143.449C101.633 151.044 101.727 158.726 102.454 166.275C101.001 165.242 98.0541 163.13 98.0541 163.13C97.7377 157.827 96.9176 148.793 97.8256 142.236L98.0072 140.71C97.9604 140.35 98.2357 139.944 97.7377 139.584C97.1929 139.224 96.5134 139.538 96.4196 140.124C96.4196 140.17 96.3728 140.17 96.3728 140.17C95.5585 147.359 95.5995 154.641 96.4196 161.877C95.2421 160.977 92.6528 159.092 92.3365 158.865C92.067 155.314 91.9733 151.81 92.067 148.259C92.1139 145.201 92.4302 141.876 92.7465 138.824C92.7934 138.151 93.1098 137.658 92.6528 137.025C91.5632 136.259 91.0184 137.432 91.0184 138.151C90.9305 139.05 90.702 141.296 90.6083 142.242C90.1982 147.272 90.1572 152.355 90.4736 157.432C89.2961 156.533 86.8415 154.781 86.4783 154.514C86.4314 152.042 86.4783 149.524 86.613 147.011C86.7477 145.706 86.7946 142.474 87.0231 141.215L87.1578 140.228L87.2047 139.782V139.468C87.2926 138.702 86.2967 138.302 85.705 138.749C85.0254 139.288 85.3886 139.915 85.2539 140.594C85.1192 143.832 84.8028 149.402 84.6622 153.133L80.169 149.854C80.3974 147.562 80.8017 142.532 81.0301 140.507C81.1239 139.7 81.2117 138.441 81.2996 137.675C81.4812 136.283 79.4836 136.103 79.3957 137.408C79.302 138.894 78.9446 141.586 78.8509 143.118C78.8509 143.118 78.4877 146.982 78.3061 148.508L75.7636 146.622C75.8983 144.377 76.0799 140.6 76.2147 138.441L76.2616 137.855V137.542C76.4432 136.596 75.0372 136.103 74.4924 136.956C74.176 137.582 74.3576 137.542 74.3108 137.809L74.217 139.021C74.1702 140.368 73.9476 143.292 73.8538 145.224C72.7642 144.458 71.0888 143.199 70.7255 142.932C70.8134 141.133 70.9072 138.482 71.0419 136.776C71.0419 136.776 71.1298 136.149 70.6787 135.877C70.3155 135.61 69.9054 135.61 69.5891 135.784C68.8626 136.23 69.138 136.95 69.0442 137.536C68.9974 138.389 68.8626 140.234 68.8158 141.58L65.9101 139.555C65.9101 138.569 65.8632 136.724 65.9101 135.958C65.8164 135.331 66.1386 134.652 65.5469 134.159C65.0489 133.753 64.3225 133.892 64.0062 134.519C63.8714 135.192 63.9593 135.105 63.9593 135.418L63.9125 136.724V138.209C62.8697 137.582 61.4169 136.637 61.0537 136.41V135.198C61.2353 133.852 59.056 133.492 59.1029 135.244C57.5622 134.391 50.298 130.393 49.7122 130.074C49.6184 128.815 49.9816 127.423 50.1632 126.163C50.298 125.31 50.9775 123.825 49.5306 123.825C49.2611 123.825 48.8979 124.231 48.8979 124.318C48.0836 125.757 47.7614 127.417 47.6735 129.082L45.9043 128.229C45.9043 127.736 45.9512 127.196 45.9043 126.744C45.8575 126.117 46.1328 125.258 45.4943 124.811C44.9026 124.452 44.223 124.904 44.1762 125.438V125.485C44.0883 126.071 43.9946 126.697 43.9477 127.33C35.1897 123.465 26.0743 120.32 16.6777 118.295C24.0708 117.309 31.6513 115.69 38.318 112.452C54.6975 106.43 69.8058 97.7145 83.5082 87.0614C118.898 63.9622 154.381 33.4476 198.932 33.0473C230.965 33.6333 258.141 48.5047 284.14 65.9408C286.817 67.8266 289.541 69.6717 292.26 71.5111C306.958 81.7116 321.34 92.3183 336.091 101.173C345.481 106.522 355.78 110.294 365.762 114.431C371.252 116.276 377.467 117.442 383.138 117.889C383.636 117.982 384.134 118.023 384.638 118.116C384.274 118.162 383.232 118.342 383.232 118.342L383.243 118.324ZM389.277 118.058C389.277 118.058 389.277 118.011 389.23 118.011H389.277V118.058ZM341.094 123.715C341.006 125.96 340.777 126.726 341.773 128.972C341.908 129.331 341.908 130.411 342.769 130.138C343.085 130.051 343.22 129.552 343.179 129.465C343.179 127.306 343.132 124.974 341.861 123.175C341.41 122.908 340.865 123.268 341.088 123.715H341.094ZM336.055 122.549L335.604 121.469C335.423 120.796 334.468 121.156 334.65 121.696C334.696 124.301 334.603 125.786 335.604 128.304C335.833 128.891 335.604 129.97 336.512 129.97C336.922 130.063 337.192 129.343 337.104 129.204C337.016 126.958 336.922 124.666 336.061 122.554L336.055 122.549ZM328.481 118.098C329.752 119.943 329.617 122.322 330.162 124.388C330.613 126.14 330.935 127.939 330.976 129.738C331.023 130.277 331.703 130.591 332.113 130.144C332.611 125.966 332.382 120.483 328.985 117.471C328.621 117.338 328.17 117.785 328.487 118.098H328.481ZM324.802 124.661C324.755 126.366 324.532 128.299 325.435 129.964C325.569 130.324 325.481 130.457 325.798 130.95C326.114 131.357 326.975 130.95 326.887 130.411C326.887 128.252 326.799 126.053 325.528 124.208C325.118 123.895 324.573 124.434 324.802 124.655V124.661ZM324.983 121.289C324.849 119.09 324.122 117.651 322.716 116.032C322.669 115.806 322.265 115.446 321.99 115.719C321.761 115.766 321.627 116.125 321.761 116.305H321.715C321.621 118.104 322.71 119.224 323.437 120.663L323.706 121.469C323.935 121.963 324.843 121.875 324.978 121.289H324.983ZM315.862 114.1C315.681 113.694 315.317 113.247 314.866 113.381C314.368 113.427 314.052 114.007 314.234 114.46C317.227 119.99 317.819 125.966 319.77 131.716C320.449 132.389 321.539 131.896 321.586 130.997C320.994 128.479 319.588 125.92 318.955 123.355C318 120.257 317.415 116.972 315.868 114.1H315.862ZM309.283 112.035C309.102 111.228 308.241 111.541 308.422 112.081V112.168C308.422 112.199 308.438 112.215 308.469 112.215C310.373 118.777 313.279 125.293 314.685 131.989C314.638 132.122 314.866 132.842 315.411 132.755C315.862 132.801 316.184 132.082 316.044 131.809C315.001 124.887 312.734 118.15 309.283 112.035ZM303.431 110.236C303.162 109.11 302.113 109.47 302.435 110.102C304.655 117.471 307.561 124.933 308.926 132.569C309.061 132.836 308.791 133.109 309.336 133.556C309.881 133.782 310.426 133.329 310.332 132.749C309.518 126.546 308.112 120.303 305.476 114.547C305.025 113.601 303.841 111.13 303.431 110.23V110.236ZM301.117 118.551C300.801 118.191 300.209 118.551 300.344 118.957C300.707 124.307 301.978 127.678 303.109 132.708C303.607 133.294 304.427 132.801 304.333 132.169C303.882 128.484 303.337 124.753 302.113 121.202C301.844 120.576 301.387 119.177 301.117 118.551ZM297.579 108.437L296.852 107.451C296.624 106.824 295.675 107.091 295.944 107.764C296.577 109.25 296.489 111.042 297.35 112.435C297.942 113.514 298.668 114.547 299.032 115.713C299.078 115.98 299.483 116.299 299.805 116.16C300.215 116.207 300.438 115.487 300.256 115.307C299.623 112.928 298.938 110.497 297.579 108.431V108.437ZM296.038 121.469C295.769 121.063 294.995 121.336 295.265 121.829C296.126 126.32 297.626 130.77 298.393 135.308C298.44 135.755 298.44 136.927 299.348 136.7C299.758 136.7 299.893 136.027 299.799 135.935C299.617 131.264 298.662 126.541 296.442 122.409C296.261 122.096 296.214 121.823 296.032 121.463L296.038 121.469ZM286.331 102.641C287.919 108.304 290.549 110.596 292.412 115.493C292.775 116.299 293.912 115.853 293.865 115.133C292.365 110.503 289.688 106.459 287.151 102.368C286.97 101.962 286.29 102.188 286.337 102.635L286.331 102.641ZM288.686 120.93C289.682 126.639 291.316 130.863 292.177 135.894C292.447 136.7 293.63 136.3 293.496 135.534C292.769 130.411 291.451 125.421 289.5 120.616C289.272 120.123 288.504 120.436 288.686 120.93ZM275.892 95.2717C275.394 94.4187 274.62 95.1788 275.031 95.5386C278.932 101.515 283.062 107.132 285.786 113.694C286.015 114.727 287.602 114.28 287.057 113.247C284.743 106.505 281.023 100.262 275.898 95.2717H275.892ZM271.223 195.351C267.456 197.416 263.83 199.348 260.063 201.507C248.903 207.843 237.104 213.146 224.539 215.932C192.916 221.548 159.343 213.326 132.301 196.65L128.036 194.405C127.902 194.312 127.357 194.045 127.222 193.999C126.947 193.819 126.496 194.092 126.589 194.445C128.452 195.931 136.027 200.062 138.113 201.455C160.344 214.307 186.753 220.869 212.523 219.61C233.941 218.444 252.769 207.565 270.461 196.558L271.504 195.931C271.504 195.931 271.82 195.751 271.732 195.484C271.685 195.217 271.234 195.304 271.234 195.351H271.223ZM249.213 207.617C248.259 208.11 247.263 208.516 246.267 208.876C247.766 208.203 249.213 207.53 250.666 206.764C250.168 207.031 249.711 207.35 249.213 207.617ZM192.318 21.7965C207.972 20.99 224.533 23.0092 238.78 29.7515C239.231 29.9778 240.502 30.6045 240.912 30.7844C241.276 31.0107 241.908 30.5581 241.686 30.1113C219.542 16.4932 190.778 16.2727 166.824 25.1677C159.928 27.5524 152.94 29.7515 146.496 33.0763C145.271 33.6159 144.135 34.2019 143.549 34.6023C143.455 34.6893 143.32 34.7358 143.233 34.7822C143.051 34.875 143.139 35.229 143.367 35.0491C159.384 29.972 175.447 23.4096 192.324 21.7907L192.318 21.7965ZM121.27 95.0454C117.234 99.136 113.918 103.72 111.879 109.157C111.469 109.963 110.427 112.168 110.017 112.975C109.97 113.247 109.788 113.201 109.747 113.828C109.976 114.367 110.52 114.454 110.925 114.187C112.828 110.549 114.463 107.491 116.414 104.213C117.82 101.968 120.046 97.964 121.674 95.8983C122.266 95.4051 121.809 94.5928 121.264 95.0454H121.27ZM110.743 102.687C110.878 102.014 109.882 101.561 109.472 102.24C106.929 106.285 104.756 110.601 103.344 115.139C103.297 115.586 104.024 115.858 104.158 115.365C106.742 111.634 108.423 107.724 110.239 103.592C110.374 103.279 110.509 103.186 110.737 102.693L110.743 102.687ZM107.386 120.709C105.207 126.059 104.803 130.237 103.438 135.627C103.303 136.347 104.574 136.706 104.797 135.853C105.793 131.856 106.976 127.945 107.656 123.9C107.79 123.181 108.019 121.516 108.247 120.843C108.294 120.303 107.474 120.216 107.386 120.709ZM100.942 121.562H100.848C100.848 121.696 100.802 121.788 100.802 121.922V121.968C99.7588 124.173 98.4876 126.599 98.0775 129.111C97.849 130.997 97.5327 134.234 97.1226 136.033C96.9879 136.84 98.2123 137.02 98.4407 136.3C99.255 132.616 100.843 126.366 101.434 122.728C101.481 122.369 101.616 122.102 101.704 121.742C101.704 121.249 101.024 121.156 100.93 121.562H100.942ZM98.0834 115.806C99.6709 113.334 100.216 110.549 100.895 107.764C101.165 107.091 100.216 106.818 100.034 107.451C98.0365 109.696 98.1712 112.841 96.5837 115.313C96.3552 115.446 96.5368 116.299 96.9937 116.346C97.4038 116.572 98.0365 116.166 98.0834 115.806ZM95.7225 120.123L95.6756 120.17C95.5819 120.216 95.494 120.216 95.4472 120.303C93.8596 124.574 93.3148 128.571 92.5884 133.022C92.4536 133.428 92.1373 134.414 92.9516 134.548C93.2211 134.635 93.678 134.322 93.7249 134.008C94.7676 130.457 95.8104 126.906 96.0857 123.175C96.1326 122.502 96.2673 121.017 96.3142 120.344C96.2673 120.03 95.951 119.984 95.7225 120.117V120.123ZM94.3166 110.503C94.3634 110.277 94.6329 110.056 94.4513 109.696C94.2697 109.516 94.0002 109.516 93.8186 109.743C93.8186 109.774 93.803 109.789 93.7717 109.789V109.836H93.7249V109.882C93.7249 109.882 93.678 109.882 93.678 109.928C90.1865 116.265 88.3236 123.587 87.0524 130.782C86.9586 131.368 86.3728 132.941 86.6892 133.341C86.8708 133.747 87.8257 133.747 87.9135 133.115C89.3664 126.958 91.2234 121.069 92.9047 115.005C93.2211 114.019 93.9006 111.501 94.3107 110.514L94.3166 110.503ZM88.4642 111.721C88.3295 111.495 87.8725 111.454 87.7378 111.768C86.2381 115.139 84.1994 118.371 83.2914 122.015C82.6997 124.574 81.7038 129.07 80.9774 131.542C80.5263 132.308 81.3406 133.341 82.1549 132.395C83.6956 127.364 86.4666 118.736 87.9194 113.793C88.0131 113.073 88.7337 112.447 88.4642 111.727V111.721ZM82.2955 114.506C82.6587 114.06 81.8444 113.381 81.5691 114.013C78.2123 119.45 77.3512 124.666 75.7636 130.683C75.6699 130.776 75.582 131.31 75.9452 131.536C76.1737 131.763 76.7595 131.763 76.988 131.357C78.6224 125.92 80.3916 120.976 81.8854 115.626C82.0202 115.22 82.1549 114.86 82.2955 114.501V114.506ZM74.3108 115.945C73.3149 117.518 72.2663 119.363 72.2663 121.382C72.1784 121.696 72.1315 122.009 71.9968 122.328C71.7683 122.955 72.7232 123.361 73.0864 122.821C74.2639 120.576 75.1309 118.644 75.4004 116.218C75.3125 115.499 74.4045 115.412 74.3108 115.951V115.945ZM70.995 126.413C70.8134 127.132 69.9523 127.985 70.0401 128.838C70.2217 129.558 69.9933 130.77 70.3565 131.037C71.8562 132.024 72.8052 126.407 71.6277 126.047C71.3524 125.914 70.9482 126.001 70.995 126.407V126.413ZM67.6851 117.738C66.4139 119.357 65.0548 121.556 64.9611 123.848C64.8673 125.873 65.0548 127.805 64.6447 129.778C64.6916 130.451 65.5528 130.544 65.8691 130.092C66.7303 126.541 66.865 123.529 67.6851 120.204C67.8199 119.305 68.2768 118.678 68.4994 117.779C68.4057 117.419 67.8667 117.286 67.6851 117.733V117.738ZM61.3759 121.469C60.6026 123.895 59.9699 125.334 60.1046 128.078C60.1046 128.438 60.0109 128.798 59.923 129.204C59.6067 129.83 60.7842 130.37 61.1474 129.564C62.0554 126.865 62.6002 124.487 62.3249 121.742C62.4596 121.115 61.4637 120.889 61.37 121.475L61.3759 121.469ZM55.0724 123.401H55.1193C55.1193 123.401 55.0724 123.401 55.0724 123.448V123.494C55.0724 123.494 55.0724 123.541 55.0256 123.587C54.1644 125.339 53.7543 126.686 53.9359 128.757C53.9359 129.07 53.8422 129.297 53.8012 129.703C53.9359 130.289 54.7971 130.422 55.0724 129.796C55.8867 127.504 56.3905 125.751 55.9336 123.413C55.752 123.053 55.1603 123.007 55.0724 123.413V123.401ZM241.686 30.1113C219.542 16.4932 190.778 16.2727 166.824 25.1677C159.928 27.5524 152.94 29.7515 146.496 33.0763C145.271 33.6159 144.135 34.2019 143.549 34.6023C143.455 34.6893 143.32 34.7358 143.233 34.7822C143.051 34.875 143.139 35.229 143.367 35.0491C159.384 29.972 175.447 23.4096 192.324 21.7907C207.977 20.9842 224.539 23.0034 238.786 29.7457C239.237 29.972 240.508 30.5987 240.918 30.7786C241.281 31.0049 241.914 30.5523 241.691 30.1055L241.686 30.1113ZM271.223 195.351C267.456 197.416 263.83 199.348 260.063 201.507C248.903 207.843 237.104 213.146 224.539 215.932C192.916 221.548 159.343 213.326 132.301 196.65L128.036 194.405C127.902 194.312 127.357 194.045 127.222 193.999C126.947 193.819 126.496 194.092 126.589 194.445C128.452 195.931 136.027 200.062 138.113 201.455C160.344 214.307 186.753 220.869 212.523 219.61C233.941 218.444 252.769 207.565 270.461 196.558L271.504 195.931C271.504 195.931 271.82 195.751 271.732 195.484C271.685 195.217 271.234 195.304 271.234 195.351H271.223ZM249.213 207.617C248.259 208.11 247.263 208.516 246.267 208.876C247.766 208.203 249.213 207.53 250.666 206.764C250.168 207.031 249.711 207.35 249.213 207.617ZM55.9336 123.401C55.752 123.042 55.1603 122.995 55.0724 123.401H55.1193C55.1193 123.401 55.0724 123.401 55.0724 123.448V123.494C55.0724 123.494 55.0724 123.541 55.0256 123.587C54.1644 125.339 53.7543 126.686 53.9359 128.757C53.9359 129.07 53.8422 129.297 53.8012 129.703C53.9359 130.289 54.7971 130.422 55.0724 129.796C55.8867 127.504 56.3905 125.751 55.9336 123.413V123.401ZM62.3307 121.742C62.4655 121.115 61.4696 120.889 61.3759 121.475C60.6026 123.9 59.9699 125.339 60.1046 128.084C60.1046 128.444 60.0109 128.803 59.923 129.21C59.6067 129.836 60.7842 130.376 61.1474 129.569C62.0554 126.871 62.6002 124.492 62.3249 121.748L62.3307 121.742ZM67.6851 117.738C66.4139 119.357 65.0548 121.556 64.9611 123.848C64.8673 125.873 65.0548 127.805 64.6447 129.778C64.6916 130.451 65.5528 130.544 65.8691 130.092C66.7303 126.541 66.865 123.529 67.6851 120.204C67.8199 119.305 68.2768 118.678 68.4994 117.779C68.4057 117.419 67.8667 117.286 67.6851 117.733V117.738ZM71.6336 126.053C71.3582 125.92 70.954 126.007 71.0009 126.413C70.8193 127.132 69.9581 127.985 70.046 128.838C70.2276 129.558 69.9991 130.77 70.3623 131.037C71.862 132.024 72.8111 126.407 71.6336 126.047V126.053ZM74.3108 115.945C73.3149 117.518 72.2663 119.363 72.2663 121.382C72.1784 121.696 72.1315 122.009 71.9968 122.328C71.7683 122.955 72.7232 123.361 73.0864 122.821C74.2639 120.576 75.1309 118.644 75.4004 116.218C75.3125 115.499 74.4045 115.412 74.3108 115.951V115.945ZM81.5691 114.013C78.2123 119.45 77.3512 124.666 75.7636 130.683C75.6699 130.776 75.582 131.31 75.9452 131.536C76.1737 131.763 76.7595 131.763 76.988 131.357C78.6224 125.92 80.3916 120.976 81.8854 115.626C82.0202 115.22 82.1549 114.86 82.2955 114.501C82.6587 114.054 81.8444 113.375 81.5691 114.007V114.013ZM88.4642 111.721C88.3295 111.495 87.8725 111.454 87.7378 111.768C86.2381 115.139 84.1994 118.371 83.2914 122.015C82.6997 124.574 81.7038 129.07 80.9774 131.542C80.5263 132.308 81.3406 133.341 82.1549 132.395C83.6956 127.364 86.4666 118.736 87.9194 113.793C88.0131 113.073 88.7337 112.447 88.4642 111.727V111.721ZM94.4513 109.696C94.2697 109.516 94.0002 109.516 93.8186 109.743C93.8186 109.774 93.803 109.789 93.7717 109.789V109.836H93.7249V109.882C93.7249 109.882 93.678 109.882 93.678 109.928C90.1865 116.265 88.3236 123.587 87.0524 130.782C86.9586 131.368 86.3728 132.941 86.6892 133.341C86.8708 133.747 87.8257 133.747 87.9135 133.115C89.3664 126.958 91.2234 121.069 92.9047 115.005C93.2211 114.019 93.9006 111.501 94.3107 110.514C94.3576 110.288 94.627 110.068 94.4454 109.708L94.4513 109.696ZM95.7225 120.123L95.6756 120.17C95.5819 120.216 95.494 120.216 95.4472 120.303C93.8596 124.574 93.3148 128.571 92.5884 133.022C92.4536 133.428 92.1373 134.414 92.9516 134.548C93.2211 134.635 93.678 134.322 93.7249 134.008C94.7676 130.457 95.8104 126.906 96.0857 123.175C96.1326 122.502 96.2673 121.017 96.3142 120.344C96.2673 120.03 95.951 119.984 95.7225 120.117V120.123ZM100.034 107.451C98.0365 109.696 98.1712 112.841 96.5837 115.313C96.3552 115.446 96.5368 116.299 96.9937 116.346C97.4038 116.572 98.0365 116.166 98.0834 115.806C99.6709 113.334 100.216 110.549 100.895 107.764C101.165 107.091 100.216 106.818 100.034 107.451ZM100.942 121.562H100.848C100.848 121.696 100.802 121.788 100.802 121.922V121.968C99.7588 124.173 98.4876 126.599 98.0775 129.111C97.849 130.997 97.5327 134.234 97.1226 136.033C96.9879 136.84 98.2123 137.02 98.4407 136.3C99.255 132.616 100.843 126.366 101.434 122.728C101.481 122.369 101.616 122.102 101.704 121.742C101.704 121.249 101.024 121.156 100.93 121.562H100.942ZM107.386 120.709C105.207 126.059 104.803 130.237 103.438 135.627C103.303 136.347 104.574 136.706 104.797 135.853C105.793 131.856 106.976 127.945 107.656 123.9C107.79 123.181 108.019 121.516 108.247 120.843C108.294 120.303 107.474 120.216 107.386 120.709ZM109.472 102.235C106.929 106.279 104.756 110.596 103.344 115.133C103.297 115.58 104.024 115.853 104.158 115.359C106.742 111.629 108.423 107.718 110.239 103.586C110.374 103.273 110.509 103.18 110.737 102.687C110.872 102.014 109.876 101.561 109.466 102.24L109.472 102.235ZM121.27 95.0454C117.234 99.136 113.918 103.72 111.879 109.157C111.469 109.963 110.427 112.168 110.017 112.975C109.97 113.247 109.788 113.201 109.747 113.828C109.976 114.367 110.52 114.454 110.925 114.187C112.828 110.549 114.463 107.491 116.414 104.213C117.82 101.968 120.046 97.964 121.674 95.8983C122.266 95.4051 121.809 94.5928 121.264 95.0454H121.27ZM287.057 113.247C284.743 106.505 281.023 100.262 275.898 95.2717C275.4 94.4187 274.626 95.1788 275.036 95.5386C278.938 101.515 283.068 107.132 285.792 113.694C286.021 114.727 287.608 114.28 287.063 113.247H287.057ZM289.506 120.616C289.278 120.123 288.51 120.436 288.692 120.93C289.688 126.639 291.322 130.863 292.183 135.894C292.453 136.7 293.636 136.3 293.501 135.534C292.775 130.411 291.457 125.421 289.506 120.616ZM287.145 102.374C286.964 101.968 286.284 102.194 286.331 102.641C287.919 108.304 290.549 110.596 292.412 115.493C292.775 116.299 293.912 115.853 293.865 115.133C292.365 110.503 289.688 106.459 287.151 102.368L287.145 102.374ZM296.448 122.415C296.266 122.102 296.22 121.829 296.038 121.469C295.769 121.063 294.995 121.336 295.265 121.829C296.126 126.32 297.626 130.77 298.393 135.308C298.44 135.755 298.44 136.927 299.348 136.7C299.758 136.7 299.893 136.027 299.799 135.935C299.617 131.264 298.662 126.541 296.442 122.409L296.448 122.415ZM300.256 115.313C299.623 112.934 298.938 110.503 297.579 108.437L296.852 107.451C296.624 106.824 295.675 107.091 295.944 107.764C296.577 109.25 296.489 111.042 297.35 112.435C297.942 113.514 298.668 114.547 299.032 115.713C299.078 115.98 299.483 116.299 299.805 116.16C300.215 116.207 300.438 115.487 300.256 115.307V115.313ZM302.119 121.202C301.849 120.576 301.392 119.177 301.123 118.551C300.807 118.191 300.215 118.551 300.35 118.957C300.713 124.307 301.984 127.678 303.115 132.708C303.613 133.294 304.433 132.801 304.339 132.169C303.888 128.484 303.343 124.753 302.119 121.202ZM305.476 114.553C305.025 113.607 303.841 111.135 303.431 110.236C303.162 109.11 302.113 109.47 302.435 110.102C304.655 117.471 307.561 124.933 308.926 132.569C309.061 132.836 308.791 133.109 309.336 133.556C309.881 133.782 310.426 133.329 310.332 132.749C309.518 126.546 308.112 120.303 305.476 114.547V114.553ZM316.05 131.809C315.007 124.887 312.74 118.15 309.289 112.035C309.108 111.228 308.247 111.541 308.428 112.081V112.168C308.428 112.199 308.444 112.215 308.475 112.215C310.379 118.777 313.285 125.293 314.691 131.989C314.644 132.122 314.872 132.842 315.417 132.755C315.868 132.801 316.19 132.082 316.05 131.809ZM318.95 123.361C317.995 120.262 317.409 116.978 315.862 114.106C315.681 113.7 315.317 113.253 314.866 113.387C314.368 113.433 314.052 114.013 314.234 114.466C317.227 119.996 317.819 125.972 319.77 131.722C320.449 132.395 321.539 131.902 321.586 131.003C320.994 128.484 319.588 125.926 318.955 123.361H318.95ZM322.716 116.032C322.669 115.806 322.265 115.446 321.99 115.719C321.761 115.766 321.627 116.125 321.761 116.305H321.715C321.621 118.104 322.71 119.224 323.437 120.663L323.706 121.469C323.935 121.963 324.843 121.875 324.978 121.289C324.843 119.09 324.116 117.651 322.71 116.032H322.716ZM325.528 124.214C325.118 123.9 324.573 124.44 324.802 124.661C324.755 126.366 324.532 128.299 325.435 129.964C325.569 130.324 325.481 130.457 325.798 130.95C326.114 131.357 326.975 130.95 326.887 130.411C326.887 128.252 326.799 126.053 325.528 124.208V124.214ZM328.979 117.471C328.616 117.338 328.164 117.785 328.481 118.098C329.752 119.943 329.617 122.322 330.162 124.388C330.613 126.14 330.935 127.939 330.976 129.738C331.023 130.277 331.703 130.591 332.113 130.144C332.611 125.966 332.382 120.483 328.985 117.471H328.979ZM337.098 129.198C337.01 126.953 336.917 124.661 336.055 122.549L335.604 121.469C335.423 120.796 334.468 121.156 334.65 121.696C334.696 124.301 334.603 125.786 335.604 128.304C335.833 128.891 335.604 129.97 336.512 129.97C336.922 130.063 337.192 129.343 337.104 129.204L337.098 129.198ZM341.861 123.181C341.41 122.914 340.865 123.274 341.088 123.721C341 125.966 340.771 126.732 341.767 128.978C341.902 129.337 341.902 130.417 342.763 130.144C343.079 130.057 343.214 129.558 343.173 129.471C343.173 127.312 343.126 124.98 341.855 123.181H341.861ZM341.861 123.181C341.41 122.914 340.865 123.274 341.088 123.721C341 125.966 340.771 126.732 341.767 128.978C341.902 129.337 341.902 130.417 342.763 130.144C343.079 130.057 343.214 129.558 343.173 129.471C343.173 127.312 343.126 124.98 341.855 123.181H341.861ZM337.098 129.198C337.01 126.953 336.917 124.661 336.055 122.549L335.604 121.469C335.423 120.796 334.468 121.156 334.65 121.696C334.696 124.301 334.603 125.786 335.604 128.304C335.833 128.891 335.604 129.97 336.512 129.97C336.922 130.063 337.192 129.343 337.104 129.204L337.098 129.198ZM328.979 117.471C328.616 117.338 328.164 117.785 328.481 118.098C329.752 119.943 329.617 122.322 330.162 124.388C330.613 126.14 330.935 127.939 330.976 129.738C331.023 130.277 331.703 130.591 332.113 130.144C332.611 125.966 332.382 120.483 328.985 117.471H328.979ZM325.528 124.214C325.118 123.9 324.573 124.44 324.802 124.661C324.755 126.366 324.532 128.299 325.435 129.964C325.569 130.324 325.481 130.457 325.798 130.95C326.114 131.357 326.975 130.95 326.887 130.411C326.887 128.252 326.799 126.053 325.528 124.208V124.214ZM322.716 116.032C322.669 115.806 322.265 115.446 321.99 115.719C321.761 115.766 321.627 116.125 321.761 116.305H321.715C321.621 118.104 322.71 119.224 323.437 120.663L323.706 121.469C323.935 121.963 324.843 121.875 324.978 121.289C324.843 119.09 324.116 117.651 322.71 116.032H322.716ZM318.95 123.361C317.995 120.262 317.409 116.978 315.862 114.106C315.681 113.7 315.317 113.253 314.866 113.387C314.368 113.433 314.052 114.013 314.234 114.466C317.227 119.996 317.819 125.972 319.77 131.722C320.449 132.395 321.539 131.902 321.586 131.003C320.994 128.484 319.588 125.926 318.955 123.361H318.95ZM316.05 131.809C315.007 124.887 312.74 118.15 309.289 112.035C309.108 111.228 308.247 111.541 308.428 112.081V112.168C308.428 112.199 308.444 112.215 308.475 112.215C310.379 118.777 313.285 125.293 314.691 131.989C314.644 132.122 314.872 132.842 315.417 132.755C315.868 132.801 316.19 132.082 316.05 131.809ZM305.476 114.553C305.025 113.607 303.841 111.135 303.431 110.236C303.162 109.11 302.113 109.47 302.435 110.102C304.655 117.471 307.561 124.933 308.926 132.569C309.061 132.836 308.791 133.109 309.336 133.556C309.881 133.782 310.426 133.329 310.332 132.749C309.518 126.546 308.112 120.303 305.476 114.547V114.553ZM302.119 121.202C301.849 120.576 301.392 119.177 301.123 118.551C300.807 118.191 300.215 118.551 300.35 118.957C300.713 124.307 301.984 127.678 303.115 132.708C303.613 133.294 304.433 132.801 304.339 132.169C303.888 128.484 303.343 124.753 302.119 121.202ZM300.256 115.313C299.623 112.934 298.938 110.503 297.579 108.437L296.852 107.451C296.624 106.824 295.675 107.091 295.944 107.764C296.577 109.25 296.489 111.042 297.35 112.435C297.942 113.514 298.668 114.547 299.032 115.713C299.078 115.98 299.483 116.299 299.805 116.16C300.215 116.207 300.438 115.487 300.256 115.307V115.313ZM296.448 122.415C296.266 122.102 296.22 121.829 296.038 121.469C295.769 121.063 294.995 121.336 295.265 121.829C296.126 126.32 297.626 130.77 298.393 135.308C298.44 135.755 298.44 136.927 299.348 136.7C299.758 136.7 299.893 136.027 299.799 135.935C299.617 131.264 298.662 126.541 296.442 122.409L296.448 122.415ZM287.145 102.374C286.964 101.968 286.284 102.194 286.331 102.641C287.919 108.304 290.549 110.596 292.412 115.493C292.775 116.299 293.912 115.853 293.865 115.133C292.365 110.503 289.688 106.459 287.151 102.368L287.145 102.374ZM289.506 120.616C289.278 120.123 288.51 120.436 288.692 120.93C289.688 126.639 291.322 130.863 292.183 135.894C292.453 136.7 293.636 136.3 293.501 135.534C292.775 130.411 291.457 125.421 289.506 120.616ZM287.057 113.247C284.743 106.505 281.023 100.262 275.898 95.2717C275.4 94.4187 274.626 95.1788 275.036 95.5386C278.938 101.515 283.068 107.132 285.792 113.694C286.021 114.727 287.608 114.28 287.063 113.247H287.057ZM271.223 195.351C267.456 197.416 263.83 199.348 260.063 201.507C248.903 207.843 237.104 213.146 224.539 215.932C192.916 221.548 159.343 213.326 132.301 196.65L128.036 194.405C127.902 194.312 127.357 194.045 127.222 193.999C126.947 193.819 126.496 194.092 126.589 194.445C128.452 195.931 136.027 200.062 138.113 201.455C160.344 214.307 186.753 220.869 212.523 219.61C233.941 218.444 252.769 207.565 270.461 196.558L271.504 195.931C271.504 195.931 271.82 195.751 271.732 195.484C271.685 195.217 271.234 195.304 271.234 195.351H271.223ZM249.213 207.617C248.259 208.11 247.263 208.516 246.267 208.876C247.766 208.203 249.213 207.53 250.666 206.764C250.168 207.031 249.711 207.35 249.213 207.617ZM241.686 30.1113C219.542 16.4932 190.778 16.2727 166.824 25.1677C159.928 27.5524 152.94 29.7515 146.496 33.0763C145.271 33.6159 144.135 34.2019 143.549 34.6023C143.455 34.6893 143.32 34.7358 143.233 34.7822C143.051 34.875 143.139 35.229 143.367 35.0491C159.384 29.972 175.447 23.4096 192.324 21.7907C207.977 20.9842 224.539 23.0034 238.786 29.7457C239.237 29.972 240.508 30.5987 240.918 30.7786C241.281 31.0049 241.914 30.5523 241.691 30.1055L241.686 30.1113ZM121.27 95.0454C117.234 99.136 113.918 103.72 111.879 109.157C111.469 109.963 110.427 112.168 110.017 112.975C109.97 113.247 109.788 113.201 109.747 113.828C109.976 114.367 110.52 114.454 110.925 114.187C112.828 110.549 114.463 107.491 116.414 104.213C117.82 101.968 120.046 97.964 121.674 95.8983C122.266 95.4051 121.809 94.5928 121.264 95.0454H121.27ZM109.472 102.235C106.929 106.279 104.756 110.596 103.344 115.133C103.297 115.58 104.024 115.853 104.158 115.359C106.742 111.629 108.423 107.718 110.239 103.586C110.374 103.273 110.509 103.18 110.737 102.687C110.872 102.014 109.876 101.561 109.466 102.24L109.472 102.235ZM107.386 120.709C105.207 126.059 104.803 130.237 103.438 135.627C103.303 136.347 104.574 136.706 104.797 135.853C105.793 131.856 106.976 127.945 107.656 123.9C107.79 123.181 108.019 121.516 108.247 120.843C108.294 120.303 107.474 120.216 107.386 120.709ZM100.942 121.562H100.848C100.848 121.696 100.802 121.788 100.802 121.922V121.968C99.7588 124.173 98.4876 126.599 98.0775 129.111C97.849 130.997 97.5327 134.234 97.1226 136.033C96.9879 136.84 98.2123 137.02 98.4407 136.3C99.255 132.616 100.843 126.366 101.434 122.728C101.481 122.369 101.616 122.102 101.704 121.742C101.704 121.249 101.024 121.156 100.93 121.562H100.942ZM100.034 107.451C98.0365 109.696 98.1712 112.841 96.5837 115.313C96.3552 115.446 96.5368 116.299 96.9937 116.346C97.4038 116.572 98.0365 116.166 98.0834 115.806C99.6709 113.334 100.216 110.549 100.895 107.764C101.165 107.091 100.216 106.818 100.034 107.451ZM95.7225 120.123L95.6756 120.17C95.5819 120.216 95.494 120.216 95.4472 120.303C93.8596 124.574 93.3148 128.571 92.5884 133.022C92.4536 133.428 92.1373 134.414 92.9516 134.548C93.2211 134.635 93.678 134.322 93.7249 134.008C94.7676 130.457 95.8104 126.906 96.0857 123.175C96.1326 122.502 96.2673 121.017 96.3142 120.344C96.2673 120.03 95.951 119.984 95.7225 120.117V120.123ZM94.4513 109.696C94.2697 109.516 94.0002 109.516 93.8186 109.743C93.8186 109.774 93.803 109.789 93.7717 109.789V109.836H93.7249V109.882C93.7249 109.882 93.678 109.882 93.678 109.928C90.1865 116.265 88.3236 123.587 87.0524 130.782C86.9586 131.368 86.3728 132.941 86.6892 133.341C86.8708 133.747 87.8257 133.747 87.9135 133.115C89.3664 126.958 91.2234 121.069 92.9047 115.005C93.2211 114.019 93.9006 111.501 94.3107 110.514C94.3576 110.288 94.627 110.068 94.4454 109.708L94.4513 109.696ZM88.4642 111.721C88.3295 111.495 87.8725 111.454 87.7378 111.768C86.2381 115.139 84.1994 118.371 83.2914 122.015C82.6997 124.574 81.7038 129.07 80.9774 131.542C80.5263 132.308 81.3406 133.341 82.1549 132.395C83.6956 127.364 86.4666 118.736 87.9194 113.793C88.0131 113.073 88.7337 112.447 88.4642 111.727V111.721ZM81.5691 114.013C78.2123 119.45 77.3512 124.666 75.7636 130.683C75.6699 130.776 75.582 131.31 75.9452 131.536C76.1737 131.763 76.7595 131.763 76.988 131.357C78.6224 125.92 80.3916 120.976 81.8854 115.626C82.0202 115.22 82.1549 114.86 82.2955 114.501C82.6587 114.054 81.8444 113.375 81.5691 114.007V114.013ZM74.3108 115.945C73.3149 117.518 72.2663 119.363 72.2663 121.382C72.1784 121.696 72.1315 122.009 71.9968 122.328C71.7683 122.955 72.7232 123.361 73.0864 122.821C74.2639 120.576 75.1309 118.644 75.4004 116.218C75.3125 115.499 74.4045 115.412 74.3108 115.951V115.945ZM71.6336 126.053C71.3582 125.92 70.954 126.007 71.0009 126.413C70.8193 127.132 69.9581 127.985 70.046 128.838C70.2276 129.558 69.9991 130.77 70.3623 131.037C71.862 132.024 72.8111 126.407 71.6336 126.047V126.053ZM67.6851 117.738C66.4139 119.357 65.0548 121.556 64.9611 123.848C64.8673 125.873 65.0548 127.805 64.6447 129.778C64.6916 130.451 65.5528 130.544 65.8691 130.092C66.7303 126.541 66.865 123.529 67.6851 120.204C67.8199 119.305 68.2768 118.678 68.4994 117.779C68.4057 117.419 67.8667 117.286 67.6851 117.733V117.738ZM62.3307 121.742C62.4655 121.115 61.4696 120.889 61.3759 121.475C60.6026 123.9 59.9699 125.339 60.1046 128.084C60.1046 128.444 60.0109 128.803 59.923 129.21C59.6067 129.836 60.7842 130.376 61.1474 129.569C62.0554 126.871 62.6002 124.492 62.3249 121.748L62.3307 121.742ZM55.9336 123.401C55.752 123.042 55.1603 122.995 55.0724 123.401H55.1193C55.1193 123.401 55.0724 123.401 55.0724 123.448V123.494C55.0724 123.494 55.0724 123.541 55.0256 123.587C54.1644 125.339 53.7543 126.686 53.9359 128.757C53.9359 129.07 53.8422 129.297 53.8012 129.703C53.9359 130.289 54.7971 130.422 55.0724 129.796C55.8867 127.504 56.3905 125.751 55.9336 123.413V123.401Z" fill="#0055FF"/>
<path d="M198.99 206.082C230.373 206.082 255.815 180.659 255.815 149.301C255.815 117.942 230.373 92.5195 198.99 92.5195C167.607 92.5195 142.165 117.942 142.165 149.301C142.165 180.659 167.607 206.082 198.99 206.082Z" fill="url(#paint0_radial_1785_6370)"/>
<path d="M198.99 170.876C210.914 170.876 220.579 161.216 220.579 149.301C220.579 137.387 210.914 127.727 198.99 127.727C187.066 127.727 177.398 137.387 177.398 149.301C177.398 161.216 187.063 170.876 198.99 170.876Z" fill="black"/>
<path d="M226.092 108.961C221.374 108.961 217.548 112.782 217.548 117.499C217.548 122.216 221.372 126.037 226.092 126.037C230.813 126.037 234.634 122.213 234.634 117.499C234.634 112.785 230.81 108.961 226.092 108.961ZM174.12 177.848C172.307 177.848 170.837 179.317 170.837 181.128C170.837 182.939 172.307 184.408 174.12 184.408C175.932 184.408 177.402 182.939 177.402 181.128C177.402 179.317 175.932 177.848 174.12 177.848Z" fill="white"/>
<defs>
<radialGradient id="paint0_radial_1785_6370" cx="0" cy="0" r="1" gradientUnits="userSpaceOnUse" gradientTransform="translate(198.99 149.301) rotate(90) scale(56.7813 56.8252)">
<stop stop-color="#FFD471" stop-opacity="0"/>
<stop offset="1" stop-color="#FFD471"/>
</radialGradient>
</defs>
</svg>
