<svg width="464" height="672" viewBox="0 0 464 672" fill="none" xmlns="http://www.w3.org/2000/svg">
<rect width="464" height="672" fill="#0000FF"/>
<path d="M35.552 85V52.072H47.024C48.848 52.072 50.544 52.312 52.112 52.792C53.68 53.272 55.056 54.056 56.24 55.144C57.424 56.2 58.352 57.608 59.024 59.368C59.696 61.096 60.032 63.208 60.032 65.704V71.368C60.032 73.8 59.696 75.896 59.024 77.656C58.352 79.384 57.424 80.792 56.24 81.88C55.056 82.936 53.68 83.72 52.112 84.232C50.544 84.744 48.848 85 47.024 85H35.552ZM40.64 80.92H46.688C48.256 80.92 49.648 80.664 50.864 80.152C52.08 79.608 53.04 78.68 53.744 77.368C54.48 76.056 54.848 74.2 54.848 71.8V65.224C54.848 62.888 54.48 61.064 53.744 59.752C53.04 58.408 52.08 57.464 50.864 56.92C49.648 56.376 48.256 56.104 46.688 56.104H40.64V80.92ZM31.952 70.264V66.808H48.896V70.264H31.952ZM72.4453 85.48C69.9173 85.48 67.9653 84.888 66.5893 83.704C65.2453 82.52 64.5733 80.776 64.5733 78.472C64.5733 76.552 65.0853 75.016 66.1093 73.864C67.1653 72.68 68.8453 71.816 71.1493 71.272C73.4853 70.728 76.5573 70.456 80.3653 70.456V67.768C80.3653 66.232 79.9653 65.112 79.1653 64.408C78.3973 63.704 77.0853 63.352 75.2293 63.352C73.5333 63.352 72.2213 63.704 71.2933 64.408C70.3653 65.112 69.9013 66.104 69.9013 67.384V67.96H65.4853C65.4213 67.448 65.3733 67.112 65.3413 66.952C65.3413 66.792 65.3413 66.728 65.3413 66.76C65.3413 66.792 65.3413 66.84 65.3413 66.904C65.3733 66.968 65.3893 66.968 65.3893 66.904C65.3893 64.792 66.2853 63.112 68.0773 61.864C69.9013 60.616 72.3333 59.992 75.3733 59.992C78.6053 59.992 81.0373 60.616 82.6693 61.864C84.3333 63.112 85.1653 65.016 85.1653 67.576V80.584C85.1653 81.096 85.2933 81.464 85.5493 81.688C85.8053 81.912 86.1413 82.024 86.5573 82.024C87.2933 82.024 87.9333 81.832 88.4773 81.448V84.568C88.0613 84.856 87.5493 85.08 86.9413 85.24C86.3333 85.4 85.6933 85.48 85.0213 85.48C84.0613 85.48 83.2773 85.352 82.6693 85.096C82.0613 84.872 81.6133 84.472 81.3253 83.896C81.0373 83.32 80.8453 82.52 80.7493 81.496C80.2053 82.488 79.5013 83.288 78.6373 83.896C77.7733 84.472 76.8133 84.872 75.7573 85.096C74.7013 85.352 73.5973 85.48 72.4453 85.48ZM73.9333 82.072C75.4053 82.072 76.6053 81.752 77.5333 81.112C78.4933 80.472 79.1973 79.608 79.6453 78.52C80.1253 77.432 80.3653 76.216 80.3653 74.872V73.384C77.6133 73.384 75.4213 73.544 73.7893 73.864C72.1893 74.152 71.0373 74.648 70.3333 75.352C69.6613 76.024 69.3253 76.984 69.3253 78.232C69.3253 79.512 69.6933 80.472 70.4293 81.112C71.1973 81.752 72.3653 82.072 73.9333 82.072ZM72.6853 56.728L76.4293 48.712H80.9413L80.9893 48.856L76.1413 56.728H72.6853ZM94.8425 85V60.472H98.7305L99.2105 63.976C99.9465 62.6 100.987 61.592 102.331 60.952C103.675 60.312 105.163 59.992 106.795 59.992C109.483 59.992 111.627 60.744 113.227 62.248C114.827 63.752 115.627 65.976 115.627 68.92V85H110.827V70.312C110.827 68.008 110.347 66.328 109.387 65.272C108.459 64.216 107.147 63.688 105.451 63.688C104.267 63.688 103.243 63.992 102.379 64.6C101.515 65.176 100.843 65.992 100.363 67.048C99.8825 68.072 99.6425 69.256 99.6425 70.6V85H94.8425ZM124.2 85V50.44H129V63.736C129.832 62.488 130.92 61.56 132.264 60.952C133.608 60.312 135 59.992 136.44 59.992C138.072 59.992 139.528 60.312 140.808 60.952C142.12 61.592 143.144 62.552 143.88 63.832C144.616 65.112 144.984 66.728 144.984 68.68V85H140.184V69.736C140.184 67.72 139.704 66.216 138.744 65.224C137.784 64.2 136.472 63.688 134.808 63.688C133.72 63.688 132.728 63.96 131.832 64.504C130.936 65.016 130.232 65.736 129.72 66.664C129.24 67.56 129 68.584 129 69.736V85H124.2Z" fill="white"/>
<path d="M357.92 85.48C356.192 85.48 354.592 85.224 353.12 84.712C351.648 84.2 350.368 83.384 349.28 82.264C348.192 81.112 347.328 79.592 346.688 77.704C346.08 75.816 345.776 73.496 345.776 70.744V66.328C345.776 63.576 346.08 61.256 346.688 59.368C347.296 57.48 348.144 55.976 349.232 54.856C350.352 53.704 351.648 52.872 353.12 52.36C354.624 51.848 356.272 51.592 358.064 51.592H358.784C360.384 51.592 361.888 51.816 363.296 52.264C364.704 52.712 365.952 53.416 367.04 54.376C368.16 55.336 369.024 56.584 369.632 58.12C370.272 59.624 370.592 61.448 370.592 63.592H365.792C365.792 61.704 365.472 60.184 364.832 59.032C364.224 57.848 363.36 56.984 362.24 56.44C361.152 55.896 359.856 55.624 358.352 55.624C356.944 55.624 355.68 55.896 354.56 56.44C353.44 56.984 352.56 57.96 351.92 59.368C351.28 60.776 350.96 62.744 350.96 65.272V71.752C350.96 73.64 351.152 75.224 351.536 76.504C351.92 77.752 352.448 78.744 353.12 79.48C353.792 80.184 354.576 80.696 355.472 81.016C356.4 81.304 357.376 81.448 358.4 81.448C359.744 81.448 360.992 81.208 362.144 80.728C363.296 80.248 364.208 79.416 364.88 78.232C365.552 77.016 365.888 75.304 365.888 73.096V71.32H357.44V67.672H370.592V78.904C370.592 80.216 370.624 81.368 370.688 82.36C370.752 83.352 370.832 84.232 370.928 85H367.952L366.992 80.872C366.128 82.408 364.896 83.56 363.296 84.328C361.696 85.096 360 85.48 358.208 85.48H357.92ZM386.701 85V64.216H377.917V60.472H391.501V85H386.701ZM377.917 85V81.304H399.805V85H377.917ZM386.509 55.432V50.824H391.021V55.432H386.509ZM413.803 85.48C411.275 85.48 409.323 84.888 407.947 83.704C406.603 82.52 405.931 80.776 405.931 78.472C405.931 76.552 406.443 75.016 407.467 73.864C408.523 72.68 410.203 71.816 412.507 71.272C414.843 70.728 417.915 70.456 421.723 70.456V67.768C421.723 66.232 421.323 65.112 420.523 64.408C419.755 63.704 418.443 63.352 416.587 63.352C414.891 63.352 413.579 63.704 412.651 64.408C411.723 65.112 411.259 66.104 411.259 67.384V67.96H406.843C406.779 67.448 406.731 67.112 406.699 66.952C406.699 66.792 406.699 66.728 406.699 66.76C406.699 66.792 406.699 66.84 406.699 66.904C406.731 66.968 406.747 66.968 406.747 66.904C406.747 64.792 407.643 63.112 409.435 61.864C411.259 60.616 413.691 59.992 416.731 59.992C419.963 59.992 422.395 60.616 424.027 61.864C425.691 63.112 426.523 65.016 426.523 67.576V80.584C426.523 81.096 426.651 81.464 426.907 81.688C427.163 81.912 427.499 82.024 427.915 82.024C428.651 82.024 429.291 81.832 429.835 81.448V84.568C429.419 84.856 428.907 85.08 428.299 85.24C427.691 85.4 427.051 85.48 426.379 85.48C425.419 85.48 424.635 85.352 424.027 85.096C423.419 84.872 422.971 84.472 422.683 83.896C422.395 83.32 422.203 82.52 422.107 81.496C421.563 82.488 420.859 83.288 419.995 83.896C419.131 84.472 418.171 84.872 417.115 85.096C416.059 85.352 414.955 85.48 413.803 85.48ZM415.291 82.072C416.763 82.072 417.963 81.752 418.891 81.112C419.851 80.472 420.555 79.608 421.003 78.52C421.483 77.432 421.723 76.216 421.723 74.872V73.384C418.971 73.384 416.779 73.544 415.147 73.864C413.547 74.152 412.395 74.648 411.691 75.352C411.019 76.024 410.683 76.984 410.683 78.232C410.683 79.512 411.051 80.472 411.787 81.112C412.555 81.752 413.723 82.072 415.291 82.072ZM414.043 56.728L417.787 48.712H422.299L422.347 48.856L417.499 56.728H414.043Z" fill="white"/>
<path d="M132.733 386.067C131.4 387.467 130.267 389.133 130.267 390.8C130.267 394.667 136.267 400.533 152.933 405.867C158.667 402 167.6 398.667 178.733 396.133C160.933 393.8 145.067 390.4 132.667 386L132.733 386.067Z" fill="white"/>
<path d="M289.067 397.267C298 399.6 305.333 402.467 310.2 405.733C326.6 400.467 332.533 394.6 332.533 390.8C332.533 387 331.466 387.533 330.2 386.2C311.733 393.067 303.867 395.8 289.067 397.267Z" fill="white"/>
<path d="M348.667 249.733C317.467 240.867 275.933 236 231.667 236C187.4 236 145.867 240.867 114.667 249.733C85.8665 257.933 68.6665 269 68.6665 279.4C68.6665 289.8 75.8665 293.267 89.0665 299.667C113.067 283 168.467 272.267 231.667 272.267C294.867 272.267 350.267 282.933 374.267 299.667C387.467 293.267 394.667 286.067 394.667 279.4C394.667 269 377.467 257.867 348.667 249.733Z" fill="white"/>
<path d="M231.4 423.733C202.6 423.733 174.8 420.467 154.667 414.733C153.8 415.667 153.067 416.733 153.067 417.8C153.067 421 159.667 426.067 174.333 430.133C189.6 434.333 209.933 436.667 231.667 436.667C253.4 436.667 273.733 434.333 289 430.133C303.667 426.067 310.267 421 310.267 417.8C310.267 414.6 309.467 415.533 308.6 414.667C288.467 420.467 260.533 423.8 231.467 423.8L231.4 423.733Z" fill="white"/>
<path d="M373.2 309C353.667 317.533 325.933 323.867 294 327.533C316.067 331.067 334.267 336.4 345.733 343.067C366.667 336.133 379.133 327.2 379.133 319.133C379.133 311.067 377.133 312.467 373.267 309.067L373.2 309Z" fill="white"/>
<path d="M169.333 327.467C137.4 323.867 109.667 317.467 90.1332 308.933C86.1998 312.333 84.2665 315.733 84.2665 319C84.2665 327.067 96.7332 336 117.667 342.933C129.067 336.267 147.333 330.933 169.4 327.4L169.333 327.467Z" fill="white"/>
<path d="M173.333 362.533C152.8 360.133 134.067 356.467 118.733 351.733C115.267 354.133 111.733 357.533 111.733 361.133C111.733 364.733 113.667 369.933 131.2 376.933C139.933 370.8 154.733 365.867 173.333 362.533Z" fill="white"/>
<path d="M344.6 351.733C329.066 356.533 310.133 360.2 289.333 362.6C308.133 366 323.2 371 331.8 377.067C349.667 370.067 351.667 363.6 351.667 361.133C351.667 357.533 348.133 354.2 344.667 351.733H344.6Z" fill="white"/>
<path d="M43.904 621V592.248H33.68V588.072H59.12V592.248H48.896V621H43.904ZM65.4853 621V586.44H70.2853V599.736C71.1173 598.488 72.2053 597.56 73.5493 596.952C74.8933 596.312 76.2853 595.992 77.7253 595.992C79.3573 595.992 80.8133 596.312 82.0933 596.952C83.4053 597.592 84.4293 598.552 85.1653 599.832C85.9013 601.112 86.2693 602.728 86.2693 604.68V621H81.4693V605.736C81.4693 603.72 80.9893 602.216 80.0293 601.224C79.0693 600.2 77.7573 599.688 76.0933 599.688C75.0053 599.688 74.0133 599.96 73.1173 600.504C72.2213 601.016 71.5173 601.736 71.0053 602.664C70.5253 603.56 70.2853 604.584 70.2853 605.736V621H65.4853ZM103.003 621.48C100.379 621.48 98.2665 620.744 96.6665 619.272C95.0985 617.8 94.3145 615.576 94.3145 612.6V596.472H99.1625V611.688C99.1625 613.736 99.6265 615.256 100.555 616.248C101.515 617.24 102.843 617.736 104.539 617.736C105.659 617.736 106.651 617.464 107.515 616.92C108.411 616.344 109.099 615.576 109.579 614.616C110.091 613.656 110.347 612.584 110.347 611.4V596.472H115.147V616.584C115.147 617.096 115.259 617.464 115.483 617.688C115.707 617.912 116.043 618.024 116.491 618.024C116.811 618.024 117.131 617.992 117.451 617.928C117.771 617.864 118.107 617.704 118.459 617.448V620.568C118.043 620.856 117.515 621.08 116.875 621.24C116.267 621.4 115.643 621.48 115.003 621.48C113.851 621.48 112.971 621.32 112.363 621C111.787 620.648 111.387 620.168 111.163 619.56C110.971 618.952 110.843 618.264 110.779 617.496C110.299 618.36 109.691 619.096 108.955 619.704C108.219 620.28 107.355 620.712 106.363 621C105.371 621.32 104.251 621.48 103.003 621.48ZM111.547 599.256V596.472C113.115 596.216 114.235 595.496 114.907 594.312C115.611 593.128 115.963 591.512 115.963 589.464H120.379C120.379 591.16 120.027 592.712 119.323 594.12C118.651 595.528 117.659 596.68 116.347 597.576C115.035 598.472 113.435 599.032 111.547 599.256ZM101.947 629.592V624.792H107.707V629.592H101.947ZM133.992 621.48C132.488 621.48 131.064 621.192 129.72 620.616C128.408 620.04 127.256 619.224 126.264 618.168C125.304 617.08 124.552 615.8 124.008 614.328C123.464 612.824 123.192 611.144 123.192 609.288V608.136C123.192 606.28 123.464 604.616 124.008 603.144C124.552 601.64 125.304 600.36 126.264 599.304C127.256 598.216 128.408 597.4 129.72 596.856C131.032 596.28 132.472 595.992 134.04 595.992H134.616C136.6 595.992 138.344 596.408 139.848 597.24C141.352 598.04 142.536 599.192 143.4 600.696C144.264 602.168 144.696 603.96 144.696 606.072H140.376C140.376 604.504 140.12 603.24 139.608 602.28C139.096 601.288 138.392 600.568 137.496 600.12C136.632 599.64 135.608 599.4 134.424 599.4C132.696 599.4 131.224 600.04 130.008 601.32C128.824 602.568 128.232 604.504 128.232 607.128V610.344C128.232 612.872 128.808 614.792 129.96 616.104C131.144 617.416 132.68 618.072 134.568 618.072C135.72 618.072 136.728 617.848 137.592 617.4C138.488 616.92 139.176 616.2 139.656 615.24C140.168 614.248 140.424 612.968 140.424 611.4H144.696C144.696 613.544 144.248 615.368 143.352 616.872C142.488 618.376 141.288 619.528 139.752 620.328C138.248 621.096 136.52 621.48 134.568 621.48H133.992Z" fill="white"/>
<path d="M296.904 621V592.248H286.68V588.072H312.12V592.248H301.896V621H296.904ZM322.757 621V600.216H316.565V596.472H326.645L326.885 600.072C327.461 598.792 328.341 597.8 329.525 597.096C330.741 596.36 332.133 595.992 333.701 595.992C336.101 595.992 337.941 596.712 339.221 598.152C340.533 599.56 341.189 601.368 341.189 603.576C341.189 603.928 341.173 604.264 341.141 604.584C341.141 604.872 341.109 605.224 341.045 605.64H336.965V604.632C336.965 603.768 336.789 602.968 336.437 602.232C336.117 601.496 335.605 600.904 334.901 600.456C334.229 599.976 333.349 599.736 332.261 599.736C331.205 599.736 330.309 600.04 329.573 600.648C328.869 601.256 328.341 602.024 327.989 602.952C327.637 603.88 327.461 604.856 327.461 605.88V621H322.757ZM316.325 621V617.304H338.453V621H316.325ZM354.803 621.48C352.275 621.48 350.323 620.888 348.947 619.704C347.603 618.52 346.931 616.776 346.931 614.472C346.931 612.552 347.443 611.016 348.467 609.864C349.523 608.68 351.203 607.816 353.507 607.272C355.843 606.728 358.915 606.456 362.723 606.456V603.768C362.723 602.232 362.323 601.112 361.523 600.408C360.755 599.704 359.443 599.352 357.587 599.352C355.891 599.352 354.579 599.704 353.651 600.408C352.723 601.112 352.259 602.104 352.259 603.384V603.96H347.843C347.779 603.448 347.731 603.112 347.699 602.952C347.699 602.792 347.699 602.728 347.699 602.76C347.699 602.792 347.699 602.84 347.699 602.904C347.731 602.968 347.747 602.968 347.747 602.904C347.747 600.792 348.643 599.112 350.435 597.864C352.259 596.616 354.691 595.992 357.731 595.992C360.963 595.992 363.395 596.616 365.027 597.864C366.691 599.112 367.523 601.016 367.523 603.576V616.584C367.523 617.096 367.651 617.464 367.907 617.688C368.163 617.912 368.499 618.024 368.915 618.024C369.651 618.024 370.291 617.832 370.835 617.448V620.568C370.419 620.856 369.907 621.08 369.299 621.24C368.691 621.4 368.051 621.48 367.379 621.48C366.419 621.48 365.635 621.352 365.027 621.096C364.419 620.872 363.971 620.472 363.683 619.896C363.395 619.32 363.203 618.52 363.107 617.496C362.563 618.488 361.859 619.288 360.995 619.896C360.131 620.472 359.171 620.872 358.115 621.096C357.059 621.352 355.955 621.48 354.803 621.48ZM356.291 618.072C357.763 618.072 358.963 617.752 359.891 617.112C360.851 616.472 361.555 615.608 362.003 614.52C362.483 613.432 362.723 612.216 362.723 610.872V609.384C359.971 609.384 357.779 609.544 356.147 609.864C354.547 610.152 353.395 610.648 352.691 611.352C352.019 612.024 351.683 612.984 351.683 614.232C351.683 615.512 352.051 616.472 352.787 617.112C353.555 617.752 354.723 618.072 356.291 618.072ZM355.043 629.592V624.792H360.803V629.592H355.043ZM377.2 621V596.472H381.088L381.568 599.976C382.304 598.6 383.344 597.592 384.688 596.952C386.032 596.312 387.52 595.992 389.152 595.992C391.84 595.992 393.984 596.744 395.584 598.248C397.184 599.752 397.984 601.976 397.984 604.92V621H393.184V606.312C393.184 604.008 392.704 602.328 391.744 601.272C390.816 600.216 389.504 599.688 387.808 599.688C386.624 599.688 385.6 599.992 384.736 600.6C383.872 601.176 383.2 601.992 382.72 603.048C382.24 604.072 382 605.256 382 606.6V621H377.2ZM411.309 630.024C409.261 630.024 407.677 629.464 406.557 628.344C405.437 627.224 404.877 625.848 404.877 624.216C404.877 623 405.213 621.912 405.885 620.952C406.557 619.992 407.421 619.288 408.477 618.84C407.773 618.392 407.213 617.8 406.797 617.064C406.413 616.328 406.221 615.544 406.221 614.712C406.221 613.592 406.589 612.584 407.325 611.688C408.061 610.792 409.069 610.216 410.349 609.96C409.197 609.288 408.333 608.424 407.757 607.368C407.181 606.312 406.893 605.096 406.893 603.72C406.893 601.32 407.741 599.432 409.437 598.056C411.165 596.68 413.709 595.992 417.069 595.992C419.053 595.992 420.653 596.264 421.869 596.808C423.149 596.456 424.109 595.864 424.749 595.032C425.421 594.168 425.805 593.176 425.901 592.056H429.789C429.789 593.656 429.325 595.016 428.397 596.136C427.501 597.224 426.317 597.928 424.845 598.248V598.344C425.613 598.952 426.189 599.736 426.573 600.696C426.989 601.624 427.197 602.632 427.197 603.72C427.197 606.088 426.381 607.976 424.749 609.384C423.149 610.792 420.829 611.496 417.789 611.496H413.853C412.893 611.496 412.125 611.72 411.549 612.168C411.005 612.616 410.733 613.24 410.733 614.04C410.733 614.84 411.005 615.464 411.549 615.912C412.093 616.328 412.845 616.536 413.805 616.536H422.493C424.765 616.536 426.541 617.128 427.821 618.312C429.133 619.464 429.789 621 429.789 622.92C429.789 625 429.133 626.696 427.821 628.008C426.541 629.352 424.717 630.024 422.349 630.024H411.309ZM412.653 626.856H421.725C422.909 626.856 423.805 626.536 424.413 625.896C425.021 625.288 425.325 624.52 425.325 623.592C425.325 622.696 425.021 621.944 424.413 621.336C423.837 620.728 422.941 620.424 421.725 620.424H412.653C411.501 620.424 410.621 620.728 410.013 621.336C409.405 621.976 409.101 622.744 409.101 623.64C409.101 624.504 409.405 625.256 410.013 625.896C410.621 626.536 411.501 626.856 412.653 626.856ZM417.117 608.424C418.877 608.424 420.253 608.024 421.245 607.224C422.237 606.392 422.733 605.24 422.733 603.768C422.733 602.264 422.237 601.112 421.245 600.312C420.253 599.512 418.877 599.112 417.117 599.112C415.389 599.112 414.013 599.512 412.989 600.312C411.997 601.112 411.501 602.264 411.501 603.768C411.501 605.24 411.997 606.392 412.989 607.224C414.013 608.024 415.389 608.424 417.117 608.424Z" fill="white"/>
</svg>
