<svg width="464" height="672" viewBox="0 0 464 672" fill="none" xmlns="http://www.w3.org/2000/svg">
<rect width="464" height="672" fill="#0000FF"/>
<path d="M45.92 85.48C44.192 85.48 42.592 85.224 41.12 84.712C39.648 84.2 38.368 83.384 37.28 82.264C36.192 81.112 35.328 79.592 34.688 77.704C34.08 75.816 33.776 73.496 33.776 70.744V66.328C33.776 63.576 34.08 61.256 34.688 59.368C35.296 57.48 36.144 55.976 37.232 54.856C38.352 53.704 39.648 52.872 41.12 52.36C42.624 51.848 44.272 51.592 46.064 51.592H46.784C48.384 51.592 49.888 51.816 51.296 52.264C52.704 52.712 53.952 53.416 55.04 54.376C56.16 55.336 57.024 56.584 57.632 58.12C58.272 59.624 58.592 61.448 58.592 63.592H53.792C53.792 61.704 53.472 60.184 52.832 59.032C52.224 57.848 51.36 56.984 50.24 56.44C49.152 55.896 47.856 55.624 46.352 55.624C44.944 55.624 43.68 55.896 42.56 56.44C41.44 56.984 40.56 57.96 39.92 59.368C39.28 60.776 38.96 62.744 38.96 65.272V71.752C38.96 73.64 39.152 75.224 39.536 76.504C39.92 77.752 40.448 78.744 41.12 79.48C41.792 80.184 42.576 80.696 43.472 81.016C44.4 81.304 45.376 81.448 46.4 81.448C47.744 81.448 48.992 81.208 50.144 80.728C51.296 80.248 52.208 79.416 52.88 78.232C53.552 77.016 53.888 75.304 53.888 73.096V71.32H45.44V67.672H58.592V78.904C58.592 80.216 58.624 81.368 58.688 82.36C58.752 83.352 58.832 84.232 58.928 85H55.952L54.992 80.872C54.128 82.408 52.896 83.56 51.296 84.328C49.696 85.096 48 85.48 46.208 85.48H45.92ZM74.7013 85V64.216H65.9173V60.472H79.5013V85H74.7013ZM65.9173 85V81.304H87.8053V85H65.9173ZM74.5093 55.432V50.824H79.0213V55.432H74.5093ZM101.803 85.48C99.2745 85.48 97.3225 84.888 95.9465 83.704C94.6025 82.52 93.9305 80.776 93.9305 78.472C93.9305 76.552 94.4425 75.016 95.4665 73.864C96.5225 72.68 98.2025 71.816 100.507 71.272C102.843 70.728 105.915 70.456 109.723 70.456V67.768C109.723 66.232 109.323 65.112 108.523 64.408C107.755 63.704 106.443 63.352 104.587 63.352C102.891 63.352 101.579 63.704 100.651 64.408C99.7225 65.112 99.2585 66.104 99.2585 67.384V67.96H94.8425C94.7785 67.448 94.7305 67.112 94.6985 66.952C94.6985 66.792 94.6985 66.728 94.6985 66.76C94.6985 66.792 94.6985 66.84 94.6985 66.904C94.7305 66.968 94.7465 66.968 94.7465 66.904C94.7465 64.792 95.6425 63.112 97.4345 61.864C99.2585 60.616 101.691 59.992 104.731 59.992C107.963 59.992 110.395 60.616 112.027 61.864C113.691 63.112 114.523 65.016 114.523 67.576V80.584C114.523 81.096 114.651 81.464 114.907 81.688C115.163 81.912 115.499 82.024 115.915 82.024C116.651 82.024 117.291 81.832 117.835 81.448V84.568C117.419 84.856 116.907 85.08 116.299 85.24C115.691 85.4 115.051 85.48 114.379 85.48C113.419 85.48 112.635 85.352 112.027 85.096C111.419 84.872 110.971 84.472 110.683 83.896C110.395 83.32 110.203 82.52 110.107 81.496C109.563 82.488 108.859 83.288 107.995 83.896C107.131 84.472 106.171 84.872 105.115 85.096C104.059 85.352 102.955 85.48 101.803 85.48ZM103.291 82.072C104.763 82.072 105.963 81.752 106.891 81.112C107.851 80.472 108.555 79.608 109.003 78.52C109.483 77.432 109.723 76.216 109.723 74.872V73.384C106.971 73.384 104.779 73.544 103.147 73.864C101.547 74.152 100.395 74.648 99.6905 75.352C99.0185 76.024 98.6825 76.984 98.6825 78.232C98.6825 79.512 99.0505 80.472 99.7865 81.112C100.555 81.752 101.723 82.072 103.291 82.072ZM103.291 58.024V55.384C104.315 55.288 105.099 55.016 105.643 54.568C106.219 54.12 106.507 53.512 106.507 52.744C106.507 52.008 106.267 51.48 105.787 51.16C105.339 50.808 104.747 50.632 104.011 50.632C103.563 50.632 103.083 50.68 102.571 50.776C102.059 50.872 101.515 51.016 100.939 51.208V48.04C101.515 47.848 102.075 47.72 102.619 47.656C103.195 47.56 103.739 47.512 104.251 47.512C105.819 47.512 107.115 47.928 108.139 48.76C109.163 49.56 109.675 50.728 109.675 52.264C109.675 53.352 109.371 54.312 108.763 55.144C108.155 55.976 107.355 56.648 106.363 57.16C105.403 57.672 104.379 57.96 103.291 58.024ZM133.416 85V64.216H124.632V60.472H138.216V85H133.416ZM124.632 85V81.304H146.52V85H124.632ZM133.224 55.432V50.824H137.736V55.432H133.224Z" fill="white"/>
<path d="M296.904 85V56.248H286.68V52.072H312.12V56.248H301.896V85H296.904ZM318.485 85V50.44H323.285V63.736C324.117 62.488 325.205 61.56 326.549 60.952C327.893 60.312 329.285 59.992 330.725 59.992C332.357 59.992 333.813 60.312 335.093 60.952C336.405 61.592 337.429 62.552 338.165 63.832C338.901 65.112 339.269 66.728 339.269 68.68V85H334.469V69.736C334.469 67.72 333.989 66.216 333.029 65.224C332.069 64.2 330.757 63.688 329.093 63.688C328.005 63.688 327.013 63.96 326.117 64.504C325.221 65.016 324.517 65.736 324.005 66.664C323.525 67.56 323.285 68.584 323.285 69.736V85H318.485ZM357.059 85V64.216H348.275V60.472H361.859V85H357.059ZM348.275 85V81.304H370.163V85H348.275ZM356.483 56.728L360.227 48.712H364.739L364.787 48.856L359.939 56.728H356.483ZM386.992 85.48C385.488 85.48 384.064 85.192 382.72 84.616C381.408 84.04 380.256 83.224 379.264 82.168C378.304 81.08 377.552 79.8 377.008 78.328C376.464 76.824 376.192 75.144 376.192 73.288V72.136C376.192 70.28 376.464 68.616 377.008 67.144C377.552 65.64 378.304 64.36 379.264 63.304C380.256 62.216 381.408 61.4 382.72 60.856C384.032 60.28 385.472 59.992 387.04 59.992H387.616C389.6 59.992 391.344 60.408 392.848 61.24C394.352 62.04 395.536 63.192 396.4 64.696C397.264 66.168 397.696 67.96 397.696 70.072H393.376C393.376 68.504 393.12 67.24 392.608 66.28C392.096 65.288 391.392 64.568 390.496 64.12C389.632 63.64 388.608 63.4 387.424 63.4C385.696 63.4 384.224 64.04 383.008 65.32C381.824 66.568 381.232 68.504 381.232 71.128V74.344C381.232 76.872 381.808 78.792 382.96 80.104C384.144 81.416 385.68 82.072 387.568 82.072C388.72 82.072 389.728 81.848 390.592 81.4C391.488 80.92 392.176 80.2 392.656 79.24C393.168 78.248 393.424 76.968 393.424 75.4H397.696C397.696 77.544 397.248 79.368 396.352 80.872C395.488 82.376 394.288 83.528 392.752 84.328C391.248 85.096 389.52 85.48 387.568 85.48H386.992ZM406.557 85V50.44H411.357V63.736C412.189 62.488 413.277 61.56 414.621 60.952C415.965 60.312 417.357 59.992 418.797 59.992C420.429 59.992 421.885 60.312 423.165 60.952C424.477 61.592 425.501 62.552 426.237 63.832C426.973 65.112 427.341 66.728 427.341 68.68V85H422.541V69.736C422.541 67.72 422.061 66.216 421.101 65.224C420.141 64.2 418.829 63.688 417.165 63.688C416.077 63.688 415.085 63.96 414.189 64.504C413.293 65.016 412.589 65.736 412.077 66.664C411.597 67.56 411.357 68.584 411.357 69.736V85H406.557Z" fill="white"/>
<path d="M195.559 245.309H217.926V321.989H141.291V299.608H173.866L181.748 300.284L170.189 290.07L110.667 230.514L126.504 214.667L186.101 274.299L196.234 285.789L195.559 277.753V245.309Z" fill="white"/>
<path d="M293.811 382.597L353.333 442.078L337.496 458L277.899 398.369L267.766 386.878L268.441 394.914V427.358H246.073V350.603H322.709V373.059H290.133L282.252 372.383L293.811 382.597Z" fill="white"/>
<path d="M322.709 321.989H246.073V245.309H268.441V277.904L267.766 285.789L277.974 274.224L337.496 214.667L353.333 230.514L293.736 290.145L282.252 300.284L290.283 299.608H322.709V321.989Z" fill="white"/>
<path d="M141.291 350.603H217.926V427.358H195.559V394.764L196.234 386.878L186.026 398.444L126.504 458L110.667 442.078L170.264 382.522L181.748 372.383L173.716 373.059H141.291V350.603Z" fill="white"/>
<path d="M35.552 621V588.072H40.448V606.024L54.272 588.072H59.648L48.608 603.192L60.128 621H54.368L44.816 606.456L40.448 611.928V621H35.552ZM75.7573 621.48C73.1973 621.48 71.0693 620.968 69.3733 619.944C67.7093 618.92 66.4613 617.48 65.6293 615.624C64.8293 613.768 64.4293 611.64 64.4293 609.24V608.232C64.4293 605.736 64.8933 603.576 65.8213 601.752C66.7493 599.928 68.0773 598.52 69.8053 597.528C71.5333 596.504 73.5813 595.992 75.9493 595.992C78.1573 595.992 80.0453 596.44 81.6133 597.336C83.2133 598.232 84.4453 599.448 85.3093 600.984C86.2053 602.52 86.6533 604.28 86.6533 606.264V609.528H69.4213V610.344C69.4213 612.872 70.0293 614.792 71.2453 616.104C72.4613 617.416 73.9973 618.072 75.8533 618.072C77.9013 618.072 79.4533 617.576 80.5093 616.584C81.5973 615.592 82.1413 614.056 82.1413 611.976H86.6533C86.6533 613.928 86.1893 615.624 85.2613 617.064C84.3653 618.472 83.1013 619.56 81.4693 620.328C79.8693 621.096 77.9653 621.48 75.7573 621.48ZM69.4693 606.408H81.9493V605.688C81.9493 604.472 81.6933 603.4 81.1813 602.472C80.7013 601.512 79.9973 600.76 79.0693 600.216C78.1413 599.672 77.0693 599.4 75.8533 599.4C74.4773 599.4 73.3093 599.736 72.3493 600.408C71.4213 601.08 70.7013 601.944 70.1893 603C69.7093 604.024 69.4693 605.08 69.4693 606.168V606.408ZM67.6453 592.536L74.1253 585.576H78.0133L84.5893 592.536H80.5573L76.0453 588.504L71.5813 592.536H67.6453ZM74.4133 583.512L78.9253 576.552H83.4373L83.4853 576.696L77.8693 583.512H74.4133ZM109.579 621.48C106.699 621.48 104.411 620.856 102.715 619.608C101.019 618.328 100.171 616.248 100.171 613.368V600.216H93.0665V596.472H100.315L101.995 588.648H104.971V596.472H116.059V600.216H104.971V612.984C104.971 614.072 105.195 614.968 105.643 615.672C106.091 616.376 106.747 616.888 107.611 617.208C108.475 617.528 109.563 617.688 110.875 617.688C111.899 617.688 112.843 617.56 113.707 617.304C114.603 617.016 115.387 616.712 116.059 616.392V620.088C115.291 620.536 114.315 620.872 113.131 621.096C111.947 621.352 110.763 621.48 109.579 621.48Z" fill="white"/>
<path d="M319.992 621V588.072H325.032V616.776H339.96L340.632 621H319.992ZM356.645 621.48C354.021 621.48 351.909 620.744 350.309 619.272C348.741 617.8 347.957 615.576 347.957 612.6V596.472H352.805V611.688C352.805 613.736 353.269 615.256 354.197 616.248C355.157 617.24 356.485 617.736 358.181 617.736C359.301 617.736 360.293 617.464 361.157 616.92C362.053 616.344 362.741 615.576 363.221 614.616C363.733 613.656 363.989 612.584 363.989 611.4V596.472H368.789V616.584C368.789 617.096 368.901 617.464 369.125 617.688C369.349 617.912 369.685 618.024 370.133 618.024C370.453 618.024 370.773 617.992 371.093 617.928C371.413 617.864 371.749 617.704 372.101 617.448V620.568C371.685 620.856 371.157 621.08 370.517 621.24C369.909 621.4 369.285 621.48 368.645 621.48C367.493 621.48 366.613 621.32 366.005 621C365.429 620.648 365.029 620.168 364.805 619.56C364.613 618.952 364.485 618.264 364.421 617.496C363.941 618.36 363.333 619.096 362.597 619.704C361.861 620.28 360.997 620.712 360.005 621C359.013 621.32 357.893 621.48 356.645 621.48ZM384.803 621.48C382.275 621.48 380.323 620.888 378.947 619.704C377.603 618.52 376.931 616.776 376.931 614.472C376.931 612.552 377.443 611.016 378.467 609.864C379.523 608.68 381.203 607.816 383.507 607.272C385.843 606.728 388.915 606.456 392.723 606.456V603.768C392.723 602.232 392.323 601.112 391.523 600.408C390.755 599.704 389.443 599.352 387.587 599.352C385.891 599.352 384.579 599.704 383.651 600.408C382.723 601.112 382.259 602.104 382.259 603.384V603.96H377.843C377.779 603.448 377.731 603.112 377.699 602.952C377.699 602.792 377.699 602.728 377.699 602.76C377.699 602.792 377.699 602.84 377.699 602.904C377.731 602.968 377.747 602.968 377.747 602.904C377.747 600.792 378.643 599.112 380.435 597.864C382.259 596.616 384.691 595.992 387.731 595.992C390.963 595.992 393.395 596.616 395.027 597.864C396.691 599.112 397.523 601.016 397.523 603.576V616.584C397.523 617.096 397.651 617.464 397.907 617.688C398.163 617.912 398.499 618.024 398.915 618.024C399.651 618.024 400.291 617.832 400.835 617.448V620.568C400.419 620.856 399.907 621.08 399.299 621.24C398.691 621.4 398.051 621.48 397.379 621.48C396.419 621.48 395.635 621.352 395.027 621.096C394.419 620.872 393.971 620.472 393.683 619.896C393.395 619.32 393.203 618.52 393.107 617.496C392.563 618.488 391.859 619.288 390.995 619.896C390.131 620.472 389.171 620.872 388.115 621.096C387.059 621.352 385.955 621.48 384.803 621.48ZM386.291 618.072C387.763 618.072 388.963 617.752 389.891 617.112C390.851 616.472 391.555 615.608 392.003 614.52C392.483 613.432 392.723 612.216 392.723 610.872V609.384C389.971 609.384 387.779 609.544 386.147 609.864C384.547 610.152 383.395 610.648 382.691 611.352C382.019 612.024 381.683 612.984 381.683 614.232C381.683 615.512 382.051 616.472 382.787 617.112C383.555 617.752 384.723 618.072 386.291 618.072ZM385.043 629.592V624.792H390.803V629.592H385.043ZM379.571 592.728L385.523 584.712H389.795L395.795 592.728H391.763L386.195 585.432H389.171L383.555 592.728H379.571ZM407.2 621V596.472H411.088L411.568 599.976C412.304 598.6 413.344 597.592 414.688 596.952C416.032 596.312 417.52 595.992 419.152 595.992C421.84 595.992 423.984 596.744 425.584 598.248C427.184 599.752 427.984 601.976 427.984 604.92V621H423.184V606.312C423.184 604.008 422.704 602.328 421.744 601.272C420.816 600.216 419.504 599.688 417.808 599.688C416.624 599.688 415.6 599.992 414.736 600.6C413.872 601.176 413.2 601.992 412.72 603.048C412.24 604.072 412 605.256 412 606.6V621H407.2Z" fill="white"/>
</svg>
