<svg width="464" height="672" viewBox="0 0 464 672" fill="none" xmlns="http://www.w3.org/2000/svg">
<rect width="464" height="672" fill="#0000FF"/>
<path d="M32.48 85L43.232 67.672L33.536 52.072H39.296L46.736 63.976H46.832L54.176 52.072H59.312L49.616 67.72L60.368 85H54.608L46.112 71.512H45.968L37.808 85H32.48ZM72.4453 85.48C69.9173 85.48 67.9653 84.888 66.5893 83.704C65.2453 82.52 64.5733 80.776 64.5733 78.472C64.5733 76.552 65.0853 75.016 66.1093 73.864C67.1653 72.68 68.8453 71.816 71.1493 71.272C73.4853 70.728 76.5573 70.456 80.3653 70.456V67.768C80.3653 66.232 79.9653 65.112 79.1653 64.408C78.3973 63.704 77.0853 63.352 75.2293 63.352C73.5333 63.352 72.2213 63.704 71.2933 64.408C70.3653 65.112 69.9013 66.104 69.9013 67.384V67.96H65.4853C65.4213 67.448 65.3733 67.112 65.3413 66.952C65.3413 66.792 65.3413 66.728 65.3413 66.76C65.3413 66.792 65.3413 66.84 65.3413 66.904C65.3733 66.968 65.3893 66.968 65.3893 66.904C65.3893 64.792 66.2853 63.112 68.0773 61.864C69.9013 60.616 72.3333 59.992 75.3733 59.992C78.6053 59.992 81.0373 60.616 82.6693 61.864C84.3333 63.112 85.1653 65.016 85.1653 67.576V80.584C85.1653 81.096 85.2933 81.464 85.5493 81.688C85.8053 81.912 86.1413 82.024 86.5573 82.024C87.2933 82.024 87.9333 81.832 88.4773 81.448V84.568C88.0613 84.856 87.5493 85.08 86.9413 85.24C86.3333 85.4 85.6933 85.48 85.0213 85.48C84.0613 85.48 83.2773 85.352 82.6693 85.096C82.0613 84.872 81.6133 84.472 81.3253 83.896C81.0373 83.32 80.8453 82.52 80.7493 81.496C80.2053 82.488 79.5013 83.288 78.6373 83.896C77.7733 84.472 76.8133 84.872 75.7573 85.096C74.7013 85.352 73.5973 85.48 72.4453 85.48ZM73.9333 82.072C75.4053 82.072 76.6053 81.752 77.5333 81.112C78.4933 80.472 79.1973 79.608 79.6453 78.52C80.1253 77.432 80.3653 76.216 80.3653 74.872V73.384C77.6133 73.384 75.4213 73.544 73.7893 73.864C72.1893 74.152 71.0373 74.648 70.3333 75.352C69.6613 76.024 69.3253 76.984 69.3253 78.232C69.3253 79.512 69.6933 80.472 70.4293 81.112C71.1973 81.752 72.3653 82.072 73.9333 82.072ZM72.6853 56.728L76.4293 48.712H80.9413L80.9893 48.856L76.1413 56.728H72.6853ZM104.635 85.48C103.131 85.48 101.707 85.192 100.363 84.616C99.0505 84.04 97.8985 83.224 96.9065 82.168C95.9465 81.08 95.1945 79.8 94.6505 78.328C94.1065 76.824 93.8345 75.144 93.8345 73.288V72.136C93.8345 70.28 94.1065 68.616 94.6505 67.144C95.1945 65.64 95.9465 64.36 96.9065 63.304C97.8985 62.216 99.0505 61.4 100.363 60.856C101.675 60.28 103.115 59.992 104.683 59.992H105.259C107.243 59.992 108.987 60.408 110.491 61.24C111.995 62.04 113.179 63.192 114.043 64.696C114.907 66.168 115.339 67.96 115.339 70.072H111.019C111.019 68.504 110.763 67.24 110.251 66.28C109.739 65.288 109.035 64.568 108.139 64.12C107.275 63.64 106.251 63.4 105.067 63.4C103.339 63.4 101.867 64.04 100.651 65.32C99.4665 66.568 98.8745 68.504 98.8745 71.128V74.344C98.8745 76.872 99.4505 78.792 100.603 80.104C101.787 81.416 103.323 82.072 105.211 82.072C106.363 82.072 107.371 81.848 108.235 81.4C109.131 80.92 109.819 80.2 110.299 79.24C110.811 78.248 111.067 76.968 111.067 75.4H115.339C115.339 77.544 114.891 79.368 113.995 80.872C113.131 82.376 111.931 83.528 110.395 84.328C108.891 85.096 107.163 85.48 105.211 85.48H104.635Z" fill="white"/>
<path d="M318.552 85V52.072H330.024C331.848 52.072 333.544 52.312 335.112 52.792C336.68 53.272 338.056 54.056 339.24 55.144C340.424 56.2 341.352 57.608 342.024 59.368C342.696 61.096 343.032 63.208 343.032 65.704V71.368C343.032 73.8 342.696 75.896 342.024 77.656C341.352 79.384 340.424 80.792 339.24 81.88C338.056 82.936 336.68 83.72 335.112 84.232C333.544 84.744 331.848 85 330.024 85H318.552ZM323.64 80.92H329.688C331.256 80.92 332.648 80.664 333.864 80.152C335.08 79.608 336.04 78.68 336.744 77.368C337.48 76.056 337.848 74.2 337.848 71.8V65.224C337.848 62.888 337.48 61.064 336.744 59.752C336.04 58.408 335.08 57.464 333.864 56.92C332.648 56.376 331.256 56.104 329.688 56.104H323.64V80.92ZM314.952 70.264V66.808H331.896V70.264H314.952ZM357.701 85V64.216H348.917V60.472H362.501V85H357.701ZM348.917 85V81.304H370.805V85H348.917ZM357.509 55.432V50.824H362.021V55.432H357.509ZM357.221 93.592V88.792H362.981V93.592H357.221ZM377.843 85V60.472H381.731L382.211 63.976C382.947 62.6 383.987 61.592 385.331 60.952C386.675 60.312 388.163 59.992 389.795 59.992C392.483 59.992 394.627 60.744 396.227 62.248C397.827 63.752 398.627 65.976 398.627 68.92V85H393.827V70.312C393.827 68.008 393.347 66.328 392.387 65.272C391.459 64.216 390.147 63.688 388.451 63.688C387.267 63.688 386.243 63.992 385.379 64.6C384.515 65.176 383.843 65.992 383.363 67.048C382.883 68.072 382.643 69.256 382.643 70.6V85H377.843ZM407.2 85V50.44H412V63.736C412.832 62.488 413.92 61.56 415.264 60.952C416.608 60.312 418 59.992 419.44 59.992C421.072 59.992 422.528 60.312 423.808 60.952C425.12 61.592 426.144 62.552 426.88 63.832C427.616 65.112 427.984 66.728 427.984 68.68V85H423.184V69.736C423.184 67.72 422.704 66.216 421.744 65.224C420.784 64.2 419.472 63.688 417.808 63.688C416.72 63.688 415.728 63.96 414.832 64.504C413.936 65.016 413.232 65.736 412.72 66.664C412.24 67.56 412 68.584 412 69.736V85H407.2Z" fill="white"/>
<path d="M147.146 339.538C216.123 342.914 226.999 363.378 228.715 487.447C184.025 484.386 148.189 419.644 147.146 339.538ZM316.901 340.075C315.705 419.929 279.933 484.385 235.346 487.446C237.085 364.61 248.027 344.201 316.901 340.075ZM235.339 184.44C280.029 187.502 315.864 252.244 316.908 332.35C247.931 328.974 237.055 308.509 235.339 184.44ZM228.708 184.44C226.969 307.279 216.028 327.685 147.153 331.812C148.35 251.958 184.121 187.5 228.708 184.44Z" fill="white"/>
<path d="M34.88 621V588.072H41.696L46.256 613.992H46.448L51.2 588.072H57.92V621H53.408V593.928H53.168L48.32 621H43.856L39.152 593.928H38.912V621H34.88ZM73.6453 621.48C71.0213 621.48 68.9093 620.744 67.3093 619.272C65.7413 617.8 64.9573 615.576 64.9573 612.6V596.472H69.8053V611.688C69.8053 613.736 70.2693 615.256 71.1973 616.248C72.1573 617.24 73.4853 617.736 75.1813 617.736C76.3013 617.736 77.2933 617.464 78.1573 616.92C79.0533 616.344 79.7413 615.576 80.2213 614.616C80.7333 613.656 80.9893 612.584 80.9893 611.4V596.472H85.7893V616.584C85.7893 617.096 85.9013 617.464 86.1253 617.688C86.3493 617.912 86.6853 618.024 87.1333 618.024C87.4533 618.024 87.7733 617.992 88.0933 617.928C88.4133 617.864 88.7493 617.704 89.1013 617.448V620.568C88.6853 620.856 88.1573 621.08 87.5173 621.24C86.9093 621.4 86.2853 621.48 85.6453 621.48C84.4933 621.48 83.6133 621.32 83.0053 621C82.4293 620.648 82.0293 620.168 81.8053 619.56C81.6133 618.952 81.4853 618.264 81.4213 617.496C80.9413 618.36 80.3333 619.096 79.5973 619.704C78.8613 620.28 77.9973 620.712 77.0053 621C76.0133 621.32 74.8933 621.48 73.6453 621.48ZM72.5893 629.592V624.792H78.3493V629.592H72.5893ZM104.635 621.48C103.131 621.48 101.707 621.192 100.363 620.616C99.0505 620.04 97.8985 619.224 96.9065 618.168C95.9465 617.08 95.1945 615.8 94.6505 614.328C94.1065 612.824 93.8345 611.144 93.8345 609.288V608.136C93.8345 606.28 94.1065 604.616 94.6505 603.144C95.1945 601.64 95.9465 600.36 96.9065 599.304C97.8985 598.216 99.0505 597.4 100.363 596.856C101.675 596.28 103.115 595.992 104.683 595.992H105.259C107.243 595.992 108.987 596.408 110.491 597.24C111.995 598.04 113.179 599.192 114.043 600.696C114.907 602.168 115.339 603.96 115.339 606.072H111.019C111.019 604.504 110.763 603.24 110.251 602.28C109.739 601.288 109.035 600.568 108.139 600.12C107.275 599.64 106.251 599.4 105.067 599.4C103.339 599.4 101.867 600.04 100.651 601.32C99.4665 602.568 98.8745 604.504 98.8745 607.128V610.344C98.8745 612.872 99.4505 614.792 100.603 616.104C101.787 617.416 103.323 618.072 105.211 618.072C106.363 618.072 107.371 617.848 108.235 617.4C109.131 616.92 109.819 616.2 110.299 615.24C110.811 614.248 111.067 612.968 111.067 611.4H115.339C115.339 613.544 114.891 615.368 113.995 616.872C113.131 618.376 111.931 619.528 110.395 620.328C108.891 621.096 107.163 621.48 105.211 621.48H104.635Z" fill="white"/>
<path d="M326.904 621V592.248H316.68V588.072H342.12V592.248H331.896V621H326.904ZM357.701 621V600.216H348.917V596.472H362.501V621H357.701ZM348.917 621V617.304H370.805V621H348.917ZM357.509 591.432V586.824H362.021V591.432H357.509ZM388.115 621.48C385.555 621.48 383.427 620.968 381.731 619.944C380.067 618.92 378.819 617.48 377.987 615.624C377.187 613.768 376.787 611.64 376.787 609.24V608.232C376.787 605.736 377.251 603.576 378.179 601.752C379.107 599.928 380.435 598.52 382.163 597.528C383.891 596.504 385.939 595.992 388.307 595.992C390.515 595.992 392.403 596.44 393.971 597.336C395.571 598.232 396.803 599.448 397.667 600.984C398.563 602.52 399.011 604.28 399.011 606.264V609.528H381.779V610.344C381.779 612.872 382.387 614.792 383.603 616.104C384.819 617.416 386.355 618.072 388.211 618.072C390.259 618.072 391.811 617.576 392.867 616.584C393.955 615.592 394.499 614.056 394.499 611.976H399.011C399.011 613.928 398.547 615.624 397.619 617.064C396.723 618.472 395.459 619.56 393.827 620.328C392.227 621.096 390.323 621.48 388.115 621.48ZM381.827 606.408H394.307V605.688C394.307 604.472 394.051 603.4 393.539 602.472C393.059 601.512 392.355 600.76 391.427 600.216C390.499 599.672 389.427 599.4 388.211 599.4C386.835 599.4 385.667 599.736 384.707 600.408C383.779 601.08 383.059 601.944 382.547 603C382.067 604.024 381.827 605.08 381.827 606.168V606.408ZM380.339 592.728L386.291 584.712H390.563L396.563 592.728H392.531L386.963 585.432H389.939L384.323 592.728H380.339ZM415.36 621.48C412.736 621.48 410.624 620.744 409.024 619.272C407.456 617.8 406.672 615.576 406.672 612.6V596.472H411.52V611.688C411.52 613.736 411.984 615.256 412.912 616.248C413.872 617.24 415.2 617.736 416.896 617.736C418.016 617.736 419.008 617.464 419.872 616.92C420.768 616.344 421.456 615.576 421.936 614.616C422.448 613.656 422.704 612.584 422.704 611.4V596.472H427.504V616.584C427.504 617.096 427.616 617.464 427.84 617.688C428.064 617.912 428.4 618.024 428.848 618.024C429.168 618.024 429.488 617.992 429.808 617.928C430.128 617.864 430.464 617.704 430.816 617.448V620.568C430.4 620.856 429.872 621.08 429.232 621.24C428.624 621.4 428 621.48 427.36 621.48C426.208 621.48 425.328 621.32 424.72 621C424.144 620.648 423.744 620.168 423.52 619.56C423.328 618.952 423.2 618.264 423.136 617.496C422.656 618.36 422.048 619.096 421.312 619.704C420.576 620.28 419.712 620.712 418.72 621C417.728 621.32 416.608 621.48 415.36 621.48Z" fill="white"/>
</svg>
