<svg width="464" height="672" viewBox="0 0 464 672" fill="none" xmlns="http://www.w3.org/2000/svg">
<rect width="464" height="672" fill="#0000FF"/>
<path d="M46.112 85.48C44.352 85.48 42.72 85.224 41.216 84.712C39.744 84.2 38.448 83.384 37.328 82.264C36.208 81.112 35.328 79.592 34.688 77.704C34.08 75.816 33.776 73.496 33.776 70.744V66.328C33.776 63.576 34.096 61.256 34.736 59.368C35.376 57.48 36.256 55.976 37.376 54.856C38.496 53.704 39.792 52.872 41.264 52.36C42.768 51.848 44.368 51.592 46.064 51.592H46.736C49.232 51.592 51.36 52.072 53.12 53.032C54.912 53.992 56.272 55.448 57.2 57.4C58.128 59.32 58.592 61.736 58.592 64.648H53.744C53.744 62.536 53.504 60.824 53.024 59.512C52.576 58.168 51.808 57.192 50.72 56.584C49.632 55.944 48.176 55.624 46.352 55.624C45.296 55.624 44.32 55.784 43.424 56.104C42.56 56.392 41.792 56.904 41.12 57.64C40.448 58.344 39.92 59.32 39.536 60.568C39.152 61.816 38.96 63.384 38.96 65.272V71.752C38.96 73.64 39.152 75.224 39.536 76.504C39.92 77.752 40.448 78.744 41.12 79.48C41.792 80.184 42.56 80.696 43.424 81.016C44.32 81.304 45.296 81.448 46.352 81.448C49.104 81.448 51.04 80.744 52.16 79.336C53.312 77.896 53.888 75.608 53.888 72.472H58.592C58.592 75.288 58.128 77.656 57.2 79.576C56.272 81.496 54.928 82.968 53.168 83.992C51.408 84.984 49.28 85.48 46.784 85.48H46.112ZM72.4453 85.48C69.9173 85.48 67.9653 84.888 66.5893 83.704C65.2453 82.52 64.5733 80.776 64.5733 78.472C64.5733 76.552 65.0853 75.016 66.1093 73.864C67.1653 72.68 68.8453 71.816 71.1493 71.272C73.4853 70.728 76.5573 70.456 80.3653 70.456V67.768C80.3653 66.232 79.9653 65.112 79.1653 64.408C78.3973 63.704 77.0853 63.352 75.2293 63.352C73.5333 63.352 72.2213 63.704 71.2933 64.408C70.3653 65.112 69.9013 66.104 69.9013 67.384V67.96H65.4853C65.4213 67.448 65.3733 67.112 65.3413 66.952C65.3413 66.792 65.3413 66.728 65.3413 66.76C65.3413 66.792 65.3413 66.84 65.3413 66.904C65.3733 66.968 65.3893 66.968 65.3893 66.904C65.3893 64.792 66.2853 63.112 68.0773 61.864C69.9013 60.616 72.3333 59.992 75.3733 59.992C78.6053 59.992 81.0373 60.616 82.6693 61.864C84.3333 63.112 85.1653 65.016 85.1653 67.576V80.584C85.1653 81.096 85.2933 81.464 85.5493 81.688C85.8053 81.912 86.1413 82.024 86.5573 82.024C87.2933 82.024 87.9333 81.832 88.4773 81.448V84.568C88.0613 84.856 87.5493 85.08 86.9413 85.24C86.3333 85.4 85.6933 85.48 85.0213 85.48C84.0613 85.48 83.2773 85.352 82.6693 85.096C82.0613 84.872 81.6133 84.472 81.3253 83.896C81.0373 83.32 80.8453 82.52 80.7493 81.496C80.2053 82.488 79.5013 83.288 78.6373 83.896C77.7733 84.472 76.8133 84.872 75.7573 85.096C74.7013 85.352 73.5973 85.48 72.4453 85.48ZM73.9333 82.072C75.4053 82.072 76.6053 81.752 77.5333 81.112C78.4933 80.472 79.1973 79.608 79.6453 78.52C80.1253 77.432 80.3653 76.216 80.3653 74.872V73.384C77.6133 73.384 75.4213 73.544 73.7893 73.864C72.1893 74.152 71.0373 74.648 70.3333 75.352C69.6613 76.024 69.3253 76.984 69.3253 78.232C69.3253 79.512 69.6933 80.472 70.4293 81.112C71.1973 81.752 72.3653 82.072 73.9333 82.072ZM74.2693 56.728L69.4213 48.856L69.4693 48.712H73.9333L77.6773 56.728H74.2693ZM104.059 85V64.216H95.2745V60.472H108.859V85H104.059ZM95.2745 85V81.304H117.163V85H95.2745ZM103.867 55.432V50.824H108.379V55.432H103.867Z" fill="white"/>
<path d="M347.552 85V52.072H359.024C360.848 52.072 362.544 52.312 364.112 52.792C365.68 53.272 367.056 54.056 368.24 55.144C369.424 56.2 370.352 57.608 371.024 59.368C371.696 61.096 372.032 63.208 372.032 65.704V71.368C372.032 73.8 371.696 75.896 371.024 77.656C370.352 79.384 369.424 80.792 368.24 81.88C367.056 82.936 365.68 83.72 364.112 84.232C362.544 84.744 360.848 85 359.024 85H347.552ZM352.64 80.92H358.688C360.256 80.92 361.648 80.664 362.864 80.152C364.08 79.608 365.04 78.68 365.744 77.368C366.48 76.056 366.848 74.2 366.848 71.8V65.224C366.848 62.888 366.48 61.064 365.744 59.752C365.04 58.408 364.08 57.464 362.864 56.92C361.648 56.376 360.256 56.104 358.688 56.104H352.64V80.92ZM343.952 70.264V66.808H360.896V70.264H343.952ZM384.445 85.48C381.917 85.48 379.965 84.888 378.589 83.704C377.245 82.52 376.573 80.776 376.573 78.472C376.573 76.552 377.085 75.016 378.109 73.864C379.165 72.68 380.845 71.816 383.149 71.272C385.485 70.728 388.557 70.456 392.365 70.456V67.768C392.365 66.232 391.965 65.112 391.165 64.408C390.397 63.704 389.085 63.352 387.229 63.352C385.533 63.352 384.221 63.704 383.293 64.408C382.365 65.112 381.901 66.104 381.901 67.384V67.96H377.485C377.421 67.448 377.373 67.112 377.341 66.952C377.341 66.792 377.341 66.728 377.341 66.76C377.341 66.792 377.341 66.84 377.341 66.904C377.373 66.968 377.389 66.968 377.389 66.904C377.389 64.792 378.285 63.112 380.077 61.864C381.901 60.616 384.333 59.992 387.373 59.992C390.605 59.992 393.037 60.616 394.669 61.864C396.333 63.112 397.165 65.016 397.165 67.576V80.584C397.165 81.096 397.293 81.464 397.549 81.688C397.805 81.912 398.141 82.024 398.557 82.024C399.293 82.024 399.933 81.832 400.477 81.448V84.568C400.061 84.856 399.549 85.08 398.941 85.24C398.333 85.4 397.693 85.48 397.021 85.48C396.061 85.48 395.277 85.352 394.669 85.096C394.061 84.872 393.613 84.472 393.325 83.896C393.037 83.32 392.845 82.52 392.749 81.496C392.205 82.488 391.501 83.288 390.637 83.896C389.773 84.472 388.813 84.872 387.757 85.096C386.701 85.352 385.597 85.48 384.445 85.48ZM385.933 82.072C387.405 82.072 388.605 81.752 389.533 81.112C390.493 80.472 391.197 79.608 391.645 78.52C392.125 77.432 392.365 76.216 392.365 74.872V73.384C389.613 73.384 387.421 73.544 385.789 73.864C384.189 74.152 383.037 74.648 382.333 75.352C381.661 76.024 381.325 76.984 381.325 78.232C381.325 79.512 381.693 80.472 382.429 81.112C383.197 81.752 384.365 82.072 385.933 82.072ZM384.685 93.592V88.792H390.445V93.592H384.685ZM387.037 56.584C385.341 56.584 383.917 56.28 382.765 55.672C381.613 55.064 380.733 54.248 380.125 53.224C379.549 52.168 379.213 51 379.117 49.72H382.333C382.621 51.16 383.181 52.2 384.013 52.84C384.845 53.448 385.885 53.752 387.133 53.752C388.477 53.752 389.565 53.448 390.397 52.84C391.261 52.2 391.853 51.16 392.173 49.72H395.341C395.277 51 394.909 52.168 394.237 53.224C393.565 54.248 392.621 55.064 391.405 55.672C390.221 56.28 388.765 56.584 387.037 56.584ZM421.579 85.48C418.699 85.48 416.411 84.856 414.715 83.608C413.019 82.328 412.171 80.248 412.171 77.368V64.216H405.067V60.472H412.315L413.995 52.648H416.971V60.472H428.059V64.216H416.971V76.984C416.971 78.072 417.195 78.968 417.643 79.672C418.091 80.376 418.747 80.888 419.611 81.208C420.475 81.528 421.563 81.688 422.875 81.688C423.899 81.688 424.843 81.56 425.707 81.304C426.603 81.016 427.387 80.712 428.059 80.392V84.088C427.291 84.536 426.315 84.872 425.131 85.096C423.947 85.352 422.763 85.48 421.579 85.48Z" fill="white"/>
<path d="M150.677 476.666C141.866 476.666 135.257 474.16 130.852 469.147C126.446 464.344 124.243 458.287 124.243 450.977V431.239C124.243 425.6 124.768 420.692 125.817 416.515C127.075 412.338 128.544 408.578 130.222 405.236C131.901 401.895 133.789 398.971 135.887 396.464C137.985 393.749 139.978 391.243 141.866 388.945C145.433 384.768 147.845 381.218 149.104 378.294C150.573 375.161 151.307 371.923 151.307 368.582C151.307 360.645 147.635 354.901 140.293 351.351C132.95 347.591 122.145 345.712 107.879 345.712H85.1064C84.127 345.712 83.333 344.917 83.333 343.938V328.062C83.333 327.082 84.127 326.288 85.1064 326.288H107.879C122.145 326.288 132.95 324.512 140.293 320.962C147.635 317.202 151.307 311.354 151.307 303.418C151.307 300.076 150.573 296.943 149.104 294.019C147.845 290.886 145.433 287.231 141.866 283.054C139.978 280.756 137.985 278.355 135.887 275.848C133.789 273.133 131.901 270.209 130.222 267.076C128.544 263.734 127.075 259.975 125.817 255.798C124.768 251.412 124.243 246.399 124.243 240.76V221.023C124.243 213.713 126.446 207.656 130.852 202.852C135.257 197.839 141.866 195.333 150.677 195.333H204.29C205.27 195.333 206.064 196.127 206.064 197.107V212.983C206.064 213.963 205.27 214.757 204.29 214.757H147.73C146.751 214.757 145.957 215.551 145.957 216.531V238.88C145.957 247.443 147.216 254.022 149.733 258.617C152.251 263.212 155.188 267.703 158.545 272.089C162.111 276.684 165.468 281.487 168.615 286.5C171.762 291.304 173.335 297.047 173.335 303.731C173.335 312.503 170.188 319.604 163.895 325.035C157.929 330.359 149.744 333.776 139.341 335.286C138.986 335.337 138.719 335.641 138.719 336C138.719 336.359 138.986 336.662 139.341 336.714C149.744 338.223 157.929 341.64 163.895 346.965C170.188 352.395 173.335 359.496 173.335 368.268C173.335 374.952 171.762 380.8 168.615 385.813C165.468 390.616 162.111 395.316 158.545 399.911C155.188 404.297 152.251 408.787 149.733 413.382C147.216 417.977 145.957 424.556 145.957 433.119V455.468C145.957 456.448 146.751 457.242 147.73 457.242H204.29C205.27 457.242 206.064 458.037 206.064 459.016V474.892C206.064 475.872 205.27 476.666 204.29 476.666H150.677Z" fill="white"/>
<path d="M312.655 195.333C321.467 195.333 328.075 197.839 332.481 202.852C336.887 207.656 339.089 213.713 339.089 221.023V240.76C339.089 246.399 338.46 251.412 337.201 255.798C336.152 259.975 334.789 263.734 333.11 267.076C331.432 270.209 329.544 273.133 327.446 275.848C325.348 278.355 323.355 280.756 321.467 283.054C317.9 287.231 315.383 290.886 313.914 294.019C312.655 296.943 312.026 300.076 312.026 303.418C312.026 311.354 315.697 317.202 323.04 320.962C330.383 324.512 341.187 326.288 355.454 326.288H378.226C379.206 326.288 380 327.082 380 328.062V343.938C380 344.917 379.206 345.712 378.226 345.712H355.454C341.187 345.712 330.383 347.591 323.04 351.351C315.697 354.901 312.026 360.645 312.026 368.582C312.026 371.923 312.655 375.161 313.914 378.294C315.383 381.218 317.9 384.768 321.467 388.945C323.355 391.243 325.348 393.749 327.446 396.464C329.544 398.971 331.432 401.895 333.11 405.236C334.789 408.578 336.152 412.338 337.201 416.515C338.46 420.692 339.089 425.6 339.089 431.239V450.977C339.089 458.287 336.887 464.344 332.481 469.147C328.075 474.16 321.467 476.666 312.655 476.666H259.042C258.063 476.666 257.269 475.872 257.269 474.892V459.016C257.269 458.037 258.063 457.242 259.042 457.242H315.602C316.582 457.242 317.376 456.448 317.376 455.468V433.119C317.376 424.556 316.117 417.977 313.599 413.382C311.082 408.787 308.145 404.297 304.788 399.911C301.221 395.316 297.865 390.616 294.718 385.813C291.571 380.8 289.997 374.952 289.997 368.268C289.997 359.496 293.039 352.395 299.123 346.965C305.295 341.64 313.584 338.223 323.992 336.714C324.347 336.662 324.614 336.359 324.614 336C324.614 335.641 324.347 335.337 323.992 335.286C313.584 333.776 305.295 330.359 299.123 325.035C293.039 319.604 289.997 312.503 289.997 303.731C289.997 297.047 291.571 291.304 294.718 286.5C297.865 281.487 301.221 276.684 304.788 272.089C308.145 267.703 311.082 263.212 313.599 258.617C316.117 254.022 317.376 247.443 317.376 238.88V216.531C317.376 215.551 316.582 214.757 315.602 214.757H259.042C258.063 214.757 257.269 213.963 257.269 212.983V197.107C257.269 196.127 258.063 195.333 259.042 195.333H312.655Z" fill="white"/>
<path d="M36.176 621V588.072H57.68L57.008 592.152H41.216V602.184H55.52V606.168H41.216V616.824H57.296L57.968 621H36.176ZM73.1653 621L63.6133 596.472H68.7493L75.9013 615.288H76.0453L83.1973 596.472H87.9013L78.2533 621H73.1653ZM105.115 621.48C102.555 621.48 100.427 620.968 98.7305 619.944C97.0665 618.92 95.8185 617.48 94.9865 615.624C94.1865 613.768 93.7865 611.64 93.7865 609.24V608.232C93.7865 605.736 94.2505 603.576 95.1785 601.752C96.1065 599.928 97.4345 598.52 99.1625 597.528C100.891 596.504 102.939 595.992 105.307 595.992C107.515 595.992 109.403 596.44 110.971 597.336C112.571 598.232 113.803 599.448 114.667 600.984C115.563 602.52 116.011 604.28 116.011 606.264V609.528H98.7785V610.344C98.7785 612.872 99.3865 614.792 100.603 616.104C101.819 617.416 103.355 618.072 105.211 618.072C107.259 618.072 108.811 617.576 109.867 616.584C110.955 615.592 111.499 614.056 111.499 611.976H116.011C116.011 613.928 115.547 615.624 114.619 617.064C113.723 618.472 112.459 619.56 110.827 620.328C109.227 621.096 107.323 621.48 105.115 621.48ZM98.8265 606.408H111.307V605.688C111.307 604.472 111.051 603.4 110.539 602.472C110.059 601.512 109.355 600.76 108.427 600.216C107.499 599.672 106.427 599.4 105.211 599.4C103.835 599.4 102.667 599.736 101.707 600.408C100.779 601.08 100.059 601.944 99.5465 603C99.0665 604.024 98.8265 605.08 98.8265 606.168V606.408ZM124.2 621V596.472H128.088L128.568 599.976C129.304 598.6 130.344 597.592 131.688 596.952C133.032 596.312 134.52 595.992 136.152 595.992C138.84 595.992 140.984 596.744 142.584 598.248C144.184 599.752 144.984 601.976 144.984 604.92V621H140.184V606.312C140.184 604.008 139.704 602.328 138.744 601.272C137.816 600.216 136.504 599.688 134.808 599.688C133.624 599.688 132.6 599.992 131.736 600.6C130.872 601.176 130.2 601.992 129.72 603.048C129.24 604.072 129 605.256 129 606.6V621H124.2ZM168.293 621.48C165.413 621.48 163.125 620.856 161.429 619.608C159.733 618.328 158.885 616.248 158.885 613.368V600.216H151.781V596.472H159.029L160.709 588.648H163.685V596.472H174.773V600.216H163.685V612.984C163.685 614.072 163.909 614.968 164.357 615.672C164.805 616.376 165.461 616.888 166.325 617.208C167.189 617.528 168.277 617.688 169.589 617.688C170.613 617.688 171.557 617.56 172.421 617.304C173.317 617.016 174.101 616.712 174.773 616.392V620.088C174.005 620.536 173.029 620.872 171.845 621.096C170.661 621.352 169.477 621.48 168.293 621.48Z" fill="white"/>
<path d="M208.904 621V592.248H198.68V588.072H224.12V592.248H213.896V621H208.904ZM234.757 621V600.216H228.565V596.472H238.645L238.885 600.072C239.461 598.792 240.341 597.8 241.525 597.096C242.741 596.36 244.133 595.992 245.701 595.992C248.101 595.992 249.941 596.712 251.221 598.152C252.533 599.56 253.189 601.368 253.189 603.576C253.189 603.928 253.173 604.264 253.141 604.584C253.141 604.872 253.109 605.224 253.045 605.64H248.965V604.632C248.965 603.768 248.789 602.968 248.437 602.232C248.117 601.496 247.605 600.904 246.901 600.456C246.229 599.976 245.349 599.736 244.261 599.736C243.205 599.736 242.309 600.04 241.573 600.648C240.869 601.256 240.341 602.024 239.989 602.952C239.637 603.88 239.461 604.856 239.461 605.88V621H234.757ZM228.325 621V617.304H250.453V621H228.325ZM266.803 621.48C264.275 621.48 262.323 620.888 260.947 619.704C259.603 618.52 258.931 616.776 258.931 614.472C258.931 612.552 259.443 611.016 260.467 609.864C261.523 608.68 263.203 607.816 265.507 607.272C267.843 606.728 270.915 606.456 274.723 606.456V603.768C274.723 602.232 274.323 601.112 273.523 600.408C272.755 599.704 271.443 599.352 269.587 599.352C267.891 599.352 266.579 599.704 265.651 600.408C264.723 601.112 264.259 602.104 264.259 603.384V603.96H259.843C259.779 603.448 259.731 603.112 259.699 602.952C259.699 602.792 259.699 602.728 259.699 602.76C259.699 602.792 259.699 602.84 259.699 602.904C259.731 602.968 259.747 602.968 259.747 602.904C259.747 600.792 260.643 599.112 262.435 597.864C264.259 596.616 266.691 595.992 269.731 595.992C272.963 595.992 275.395 596.616 277.027 597.864C278.691 599.112 279.523 601.016 279.523 603.576V616.584C279.523 617.096 279.651 617.464 279.907 617.688C280.163 617.912 280.499 618.024 280.915 618.024C281.651 618.024 282.291 617.832 282.835 617.448V620.568C282.419 620.856 281.907 621.08 281.299 621.24C280.691 621.4 280.051 621.48 279.379 621.48C278.419 621.48 277.635 621.352 277.027 621.096C276.419 620.872 275.971 620.472 275.683 619.896C275.395 619.32 275.203 618.52 275.107 617.496C274.563 618.488 273.859 619.288 272.995 619.896C272.131 620.472 271.171 620.872 270.115 621.096C269.059 621.352 267.955 621.48 266.803 621.48ZM268.291 618.072C269.763 618.072 270.963 617.752 271.891 617.112C272.851 616.472 273.555 615.608 274.003 614.52C274.483 613.432 274.723 612.216 274.723 610.872V609.384C271.971 609.384 269.779 609.544 268.147 609.864C266.547 610.152 265.395 610.648 264.691 611.352C264.019 612.024 263.683 612.984 263.683 614.232C263.683 615.512 264.051 616.472 264.787 617.112C265.555 617.752 266.723 618.072 268.291 618.072ZM298.992 621.48C297.488 621.48 296.064 621.192 294.72 620.616C293.408 620.04 292.256 619.224 291.264 618.168C290.304 617.08 289.552 615.8 289.008 614.328C288.464 612.824 288.192 611.144 288.192 609.288V608.136C288.192 606.28 288.464 604.616 289.008 603.144C289.552 601.64 290.304 600.36 291.264 599.304C292.256 598.216 293.408 597.4 294.72 596.856C296.032 596.28 297.472 595.992 299.04 595.992H299.616C301.6 595.992 303.344 596.408 304.848 597.24C306.352 598.04 307.536 599.192 308.4 600.696C309.264 602.168 309.696 603.96 309.696 606.072H305.376C305.376 604.504 305.12 603.24 304.608 602.28C304.096 601.288 303.392 600.568 302.496 600.12C301.632 599.64 300.608 599.4 299.424 599.4C297.696 599.4 296.224 600.04 295.008 601.32C293.824 602.568 293.232 604.504 293.232 607.128V610.344C293.232 612.872 293.808 614.792 294.96 616.104C296.144 617.416 297.68 618.072 299.568 618.072C300.72 618.072 301.728 617.848 302.592 617.4C303.488 616.92 304.176 616.2 304.656 615.24C305.168 614.248 305.424 612.968 305.424 611.4H309.696C309.696 613.544 309.248 615.368 308.352 616.872C307.488 618.376 306.288 619.528 304.752 620.328C303.248 621.096 301.52 621.48 299.568 621.48H298.992ZM318.221 621V586.44H323.021V609.912L334.349 596.472H340.013L330.269 607.896L340.589 621H334.733L326.909 611.256L323.021 615.096V621H318.221ZM357.13 621V600.216H348.346V596.472H361.93V621H357.13ZM348.346 621V617.304H370.234V621H348.346ZM356.938 591.432V586.824H361.45V591.432H356.938ZM377.271 621V596.472H381.159L381.639 599.976C382.375 598.6 383.415 597.592 384.759 596.952C386.103 596.312 387.591 595.992 389.223 595.992C391.911 595.992 394.055 596.744 395.655 598.248C397.255 599.752 398.055 601.976 398.055 604.92V621H393.255V606.312C393.255 604.008 392.775 602.328 391.815 601.272C390.887 600.216 389.575 599.688 387.879 599.688C386.695 599.688 385.671 599.992 384.807 600.6C383.943 601.176 383.271 601.992 382.791 603.048C382.311 604.072 382.071 605.256 382.071 606.6V621H377.271ZM411.381 630.024C409.333 630.024 407.749 629.464 406.629 628.344C405.509 627.224 404.949 625.848 404.949 624.216C404.949 623 405.285 621.912 405.957 620.952C406.629 619.992 407.493 619.288 408.549 618.84C407.845 618.392 407.285 617.8 406.869 617.064C406.485 616.328 406.293 615.544 406.293 614.712C406.293 613.592 406.661 612.584 407.397 611.688C408.133 610.792 409.141 610.216 410.421 609.96C409.269 609.288 408.405 608.424 407.829 607.368C407.253 606.312 406.965 605.096 406.965 603.72C406.965 601.32 407.813 599.432 409.509 598.056C411.237 596.68 413.781 595.992 417.141 595.992C419.125 595.992 420.725 596.264 421.941 596.808C423.221 596.456 424.181 595.864 424.821 595.032C425.493 594.168 425.877 593.176 425.973 592.056H429.861C429.861 593.656 429.397 595.016 428.469 596.136C427.573 597.224 426.389 597.928 424.917 598.248V598.344C425.685 598.952 426.261 599.736 426.645 600.696C427.061 601.624 427.269 602.632 427.269 603.72C427.269 606.088 426.453 607.976 424.821 609.384C423.221 610.792 420.901 611.496 417.861 611.496H413.925C412.965 611.496 412.197 611.72 411.621 612.168C411.077 612.616 410.805 613.24 410.805 614.04C410.805 614.84 411.077 615.464 411.621 615.912C412.165 616.328 412.917 616.536 413.877 616.536H422.565C424.837 616.536 426.613 617.128 427.893 618.312C429.205 619.464 429.861 621 429.861 622.92C429.861 625 429.205 626.696 427.893 628.008C426.613 629.352 424.789 630.024 422.421 630.024H411.381ZM412.725 626.856H421.797C422.981 626.856 423.877 626.536 424.485 625.896C425.093 625.288 425.397 624.52 425.397 623.592C425.397 622.696 425.093 621.944 424.485 621.336C423.909 620.728 423.013 620.424 421.797 620.424H412.725C411.573 620.424 410.693 620.728 410.085 621.336C409.477 621.976 409.173 622.744 409.173 623.64C409.173 624.504 409.477 625.256 410.085 625.896C410.693 626.536 411.573 626.856 412.725 626.856ZM417.189 608.424C418.949 608.424 420.325 608.024 421.317 607.224C422.309 606.392 422.805 605.24 422.805 603.768C422.805 602.264 422.309 601.112 421.317 600.312C420.325 599.512 418.949 599.112 417.189 599.112C415.461 599.112 414.085 599.512 413.061 600.312C412.069 601.112 411.573 602.264 411.573 603.768C411.573 605.24 412.069 606.392 413.061 607.224C414.085 608.024 415.461 608.424 417.189 608.424Z" fill="white"/>
</svg>
