<svg width="464" height="672" viewBox="0 0 464 672" fill="none" xmlns="http://www.w3.org/2000/svg">
<rect width="464" height="672" fill="#0000FF"/>
<path d="M35.552 85V52.072H47.024C48.848 52.072 50.544 52.312 52.112 52.792C53.68 53.272 55.056 54.056 56.24 55.144C57.424 56.2 58.352 57.608 59.024 59.368C59.696 61.096 60.032 63.208 60.032 65.704V71.368C60.032 73.8 59.696 75.896 59.024 77.656C58.352 79.384 57.424 80.792 56.24 81.88C55.056 82.936 53.68 83.72 52.112 84.232C50.544 84.744 48.848 85 47.024 85H35.552ZM40.64 80.92H46.688C48.256 80.92 49.648 80.664 50.864 80.152C52.08 79.608 53.04 78.68 53.744 77.368C54.48 76.056 54.848 74.2 54.848 71.8V65.224C54.848 62.888 54.48 61.064 53.744 59.752C53.04 58.408 52.08 57.464 50.864 56.92C49.648 56.376 48.256 56.104 46.688 56.104H40.64V80.92ZM31.952 70.264V66.808H48.896V70.264H31.952ZM75.7573 85.48C73.3893 85.48 71.3573 84.952 69.6613 83.896C67.9653 82.84 66.6693 81.384 65.7733 79.528C64.8773 77.64 64.4293 75.512 64.4293 73.144V72.328C64.4293 69.896 64.8773 67.752 65.7733 65.896C66.6693 64.04 67.9653 62.6 69.6613 61.576C71.3573 60.52 73.3733 59.992 75.7093 59.992C78.1093 59.992 80.1573 60.52 81.8533 61.576C83.5493 62.632 84.8453 64.088 85.7413 65.944C86.6373 67.8 87.0853 69.928 87.0853 72.328V73.144C87.0853 75.576 86.6373 77.72 85.7413 79.576C84.8453 81.432 83.5493 82.888 81.8533 83.944C80.1573 84.968 78.1253 85.48 75.7573 85.48ZM75.7573 82.072C77.6133 82.072 79.1333 81.4 80.3173 80.056C81.5013 78.68 82.0933 76.776 82.0933 74.344V71.128C82.0933 68.696 81.5013 66.808 80.3173 65.464C79.1333 64.088 77.6133 63.4 75.7573 63.4C73.9333 63.4 72.4133 64.088 71.1973 65.464C70.0133 66.808 69.4213 68.696 69.4213 71.128V74.344C69.4213 76.776 70.0133 78.68 71.1973 80.056C72.4133 81.4 73.9333 82.072 75.7573 82.072Z" fill="white"/>
<path d="M289.992 85V52.072H295.032V80.776H309.96L310.632 85H289.992ZM326.645 85.48C324.021 85.48 321.909 84.744 320.309 83.272C318.741 81.8 317.957 79.576 317.957 76.6V60.472H322.805V75.688C322.805 77.736 323.269 79.256 324.197 80.248C325.157 81.24 326.485 81.736 328.181 81.736C329.301 81.736 330.293 81.464 331.157 80.92C332.053 80.344 332.741 79.576 333.221 78.616C333.733 77.656 333.989 76.584 333.989 75.4V60.472H338.789V80.584C338.789 81.096 338.901 81.464 339.125 81.688C339.349 81.912 339.685 82.024 340.133 82.024C340.453 82.024 340.773 81.992 341.093 81.928C341.413 81.864 341.749 81.704 342.101 81.448V84.568C341.685 84.856 341.157 85.08 340.517 85.24C339.909 85.4 339.285 85.48 338.645 85.48C337.493 85.48 336.613 85.32 336.005 85C335.429 84.648 335.029 84.168 334.805 83.56C334.613 82.952 334.485 82.264 334.421 81.496C333.941 82.36 333.333 83.096 332.597 83.704C331.861 84.28 330.997 84.712 330.005 85C329.013 85.32 327.893 85.48 326.645 85.48ZM335.189 63.256V60.472C336.757 60.216 337.877 59.496 338.549 58.312C339.253 57.128 339.605 55.512 339.605 53.464H344.021C344.021 55.16 343.669 56.712 342.965 58.12C342.293 59.528 341.301 60.68 339.989 61.576C338.677 62.472 337.077 63.032 335.189 63.256ZM358.115 85.48C355.747 85.48 353.715 84.952 352.019 83.896C350.323 82.84 349.027 81.384 348.131 79.528C347.235 77.64 346.787 75.512 346.787 73.144V72.328C346.787 69.896 347.235 67.752 348.131 65.896C349.027 64.04 350.323 62.6 352.019 61.576C353.715 60.52 355.731 59.992 358.067 59.992C360.467 59.992 362.515 60.52 364.211 61.576C365.907 62.632 367.203 64.088 368.099 65.944C368.995 67.8 369.443 69.928 369.443 72.328V73.144C369.443 75.576 368.995 77.72 368.099 79.576C367.203 81.432 365.907 82.888 364.211 83.944C362.515 84.968 360.483 85.48 358.115 85.48ZM358.115 82.072C359.971 82.072 361.491 81.4 362.675 80.056C363.859 78.68 364.451 76.776 364.451 74.344V71.128C364.451 68.696 363.859 66.808 362.675 65.464C361.491 64.088 359.971 63.4 358.115 63.4C356.291 63.4 354.771 64.088 353.555 65.464C352.371 66.808 351.779 68.696 351.779 71.128V74.344C351.779 76.776 352.371 78.68 353.555 80.056C354.771 81.4 356.291 82.072 358.115 82.072ZM364.115 65.08V62.296C365.683 62.04 366.803 61.32 367.475 60.136C368.179 58.952 368.531 57.336 368.531 55.288H372.947C372.947 56.984 372.595 58.536 371.891 59.944C371.219 61.352 370.227 62.504 368.915 63.4C367.603 64.296 366.003 64.856 364.115 65.08ZM357.059 56.728L352.211 48.856L352.259 48.712H356.723L360.467 56.728H357.059ZM377.2 85V60.472H381.088L381.568 63.976C382.304 62.6 383.344 61.592 384.688 60.952C386.032 60.312 387.52 59.992 389.152 59.992C391.84 59.992 393.984 60.744 395.584 62.248C397.184 63.752 397.984 65.976 397.984 68.92V85H393.184V70.312C393.184 68.008 392.704 66.328 391.744 65.272C390.816 64.216 389.504 63.688 387.808 63.688C386.624 63.688 385.6 63.992 384.736 64.6C383.872 65.176 383.2 65.992 382.72 67.048C382.24 68.072 382 69.256 382 70.6V85H377.2ZM411.309 94.024C409.261 94.024 407.677 93.464 406.557 92.344C405.437 91.224 404.877 89.848 404.877 88.216C404.877 87 405.213 85.912 405.885 84.952C406.557 83.992 407.421 83.288 408.477 82.84C407.773 82.392 407.213 81.8 406.797 81.064C406.413 80.328 406.221 79.544 406.221 78.712C406.221 77.592 406.589 76.584 407.325 75.688C408.061 74.792 409.069 74.216 410.349 73.96C409.197 73.288 408.333 72.424 407.757 71.368C407.181 70.312 406.893 69.096 406.893 67.72C406.893 65.32 407.741 63.432 409.437 62.056C411.165 60.68 413.709 59.992 417.069 59.992C419.053 59.992 420.653 60.264 421.869 60.808C423.149 60.456 424.109 59.864 424.749 59.032C425.421 58.168 425.805 57.176 425.901 56.056H429.789C429.789 57.656 429.325 59.016 428.397 60.136C427.501 61.224 426.317 61.928 424.845 62.248V62.344C425.613 62.952 426.189 63.736 426.573 64.696C426.989 65.624 427.197 66.632 427.197 67.72C427.197 70.088 426.381 71.976 424.749 73.384C423.149 74.792 420.829 75.496 417.789 75.496H413.853C412.893 75.496 412.125 75.72 411.549 76.168C411.005 76.616 410.733 77.24 410.733 78.04C410.733 78.84 411.005 79.464 411.549 79.912C412.093 80.328 412.845 80.536 413.805 80.536H422.493C424.765 80.536 426.541 81.128 427.821 82.312C429.133 83.464 429.789 85 429.789 86.92C429.789 89 429.133 90.696 427.821 92.008C426.541 93.352 424.717 94.024 422.349 94.024H411.309ZM412.653 90.856H421.725C422.909 90.856 423.805 90.536 424.413 89.896C425.021 89.288 425.325 88.52 425.325 87.592C425.325 86.696 425.021 85.944 424.413 85.336C423.837 84.728 422.941 84.424 421.725 84.424H412.653C411.501 84.424 410.621 84.728 410.013 85.336C409.405 85.976 409.101 86.744 409.101 87.64C409.101 88.504 409.405 89.256 410.013 89.896C410.621 90.536 411.501 90.856 412.653 90.856ZM417.117 72.424C418.877 72.424 420.253 72.024 421.245 71.224C422.237 70.392 422.733 69.24 422.733 67.768C422.733 66.264 422.237 65.112 421.245 64.312C420.253 63.512 418.877 63.112 417.117 63.112C415.389 63.112 414.013 63.512 412.989 64.312C411.997 65.112 411.501 66.264 411.501 67.768C411.501 69.24 411.997 70.392 412.989 71.224C414.013 72.024 415.389 72.424 417.117 72.424Z" fill="white"/>
<path d="M204.571 345.241V404.908C204.571 420.467 201.468 431.514 195.803 438.593C190.217 445.594 181.604 449.251 169.422 449.251C157.24 449.251 148.627 445.594 143.04 438.671C137.298 431.592 134.272 420.545 134.272 404.908V345.241H115.495V404.364C115.495 424.357 119.995 440.149 129.151 450.962C138.462 461.931 152.119 467.299 169.422 467.299C186.725 467.299 200.459 461.853 209.77 450.962C218.926 440.071 223.349 424.279 223.349 404.364V345.241H204.571Z" fill="white"/>
<path d="M350.911 381.181L350.601 380.559C347.73 374.491 344.083 369.123 339.505 364.456L354.247 345.163L340.436 334.661L325.461 353.954C321.658 351.775 317.546 350.142 313.201 348.897C308.002 347.419 302.648 346.641 297.139 346.641C288.759 346.641 280.922 348.197 273.629 351.309C266.49 354.265 260.283 358.466 254.929 363.833C249.73 369.046 245.695 375.036 242.669 381.882C239.643 388.65 238.169 395.729 238.169 403.197C238.169 410.665 240.031 419.845 243.756 427.235C247.092 433.459 251.282 438.826 256.17 443.494L241.35 463.098L255.55 472.667L270.525 453.218C274.094 455.008 277.896 456.408 281.931 457.497C286.819 458.664 291.863 459.286 296.984 459.286C307.614 459.286 317.313 456.797 326.159 451.662C335.004 446.606 342.065 439.838 347.264 431.436C352.618 422.879 355.334 413.466 355.334 403.119C355.334 392.773 353.782 387.872 350.678 381.104H350.911V381.181ZM297.217 441.938C293.492 441.938 290.078 441.549 286.819 440.771C284.957 440.305 283.173 439.682 281.466 439.06L328.409 379.003C330.659 381.882 332.599 385.071 334.073 388.65C336.013 393.239 337.022 398.063 337.022 403.275C337.022 410.899 335.16 417.589 331.59 423.346C327.943 429.102 323.133 433.692 317.081 437.115C311.106 440.382 304.511 442.016 297.294 442.016H297.217V441.938ZM267.189 429.336C264.395 426.379 262.145 422.879 260.438 418.989C258.265 414.088 257.101 408.798 257.101 403.119C257.101 397.44 258.886 389.272 262.3 383.593C265.714 377.914 270.215 373.402 275.956 370.057L276.5 369.746C282.629 366.401 289.458 364.689 297.062 364.689C304.666 364.689 304.588 365.156 308.08 366.089C310.33 366.712 312.503 367.412 314.442 368.345L267.033 429.413H267.189V429.336Z" fill="white"/>
<path d="M336.246 216.337C327.012 205.368 313.278 200 295.898 200C278.517 200 264.938 205.446 255.627 216.337C246.394 227.228 241.971 243.02 241.971 262.935V322.058H260.748V262.39C260.748 246.754 263.852 235.707 269.516 228.628C275.103 221.704 283.638 218.048 295.898 218.048C308.157 218.048 316.692 221.782 322.279 228.706C328.021 235.785 331.047 246.832 331.047 262.39V322.058H349.825V262.935C349.825 243.02 345.402 227.15 336.246 216.337Z" fill="white"/>
<path d="M142.73 233.529C150.412 228.006 161.508 224.972 176.25 224.972H222.65V204.901H178.578C156.231 204.901 138.695 209.88 126.668 220.071C114.642 230.34 108.667 245.509 108.667 264.88C108.667 284.251 114.719 299.42 126.901 309.689C138.928 319.88 156.464 324.859 178.655 324.859H222.728V304.788H176.328C161.663 304.788 150.567 301.754 142.885 296.153C136.057 291.252 131.634 284.173 129.85 274.837H222.728V254.767H129.772C131.557 245.432 135.902 238.43 142.73 233.529Z" fill="white"/>
<path d="M35.552 621V588.072H40.448V602.088H52.352V588.072H57.296V621H52.352V606.264H40.448V621H35.552ZM74.7013 621V600.216H65.9173V596.472H79.5013V621H74.7013ZM65.9173 621V617.304H87.8053V621H65.9173ZM74.5093 591.432V586.824H79.0213V591.432H74.5093ZM105.115 621.48C102.555 621.48 100.427 620.968 98.7305 619.944C97.0665 618.92 95.8185 617.48 94.9865 615.624C94.1865 613.768 93.7865 611.64 93.7865 609.24V608.232C93.7865 605.736 94.2505 603.576 95.1785 601.752C96.1065 599.928 97.4345 598.52 99.1625 597.528C100.891 596.504 102.939 595.992 105.307 595.992C107.515 595.992 109.403 596.44 110.971 597.336C112.571 598.232 113.803 599.448 114.667 600.984C115.563 602.52 116.011 604.28 116.011 606.264V609.528H98.7785V610.344C98.7785 612.872 99.3865 614.792 100.603 616.104C101.819 617.416 103.355 618.072 105.211 618.072C107.259 618.072 108.811 617.576 109.867 616.584C110.955 615.592 111.499 614.056 111.499 611.976H116.011C116.011 613.928 115.547 615.624 114.619 617.064C113.723 618.472 112.459 619.56 110.827 620.328C109.227 621.096 107.323 621.48 105.115 621.48ZM98.8265 606.408H111.307V605.688C111.307 604.472 111.051 603.4 110.539 602.472C110.059 601.512 109.355 600.76 108.427 600.216C107.499 599.672 106.427 599.4 105.211 599.4C103.835 599.4 102.667 599.736 101.707 600.408C100.779 601.08 100.059 601.944 99.5465 603C99.0665 604.024 98.8265 605.08 98.8265 606.168V606.408ZM102.523 629.592V624.792H108.283V629.592H102.523ZM97.3385 592.728L103.291 584.712H107.563L113.563 592.728H109.531L103.963 585.432H106.939L101.323 592.728H97.3385ZM132.36 621.48C129.736 621.48 127.624 620.744 126.024 619.272C124.456 617.8 123.672 615.576 123.672 612.6V596.472H128.52V611.688C128.52 613.736 128.984 615.256 129.912 616.248C130.872 617.24 132.2 617.736 133.896 617.736C135.016 617.736 136.008 617.464 136.872 616.92C137.768 616.344 138.456 615.576 138.936 614.616C139.448 613.656 139.704 612.584 139.704 611.4V596.472H144.504V616.584C144.504 617.096 144.616 617.464 144.84 617.688C145.064 617.912 145.4 618.024 145.848 618.024C146.168 618.024 146.488 617.992 146.808 617.928C147.128 617.864 147.464 617.704 147.816 617.448V620.568C147.4 620.856 146.872 621.08 146.232 621.24C145.624 621.4 145 621.48 144.36 621.48C143.208 621.48 142.328 621.32 141.72 621C141.144 620.648 140.744 620.168 140.52 619.56C140.328 618.952 140.2 618.264 140.136 617.496C139.656 618.36 139.048 619.096 138.312 619.704C137.576 620.28 136.712 620.712 135.72 621C134.728 621.32 133.608 621.48 132.36 621.48Z" fill="white"/>
<path d="M365.216 627.96C363.744 627.96 362.368 627.688 361.088 627.144C359.84 626.632 358.8 625.88 357.968 624.888C357.136 623.928 356.592 622.744 356.336 621.336C354.8 621.144 353.392 620.76 352.112 620.184C350.832 619.608 349.712 618.76 348.752 617.64C347.792 616.488 347.056 615.032 346.544 613.272C346.032 611.48 345.776 609.304 345.776 606.744V602.328C345.776 599.576 346.096 597.256 346.736 595.368C347.376 593.48 348.256 591.976 349.376 590.856C350.496 589.704 351.792 588.872 353.264 588.36C354.768 587.848 356.368 587.592 358.064 587.592H358.736C360.496 587.592 362.112 587.848 363.584 588.36C365.088 588.872 366.4 589.704 367.52 590.856C368.64 592.008 369.504 593.528 370.112 595.416C370.72 597.304 371.024 599.608 371.024 602.328V606.744C371.024 609.336 370.736 611.56 370.16 613.416C369.616 615.24 368.832 616.728 367.808 617.88C366.784 619.032 365.584 619.896 364.208 620.472C362.864 621.016 361.376 621.336 359.744 621.432L360.896 619.704C360.896 621.24 361.392 622.44 362.384 623.304C363.376 624.2 364.736 624.648 366.464 624.648C367.296 624.648 368.192 624.52 369.152 624.264C370.112 624.04 370.944 623.72 371.648 623.304V626.424C370.944 626.84 370.016 627.192 368.864 627.48C367.712 627.8 366.496 627.96 365.216 627.96ZM358.4 617.448C359.456 617.448 360.432 617.304 361.328 617.016C362.256 616.696 363.056 616.184 363.728 615.48C364.4 614.744 364.928 613.752 365.312 612.504C365.696 611.224 365.888 609.64 365.888 607.752V601.272C365.888 599.384 365.696 597.816 365.312 596.568C364.928 595.32 364.4 594.344 363.728 593.64C363.056 592.904 362.256 592.392 361.328 592.104C360.432 591.784 359.456 591.624 358.4 591.624C357.376 591.624 356.4 591.784 355.472 592.104C354.576 592.392 353.792 592.904 353.12 593.64C352.448 594.344 351.92 595.32 351.536 596.568C351.152 597.816 350.96 599.384 350.96 601.272V607.752C350.96 609.64 351.152 611.224 351.536 612.504C351.92 613.752 352.448 614.744 353.12 615.48C353.792 616.184 354.576 616.696 355.472 617.016C356.4 617.304 357.376 617.448 358.4 617.448ZM385.645 621.48C383.021 621.48 380.909 620.744 379.309 619.272C377.741 617.8 376.957 615.576 376.957 612.6V596.472H381.805V611.688C381.805 613.736 382.269 615.256 383.197 616.248C384.157 617.24 385.485 617.736 387.181 617.736C388.301 617.736 389.293 617.464 390.157 616.92C391.053 616.344 391.741 615.576 392.221 614.616C392.733 613.656 392.989 612.584 392.989 611.4V596.472H397.789V616.584C397.789 617.096 397.901 617.464 398.125 617.688C398.349 617.912 398.685 618.024 399.133 618.024C399.453 618.024 399.773 617.992 400.093 617.928C400.413 617.864 400.749 617.704 401.101 617.448V620.568C400.685 620.856 400.157 621.08 399.517 621.24C398.909 621.4 398.285 621.48 397.645 621.48C396.493 621.48 395.613 621.32 395.005 621C394.429 620.648 394.029 620.168 393.805 619.56C393.613 618.952 393.485 618.264 393.421 617.496C392.941 618.36 392.333 619.096 391.597 619.704C390.861 620.28 389.997 620.712 389.005 621C388.013 621.32 386.893 621.48 385.645 621.48ZM413.803 621.48C411.275 621.48 409.323 620.888 407.947 619.704C406.603 618.52 405.931 616.776 405.931 614.472C405.931 612.552 406.443 611.016 407.467 609.864C408.523 608.68 410.203 607.816 412.507 607.272C414.843 606.728 417.915 606.456 421.723 606.456V603.768C421.723 602.232 421.323 601.112 420.523 600.408C419.755 599.704 418.443 599.352 416.587 599.352C414.891 599.352 413.579 599.704 412.651 600.408C411.723 601.112 411.259 602.104 411.259 603.384V603.96H406.843C406.779 603.448 406.731 603.112 406.699 602.952C406.699 602.792 406.699 602.728 406.699 602.76C406.699 602.792 406.699 602.84 406.699 602.904C406.731 602.968 406.747 602.968 406.747 602.904C406.747 600.792 407.643 599.112 409.435 597.864C411.259 596.616 413.691 595.992 416.731 595.992C419.963 595.992 422.395 596.616 424.027 597.864C425.691 599.112 426.523 601.016 426.523 603.576V616.584C426.523 617.096 426.651 617.464 426.907 617.688C427.163 617.912 427.499 618.024 427.915 618.024C428.651 618.024 429.291 617.832 429.835 617.448V620.568C429.419 620.856 428.907 621.08 428.299 621.24C427.691 621.4 427.051 621.48 426.379 621.48C425.419 621.48 424.635 621.352 424.027 621.096C423.419 620.872 422.971 620.472 422.683 619.896C422.395 619.32 422.203 618.52 422.107 617.496C421.563 618.488 420.859 619.288 419.995 619.896C419.131 620.472 418.171 620.872 417.115 621.096C416.059 621.352 414.955 621.48 413.803 621.48ZM415.291 618.072C416.763 618.072 417.963 617.752 418.891 617.112C419.851 616.472 420.555 615.608 421.003 614.52C421.483 613.432 421.723 612.216 421.723 610.872V609.384C418.971 609.384 416.779 609.544 415.147 609.864C413.547 610.152 412.395 610.648 411.691 611.352C411.019 612.024 410.683 612.984 410.683 614.232C410.683 615.512 411.051 616.472 411.787 617.112C412.555 617.752 413.723 618.072 415.291 618.072ZM415.291 594.024V591.384C416.315 591.288 417.099 591.016 417.643 590.568C418.219 590.12 418.507 589.512 418.507 588.744C418.507 588.008 418.267 587.48 417.787 587.16C417.339 586.808 416.747 586.632 416.011 586.632C415.563 586.632 415.083 586.68 414.571 586.776C414.059 586.872 413.515 587.016 412.939 587.208V584.04C413.515 583.848 414.075 583.72 414.619 583.656C415.195 583.56 415.739 583.512 416.251 583.512C417.819 583.512 419.115 583.928 420.139 584.76C421.163 585.56 421.675 586.728 421.675 588.264C421.675 589.352 421.371 590.312 420.763 591.144C420.155 591.976 419.355 592.648 418.363 593.16C417.403 593.672 416.379 593.96 415.291 594.024Z" fill="white"/>
</svg>
