<svg width="600" height="600" viewBox="0 0 600 600" fill="none" xmlns="http://www.w3.org/2000/svg">
<path d="M258.856 313.861V403.362C258.856 426.701 254.201 443.271 245.704 453.889C237.324 464.392 224.405 469.876 206.132 469.876C187.859 469.876 174.94 464.392 166.56 454.006C157.947 443.387 153.408 426.817 153.408 403.362V313.861H125.242V402.546C125.242 432.535 131.993 456.223 145.726 472.443C159.693 488.897 180.178 496.948 206.132 496.948C232.087 496.948 252.688 488.78 266.654 472.443C280.388 456.107 287.022 432.418 287.022 402.546V313.861H258.856Z" fill="#0000FF"/>
<path d="M478.366 367.772L477.9 366.839C473.594 357.737 468.124 349.685 461.257 342.684L483.371 313.744L462.653 297.991L440.19 326.93C434.487 323.663 428.319 321.213 421.801 319.346C414.003 317.128 405.972 315.962 397.708 315.962C385.138 315.962 373.383 318.295 362.443 322.963C351.735 327.397 342.424 333.698 334.393 341.75C326.595 349.568 320.543 358.554 316.003 368.822C311.464 378.974 309.253 389.593 309.253 400.795C309.253 411.998 312.046 425.767 317.633 436.853C322.638 446.188 328.923 454.24 336.255 461.241L314.025 490.647L335.324 505L357.787 475.827C363.141 478.511 368.844 480.612 374.896 482.245C382.229 483.996 389.794 484.929 397.476 484.929C413.421 484.929 427.969 481.195 441.238 473.494C454.506 465.909 465.098 455.757 472.896 443.154C480.926 430.318 485 416.199 485 400.679C485 385.159 482.672 377.807 478.017 367.655H478.366V367.772ZM397.825 458.907C392.238 458.907 387.117 458.324 382.229 457.157C379.435 456.457 376.758 455.523 374.198 454.59L444.613 364.505C447.988 368.822 450.898 373.607 453.109 378.974C456.019 385.859 457.532 393.094 457.532 400.912C457.532 412.348 454.739 422.383 449.385 431.018C443.915 439.653 436.699 446.538 427.62 451.672C418.658 456.573 408.765 459.024 397.941 459.024H397.825V458.907ZM352.782 440.003C348.592 435.569 345.217 430.318 342.656 424.484C339.398 417.132 337.652 409.197 337.652 400.679C337.652 392.16 340.329 379.908 345.45 371.389C350.571 362.871 357.321 356.103 365.934 351.085L366.749 350.619C375.944 345.601 386.186 343.034 397.592 343.034C408.998 343.034 408.882 343.734 414.119 345.134C417.494 346.068 420.753 347.118 423.663 348.518L352.55 440.12H352.782V440.003Z" fill="#0000FF"/>
<path d="M456.368 120.505C442.518 104.052 421.917 96 395.846 96C369.775 96 349.407 104.168 335.44 120.505C321.59 136.842 314.956 160.53 314.956 190.403V279.087H343.122V189.586C343.122 166.131 347.777 149.561 356.274 138.942C364.654 128.557 377.457 123.072 395.846 123.072C414.235 123.072 427.038 128.673 435.418 139.059C444.031 149.678 448.57 166.248 448.57 189.586V279.087H476.736V190.403C476.736 160.53 470.102 136.725 456.368 120.505Z" fill="#0000FF"/>
<path d="M166.095 146.294C177.617 138.009 194.261 133.458 216.375 133.458H285.975V103.352H219.866C186.346 103.352 160.042 110.82 142.002 126.106C123.962 141.509 115 164.264 115 193.32C115 222.376 124.078 245.13 142.351 260.534C160.392 275.82 186.696 283.288 219.983 283.288H286.092V253.182H216.491C194.494 253.182 177.85 248.631 166.327 240.229C156.085 232.878 149.451 222.259 146.774 208.256H286.092V178.15H146.658C149.335 164.147 155.852 153.645 166.095 146.294Z" fill="#0000FF"/>
</svg>
