<svg width="600" height="600" viewBox="0 0 600 600" fill="none" xmlns="http://www.w3.org/2000/svg">
<path d="M524 461H487.429V444.561H524V461Z" fill="#0000FF"/>
<path d="M455.429 461H418.857V430.734H455.429V461Z" fill="#0000FF"/>
<path d="M386.858 461H350.286V420.838H386.858V461Z" fill="#0000FF"/>
<path d="M318.285 461H281.714V417.093H318.285V461Z" fill="#0000FF"/>
<path d="M249.714 461H213.143V411.942H249.714V461Z" fill="#0000FF"/>
<path d="M181.143 461H144.571V411.755H181.143V461Z" fill="#0000FF"/>
<path d="M112.571 461H76V404.426H112.571V461Z" fill="#0000FF"/>
<path d="M524 412.561H487.429V382.907H524V412.561Z" fill="#0000FF"/>
<path d="M455.429 398.734H418.857V366.115H455.429V398.734Z" fill="#0000FF"/>
<path d="M386.858 388.838H350.286V350.88H386.858V388.838Z" fill="#0000FF"/>
<path d="M318.285 385.093H281.714V341.798H318.285V385.093Z" fill="#0000FF"/>
<path d="M249.714 379.942H213.143V331.902H249.714V379.942Z" fill="#0000FF"/>
<path d="M181.143 379.755H144.571V324.005H181.143V379.755Z" fill="#0000FF"/>
<path d="M524 350.907H487.429V314.907H524V350.907Z" fill="#0000FF"/>
<path d="M112.571 372.426H76V306H112.571V372.426Z" fill="#0000FF"/>
<path d="M455.429 334.115H418.857V297.115H455.429V334.115Z" fill="#0000FF"/>
<path d="M386.858 318.88H350.286V282.88H386.858V318.88Z" fill="#0000FF"/>
<path d="M318.285 309.798H281.714V272.798H318.285V309.798Z" fill="#0000FF"/>
<path d="M249.714 299.902H213.143V263.902H249.714V299.902Z" fill="#0000FF"/>
<path d="M181.143 292.005H144.571V255.005H181.143V292.005Z" fill="#0000FF"/>
<path d="M112.571 274H76V238H112.571V274Z" fill="#0000FF"/>
<path d="M524 282.907H487.429V216.481H524V282.907Z" fill="#0000FF"/>
<path d="M455.429 265.115H418.857V209.365H455.429V265.115Z" fill="#0000FF"/>
<path d="M386.858 250.88H350.286V202.84H386.858V250.88Z" fill="#0000FF"/>
<path d="M318.285 240.798H281.714V197.503H318.285V240.798Z" fill="#0000FF"/>
<path d="M249.714 231.902H213.143V193.944H249.714V231.902Z" fill="#0000FF"/>
<path d="M181.143 223.005H144.571V190.386H181.143V223.005Z" fill="#0000FF"/>
<path d="M112.571 206H76V181H112.571V206Z" fill="#0000FF"/>
<path d="M524 184.481H487.429V140H524V184.481Z" fill="#0000FF"/>
<path d="M455.429 177.364H418.857V140H455.429V177.364Z" fill="#0000FF"/>
<path d="M386.858 170.84H350.286V140H386.858V170.84Z" fill="#0000FF"/>
<path d="M318.285 165.503H281.714V140H318.285V165.503Z" fill="#0000FF"/>
<path d="M249.714 161.944H213.143V140H249.714V161.944Z" fill="#0000FF"/>
<path d="M181.143 158.386H144.571V140H181.143V158.386Z" fill="#0000FF"/>
<path d="M112.571 149H76V140H112.571V149Z" fill="#0000FF"/>
</svg>
