<svg width="600" height="600" viewBox="0 0 600 600" fill="none" xmlns="http://www.w3.org/2000/svg">
<path d="M300.168 148.469C410.826 148.469 500.532 174.83 500.532 207.348C500.532 207.641 500.524 207.934 500.51 208.227H500.532V394.531H500.51C498.91 426.644 409.827 452.531 300.168 452.531C190.508 452.531 101.426 426.644 99.8262 394.531H99.8027V208.227H99.8262C99.8116 207.934 99.8027 207.641 99.8027 207.348C99.8031 174.83 189.51 148.469 300.168 148.469ZM300.168 347.076C196.304 347.076 112.105 367.929 112.105 393.652C112.106 419.376 196.305 440.229 300.168 440.229C404.031 440.228 488.229 419.375 488.229 393.652C488.229 367.929 404.032 347.076 300.168 347.076ZM300.168 160.771C196.305 160.771 112.106 181.625 112.105 207.348C112.105 233.071 196.304 253.924 300.168 253.924C404.032 253.924 488.229 233.071 488.229 207.348C488.229 181.625 404.031 160.772 300.168 160.771Z" fill="#0000FF"/>
</svg>
