<svg width="600" height="600" viewBox="0 0 600 600" fill="none" xmlns="http://www.w3.org/2000/svg">
<path d="M151.1 375.1C149.1 377.2 147.4 379.7 147.4 382.2C147.4 388 156.4 396.8 181.4 404.8C190 399 203.4 394 220.1 390.2C193.4 386.7 169.6 381.6 151 375L151.1 375.1Z" fill="#0000FF"/>
<path d="M385.6 391.9C399 395.4 410 399.7 417.3 404.6C441.9 396.7 450.8 387.9 450.8 382.2C450.8 376.5 449.2 377.3 447.3 375.3C419.6 385.6 407.8 389.7 385.6 391.9Z" fill="#0000FF"/>
<path d="M475 170.6C428.2 157.3 365.9 150 299.5 150C233.1 150 170.8 157.3 124 170.6C80.8 182.9 55 199.5 55 215.1C55 230.7 65.8 235.9 85.6 245.5C121.6 220.5 204.7 204.4 299.5 204.4C394.3 204.4 477.4 220.4 513.4 245.5C533.2 235.9 544 225.1 544 215.1C544 199.5 518.2 182.8 475 170.6Z" fill="#0000FF"/>
<path d="M299.1 431.6C255.9 431.6 214.2 426.7 184 418.1C182.7 419.5 181.6 421.1 181.6 422.7C181.6 427.5 191.5 435.1 213.5 441.2C236.4 447.5 266.9 451 299.5 451C332.1 451 362.6 447.5 385.5 441.2C407.5 435.1 417.4 427.5 417.4 422.7C417.4 417.9 416.2 419.3 414.9 418C384.7 426.7 342.8 431.7 299.2 431.7L299.1 431.6Z" fill="#0000FF"/>
<path d="M511.8 259.5C482.5 272.3 440.9 281.8 393 287.3C426.1 292.6 453.4 300.6 470.6 310.6C502 300.2 520.7 286.8 520.7 274.7C520.7 262.6 517.7 264.7 511.9 259.6L511.8 259.5Z" fill="#0000FF"/>
<path d="M206 287.2C158.1 281.8 116.5 272.2 87.2 259.4C81.3 264.5 78.4 269.6 78.4 274.5C78.4 286.6 97.1 300 128.5 310.4C145.6 300.4 173 292.4 206.1 287.1L206 287.2Z" fill="#0000FF"/>
<path d="M212 339.8C181.2 336.2 153.1 330.7 130.1 323.6C124.9 327.2 119.6 332.3 119.6 337.7C119.6 343.1 122.5 350.9 148.8 361.4C161.9 352.2 184.1 344.8 212 339.8Z" fill="#0000FF"/>
<path d="M468.9 323.6C445.6 330.8 417.2 336.3 386 339.9C414.2 345 436.8 352.5 449.7 361.6C476.5 351.1 479.5 341.4 479.5 337.7C479.5 332.3 474.2 327.3 469 323.6H468.9Z" fill="#0000FF"/>
</svg>
