<svg width="600" height="600" viewBox="0 0 600 600" fill="none" xmlns="http://www.w3.org/2000/svg">
<path d="M452.281 505C478.394 505 503.5 500.693 526.929 492.75C509.231 414.283 451.832 350.857 376.945 324.69C380.773 307.962 382.796 290.546 382.796 272.657C382.796 201.945 351.203 138.614 301.367 96C251.531 138.614 219.939 201.945 219.938 272.657C219.938 290.299 221.904 307.483 225.63 323.999C149.982 349.65 91.8302 413.207 73.791 492.054C97.7926 500.44 123.591 505 150.453 505C208.059 505 260.766 484.034 301.364 449.318C263.961 417.336 236.836 373.682 225.63 323.997C249.059 316.053 274.166 311.743 300.28 311.743C303.638 311.743 306.98 311.814 310.303 311.955C311.134 311.99 311.963 312.03 312.792 312.074C314.449 312.162 316.101 312.268 317.749 312.391C318.573 312.452 319.395 312.517 320.217 312.587C339.931 314.263 358.943 318.4 376.945 324.69C365.644 374.088 338.597 417.483 301.368 449.317C341.967 484.034 394.675 505 452.281 505Z" fill="#0000FF"/>
</svg>
