<svg width="600" height="600" viewBox="0 0 600 600" fill="none" xmlns="http://www.w3.org/2000/svg">
<path fill-rule="evenodd" clip-rule="evenodd" d="M353.843 170.01L442.129 157.871L429.99 246.157L501 300L429.99 353.843L442.129 442.129L353.843 429.99L300 501L246.157 429.99L157.871 442.129L170.01 353.843L99 300L170.01 246.157L157.871 157.871L246.157 170.01L300 99L353.843 170.01ZM280.894 253.873L207.573 207.573L253.873 280.894L169.288 300L253.873 319.106L207.573 392.427L280.894 346.127L300 430.712L319.106 346.127L392.427 392.427L346.127 319.106L430.712 300L346.127 280.894L392.427 207.573L319.106 253.873L300 169.288L280.894 253.873Z" fill="#0000FF"/>
</svg>
