<svg width="600" height="600" viewBox="0 0 600 600" fill="none" xmlns="http://www.w3.org/2000/svg">
<path d="M245.338 163.963H278.89V278.983H163.936V245.412H212.8L224.622 246.426L207.283 231.105L118 141.77L141.756 118L231.152 207.448L246.351 224.684L245.338 212.63V163.963Z" fill="#0000FF"/>
<path d="M392.717 369.895L482 459.117L458.244 483L368.848 393.552L353.649 376.316L354.662 388.37V437.037H321.11V321.904H436.064V355.588H387.2L375.378 354.574L392.717 369.895Z" fill="#0000FF"/>
<path d="M436.064 278.983H321.11V163.963H354.662V212.855L353.649 224.684L368.961 207.335L458.244 118L482 141.77L392.604 231.218L375.378 246.426L387.425 245.412H436.064V278.983Z" fill="#0000FF"/>
<path d="M163.936 321.904H278.89V437.037H245.338V388.145L246.351 376.316L231.039 393.665L141.756 483L118 459.117L207.396 369.782L224.622 354.574L212.575 355.588H163.936V321.904Z" fill="#0000FF"/>
</svg>
