<svg width="600" height="600" viewBox="0 0 600 600" fill="none" xmlns="http://www.w3.org/2000/svg">
<path d="M346.849 194.215C320.263 220.801 277.159 220.801 250.573 194.215C223.987 167.629 223.987 124.525 250.573 97.9394C277.159 71.3535 320.263 71.3535 346.849 97.9394C373.435 124.525 373.435 167.629 346.849 194.215Z" fill="#0000FF"/>
<path d="M501.061 348.427C474.475 375.013 431.371 375.013 404.785 348.427C378.199 321.841 378.199 278.737 404.785 252.151C431.371 225.565 474.475 225.565 501.061 252.151C527.646 278.737 527.646 321.841 501.061 348.427Z" fill="#0000FF"/>
<path d="M193.915 347.149C167.564 373.5 124.651 373.309 98.0648 346.723C71.479 320.137 71.2883 277.224 97.6388 250.873C123.989 224.523 166.903 224.713 193.489 251.299C220.075 277.885 220.265 320.799 193.915 347.149Z" fill="#0000FF"/>
<path d="M348.127 501.361C321.776 527.712 278.863 527.521 252.277 500.935C225.691 474.349 225.5 431.436 251.851 405.085C278.201 378.735 321.115 378.925 347.701 405.511C374.287 432.097 374.477 475.011 348.127 501.361Z" fill="#0000FF"/>
</svg>
