<svg width="600" height="600" viewBox="0 0 600 600" fill="none" xmlns="http://www.w3.org/2000/svg">
<path d="M178.017 511C164.8 511 154.887 507.241 148.278 499.722C141.67 492.516 138.365 483.431 138.365 472.465V442.86C138.365 434.401 139.152 427.039 140.725 420.773C142.614 414.507 144.817 408.868 147.334 403.855C149.852 398.843 152.684 394.457 155.831 390.697C158.978 386.624 161.967 382.865 164.8 379.419C170.149 373.153 173.768 367.827 175.657 363.441C177.859 358.742 178.961 353.886 178.961 348.873C178.961 336.968 173.454 328.353 162.439 323.027C151.425 317.388 135.218 314.568 113.819 314.568H79.66C78.1909 314.568 77 313.377 77 311.907V288.093C77 286.623 78.1909 285.432 79.66 285.432H113.819C135.218 285.432 151.425 282.769 162.439 277.443C173.454 271.804 178.961 263.032 178.961 251.127C178.961 246.114 177.859 241.415 175.657 237.029C173.768 232.33 170.149 226.847 164.8 220.581C161.967 217.135 158.978 213.532 155.831 209.773C152.684 205.7 149.852 201.314 147.334 196.615C144.817 191.602 142.614 185.963 140.725 179.697C139.152 173.118 138.365 165.599 138.365 157.14V127.535C138.365 116.569 141.67 107.484 148.278 100.278C154.887 92.7595 164.8 89 178.017 89H258.436C259.905 89 261.096 90.1914 261.096 91.6611V115.475C261.096 116.944 259.905 118.136 258.436 118.136H173.596C172.127 118.136 170.936 119.327 170.936 120.797V154.321C170.936 167.166 172.824 177.034 176.601 183.927C180.377 190.819 184.783 197.555 189.818 204.134C195.168 211.026 200.203 218.232 204.923 225.751C209.643 232.956 212.004 241.572 212.004 251.597C212.004 264.755 207.283 275.407 197.842 283.552C188.894 291.539 176.617 296.665 161.012 298.929C160.479 299.006 160.079 299.462 160.079 300C160.079 300.538 160.479 300.994 161.012 301.071C176.617 303.335 188.894 308.461 197.842 316.448C207.283 324.593 212.004 335.245 212.004 348.403C212.004 358.428 209.643 367.2 204.923 374.719C200.203 381.925 195.168 388.974 189.818 395.866C184.783 402.445 180.377 409.181 176.601 416.074C172.824 422.966 170.936 432.834 170.936 445.679V479.203C170.936 480.673 172.127 481.864 173.596 481.864H258.436C259.905 481.864 261.096 483.056 261.096 484.525V508.339C261.096 509.809 259.905 511 258.436 511H178.017Z" fill="#0000FF"/>
<path d="M420.983 89C434.2 89 444.113 92.7595 450.722 100.278C457.33 107.484 460.635 116.569 460.635 127.535V157.14C460.635 165.599 459.691 173.118 457.802 179.697C456.229 185.963 454.183 191.602 451.666 196.615C449.148 201.314 446.316 205.7 443.169 209.773C440.022 213.532 437.033 217.135 434.2 220.581C428.851 226.847 425.074 232.33 422.871 237.029C420.983 241.415 420.039 246.114 420.039 251.127C420.039 263.032 425.546 271.804 436.561 277.443C447.575 282.769 463.782 285.432 485.181 285.432H519.34C520.809 285.432 522 286.623 522 288.093V311.907C522 313.377 520.809 314.568 519.34 314.568H485.181C463.782 314.568 447.575 317.388 436.561 323.027C425.546 328.353 420.039 336.968 420.039 348.873C420.039 353.886 420.983 358.742 422.871 363.441C425.074 367.827 428.851 373.153 434.2 379.419C437.033 382.865 440.022 386.624 443.169 390.697C446.316 394.457 449.148 398.843 451.666 403.855C454.183 408.868 456.229 414.507 457.802 420.773C459.691 427.039 460.635 434.401 460.635 442.86V472.465C460.635 483.431 457.33 492.516 450.722 499.722C444.113 507.241 434.2 511 420.983 511H340.564C339.095 511 337.904 509.809 337.904 508.339V484.525C337.904 483.056 339.095 481.864 340.564 481.864H425.404C426.873 481.864 428.064 480.673 428.064 479.203V445.679C428.064 432.834 426.176 422.966 422.399 416.074C418.623 409.181 414.217 402.445 409.182 395.866C403.832 388.974 398.797 381.925 394.077 374.719C389.357 367.2 386.996 358.428 386.996 348.403C386.996 335.245 391.559 324.593 400.686 316.448C409.943 308.461 422.377 303.335 437.989 301.071C438.521 300.994 438.921 300.538 438.921 300C438.921 299.462 438.521 299.006 437.989 298.929C422.377 296.665 409.943 291.539 400.686 283.552C391.559 275.407 386.996 264.755 386.996 251.597C386.996 241.572 389.357 232.956 394.077 225.751C398.797 218.232 403.832 211.026 409.182 204.134C414.217 197.555 418.623 190.819 422.399 183.927C426.176 177.034 428.064 167.166 428.064 154.321V120.797C428.064 119.327 426.873 118.136 425.404 118.136H340.564C339.095 118.136 337.904 116.944 337.904 115.475V91.6611C337.904 90.1914 339.095 89 340.564 89H420.983Z" fill="#0000FF"/>
</svg>
