<svg width="370" height="82" viewBox="0 0 370 82" fill="none" xmlns="http://www.w3.org/2000/svg">
<path d="M101.023 16.6845C102.067 16.5946 102.943 16.3476 103.64 15.9547C104.347 15.5505 104.852 14.9442 105.167 14.1245C105.481 13.3049 105.582 12.2158 105.47 10.8685L105.066 6.10791C105.032 5.70371 105.01 5.34442 105.021 5.04127C105.021 4.73812 105.043 4.47988 105.077 4.26655C105.099 4.19919 105.212 4.12059 105.425 4.042C105.638 3.9634 105.863 3.88481 106.11 3.80621C106.357 3.72762 106.514 3.69394 106.593 3.68271C106.649 3.68271 106.66 3.59289 106.649 3.44692C106.649 3.3571 106.615 3.25605 106.582 3.155C106.492 3.155 106.189 3.21114 105.683 3.28974C105.167 3.36833 104.74 3.42447 104.392 3.45815C104.156 3.48061 103.875 3.49184 103.561 3.50306C103.235 3.50306 102.943 3.51429 102.663 3.51429C102.382 3.51429 102.191 3.51429 102.067 3.53675C102.023 3.59289 102 3.69394 102.011 3.8399C102.023 3.99709 102.056 4.07568 102.112 4.06445C102.236 4.06445 102.404 4.06445 102.651 4.08691C102.887 4.10936 103.112 4.15427 103.336 4.19919C103.561 4.2441 103.673 4.31146 103.707 4.39006C103.83 4.70443 103.92 5.27705 103.988 6.09668L104.403 10.992C104.65 13.9337 103.662 15.4943 101.427 15.6852C100.282 15.7862 99.3499 15.4157 98.6537 14.5961C97.9575 13.7765 97.542 12.62 97.4185 11.1492L97.0479 6.78157C96.9806 6.00686 96.9918 5.40056 97.0704 4.94022C97.0928 4.87285 97.1827 4.80548 97.3511 4.72689C97.5196 4.65952 97.6992 4.59216 97.8901 4.52479C98.081 4.45742 98.2158 4.42374 98.2944 4.42374C98.3505 4.42374 98.3618 4.32269 98.3505 4.12059C98.3505 4.042 98.3281 3.95217 98.2832 3.85112C97.6319 3.92972 97.1153 3.99709 96.7447 4.05322C96.3742 4.10936 96.1271 4.13182 96.0261 4.14305L93.6679 4.2441C93.623 4.30023 93.6005 4.41251 93.6117 4.5697C93.623 4.73812 93.6567 4.81671 93.7128 4.81671C93.8251 4.81671 93.9936 4.81671 94.1844 4.83917C94.3866 4.86162 94.5662 4.89531 94.7459 4.94022C94.9256 4.98513 95.0267 5.04127 95.0603 5.11986C95.1277 5.28828 95.1839 5.51283 95.2288 5.80476C95.2737 6.09668 95.3074 6.44474 95.3411 6.84894L95.7116 11.2951C95.8801 13.3274 96.4303 14.7757 97.3399 15.6178C98.2495 16.4599 99.4847 16.8192 101.046 16.6845H101.023ZM118.17 14.3154C118.17 14.4165 118.114 14.5175 117.979 14.6186C117.845 14.7084 117.699 14.787 117.519 14.8431C117.339 14.8992 117.193 14.9329 117.059 14.9442C117.002 14.9442 116.991 15.0228 117.002 15.1799C117.002 15.3484 117.047 15.4606 117.103 15.5055L119.956 15.2024L122.022 15.1575C122.044 15.0789 122.056 14.9891 122.044 14.8992C122.033 14.6859 121.988 14.5849 121.921 14.5961C121.55 14.6186 121.18 14.5849 120.809 14.4726C120.439 14.3715 120.147 14.1919 119.944 13.9449L115.778 8.47696L119.125 3.39079C119.203 3.26728 119.372 3.155 119.619 3.05395C119.866 2.9529 120.124 2.86308 120.394 2.80694C120.663 2.7508 120.854 2.70589 120.966 2.69466C121.011 2.69466 121.023 2.60484 121.023 2.44765C121.023 2.27924 121 2.17819 120.966 2.12205C120.315 2.18941 119.81 2.25678 119.439 2.30169C119.08 2.3466 118.855 2.36906 118.777 2.38029C118.552 2.39151 118.238 2.40274 117.822 2.41397C117.407 2.41397 116.89 2.43643 116.273 2.45888C116.228 2.51502 116.205 2.61607 116.216 2.77326C116.228 2.94168 116.261 3.0315 116.317 3.02027C116.699 2.99781 117.025 3.0315 117.306 3.14377C117.586 3.25605 117.721 3.37956 117.732 3.52552C117.755 3.85112 117.654 4.1655 117.44 4.46865C117.227 4.7718 116.946 5.176 116.621 5.69248C116.475 5.89458 116.362 6.07422 116.273 6.19773C116.183 6.33246 116.093 6.45597 116.014 6.57947C115.936 6.70298 115.812 6.88262 115.655 7.1184L115.228 7.75839L112.735 4.47988C112.567 4.25532 112.466 4.06445 112.455 3.90726C112.443 3.68271 112.567 3.51429 112.836 3.40201C113.106 3.28974 113.353 3.22237 113.589 3.19991C113.634 3.19991 113.645 3.11009 113.645 2.9529C113.645 2.78449 113.622 2.68344 113.589 2.6273C112.937 2.69466 112.398 2.76203 111.983 2.81817C111.567 2.87431 111.264 2.89676 111.085 2.89676L108.625 2.97536C108.625 2.97536 108.558 3.13255 108.569 3.28974C108.58 3.45815 108.614 3.54797 108.67 3.53675C109.063 3.51429 109.434 3.59289 109.793 3.77253C110.265 3.98586 110.725 4.41251 111.186 5.03004L114.229 9.03835L110.411 14.8207C110.231 15.034 109.973 15.1912 109.636 15.3034C109.299 15.4157 108.996 15.4719 108.726 15.4943C108.67 15.4943 108.659 15.6066 108.67 15.8087C108.67 15.8648 108.67 15.9097 108.693 15.9434C108.693 15.9771 108.715 16.022 108.726 16.0557C109.378 15.9883 109.905 15.921 110.31 15.8761C110.714 15.8312 110.983 15.7975 111.129 15.7862C111.264 15.7862 111.511 15.7638 111.882 15.7638C112.252 15.7638 112.746 15.7413 113.353 15.7301C113.375 15.674 113.387 15.5954 113.375 15.4719C113.364 15.2585 113.33 15.1575 113.274 15.1687C112.87 15.2024 112.544 15.1687 112.286 15.0452C112.039 14.9329 111.904 14.8207 111.893 14.6859C111.871 14.4389 112.836 12.7884 114.779 9.75693L118.036 14.0459C118.103 14.147 118.148 14.2256 118.148 14.2705L118.17 14.3154ZM134.385 13.2263C134.442 12.9568 134.498 12.6537 134.565 12.3056C134.621 11.9576 134.666 11.632 134.711 11.34C134.745 11.0481 134.767 10.8685 134.756 10.7899L134.655 10.7337C134.588 10.7001 134.498 10.6776 134.385 10.6552C134.273 10.6439 134.183 10.6327 134.105 10.6439C134.037 10.6439 133.981 10.7674 133.925 10.992C133.869 11.2165 133.79 11.486 133.689 11.7892C133.588 12.0923 133.442 12.373 133.24 12.5976C132.577 13.3947 131.601 13.8326 130.298 13.9112C129.209 13.9673 128.254 13.7316 127.434 13.1926C126.615 12.6537 125.986 11.9576 125.57 11.0818C125.155 10.2397 124.919 9.27414 124.852 8.18504C124.807 7.47769 124.897 6.7928 125.088 6.11913C125.29 5.44547 125.582 4.83917 125.975 4.28901C126.368 3.73885 126.839 3.30096 127.39 2.96413C127.94 2.6273 128.524 2.43643 129.164 2.40274C130.017 2.35783 130.736 2.44765 131.331 2.67221C131.926 2.89676 132.398 3.2336 132.735 3.67148C132.937 3.95217 133.072 4.17673 133.139 4.34515C133.206 4.51356 133.262 4.69321 133.319 4.86162C133.364 4.92899 133.453 4.95145 133.577 4.94022C133.858 4.92899 133.981 4.81671 133.97 4.62584L133.846 1.79644C133.027 1.67294 132.218 1.59434 131.41 1.56066C130.612 1.52698 129.815 1.52698 129.051 1.57189C128.153 1.62803 127.322 1.85258 126.559 2.24555C125.795 2.63853 125.144 3.16623 124.593 3.82867C124.043 4.47988 123.616 5.23214 123.336 6.06299C123.055 6.90508 122.943 7.78084 122.988 8.71275C123.033 9.58851 123.246 10.4081 123.605 11.1716C123.976 11.9351 124.459 12.5863 125.054 13.1477C125.66 13.7091 126.345 14.1358 127.12 14.4277C127.895 14.7308 128.715 14.8543 129.568 14.7982C131.724 14.6747 133.274 14.3042 134.206 13.6754C134.239 13.6417 134.296 13.4958 134.352 13.2375L134.385 13.2263ZM148.388 13.1926C148.197 13.1477 148.007 13.0691 147.827 12.9793C147.647 12.8895 147.524 12.7772 147.468 12.6537C147.4 12.4853 147.299 12.2832 147.198 12.0586C147.086 11.8228 146.973 11.5646 146.839 11.2727L142.471 1.06664L142.291 1.0105C142.077 1.0105 141.932 1.07787 141.842 1.19014C141.752 1.30242 141.673 1.44838 141.583 1.63925C141.527 1.78521 141.482 1.88626 141.471 1.95363C141.46 2.021 141.437 2.08836 141.426 2.16696C141.415 2.24555 141.37 2.38029 141.291 2.58239L138.248 11.5085C138.102 11.9576 137.956 12.3393 137.81 12.6537C137.676 12.9568 137.541 13.2151 137.395 13.3947C137.305 13.5182 137.148 13.6193 136.901 13.6866C136.654 13.7652 136.452 13.7989 136.294 13.8102C136.238 13.8102 136.216 13.9 136.227 14.0908C136.227 14.2368 136.261 14.3266 136.317 14.3828C136.62 14.3379 136.934 14.3042 137.283 14.248C137.631 14.2031 137.979 14.1807 138.349 14.1919H140.382C140.382 14.1919 140.416 14.0235 140.393 13.8663C140.371 13.7091 140.348 13.6305 140.314 13.6305C140.191 13.6305 140 13.6193 139.742 13.5631C139.484 13.507 139.281 13.4509 139.158 13.361C139.046 13.2824 138.989 13.1589 138.978 12.9793C138.978 12.8446 138.978 12.6761 139.023 12.4516C139.068 12.227 139.135 11.9463 139.259 11.6207L140.011 9.4201L140.101 9.35273C140.595 9.30782 141.056 9.26291 141.46 9.22922C141.875 9.19554 142.246 9.16186 142.583 9.15063C143.066 9.12817 143.571 9.12817 144.076 9.15063C144.121 9.15063 144.155 9.17309 144.2 9.22922L145.188 11.632C145.244 11.7555 145.3 11.9351 145.345 12.1709C145.39 12.3955 145.424 12.5976 145.435 12.766C145.435 12.8221 145.435 12.867 145.435 12.9232C145.435 12.9793 145.424 13.0242 145.413 13.0803C145.379 13.1814 145.244 13.2824 145.008 13.3498C144.773 13.4284 144.582 13.4621 144.424 13.4733C144.368 13.4733 144.346 13.5631 144.346 13.7203C144.346 13.8887 144.379 13.9898 144.424 14.0459L146.704 13.8551C146.771 13.8551 146.985 13.8551 147.344 13.8551C147.703 13.8551 148.209 13.8551 148.871 13.8551C148.871 13.8102 148.894 13.7765 148.894 13.7428C148.894 13.7091 148.894 13.6754 148.894 13.653C148.894 13.406 148.849 13.2824 148.804 13.2824C148.703 13.2824 148.546 13.26 148.355 13.2151L148.388 13.1926ZM143.683 8.09522C143.077 8.16259 142.493 8.2075 141.898 8.22995C141.763 8.22995 141.583 8.22995 141.359 8.24118C141.123 8.24118 140.842 8.24118 140.505 8.24118C140.483 8.24118 140.46 8.21873 140.46 8.16259L141.965 3.71639L143.739 7.98294L143.683 8.08399V8.09522ZM162.885 2.59361C162.885 2.59361 162.986 2.66098 163.031 2.79571C163.076 2.93045 163.11 3.08764 163.155 3.26728C163.189 3.44692 163.211 3.60411 163.222 3.75007L163.649 10.6552L163.671 11.6993C163.683 12.1597 163.615 12.4404 163.458 12.5526C163.346 12.62 163.155 12.6874 162.885 12.766C162.616 12.8333 162.425 12.8782 162.29 12.8782C162.234 12.8782 162.212 12.9681 162.223 13.1365C162.223 13.2937 162.257 13.3947 162.313 13.4509L164.671 13.2937C164.806 13.2937 165.064 13.2937 165.446 13.2937C165.827 13.2937 166.355 13.3161 167.007 13.3161C167.029 13.2151 167.04 13.114 167.04 13.0242C167.04 12.8446 167.007 12.7547 166.95 12.7547C166.861 12.7547 166.715 12.7435 166.501 12.7098C166.299 12.6761 166.108 12.6312 165.94 12.5639C165.771 12.5077 165.659 12.4291 165.614 12.3505C165.434 11.9127 165.322 11.3064 165.266 10.5541L164.873 2.58239C164.851 1.8189 164.918 1.38102 165.075 1.25751C165.187 1.16769 165.367 1.06664 165.603 0.976816C165.839 0.886994 166.03 0.842083 166.164 0.830855H166.209C166.277 0.830855 166.299 0.741033 166.299 0.550161C166.299 0.471566 166.277 0.370516 166.232 0.258239C165.906 0.291922 165.558 0.325605 165.187 0.348061C164.817 0.370516 164.435 0.392972 164.031 0.4042C163.896 0.4042 163.705 0.4042 163.436 0.4042C163.166 0.4042 162.818 0.392972 162.403 0.370516L161.684 2.7508C161.325 3.72762 160.909 4.8504 160.437 6.10791C159.966 7.36542 159.416 8.75766 158.82 10.2846C158.809 10.3408 158.775 10.3632 158.719 10.3632C158.697 10.3632 158.663 10.352 158.641 10.3295C155.979 4.12059 154.598 0.875766 154.486 0.595072C154.115 0.628755 153.79 0.662438 153.498 0.696122C153.206 0.718577 152.936 0.741033 152.678 0.75226C152.285 0.75226 151.892 0.75226 151.521 0.75226C151.14 0.741033 150.791 0.729805 150.477 0.718577C150.432 0.774716 150.398 0.875766 150.41 1.0105C150.41 1.19014 150.443 1.27997 150.499 1.27997C150.634 1.27997 150.814 1.27997 151.05 1.32488C151.286 1.36979 151.51 1.40347 151.712 1.45961C151.914 1.51575 152.038 1.58312 152.06 1.66171C152.116 1.83013 152.15 2.08836 152.161 2.44765C152.161 2.67221 152.161 3.17746 152.161 3.95217C152.161 4.73812 152.161 5.72616 152.161 6.93876C152.161 8.15136 152.161 9.52115 152.184 11.0369C152.184 11.9463 152.094 12.519 151.881 12.7547C151.802 12.8333 151.667 12.9119 151.476 12.9793C151.286 13.0467 151.083 13.1028 150.87 13.1477C150.657 13.1926 150.488 13.2151 150.365 13.2151C150.297 13.2151 150.275 13.3049 150.275 13.4958C150.275 13.6305 150.32 13.7203 150.376 13.7877L152.678 13.6305C152.779 13.6305 153.026 13.6305 153.408 13.6305C153.79 13.6305 154.306 13.653 154.958 13.653C154.98 13.5519 154.991 13.4509 154.991 13.3723C154.991 13.1702 154.957 13.0803 154.901 13.0803C154.823 13.0803 154.666 13.0691 154.441 13.0242C154.205 12.9793 153.992 12.9344 153.778 12.867C153.565 12.7997 153.43 12.7323 153.385 12.6761C153.307 12.5751 153.262 12.4067 153.251 12.1709C153.251 12.0249 153.251 11.5197 153.251 10.6327C153.251 9.75693 153.273 8.58924 153.284 7.14086C153.296 5.69248 153.296 4.042 153.284 2.20064L158.091 13.5182C158.192 13.5407 158.259 13.5519 158.27 13.5519C158.506 13.5519 158.742 13.26 158.978 12.6874L162.818 2.7508C162.852 2.66098 162.885 2.61607 162.908 2.61607L162.885 2.59361ZM168.747 0.898221C168.871 0.898221 169.028 0.909449 169.23 0.95436C169.432 0.988043 169.623 1.04418 169.803 1.10032C169.982 1.16769 170.083 1.23505 170.106 1.31365C170.162 1.48207 170.196 1.70662 170.229 1.99854C170.263 2.29046 170.274 2.61607 170.274 2.99781L170.398 10.4306C170.42 11.5197 170.375 12.1372 170.286 12.2832C170.252 12.3618 170.14 12.4291 169.96 12.4965C169.78 12.5526 169.601 12.6088 169.41 12.6537C169.219 12.6986 169.062 12.7211 168.927 12.7211C168.882 12.7211 168.871 12.8109 168.871 12.9793C168.871 13.1814 168.893 13.2937 168.938 13.3274L171.33 13.1926C171.532 13.1926 171.835 13.1926 172.262 13.2039C172.689 13.2151 173.228 13.2263 173.89 13.2488C173.913 13.1477 173.924 13.0467 173.924 12.9568C173.924 12.7772 173.89 12.6761 173.845 12.6874C173.744 12.6874 173.564 12.6649 173.329 12.6312C173.093 12.5863 172.868 12.519 172.666 12.4404C172.464 12.3618 172.329 12.2607 172.273 12.1484C172.161 11.879 172.105 11.3064 172.093 10.4418L171.981 3.42447C171.981 2.78449 171.981 2.26801 171.981 1.87504C171.992 1.48207 172.06 1.27997 172.172 1.25751C172.486 1.15646 172.947 1.11155 173.542 1.10032C174.395 1.08909 175.024 1.34733 175.44 1.88626C175.855 2.4252 176.069 3.155 176.08 4.08691C176.08 4.58093 175.99 5.0525 175.777 5.47915C175.563 5.90581 175.283 6.25387 174.923 6.5121C174.564 6.77034 174.171 6.90508 173.722 6.9163C173.25 6.9163 172.812 6.86017 172.397 6.72543C172.385 6.70298 172.363 6.72543 172.341 6.78157C172.307 6.9949 172.329 7.14086 172.408 7.23068C172.689 7.58997 173.194 7.76961 173.935 7.75839C174.586 7.75839 175.17 7.61243 175.664 7.35419C176.17 7.09595 176.574 6.77034 176.911 6.36614C177.236 5.96194 177.484 5.52406 177.652 5.06372C177.809 4.60338 177.888 4.1655 177.888 3.7613C177.888 3.12132 177.742 2.55993 177.472 2.07714C177.214 1.59434 176.866 1.22383 176.439 0.976816C176.024 0.718577 175.597 0.527705 175.148 0.4042C174.699 0.280694 174.261 0.224555 173.823 0.224555C173.643 0.224555 173.43 0.224555 173.194 0.247011C172.958 0.269466 172.711 0.269466 172.442 0.291922C172.172 0.314377 171.936 0.325605 171.7 0.336833C171.465 0.348061 171.251 0.359289 171.049 0.359289H168.691C168.691 0.359289 168.612 0.527705 168.612 0.696122C168.612 0.85331 168.646 0.931905 168.691 0.931905L168.747 0.898221ZM185.501 0.696122C185.782 0.774716 185.973 0.898221 186.063 1.04418C186.321 1.43715 186.602 2.07714 186.916 2.94167L190.779 13.1702C190.813 13.2488 190.88 13.2937 190.97 13.2937C191.262 13.2937 191.486 13.0803 191.666 12.6537L195.754 3.32342C195.933 2.91922 196.102 2.5487 196.27 2.2231C196.439 1.89749 196.596 1.59434 196.742 1.31365C196.944 0.95436 197.337 0.774716 197.932 0.785944C197.988 0.785944 198.011 0.696122 198.011 0.516477C198.011 0.426655 198.011 0.325605 197.977 0.224555L195.989 0.291922C195.9 0.291922 195.675 0.280694 195.327 0.247011C194.979 0.224555 194.496 0.190872 193.878 0.157189C193.822 0.213328 193.8 0.314377 193.8 0.471566C193.8 0.639983 193.822 0.729805 193.878 0.729805C194.024 0.729805 194.204 0.763488 194.417 0.808399C194.631 0.85331 194.822 0.943132 194.99 1.05541C195.158 1.16769 195.237 1.32488 195.237 1.52698C195.237 1.8189 195.102 2.26801 194.844 2.89676L191.778 9.95903C191.756 10.0264 191.7 10.0713 191.632 10.105C191.554 10.1387 191.509 10.1162 191.464 10.0489C191.363 9.80184 191.251 9.49869 191.116 9.15063C190.981 8.80257 190.835 8.39837 190.656 7.94926C189.072 3.88481 188.275 1.66171 188.286 1.27997C188.286 1.05541 188.421 0.898221 188.69 0.797171C188.96 0.696122 189.207 0.651211 189.465 0.651211C189.51 0.651211 189.533 0.572616 189.533 0.4042C189.533 0.235783 189.533 0.134733 189.51 0.0785944C188.859 0.0898221 188.32 0.112278 187.916 0.123505C187.511 0.134733 187.231 0.145961 187.073 0.134733C186.669 0.134733 186.265 0.112278 185.872 0.0785944C185.479 0.0449111 185.131 0.0224555 184.816 0C184.76 0.0561388 184.738 0.157189 184.738 0.314378C184.738 0.482794 184.76 0.572616 184.816 0.572616C184.985 0.572616 185.209 0.617527 185.501 0.696122ZM202.761 0.291922C202.379 0.30315 202.132 0.314378 202.031 0.314378L199.673 0.179644C199.673 0.179644 199.594 0.336833 199.594 0.494022C199.594 0.662438 199.617 0.75226 199.673 0.75226C199.785 0.75226 199.953 0.774716 200.144 0.819627C200.335 0.864538 200.526 0.909449 200.695 0.976816C200.863 1.03295 200.964 1.11155 200.986 1.19014C201.031 1.35856 201.065 1.59434 201.088 1.88626C201.099 2.17819 201.11 2.53748 201.099 2.94167L200.975 10.5653C200.975 10.9695 200.953 11.3176 200.93 11.6095C200.908 11.9014 200.863 12.1372 200.807 12.3169C200.784 12.3842 200.683 12.4516 200.504 12.5077C200.335 12.5751 200.144 12.62 199.953 12.6425C199.762 12.6761 199.594 12.6874 199.482 12.6874C199.426 12.6874 199.403 12.7772 199.403 12.9568C199.403 13.1028 199.426 13.2039 199.482 13.2488L201.84 13.1926C201.941 13.1926 202.188 13.2039 202.57 13.2375C202.952 13.2712 203.468 13.2937 204.119 13.3274C204.153 13.2263 204.164 13.1365 204.164 13.0579C204.164 12.867 204.142 12.766 204.086 12.766C204.007 12.766 203.872 12.7435 203.67 12.6986C203.479 12.6537 203.288 12.5976 203.12 12.5302C202.952 12.4628 202.851 12.4067 202.828 12.3505C202.716 11.8902 202.671 11.2839 202.682 10.5204L202.806 3.05395C202.817 2.27924 202.884 1.67294 203.008 1.22383C203.03 1.15646 203.131 1.10032 203.311 1.04418C203.479 0.988044 203.67 0.943132 203.861 0.898221C204.063 0.85331 204.198 0.830855 204.277 0.830855C204.333 0.830855 204.355 0.741033 204.355 0.561388C204.355 0.471566 204.355 0.370516 204.322 0.269466C203.67 0.280694 203.143 0.30315 202.772 0.314378L202.761 0.291922ZM209.947 13.3947C210.531 13.4172 211.194 13.4396 211.913 13.4733C212.631 13.507 213.26 13.5295 213.788 13.5519C214.316 13.5744 214.742 13.5856 215.079 13.5968C215.113 13.406 215.169 13.1477 215.27 12.8558C215.371 12.5526 215.461 12.2944 215.54 12.0586C215.596 11.9014 215.663 11.7106 215.753 11.4972C215.843 11.2727 215.921 11.0594 216.011 10.846C216.101 10.6327 216.169 10.4755 216.213 10.3745C216.135 10.2959 215.978 10.251 215.719 10.2397C215.562 10.2397 215.472 10.2734 215.439 10.352C215.281 10.846 215.079 11.2727 214.832 11.6207C214.585 11.98 214.361 12.2046 214.158 12.3056C213.709 12.519 212.878 12.6088 211.677 12.5751L210.734 12.5526C209.88 12.5302 209.442 12.4516 209.397 12.3281C209.285 11.98 209.24 11.385 209.262 10.5316L209.341 7.48892C209.341 7.36542 209.813 7.3205 210.756 7.34296C211.958 7.37664 212.654 7.44401 212.833 7.55629C212.912 7.61243 212.968 7.64611 213.002 7.67979C213.036 7.70225 213.08 7.81453 213.137 7.99417C213.159 8.08399 213.193 8.19627 213.226 8.331C213.26 8.46574 213.305 8.62293 213.35 8.80257C213.384 8.90362 213.485 8.95976 213.664 8.97099C213.822 8.97099 213.923 8.94853 213.979 8.90362L214.069 5.18723C214.001 5.11986 213.889 5.08618 213.732 5.08618C213.552 5.08618 213.451 5.13109 213.429 5.22091C213.372 5.40056 213.305 5.63634 213.226 5.91703C213.148 6.19773 213.047 6.34369 212.912 6.36614C212.699 6.41106 212.564 6.44474 212.485 6.47842C212.407 6.50088 212.294 6.51211 212.137 6.52333C211.98 6.52333 211.677 6.52333 211.228 6.5121L210.183 6.48965C209.622 6.47842 209.341 6.43351 209.341 6.35492L209.42 3.21114C209.42 2.81817 209.442 2.48134 209.476 2.21187C209.51 1.9424 209.532 1.71785 209.566 1.56066C209.577 1.39224 210.161 1.32488 211.306 1.34733L212.62 1.38102C213.238 1.39224 213.721 1.50452 214.069 1.71785C214.417 1.93118 214.686 2.40274 214.866 3.12132C214.866 3.21114 214.967 3.25605 215.135 3.26728C215.304 3.26728 215.427 3.24482 215.495 3.17746C215.495 3.09886 215.461 2.96413 215.416 2.76203C215.371 2.55993 215.326 2.31292 215.27 1.98731C215.203 1.68417 215.135 1.40347 215.091 1.14523C215.046 0.886994 215.012 0.673666 214.989 0.482794C214.619 0.482794 214.17 0.471566 213.619 0.471566C213.069 0.471566 212.44 0.471566 211.699 0.482794C210.981 0.482794 210.363 0.494022 209.846 0.494022C209.33 0.494022 208.926 0.494022 208.634 0.494022C208.184 0.494022 207.769 0.471566 207.387 0.449111C207.005 0.437883 206.635 0.415427 206.298 0.392972C206.242 0.449111 206.219 0.550161 206.208 0.729805C206.208 0.886994 206.231 0.965588 206.275 0.965588C206.399 0.965588 206.556 0.988044 206.758 1.03295C206.96 1.07787 207.151 1.134 207.32 1.20137C207.499 1.26874 207.601 1.34733 207.623 1.42593C207.668 1.59434 207.702 1.83013 207.713 2.11082C207.724 2.40274 207.724 2.73958 207.713 3.11009L207.533 10.5429C207.511 11.632 207.443 12.2495 207.354 12.3842C207.309 12.4628 207.208 12.5302 207.028 12.5976C206.848 12.6537 206.657 12.7098 206.466 12.7547C206.264 12.7997 206.107 12.8109 205.995 12.8109C205.95 12.8109 205.939 12.8895 205.927 13.0691C205.927 13.2375 205.939 13.3498 205.984 13.3835H208.364C208.825 13.3835 209.352 13.406 209.936 13.4284L209.947 13.3947ZM225.096 2.04345C225.163 1.85258 225.893 1.77399 227.263 1.83013C227.757 1.85258 228.15 1.90872 228.42 1.99854C228.689 2.08836 228.903 2.26801 229.037 2.52625C229.172 2.78449 229.296 3.155 229.397 3.66025C229.419 3.72762 229.487 3.7613 229.588 3.7613C229.812 3.7613 229.969 3.72762 230.059 3.6378L229.79 0.819627C229.498 0.875766 229.239 0.920677 229.015 0.95436C228.79 0.988043 228.588 0.999271 228.42 0.988044C228.004 0.976816 227.432 0.965588 226.702 0.965588C225.972 0.965588 225.107 0.943132 224.096 0.909449C223.614 0.886994 223.007 0.85331 222.289 0.808399C221.57 0.75226 220.739 0.707349 219.796 0.673666C219.627 0.673666 219.425 0.639983 219.212 0.595072C218.987 0.550161 218.74 0.482794 218.448 0.4042L217.976 3.19991C218.066 3.28974 218.224 3.34587 218.448 3.3571C218.549 3.3571 218.617 3.33465 218.65 3.26728C218.796 2.77326 218.953 2.40274 219.099 2.16696C219.257 1.91995 219.47 1.76276 219.751 1.68417C220.031 1.60557 220.413 1.58312 220.919 1.59434C222.244 1.63925 222.94 1.76276 223.03 1.96486C223.142 2.17819 223.176 2.85185 223.131 3.99708L222.872 11.1043C222.861 11.5085 222.839 11.8565 222.805 12.1484C222.771 12.4404 222.726 12.6649 222.67 12.8558C222.637 12.9232 222.536 12.9793 222.367 13.0467C222.199 13.1028 222.008 13.1477 221.806 13.1702C221.604 13.1926 221.446 13.2039 221.334 13.2039C221.278 13.2039 221.255 13.2937 221.244 13.4733C221.244 13.6193 221.267 13.7203 221.312 13.7765H223.67C223.771 13.7765 224.018 13.7765 224.4 13.8214C224.781 13.8551 225.298 13.9 225.949 13.9449C225.983 13.8438 225.994 13.754 225.994 13.6754C225.994 13.4733 225.983 13.3835 225.927 13.3723C225.848 13.3723 225.713 13.3498 225.511 13.2937C225.309 13.2375 225.13 13.1926 224.961 13.114C224.793 13.0467 224.703 12.9793 224.669 12.9232C224.568 12.4628 224.534 11.8453 224.557 11.093L224.815 3.99708C224.849 3.09886 224.927 2.43643 225.062 2.04345H225.096ZM244.028 1.75153C243.501 1.76276 243.074 1.75153 242.726 1.75153C242.49 1.7403 242.209 1.71785 241.895 1.68417C241.569 1.65048 241.277 1.6168 241.008 1.58312C240.738 1.54943 240.536 1.52698 240.424 1.52698C240.368 1.57189 240.334 1.67294 240.334 1.8189C240.334 1.97609 240.345 2.05468 240.401 2.05468C240.514 2.05468 240.693 2.08836 240.929 2.15573C241.165 2.21187 241.378 2.27924 241.592 2.35783C241.805 2.43643 241.917 2.51502 241.94 2.59361C242.018 2.93045 242.03 3.50306 241.985 4.32269L241.67 10.4306C241.659 10.745 241.625 11.0144 241.569 11.2278C239.728 8.36469 238.302 6.10791 237.28 4.4462C236.258 2.78449 235.629 1.72908 235.404 1.26874C235.225 1.26874 235 1.26874 234.731 1.26874C234.472 1.26874 234.169 1.24628 233.832 1.23505C233.675 1.23505 233.428 1.2126 233.091 1.19014C232.754 1.16769 232.339 1.134 231.822 1.10032C231.766 1.14523 231.732 1.25751 231.732 1.4147C231.732 1.58312 231.744 1.67294 231.8 1.67294C231.934 1.67294 232.114 1.70662 232.35 1.76276C232.586 1.8189 232.799 1.87504 233.001 1.9424C233.203 2.00977 233.316 2.08836 233.338 2.16696C233.417 2.48134 233.439 2.97536 233.406 3.64902L233.013 11.3625C232.968 12.2832 232.867 12.8895 232.721 13.1926C232.687 13.2712 232.575 13.3386 232.361 13.406C232.148 13.4621 231.923 13.5182 231.687 13.5519C231.452 13.5856 231.261 13.5968 231.137 13.5968C231.104 13.5968 231.07 13.6866 231.07 13.8663C231.07 14.0235 231.07 14.1245 231.115 14.1582H233.383C233.484 14.1807 233.731 14.2031 234.102 14.2368C234.472 14.2705 234.989 14.3266 235.64 14.3828C235.674 14.3154 235.685 14.2031 235.685 14.0459C235.685 13.8887 235.663 13.8102 235.629 13.8102C235.55 13.8102 235.393 13.7765 235.157 13.7203C234.921 13.6642 234.708 13.5968 234.506 13.507C234.304 13.4284 234.192 13.361 234.169 13.3049C234.091 12.9681 234.079 12.3618 234.124 11.4748L234.551 3.08764L241.625 14.2705C241.828 14.5849 242.041 14.7421 242.254 14.7533C242.445 14.7533 242.58 14.7533 242.636 14.6971C242.647 13.6754 242.681 12.7547 242.715 11.9463L243.096 4.49111C243.119 4.08691 243.153 3.72762 243.186 3.4357C243.22 3.14377 243.276 2.88554 243.343 2.67221C243.377 2.60484 243.501 2.5487 243.714 2.49256C243.939 2.43643 244.174 2.39151 244.421 2.3466C244.669 2.30169 244.837 2.29046 244.916 2.29046C244.972 2.29046 244.994 2.21187 245.005 2.05468C245.005 1.96486 245.005 1.86381 244.983 1.76276C244.893 1.76276 244.59 1.76276 244.073 1.77399L244.028 1.75153ZM249.261 14.7757C249.261 14.6186 249.25 14.54 249.205 14.54C249.093 14.54 248.902 14.495 248.644 14.4165C248.385 14.3379 248.206 14.248 248.093 14.1582C247.992 14.0684 247.947 13.9337 247.959 13.754C247.959 13.6193 248.004 13.4509 248.06 13.2263C248.116 13.0018 248.228 12.7323 248.374 12.4179L249.351 10.3183L249.452 10.2622C249.946 10.2622 250.407 10.2734 250.822 10.2846C251.238 10.2846 251.608 10.3071 251.956 10.3295C252.439 10.3632 252.933 10.4081 253.439 10.4867C253.484 10.4867 253.517 10.5204 253.551 10.5766L254.281 13.0691C254.326 13.2039 254.359 13.3835 254.382 13.6193C254.404 13.8551 254.416 14.0459 254.404 14.2256C254.404 14.2817 254.404 14.3266 254.382 14.3828C254.382 14.4389 254.359 14.4838 254.337 14.54C254.292 14.641 254.146 14.7196 253.91 14.7645C253.674 14.8094 253.472 14.8319 253.315 14.8207C253.259 14.8207 253.225 14.8992 253.214 15.0564C253.192 15.2249 253.214 15.3259 253.259 15.382L255.539 15.427C255.606 15.427 255.819 15.4494 256.179 15.4943C256.538 15.5392 257.043 15.5954 257.695 15.6627C257.706 15.6291 257.717 15.5841 257.728 15.5617C257.739 15.5392 257.739 15.5055 257.739 15.4719C257.751 15.2249 257.739 15.1013 257.683 15.0901C257.582 15.0901 257.436 15.0452 257.245 14.9778C257.054 14.9105 256.886 14.8207 256.706 14.7084C256.538 14.5961 256.426 14.4726 256.381 14.3379C256.325 14.1694 256.257 13.9561 256.179 13.7091C256.1 13.4621 256.01 13.1926 255.909 12.8895L252.653 2.27924L252.484 2.21187C252.271 2.20064 252.125 2.24555 252.024 2.33538C251.923 2.43643 251.822 2.57116 251.721 2.7508C251.642 2.88554 251.597 2.98659 251.575 3.04273C251.552 3.09886 251.53 3.16623 251.507 3.24482C251.485 3.32342 251.429 3.45815 251.339 3.64902L247.364 12.1934C247.161 12.6312 246.982 12.9905 246.813 13.2824C246.645 13.5744 246.476 13.8102 246.33 13.9786C246.229 14.0908 246.05 14.1694 245.803 14.2256C245.544 14.2705 245.342 14.2929 245.185 14.2817C245.129 14.2817 245.095 14.3715 245.095 14.5512C245.095 14.6971 245.095 14.7982 245.151 14.8543C245.455 14.8543 245.78 14.8431 246.128 14.8319C246.476 14.8319 246.836 14.8319 247.195 14.888L249.205 15.1126C249.239 15.0452 249.25 14.9329 249.261 14.7757ZM251.878 4.86162L253.192 9.29659L253.124 9.38641C252.518 9.38641 251.923 9.36396 251.339 9.33028C251.204 9.33028 251.024 9.30782 250.8 9.28536C250.575 9.26291 250.283 9.24045 249.946 9.19554C249.924 9.19554 249.913 9.16186 249.913 9.11695L251.878 4.8504V4.86162ZM261.445 15.8312C261.546 15.8312 261.793 15.8648 262.164 15.921C262.546 15.9659 263.051 16.0333 263.702 16.1118C263.736 16.0108 263.758 15.921 263.758 15.8424C263.77 15.6515 263.758 15.5505 263.702 15.5392C263.624 15.5392 263.466 15.4943 263.242 15.4382C263.017 15.3708 262.804 15.3034 262.602 15.2136C262.4 15.1238 262.276 15.0452 262.231 14.9778C262.164 14.8656 262.141 14.6971 262.153 14.4614C262.164 14.3154 262.22 13.8102 262.321 12.9344C262.422 12.0586 262.557 10.9022 262.725 9.46501C262.894 8.02785 263.073 6.3886 263.253 4.54725L266.824 16.3139C266.925 16.3476 266.981 16.3701 266.992 16.3701C267.228 16.3925 267.487 16.1231 267.79 15.5841L272.674 6.11913C272.719 6.02931 272.753 5.9844 272.787 5.9844C272.843 5.9844 272.877 6.06299 272.91 6.19773C272.944 6.33246 272.966 6.50088 272.978 6.68052C273 6.86017 273 7.01735 272.978 7.16332L272.663 14.0796L272.585 15.1126C272.551 15.5729 272.45 15.8424 272.281 15.9322C272.158 15.9883 271.956 16.0333 271.686 16.0782C271.417 16.1231 271.215 16.1343 271.08 16.1231C271.024 16.1231 270.99 16.2017 270.979 16.3701C270.968 16.5273 270.979 16.6283 271.035 16.6845L273.393 16.7743C273.528 16.7743 273.786 16.8192 274.168 16.8641C274.55 16.909 275.066 16.9764 275.718 17.055C275.751 16.9539 275.774 16.8529 275.785 16.7631C275.796 16.5834 275.785 16.4824 275.729 16.4824C275.639 16.4824 275.493 16.4487 275.291 16.3925C275.089 16.3364 274.909 16.269 274.741 16.1904C274.572 16.1118 274.482 16.0333 274.449 15.9547C274.314 15.4943 274.269 14.888 274.303 14.1245L274.763 6.15282C274.819 5.40056 274.943 4.96267 275.1 4.86162C275.224 4.78303 275.403 4.70443 275.65 4.63707C275.897 4.5697 276.088 4.54725 276.234 4.55847H276.268C276.335 4.55847 276.369 4.47988 276.391 4.30023C276.391 4.22164 276.391 4.12059 276.358 3.99708C276.032 3.99708 275.684 3.99709 275.313 3.97463C274.943 3.9634 274.561 3.92972 274.157 3.89604C274.022 3.89604 273.831 3.86235 273.562 3.82867C273.292 3.79499 272.955 3.75007 272.54 3.68271L271.563 5.97317C271.102 6.90508 270.575 7.98294 269.968 9.17309C269.362 10.3745 268.677 11.6993 267.913 13.1477C267.891 13.2039 267.857 13.2263 267.812 13.2151C267.79 13.2151 267.756 13.1926 267.734 13.1702C265.757 6.7142 264.724 3.33465 264.646 3.04273C264.275 3.04273 263.949 3.04273 263.646 3.04273C263.354 3.04273 263.073 3.0315 262.826 3.00904C262.433 2.97536 262.052 2.93045 261.67 2.87431C261.288 2.81817 260.951 2.77326 260.637 2.72835C260.58 2.77326 260.547 2.87431 260.536 3.02027C260.524 3.19991 260.536 3.30096 260.592 3.30096C260.726 3.30096 260.906 3.34587 261.131 3.40201C261.367 3.45815 261.58 3.52552 261.771 3.60411C261.973 3.68271 262.074 3.7613 262.096 3.8399C262.13 4.00831 262.141 4.27778 262.108 4.62584C262.085 4.8504 262.04 5.34442 261.95 6.11913C261.861 6.89385 261.748 7.88189 261.625 9.09449C261.501 10.3071 261.355 11.6544 261.209 13.1702C261.119 14.0684 260.962 14.6298 260.715 14.8431C260.625 14.9105 260.491 14.9778 260.289 15.0228C260.086 15.0677 259.884 15.1126 259.671 15.135C259.458 15.1575 259.289 15.1687 259.154 15.1575C259.087 15.1575 259.053 15.2361 259.031 15.427C259.031 15.5617 259.042 15.6627 259.109 15.7301L261.411 15.8199L261.445 15.8312Z" fill="#E0DBE0"/>
<path d="M324.369 81.3025C322.774 81.3025 321.316 80.9999 319.996 80.3949C318.694 79.7714 317.649 78.8546 316.86 77.6445C316.072 76.4159 315.678 74.9032 315.678 73.1063C315.678 71.9511 315.879 70.8693 316.283 69.8608C316.686 68.834 317.273 67.9356 318.043 67.1655C318.832 66.377 319.785 65.7628 320.903 65.3227C322.022 64.8826 323.296 64.6626 324.727 64.6626C325.478 64.6626 326.276 64.7359 327.119 64.8826C327.963 65.0293 328.715 65.2402 329.375 65.5152L329.567 69.2833L328.33 69.3933L327.504 66.7804C327.156 66.542 326.698 66.3678 326.129 66.2578C325.561 66.1295 325.011 66.0653 324.479 66.0653C323.104 66.0653 321.976 66.3678 321.096 66.9729C320.234 67.5597 319.592 68.3481 319.171 69.3383C318.767 70.3284 318.566 71.4194 318.566 72.6112C318.566 74.1698 318.832 75.49 319.363 76.5718C319.913 77.6536 320.647 78.4696 321.564 79.0197C322.499 79.5697 323.526 79.8448 324.644 79.8448C325.231 79.8448 325.763 79.7806 326.239 79.6522C326.716 79.5239 327.174 79.3314 327.614 79.0747L328.825 76.4893L330.09 76.6268L329.32 80.0923C328.696 80.4224 327.954 80.7066 327.092 80.9449C326.23 81.1833 325.322 81.3025 324.369 81.3025Z" fill="#F1EEF1"/>
<path d="M306.731 81.055L306.676 80.0098L308.354 79.6248C308.39 79.5331 308.409 79.3222 308.409 78.9922C308.427 78.6621 308.436 78.2129 308.436 77.6445C308.455 77.0761 308.464 76.3885 308.464 75.5817V70.4109C308.464 69.5858 308.455 68.8891 308.436 68.3206C308.436 67.7339 308.427 67.2755 308.409 66.9454C308.409 66.6154 308.39 66.4137 308.354 66.3404L306.676 65.9553L306.731 64.9102H312.589L312.644 65.9553L310.967 66.3404C310.93 66.3954 310.893 66.5787 310.857 66.8904C310.838 67.1838 310.82 67.6239 310.802 68.2106C310.802 68.779 310.802 69.5125 310.802 70.4109V75.5817C310.802 76.4618 310.802 77.1861 310.802 77.7545C310.82 78.3229 310.838 78.763 310.857 79.0747C310.893 79.3681 310.93 79.5514 310.967 79.6248L312.644 80.0098L312.589 81.055H306.731Z" fill="#F1EEF1"/>
<path d="M290.881 81.055L290.826 80.0098L292.504 79.5973C292.504 79.4689 292.504 79.2764 292.504 79.0197C292.522 78.7446 292.531 78.4238 292.531 78.057C292.531 77.6903 292.531 77.2961 292.531 76.8744C292.549 76.4526 292.559 76.0217 292.559 75.5817V70.4109C292.559 69.5675 292.549 68.8616 292.531 68.2931C292.531 67.7064 292.522 67.2572 292.504 66.9454C292.504 66.6154 292.485 66.4137 292.449 66.3404L290.743 65.9553L290.826 64.9102H296.849C298.573 64.9102 299.884 65.2494 300.782 65.9278C301.699 66.5879 302.158 67.5689 302.158 68.8707C302.158 69.7692 301.91 70.576 301.415 71.2911C300.92 71.9878 300.232 72.5379 299.352 72.9413C298.472 73.3447 297.454 73.5464 296.299 73.5464H294.539V72.3087H296.107C297.243 72.3087 298.124 72.0245 298.747 71.4561C299.389 70.8877 299.71 70.0992 299.71 69.0908C299.71 68.1189 299.435 67.3855 298.885 66.8904C298.334 66.377 297.546 66.1203 296.519 66.1203H294.924C294.906 66.1753 294.887 66.2579 294.869 66.3679C294.869 66.4595 294.869 66.6337 294.869 66.8904C294.869 67.1471 294.869 67.523 294.869 68.0181C294.869 68.5132 294.869 69.1733 294.869 69.9984V75.5817C294.869 76.3701 294.869 77.0302 294.869 77.562C294.887 78.0937 294.906 78.5246 294.924 78.8547C294.961 79.1664 294.988 79.4139 295.007 79.5973L296.629 80.0098L296.547 81.055H290.881ZM303.918 81.33C303.111 81.33 302.396 81.1833 301.772 80.8899C301.149 80.5782 300.544 80.074 299.957 79.3772C299.37 78.6621 298.738 77.6995 298.059 76.4893L296.189 73.0788L298.252 72.6113L301.222 76.9844C301.736 77.7362 302.194 78.3412 302.598 78.7996C303.019 79.2397 303.432 79.5698 303.835 79.7898C304.239 80.0098 304.679 80.1657 305.155 80.2574L305.128 81.22C304.945 81.2567 304.743 81.2842 304.523 81.3025C304.321 81.3208 304.119 81.33 303.918 81.33Z" fill="#F1EEF1"/>
<path d="M288.04 64.8003L288.645 69.2559L287.435 69.3935L286.28 66.2855C286.133 66.2488 285.959 66.2305 285.757 66.2305C285.574 66.2122 285.409 66.203 285.262 66.203H284.272C284.088 66.203 283.841 66.203 283.529 66.203C283.218 66.203 282.933 66.2122 282.677 66.2305C282.677 66.3772 282.667 66.7256 282.649 67.2756C282.649 67.8074 282.649 68.4308 282.649 69.1459C282.649 69.861 282.649 70.5486 282.649 71.2087V74.9217C282.649 76.0952 282.658 77.1129 282.677 77.9747C282.695 78.8181 282.704 79.3682 282.704 79.6249L285.042 79.955L284.959 81.0551H277.946L277.891 79.955L280.201 79.6249C280.201 79.3682 280.21 78.8181 280.229 77.9747C280.247 77.1129 280.256 76.0952 280.256 74.9217V71.2087C280.256 70.5486 280.256 69.861 280.256 69.1459C280.256 68.4308 280.256 67.8074 280.256 67.2756C280.256 66.7256 280.247 66.3772 280.229 66.2305C279.99 66.2122 279.715 66.203 279.404 66.203C279.11 66.203 278.863 66.203 278.661 66.203H277.588C277.442 66.203 277.277 66.2122 277.093 66.2305C276.91 66.2305 276.745 66.2488 276.598 66.2855L275.471 69.421L274.233 69.2559L274.838 64.8003C275.058 64.8186 275.278 64.837 275.498 64.8553C275.718 64.8553 275.938 64.8645 276.158 64.8828C276.378 64.8828 276.598 64.892 276.818 64.9103C277.057 64.9103 277.286 64.9103 277.506 64.9103H285.372C285.592 64.9103 285.812 64.9103 286.032 64.9103C286.252 64.892 286.472 64.8828 286.692 64.8828C286.912 64.8645 287.132 64.8553 287.352 64.8553C287.591 64.837 287.82 64.8186 288.04 64.8003Z" fill="#F1EEF1"/>
<path d="M271.53 81.1926C270.998 81.1376 270.521 81.101 270.1 81.0826C269.696 81.0643 269.311 81.0551 268.944 81.0551H259.51L259.428 80.01L261.133 79.6249C261.17 79.5332 261.188 79.3224 261.188 78.9923C261.207 78.6623 261.216 78.213 261.216 77.6446C261.234 77.0762 261.243 76.3886 261.243 75.5818V70.4111C261.243 69.586 261.234 68.8892 261.216 68.3208C261.216 67.734 261.207 67.2756 261.188 66.9456C261.188 66.6156 261.17 66.4139 261.133 66.3405L259.428 65.9555L259.51 64.9103H268.339C268.596 64.9103 268.862 64.9103 269.137 64.9103C269.43 64.892 269.742 64.8736 270.072 64.8553C270.402 64.837 270.741 64.8186 271.09 64.8003L271.64 68.4308L270.402 68.6233L269.494 66.313C269.348 66.2763 269.183 66.258 268.999 66.258C268.816 66.2397 268.623 66.2305 268.422 66.2305H265.314C264.965 66.2305 264.654 66.2397 264.379 66.258C264.122 66.258 263.865 66.2763 263.609 66.313C263.609 66.3864 263.599 66.5972 263.581 66.9456C263.581 67.2756 263.572 67.6607 263.554 68.1008C263.554 68.5408 263.554 68.9809 263.554 69.421V76.847C263.554 77.2137 263.554 77.5896 263.554 77.9747C263.572 78.3414 263.581 78.6714 263.581 78.9648C263.599 79.2582 263.609 79.4599 263.609 79.5699C263.865 79.5882 264.131 79.6066 264.406 79.6249C264.7 79.6433 265.02 79.6524 265.369 79.6524H268.037C268.44 79.6524 268.77 79.6524 269.027 79.6524C269.284 79.6341 269.485 79.6157 269.632 79.5974C269.779 79.5791 269.898 79.5607 269.99 79.5424L271.42 76.9295L272.657 77.1771L271.53 81.1926ZM268.477 75.4168L268.147 73.5465C268.055 73.5099 267.899 73.4824 267.679 73.464C267.459 73.4457 267.193 73.4365 266.882 73.4365H264.791C264.553 73.4365 264.296 73.4457 264.021 73.464C263.746 73.4824 263.453 73.5007 263.141 73.519V72.0063C263.453 72.0247 263.746 72.043 264.021 72.0613C264.296 72.0613 264.553 72.0613 264.791 72.0613H266.882C267.193 72.0613 267.459 72.0522 267.679 72.0338C267.899 72.0155 268.055 71.9972 268.147 71.9788L268.477 70.0811H269.659V75.4168H268.477Z" fill="#F1EEF1"/>
<path d="M235.987 64.9102H240.745L246.521 78.0845H246.026L251.691 64.9102H256.147L256.23 65.9553L254.524 66.3129C254.506 66.5696 254.497 67.0555 254.497 67.7706C254.515 68.4673 254.534 69.2191 254.552 70.0259L254.662 75.0591C254.68 75.9759 254.699 76.746 254.717 77.3694C254.735 77.9745 254.754 78.4604 254.772 78.8272C254.79 79.1939 254.809 79.4689 254.827 79.6523L256.505 80.0098L256.45 81.055H250.619L250.536 80.0098L252.214 79.6523C252.232 79.4322 252.242 79.1755 252.242 78.8822C252.242 78.5888 252.242 78.1762 252.242 77.6445C252.242 77.1127 252.232 76.3885 252.214 75.4717L252.159 65.7078H252.874L246.218 81.1375H245.256L238.435 65.6803H239.15L239.177 75.0316C239.177 76.5535 239.177 77.6628 239.177 78.3596C239.195 79.038 239.214 79.4597 239.232 79.6248L241.102 80.0098L241.02 81.055H235.629L235.547 80.0098L237.417 79.6248C237.435 79.4964 237.444 79.258 237.444 78.9097C237.463 78.5613 237.481 78.1029 237.499 77.5345C237.518 76.9477 237.527 76.2601 237.527 75.4717L237.609 70.0259C237.628 69.2191 237.628 68.4857 237.609 67.8256C237.609 67.1471 237.609 66.6521 237.609 66.3404L235.932 65.9553L235.987 64.9102Z" fill="#F1EEF1"/>
<path d="M211.08 64.9102H217.736C220.633 64.9102 222.888 65.6069 224.502 67.0005C226.134 68.3757 226.949 70.3101 226.949 72.8038C226.949 74.4174 226.574 75.8476 225.822 77.0944C225.07 78.3229 224.025 79.2947 222.686 80.0098C221.348 80.7066 219.808 81.055 218.066 81.055H211.08L211.025 80.0098L212.702 79.6248C212.739 79.4597 212.767 78.9922 212.785 78.2221C212.822 77.452 212.84 76.5718 212.84 75.5817V70.4109C212.84 69.3291 212.822 68.4123 212.785 67.6605C212.767 66.9088 212.739 66.4687 212.702 66.3404L211.025 65.9553L211.08 64.9102ZM215.233 66.3954C215.233 66.5604 215.224 66.7896 215.205 67.083C215.205 67.358 215.196 67.7614 215.178 68.2931C215.178 68.8065 215.178 69.5125 215.178 70.4109V75.5817C215.178 76.1318 215.178 76.6543 215.178 77.1494C215.196 77.6261 215.214 78.057 215.233 78.4421C215.269 78.8272 215.297 79.148 215.315 79.4047C215.902 79.4781 216.425 79.5423 216.883 79.5973C217.36 79.6339 217.818 79.6523 218.258 79.6523C220.202 79.6523 221.678 79.1389 222.686 78.112C223.695 77.0669 224.199 75.5634 224.199 73.6014C224.199 72.4096 224.052 71.3552 223.759 70.4384C223.466 69.5033 223.026 68.724 222.439 68.1006C221.87 67.4772 221.164 67.0096 220.321 66.6979C219.496 66.3679 218.533 66.2028 217.433 66.2028C217.103 66.2028 216.755 66.2212 216.388 66.2579C216.021 66.2762 215.636 66.322 215.233 66.3954Z" fill="#F1EEF1"/>
<path d="M204.746 77.1219V70.961C204.746 69.8792 204.737 69.0174 204.718 68.3757C204.7 67.7156 204.682 67.2297 204.663 66.9179C204.645 66.5879 204.627 66.3954 204.608 66.3404L202.738 65.9553L202.821 64.9102H208.046L208.129 65.9553L206.424 66.3404C206.424 66.3954 206.405 66.5879 206.369 66.9179C206.35 67.2297 206.332 67.7156 206.314 68.3757C206.295 69.0174 206.286 69.8792 206.286 70.961V77.507C206.286 78.0754 206.286 78.6713 206.286 79.2947C206.286 79.8998 206.295 80.5232 206.314 81.165H205.076L194.955 67.5505H195.56V74.9216C195.56 76.0218 195.569 76.911 195.587 77.5895C195.606 78.2496 195.624 78.7355 195.642 79.0472C195.679 79.3589 195.706 79.5514 195.725 79.6248L197.595 80.0098L197.512 81.055H192.232L192.149 80.0098L193.827 79.6248C193.845 79.5514 193.864 79.3589 193.882 79.0472C193.919 78.7355 193.946 78.2496 193.964 77.5895C193.983 76.911 193.992 76.0218 193.992 74.9216V70.2184C193.992 69.3933 193.983 68.7149 193.964 68.1831C193.946 67.6514 193.928 67.2388 193.909 66.9454C193.891 66.6521 193.864 66.4504 193.827 66.3404L192.149 65.9553L192.232 64.9102H196L205.241 77.1219H204.746Z" fill="#F1EEF1"/>
<path d="M174.594 81.0554L174.539 80.0103L175.886 79.6252L181.552 65.3782L183.147 64.4155L189.143 79.6252L190.518 80.0103L190.436 81.0554H184.88L184.825 80.0103L186.503 79.6252L184.88 75.5546L184.578 74.702L181.58 67.2209L182.212 66.8634L179.352 74.702L179.049 75.5271L177.592 79.6252L179.269 80.0103L179.214 81.0554H174.594ZM178.444 75.9672V74.5095C178.793 74.5278 179.269 74.5461 179.874 74.5645C180.479 74.5828 181.222 74.592 182.102 74.592C182.964 74.592 183.697 74.5828 184.302 74.5645C184.926 74.5461 185.403 74.5278 185.733 74.5095V75.9672C185.109 75.9488 184.486 75.9397 183.862 75.9397C183.257 75.9213 182.671 75.9122 182.102 75.9122C181.552 75.9122 180.975 75.9213 180.369 75.9397C179.783 75.9397 179.141 75.9488 178.444 75.9672Z" fill="#F1EEF1"/>
<path d="M166.629 81.1926C166.098 81.1376 165.621 81.101 165.199 81.0826C164.796 81.0643 164.411 81.0551 164.044 81.0551H154.61L154.528 80.01L156.233 79.6249C156.27 79.5332 156.288 79.3224 156.288 78.9923C156.306 78.6623 156.315 78.213 156.315 77.6446C156.334 77.0762 156.343 76.3886 156.343 75.5818V70.4111C156.343 69.586 156.334 68.8892 156.315 68.3208C156.315 67.734 156.306 67.2756 156.288 66.9456C156.288 66.6156 156.27 66.4139 156.233 66.3405L154.528 65.9555L154.61 64.9103H163.439C163.696 64.9103 163.961 64.9103 164.236 64.9103C164.53 64.892 164.842 64.8736 165.172 64.8553C165.502 64.837 165.841 64.8186 166.189 64.8003L166.739 68.4308L165.502 68.6233L164.594 66.313C164.447 66.2763 164.282 66.258 164.099 66.258C163.916 66.2397 163.723 66.2305 163.521 66.2305H160.413C160.065 66.2305 159.753 66.2397 159.478 66.258C159.222 66.258 158.965 66.2763 158.708 66.313C158.708 66.3864 158.699 66.5972 158.681 66.9456C158.681 67.2756 158.672 67.6607 158.653 68.1008C158.653 68.5408 158.653 68.9809 158.653 69.421V76.847C158.653 77.2137 158.653 77.5896 158.653 77.9747C158.672 78.3414 158.681 78.6714 158.681 78.9648C158.699 79.2582 158.708 79.4599 158.708 79.5699C158.965 79.5882 159.231 79.6066 159.506 79.6249C159.799 79.6433 160.12 79.6524 160.468 79.6524H163.136C163.54 79.6524 163.87 79.6524 164.126 79.6524C164.383 79.6341 164.585 79.6157 164.732 79.5974C164.878 79.5791 164.997 79.5607 165.089 79.5424L166.519 76.9295L167.757 77.1771L166.629 81.1926ZM163.576 75.4168L163.246 73.5465C163.155 73.5099 162.999 73.4824 162.779 73.464C162.559 73.4457 162.293 73.4365 161.981 73.4365H159.891C159.652 73.4365 159.396 73.4457 159.121 73.464C158.846 73.4824 158.552 73.5007 158.241 73.519V72.0063C158.552 72.0247 158.846 72.043 159.121 72.0613C159.396 72.0613 159.652 72.0613 159.891 72.0613H161.981C162.293 72.0613 162.559 72.0522 162.779 72.0338C162.999 72.0155 163.155 71.9972 163.246 71.9788L163.576 70.0811H164.759V75.4168H163.576Z" fill="#F1EEF1"/>
<path d="M145.388 81.3025C143.72 81.3025 142.216 80.9999 140.878 80.3949C139.539 79.7714 138.476 78.8546 137.687 77.6445C136.899 76.4343 136.504 74.9307 136.504 73.1338C136.504 71.9786 136.706 70.8968 137.109 69.8883C137.531 68.8615 138.127 67.9539 138.897 67.1655C139.686 66.377 140.639 65.7628 141.758 65.3227C142.894 64.8826 144.187 64.6626 145.636 64.6626C146.387 64.6626 147.194 64.7359 148.056 64.8826C148.918 65.0293 149.66 65.2402 150.284 65.5152L150.449 69.1182L149.239 69.2283L148.441 66.7804C148.093 66.5237 147.625 66.3403 147.038 66.2303C146.47 66.1203 145.929 66.0653 145.416 66.0653C144.004 66.0653 142.849 66.3678 141.95 66.9729C141.052 67.5597 140.392 68.3481 139.97 69.3383C139.567 70.3284 139.365 71.4194 139.365 72.6112C139.365 74.1698 139.64 75.49 140.19 76.5718C140.758 77.6536 141.519 78.4787 142.473 79.0472C143.426 79.5972 144.499 79.8723 145.691 79.8723C146.222 79.8723 146.8 79.7989 147.423 79.6522C148.047 79.4872 148.606 79.2305 149.101 78.8821L148.441 80.4224V77.5344C148.441 76.9477 148.432 76.4251 148.414 75.9667C148.395 75.49 148.368 75.1324 148.331 74.8941L146.461 74.5915L146.516 73.4914H151.879L151.934 74.5365L150.724 74.8666C150.724 74.9582 150.724 75.1783 150.724 75.5267C150.724 75.875 150.724 76.2968 150.724 76.7918C150.724 77.4153 150.733 77.9562 150.751 78.4146C150.77 78.8546 150.788 79.313 150.806 79.7898C150.091 80.2482 149.23 80.6149 148.221 80.8899C147.231 81.165 146.287 81.3025 145.388 81.3025Z" fill="#F1EEF1"/>
<path d="M118.977 81.0554L118.922 80.0103L120.269 79.6252L125.935 65.3782L127.53 64.4155L133.526 79.6252L134.901 80.0103L134.819 81.0554H129.263L129.208 80.0103L130.886 79.6252L129.263 75.5546L128.961 74.702L125.963 67.2209L126.595 66.8634L123.735 74.702L123.432 75.5271L121.975 79.6252L123.652 80.0103L123.597 81.0554H118.977ZM122.827 75.9672V74.5095C123.176 74.5278 123.652 74.5461 124.257 74.5645C124.862 74.5828 125.605 74.592 126.485 74.592C127.347 74.592 128.08 74.5828 128.686 74.5645C129.309 74.5461 129.786 74.5278 130.116 74.5095V75.9672C129.492 75.9488 128.869 75.9397 128.245 75.9397C127.64 75.9213 127.054 75.9122 126.485 75.9122C125.935 75.9122 125.358 75.9213 124.752 75.9397C124.166 75.9397 123.524 75.9488 122.827 75.9672Z" fill="#F1EEF1"/>
<path d="M118.419 64.8003L119.024 69.2559L117.813 69.3935L116.658 66.2855C116.512 66.2488 116.337 66.2305 116.136 66.2305C115.952 66.2122 115.787 66.203 115.641 66.203H114.651C114.467 66.203 114.22 66.203 113.908 66.203C113.596 66.203 113.312 66.2122 113.055 66.2305C113.055 66.3772 113.046 66.7256 113.028 67.2756C113.028 67.8074 113.028 68.4308 113.028 69.1459C113.028 69.861 113.028 70.5486 113.028 71.2087V74.9217C113.028 76.0952 113.037 77.1129 113.055 77.9747C113.074 78.8181 113.083 79.3682 113.083 79.6249L115.421 79.955L115.338 81.0551H108.325L108.27 79.955L110.58 79.6249C110.58 79.3682 110.589 78.8181 110.607 77.9747C110.626 77.1129 110.635 76.0952 110.635 74.9217V71.2087C110.635 70.5486 110.635 69.861 110.635 69.1459C110.635 68.4308 110.635 67.8074 110.635 67.2756C110.635 66.7256 110.626 66.3772 110.607 66.2305C110.369 66.2122 110.094 66.203 109.782 66.203C109.489 66.203 109.241 66.203 109.04 66.203H107.967C107.82 66.203 107.655 66.2122 107.472 66.2305C107.289 66.2305 107.124 66.2488 106.977 66.2855L105.849 69.421L104.612 69.2559L105.217 64.8003C105.437 64.8186 105.657 64.837 105.877 64.8553C106.097 64.8553 106.317 64.8645 106.537 64.8828C106.757 64.8828 106.977 64.892 107.197 64.9103C107.435 64.9103 107.665 64.9103 107.885 64.9103H115.751C115.971 64.9103 116.191 64.9103 116.411 64.9103C116.631 64.892 116.851 64.8828 117.071 64.8828C117.291 64.8645 117.511 64.8553 117.731 64.8553C117.969 64.837 118.199 64.8186 118.419 64.8003Z" fill="#F1EEF1"/>
<path d="M96.9852 81.3026C96.1967 81.3026 95.3716 81.2018 94.5098 81.0001C93.648 80.7984 92.9512 80.5417 92.4195 80.23L92.282 76.682L93.4647 76.572L94.2348 79.0198C94.6748 79.3132 95.1607 79.5424 95.6925 79.7074C96.2242 79.8541 96.7926 79.9274 97.3977 79.9274C98.3145 79.9274 99.0388 79.7074 99.5705 79.2673C100.121 78.8273 100.396 78.2314 100.396 77.4796C100.396 76.8378 100.203 76.3061 99.8181 75.8844C99.433 75.4443 98.9288 75.0684 98.3053 74.7567C97.7003 74.445 97.0493 74.1333 96.3526 73.8216C95.6741 73.5099 95.0232 73.1615 94.3998 72.7764C93.7947 72.373 93.2996 71.8871 92.9146 71.3187C92.5295 70.732 92.337 70.0077 92.337 69.1459C92.337 68.2474 92.5845 67.4682 93.0796 66.8081C93.5747 66.1296 94.2623 65.5979 95.1424 65.2128C96.0408 64.8278 97.0585 64.6353 98.1953 64.6353C98.6721 64.6353 99.1305 64.6628 99.5705 64.7178C100.029 64.7544 100.451 64.8186 100.836 64.9103C101.221 65.002 101.569 65.1212 101.881 65.2678L102.101 68.7058L100.918 68.8159L100.148 66.5055C99.5797 66.1388 98.8279 65.9554 97.8928 65.9554C96.9577 65.9554 96.2059 66.1846 95.6375 66.643C95.0874 67.0831 94.8123 67.679 94.8123 68.4308C94.8123 69.0909 95.0049 69.641 95.3899 70.081C95.7933 70.5211 96.2976 70.9062 96.9026 71.2362C97.5261 71.5662 98.177 71.8871 98.8554 72.1988C99.5522 72.5105 100.203 72.8589 100.808 73.244C101.432 73.629 101.936 74.1058 102.321 74.6742C102.724 75.2243 102.926 75.9119 102.926 76.737C102.926 77.6171 102.669 78.4056 102.156 79.1023C101.661 79.7808 100.964 80.3217 100.066 80.7251C99.1671 81.1101 98.1403 81.3026 96.9852 81.3026Z" fill="#F1EEF1"/>
<path d="M70.6754 81.055L70.6204 80.0098L72.2981 79.5973C72.2981 79.4689 72.2981 79.2764 72.2981 79.0197C72.3164 78.7446 72.3256 78.4238 72.3256 78.057C72.3256 77.6903 72.3256 77.2961 72.3256 76.8744C72.3439 76.4526 72.3531 76.0217 72.3531 75.5817V70.4109C72.3531 69.5675 72.3439 68.8616 72.3256 68.2931C72.3256 67.7064 72.3164 67.2572 72.2981 66.9454C72.2981 66.6154 72.2798 66.4137 72.2431 66.3404L70.5378 65.9553L70.6204 64.9102H76.6437C78.3673 64.9102 79.6783 65.2494 80.5768 65.9278C81.4936 66.5879 81.952 67.5689 81.952 68.8707C81.952 69.7692 81.7044 70.576 81.2094 71.2911C80.7143 71.9878 80.0267 72.5379 79.1466 72.9413C78.2664 73.3447 77.2488 73.5464 76.0936 73.5464H74.3334V72.3087H75.9011C77.0379 72.3087 77.9181 72.0245 78.5415 71.4561C79.1832 70.8877 79.5041 70.0992 79.5041 69.0908C79.5041 68.1189 79.2291 67.3855 78.679 66.8904C78.1289 66.377 77.3405 66.1203 76.3137 66.1203H74.7184C74.7001 66.1753 74.6818 66.2579 74.6634 66.3679C74.6634 66.4595 74.6634 66.6337 74.6634 66.8904C74.6634 67.1471 74.6634 67.523 74.6634 68.0181C74.6634 68.5132 74.6634 69.1733 74.6634 69.9984V75.5817C74.6634 76.3701 74.6634 77.0302 74.6634 77.562C74.6818 78.0937 74.7001 78.5246 74.7184 78.8547C74.7551 79.1664 74.7826 79.4139 74.8009 79.5973L76.4237 80.0098L76.3412 81.055H70.6754ZM83.7122 81.33C82.9054 81.33 82.1903 81.1833 81.5669 80.8899C80.9435 80.5782 80.3384 80.074 79.7517 79.3772C79.1649 78.6621 78.5323 77.6995 77.8539 76.4893L75.9836 73.0788L78.0464 72.6113L81.0168 76.9844C81.5303 77.7362 81.9886 78.3412 82.392 78.7996C82.8138 79.2397 83.2263 79.5698 83.6297 79.7898C84.0331 80.0098 84.4732 80.1657 84.9499 80.2574L84.9224 81.22C84.739 81.2567 84.5373 81.2842 84.3173 81.3025C84.1156 81.3208 83.9139 81.33 83.7122 81.33Z" fill="#F1EEF1"/>
<path d="M66.9821 81.1926C66.4504 81.1376 65.9736 81.101 65.5519 81.0826C65.1485 81.0643 64.7635 81.0551 64.3967 81.0551H54.9629L54.8804 80.01L56.5856 79.6249C56.6223 79.5332 56.6406 79.3224 56.6406 78.9923C56.659 78.6623 56.6681 78.213 56.6681 77.6446C56.6865 77.0762 56.6956 76.3886 56.6956 75.5818V70.4111C56.6956 69.586 56.6865 68.8892 56.6681 68.3208C56.6681 67.734 56.659 67.2756 56.6406 66.9456C56.6406 66.6156 56.6223 66.4139 56.5856 66.3405L54.8804 65.9555L54.9629 64.9103H63.7916C64.0484 64.9103 64.3142 64.9103 64.5893 64.9103C64.8826 64.892 65.1944 64.8736 65.5244 64.8553C65.8544 64.837 66.1937 64.8186 66.542 64.8003L67.0921 68.4308L65.8544 68.6233L64.9468 66.313C64.8001 66.2763 64.6351 66.258 64.4517 66.258C64.2684 66.2397 64.0759 66.2305 63.8742 66.2305H60.7662C60.4178 66.2305 60.1061 66.2397 59.8311 66.258C59.5744 66.258 59.3177 66.2763 59.061 66.313C59.061 66.3864 59.0518 66.5972 59.0335 66.9456C59.0335 67.2756 59.0243 67.6607 59.006 68.1008C59.006 68.5408 59.006 68.9809 59.006 69.421V76.847C59.006 77.2137 59.006 77.5896 59.006 77.9747C59.0243 78.3414 59.0335 78.6714 59.0335 78.9648C59.0518 79.2582 59.061 79.4599 59.061 79.5699C59.3177 79.5882 59.5835 79.6066 59.8586 79.6249C60.152 79.6433 60.4728 79.6524 60.8212 79.6524H63.4891C63.8925 79.6524 64.2225 79.6524 64.4792 79.6524C64.736 79.6341 64.9376 79.6157 65.0843 79.5974C65.231 79.5791 65.3502 79.5607 65.4419 79.5424L66.8721 76.9295L68.1098 77.1771L66.9821 81.1926ZM63.9292 75.4168L63.5991 73.5465C63.5074 73.5099 63.3516 73.4824 63.1316 73.464C62.9115 73.4457 62.6456 73.4365 62.3339 73.4365H60.2436C60.0053 73.4365 59.7486 73.4457 59.4735 73.464C59.1985 73.4824 58.9051 73.5007 58.5934 73.519V72.0063C58.9051 72.0247 59.1985 72.043 59.4735 72.0613C59.7486 72.0613 60.0053 72.0613 60.2436 72.0613H62.3339C62.6456 72.0613 62.9115 72.0522 63.1316 72.0338C63.3516 72.0155 63.5074 71.9972 63.5991 71.9788L63.9292 70.0811H65.1118V75.4168H63.9292Z" fill="#F1EEF1"/>
<path d="M40.5979 81.055L40.5154 80.0098L42.1106 79.6248C42.1289 79.5514 42.1473 79.3956 42.1656 79.1572C42.1839 78.9005 42.1931 78.4971 42.1931 77.947C42.2114 77.3969 42.2206 76.6543 42.2206 75.7192L42.2481 70.1359C42.2481 69.2191 42.239 68.504 42.2206 67.9906C42.2023 67.4589 42.1839 67.0738 42.1656 66.8354C42.1656 66.5787 42.1564 66.4229 42.1381 66.3679L40.4329 65.9553L40.5154 64.9102H46.3737C48.189 64.9102 49.6008 65.3135 50.6093 66.1203C51.6178 66.9088 52.122 68.0548 52.122 69.5583C52.122 70.5851 51.8562 71.4744 51.3244 72.2262C50.811 72.978 50.1142 73.5647 49.2341 73.9865C48.354 74.3898 47.373 74.5915 46.2912 74.5915C45.8878 74.5915 45.5028 74.5732 45.136 74.5365C44.7877 74.4815 44.4576 74.4265 44.1459 74.3715V72.8863C44.5676 73.0147 44.9343 73.1063 45.246 73.1613C45.5761 73.2163 45.897 73.2439 46.2087 73.2439C47.2905 73.2439 48.134 72.978 48.7391 72.4462C49.3441 71.8962 49.6467 71.0527 49.6467 69.9159C49.6467 68.614 49.3075 67.6605 48.629 67.0555C47.9506 66.432 47.098 66.1203 46.0712 66.1203H44.6135C44.6135 66.2303 44.6043 66.4871 44.586 66.8904C44.586 67.2938 44.5768 67.7797 44.5585 68.3481C44.5585 68.8982 44.5585 69.4941 44.5585 70.1359L44.586 75.7192C44.586 76.6543 44.5951 77.3969 44.6135 77.947C44.6318 78.4788 44.6501 78.873 44.6685 79.1297C44.6868 79.3681 44.696 79.5239 44.696 79.5973L46.9788 79.9548L46.8963 81.055H40.5979Z" fill="#F1EEF1"/>
<path d="M369.271 33.8003L369.876 38.2559L368.666 38.3935L367.511 35.2855C367.364 35.2488 367.19 35.2305 366.988 35.2305C366.805 35.2122 366.64 35.203 366.493 35.203H365.503C365.32 35.203 365.072 35.203 364.761 35.203C364.449 35.203 364.165 35.2122 363.908 35.2305C363.908 35.3772 363.899 35.7256 363.881 36.2756C363.881 36.8074 363.881 37.4308 363.881 38.1459C363.881 38.861 363.881 39.5486 363.881 40.2087V43.9217C363.881 45.0952 363.89 46.1129 363.908 46.9747C363.926 47.8181 363.936 48.3682 363.936 48.6249L366.273 48.955L366.191 50.0551H359.177L359.122 48.955L361.433 48.6249C361.433 48.3682 361.442 47.8181 361.46 46.9747C361.479 46.1129 361.488 45.0952 361.488 43.9217V40.2087C361.488 39.5486 361.488 38.861 361.488 38.1459C361.488 37.4308 361.488 36.8074 361.488 36.2756C361.488 35.7256 361.479 35.3772 361.46 35.2305C361.222 35.2122 360.947 35.203 360.635 35.203C360.342 35.203 360.094 35.203 359.892 35.203H358.82C358.673 35.203 358.508 35.2122 358.325 35.2305C358.141 35.2305 357.976 35.2488 357.83 35.2855L356.702 38.421L355.464 38.2559L356.069 33.8003C356.289 33.8186 356.509 33.837 356.73 33.8553C356.95 33.8553 357.17 33.8645 357.39 33.8828C357.61 33.8828 357.83 33.892 358.05 33.9103C358.288 33.9103 358.517 33.9103 358.737 33.9103H366.603C366.823 33.9103 367.044 33.9103 367.264 33.9103C367.484 33.892 367.704 33.8828 367.924 33.8828C368.144 33.8645 368.364 33.8553 368.584 33.8553C368.822 33.837 369.051 33.8186 369.271 33.8003Z" fill="#F1EEF1"/>
<path d="M348.195 50.3025C346.6 50.3025 345.142 49.9999 343.822 49.3949C342.52 48.7714 341.475 47.8546 340.687 46.6445C339.898 45.4159 339.504 43.9032 339.504 42.1063C339.504 40.9511 339.706 39.8693 340.109 38.8608C340.513 37.834 341.099 36.9356 341.869 36.1655C342.658 35.377 343.611 34.7628 344.73 34.3227C345.848 33.8826 347.123 33.6626 348.553 33.6626C349.305 33.6626 350.102 33.7359 350.946 33.8826C351.789 34.0293 352.541 34.2402 353.201 34.5152L353.394 38.2833L352.156 38.3933L351.331 35.7804C350.982 35.542 350.524 35.3678 349.956 35.2578C349.387 35.1295 348.837 35.0653 348.305 35.0653C346.93 35.0653 345.803 35.3678 344.922 35.9729C344.061 36.5597 343.419 37.3481 342.997 38.3383C342.594 39.3284 342.392 40.4194 342.392 41.6112C342.392 43.1698 342.658 44.49 343.19 45.5718C343.74 46.6536 344.473 47.4696 345.39 48.0197C346.325 48.5697 347.352 48.8448 348.47 48.8448C349.057 48.8448 349.589 48.7806 350.066 48.6522C350.542 48.5239 351.001 48.3314 351.441 48.0747L352.651 45.4893L353.916 45.6268L353.146 49.0923C352.523 49.4224 351.78 49.7066 350.918 49.9449C350.056 50.1833 349.149 50.3025 348.195 50.3025Z" fill="#F1EEF1"/>
<path d="M320.738 33.9102H326.569L326.652 34.9553L324.946 35.3679C324.946 35.4412 324.937 35.6062 324.919 35.8629C324.901 36.1196 324.882 36.523 324.864 37.0731C324.864 37.6232 324.864 38.4025 324.864 39.4109V43.6466C324.882 44.8017 325.066 45.7369 325.414 46.452C325.781 47.1671 326.276 47.6896 326.899 48.0197C327.541 48.3314 328.284 48.4872 329.127 48.4872C329.934 48.4872 330.631 48.3222 331.217 47.9922C331.822 47.6438 332.29 47.1029 332.62 46.3694C332.95 45.636 333.115 44.6642 333.115 43.454V39.906C333.115 39.0809 333.106 38.3566 333.088 37.7332C333.069 37.0914 333.051 36.5689 333.033 36.1655C333.014 35.7438 332.987 35.4779 332.95 35.3679L331.025 34.9553L331.107 33.9102H336.443L336.526 34.9553L334.848 35.3679C334.848 35.4229 334.839 35.5971 334.82 35.8904C334.802 36.1838 334.784 36.6514 334.765 37.2931C334.765 37.9166 334.765 38.7875 334.765 39.906V43.5915C334.765 45.1318 334.509 46.3969 333.995 47.3871C333.482 48.3772 332.776 49.1107 331.877 49.5874C330.997 50.0641 329.989 50.3025 328.852 50.3025C326.853 50.3025 325.286 49.7524 324.149 48.6523C323.03 47.5338 322.471 45.9752 322.471 43.9766V39.4109C322.471 38.4025 322.462 37.6232 322.444 37.0731C322.425 36.5047 322.407 36.0921 322.389 35.8354C322.389 35.5787 322.379 35.4229 322.361 35.3679L320.683 34.9553L320.738 33.9102Z" fill="#F1EEF1"/>
<path d="M301.725 33.9102H308.381C311.278 33.9102 313.534 34.6069 315.147 36.0005C316.779 37.3757 317.595 39.3101 317.595 41.8038C317.595 43.4174 317.219 44.8476 316.468 46.0944C315.716 47.3229 314.671 48.2947 313.332 49.0098C311.994 49.7066 310.453 50.055 308.711 50.055H301.725L301.67 49.0098L303.348 48.6248C303.385 48.4597 303.412 47.9922 303.431 47.2221C303.467 46.452 303.486 45.5718 303.486 44.5817V39.4109C303.486 38.3291 303.467 37.4123 303.431 36.6606C303.412 35.9088 303.385 35.4687 303.348 35.3404L301.67 34.9553L301.725 33.9102ZM305.879 35.3954C305.879 35.5604 305.869 35.7896 305.851 36.083C305.851 36.358 305.842 36.7614 305.823 37.2931C305.823 37.8065 305.823 38.5125 305.823 39.4109V44.5817C305.823 45.1318 305.823 45.6543 305.823 46.1494C305.842 46.6261 305.86 47.057 305.879 47.4421C305.915 47.8271 305.943 48.148 305.961 48.4047C306.548 48.4781 307.07 48.5423 307.529 48.5973C308.005 48.6339 308.464 48.6523 308.904 48.6523C310.848 48.6523 312.324 48.1389 313.332 47.112C314.341 46.0669 314.845 44.5634 314.845 42.6014C314.845 41.4096 314.698 40.3552 314.405 39.4384C314.111 38.5033 313.671 37.724 313.085 37.1006C312.516 36.4772 311.81 36.0096 310.967 35.6979C310.142 35.3679 309.179 35.2028 308.079 35.2028C307.749 35.2028 307.4 35.2212 307.034 35.2578C306.667 35.2762 306.282 35.322 305.879 35.3954Z" fill="#F1EEF1"/>
<path d="M290.771 50.3025C289.176 50.3025 287.755 49.9541 286.508 49.2573C285.279 48.5606 284.317 47.5888 283.62 46.3419C282.923 45.0951 282.575 43.6649 282.575 42.0513C282.575 40.4377 282.932 39.0075 283.647 37.7607C284.362 36.4955 285.343 35.4962 286.59 34.7628C287.837 34.0293 289.249 33.6626 290.826 33.6626C292.366 33.6626 293.723 34.011 294.896 34.7077C296.088 35.4045 297.014 36.3672 297.674 37.5957C298.334 38.8242 298.664 40.2452 298.664 41.8588C298.664 43.0873 298.454 44.2149 298.032 45.2418C297.61 46.2686 297.033 47.167 296.299 47.9371C295.566 48.6889 294.722 49.2757 293.769 49.6974C292.834 50.1008 291.834 50.3025 290.771 50.3025ZM291.018 48.8173C292.009 48.8173 292.861 48.5606 293.576 48.0472C294.31 47.5338 294.878 46.8095 295.282 45.8743C295.685 44.9209 295.887 43.8024 295.887 42.5189C295.887 41.0337 295.657 39.7318 295.199 38.6133C294.759 37.4948 294.136 36.6239 293.329 36.0004C292.522 35.3587 291.578 35.0378 290.496 35.0378C288.937 35.0378 287.7 35.6154 286.783 36.7705C285.884 37.9257 285.435 39.5118 285.435 41.5287C285.435 42.9589 285.673 44.2241 286.15 45.3243C286.627 46.4061 287.287 47.2587 288.13 47.8821C288.974 48.5056 289.937 48.8173 291.018 48.8173Z" fill="#F1EEF1"/>
<path d="M266.944 50.055L266.889 49.0098L268.567 48.5973C268.567 48.4689 268.567 48.2764 268.567 48.0197C268.585 47.7446 268.595 47.4238 268.595 47.057C268.595 46.6903 268.595 46.2961 268.595 45.8744C268.613 45.4526 268.622 45.0217 268.622 44.5817V39.4109C268.622 38.5675 268.613 37.8616 268.595 37.2931C268.595 36.7064 268.585 36.2572 268.567 35.9454C268.567 35.6154 268.549 35.4137 268.512 35.3404L266.807 34.9553L266.889 33.9102H272.913C274.636 33.9102 275.947 34.2494 276.846 34.9278C277.763 35.5879 278.221 36.5689 278.221 37.8707C278.221 38.7692 277.973 39.576 277.478 40.2911C276.983 40.9878 276.296 41.5379 275.416 41.9413C274.535 42.3447 273.518 42.5464 272.363 42.5464H270.602V41.3087H272.17C273.307 41.3087 274.187 41.0245 274.811 40.4561C275.452 39.8877 275.773 39.0992 275.773 38.0908C275.773 37.1189 275.498 36.3855 274.948 35.8904C274.398 35.377 273.61 35.1203 272.583 35.1203H270.987C270.969 35.1753 270.951 35.2578 270.932 35.3679C270.932 35.4595 270.932 35.6337 270.932 35.8904C270.932 36.1471 270.932 36.523 270.932 37.0181C270.932 37.5132 270.932 38.1733 270.932 38.9984V44.5817C270.932 45.3701 270.932 46.0302 270.932 46.562C270.951 47.0937 270.969 47.5246 270.987 47.8547C271.024 48.1664 271.052 48.4139 271.07 48.5973L272.693 49.0098L272.61 50.055H266.944ZM279.981 50.33C279.174 50.33 278.459 50.1833 277.836 49.8899C277.213 49.5782 276.607 49.074 276.021 48.3772C275.434 47.6621 274.801 46.6995 274.123 45.4893L272.253 42.0788L274.315 41.6113L277.286 45.9844C277.799 46.7362 278.258 47.3412 278.661 47.7996C279.083 48.2397 279.495 48.5698 279.899 48.7898C280.302 49.0098 280.742 49.1657 281.219 49.2574L281.191 50.22C281.008 50.2567 280.806 50.2842 280.586 50.3025C280.385 50.3208 280.183 50.33 279.981 50.33Z" fill="#F1EEF1"/>
<path d="M252.497 50.055L252.415 49.0098L254.01 48.6248C254.028 48.5514 254.046 48.3956 254.065 48.1572C254.083 47.9005 254.092 47.4971 254.092 46.947C254.111 46.3969 254.12 45.6543 254.12 44.7192L254.147 39.1359C254.147 38.2191 254.138 37.504 254.12 36.9906C254.101 36.4589 254.083 36.0738 254.065 35.8354C254.065 35.5787 254.056 35.4229 254.037 35.3679L252.332 34.9553L252.415 33.9102H258.273C260.088 33.9102 261.5 34.3135 262.508 35.1203C263.517 35.9088 264.021 37.0548 264.021 38.5583C264.021 39.5851 263.755 40.4744 263.224 41.2262C262.71 41.978 262.013 42.5647 261.133 42.9865C260.253 43.3898 259.272 43.5915 258.19 43.5915C257.787 43.5915 257.402 43.5732 257.035 43.5365C256.687 43.4815 256.357 43.4265 256.045 43.3715V41.8863C256.467 42.0147 256.833 42.1063 257.145 42.1613C257.475 42.2163 257.796 42.2439 258.108 42.2439C259.19 42.2439 260.033 41.978 260.638 41.4462C261.243 40.8962 261.546 40.0527 261.546 38.9159C261.546 37.614 261.207 36.6606 260.528 36.0555C259.85 35.432 258.997 35.1203 257.97 35.1203H256.513C256.513 35.2303 256.503 35.487 256.485 35.8904C256.485 36.2938 256.476 36.7797 256.458 37.3481C256.458 37.8982 256.458 38.4941 256.458 39.1359L256.485 44.7192C256.485 45.6543 256.494 46.3969 256.513 46.947C256.531 47.4788 256.549 47.873 256.568 48.1297C256.586 48.3681 256.595 48.5239 256.595 48.5973L258.878 48.9548L258.795 50.055H252.497Z" fill="#F1EEF1"/>
<path d="M243.872 50.1925C243.616 50.1558 243.322 50.1283 242.992 50.11C242.68 50.0916 242.369 50.0733 242.057 50.055C241.745 50.055 241.461 50.055 241.204 50.055H232.403L232.348 49.0098L234.026 48.6248C234.044 48.5331 234.063 48.3222 234.081 47.9922C234.099 47.6621 234.108 47.2129 234.108 46.6445C234.127 46.0761 234.136 45.3885 234.136 44.5817V39.4109C234.136 38.5858 234.136 37.8891 234.136 37.3206C234.136 36.7522 234.127 36.303 234.108 35.973C234.09 35.6429 234.063 35.4412 234.026 35.3679L232.348 34.9553L232.403 33.9102H238.867L238.949 35.0103L236.666 35.3679C236.63 35.4229 236.593 35.6062 236.556 35.9179C236.538 36.2113 236.52 36.6514 236.501 37.2381C236.501 37.8065 236.501 38.5308 236.501 39.4109V44.5817C236.501 45.5352 236.51 46.3694 236.529 47.0845C236.547 47.7813 236.565 48.2305 236.584 48.4322C236.84 48.4506 237.106 48.4689 237.381 48.4872C237.656 48.5056 237.968 48.5147 238.316 48.5147H240.379C240.801 48.5147 241.159 48.5056 241.452 48.4872C241.745 48.4689 242.039 48.4414 242.332 48.4047L243.762 45.7093L245 45.9844L243.872 50.1925Z" fill="#F1EEF1"/>
<path d="M214.765 50.0554L214.71 49.0103L216.058 48.6252L221.724 34.3782L223.319 33.4155L229.315 48.6252L230.69 49.0103L230.607 50.0554H225.052L224.997 49.0103L226.674 48.6252L225.052 44.5546L224.749 43.702L221.751 36.2209L222.384 35.8634L219.523 43.702L219.221 44.5271L217.763 48.6252L219.441 49.0103L219.386 50.0554H214.765ZM218.616 44.9672V43.5095C218.964 43.5278 219.441 43.5461 220.046 43.5645C220.651 43.5828 221.394 43.592 222.274 43.592C223.136 43.592 223.869 43.5828 224.474 43.5645C225.098 43.5461 225.574 43.5278 225.904 43.5095V44.9672C225.281 44.9488 224.657 44.9397 224.034 44.9397C223.429 44.9213 222.842 44.9122 222.274 44.9122C221.724 44.9122 221.146 44.9213 220.541 44.9397C219.954 44.9397 219.313 44.9488 218.616 44.9672Z" fill="#F1EEF1"/>
<path d="M214.207 33.8003L214.812 38.2559L213.602 38.3935L212.447 35.2855C212.3 35.2488 212.126 35.2305 211.925 35.2305C211.741 35.2122 211.576 35.203 211.429 35.203H210.439C210.256 35.203 210.008 35.203 209.697 35.203C209.385 35.203 209.101 35.2122 208.844 35.2305C208.844 35.3772 208.835 35.7256 208.817 36.2756C208.817 36.8074 208.817 37.4308 208.817 38.1459C208.817 38.861 208.817 39.5486 208.817 40.2087V43.9217C208.817 45.0952 208.826 46.1129 208.844 46.9747C208.862 47.8181 208.872 48.3682 208.872 48.6249L211.209 48.955L211.127 50.0551H204.113L204.058 48.955L206.369 48.6249C206.369 48.3682 206.378 47.8181 206.396 46.9747C206.415 46.1129 206.424 45.0952 206.424 43.9217V40.2087C206.424 39.5486 206.424 38.861 206.424 38.1459C206.424 37.4308 206.424 36.8074 206.424 36.2756C206.424 35.7256 206.415 35.3772 206.396 35.2305C206.158 35.2122 205.883 35.203 205.571 35.203C205.278 35.203 205.03 35.203 204.829 35.203H203.756C203.609 35.203 203.444 35.2122 203.261 35.2305C203.077 35.2305 202.912 35.2488 202.766 35.2855L201.638 38.421L200.4 38.2559L201.005 33.8003C201.226 33.8186 201.446 33.837 201.666 33.8553C201.886 33.8553 202.106 33.8645 202.326 33.8828C202.546 33.8828 202.766 33.892 202.986 33.9103C203.224 33.9103 203.453 33.9103 203.673 33.9103H211.539C211.76 33.9103 211.98 33.9103 212.2 33.9103C212.42 33.892 212.64 33.8828 212.86 33.8828C213.08 33.8645 213.3 33.8553 213.52 33.8553C213.758 33.837 213.987 33.8186 214.207 33.8003Z" fill="#F1EEF1"/>
<path d="M192.444 50.055L192.389 49.0098L194.066 48.6248C194.103 48.5331 194.121 48.3222 194.121 47.9922C194.14 47.6621 194.149 47.2129 194.149 46.6445C194.167 46.0761 194.176 45.3885 194.176 44.5817V39.4109C194.176 38.5858 194.167 37.8891 194.149 37.3206C194.149 36.7339 194.14 36.2755 194.121 35.9454C194.121 35.6154 194.103 35.4137 194.066 35.3404L192.389 34.9553L192.444 33.9102H198.302L198.357 34.9553L196.679 35.3404C196.643 35.3954 196.606 35.5787 196.569 35.8904C196.551 36.1838 196.533 36.6239 196.514 37.2106C196.514 37.779 196.514 38.5125 196.514 39.4109V44.5817C196.514 45.4618 196.514 46.1861 196.514 46.7545C196.533 47.3229 196.551 47.763 196.569 48.0747C196.606 48.3681 196.643 48.5514 196.679 48.6248L198.357 49.0098L198.302 50.055H192.444Z" fill="#F1EEF1"/>
<path d="M183.222 50.3025C181.554 50.3025 180.05 49.9999 178.712 49.3949C177.373 48.7714 176.31 47.8546 175.521 46.6445C174.733 45.4343 174.338 43.9307 174.338 42.1338C174.338 40.9786 174.54 39.8968 174.943 38.8883C175.365 37.8615 175.961 36.9539 176.731 36.1655C177.52 35.377 178.473 34.7628 179.592 34.3227C180.728 33.8826 182.021 33.6626 183.47 33.6626C184.221 33.6626 185.028 33.7359 185.89 33.8826C186.752 34.0293 187.494 34.2402 188.118 34.5152L188.283 38.1182L187.073 38.2283L186.275 35.7804C185.927 35.5237 185.459 35.3403 184.872 35.2303C184.304 35.1203 183.763 35.0653 183.25 35.0653C181.838 35.0653 180.683 35.3678 179.784 35.9729C178.886 36.5597 178.226 37.3481 177.804 38.3383C177.4 39.3284 177.199 40.4194 177.199 41.6112C177.199 43.1698 177.474 44.49 178.024 45.5718C178.592 46.6536 179.353 47.4787 180.307 48.0472C181.26 48.5972 182.333 48.8723 183.525 48.8723C184.056 48.8723 184.634 48.7989 185.257 48.6522C185.881 48.4872 186.44 48.2305 186.935 47.8821L186.275 49.4224V46.5344C186.275 45.9477 186.266 45.4251 186.248 44.9667C186.229 44.49 186.202 44.1324 186.165 43.8941L184.295 43.5915L184.35 42.4914H189.713L189.768 43.5365L188.558 43.8666C188.558 43.9582 188.558 44.1783 188.558 44.5267C188.558 44.875 188.558 45.2968 188.558 45.7918C188.558 46.4153 188.567 46.9562 188.585 47.4146C188.604 47.8546 188.622 48.313 188.64 48.7898C187.925 49.2482 187.064 49.6149 186.055 49.8899C185.065 50.165 184.121 50.3025 183.222 50.3025Z" fill="#F1EEF1"/>
<path d="M165.419 50.055L165.364 49.0098L167.042 48.6248C167.078 48.5331 167.097 48.3222 167.097 47.9922C167.115 47.6621 167.124 47.2129 167.124 46.6445C167.143 46.0761 167.152 45.3885 167.152 44.5817V39.4109C167.152 38.5858 167.143 37.8891 167.124 37.3206C167.124 36.7339 167.115 36.2755 167.097 35.9454C167.097 35.6154 167.078 35.4137 167.042 35.3404L165.364 34.9553L165.419 33.9102H171.277L171.332 34.9553L169.655 35.3404C169.618 35.3954 169.581 35.5787 169.545 35.8904C169.526 36.1838 169.508 36.6239 169.49 37.2106C169.49 37.779 169.49 38.5125 169.49 39.4109V44.5817C169.49 45.4618 169.49 46.1861 169.49 46.7545C169.508 47.3229 169.526 47.763 169.545 48.0747C169.581 48.3681 169.618 48.5514 169.655 48.6248L171.332 49.0098L171.277 50.055H165.419Z" fill="#F1EEF1"/>
<path d="M146.323 33.9102H152.979C155.876 33.9102 158.132 34.6069 159.745 36.0005C161.377 37.3757 162.193 39.3101 162.193 41.8038C162.193 43.4174 161.817 44.8476 161.065 46.0944C160.314 47.3229 159.269 48.2947 157.93 49.0098C156.591 49.7066 155.051 50.055 153.309 50.055H146.323L146.268 49.0098L147.946 48.6248C147.983 48.4597 148.01 47.9922 148.029 47.2221C148.065 46.452 148.084 45.5718 148.084 44.5817V39.4109C148.084 38.3291 148.065 37.4123 148.029 36.6606C148.01 35.9088 147.983 35.4687 147.946 35.3404L146.268 34.9553L146.323 33.9102ZM150.476 35.3954C150.476 35.5604 150.467 35.7896 150.449 36.083C150.449 36.358 150.44 36.7614 150.421 37.2931C150.421 37.8065 150.421 38.5125 150.421 39.4109V44.5817C150.421 45.1318 150.421 45.6543 150.421 46.1494C150.44 46.6261 150.458 47.057 150.476 47.4421C150.513 47.8271 150.541 48.148 150.559 48.4047C151.146 48.4781 151.668 48.5423 152.127 48.5973C152.603 48.6339 153.062 48.6523 153.502 48.6523C155.445 48.6523 156.922 48.1389 157.93 47.112C158.938 46.0669 159.443 44.5634 159.443 42.6014C159.443 41.4096 159.296 40.3552 159.003 39.4384C158.709 38.5033 158.269 37.724 157.682 37.1006C157.114 36.4772 156.408 36.0096 155.565 35.6979C154.74 35.3679 153.777 35.2028 152.677 35.2028C152.347 35.2028 151.998 35.2212 151.632 35.2578C151.265 35.2762 150.88 35.322 150.476 35.3954Z" fill="#F1EEF1"/>
<path d="M131.483 50.3025C129.814 50.3025 128.311 49.9999 126.972 49.3949C125.634 48.7714 124.57 47.8546 123.782 46.6445C122.993 45.4343 122.599 43.9307 122.599 42.1338C122.599 40.9786 122.801 39.8968 123.204 38.8883C123.626 37.8615 124.222 36.9539 124.992 36.1655C125.78 35.377 126.734 34.7628 127.852 34.3227C128.989 33.8826 130.282 33.6626 131.73 33.6626C132.482 33.6626 133.289 33.7359 134.151 33.8826C135.013 34.0293 135.755 34.2402 136.379 34.5152L136.544 38.1182L135.333 38.2283L134.536 35.7804C134.187 35.5237 133.72 35.3403 133.133 35.2303C132.565 35.1203 132.024 35.0653 131.51 35.0653C130.099 35.0653 128.943 35.3678 128.045 35.9729C127.146 36.5597 126.486 37.3481 126.065 38.3383C125.661 39.3284 125.46 40.4194 125.46 41.6112C125.46 43.1698 125.735 44.49 126.285 45.5718C126.853 46.6536 127.614 47.4787 128.567 48.0472C129.521 48.5972 130.594 48.8723 131.785 48.8723C132.317 48.8723 132.895 48.7989 133.518 48.6522C134.142 48.4872 134.701 48.2305 135.196 47.8821L134.536 49.4224V46.5344C134.536 45.9477 134.527 45.4251 134.508 44.9667C134.49 44.49 134.462 44.1324 134.426 43.8941L132.556 43.5915L132.611 42.4914H137.974L138.029 43.5365L136.819 43.8666C136.819 43.9582 136.819 44.1783 136.819 44.5267C136.819 44.875 136.819 45.2968 136.819 45.7918C136.819 46.4153 136.828 46.9562 136.846 47.4146C136.865 47.8546 136.883 48.313 136.901 48.7898C136.186 49.2482 135.324 49.6149 134.316 49.8899C133.326 50.165 132.381 50.3025 131.483 50.3025Z" fill="#F1EEF1"/>
<path d="M116.21 46.1219V39.961C116.21 38.8792 116.201 38.0174 116.183 37.3757C116.164 36.7156 116.146 36.2297 116.128 35.9179C116.109 35.5879 116.091 35.3954 116.073 35.3404L114.203 34.9553L114.285 33.9102H119.511L119.593 34.9553L117.888 35.3404C117.888 35.3954 117.87 35.5879 117.833 35.9179C117.815 36.2297 117.796 36.7156 117.778 37.3757C117.76 38.0174 117.751 38.8792 117.751 39.961V46.507C117.751 47.0754 117.751 47.6713 117.751 48.2947C117.751 48.8998 117.76 49.5232 117.778 50.165H116.54L106.419 36.5505H107.024V43.9216C107.024 45.0217 107.033 45.911 107.052 46.5895C107.07 47.2496 107.088 47.7355 107.107 48.0472C107.143 48.3589 107.171 48.5514 107.189 48.6248L109.059 49.0098L108.977 50.055H103.696L103.614 49.0098L105.291 48.6248C105.31 48.5514 105.328 48.3589 105.346 48.0472C105.383 47.7355 105.41 47.2496 105.429 46.5895C105.447 45.911 105.456 45.0217 105.456 43.9216V39.2184C105.456 38.3933 105.447 37.7149 105.429 37.1831C105.41 36.6514 105.392 36.2388 105.374 35.9454C105.355 35.6521 105.328 35.4504 105.291 35.3404L103.614 34.9553L103.696 33.9102H107.464L116.705 46.1219H116.21Z" fill="#F1EEF1"/>
<path d="M94.8043 50.055L94.7493 49.0098L96.427 48.6248C96.4637 48.5331 96.482 48.3222 96.482 47.9922C96.5004 47.6621 96.5095 47.2129 96.5095 46.6445C96.5279 46.0761 96.537 45.3885 96.537 44.5817V39.4109C96.537 38.5858 96.5279 37.8891 96.5095 37.3206C96.5095 36.7339 96.5004 36.2755 96.482 35.9454C96.482 35.6154 96.4637 35.4137 96.427 35.3404L94.7493 34.9553L94.8043 33.9102H100.663L100.718 34.9553L99.0399 35.3404C99.0032 35.3954 98.9665 35.5787 98.9299 35.8904C98.9115 36.1838 98.8932 36.6239 98.8749 37.2106C98.8749 37.779 98.8749 38.5125 98.8749 39.4109V44.5817C98.8749 45.4618 98.8749 46.1861 98.8749 46.7545C98.8932 47.3229 98.9115 47.763 98.9299 48.0747C98.9665 48.3681 99.0032 48.5514 99.0399 48.6248L100.718 49.0098L100.663 50.055H94.8043Z" fill="#F1EEF1"/>
<path d="M88.4706 46.1219V39.961C88.4706 38.8792 88.4614 38.0174 88.4431 37.3757C88.4247 36.7156 88.4064 36.2297 88.3881 35.9179C88.3697 35.5879 88.3514 35.3954 88.3331 35.3404L86.4628 34.9553L86.5453 33.9102H91.7711L91.8536 34.9553L90.1483 35.3404C90.1483 35.3954 90.13 35.5879 90.0933 35.9179C90.075 36.2297 90.0566 36.7156 90.0383 37.3757C90.02 38.0174 90.0108 38.8792 90.0108 39.961V46.507C90.0108 47.0754 90.0108 47.6713 90.0108 48.2947C90.0108 48.8998 90.02 49.5232 90.0383 50.165H88.8006L78.6792 36.5505H79.2843V43.9216C79.2843 45.0217 79.2934 45.911 79.3118 46.5895C79.3301 47.2496 79.3484 47.7355 79.3668 48.0472C79.4034 48.3589 79.431 48.5514 79.4493 48.6248L81.3196 49.0098L81.237 50.055H75.9563L75.8738 49.0098L77.5515 48.6248C77.5699 48.5514 77.5882 48.3589 77.6065 48.0472C77.6432 47.7355 77.6707 47.2496 77.689 46.5895C77.7074 45.911 77.7165 45.0217 77.7165 43.9216V39.2184C77.7165 38.3933 77.7074 37.7149 77.689 37.1831C77.6707 36.6514 77.6524 36.2388 77.634 35.9454C77.6157 35.6521 77.5882 35.4504 77.5515 35.3404L75.8738 34.9553L75.9563 33.9102H79.7243L88.9657 46.1219H88.4706Z" fill="#F1EEF1"/>
<path d="M66.707 50.3025C65.0384 50.3025 63.5349 49.9999 62.1964 49.3949C60.8578 48.7714 59.7944 47.8546 59.0059 46.6445C58.2175 45.4343 57.8232 43.9307 57.8232 42.1338C57.8232 40.9786 58.0249 39.8968 58.4283 38.8883C58.8501 37.8615 59.446 36.9539 60.2161 36.1655C61.0045 35.377 61.958 34.7628 63.0765 34.3227C64.2133 33.8826 65.506 33.6626 66.9546 33.6626C67.7063 33.6626 68.5131 33.7359 69.3749 33.8826C70.2367 34.0293 70.9793 34.2402 71.6027 34.5152L71.7677 38.1182L70.5576 38.2283L69.7599 35.7804C69.4116 35.5237 68.944 35.3403 68.3573 35.2303C67.7888 35.1203 67.2479 35.0653 66.7345 35.0653C65.3227 35.0653 64.1675 35.3678 63.269 35.9729C62.3706 36.5597 61.7105 37.3481 61.2887 38.3383C60.8853 39.3284 60.6836 40.4194 60.6836 41.6112C60.6836 43.1698 60.9587 44.49 61.5088 45.5718C62.0772 46.6536 62.8381 47.4787 63.7916 48.0472C64.7451 48.5972 65.8177 48.8723 67.0096 48.8723C67.5413 48.8723 68.1189 48.7989 68.7423 48.6522C69.3657 48.4872 69.925 48.2305 70.42 47.8821L69.7599 49.4224V46.5344C69.7599 45.9477 69.7508 45.4251 69.7324 44.9667C69.7141 44.49 69.6866 44.1324 69.6499 43.8941L67.7797 43.5915L67.8347 42.4914H73.1979L73.253 43.5365L72.0428 43.8666C72.0428 43.9582 72.0428 44.1783 72.0428 44.5267C72.0428 44.875 72.0428 45.2968 72.0428 45.7918C72.0428 46.4153 72.0519 46.9562 72.0703 47.4146C72.0886 47.8546 72.107 48.313 72.1253 48.7898C71.4102 49.2482 70.5484 49.6149 69.5399 49.8899C68.5498 50.165 67.6055 50.3025 66.707 50.3025Z" fill="#F1EEF1"/>
<path d="M48.9041 50.055L48.8491 49.0098L50.5269 48.6248C50.5635 48.5331 50.5819 48.3222 50.5819 47.9922C50.6002 47.6621 50.6094 47.2129 50.6094 46.6445C50.6277 46.0761 50.6369 45.3885 50.6369 44.5817V39.4109C50.6369 38.5858 50.6277 37.8891 50.6094 37.3206C50.6094 36.7339 50.6002 36.2755 50.5819 35.9454C50.5819 35.6154 50.5635 35.4137 50.5269 35.3404L48.8491 34.9553L48.9041 33.9102H54.7625L54.8175 34.9553L53.1397 35.3404C53.1031 35.3954 53.0664 35.5787 53.0297 35.8904C53.0114 36.1838 52.993 36.6239 52.9747 37.2106C52.9747 37.779 52.9747 38.5125 52.9747 39.4109V44.5817C52.9747 45.4618 52.9747 46.1861 52.9747 46.7545C52.993 47.3229 53.0114 47.763 53.0297 48.0747C53.0664 48.3681 53.1031 48.5514 53.1397 48.6248L54.8175 49.0098L54.7625 50.055H48.9041Z" fill="#F1EEF1"/>
<path d="M40.2325 50.3026C39.444 50.3026 38.6189 50.2018 37.7571 50.0001C36.8953 49.7984 36.1986 49.5417 35.6668 49.23L35.5293 45.682L36.712 45.572L37.4821 48.0198C37.9221 48.3132 38.408 48.5424 38.9398 48.7074C39.4715 48.8541 40.0399 48.9274 40.645 48.9274C41.5618 48.9274 42.2861 48.7074 42.8178 48.2674C43.3679 47.8273 43.643 47.2314 43.643 46.4796C43.643 45.8378 43.4504 45.3061 43.0654 44.8844C42.6803 44.4443 42.1761 44.0684 41.5527 43.7567C40.9476 43.445 40.2966 43.1333 39.5999 42.8216C38.9214 42.5099 38.2705 42.1615 37.6471 41.7764C37.042 41.373 36.5469 40.8871 36.1619 40.3187C35.7768 39.732 35.5843 39.0077 35.5843 38.1459C35.5843 37.2474 35.8318 36.4682 36.3269 35.8081C36.822 35.1296 37.5096 34.5979 38.3897 34.2128C39.2882 33.8278 40.3058 33.6353 41.4426 33.6353C41.9194 33.6353 42.3778 33.6628 42.8178 33.7178C43.2762 33.7544 43.698 33.8186 44.083 33.9103C44.4681 34.002 44.8165 34.1212 45.1282 34.2678L45.3482 37.7058L44.1655 37.8159L43.3954 35.5055C42.827 35.1388 42.0752 34.9554 41.1401 34.9554C40.205 34.9554 39.4532 35.1846 38.8848 35.643C38.3347 36.0831 38.0597 36.679 38.0597 37.4308C38.0597 38.0909 38.2522 38.641 38.6372 39.081C39.0406 39.5211 39.5449 39.9062 40.15 40.2362C40.7734 40.5662 41.4243 40.8871 42.1027 41.1988C42.7995 41.5105 43.4504 41.8589 44.0555 42.244C44.6789 42.629 45.1832 43.1058 45.5682 43.6742C45.9716 44.2243 46.1733 44.9119 46.1733 45.737C46.1733 46.6171 45.9166 47.4056 45.4032 48.1023C44.9081 48.7808 44.2114 49.3217 43.3129 49.7251C42.4144 50.1101 41.3876 50.3026 40.2325 50.3026Z" fill="#F1EEF1"/>
<path d="M31.7807 50.1926C31.2489 50.1376 30.7722 50.101 30.3505 50.0826C29.9471 50.0643 29.562 50.0551 29.1953 50.0551H19.7615L19.679 49.01L21.3842 48.6249C21.4209 48.5332 21.4392 48.3224 21.4392 47.9923C21.4575 47.6623 21.4667 47.213 21.4667 46.6446C21.485 46.0762 21.4942 45.3886 21.4942 44.5818V39.4111C21.4942 38.586 21.485 37.8892 21.4667 37.3208C21.4667 36.734 21.4575 36.2756 21.4392 35.9456C21.4392 35.6156 21.4209 35.4139 21.3842 35.3405L19.679 34.9555L19.7615 33.9103H28.5902C28.8469 33.9103 29.1128 33.9103 29.3878 33.9103C29.6812 33.892 29.9929 33.8736 30.323 33.8553C30.653 33.837 30.9922 33.8186 31.3406 33.8003L31.8907 37.4308L30.653 37.6233L29.7454 35.313C29.5987 35.2763 29.4337 35.258 29.2503 35.258C29.067 35.2397 28.8744 35.2305 28.6727 35.2305H25.5648C25.2164 35.2305 24.9047 35.2397 24.6297 35.258C24.373 35.258 24.1163 35.2763 23.8596 35.313C23.8596 35.3864 23.8504 35.5972 23.8321 35.9456C23.8321 36.2756 23.8229 36.6607 23.8045 37.1008C23.8045 37.5408 23.8045 37.9809 23.8045 38.421V45.847C23.8045 46.2137 23.8045 46.5896 23.8045 46.9747C23.8229 47.3414 23.8321 47.6714 23.8321 47.9648C23.8504 48.2582 23.8596 48.4599 23.8596 48.5699C24.1163 48.5882 24.3821 48.6066 24.6572 48.6249C24.9505 48.6433 25.2714 48.6524 25.6198 48.6524H28.2877C28.6911 48.6524 29.0211 48.6524 29.2778 48.6524C29.5345 48.6341 29.7362 48.6157 29.8829 48.5974C30.0296 48.5791 30.1488 48.5607 30.2405 48.5424L31.6707 45.9295L32.9083 46.1771L31.7807 50.1926ZM28.7277 44.4168L28.3977 42.5465C28.306 42.5099 28.1502 42.4824 27.9301 42.464C27.7101 42.4457 27.4442 42.4365 27.1325 42.4365H25.0422C24.8039 42.4365 24.5472 42.4457 24.2721 42.464C23.9971 42.4824 23.7037 42.5007 23.392 42.519V41.0063C23.7037 41.0247 23.9971 41.043 24.2721 41.0613C24.5472 41.0613 24.8039 41.0613 25.0422 41.0613H27.1325C27.4442 41.0613 27.7101 41.0522 27.9301 41.0338C28.1502 41.0155 28.306 40.9972 28.3977 40.9788L28.7277 39.081H29.9104V44.4168H28.7277Z" fill="#F1EEF1"/>
<path d="M0.665848 33.9102H7.3218C10.2189 33.9102 12.4742 34.6069 14.0878 36.0005C15.7197 37.3757 16.5356 39.3101 16.5356 41.8038C16.5356 43.4174 16.1597 44.8476 15.408 46.0944C14.6562 47.3229 13.611 48.2947 12.2725 49.0098C10.934 49.7066 9.39377 50.055 7.65185 50.055H0.665848L0.61084 49.0098L2.28858 48.6248C2.32525 48.4597 2.35276 47.9922 2.37109 47.2221C2.40776 46.452 2.4261 45.5718 2.4261 44.5817V39.4109C2.4261 38.3291 2.40776 37.4123 2.37109 36.6606C2.35276 35.9088 2.32525 35.4687 2.28858 35.3404L0.61084 34.9553L0.665848 33.9102ZM4.81894 35.3954C4.81894 35.5604 4.80978 35.7896 4.79144 36.083C4.79144 36.358 4.78227 36.7614 4.76394 37.2931C4.76394 37.8065 4.76394 38.5125 4.76394 39.4109V44.5817C4.76394 45.1318 4.76394 45.6543 4.76394 46.1494C4.78227 46.6261 4.80061 47.057 4.81894 47.4421C4.85561 47.8271 4.88312 48.148 4.90145 48.4047C5.48821 48.4781 6.01078 48.5423 6.46918 48.5973C6.94591 48.6339 7.40431 48.6523 7.84438 48.6523C9.78799 48.6523 11.264 48.1389 12.2725 47.112C13.281 46.0669 13.7852 44.5634 13.7852 42.6014C13.7852 41.4096 13.6385 40.3552 13.3452 39.4384C13.0518 38.5033 12.6117 37.724 12.025 37.1006C11.4566 36.4772 10.7506 36.0096 9.90717 35.6979C9.08205 35.3679 8.11942 35.2028 7.01926 35.2028C6.68921 35.2028 6.34083 35.2212 5.97411 35.2578C5.60739 35.2762 5.22233 35.322 4.81894 35.3954Z" fill="#F1EEF1"/>
</svg>
