<svg width="567" height="128" viewBox="0 0 567 128" fill="none" xmlns="http://www.w3.org/2000/svg">
<path d="M177.072 21.918C178.389 21.8047 179.494 21.4931 180.372 20.9974C181.265 20.4875 181.902 19.7227 182.299 18.6888C182.695 17.6548 182.823 16.281 182.681 14.5814L182.171 8.57603C182.129 8.06615 182.1 7.61292 182.114 7.2305C182.114 6.84809 182.143 6.52233 182.185 6.25322C182.214 6.16824 182.355 6.0691 182.624 5.96995C182.894 5.87081 183.177 5.77166 183.489 5.67252C183.8 5.57337 183.998 5.53088 184.098 5.51672C184.168 5.51672 184.183 5.40341 184.168 5.21929C184.168 5.10598 184.126 4.97851 184.083 4.85104C183.97 4.85104 183.588 4.92185 182.95 5.021C182.299 5.12014 181.76 5.19096 181.321 5.23345C181.024 5.26178 180.67 5.27594 180.273 5.2901C179.862 5.2901 179.494 5.30427 179.14 5.30427C178.786 5.30427 178.545 5.30427 178.389 5.33259C178.332 5.40341 178.304 5.53088 178.318 5.71501C178.332 5.9133 178.375 6.01244 178.446 5.99828C178.601 5.99828 178.814 5.99828 179.126 6.02661C179.423 6.05493 179.706 6.11159 179.99 6.16824C180.273 6.22489 180.415 6.30988 180.457 6.40902C180.613 6.8056 180.726 7.52794 180.811 8.56187L181.335 14.7372C181.647 18.448 180.4 20.4167 177.582 20.6575C176.137 20.785 174.961 20.3176 174.083 19.2836C173.204 18.2497 172.68 16.7909 172.524 14.9354L172.057 9.42584C171.972 8.44856 171.986 7.68373 172.085 7.10303C172.114 7.01805 172.227 6.93307 172.439 6.83392C172.652 6.74894 172.879 6.66396 173.119 6.57898C173.36 6.494 173.53 6.45151 173.629 6.45151C173.7 6.45151 173.714 6.32404 173.7 6.0691C173.7 5.96995 173.672 5.85664 173.615 5.72917C172.794 5.82832 172.142 5.9133 171.675 5.98412C171.207 6.05493 170.895 6.08326 170.768 6.09742L167.793 6.22489C167.737 6.29571 167.708 6.43735 167.722 6.63564C167.737 6.84809 167.779 6.94723 167.85 6.94723C167.992 6.94723 168.204 6.94723 168.445 6.97556C168.7 7.00389 168.926 7.04638 169.153 7.10303C169.38 7.15969 169.507 7.2305 169.55 7.32965C169.635 7.5421 169.706 7.82537 169.762 8.19362C169.819 8.56187 169.861 9.00094 169.904 9.51083L170.371 15.1196C170.584 17.6832 171.278 19.5103 172.425 20.5725C173.573 21.6348 175.131 22.088 177.1 21.918H177.072ZM198.702 18.9295C198.702 19.057 198.631 19.1845 198.461 19.312C198.291 19.4253 198.107 19.5244 197.881 19.5952C197.654 19.666 197.47 19.7085 197.3 19.7227C197.229 19.7227 197.215 19.8218 197.229 20.0201C197.229 20.2326 197.286 20.3742 197.356 20.4309L200.954 20.0485L203.561 19.9918C203.589 19.8927 203.603 19.7794 203.589 19.6661C203.575 19.3969 203.518 19.2695 203.433 19.2836C202.966 19.312 202.499 19.2695 202.031 19.1278C201.564 19.0004 201.195 18.7738 200.94 18.4622L195.685 11.5645L199.906 5.14847C200.005 4.99267 200.218 4.85104 200.53 4.72356C200.841 4.59609 201.167 4.48278 201.507 4.41197C201.847 4.34115 202.088 4.2845 202.229 4.27033C202.286 4.27033 202.3 4.15702 202.3 3.95874C202.3 3.74628 202.272 3.61881 202.229 3.54799C201.408 3.63297 200.77 3.71796 200.303 3.77461C199.85 3.83126 199.566 3.85959 199.467 3.87375C199.184 3.88792 198.787 3.90208 198.263 3.91625C197.739 3.91625 197.087 3.94457 196.308 3.9729C196.252 4.04372 196.223 4.17119 196.237 4.36948C196.252 4.58193 196.294 4.69524 196.365 4.68107C196.847 4.65275 197.257 4.69524 197.611 4.83687C197.966 4.97851 198.136 5.13431 198.15 5.31843C198.178 5.72917 198.051 6.12575 197.781 6.50816C197.512 6.89058 197.158 7.40046 196.747 8.05199C196.563 8.30693 196.422 8.53354 196.308 8.68934C196.195 8.8593 196.082 9.0151 195.982 9.1709C195.883 9.3267 195.727 9.55332 195.529 9.85075L194.991 10.6581L191.846 6.52233C191.634 6.23906 191.506 5.99828 191.492 5.79999C191.478 5.51672 191.634 5.30427 191.974 5.16263C192.314 5.021 192.625 4.93602 192.923 4.90769C192.979 4.90769 192.994 4.79438 192.994 4.59609C192.994 4.38364 192.965 4.25617 192.923 4.18535C192.101 4.27033 191.421 4.35531 190.897 4.42613C190.373 4.49695 189.99 4.52527 189.764 4.52527L186.662 4.62442C186.662 4.62442 186.577 4.82271 186.591 5.021C186.605 5.23345 186.647 5.34676 186.718 5.33259C187.214 5.30427 187.681 5.40341 188.135 5.63003C188.73 5.89913 189.31 6.43735 189.891 7.21634L193.73 12.2727L188.914 19.5669C188.687 19.836 188.361 20.0343 187.936 20.1759C187.511 20.3176 187.129 20.3884 186.789 20.4167C186.718 20.4167 186.704 20.5584 186.718 20.8133C186.718 20.8841 186.718 20.9408 186.747 20.9833C186.747 21.0257 186.775 21.0824 186.789 21.1249C187.611 21.0399 188.276 20.9549 188.786 20.8983C189.296 20.8416 189.636 20.7991 189.82 20.785C189.99 20.785 190.302 20.7566 190.77 20.7566C191.237 20.7566 191.86 20.7283 192.625 20.7141C192.654 20.6433 192.668 20.5442 192.654 20.3884C192.639 20.1193 192.597 19.9918 192.526 20.006C192.016 20.0485 191.605 20.006 191.279 19.8502C190.968 19.7085 190.798 19.5669 190.784 19.3969C190.755 19.0853 191.974 17.0033 194.424 13.1792L198.532 18.5896C198.617 18.7171 198.674 18.8162 198.674 18.8729L198.702 18.9295ZM219.157 17.5557C219.228 17.2158 219.299 16.8334 219.384 16.3943C219.455 15.9552 219.511 15.5445 219.568 15.1762C219.61 14.808 219.639 14.5814 219.625 14.4822L219.497 14.4114C219.412 14.3689 219.299 14.3406 219.157 14.3122C219.015 14.2981 218.902 14.2839 218.803 14.2981C218.718 14.2981 218.647 14.4539 218.576 14.7372C218.506 15.0204 218.406 15.3603 218.279 15.7428C218.151 16.1252 217.967 16.4793 217.712 16.7625C216.876 17.7681 215.644 18.3205 214.001 18.4197C212.627 18.4905 211.423 18.193 210.389 17.5132C209.355 16.8334 208.561 15.9552 208.037 14.8505C207.513 13.7882 207.216 12.5701 207.131 11.1963C207.074 10.304 207.187 9.44001 207.428 8.5902C207.683 7.74039 208.051 6.97556 208.547 6.28155C209.043 5.58754 209.638 5.03516 210.332 4.61026C211.026 4.18535 211.763 3.94457 212.57 3.90208C213.647 3.84543 214.553 3.95874 215.304 4.24201C216.055 4.52528 216.65 4.95018 217.075 5.50256C217.33 5.85664 217.5 6.13991 217.585 6.35237C217.67 6.56482 217.741 6.79143 217.811 7.00389C217.868 7.08887 217.981 7.11719 218.137 7.10303C218.491 7.08887 218.647 6.94723 218.633 6.70645L218.477 3.13725C217.443 2.98145 216.423 2.88231 215.403 2.83982C214.397 2.79733 213.392 2.79733 212.429 2.85398C211.295 2.9248 210.247 3.20807 209.284 3.70379C208.321 4.19951 207.499 4.8652 206.805 5.70085C206.111 6.52233 205.572 7.47128 205.218 8.51938C204.864 9.58164 204.722 10.6864 204.779 11.862C204.836 12.9667 205.105 14.0007 205.558 14.9638C206.026 15.9269 206.635 16.7484 207.386 17.4565C208.151 18.1647 209.015 18.7029 209.992 19.0712C210.969 19.4536 212.004 19.6094 213.08 19.5386C215.8 19.3828 217.755 18.9154 218.93 18.1222C218.973 18.0797 219.044 17.8956 219.115 17.5699L219.157 17.5557ZM236.821 17.5132C236.581 17.4565 236.34 17.3574 236.113 17.2441C235.887 17.1308 235.731 16.9892 235.66 16.8334C235.575 16.6209 235.447 16.366 235.32 16.0827C235.178 15.7853 235.037 15.4595 234.867 15.0912L229.356 2.21663L229.13 2.14581C228.86 2.14581 228.676 2.23079 228.563 2.37242C228.45 2.51406 228.35 2.69818 228.237 2.93896C228.166 3.12309 228.11 3.25056 228.095 3.33554C228.081 3.42052 228.053 3.5055 228.039 3.60465C228.025 3.70379 227.968 3.87375 227.869 4.1287L224.03 15.3887C223.846 15.9552 223.662 16.4368 223.478 16.8334C223.308 17.2158 223.138 17.5415 222.953 17.7681C222.84 17.9239 222.642 18.0514 222.33 18.1364C222.019 18.2355 221.764 18.278 221.565 18.2922C221.494 18.2922 221.466 18.4055 221.48 18.6463C221.48 18.8304 221.523 18.9437 221.594 19.0145C221.976 18.9579 222.373 18.9154 222.812 18.8446C223.251 18.7879 223.69 18.7596 224.158 18.7738H226.721C226.721 18.7738 226.764 18.5613 226.736 18.363C226.707 18.1647 226.679 18.0656 226.636 18.0656C226.481 18.0656 226.24 18.0514 225.914 17.9806C225.588 17.9098 225.333 17.839 225.177 17.7257C225.036 17.6265 224.965 17.4707 224.951 17.2441C224.951 17.0741 224.951 16.8617 225.007 16.5784C225.064 16.2951 225.149 15.9411 225.305 15.5303L226.254 12.7543L226.367 12.6693C226.991 12.6126 227.571 12.556 228.081 12.5135C228.605 12.471 229.073 12.4285 229.498 12.4143C230.107 12.386 230.744 12.386 231.382 12.4143C231.439 12.4143 231.481 12.4427 231.538 12.5135L232.784 15.5445C232.855 15.7003 232.926 15.9269 232.983 16.2243C233.039 16.5076 233.082 16.7625 233.096 16.975C233.096 17.0458 233.096 17.1025 233.096 17.1733C233.096 17.2441 233.082 17.3007 233.068 17.3716C233.025 17.499 232.855 17.6265 232.558 17.7115C232.26 17.8106 232.019 17.8531 231.821 17.8673C231.75 17.8673 231.722 17.9806 231.722 18.1789C231.722 18.3913 231.764 18.5188 231.821 18.5896L234.697 18.3488C234.782 18.3488 235.051 18.3488 235.504 18.3488C235.957 18.3488 236.595 18.3488 237.431 18.3488C237.431 18.2922 237.459 18.2497 237.459 18.2072C237.459 18.1647 237.459 18.1222 237.459 18.0939C237.459 17.7823 237.402 17.6265 237.346 17.6265C237.218 17.6265 237.02 17.5982 236.779 17.5415L236.821 17.5132ZM230.886 11.083C230.121 11.168 229.385 11.2246 228.634 11.2529C228.464 11.2529 228.237 11.2529 227.954 11.2671C227.656 11.2671 227.302 11.2671 226.877 11.2671C226.849 11.2671 226.821 11.2388 226.821 11.168L228.719 5.55921L230.957 10.9413L230.886 11.0688V11.083ZM255.109 4.14286C255.109 4.14286 255.236 4.22784 255.293 4.3978C255.35 4.56777 255.392 4.76605 255.449 4.99267C255.491 5.21929 255.52 5.41758 255.534 5.6017L256.072 14.3122L256.101 15.6295C256.115 16.2102 256.03 16.5642 255.831 16.7059C255.69 16.7909 255.449 16.8758 255.109 16.975C254.769 17.06 254.528 17.1166 254.358 17.1166C254.287 17.1166 254.259 17.2299 254.273 17.4424C254.273 17.6407 254.316 17.7681 254.387 17.839L257.361 17.6407C257.531 17.6407 257.857 17.6407 258.339 17.6407C258.82 17.6407 259.486 17.669 260.308 17.669C260.336 17.5415 260.35 17.4141 260.35 17.3007C260.35 17.0741 260.308 16.9608 260.237 16.9608C260.124 16.9608 259.939 16.9467 259.67 16.9042C259.415 16.8617 259.174 16.805 258.962 16.72C258.75 16.6492 258.608 16.5501 258.551 16.4509C258.325 15.8986 258.183 15.1337 258.112 14.1848L257.616 4.1287C257.588 3.16558 257.673 2.6132 257.871 2.45741C258.013 2.3441 258.24 2.21663 258.537 2.10332C258.835 1.99001 259.075 1.93336 259.245 1.91919H259.302C259.387 1.91919 259.415 1.80588 259.415 1.5651C259.415 1.46596 259.387 1.33849 259.33 1.19685C258.92 1.23934 258.48 1.28184 258.013 1.31016C257.545 1.33849 257.064 1.36682 256.554 1.38098C256.384 1.38098 256.143 1.38098 255.803 1.38098C255.463 1.38098 255.024 1.36682 254.5 1.33849L253.593 4.34115C253.14 5.57337 252.616 6.98972 252.021 8.57603C251.426 10.1623 250.732 11.9186 249.981 13.8449C249.967 13.9157 249.924 13.944 249.854 13.944C249.825 13.944 249.783 13.9298 249.754 13.9015C246.397 6.0691 244.655 1.97585 244.513 1.62176C244.046 1.66425 243.635 1.70674 243.267 1.74923C242.898 1.77756 242.558 1.80588 242.233 1.82005C241.737 1.82005 241.241 1.82005 240.774 1.82005C240.292 1.80588 239.853 1.79172 239.456 1.77756C239.4 1.84837 239.357 1.97585 239.371 2.14581C239.371 2.37242 239.414 2.48573 239.485 2.48573C239.654 2.48573 239.881 2.48573 240.179 2.54239C240.476 2.59904 240.759 2.64153 241.014 2.71235C241.269 2.78317 241.425 2.86815 241.454 2.96729C241.524 3.17974 241.567 3.5055 241.581 3.95874C241.581 4.24201 241.581 4.87936 241.581 5.85664C241.581 6.84809 241.581 8.09448 241.581 9.62413C241.581 11.1538 241.581 12.8817 241.609 14.7938C241.609 15.9411 241.496 16.6634 241.227 16.9608C241.128 17.06 240.958 17.1591 240.717 17.2441C240.476 17.3291 240.221 17.3999 239.952 17.4565C239.683 17.5132 239.47 17.5415 239.315 17.5415C239.23 17.5415 239.201 17.6548 239.201 17.8956C239.201 18.0656 239.258 18.1789 239.329 18.2639L242.233 18.0656C242.36 18.0656 242.672 18.0656 243.153 18.0656C243.635 18.0656 244.287 18.0939 245.108 18.0939C245.137 17.9664 245.151 17.839 245.151 17.7398C245.151 17.4849 245.108 17.3716 245.037 17.3716C244.938 17.3716 244.74 17.3574 244.457 17.3007C244.159 17.2441 243.89 17.1874 243.621 17.1025C243.352 17.0175 243.182 16.9325 243.125 16.8617C243.026 16.7342 242.969 16.5218 242.955 16.2243C242.955 16.0402 242.955 15.4028 242.955 14.2839C242.955 13.1792 242.983 11.7062 242.998 9.87908C243.012 8.05199 243.012 5.96995 242.998 3.64714L249.06 17.9239C249.188 17.9523 249.273 17.9664 249.287 17.9664C249.584 17.9664 249.882 17.5982 250.179 16.8758L255.024 4.34115C255.067 4.22784 255.109 4.17119 255.137 4.17119L255.109 4.14286ZM262.503 2.00417C262.659 2.00417 262.858 2.01834 263.112 2.07499C263.367 2.11748 263.608 2.1883 263.835 2.25912C264.062 2.3441 264.189 2.42908 264.217 2.52822C264.288 2.74067 264.331 3.02394 264.373 3.3922C264.416 3.76045 264.43 4.17119 264.43 4.65275L264.586 14.029C264.614 15.4028 264.557 16.1818 264.444 16.366C264.402 16.4651 264.26 16.5501 264.033 16.6351C263.807 16.7059 263.58 16.7767 263.339 16.8334C263.098 16.89 262.9 16.9183 262.73 16.9183C262.673 16.9183 262.659 17.0316 262.659 17.2441C262.659 17.499 262.688 17.6407 262.744 17.6832L265.761 17.5132C266.016 17.5132 266.399 17.5132 266.937 17.5274C267.475 17.5415 268.155 17.5557 268.991 17.584C269.019 17.4565 269.034 17.3291 269.034 17.2158C269.034 16.9891 268.991 16.8617 268.935 16.8758C268.807 16.8758 268.58 16.8475 268.283 16.805C267.985 16.7484 267.702 16.6634 267.447 16.5642C267.192 16.4651 267.022 16.3376 266.951 16.196C266.81 15.8561 266.739 15.1337 266.725 14.0431L266.583 5.19096C266.583 4.38364 266.583 3.73212 266.583 3.2364C266.597 2.74067 266.682 2.48573 266.824 2.45741C267.22 2.32993 267.801 2.27328 268.552 2.25912C269.629 2.24495 270.422 2.57071 270.946 3.25056C271.47 3.93041 271.739 4.85104 271.753 6.02661C271.753 6.6498 271.64 7.24467 271.371 7.78288C271.102 8.32109 270.748 8.76016 270.294 9.08592C269.841 9.41168 269.345 9.58164 268.779 9.59581C268.184 9.59581 267.631 9.52499 267.107 9.35503C267.093 9.3267 267.065 9.35503 267.036 9.42584C266.994 9.69495 267.022 9.87908 267.121 9.99238C267.475 10.4456 268.113 10.6722 269.048 10.6581C269.869 10.6581 270.606 10.4739 271.229 10.1482C271.867 9.82242 272.377 9.41168 272.802 8.90179C273.212 8.39191 273.524 7.83953 273.737 7.25883C273.935 6.67813 274.034 6.12575 274.034 5.61586C274.034 4.80855 273.85 4.10037 273.51 3.49134C273.184 2.88231 272.745 2.41491 272.207 2.10332C271.683 1.77756 271.144 1.53678 270.578 1.38098C270.011 1.22518 269.459 1.15436 268.906 1.15436C268.68 1.15436 268.41 1.15436 268.113 1.18269C267.815 1.21102 267.504 1.21102 267.164 1.23934C266.824 1.26767 266.526 1.28184 266.229 1.296C265.931 1.31016 265.662 1.32433 265.407 1.32433H262.433C262.433 1.32433 262.333 1.53678 262.333 1.74923C262.333 1.94752 262.376 2.04666 262.433 2.04666L262.503 2.00417ZM283.638 1.74923C283.992 1.84837 284.233 2.00417 284.346 2.1883C284.672 2.68402 285.026 3.49134 285.423 4.58193L290.296 17.4849C290.339 17.584 290.423 17.6407 290.537 17.6407C290.905 17.6407 291.188 17.3716 291.415 16.8334L296.571 5.06349C296.798 4.5536 297.01 4.08621 297.223 3.67547C297.435 3.26472 297.634 2.88231 297.818 2.52822C298.073 2.07499 298.569 1.84837 299.319 1.86254C299.39 1.86254 299.419 1.74923 299.419 1.52261C299.419 1.40931 299.419 1.28184 299.376 1.15436L296.869 1.23934C296.755 1.23934 296.472 1.22518 296.033 1.18269C295.594 1.15436 294.985 1.11187 294.206 1.06938C294.135 1.1402 294.107 1.26767 294.107 1.46596C294.107 1.67841 294.135 1.79172 294.206 1.79172C294.39 1.79172 294.616 1.83421 294.886 1.89087C295.155 1.94752 295.396 2.06083 295.608 2.20246C295.821 2.3441 295.92 2.54239 295.92 2.79733C295.92 3.16558 295.75 3.73212 295.424 4.52527L291.557 13.4341C291.528 13.5191 291.458 13.5757 291.373 13.6182C291.273 13.6607 291.217 13.6324 291.16 13.5474C291.033 13.2358 290.891 12.8534 290.721 12.4143C290.551 11.9753 290.367 11.4654 290.14 10.8988C288.143 5.77166 287.137 2.96729 287.151 2.48573C287.151 2.20246 287.321 2.00417 287.661 1.8767C288.001 1.74923 288.313 1.69258 288.639 1.69258C288.695 1.69258 288.724 1.59343 288.724 1.38098C288.724 1.16853 288.724 1.04106 288.695 0.970238C287.874 0.984402 287.194 1.01273 286.684 1.02689C286.174 1.04106 285.82 1.05522 285.621 1.04106C285.111 1.04106 284.601 1.01273 284.106 0.970238C283.61 0.927748 283.171 0.899421 282.774 0.871094C282.703 0.941911 282.675 1.06938 282.675 1.26767C282.675 1.48012 282.703 1.59343 282.774 1.59343C282.987 1.59343 283.27 1.65009 283.638 1.74923ZM305.411 1.23934C304.929 1.25351 304.617 1.26767 304.49 1.26767L301.515 1.09771C301.515 1.09771 301.416 1.296 301.416 1.49429C301.416 1.70674 301.444 1.82005 301.515 1.82005C301.657 1.82005 301.869 1.84837 302.11 1.90503C302.351 1.96168 302.592 2.01834 302.804 2.10332C303.017 2.17414 303.144 2.27328 303.172 2.37242C303.229 2.58488 303.272 2.88231 303.3 3.25056C303.314 3.61881 303.328 4.07204 303.314 4.58193L303.158 14.1989C303.158 14.7088 303.13 15.1479 303.102 15.5161C303.073 15.8844 303.017 16.1818 302.946 16.4084C302.917 16.4934 302.79 16.5784 302.563 16.6492C302.351 16.7342 302.11 16.7909 301.869 16.8192C301.628 16.8617 301.416 16.8758 301.274 16.8758C301.203 16.8758 301.175 16.9891 301.175 17.2158C301.175 17.3999 301.203 17.5274 301.274 17.584L304.249 17.5132C304.376 17.5132 304.688 17.5274 305.17 17.5699C305.651 17.6123 306.303 17.6407 307.125 17.6832C307.167 17.5557 307.181 17.4424 307.181 17.3432C307.181 17.1025 307.153 16.975 307.082 16.975C306.983 16.975 306.813 16.9467 306.558 16.89C306.317 16.8334 306.076 16.7625 305.864 16.6776C305.651 16.5926 305.524 16.5218 305.496 16.4509C305.354 15.8702 305.297 15.1054 305.311 14.1423L305.467 4.72356C305.481 3.74628 305.566 2.98145 305.722 2.41491C305.751 2.32993 305.878 2.25912 306.105 2.1883C306.317 2.11748 306.558 2.06083 306.799 2.00417C307.054 1.94752 307.224 1.91919 307.323 1.91919C307.394 1.91919 307.422 1.80588 307.422 1.57927C307.422 1.46596 307.422 1.33849 307.38 1.21102C306.558 1.22518 305.892 1.25351 305.425 1.26767L305.411 1.23934ZM314.476 17.7681C315.213 17.7965 316.049 17.8248 316.955 17.8673C317.862 17.9098 318.655 17.9381 319.321 17.9664C319.987 17.9948 320.525 18.0089 320.95 18.0231C320.993 17.7823 321.063 17.4565 321.191 17.0883C321.318 16.7059 321.432 16.3801 321.531 16.0827C321.602 15.8844 321.687 15.6436 321.8 15.3745C321.913 15.0912 322.012 14.8221 322.126 14.553C322.239 14.2839 322.324 14.0856 322.381 13.9582C322.282 13.859 322.083 13.8024 321.757 13.7882C321.559 13.7882 321.446 13.8307 321.403 13.9298C321.205 14.553 320.95 15.0912 320.638 15.5303C320.327 15.9835 320.043 16.2668 319.788 16.3943C319.222 16.6634 318.174 16.7767 316.658 16.7342L315.468 16.7059C314.391 16.6776 313.839 16.5784 313.782 16.4226C313.641 15.9835 313.584 15.2329 313.612 14.1565L313.711 10.3181C313.711 10.1623 314.306 10.1057 315.496 10.134C317.012 10.1765 317.89 10.2615 318.117 10.4031C318.216 10.4739 318.287 10.5164 318.329 10.5589C318.372 10.5873 318.429 10.7289 318.499 10.9555C318.528 11.0688 318.57 11.2104 318.613 11.3804C318.655 11.5504 318.712 11.7487 318.769 11.9753C318.811 12.1027 318.939 12.1736 319.165 12.1877C319.363 12.1877 319.491 12.1594 319.562 12.1027L319.675 7.41463C319.59 7.32965 319.448 7.28716 319.25 7.28716C319.024 7.28716 318.896 7.34381 318.868 7.45712C318.797 7.68373 318.712 7.98117 318.613 8.33526C318.514 8.68934 318.386 8.87347 318.216 8.90179C317.947 8.95845 317.777 9.00094 317.678 9.04343C317.579 9.07176 317.437 9.08592 317.239 9.10008C317.04 9.10008 316.658 9.10008 316.091 9.08592L314.774 9.05759C314.066 9.04343 313.711 8.98678 313.711 8.88763L313.811 4.92185C313.811 4.42613 313.839 4.00123 313.881 3.6613C313.924 3.32138 313.952 3.03811 313.995 2.83982C314.009 2.62737 314.746 2.54239 316.19 2.57071L317.848 2.6132C318.627 2.62737 319.236 2.769 319.675 3.03811C320.114 3.30721 320.454 3.90208 320.681 4.80855C320.681 4.92185 320.808 4.97851 321.021 4.99267C321.233 4.99267 321.389 4.96434 321.474 4.87936C321.474 4.78022 321.432 4.61026 321.375 4.35531C321.318 4.10037 321.262 3.78877 321.191 3.37803C321.106 2.99562 321.021 2.64153 320.964 2.31577C320.908 1.99001 320.865 1.7209 320.837 1.48012C320.369 1.48012 319.803 1.46596 319.109 1.46596C318.414 1.46596 317.621 1.46596 316.686 1.48012C315.78 1.48012 315.001 1.49429 314.349 1.49429C313.697 1.49429 313.187 1.49429 312.819 1.49429C312.252 1.49429 311.728 1.46596 311.247 1.43763C310.765 1.42347 310.298 1.39514 309.873 1.36682C309.802 1.43763 309.773 1.56511 309.759 1.79172C309.759 1.99001 309.788 2.08915 309.844 2.08915C310 2.08915 310.198 2.11748 310.453 2.17414C310.708 2.23079 310.949 2.30161 311.162 2.38659C311.388 2.47157 311.516 2.57071 311.544 2.66986C311.601 2.88231 311.643 3.17974 311.658 3.53383C311.672 3.90208 311.672 4.32699 311.658 4.79438L311.431 14.1706C311.403 15.5445 311.318 16.3235 311.204 16.4934C311.148 16.5926 311.02 16.6776 310.793 16.7625C310.567 16.8334 310.326 16.9042 310.085 16.9608C309.83 17.0175 309.632 17.0316 309.49 17.0316C309.434 17.0316 309.419 17.1308 309.405 17.3574C309.405 17.5699 309.419 17.7115 309.476 17.754H312.479C313.06 17.754 313.726 17.7823 314.462 17.8106L314.476 17.7681ZM333.586 3.44885C333.671 3.20807 334.591 3.10893 336.32 3.17974C336.943 3.20807 337.439 3.27889 337.779 3.3922C338.119 3.5055 338.388 3.73212 338.558 4.05788C338.728 4.38364 338.883 4.85104 339.011 5.48839C339.039 5.57337 339.124 5.61586 339.252 5.61586C339.535 5.61586 339.733 5.57337 339.847 5.46007L339.507 1.90503C339.138 1.97585 338.813 2.0325 338.529 2.07499C338.246 2.11748 337.991 2.13164 337.779 2.11748C337.254 2.10332 336.532 2.08915 335.611 2.08915C334.691 2.08915 333.6 2.06083 332.325 2.01834C331.716 1.99001 330.951 1.94752 330.044 1.89087C329.138 1.82005 328.089 1.76339 326.9 1.7209C326.687 1.7209 326.432 1.67841 326.163 1.62176C325.88 1.5651 325.568 1.48012 325.2 1.38098L324.605 4.90769C324.718 5.021 324.916 5.09181 325.2 5.10598C325.327 5.10598 325.412 5.07765 325.455 4.99267C325.639 4.36948 325.837 3.90208 326.021 3.60465C326.22 3.29305 326.489 3.09476 326.843 2.99562C327.197 2.89647 327.679 2.86815 328.316 2.88231C329.988 2.93896 330.866 3.09476 330.979 3.3497C331.121 3.61881 331.163 4.46862 331.107 5.9133L330.781 14.8788C330.767 15.3887 330.738 15.8277 330.696 16.196C330.653 16.5642 330.597 16.8475 330.526 17.0883C330.483 17.1733 330.356 17.2441 330.143 17.3291C329.931 17.3999 329.69 17.4565 329.435 17.4849C329.18 17.5132 328.982 17.5274 328.84 17.5274C328.769 17.5274 328.741 17.6407 328.727 17.8673C328.727 18.0514 328.755 18.1789 328.812 18.2497H331.787C331.914 18.2497 332.226 18.2497 332.707 18.3064C333.189 18.3488 333.841 18.4055 334.662 18.4622C334.705 18.3347 334.719 18.2214 334.719 18.1222C334.719 17.8673 334.705 17.754 334.634 17.7398C334.535 17.7398 334.365 17.7115 334.11 17.6407C333.855 17.5699 333.628 17.5132 333.416 17.4141C333.203 17.3291 333.09 17.2441 333.047 17.1733C332.92 16.5926 332.877 15.8136 332.906 14.8646L333.231 5.9133C333.274 4.78022 333.373 3.94457 333.543 3.44885H333.586ZM357.469 3.0806C356.803 3.09476 356.264 3.0806 355.825 3.0806C355.528 3.06644 355.174 3.03811 354.777 2.99562C354.366 2.95313 353.998 2.91064 353.658 2.86815C353.318 2.82566 353.063 2.79733 352.921 2.79733C352.851 2.85398 352.808 2.98145 352.808 3.16558C352.808 3.36387 352.822 3.46301 352.893 3.46301C353.035 3.46301 353.261 3.5055 353.559 3.59048C353.856 3.6613 354.126 3.74628 354.395 3.84543C354.664 3.94457 354.805 4.04372 354.834 4.14286C354.933 4.56777 354.947 5.2901 354.89 6.32404L354.494 14.029C354.48 14.4256 354.437 14.7655 354.366 15.0346C352.043 11.4229 350.244 8.57604 348.955 6.47984C347.666 4.38364 346.873 3.05227 346.589 2.47157C346.363 2.47157 346.08 2.47157 345.74 2.47157C345.414 2.47157 345.031 2.44324 344.606 2.42908C344.408 2.42908 344.096 2.40075 343.671 2.37242C343.246 2.3441 342.722 2.30161 342.071 2.25912C342 2.31577 341.957 2.45741 341.957 2.65569C341.957 2.86815 341.972 2.98145 342.042 2.98145C342.212 2.98145 342.439 3.02394 342.736 3.09476C343.034 3.16558 343.303 3.2364 343.558 3.32138C343.813 3.40636 343.955 3.5055 343.983 3.60465C344.082 4.00123 344.111 4.62442 344.068 5.47423L343.572 15.2045C343.516 16.366 343.388 17.1308 343.204 17.5132C343.161 17.6123 343.02 17.6973 342.751 17.7823C342.482 17.8531 342.198 17.9239 341.901 17.9664C341.603 18.0089 341.362 18.0231 341.207 18.0231C341.164 18.0231 341.122 18.1364 341.122 18.363C341.122 18.5613 341.122 18.6888 341.178 18.7313H344.04C344.167 18.7596 344.479 18.7879 344.946 18.8304C345.414 18.8729 346.065 18.9437 346.887 19.0145C346.929 18.9296 346.944 18.7879 346.944 18.5896C346.944 18.3913 346.915 18.2922 346.873 18.2922C346.774 18.2922 346.575 18.2497 346.278 18.1789C345.98 18.1081 345.711 18.0231 345.456 17.9098C345.201 17.8106 345.06 17.7257 345.031 17.6548C344.932 17.2299 344.918 16.4651 344.975 15.3462L345.513 4.76605L354.437 18.8729C354.692 19.2695 354.961 19.4678 355.23 19.4819C355.471 19.4819 355.641 19.4819 355.712 19.4111C355.726 18.1222 355.769 16.9608 355.811 15.9411L356.293 6.53649C356.321 6.02661 356.364 5.57337 356.406 5.20512C356.449 4.83687 356.519 4.51111 356.604 4.24201C356.647 4.15702 356.803 4.08621 357.072 4.01539C357.355 3.94457 357.653 3.88792 357.964 3.83126C358.276 3.77461 358.488 3.76045 358.588 3.76045C358.658 3.76045 358.687 3.6613 358.701 3.46301C358.701 3.34971 358.701 3.22223 358.673 3.09476C358.559 3.09476 358.177 3.09476 357.525 3.10893L357.469 3.0806ZM364.07 19.5103C364.07 19.312 364.055 19.2128 363.999 19.2128C363.857 19.2128 363.616 19.1562 363.291 19.057C362.965 18.9579 362.738 18.8446 362.596 18.7313C362.469 18.618 362.412 18.448 362.426 18.2214C362.426 18.0514 362.483 17.839 362.554 17.5557C362.625 17.2724 362.766 16.9325 362.951 16.5359L364.183 13.8873L364.31 13.8165C364.934 13.8165 365.515 13.8307 366.039 13.8449C366.563 13.8449 367.03 13.8732 367.469 13.9015C368.078 13.944 368.702 14.0007 369.339 14.0998C369.396 14.0998 369.438 14.1423 369.481 14.2131L370.402 17.3574C370.458 17.5274 370.501 17.754 370.529 18.0514C370.557 18.3488 370.572 18.5896 370.557 18.8162C370.557 18.8871 370.557 18.9437 370.529 19.0145C370.529 19.0853 370.501 19.142 370.472 19.2128C370.416 19.3403 370.232 19.4394 369.934 19.4961C369.637 19.5527 369.382 19.5811 369.183 19.5669C369.113 19.5669 369.07 19.666 369.056 19.8643C369.028 20.0768 369.056 20.2043 369.113 20.2751L371.988 20.3317C372.073 20.3317 372.342 20.3601 372.796 20.4167C373.249 20.4734 373.886 20.5442 374.708 20.6292C374.722 20.5867 374.736 20.53 374.75 20.5017C374.765 20.4734 374.765 20.4309 374.765 20.3884C374.779 20.0768 374.765 19.921 374.694 19.9068C374.566 19.9068 374.382 19.8502 374.141 19.7652C373.9 19.6802 373.688 19.5669 373.461 19.4253C373.249 19.2836 373.107 19.1278 373.051 18.9579C372.98 18.7454 372.895 18.4763 372.796 18.1647C372.696 17.8531 372.583 17.5132 372.456 17.1308L368.348 3.74628L368.135 3.6613C367.866 3.64714 367.682 3.70379 367.554 3.8171C367.427 3.94457 367.299 4.11453 367.172 4.34115C367.073 4.51111 367.016 4.63858 366.988 4.7094C366.959 4.78022 366.931 4.8652 366.903 4.96434C366.874 5.06349 366.804 5.23345 366.69 5.47423L361.676 16.2526C361.421 16.805 361.194 17.2583 360.982 17.6265C360.769 17.9948 360.557 18.2922 360.372 18.5046C360.245 18.6463 360.018 18.7454 359.707 18.8162C359.381 18.8729 359.126 18.9012 358.928 18.8871C358.857 18.8871 358.814 19.0004 358.814 19.227C358.814 19.4111 358.814 19.5386 358.885 19.6094C359.268 19.6094 359.678 19.5952 360.117 19.5811C360.557 19.5811 361.01 19.5811 361.463 19.6519L363.999 19.9352C364.041 19.8502 364.055 19.7085 364.07 19.5103ZM367.37 7.00389L369.028 12.5985L368.943 12.7118C368.178 12.7118 367.427 12.6834 366.69 12.641C366.52 12.641 366.294 12.6126 366.01 12.5843C365.727 12.556 365.359 12.5276 364.934 12.471C364.905 12.471 364.891 12.4285 364.891 12.3719L367.37 6.98972V7.00389ZM379.439 20.8416C379.567 20.8416 379.878 20.8841 380.346 20.9549C380.827 21.0116 381.465 21.0966 382.286 21.1957C382.329 21.0682 382.357 20.9549 382.357 20.8558C382.371 20.615 382.357 20.4875 382.286 20.4734C382.187 20.4734 381.989 20.4167 381.706 20.3459C381.422 20.2609 381.153 20.1759 380.898 20.0626C380.643 19.9493 380.487 19.8502 380.431 19.7652C380.346 19.6236 380.317 19.4111 380.332 19.1137C380.346 18.9296 380.417 18.2922 380.544 17.1874C380.672 16.0827 380.842 14.6238 381.054 12.8109C381.267 10.998 381.493 8.93012 381.72 6.60731L386.224 21.4506C386.352 21.4931 386.423 21.5215 386.437 21.5215C386.734 21.5498 387.06 21.2099 387.443 20.53L393.605 8.5902C393.661 8.47689 393.704 8.42024 393.746 8.42024C393.817 8.42024 393.86 8.51938 393.902 8.68934C393.945 8.8593 393.973 9.07176 393.987 9.29837C394.015 9.52499 394.015 9.72328 393.987 9.9074L393.59 18.6321L393.491 19.9352C393.449 20.5159 393.321 20.8558 393.109 20.9691C392.953 21.0399 392.698 21.0966 392.358 21.1532C392.018 21.2099 391.763 21.224 391.593 21.2099C391.522 21.2099 391.48 21.309 391.466 21.5215C391.451 21.7198 391.466 21.8472 391.536 21.918L394.511 22.0314C394.681 22.0314 395.007 22.088 395.489 22.1447C395.97 22.2013 396.622 22.2863 397.443 22.3854C397.486 22.258 397.514 22.1305 397.528 22.0172C397.543 21.7906 397.528 21.6631 397.458 21.6631C397.344 21.6631 397.16 21.6206 396.905 21.5498C396.65 21.479 396.424 21.394 396.211 21.2949C395.999 21.1957 395.885 21.0966 395.843 20.9974C395.673 20.4167 395.616 19.6519 395.659 18.6888L396.239 8.63269C396.31 7.68373 396.466 7.13136 396.664 7.00389C396.82 6.90474 397.047 6.8056 397.358 6.72062C397.67 6.63564 397.911 6.60731 398.095 6.62147H398.138C398.223 6.62147 398.265 6.52233 398.293 6.29571C398.293 6.19657 398.293 6.0691 398.251 5.9133C397.84 5.9133 397.401 5.9133 396.934 5.88497C396.466 5.87081 395.984 5.82832 395.474 5.78583C395.304 5.78583 395.064 5.74334 394.724 5.70085C394.384 5.65835 393.959 5.6017 393.435 5.51672L392.202 8.40607C391.621 9.58164 390.956 10.9413 390.191 12.4427C389.426 13.9582 388.562 15.6295 387.598 17.4565C387.57 17.5274 387.528 17.5557 387.471 17.5415C387.443 17.5415 387.4 17.5132 387.372 17.4849C384.879 9.34086 383.575 5.07765 383.476 4.7094C383.009 4.7094 382.598 4.7094 382.216 4.7094C381.847 4.7094 381.493 4.69524 381.182 4.66691C380.686 4.62442 380.204 4.56777 379.722 4.49695C379.241 4.42613 378.816 4.36948 378.419 4.31282C378.348 4.36948 378.306 4.49695 378.292 4.68107C378.278 4.90769 378.292 5.03516 378.363 5.03516C378.533 5.03516 378.759 5.09181 379.043 5.16263C379.34 5.23345 379.609 5.31843 379.85 5.41758C380.105 5.51672 380.232 5.61586 380.261 5.71501C380.303 5.92746 380.317 6.26738 380.275 6.70645C380.247 6.98972 380.19 7.61292 380.077 8.5902C379.963 9.56748 379.822 10.8139 379.666 12.3435C379.51 13.8732 379.326 15.5728 379.142 17.4849C379.028 18.618 378.83 19.3261 378.518 19.5952C378.405 19.6802 378.235 19.7652 377.98 19.8218C377.725 19.8785 377.47 19.9352 377.201 19.9635C376.932 19.9918 376.719 20.006 376.549 19.9918C376.464 19.9918 376.422 20.091 376.394 20.3317C376.394 20.5017 376.408 20.6292 376.493 20.7141L379.397 20.8275L379.439 20.8416Z" fill="#F0E8E3"/>
<path d="M496.81 127.957C494.363 127.957 492.126 127.493 490.101 126.565C488.104 125.608 486.5 124.202 485.291 122.345C484.081 120.461 483.477 118.14 483.477 115.383C483.477 113.611 483.786 111.951 484.405 110.404C485.024 108.829 485.924 107.451 487.105 106.269C488.315 105.06 489.777 104.117 491.493 103.442C493.209 102.767 495.164 102.43 497.358 102.43C498.512 102.43 499.735 102.542 501.029 102.767C502.323 102.992 503.476 103.316 504.489 103.738L504.784 109.518L502.886 109.687L501.62 105.679C501.085 105.313 500.382 105.046 499.51 104.877C498.638 104.68 497.794 104.582 496.979 104.582C494.869 104.582 493.139 105.046 491.789 105.974C490.467 106.874 489.482 108.084 488.835 109.603C488.216 111.122 487.907 112.795 487.907 114.624C487.907 117.015 488.315 119.04 489.131 120.7C489.974 122.359 491.1 123.611 492.506 124.455C493.941 125.299 495.516 125.721 497.232 125.721C498.132 125.721 498.948 125.622 499.679 125.425C500.41 125.228 501.114 124.933 501.789 124.539L503.645 120.573L505.586 120.784L504.405 126.1C503.448 126.607 502.309 127.043 500.987 127.408C499.665 127.774 498.273 127.957 496.81 127.957Z" fill="#F0E8E3"/>
<path d="M469.748 127.578L469.664 125.975L472.238 125.384C472.294 125.244 472.322 124.92 472.322 124.414C472.35 123.907 472.364 123.218 472.364 122.346C472.393 121.474 472.407 120.419 472.407 119.182V111.249C472.407 109.983 472.393 108.915 472.364 108.043C472.364 107.142 472.35 106.439 472.322 105.933C472.322 105.427 472.294 105.117 472.238 105.005L469.664 104.414L469.748 102.811H478.736L478.82 104.414L476.246 105.005C476.19 105.089 476.134 105.37 476.078 105.849C476.049 106.299 476.021 106.974 475.993 107.874C475.993 108.746 475.993 109.871 475.993 111.249V119.182C475.993 120.532 475.993 121.643 475.993 122.515C476.021 123.387 476.049 124.062 476.078 124.54C476.134 124.99 476.19 125.272 476.246 125.384L478.82 125.975L478.736 127.578H469.748Z" fill="#F0E8E3"/>
<path d="M445.438 127.578L445.353 125.975L447.927 125.342C447.927 125.145 447.927 124.85 447.927 124.456C447.955 124.034 447.969 123.542 447.969 122.979C447.969 122.417 447.969 121.812 447.969 121.165C447.997 120.518 448.011 119.857 448.011 119.182V111.249C448.011 109.955 447.997 108.872 447.969 108C447.969 107.1 447.955 106.411 447.927 105.933C447.927 105.427 447.899 105.117 447.843 105.005L445.227 104.414L445.353 102.811H454.594C457.238 102.811 459.249 103.331 460.627 104.372C462.034 105.384 462.737 106.889 462.737 108.886C462.737 110.265 462.357 111.502 461.598 112.6C460.838 113.668 459.783 114.512 458.433 115.131C457.083 115.75 455.522 116.059 453.75 116.059H451.049V114.161H453.454C455.198 114.161 456.549 113.725 457.505 112.853C458.489 111.981 458.982 110.771 458.982 109.224C458.982 107.733 458.56 106.608 457.716 105.849C456.872 105.061 455.662 104.667 454.087 104.667H451.64C451.612 104.751 451.584 104.878 451.556 105.047C451.556 105.187 451.556 105.455 451.556 105.849C451.556 106.242 451.556 106.819 451.556 107.578C451.556 108.338 451.556 109.351 451.556 110.616V119.182C451.556 120.391 451.556 121.404 451.556 122.22C451.584 123.035 451.612 123.697 451.64 124.203C451.696 124.681 451.738 125.061 451.767 125.342L454.256 125.975L454.129 127.578H445.438ZM465.437 128C464.2 128 463.103 127.775 462.146 127.325C461.19 126.847 460.262 126.073 459.361 125.005C458.461 123.907 457.491 122.431 456.45 120.574L453.581 115.342L456.745 114.625L461.302 121.334C462.09 122.487 462.793 123.415 463.412 124.118C464.059 124.794 464.692 125.3 465.311 125.637C465.93 125.975 466.605 126.214 467.336 126.355L467.294 127.831C467.013 127.888 466.703 127.93 466.366 127.958C466.056 127.986 465.747 128 465.437 128Z" fill="#F0E8E3"/>
<path d="M441.08 102.641L442.008 109.476L440.151 109.687L438.379 104.919C438.154 104.863 437.887 104.835 437.578 104.835C437.296 104.807 437.043 104.793 436.818 104.793H435.299C435.018 104.793 434.638 104.793 434.16 104.793C433.682 104.793 433.246 104.807 432.852 104.835C432.852 105.06 432.838 105.594 432.81 106.438C432.81 107.254 432.81 108.21 432.81 109.307C432.81 110.404 432.81 111.459 432.81 112.472V118.168C432.81 119.968 432.824 121.529 432.852 122.851C432.88 124.145 432.894 124.989 432.894 125.383L436.481 125.889L436.354 127.577H425.595L425.51 125.889L429.055 125.383C429.055 124.989 429.069 124.145 429.097 122.851C429.125 121.529 429.139 119.968 429.139 118.168V112.472C429.139 111.459 429.139 110.404 429.139 109.307C429.139 108.21 429.139 107.254 429.139 106.438C429.139 105.594 429.125 105.06 429.097 104.835C428.731 104.807 428.309 104.793 427.831 104.793C427.381 104.793 427.001 104.793 426.692 104.793H425.046C424.821 104.793 424.568 104.807 424.287 104.835C424.005 104.835 423.752 104.863 423.527 104.919L421.797 109.729L419.898 109.476L420.827 102.641C421.164 102.669 421.502 102.697 421.839 102.725C422.177 102.725 422.514 102.739 422.852 102.767C423.19 102.767 423.527 102.781 423.865 102.809C424.23 102.809 424.582 102.809 424.919 102.809H436.987C437.324 102.809 437.662 102.809 438 102.809C438.337 102.781 438.675 102.767 439.012 102.767C439.35 102.739 439.687 102.725 440.025 102.725C440.391 102.697 440.742 102.669 441.08 102.641Z" fill="#F0E8E3"/>
<path d="M415.745 127.788C414.929 127.704 414.198 127.648 413.551 127.619C412.932 127.591 412.341 127.577 411.779 127.577H397.306L397.18 125.974L399.796 125.383C399.852 125.242 399.88 124.919 399.88 124.413C399.908 123.906 399.922 123.217 399.922 122.345C399.95 121.473 399.964 120.418 399.964 119.181V111.248C399.964 109.982 399.95 108.913 399.922 108.041C399.922 107.141 399.908 106.438 399.88 105.932C399.88 105.425 399.852 105.116 399.796 105.003L397.18 104.413L397.306 102.809H410.85C411.244 102.809 411.652 102.809 412.074 102.809C412.524 102.781 413.002 102.753 413.509 102.725C414.015 102.697 414.535 102.669 415.07 102.641L415.914 108.21L414.015 108.506L412.623 104.961C412.398 104.905 412.144 104.877 411.863 104.877C411.582 104.849 411.287 104.835 410.977 104.835H406.209C405.675 104.835 405.197 104.849 404.775 104.877C404.381 104.877 403.987 104.905 403.593 104.961C403.593 105.074 403.579 105.397 403.551 105.932C403.551 106.438 403.537 107.029 403.509 107.704C403.509 108.379 403.509 109.054 403.509 109.729V121.122C403.509 121.684 403.509 122.261 403.509 122.851C403.537 123.414 403.551 123.92 403.551 124.37C403.579 124.821 403.593 125.13 403.593 125.299C403.987 125.327 404.395 125.355 404.817 125.383C405.267 125.411 405.759 125.425 406.294 125.425H410.386C411.005 125.425 411.512 125.425 411.905 125.425C412.299 125.397 412.609 125.369 412.834 125.341C413.059 125.313 413.241 125.285 413.382 125.257L415.576 121.248L417.475 121.628L415.745 127.788ZM411.061 118.927L410.555 116.058C410.414 116.002 410.175 115.96 409.838 115.932C409.5 115.904 409.092 115.889 408.614 115.889H405.407C405.042 115.889 404.648 115.904 404.226 115.932C403.804 115.96 403.354 115.988 402.876 116.016V113.695C403.354 113.724 403.804 113.752 404.226 113.78C404.648 113.78 405.042 113.78 405.407 113.78H408.614C409.092 113.78 409.5 113.766 409.838 113.738C410.175 113.709 410.414 113.681 410.555 113.653L411.061 110.742H412.876V118.927H411.061Z" fill="#F0E8E3"/>
<path d="M361.222 102.811H368.522L377.382 123.021H376.623L385.315 102.811H392.15L392.277 104.414L389.661 104.962C389.633 105.356 389.618 106.102 389.618 107.199C389.647 108.268 389.675 109.421 389.703 110.659L389.872 118.38C389.9 119.787 389.928 120.968 389.956 121.924C389.984 122.853 390.012 123.598 390.04 124.161C390.069 124.723 390.097 125.145 390.125 125.426L392.699 125.975L392.614 127.578H383.669L383.543 125.975L386.116 125.426C386.144 125.089 386.159 124.695 386.159 124.245C386.159 123.795 386.159 123.162 386.159 122.346C386.159 121.531 386.144 120.419 386.116 119.013L386.032 104.034H387.129L376.918 127.705H375.441L364.977 103.992H366.074L366.116 118.338C366.116 120.673 366.116 122.374 366.116 123.443C366.145 124.484 366.173 125.131 366.201 125.384L369.07 125.975L368.943 127.578H360.673L360.547 125.975L363.416 125.384C363.444 125.187 363.458 124.822 363.458 124.287C363.486 123.753 363.515 123.05 363.543 122.178C363.571 121.277 363.585 120.223 363.585 119.013L363.711 110.659C363.74 109.421 363.74 108.296 363.711 107.283C363.711 106.242 363.711 105.483 363.711 105.005L361.138 104.414L361.222 102.811Z" fill="#F0E8E3"/>
<path d="M323.014 102.811H333.225C337.669 102.811 341.129 103.879 343.605 106.017C346.108 108.127 347.36 111.095 347.36 114.92C347.36 117.396 346.783 119.59 345.63 121.502C344.477 123.387 342.873 124.878 340.82 125.975C338.766 127.044 336.404 127.578 333.731 127.578H323.014L322.93 125.975L325.504 125.384C325.56 125.131 325.602 124.414 325.63 123.232C325.686 122.051 325.714 120.701 325.714 119.182V111.249C325.714 109.59 325.686 108.183 325.63 107.03C325.602 105.877 325.56 105.202 325.504 105.005L322.93 104.414L323.014 102.811ZM329.385 105.089C329.385 105.342 329.371 105.694 329.343 106.144C329.343 106.566 329.329 107.185 329.301 108C329.301 108.788 329.301 109.871 329.301 111.249V119.182C329.301 120.026 329.301 120.827 329.301 121.587C329.329 122.318 329.357 122.979 329.385 123.57C329.442 124.161 329.484 124.653 329.512 125.047C330.412 125.159 331.214 125.258 331.917 125.342C332.648 125.398 333.352 125.426 334.027 125.426C337.008 125.426 339.273 124.639 340.82 123.064C342.367 121.46 343.141 119.154 343.141 116.144C343.141 114.315 342.915 112.698 342.465 111.292C342.015 109.857 341.34 108.661 340.44 107.705C339.568 106.749 338.485 106.031 337.191 105.553C335.925 105.047 334.449 104.794 332.761 104.794C332.255 104.794 331.72 104.822 331.157 104.878C330.595 104.906 330.004 104.976 329.385 105.089Z" fill="#F0E8E3"/>
<path d="M313.294 121.545V112.093C313.294 110.434 313.279 109.111 313.251 108.127C313.223 107.114 313.195 106.369 313.167 105.891C313.139 105.384 313.111 105.089 313.083 105.005L310.213 104.414L310.34 102.811H318.357L318.483 104.414L315.867 105.005C315.867 105.089 315.839 105.384 315.783 105.891C315.755 106.369 315.727 107.114 315.699 108.127C315.67 109.111 315.656 110.434 315.656 112.093V122.135C315.656 123.007 315.656 123.922 315.656 124.878C315.656 125.806 315.67 126.763 315.699 127.747H313.8L298.273 106.861H299.201V118.169C299.201 119.857 299.215 121.221 299.243 122.262C299.271 123.275 299.299 124.02 299.327 124.498C299.384 124.976 299.426 125.272 299.454 125.384L302.323 125.975L302.197 127.578H294.095L293.969 125.975L296.543 125.384C296.571 125.272 296.599 124.976 296.627 124.498C296.683 124.02 296.725 123.275 296.754 122.262C296.782 121.221 296.796 119.857 296.796 118.169V110.954C296.796 109.688 296.782 108.647 296.754 107.832C296.725 107.016 296.697 106.383 296.669 105.933C296.641 105.483 296.599 105.173 296.543 105.005L293.969 104.414L294.095 102.811H299.876L314.053 121.545H313.294Z" fill="#F0E8E3"/>
<path d="M267.038 127.578L266.953 125.975L269.021 125.384L277.713 103.528L280.16 102.051L289.358 125.384L291.468 125.975L291.341 127.578H282.818L282.734 125.975L285.307 125.384L282.818 119.139L282.354 117.831L277.755 106.355L278.725 105.806L274.337 117.831L273.873 119.097L271.637 125.384L274.21 125.975L274.126 127.578H267.038ZM272.945 119.772V117.536C273.479 117.564 274.21 117.592 275.139 117.62C276.067 117.648 277.206 117.663 278.556 117.663C279.879 117.663 281.004 117.648 281.932 117.62C282.888 117.592 283.62 117.564 284.126 117.536V119.772C283.17 119.744 282.213 119.73 281.257 119.73C280.329 119.702 279.428 119.688 278.556 119.688C277.713 119.688 276.826 119.702 275.898 119.73C274.998 119.73 274.014 119.744 272.945 119.772Z" fill="#F0E8E3"/>
<path d="M254.823 127.788C254.007 127.704 253.276 127.648 252.629 127.619C252.01 127.591 251.419 127.577 250.857 127.577H236.384L236.258 125.974L238.874 125.383C238.93 125.242 238.958 124.919 238.958 124.413C238.986 123.906 239 123.217 239 122.345C239.029 121.473 239.043 120.418 239.043 119.181V111.248C239.043 109.982 239.029 108.913 239 108.041C239 107.141 238.986 106.438 238.958 105.932C238.958 105.425 238.93 105.116 238.874 105.003L236.258 104.413L236.384 102.809H249.929C250.322 102.809 250.73 102.809 251.152 102.809C251.602 102.781 252.08 102.753 252.587 102.725C253.093 102.697 253.614 102.669 254.148 102.641L254.992 108.21L253.093 108.506L251.701 104.961C251.476 104.905 251.223 104.877 250.941 104.877C250.66 104.849 250.365 104.835 250.055 104.835H245.287C244.753 104.835 244.275 104.849 243.853 104.877C243.459 104.877 243.065 104.905 242.671 104.961C242.671 105.074 242.657 105.397 242.629 105.932C242.629 106.438 242.615 107.029 242.587 107.704C242.587 108.379 242.587 109.054 242.587 109.729V121.122C242.587 121.684 242.587 122.261 242.587 122.851C242.615 123.414 242.629 123.92 242.629 124.37C242.657 124.821 242.671 125.13 242.671 125.299C243.065 125.327 243.473 125.355 243.895 125.383C244.345 125.411 244.837 125.425 245.372 125.425H249.464C250.083 125.425 250.59 125.425 250.983 125.425C251.377 125.397 251.687 125.369 251.912 125.341C252.137 125.313 252.32 125.285 252.46 125.257L254.654 121.248L256.553 121.628L254.823 127.788ZM250.14 118.927L249.633 116.058C249.493 116.002 249.254 115.96 248.916 115.932C248.578 115.904 248.171 115.889 247.692 115.889H244.486C244.12 115.889 243.726 115.904 243.304 115.932C242.882 115.96 242.432 115.988 241.954 116.016V113.695C242.432 113.724 242.882 113.752 243.304 113.78C243.726 113.78 244.12 113.78 244.486 113.78H247.692C248.171 113.78 248.578 113.766 248.916 113.738C249.254 113.709 249.493 113.681 249.633 113.653L250.14 110.742H251.954V118.927H250.14Z" fill="#F0E8E3"/>
<path d="M222.238 127.957C219.678 127.957 217.372 127.493 215.318 126.565C213.265 125.608 211.633 124.202 210.424 122.345C209.214 120.489 208.609 118.182 208.609 115.425C208.609 113.653 208.919 111.994 209.538 110.447C210.185 108.871 211.099 107.479 212.28 106.269C213.49 105.06 214.953 104.117 216.668 103.442C218.412 102.767 220.396 102.43 222.618 102.43C223.771 102.43 225.009 102.542 226.331 102.767C227.653 102.992 228.792 103.316 229.748 103.738L230.002 109.265L228.145 109.434L226.921 105.679C226.387 105.285 225.67 105.004 224.77 104.835C223.898 104.666 223.068 104.582 222.28 104.582C220.114 104.582 218.342 105.046 216.964 105.974C215.585 106.874 214.573 108.084 213.926 109.603C213.307 111.122 212.998 112.795 212.998 114.624C212.998 117.015 213.419 119.04 214.263 120.7C215.135 122.359 216.303 123.625 217.765 124.497C219.228 125.341 220.874 125.763 222.702 125.763C223.518 125.763 224.404 125.65 225.36 125.425C226.317 125.172 227.175 124.778 227.934 124.244L226.921 126.607V122.176C226.921 121.276 226.907 120.475 226.879 119.771C226.851 119.04 226.809 118.491 226.753 118.126L223.884 117.662L223.968 115.974H232.196L232.28 117.577L230.424 118.084C230.424 118.224 230.424 118.562 230.424 119.096C230.424 119.631 230.424 120.278 230.424 121.037C230.424 121.994 230.438 122.823 230.466 123.527C230.494 124.202 230.522 124.905 230.55 125.636C229.453 126.34 228.131 126.902 226.584 127.324C225.065 127.746 223.616 127.957 222.238 127.957Z" fill="#F0E8E3"/>
<path d="M181.717 127.578L181.633 125.975L183.7 125.384L192.392 103.528L194.839 102.051L204.038 125.384L206.147 125.975L206.021 127.578H197.498L197.413 125.975L199.987 125.384L197.498 119.139L197.034 117.831L192.434 106.355L193.405 105.806L189.017 117.831L188.553 119.097L186.316 125.384L188.89 125.975L188.806 127.578H181.717ZM187.624 119.772V117.536C188.159 117.564 188.89 117.592 189.818 117.62C190.747 117.648 191.886 117.663 193.236 117.663C194.558 117.663 195.683 117.648 196.612 117.62C197.568 117.592 198.299 117.564 198.806 117.536V119.772C197.849 119.744 196.893 119.73 195.937 119.73C195.008 119.702 194.108 119.688 193.236 119.688C192.392 119.688 191.506 119.702 190.578 119.73C189.678 119.73 188.693 119.744 187.624 119.772Z" fill="#F0E8E3"/>
<path d="M180.861 102.641L181.789 109.476L179.933 109.687L178.161 104.919C177.936 104.863 177.668 104.835 177.359 104.835C177.078 104.807 176.824 104.793 176.599 104.793H175.08C174.799 104.793 174.419 104.793 173.941 104.793C173.463 104.793 173.027 104.807 172.633 104.835C172.633 105.06 172.619 105.594 172.591 106.438C172.591 107.254 172.591 108.21 172.591 109.307C172.591 110.404 172.591 111.459 172.591 112.472V118.168C172.591 119.968 172.605 121.529 172.633 122.851C172.661 124.145 172.675 124.989 172.675 125.383L176.262 125.889L176.135 127.577H165.376L165.291 125.889L168.836 125.383C168.836 124.989 168.85 124.145 168.878 122.851C168.906 121.529 168.92 119.968 168.92 118.168V112.472C168.92 111.459 168.92 110.404 168.92 109.307C168.92 108.21 168.92 107.254 168.92 106.438C168.92 105.594 168.906 105.06 168.878 104.835C168.512 104.807 168.09 104.793 167.612 104.793C167.162 104.793 166.782 104.793 166.473 104.793H164.827C164.602 104.793 164.349 104.807 164.068 104.835C163.787 104.835 163.533 104.863 163.308 104.919L161.578 109.729L159.68 109.476L160.608 102.641C160.946 102.669 161.283 102.697 161.621 102.725C161.958 102.725 162.296 102.739 162.633 102.767C162.971 102.767 163.308 102.781 163.646 102.809C164.012 102.809 164.363 102.809 164.701 102.809H176.768C177.106 102.809 177.443 102.809 177.781 102.809C178.118 102.781 178.456 102.767 178.794 102.767C179.131 102.739 179.469 102.725 179.806 102.725C180.172 102.697 180.523 102.669 180.861 102.641Z" fill="#F0E8E3"/>
<path d="M147.981 127.956C146.771 127.956 145.505 127.801 144.183 127.492C142.861 127.183 141.792 126.789 140.977 126.311L140.766 120.868L142.58 120.699L143.761 124.454C144.436 124.904 145.182 125.256 145.998 125.509C146.813 125.734 147.685 125.846 148.614 125.846C150.02 125.846 151.131 125.509 151.947 124.834C152.791 124.159 153.213 123.245 153.213 122.091C153.213 121.107 152.917 120.291 152.327 119.644C151.736 118.969 150.962 118.392 150.006 117.914C149.078 117.436 148.079 116.958 147.01 116.479C145.97 116.001 144.971 115.467 144.015 114.876C143.086 114.257 142.327 113.512 141.736 112.64C141.145 111.74 140.85 110.629 140.85 109.307C140.85 107.928 141.23 106.733 141.989 105.72C142.749 104.679 143.804 103.864 145.154 103.273C146.532 102.682 148.093 102.387 149.837 102.387C150.569 102.387 151.272 102.429 151.947 102.513C152.65 102.57 153.297 102.668 153.888 102.809C154.479 102.949 155.013 103.132 155.491 103.357L155.829 108.631L154.014 108.8L152.833 105.256C151.961 104.693 150.808 104.412 149.373 104.412C147.939 104.412 146.785 104.764 145.913 105.467C145.069 106.142 144.647 107.056 144.647 108.209C144.647 109.222 144.943 110.066 145.534 110.741C146.152 111.416 146.926 112.007 147.854 112.513C148.811 113.02 149.809 113.512 150.85 113.99C151.919 114.468 152.917 115.003 153.846 115.593C154.802 116.184 155.576 116.915 156.166 117.787C156.785 118.631 157.095 119.686 157.095 120.952C157.095 122.302 156.701 123.512 155.913 124.581C155.154 125.621 154.085 126.451 152.706 127.07C151.328 127.661 149.753 127.956 147.981 127.956Z" fill="#F0E8E3"/>
<path d="M107.617 127.578L107.533 125.975L110.107 125.342C110.107 125.145 110.107 124.85 110.107 124.456C110.135 124.034 110.149 123.542 110.149 122.979C110.149 122.417 110.149 121.812 110.149 121.165C110.177 120.518 110.191 119.857 110.191 119.182V111.249C110.191 109.955 110.177 108.872 110.149 108C110.149 107.1 110.135 106.411 110.107 105.933C110.107 105.427 110.079 105.117 110.022 105.005L107.406 104.414L107.533 102.811H116.773C119.417 102.811 121.429 103.331 122.807 104.372C124.213 105.384 124.917 106.889 124.917 108.886C124.917 110.265 124.537 111.502 123.777 112.6C123.018 113.668 121.963 114.512 120.613 115.131C119.263 115.75 117.702 116.059 115.929 116.059H113.229V114.161H115.634C117.378 114.161 118.728 113.725 119.685 112.853C120.669 111.981 121.161 110.771 121.161 109.224C121.161 107.733 120.74 106.608 119.896 105.849C119.052 105.061 117.842 104.667 116.267 104.667H113.82C113.792 104.751 113.763 104.878 113.735 105.047C113.735 105.187 113.735 105.455 113.735 105.849C113.735 106.242 113.735 106.819 113.735 107.578C113.735 108.338 113.735 109.351 113.735 110.616V119.182C113.735 120.391 113.735 121.404 113.735 122.22C113.763 123.035 113.792 123.697 113.82 124.203C113.876 124.681 113.918 125.061 113.946 125.342L116.436 125.975L116.309 127.578H107.617ZM127.617 128C126.379 128 125.282 127.775 124.326 127.325C123.37 126.847 122.441 126.073 121.541 125.005C120.641 123.907 119.671 122.431 118.63 120.574L115.761 115.342L118.925 114.625L123.482 121.334C124.27 122.487 124.973 123.415 125.592 124.118C126.239 124.794 126.872 125.3 127.491 125.637C128.109 125.975 128.784 126.214 129.516 126.355L129.474 127.831C129.192 127.888 128.883 127.93 128.545 127.958C128.236 127.986 127.927 128 127.617 128Z" fill="#F0E8E3"/>
<path d="M101.948 127.788C101.132 127.704 100.401 127.648 99.754 127.619C99.1352 127.591 98.5445 127.577 97.9819 127.577H83.5094L83.3828 125.974L85.9988 125.383C86.0551 125.242 86.0832 124.919 86.0832 124.413C86.1113 123.906 86.1254 123.217 86.1254 122.345C86.1535 121.473 86.1676 120.418 86.1676 119.181V111.248C86.1676 109.982 86.1535 108.913 86.1254 108.041C86.1254 107.141 86.1113 106.438 86.0832 105.932C86.0832 105.425 86.0551 105.116 85.9988 105.003L83.3828 104.413L83.5094 102.809H97.0536C97.4474 102.809 97.8553 102.809 98.2772 102.809C98.7273 102.781 99.2055 102.753 99.7118 102.725C100.218 102.697 100.739 102.669 101.273 102.641L102.117 108.21L100.218 108.506L98.8258 104.961C98.6007 104.905 98.3476 104.877 98.0663 104.877C97.785 104.849 97.4896 104.835 97.1802 104.835H92.4123C91.8778 104.835 91.3996 104.849 90.9777 104.877C90.5839 104.877 90.1901 104.905 89.7963 104.961C89.7963 105.074 89.7822 105.397 89.7541 105.932C89.7541 106.438 89.74 107.029 89.7119 107.704C89.7119 108.379 89.7119 109.054 89.7119 109.729V121.122C89.7119 121.684 89.7119 122.261 89.7119 122.851C89.74 123.414 89.7541 123.92 89.7541 124.37C89.7822 124.821 89.7963 125.13 89.7963 125.299C90.1901 125.327 90.598 125.355 91.0199 125.383C91.47 125.411 91.9622 125.425 92.4967 125.425H96.5895C97.2083 125.425 97.7147 125.425 98.1085 125.425C98.5023 125.397 98.8117 125.369 99.0367 125.341C99.2618 125.313 99.4446 125.285 99.5852 125.257L101.779 121.248L103.678 121.628L101.948 127.788ZM97.2646 118.927L96.7583 116.058C96.6176 116.002 96.3785 115.96 96.041 115.932C95.7034 115.904 95.2955 115.889 94.8173 115.889H91.6106C91.2449 115.889 90.8511 115.904 90.4292 115.932C90.0072 115.96 89.5572 115.988 89.079 116.016V113.695C89.5572 113.724 90.0072 113.752 90.4292 113.78C90.8511 113.78 91.2449 113.78 91.6106 113.78H94.8173C95.2955 113.78 95.7034 113.766 96.041 113.738C96.3785 113.709 96.6176 113.681 96.7583 113.653L97.2646 110.742H99.0789V118.927H97.2646Z" fill="#F0E8E3"/>
<path d="M61.4719 127.578L61.3453 125.975L63.7926 125.384C63.8207 125.272 63.8488 125.033 63.877 124.667C63.9051 124.273 63.9192 123.654 63.9192 122.81C63.9473 121.967 63.9613 120.827 63.9613 119.393L64.0035 110.827C64.0035 109.421 63.9895 108.324 63.9613 107.536C63.9332 106.721 63.9051 106.13 63.877 105.764C63.877 105.37 63.8629 105.131 63.8348 105.047L61.2188 104.414L61.3453 102.811H70.3326C73.1174 102.811 75.2834 103.429 76.8305 104.667C78.3776 105.877 79.1511 107.635 79.1511 109.941C79.1511 111.517 78.7433 112.881 77.9275 114.034C77.1399 115.187 76.071 116.088 74.7208 116.735C73.3706 117.353 71.8657 117.663 70.206 117.663C69.5872 117.663 68.9965 117.635 68.4339 117.578C67.8994 117.494 67.3931 117.41 66.9149 117.325V115.047C67.5619 115.244 68.1245 115.384 68.6027 115.469C69.109 115.553 69.6013 115.595 70.0795 115.595C71.7391 115.595 73.033 115.187 73.9613 114.372C74.8896 113.528 75.3537 112.234 75.3537 110.49C75.3537 108.493 74.8333 107.03 73.7925 106.102C72.7517 105.145 71.4437 104.667 69.8685 104.667H67.6322C67.6322 104.836 67.6181 105.23 67.59 105.849C67.59 106.467 67.576 107.213 67.5478 108.085C67.5478 108.929 67.5478 109.843 67.5478 110.827L67.59 119.393C67.59 120.827 67.6041 121.967 67.6322 122.81C67.6603 123.626 67.6885 124.231 67.7166 124.625C67.7447 124.99 67.7588 125.23 67.7588 125.342L71.2609 125.891L71.1343 127.578H61.4719Z" fill="#F0E8E3"/>
<path d="M565.955 54.6406L566.883 61.476L565.026 61.687L563.254 56.9191C563.029 56.8628 562.762 56.8347 562.453 56.8347C562.171 56.8066 561.918 56.7925 561.693 56.7925H560.174C559.893 56.7925 559.513 56.7925 559.035 56.7925C558.557 56.7925 558.121 56.8066 557.727 56.8347C557.727 57.0597 557.713 57.5942 557.685 58.4381C557.685 59.2538 557.685 60.2102 557.685 61.3073C557.685 62.4043 557.685 63.4591 557.685 64.4718V70.168C557.685 71.9682 557.699 73.5294 557.727 74.8515C557.755 76.1454 557.769 76.9893 557.769 77.3831L561.356 77.8894L561.229 79.5772H550.47L550.385 77.8894L553.93 77.3831C553.93 76.9893 553.944 76.1454 553.972 74.8515C554 73.5294 554.014 71.9682 554.014 70.168V64.4718C554.014 63.4591 554.014 62.4043 554.014 61.3073C554.014 60.2102 554.014 59.2538 554.014 58.4381C554.014 57.5942 554 57.0597 553.972 56.8347C553.606 56.8066 553.184 56.7925 552.706 56.7925C552.256 56.7925 551.876 56.7925 551.567 56.7925H549.921C549.696 56.7925 549.443 56.8066 549.162 56.8347C548.88 56.8347 548.627 56.8628 548.402 56.9191L546.672 61.7292L544.773 61.476L545.702 54.6406C546.039 54.6688 546.377 54.6969 546.714 54.725C547.052 54.725 547.389 54.7391 547.727 54.7672C548.065 54.7672 548.402 54.7813 548.74 54.8094C549.105 54.8094 549.457 54.8094 549.794 54.8094H561.862C562.199 54.8094 562.537 54.8094 562.875 54.8094C563.212 54.7813 563.55 54.7672 563.887 54.7672C564.225 54.7391 564.562 54.725 564.9 54.725C565.266 54.6969 565.617 54.6688 565.955 54.6406Z" fill="#F0E8E3"/>
<path d="M533.622 79.957C531.175 79.957 528.939 79.4928 526.914 78.5646C524.916 77.6082 523.313 76.2017 522.103 74.3452C520.894 72.4605 520.289 70.1399 520.289 67.3832C520.289 65.6111 520.598 63.9514 521.217 62.4043C521.836 60.8291 522.736 59.4508 523.918 58.2693C525.127 57.0598 526.59 56.1174 528.306 55.4423C530.022 54.7672 531.977 54.4297 534.171 54.4297C535.324 54.4297 536.548 54.5422 537.842 54.7672C539.136 54.9923 540.289 55.3158 541.302 55.7377L541.597 61.5183L539.698 61.687L538.432 57.6786C537.898 57.3129 537.195 57.0457 536.323 56.8769C535.451 56.68 534.607 56.5816 533.791 56.5816C531.681 56.5816 529.951 57.0457 528.601 57.974C527.279 58.8741 526.295 60.0837 525.648 61.6026C525.029 63.1216 524.719 64.7953 524.719 66.6237C524.719 69.0147 525.127 71.04 525.943 72.6996C526.787 74.3592 527.912 75.611 529.319 76.4549C530.753 77.2987 532.328 77.7207 534.044 77.7207C534.944 77.7207 535.76 77.6222 536.491 77.4253C537.223 77.2284 537.926 76.9331 538.601 76.5393L540.458 72.573L542.399 72.784L541.217 78.1004C540.261 78.6068 539.122 79.0428 537.799 79.4084C536.477 79.7741 535.085 79.957 533.622 79.957Z" fill="#F0E8E3"/>
<path d="M491.498 54.8105H500.444L500.57 56.4139L497.954 57.0468C497.954 57.1593 497.94 57.4125 497.912 57.8063C497.884 58.2001 497.856 58.819 497.828 59.6628C497.828 60.5067 497.828 61.7022 497.828 63.2493V69.7472C497.856 71.5193 498.137 72.9539 498.671 74.0509C499.234 75.148 499.993 75.9497 500.95 76.456C501.934 76.9342 503.074 77.1733 504.368 77.1733C505.605 77.1733 506.674 76.9201 507.574 76.4138C508.503 75.8793 509.22 75.0495 509.726 73.9244C510.232 72.7992 510.486 71.3083 510.486 69.4518V64.0088C510.486 62.743 510.472 61.6319 510.443 60.6755C510.415 59.691 510.387 58.8893 510.359 58.2704C510.331 57.6235 510.289 57.2156 510.233 57.0468L507.279 56.4139L507.406 54.8105H515.591L515.718 56.4139L513.144 57.0468C513.144 57.1312 513.13 57.3984 513.102 57.8485C513.074 58.2986 513.045 59.0159 513.017 60.0004C513.017 60.9568 513.017 62.2929 513.017 64.0088V69.6628C513.017 72.0256 512.623 73.9665 511.836 75.4855C511.048 77.0045 509.965 78.1297 508.587 78.861C507.237 79.5924 505.69 79.9581 503.946 79.9581C500.88 79.9581 498.474 79.1142 496.73 77.4264C495.015 75.7106 494.157 73.3196 494.157 70.2535V63.2493C494.157 61.7022 494.143 60.5067 494.114 59.6628C494.086 58.7908 494.058 58.1579 494.03 57.7641C494.03 57.3703 494.016 57.1312 493.988 57.0468L491.414 56.4139L491.498 54.8105Z" fill="#F0E8E3"/>
<path d="M462.334 54.8105H472.545C476.99 54.8105 480.45 55.8795 482.925 58.0173C485.428 60.127 486.68 63.0946 486.68 66.9202C486.68 69.3955 486.104 71.5896 484.95 73.5024C483.797 75.3871 482.194 76.8779 480.14 77.975C478.087 79.0439 475.724 79.5783 473.052 79.5783H462.334L462.25 77.975L464.824 77.3842C464.88 77.1311 464.922 76.4138 464.95 75.2324C465.007 74.0509 465.035 72.7007 465.035 71.1818V63.2493C465.035 61.5897 465.007 60.1832 464.95 59.0299C464.922 57.8766 464.88 57.2015 464.824 57.0046L462.25 56.4139L462.334 54.8105ZM468.706 57.089C468.706 57.3422 468.692 57.6938 468.663 58.1439C468.663 58.5658 468.649 59.1846 468.621 60.0004C468.621 60.788 468.621 61.871 468.621 63.2493V71.1818C468.621 72.0256 468.621 72.8273 468.621 73.5868C468.649 74.3182 468.678 74.9792 468.706 75.5699C468.762 76.1606 468.804 76.6529 468.832 77.0467C469.732 77.1592 470.534 77.2577 471.237 77.3421C471.969 77.3983 472.672 77.4264 473.347 77.4264C476.329 77.4264 478.593 76.6388 480.14 75.0636C481.687 73.4602 482.461 71.1536 482.461 68.1438C482.461 66.3154 482.236 64.698 481.786 63.2915C481.336 61.8569 480.661 60.6614 479.76 59.705C478.888 58.7486 477.805 58.0313 476.512 57.5531C475.246 57.0468 473.769 56.7937 472.081 56.7937C471.575 56.7937 471.04 56.8218 470.478 56.878C469.915 56.9062 469.325 56.9765 468.706 57.089Z" fill="#F0E8E3"/>
<path d="M445.527 79.957C443.08 79.957 440.9 79.4225 438.987 78.3536C437.102 77.2847 435.625 75.7938 434.556 73.881C433.488 71.9683 432.953 69.7742 432.953 67.2988C432.953 64.8234 433.502 62.6294 434.599 60.7166C435.696 58.7757 437.201 57.2426 439.113 56.1174C441.026 54.9923 443.192 54.4297 445.611 54.4297C447.974 54.4297 450.056 54.9641 451.856 56.0331C453.684 57.102 455.105 58.5787 456.118 60.4634C457.13 62.3481 457.637 64.5281 457.637 67.0035C457.637 68.8881 457.313 70.6181 456.666 72.1933C456.019 73.7685 455.133 75.1469 454.008 76.3283C452.883 77.4816 451.589 78.3817 450.126 79.0287C448.691 79.6475 447.158 79.957 445.527 79.957ZM445.907 77.6785C447.426 77.6785 448.734 77.2847 449.831 76.4971C450.956 75.7094 451.828 74.5983 452.447 73.1637C453.066 71.701 453.375 69.9851 453.375 68.0161C453.375 65.7376 453.023 63.7405 452.32 62.0246C451.645 60.3087 450.689 58.9726 449.451 58.0162C448.213 57.0316 446.765 56.5394 445.105 56.5394C442.714 56.5394 440.815 57.4254 439.409 59.1976C438.03 60.9697 437.341 63.4029 437.341 66.4971C437.341 68.6912 437.707 70.6321 438.438 72.3199C439.17 73.9795 440.182 75.2875 441.476 76.2439C442.77 77.2003 444.247 77.6785 445.907 77.6785Z" fill="#F0E8E3"/>
<path d="M408.977 79.5783L408.892 77.975L411.466 77.3421C411.466 77.1451 411.466 76.8498 411.466 76.456C411.494 76.034 411.508 75.5418 411.508 74.9792C411.508 74.4166 411.508 73.8118 411.508 73.1649C411.536 72.5179 411.55 71.8569 411.55 71.1818V63.2493C411.55 61.9554 411.536 60.8724 411.508 60.0004C411.508 59.1003 411.494 58.4111 411.466 57.9329C411.466 57.4266 411.438 57.1171 411.382 57.0046L408.766 56.4139L408.892 54.8105H418.133C420.777 54.8105 422.788 55.3309 424.166 56.3717C425.573 57.3844 426.276 58.8893 426.276 60.8865C426.276 62.2648 425.896 63.5025 425.137 64.5995C424.377 65.6684 423.322 66.5123 421.972 67.1311C420.622 67.75 419.061 68.0594 417.289 68.0594H414.588V66.1607H416.993C418.737 66.1607 420.088 65.7247 421.044 64.8527C422.029 63.9807 422.521 62.7711 422.521 61.224C422.521 59.7332 422.099 58.608 421.255 57.8485C420.411 57.0609 419.202 56.6671 417.626 56.6671H415.179C415.151 56.7515 415.123 56.878 415.095 57.0468C415.095 57.1875 415.095 57.4547 415.095 57.8485C415.095 58.2423 415.095 58.819 415.095 59.5784C415.095 60.3379 415.095 61.3506 415.095 62.6164V71.1818C415.095 72.3913 415.095 73.404 415.095 74.2197C415.123 75.0355 415.151 75.6965 415.179 76.2028C415.235 76.681 415.278 77.0608 415.306 77.3421L417.795 77.975L417.669 79.5783H408.977ZM428.976 80.0003C427.739 80.0003 426.642 79.7752 425.685 79.3252C424.729 78.847 423.801 78.0734 422.901 77.0045C422 75.9075 421.03 74.4307 419.989 72.5742L417.12 67.3421L420.285 66.6248L424.841 73.3336C425.629 74.4869 426.332 75.4152 426.951 76.1184C427.598 76.7935 428.231 77.2999 428.85 77.6374C429.469 77.975 430.144 78.2141 430.875 78.3547L430.833 79.8315C430.552 79.8878 430.242 79.9299 429.905 79.9581C429.595 79.9862 429.286 80.0003 428.976 80.0003Z" fill="#F0E8E3"/>
<path d="M386.808 79.5783L386.681 77.975L389.129 77.3842C389.157 77.2717 389.185 77.0326 389.213 76.667C389.241 76.2731 389.255 75.6543 389.255 74.8104C389.283 73.9666 389.297 72.8273 389.297 71.3927L389.339 62.8274C389.339 61.4209 389.325 60.3239 389.297 59.5363C389.269 58.7205 389.241 58.1298 389.213 57.7641C389.213 57.3703 389.199 57.1312 389.171 57.0468L386.555 56.4139L386.681 54.8105H395.669C398.453 54.8105 400.619 55.4294 402.166 56.6671C403.713 57.8766 404.487 59.6347 404.487 61.9413C404.487 63.5165 404.079 64.8808 403.263 66.0341C402.476 67.1874 401.407 68.0875 400.057 68.7345C398.706 69.3534 397.202 69.6628 395.542 69.6628C394.923 69.6628 394.332 69.6346 393.77 69.5784C393.235 69.494 392.729 69.4096 392.251 69.3252V67.0468C392.898 67.2437 393.46 67.3843 393.939 67.4687C394.445 67.5531 394.937 67.5953 395.415 67.5953C397.075 67.5953 398.369 67.1874 399.297 66.3717C400.225 65.5278 400.69 64.2338 400.69 62.4898C400.69 60.4926 400.169 59.0299 399.128 58.1017C398.088 57.1453 396.78 56.6671 395.204 56.6671H392.968C392.968 56.8359 392.954 57.2297 392.926 57.8485C392.926 58.4673 392.912 59.2128 392.884 60.0848C392.884 60.9287 392.884 61.8429 392.884 62.8274L392.926 71.3927C392.926 72.8273 392.94 73.9666 392.968 74.8104C392.996 75.6262 393.024 76.231 393.053 76.6248C393.081 76.9904 393.095 77.2295 393.095 77.3421L396.597 77.8906L396.47 79.5783H386.808Z" fill="#F0E8E3"/>
<path d="M373.578 79.7893C373.184 79.733 372.734 79.6908 372.227 79.6627C371.749 79.6346 371.271 79.6065 370.793 79.5783C370.315 79.5783 369.879 79.5783 369.485 79.5783H355.983L355.898 77.975L358.472 77.3842C358.5 77.2436 358.529 76.9201 358.557 76.4138C358.585 75.9075 358.599 75.2183 358.599 74.3463C358.627 73.4743 358.641 72.4194 358.641 71.1818V63.2493C358.641 61.9835 358.641 60.9146 358.641 60.0426C358.641 59.1706 358.627 58.4814 358.599 57.9751C358.571 57.4688 358.529 57.1593 358.472 57.0468L355.898 56.4139L355.983 54.8105H365.898L366.025 56.4983L362.523 57.0468C362.467 57.1312 362.41 57.4125 362.354 57.8907C362.326 58.3408 362.298 59.0159 362.27 59.916C362.27 60.788 362.27 61.8991 362.27 63.2493V71.1818C362.27 72.6445 362.284 73.9244 362.312 75.0214C362.34 76.0903 362.368 76.7795 362.396 77.0889C362.79 77.117 363.198 77.1452 363.62 77.1733C364.042 77.2014 364.52 77.2155 365.055 77.2155H368.219C368.866 77.2155 369.415 77.2014 369.865 77.1733C370.315 77.1452 370.765 77.103 371.215 77.0467L373.409 72.9117L375.308 73.3336L373.578 79.7893Z" fill="#F0E8E3"/>
<path d="M328.928 79.5781L328.844 77.9747L330.911 77.384L339.603 55.5276L342.05 54.0508L351.249 77.384L353.358 77.9747L353.232 79.5781H344.709L344.624 77.9747L347.198 77.384L344.709 71.1393L344.244 69.8313L339.645 58.3546L340.616 57.806L336.228 69.8313L335.764 71.0971L333.527 77.384L336.101 77.9747L336.017 79.5781H328.928ZM334.835 71.7722V69.5359C335.37 69.564 336.101 69.5922 337.029 69.6203C337.958 69.6484 339.097 69.6625 340.447 69.6625C341.769 69.6625 342.894 69.6484 343.823 69.6203C344.779 69.5922 345.51 69.564 346.017 69.5359V71.7722C345.06 71.7441 344.104 71.73 343.147 71.73C342.219 71.7019 341.319 71.6878 340.447 71.6878C339.603 71.6878 338.717 71.7019 337.789 71.73C336.889 71.73 335.904 71.7441 334.835 71.7722Z" fill="#F0E8E3"/>
<path d="M328.072 54.6406L329 61.476L327.144 61.687L325.372 56.9191C325.146 56.8628 324.879 56.8347 324.57 56.8347C324.289 56.8066 324.035 56.7925 323.81 56.7925H322.291C322.01 56.7925 321.63 56.7925 321.152 56.7925C320.674 56.7925 320.238 56.8066 319.844 56.8347C319.844 57.0597 319.83 57.5942 319.802 58.4381C319.802 59.2538 319.802 60.2102 319.802 61.3073C319.802 62.4043 319.802 63.4591 319.802 64.4718V70.168C319.802 71.9682 319.816 73.5294 319.844 74.8515C319.872 76.1454 319.886 76.9893 319.886 77.3831L323.473 77.8894L323.346 79.5772H312.587L312.502 77.8894L316.047 77.3831C316.047 76.9893 316.061 76.1454 316.089 74.8515C316.117 73.5294 316.131 71.9682 316.131 70.168V64.4718C316.131 63.4591 316.131 62.4043 316.131 61.3073C316.131 60.2102 316.131 59.2538 316.131 58.4381C316.131 57.5942 316.117 57.0597 316.089 56.8347C315.723 56.8066 315.301 56.7925 314.823 56.7925C314.373 56.7925 313.993 56.7925 313.684 56.7925H312.038C311.813 56.7925 311.56 56.8066 311.279 56.8347C310.997 56.8347 310.744 56.8628 310.519 56.9191L308.789 61.7292L306.891 61.476L307.819 54.6406C308.156 54.6688 308.494 54.6969 308.832 54.725C309.169 54.725 309.507 54.7391 309.844 54.7672C310.182 54.7672 310.519 54.7813 310.857 54.8094C311.223 54.8094 311.574 54.8094 311.912 54.8094H323.979C324.317 54.8094 324.654 54.8094 324.992 54.8094C325.329 54.7813 325.667 54.7672 326.004 54.7672C326.342 54.7391 326.68 54.725 327.017 54.725C327.383 54.6969 327.734 54.6688 328.072 54.6406Z" fill="#F0E8E3"/>
<path d="M294.678 79.5783L294.594 77.975L297.168 77.3842C297.224 77.2436 297.252 76.9201 297.252 76.4138C297.28 75.9075 297.294 75.2183 297.294 74.3463C297.322 73.4743 297.336 72.4194 297.336 71.1818V63.2493C297.336 61.9835 297.322 60.9146 297.294 60.0426C297.294 59.1424 297.28 58.4392 297.252 57.9329C297.252 57.4266 297.224 57.1171 297.168 57.0046L294.594 56.4139L294.678 54.8105H303.665L303.75 56.4139L301.176 57.0046C301.12 57.089 301.063 57.3703 301.007 57.8485C300.979 58.2986 300.951 58.9737 300.923 59.8738C300.923 60.7458 300.923 61.871 300.923 63.2493V71.1818C300.923 72.532 300.923 73.6431 300.923 74.5151C300.951 75.3871 300.979 76.0622 301.007 76.5404C301.063 76.9904 301.12 77.2717 301.176 77.3842L303.75 77.975L303.665 79.5783H294.678Z" fill="#F0E8E3"/>
<path d="M280.535 79.957C277.975 79.957 275.669 79.4928 273.615 78.5646C271.562 77.6082 269.93 76.2017 268.721 74.3452C267.511 72.4886 266.906 70.1821 266.906 67.4254C266.906 65.6532 267.216 63.9936 267.835 62.4465C268.481 60.8713 269.396 59.4789 270.577 58.2693C271.787 57.0598 273.249 56.1174 274.965 55.4423C276.709 54.7672 278.692 54.4297 280.915 54.4297C282.068 54.4297 283.306 54.5422 284.628 54.7672C285.95 54.9923 287.089 55.3158 288.045 55.7377L288.299 61.2651L286.442 61.4339L285.218 57.6786C284.684 57.2848 283.967 57.0035 283.066 56.8347C282.194 56.666 281.365 56.5816 280.577 56.5816C278.411 56.5816 276.639 57.0457 275.261 57.974C273.882 58.8741 272.87 60.0837 272.223 61.6026C271.604 63.1216 271.294 64.7953 271.294 66.6237C271.294 69.0147 271.716 71.04 272.56 72.6996C273.432 74.3592 274.6 75.6251 276.062 76.4971C277.525 77.3409 279.171 77.7629 280.999 77.7629C281.815 77.7629 282.701 77.6504 283.657 77.4253C284.614 77.1722 285.472 76.7784 286.231 76.2439L285.218 78.6068V74.1764C285.218 73.2763 285.204 72.4746 285.176 71.7714C285.148 71.04 285.106 70.4915 285.05 70.1258L282.18 69.6617L282.265 67.9739H290.493L290.577 69.5773L288.72 70.0836C288.72 70.2242 288.72 70.5618 288.72 71.0963C288.72 71.6307 288.72 72.2777 288.72 73.0372C288.72 73.9936 288.735 74.8234 288.763 75.5266C288.791 76.2017 288.819 76.9049 288.847 77.6363C287.75 78.3395 286.428 78.9021 284.881 79.3241C283.362 79.746 281.913 79.957 280.535 79.957Z" fill="#F0E8E3"/>
<path d="M253.225 79.5783L253.141 77.975L255.714 77.3842C255.771 77.2436 255.799 76.9201 255.799 76.4138C255.827 75.9075 255.841 75.2183 255.841 74.3463C255.869 73.4743 255.883 72.4194 255.883 71.1818V63.2493C255.883 61.9835 255.869 60.9146 255.841 60.0426C255.841 59.1424 255.827 58.4392 255.799 57.9329C255.799 57.4266 255.771 57.1171 255.714 57.0046L253.141 56.4139L253.225 54.8105H262.212L262.297 56.4139L259.723 57.0046C259.667 57.089 259.61 57.3703 259.554 57.8485C259.526 58.2986 259.498 58.9737 259.47 59.8738C259.47 60.7458 259.47 61.871 259.47 63.2493V71.1818C259.47 72.532 259.47 73.6431 259.47 74.5151C259.498 75.3871 259.526 76.0622 259.554 76.5404C259.61 76.9904 259.667 77.2717 259.723 77.3842L262.297 77.975L262.212 79.5783H253.225Z" fill="#F0E8E3"/>
<path d="M223.928 54.8105H234.139C238.583 54.8105 242.043 55.8795 244.519 58.0173C247.022 60.127 248.274 63.0946 248.274 66.9202C248.274 69.3955 247.697 71.5896 246.544 73.5024C245.391 75.3871 243.787 76.8779 241.734 77.975C239.68 79.0439 237.318 79.5783 234.645 79.5783H223.928L223.844 77.975L226.418 77.3842C226.474 77.1311 226.516 76.4138 226.544 75.2324C226.6 74.0509 226.629 72.7007 226.629 71.1818V63.2493C226.629 61.5897 226.6 60.1832 226.544 59.0299C226.516 57.8766 226.474 57.2015 226.418 57.0046L223.844 56.4139L223.928 54.8105ZM230.299 57.089C230.299 57.3422 230.285 57.6938 230.257 58.1439C230.257 58.5658 230.243 59.1846 230.215 60.0004C230.215 60.788 230.215 61.871 230.215 63.2493V71.1818C230.215 72.0256 230.215 72.8273 230.215 73.5868C230.243 74.3182 230.271 74.9792 230.299 75.5699C230.356 76.1606 230.398 76.6529 230.426 77.0467C231.326 77.1592 232.128 77.2577 232.831 77.3421C233.562 77.3983 234.266 77.4264 234.941 77.4264C237.922 77.4264 240.187 76.6388 241.734 75.0636C243.281 73.4602 244.055 71.1536 244.055 68.1438C244.055 66.3154 243.83 64.698 243.38 63.2915C242.929 61.8569 242.254 60.6614 241.354 59.705C240.482 58.7486 239.399 58.0313 238.105 57.5531C236.839 57.0468 235.363 56.7937 233.675 56.7937C233.169 56.7937 232.634 56.8218 232.072 56.878C231.509 56.9062 230.918 56.9765 230.299 57.089Z" fill="#F0E8E3"/>
<path d="M201.16 79.957C198.6 79.957 196.293 79.4928 194.24 78.5646C192.187 77.6082 190.555 76.2017 189.346 74.3452C188.136 72.4886 187.531 70.1821 187.531 67.4254C187.531 65.6532 187.841 63.9936 188.46 62.4465C189.106 60.8713 190.021 59.4789 191.202 58.2693C192.412 57.0598 193.874 56.1174 195.59 55.4423C197.334 54.7672 199.317 54.4297 201.54 54.4297C202.693 54.4297 203.931 54.5422 205.253 54.7672C206.575 54.9923 207.714 55.3158 208.67 55.7377L208.924 61.2651L207.067 61.4339L205.843 57.6786C205.309 57.2848 204.592 57.0035 203.691 56.8347C202.819 56.666 201.99 56.5816 201.202 56.5816C199.036 56.5816 197.264 57.0457 195.886 57.974C194.507 58.8741 193.495 60.0837 192.848 61.6026C192.229 63.1216 191.919 64.7953 191.919 66.6237C191.919 69.0147 192.341 71.04 193.185 72.6996C194.057 74.3592 195.225 75.6251 196.687 76.4971C198.15 77.3409 199.796 77.7629 201.624 77.7629C202.44 77.7629 203.326 77.6504 204.282 77.4253C205.239 77.1722 206.097 76.7784 206.856 76.2439L205.843 78.6068V74.1764C205.843 73.2763 205.829 72.4746 205.801 71.7714C205.773 71.04 205.731 70.4915 205.675 70.1258L202.805 69.6617L202.89 67.9739H211.118L211.202 69.5773L209.345 70.0836C209.345 70.2242 209.345 70.5618 209.345 71.0963C209.345 71.6307 209.345 72.2777 209.345 73.0372C209.345 73.9936 209.36 74.8234 209.388 75.5266C209.416 76.2017 209.444 76.9049 209.472 77.6363C208.375 78.3395 207.053 78.9021 205.506 79.3241C203.987 79.746 202.538 79.957 201.16 79.957Z" fill="#F0E8E3"/>
<path d="M177.731 73.5446V64.0932C177.731 62.4336 177.717 61.1115 177.689 60.127C177.661 59.1143 177.633 58.3689 177.604 57.8907C177.576 57.3844 177.548 57.089 177.52 57.0046L174.651 56.4139L174.777 54.8105H182.794L182.921 56.4139L180.305 57.0046C180.305 57.089 180.277 57.3844 180.22 57.8907C180.192 58.3689 180.164 59.1143 180.136 60.127C180.108 61.1115 180.094 62.4336 180.094 64.0932V74.1353C180.094 75.0073 180.094 75.9215 180.094 76.8779C180.094 77.8062 180.108 78.7626 180.136 79.7471H178.237L162.71 58.8612H163.638V70.1691C163.638 71.8569 163.652 73.2211 163.68 74.2619C163.709 75.2746 163.737 76.02 163.765 76.4982C163.821 76.9764 163.863 77.2717 163.891 77.3842L166.761 77.975L166.634 79.5783H158.533L158.406 77.975L160.98 77.3842C161.008 77.2717 161.036 76.9764 161.064 76.4982C161.121 76.02 161.163 75.2746 161.191 74.2619C161.219 73.2211 161.233 71.8569 161.233 70.1691V62.954C161.233 61.6881 161.219 60.6474 161.191 59.8316C161.163 59.0159 161.135 58.383 161.107 57.9329C161.079 57.4828 161.036 57.1734 160.98 57.0046L158.406 56.4139L158.533 54.8105H164.313L178.491 73.5446H177.731Z" fill="#F0E8E3"/>
<path d="M144.897 79.5783L144.812 77.975L147.386 77.3842C147.443 77.2436 147.471 76.9201 147.471 76.4138C147.499 75.9075 147.513 75.2183 147.513 74.3463C147.541 73.4743 147.555 72.4194 147.555 71.1818V63.2493C147.555 61.9835 147.541 60.9146 147.513 60.0426C147.513 59.1424 147.499 58.4392 147.471 57.9329C147.471 57.4266 147.443 57.1171 147.386 57.0046L144.812 56.4139L144.897 54.8105H153.884L153.969 56.4139L151.395 57.0046C151.338 57.089 151.282 57.3703 151.226 57.8485C151.198 58.2986 151.17 58.9737 151.142 59.8738C151.142 60.7458 151.142 61.871 151.142 63.2493V71.1818C151.142 72.532 151.142 73.6431 151.142 74.5151C151.17 75.3871 151.198 76.0622 151.226 76.5404C151.282 76.9904 151.338 77.2717 151.395 77.3842L153.969 77.975L153.884 79.5783H144.897Z" fill="#F0E8E3"/>
<path d="M135.176 73.5446V64.0932C135.176 62.4336 135.162 61.1115 135.134 60.127C135.106 59.1143 135.078 58.3689 135.05 57.8907C135.022 57.3844 134.994 57.089 134.965 57.0046L132.096 56.4139L132.223 54.8105H140.24L140.366 56.4139L137.75 57.0046C137.75 57.089 137.722 57.3844 137.666 57.8907C137.638 58.3689 137.61 59.1143 137.581 60.127C137.553 61.1115 137.539 62.4336 137.539 64.0932V74.1353C137.539 75.0073 137.539 75.9215 137.539 76.8779C137.539 77.8062 137.553 78.7626 137.581 79.7471H135.683L120.155 58.8612H121.084V70.1691C121.084 71.8569 121.098 73.2211 121.126 74.2619C121.154 75.2746 121.182 76.02 121.21 76.4982C121.266 76.9764 121.309 77.2717 121.337 77.3842L124.206 77.975L124.079 79.5783H115.978L115.852 77.975L118.425 77.3842C118.454 77.2717 118.482 76.9764 118.51 76.4982C118.566 76.02 118.608 75.2746 118.636 74.2619C118.664 73.2211 118.679 71.8569 118.679 70.1691V62.954C118.679 61.6881 118.664 60.6474 118.636 59.8316C118.608 59.0159 118.58 58.383 118.552 57.9329C118.524 57.4828 118.482 57.1734 118.425 57.0046L115.852 56.4139L115.978 54.8105H121.759L135.936 73.5446H135.176Z" fill="#F0E8E3"/>
<path d="M101.793 79.957C99.2329 79.957 96.9263 79.4928 94.8729 78.5646C92.8194 77.6082 91.188 76.2017 89.9784 74.3452C88.7688 72.4886 88.1641 70.1821 88.1641 67.4254C88.1641 65.6532 88.4735 63.9936 89.0923 62.4465C89.7393 60.8713 90.6535 59.4789 91.8349 58.2693C93.0445 57.0598 94.5072 56.1174 96.2231 55.4423C97.9671 54.7672 99.9502 54.4297 102.172 54.4297C103.326 54.4297 104.563 54.5422 105.885 54.7672C107.208 54.9923 108.347 55.3158 109.303 55.7377L109.556 61.2651L107.7 61.4339L106.476 57.6786C105.942 57.2848 105.224 57.0035 104.324 56.8347C103.452 56.666 102.622 56.5816 101.835 56.5816C99.6689 56.5816 97.8968 57.0457 96.5184 57.974C95.1401 58.8741 94.1275 60.0837 93.4805 61.6026C92.8616 63.1216 92.5522 64.7953 92.5522 66.6237C92.5522 69.0147 92.9742 71.04 93.818 72.6996C94.69 74.3592 95.8574 75.6251 97.3201 76.4971C98.7828 77.3409 100.428 77.7629 102.257 77.7629C103.073 77.7629 103.959 77.6504 104.915 77.4253C105.871 77.1722 106.729 76.7784 107.489 76.2439L106.476 78.6068V74.1764C106.476 73.2763 106.462 72.4746 106.434 71.7714C106.406 71.04 106.364 70.4915 106.307 70.1258L103.438 69.6617L103.523 67.9739H111.75L111.835 69.5773L109.978 70.0836C109.978 70.2242 109.978 70.5618 109.978 71.0963C109.978 71.6307 109.978 72.2777 109.978 73.0372C109.978 73.9936 109.992 74.8234 110.02 75.5266C110.049 76.2017 110.077 76.9049 110.105 77.6363C109.008 78.3395 107.686 78.9021 106.139 79.3241C104.62 79.746 103.171 79.957 101.793 79.957Z" fill="#F0E8E3"/>
<path d="M74.475 79.5783L74.3906 77.975L76.9645 77.3842C77.0207 77.2436 77.0488 76.9201 77.0488 76.4138C77.077 75.9075 77.091 75.2183 77.091 74.3463C77.1192 73.4743 77.1332 72.4194 77.1332 71.1818V63.2493C77.1332 61.9835 77.1192 60.9146 77.091 60.0426C77.091 59.1424 77.077 58.4392 77.0488 57.9329C77.0488 57.4266 77.0207 57.1171 76.9645 57.0046L74.3906 56.4139L74.475 54.8105H83.4623L83.5467 56.4139L80.9729 57.0046C80.9166 57.089 80.8604 57.3703 80.8041 57.8485C80.776 58.2986 80.7478 58.9737 80.7197 59.8738C80.7197 60.7458 80.7197 61.871 80.7197 63.2493V71.1818C80.7197 72.532 80.7197 73.6431 80.7197 74.5151C80.7478 75.3871 80.776 76.0622 80.8041 76.5404C80.8604 76.9904 80.9166 77.2717 80.9729 77.3842L83.5467 77.975L83.4623 79.5783H74.475Z" fill="#F0E8E3"/>
<path d="M61.1761 79.9562C59.9665 79.9562 58.7007 79.8015 57.3786 79.4921C56.0566 79.1826 54.9877 78.7888 54.1719 78.3106L53.9609 72.8676L55.7753 72.6988L56.9567 76.4541C57.6318 76.9042 58.3772 77.2558 59.193 77.5089C60.0087 77.734 60.8807 77.8465 61.809 77.8465C63.2155 77.8465 64.3266 77.5089 65.1423 76.8338C65.9862 76.1587 66.4081 75.2445 66.4081 74.0912C66.4081 73.1067 66.1128 72.291 65.522 71.644C64.9313 70.9689 64.1578 70.3922 63.2014 69.9141C62.2731 69.4359 61.2745 68.9577 60.2056 68.4795C59.1648 68.0013 58.1663 67.4668 57.2099 66.8761C56.2816 66.2573 55.5221 65.5118 54.9314 64.6398C54.3407 63.7397 54.0453 62.6286 54.0453 61.3065C54.0453 59.9282 54.4251 58.7327 55.1846 57.72C55.944 56.6793 56.9989 55.8635 58.3491 55.2728C59.7274 54.6821 61.2886 54.3867 63.0326 54.3867C63.764 54.3867 64.4672 54.4289 65.1423 54.5133C65.8455 54.5696 66.4925 54.668 67.0832 54.8087C67.6739 54.9493 68.2084 55.1321 68.6866 55.3572L69.0241 60.6314L67.2098 60.8002L66.0284 57.2559C65.1564 56.6933 64.0031 56.412 62.5685 56.412C61.1339 56.412 59.9806 56.7636 59.1086 57.4669C58.2647 58.142 57.8428 59.0562 57.8428 60.2095C57.8428 61.2221 58.1381 62.066 58.7288 62.7411C59.3477 63.4162 60.1212 64.0069 61.0495 64.5132C62.0059 65.0196 63.0045 65.5118 64.0453 65.99C65.1142 66.4682 66.1128 67.0027 67.041 67.5934C67.9974 68.1841 68.771 68.9155 69.3617 69.7875C69.9805 70.6313 70.29 71.6862 70.29 72.952C70.29 74.3022 69.8961 75.5118 69.1085 76.5807C68.349 77.6215 67.2801 78.4513 65.9018 79.0701C64.5235 79.6608 62.9482 79.9562 61.1761 79.9562Z" fill="#F0E8E3"/>
<path d="M48.2059 79.7882C47.3902 79.7038 46.6588 79.6475 46.0118 79.6194C45.393 79.5912 44.8023 79.5772 44.2397 79.5772H29.7672L29.6406 77.9738L32.2566 77.3831C32.3129 77.2425 32.341 76.919 32.341 76.4126C32.3692 75.9063 32.3832 75.2172 32.3832 74.3451C32.4114 73.4731 32.4254 72.4183 32.4254 71.1806V63.2482C32.4254 61.9824 32.4114 60.9134 32.3832 60.0414C32.3832 59.1413 32.3692 58.4381 32.341 57.9317C32.341 57.4254 32.3129 57.116 32.2566 57.0035L29.6406 56.4128L29.7672 54.8094H43.3114C43.7052 54.8094 44.1131 54.8094 44.535 54.8094C44.9851 54.7813 45.4633 54.7531 45.9696 54.725C46.476 54.6969 46.9964 54.6688 47.5308 54.6406L48.3747 60.2102L46.476 60.5056L45.0836 56.9613C44.8585 56.905 44.6054 56.8769 44.3241 56.8769C44.0428 56.8488 43.7474 56.8347 43.438 56.8347H38.6701C38.1356 56.8347 37.6575 56.8488 37.2355 56.8769C36.8417 56.8769 36.4479 56.905 36.0541 56.9613C36.0541 57.0738 36.04 57.3973 36.0119 57.9317C36.0119 58.4381 35.9978 59.0288 35.9697 59.7039C35.9697 60.379 35.9697 61.0541 35.9697 61.7292V73.1215C35.9697 73.6841 35.9697 74.2608 35.9697 74.8515C35.9978 75.4141 36.0119 75.9204 36.0119 76.3705C36.04 76.8205 36.0541 77.1299 36.0541 77.2987C36.4479 77.3268 36.8558 77.355 37.2777 77.3831C37.7278 77.4112 38.22 77.4253 38.7545 77.4253H42.8473C43.4661 77.4253 43.9725 77.4253 44.3663 77.4253C44.7601 77.3972 45.0695 77.369 45.2945 77.3409C45.5196 77.3128 45.7024 77.2847 45.8431 77.2565L48.0371 73.2481L49.9359 73.6279L48.2059 79.7882ZM43.5224 70.9274L43.0161 68.0583C42.8754 68.002 42.6363 67.9598 42.2988 67.9317C41.9612 67.9036 41.5534 67.8895 41.0752 67.8895H37.8684C37.5027 67.8895 37.1089 67.9036 36.687 67.9317C36.2651 67.9598 35.815 67.9879 35.3368 68.0161V65.6954C35.815 65.7235 36.2651 65.7517 36.687 65.7798C37.1089 65.7798 37.5027 65.7798 37.8684 65.7798H41.0752C41.5534 65.7798 41.9612 65.7657 42.2988 65.7376C42.6363 65.7095 42.8754 65.6813 43.0161 65.6532L43.5224 62.7418H45.3367V70.9274H43.5224Z" fill="#F0E8E3"/>
<path d="M0.475013 54.8105H10.6859C15.1303 54.8105 18.5902 55.8795 21.0656 58.0173C23.5691 60.127 24.8209 63.0946 24.8209 66.9202C24.8209 69.3955 24.2442 71.5896 23.0909 73.5024C21.9376 75.3871 20.3342 76.8779 18.2808 77.975C16.2274 79.0439 13.8645 79.5783 11.1922 79.5783H0.475013L0.390625 77.975L2.96445 77.3842C3.02071 77.1311 3.0629 76.4138 3.09103 75.2324C3.14729 74.0509 3.17542 72.7007 3.17542 71.1818V63.2493C3.17542 61.5897 3.14729 60.1832 3.09103 59.0299C3.0629 57.8766 3.02071 57.2015 2.96445 57.0046L0.390625 56.4139L0.475013 54.8105ZM6.84628 57.089C6.84628 57.3422 6.83222 57.6938 6.80409 58.1439C6.80409 58.5658 6.79002 59.1846 6.76189 60.0004C6.76189 60.788 6.76189 61.871 6.76189 63.2493V71.1818C6.76189 72.0256 6.76189 72.8273 6.76189 73.5868C6.79002 74.3182 6.81815 74.9792 6.84628 75.5699C6.90254 76.1606 6.94473 76.6529 6.97286 77.0467C7.873 77.1592 8.67468 77.2577 9.37791 77.3421C10.1093 77.3983 10.8125 77.4264 11.4876 77.4264C14.4693 77.4264 16.7337 76.6388 18.2808 75.0636C19.8279 73.4602 20.6015 71.1536 20.6015 68.1438C20.6015 66.3154 20.3764 64.698 19.9264 63.2915C19.4763 61.8569 18.8012 60.6614 17.9011 59.705C17.0291 58.7486 15.9461 58.0313 14.6521 57.5531C13.3863 57.0468 11.9095 56.7937 10.2218 56.7937C9.71546 56.7937 9.18101 56.8218 8.61842 56.878C8.05584 56.9062 7.46513 56.9765 6.84628 57.089Z" fill="#F0E8E3"/>
</svg>
