<?xml version="1.0" encoding="UTF-8"?>
<svg id="Layer_1" xmlns="http://www.w3.org/2000/svg" version="1.1" viewBox="0 0 805.8 532.4">
  <!-- Generator: Adobe Illustrator 29.4.0, SVG Export Plug-In . SVG Version: 2.1.0 Build 152)  -->
  <path d="M29.7,46.8h0v-.4c.4,0,.8-.2,1.1-.2.4-.1.7-.2.9-.4s.4-.4.6-.7v.7c.1.2.2.5.4.5.2.2.5.2.9.2h.6c.2,0,.5-.2.5-.2v-1c-.1.2-.3.2-.3.2h-.6v-7.1h-1.6v5c0,.4-.1.8-.3,1.1-.2.4-.4.6-.7.8-.3.3-.5.3-1,.3s-1-.2-1.3-.5c-.3-.3-.5-.8-.5-1.5v-5.1h-1.6v5.4c0,1,.3,1.7.8,2.2s1.2.7,2.1.7ZM43.8,38.4h-1.7l-2,2.9-1.9-2.9h-1.9l2.7,4-2.9,4.2h1.8l2.1-3.1,2.1,3.1h1.9l-3-4.2,2.8-4ZM48.1,46.5c.4.3.9.3,1.4.3h.2c.6,0,1.2,0,1.7-.4.5-.3.9-.7,1.2-1.2.4-.5.4-1.1.4-1.8h-1.4c0,.5,0,1-.3,1.3s-.4.5-.7.7c-.3.2-.4.2-1,.2s-1.1-.3-1.5-.7c-.4-.4-.6-1.1-.6-1.9v-1.1c0-.8.2-1.5.6-1.9.4-.4.9-.6,1.5-.6s.7,0,1,.2c.3.1.5.4.7.7.3.4.3.8.3,1.3h1.4c0-.7,0-1.3-.4-1.8-.3-.5-.7-.9-1.2-1.2-.5-.4-1-.4-1.7-.4h-.2c-.5,0-1,0-1.4.3-.5.2-.9.4-1.2.8-.4.4-.6.8-.8,1.3-.3.5-.3,1.1-.3,1.7v.4c0,.6.1,1.2.3,1.7.2.5.5.9.8,1.3.4.3.8.6,1.2.8ZM62.9,45.7h-.1c0-.1-.3-.1-.3-.1v-4.7c0-.9-.3-1.5-.8-1.9s-1.3-.6-2.4-.6-1.8.2-2.4.6c-.6.4-.9,1-.9,1.7s0,.3,0,.3h0c0,0,1.5,0,1.5,0v-.2c0-.4.2-.8.5-1,.3-.2.8-.4,1.3-.4s1.1,0,1.3.4c.3.2.4.6.4,1.1v.9c-1.3,0-2.3,0-3.1.3-.8.2-1.3.5-1.7.9-.3.4-.5.9-.5,1.5s.2,1.4.7,1.7c.5.4,1.1.6,2,.6h1.1c.4,0,.7-.2,1-.4s.5-.5.7-.8c0,.4,0,.6.2.8,0,.2.2.3.4.4h1.4c.2,0,.4,0,.5-.2v-1c-.2,0-.4.2-.6.2l-.2-.2ZM60.7,43.1h0c0,.5,0,.9-.2,1.3-.2.4-.4.7-.7.9s-.7.3-1.2.3-.9,0-1.2-.3c-.3-.3-.4-.5-.4-1s0-.7.3-1,.6-.4,1.2-.5c.5,0,1.3-.2,2.2-.2v.5ZM66.3,40.7c0-.4.1-.6.3-.9.2-.3.1-.3.7-.3s.9.4.9,1.2v5.9h1.4v-5.9c0-.4.1-.6.3-.9.2-.3,0-.3.7-.3s.9.4.9,1.2v5.9h1.4v-6.2c0-.7-.2-1.2-.5-1.6-.3-.4-.8-.6-1.3-.6s-.8,0-1.1.3c-.3,0-.5.4-.7.8,0-.3-.3-.6-.6-.8-.3-.3-.6-.3-1-.3s-.7,0-1,.3-.5.4-.7.8l-.2-.9h-.9v8.2h1.4v-5.9ZM76.6,45.8c.2.3.5.5.9.8.4.2.9.3,1.4.3s1.2,0,1.6-.5c.5-.3.9-.8,1.2-1.4s.5-1.4.5-2.3v-.2c0-1-.2-1.8-.4-2.4h.1c-.3-.6-.7-1.1-1.2-1.3-.5-.3-1-.4-1.6-.4s-1.1,0-1.6.3c-.4.2-.8.6-1,1l-.2-1.2h-1.3v11.1h1.6v-3.8ZM76.6,42.1c0-.7,0-1.2.3-1.6.2-.4.4-.7.8-.8.3-.2.6-.3,1-.3s.7,0,1,.3c.3.2.6.4.7.8.2.4.3.9.3,1.5v.9h0c0,1-.2,1.6-.6,2.1-.4.4-.9.6-1.4.6s-1.1-.2-1.5-.6c-.4-.4-.6-1.1-.6-2v-.9ZM92,47.5h-8v1.2h8v-1.2ZM98.4,46.6l3.2-8.2h-1.5l-2.4,6.3h-.1l-2.3-6.3h-1.8l3.2,8.2h1.7ZM108.4,46.6h2.8v-1.2h-2.8v-7h-4.5v1.3h2.9v5.7h-2.9v1.2h4.5ZM108.3,35.2h-1.5v1.5h1.5v-1.5ZM120.5,42.8v-.2h0v.2h0ZM114.6,46.2c.6.3,1.3.5,2.1.5s1.4,0,1.9-.4c.5-.3,1-.6,1.3-1.1.3-.5.5-1,.5-1.7h-1.5c0,.7-.2,1.2-.5,1.5-.3.3-.9.5-1.5.5s-1.1-.2-1.5-.7c-.4-.4-.6-1.1-.6-1.9v-.3h5.6v-.9c0-.7,0-1.2-.5-1.8-.3-.5-.7-.9-1.2-1.2s-1.2-.4-1.9-.4-1.5.2-2,.5c-.6.3-1,.8-1.3,1.4-.3.6-.5,1.3-.5,2.2v.3c0,.8,0,1.5.4,2.1.4.6.7,1.1,1.2,1.4ZM114.7,41.7c0-.4,0-.7.2-1.1.2-.4.4-.6.7-.9.3-.2.7-.3,1.2-.3s.8,0,1.1.3c.3.2.5.4.7.8.2.3.2.7.2,1.1v.2h-4.1ZM126.4,35.9h-1l-.6,2.6h-2.4v1.2h2.4v4.4c0,1,.2,1.7.8,2.1.6.4,1.3.6,2.3.6h1.2c.4,0,.7-.3,1-.3v-1.2c-.2.1-.5.3-.8.3h-.9c-.5,0-.8-.2-1.1-.2-.3-.1-.7-.3-.7-.5-.2-.2-.2-.5-.2-.9v-4.3h3.7v-1.2h-3.7v-2.6ZM134.1,41.9c0-.5,0-.9.2-1.2.2-.3.4-.5.7-.8.3-.3.4-.3,1-.3s1,.1,1.3.5c.3.4.5.9.5,1.7v4.9h1.6v-5.4c0-1-.3-1.7-.8-2.2s-1.2-.8-2.1-.8-1.1.1-1.5.3c-.4.2-.8.5-1,1l-.2-1.2h-1.3v8.2h0c0,.1,1.6.1,1.6.1v-4.8ZM150,46.7v-1c-.2,0-.4.2-.6.2l-.2-.2h0c0-.1-.3-.1-.3-.1,0,0-.1-.2-.1-.4v-4.3c0-.9-.3-1.5-.8-1.9s-1.3-.6-2.4-.6-1.8.2-2.4.6c-.6.4-.9,1-.9,1.7s0,.3,0,.3h0c0,0,1.5,0,1.5,0v-.2c0-.4.2-.8.5-1,.3-.2.8-.4,1.3-.4s1.1,0,1.3.4c.3.2.4.6.4,1.1v.9c-1.3,0-2.3,0-3.1.3-.8.2-1.3.5-1.7.9-.3.4-.5.9-.5,1.5s.2,1.4.7,1.7c.5.4,1.1.6,2,.6h1.1c.3,0,.7-.2,1-.4.3-.2.5-.5.7-.8,0,.4,0,.6.2.8,0,.2.2.3.4.4h1.4c.2,0,.4,0,.5-.2ZM147.1,43.1h0c0,.5,0,.9-.2,1.3-.2.4-.4.7-.7.9s-.7.3-1.2.3-.9,0-1.2-.3-.4-.5-.4-1,.1-.7.3-1c.2-.3.6-.4,1.2-.5.5,0,1.3-.2,2.2-.2v.5ZM152.6,40.7c0-.4,0-.6.3-.9s.1-.3.7-.3.9.4.9,1.2v5.9h1.4v-5.9c0-.4,0-.6.3-.9s.1-.3.7-.3.9.4.9,1.2v5.9h1.4v-6.2c0-.7-.2-1.2-.5-1.6-.3-.4-.8-.6-1.3-.6s-.8,0-1.1.3c-.3,0-.5.4-.7.8,0-.3-.3-.6-.6-.8-.3-.3-.6-.3-1-.3s-.7,0-1,.3-.5.4-.7.8l-.2-.9h-.9v8.2h1.4v-5.9ZM313,51.1h-1.2v14.7h1.2v-14.7ZM321.4,65.8h1.2v-14.7h-1.2v14.7ZM332.2,51.1h-1.2v14.7h1.2v-14.7ZM341.8,51.1h-1.2v14.7h1.2v-14.7ZM409,51.1h-1.2v14.7h1.2v-14.7ZM417.4,65.8h1.2v-14.7h-1.2v14.7ZM628,65.8h1.2v-14.7h-1.2v14.7ZM637.6,65.8h1.2v-14.7h-1.2v14.7ZM332.2,67.1h-1.2v14.7h1.2v-14.7ZM341.8,67.1h-1.2v14.7h1.2v-14.7ZM628,81.8h1.2v-14.7h-1.2v14.7ZM637.6,81.8h1.2v-14.7h-1.2v14.7ZM40.6,83.1h-1.2v14.7h1.2v-14.7ZM50.2,83.1h-1.2v14.7h1.2v-14.7ZM59.8,83.1h-1.2v14.7h1.2v-14.7ZM69.4,83.1h-1.2v14.7h1.2v-14.7ZM79,83.1h-1.2v14.7h1.2v-14.7ZM88.6,83.1h-1.2v14.7h1.2v-14.7ZM120.8,97.8h1.2v-14.7h-1.2v14.7ZM130.4,97.8h1.2v-14.7h-1.2v14.7ZM149.6,97.8h1.2v-14.7h-1.2v14.7ZM159.2,97.8h1.2v-14.7h-1.2v14.7ZM168.7,97.8h1.2v-14.7h-1.2v14.7ZM178.3,97.8h1.2v-14.7h-1.2v14.7ZM216.3,97.8h1.2v-14.7h-1.2v14.7ZM225.9,97.8h1.2v-14.7h-1.2v14.7ZM245.1,97.8h1.2v-14.7h-1.2v14.7ZM254.7,97.8h1.2v-14.7h-1.2v14.7ZM264.3,97.8h1.2v-14.7h-1.2v14.7ZM273.9,97.8h1.2v-14.7h-1.2v14.7ZM332.2,83.1h-1.2v14.7h1.2v-14.7ZM341.8,83.1h-1.2v14.7h1.2v-14.7ZM388.6,97.8h1.2v-14.7h-1.2v14.7ZM398.2,97.8h1.2v-14.7h-1.2v14.7ZM409,83.1h-1.2v14.7h1.2v-14.7ZM417.4,97.8h1.2v-14.7h-1.2v14.7ZM484.1,97.8h1.2v-14.7h-1.2v14.7ZM493.7,97.8h1.2v-14.7h-1.2v14.7ZM503.3,97.8h1.2v-14.7h-1.2v14.7ZM512.9,97.8h1.2v-14.7h-1.2v14.7ZM522.5,97.8h1.2v-14.7h-1.2v14.7ZM589.7,97.8h1.2v-14.7h-1.2v14.7ZM599.2,97.8h1.2v-14.7h-1.2v14.7ZM608.8,97.8h1.2v-14.7h-1.2v14.7ZM628,97.8h1.2v-14.7h-1.2v14.7ZM637.6,97.8h1.2v-14.7h-1.2v14.7ZM88.6,99.1h-1.2v14.7h1.2v-14.7ZM98.2,99.1h-1.2v14.7h1.2v-14.7ZM120.8,113.8h1.2v-14.7h-1.2v14.7ZM130.4,113.8h1.2v-14.7h-1.2v14.7ZM140,113.8h1.2v-14.7h-1.2v14.7ZM149.6,113.8h1.2v-14.7h-1.2v14.7ZM178.3,113.8h1.2v-14.7h-1.2v14.7ZM187.9,113.8h1.2v-14.7h-1.2v14.7ZM216.3,113.8h1.2v-14.7h-1.2v14.7ZM225.9,113.8h1.2v-14.7h-1.2v14.7ZM235.5,113.8h1.2v-14.7h-1.2v14.7ZM245.1,113.8h1.2v-14.7h-1.2v14.7ZM273.9,113.8h1.2v-14.7h-1.2v14.7ZM283.5,113.8h1.2v-14.7h-1.2v14.7ZM332.2,99.1h-1.2v14.7h1.2v-14.7ZM341.8,99.1h-1.2v14.7h1.2v-14.7ZM409,99.1h-1.2v14.7h1.2v-14.7ZM417.4,113.8h1.2v-14.7h-1.2v14.7ZM464.9,113.8h1.2v-14.7h-1.2v14.7ZM474.5,113.8h1.2v-14.7h-1.2v14.7ZM522.5,113.8h1.2v-14.7h-1.2v14.7ZM532.1,113.8h1.2v-14.7h-1.2v14.7ZM570.5,113.8h1.2v-14.7h-1.2v14.7ZM580.1,113.8h1.2v-14.7h-1.2v14.7ZM618.4,113.8h1.2v-14.7h-1.2v14.7ZM628,113.8h1.2v-14.7h-1.2v14.7ZM637.6,113.8h1.2v-14.7h-1.2v14.7ZM39.4,129.8h1.2v-14.7h-1.2v14.7ZM50.2,115.1h-1.2v14.7h1.2v-14.7ZM58.6,129.8h1.2v-14.7h-1.2v14.7ZM69.4,115.1h-1.2v14.7h1.2v-14.7ZM77.8,129.8h1.2v-14.7h-1.2v14.7ZM88.6,115.1h-1.2v14.7h1.2v-14.7ZM98.2,115.1h-1.2v14.7h1.2v-14.7ZM120.8,129.8h1.2v-14.7h-1.2v14.7ZM130.4,129.8h1.2v-14.7h-1.2v14.7ZM178.3,129.8h1.2v-14.7h-1.2v14.7ZM187.9,129.8h1.2v-14.7h-1.2v14.7ZM216.3,129.8h1.2v-14.7h-1.2v14.7ZM225.9,129.8h1.2v-14.7h-1.2v14.7ZM273.9,129.8h1.2v-14.7h-1.2v14.7ZM283.5,129.8h1.2v-14.7h-1.2v14.7ZM332.2,115.1h-1.2v14.7h1.2v-14.7ZM341.8,115.1h-1.2v14.7h1.2v-14.7ZM409,115.1h-1.2v14.7h1.2v-14.7ZM417.4,129.8h1.2v-14.7h-1.2v14.7ZM464.9,129.8h1.2v-14.7h-1.2v14.7ZM474.5,129.8h1.2v-14.7h-1.2v14.7ZM484.1,129.8h1.2v-14.7h-1.2v14.7ZM493.7,129.8h1.2v-14.7h-1.2v14.7ZM503.3,129.8h1.2v-14.7h-1.2v14.7ZM512.9,129.8h1.2v-14.7h-1.2v14.7ZM522.5,129.8h1.2v-14.7h-1.2v14.7ZM532.1,129.8h1.2v-14.7h-1.2v14.7ZM570.5,129.8h1.2v-14.7h-1.2v14.7ZM580.1,129.8h1.2v-14.7h-1.2v14.7ZM628,129.8h1.2v-14.7h-1.2v14.7ZM637.6,129.8h1.2v-14.7h-1.2v14.7ZM31,131.1h-1.2v14.7h1.2v-14.7ZM39.4,145.8h1.2v-14.7h-1.2v14.7ZM88.6,131.1h-1.2v14.7h1.2v-14.7ZM98.2,131.1h-1.2v14.7h1.2v-14.7ZM120.8,145.8h1.2v-14.7h-1.2v14.7ZM130.4,145.8h1.2v-14.7h-1.2v14.7ZM140,145.8h1.2v-14.7h-1.2v14.7ZM149.6,145.8h1.2v-14.7h-1.2v14.7ZM178.3,145.8h1.2v-14.7h-1.2v14.7ZM187.9,145.8h1.2v-14.7h-1.2v14.7ZM216.3,145.8h1.2v-14.7h-1.2v14.7ZM225.9,145.8h1.2v-14.7h-1.2v14.7ZM235.5,145.8h1.2v-14.7h-1.2v14.7ZM245.1,145.8h1.2v-14.7h-1.2v14.7ZM273.9,145.8h1.2v-14.7h-1.2v14.7ZM283.5,145.8h1.2v-14.7h-1.2v14.7ZM332.2,131.1h-1.2v14.7h1.2v-14.7ZM341.8,131.1h-1.2v14.7h1.2v-14.7ZM409,131.1h-1.2v14.7h1.2v-14.7ZM417.4,145.8h1.2v-14.7h-1.2v14.7ZM464.9,145.8h1.2v-14.7h-1.2v14.7ZM474.5,145.8h1.2v-14.7h-1.2v14.7ZM570.5,145.8h1.2v-14.7h-1.2v14.7ZM580.1,145.8h1.2v-14.7h-1.2v14.7ZM618.4,145.8h1.2v-14.7h-1.2v14.7ZM628,145.8h1.2v-14.7h-1.2v14.7ZM637.6,145.8h1.2v-14.7h-1.2v14.7ZM39.4,161.8h1.2v-14.7h-1.2v14.7ZM50.2,147.1h-1.2v14.7h1.2v-14.7ZM58.6,161.8h1.2v-14.7h-1.2v14.7ZM69.4,147.1h-1.2v14.7h1.2v-14.7ZM77.8,161.8h1.2v-14.7h-1.2v14.7ZM88.6,147.1h-1.2v14.7h1.2v-14.7ZM98.2,147.1h-1.2v14.7h1.2v-14.7ZM120.8,161.8h1.2v-14.7h-1.2v14.7ZM130.4,161.8h1.2v-14.7h-1.2v14.7ZM149.6,161.8h1.2v-14.7h-1.2v14.7ZM159.2,161.8h1.2v-14.7h-1.2v14.7ZM168.7,161.8h1.2v-14.7h-1.2v14.7ZM178.3,161.8h1.2v-14.7h-1.2v14.7ZM216.3,161.8h1.2v-14.7h-1.2v14.7ZM225.9,161.8h1.2v-14.7h-1.2v14.7ZM245.1,161.8h1.2v-14.7h-1.2v14.7ZM254.7,161.8h1.2v-14.7h-1.2v14.7ZM264.3,161.8h1.2v-14.7h-1.2v14.7ZM273.9,161.8h1.2v-14.7h-1.2v14.7ZM313,147.1h-1.2v14.7h1.2v-14.7ZM321.4,161.8h1.2v-14.7h-1.2v14.7ZM332.2,147.1h-1.2v14.7h1.2v-14.7ZM341.8,147.1h-1.2v14.7h1.2v-14.7ZM350.2,161.8h1.2v-14.7h-1.2v14.7ZM359.8,161.8h1.2v-14.7h-1.2v14.7ZM388.6,161.8h1.2v-14.7h-1.2v14.7ZM398.2,161.8h1.2v-14.7h-1.2v14.7ZM409,147.1h-1.2v14.7h1.2v-14.7ZM417.4,161.8h1.2v-14.7h-1.2v14.7ZM427,161.8h1.2v-14.7h-1.2v14.7ZM436.6,161.8h1.2v-14.7h-1.2v14.7ZM484.1,161.8h1.2v-14.7h-1.2v14.7ZM493.7,161.8h1.2v-14.7h-1.2v14.7ZM503.3,161.8h1.2v-14.7h-1.2v14.7ZM512.9,161.8h1.2v-14.7h-1.2v14.7ZM522.5,161.8h1.2v-14.7h-1.2v14.7ZM532.1,161.8h1.2v-14.7h-1.2v14.7ZM589.7,161.8h1.2v-14.7h-1.2v14.7ZM599.2,161.8h1.2v-14.7h-1.2v14.7ZM608.8,161.8h1.2v-14.7h-1.2v14.7ZM628,161.8h1.2v-14.7h-1.2v14.7ZM637.6,161.8h1.2v-14.7h-1.2v14.7ZM120.8,177.8h1.2v-14.7h-1.2v14.7ZM130.4,177.8h1.2v-14.7h-1.2v14.7ZM216.3,177.8h1.2v-14.7h-1.2v14.7ZM225.9,177.8h1.2v-14.7h-1.2v14.7ZM120.8,193.8h1.2v-14.7h-1.2v14.7ZM130.4,193.8h1.2v-14.7h-1.2v14.7ZM216.3,193.8h1.2v-14.7h-1.2v14.7ZM225.9,193.8h1.2v-14.7h-1.2v14.7ZM31,227.1h-1.2v14.7h1.2v-14.7ZM39.4,241.8h1.2v-14.7h-1.2v14.7ZM98.2,227.1h-1.2v14.7h1.2v-14.7ZM107.8,227.1h-1.2v14.7h1.2v-14.7ZM136.6,227.1h-1.2v14.7h1.2v-14.7ZM146.2,227.1h-1.2v14.7h1.2v-14.7ZM213.3,227.1h-1.2v14.7h1.2v-14.7ZM222.9,227.1h-1.2v14.7h1.2v-14.7ZM31,243.1h-1.2v14.7h1.2v-14.7ZM39.4,257.8h1.2v-14.7h-1.2v14.7ZM98.2,243.1h-1.2v14.7h1.2v-14.7ZM107.8,243.1h-1.2v14.7h1.2v-14.7ZM155.8,243.1h-1.2v14.7h1.2v-14.7ZM165.4,243.1h-1.2v14.7h1.2v-14.7ZM194.1,243.1h-1.2v14.7h1.2v-14.7ZM203.7,243.1h-1.2v14.7h1.2v-14.7ZM31,259.1h-1.2v14.7h1.2v-14.7ZM39.4,273.8h1.2v-14.7h-1.2v14.7ZM98.2,259.1h-1.2v14.7h1.2v-14.7ZM107.8,259.1h-1.2v14.7h1.2v-14.7ZM174.9,259.1h-1.2v14.7h1.2v-14.7ZM184.5,259.1h-1.2v14.7h1.2v-14.7ZM31,275.1h-1.2v14.7h1.2v-14.7ZM39.4,289.8h1.2v-14.7h-1.2v14.7ZM77.8,289.8h1.2v-14.7h-1.2v14.7ZM88.6,275.1h-1.2v14.7h1.2v-14.7ZM98.2,275.1h-1.2v14.7h1.2v-14.7ZM107.8,275.1h-1.2v14.7h1.2v-14.7ZM154.6,289.8h1.2v-14.7h-1.2v14.7ZM165.4,275.1h-1.2v14.7h1.2v-14.7ZM194.1,275.1h-1.2v14.7h1.2v-14.7ZM203.7,275.1h-1.2v14.7h1.2v-14.7ZM39.4,305.8h1.2v-14.7h-1.2v14.7ZM50.2,291.1h-1.2v14.7h1.2v-14.7ZM58.6,305.8h1.2v-14.7h-1.2v14.7ZM69.4,291.1h-1.2v14.7h1.2v-14.7ZM77.8,305.8h1.2v-14.7h-1.2v14.7ZM98.2,291.1h-1.2v14.7h1.2v-14.7ZM106.6,305.8h1.2v-14.7h-1.2v14.7ZM135.4,305.8h1.2v-14.7h-1.2v14.7ZM145,305.8h1.2v-14.7h-1.2v14.7ZM213.3,291.1h-1.2v14.7h1.2v-14.7ZM222.9,291.1h-1.2v14.7h1.2v-14.7ZM312,323.1h-1.2v14.7h1.2v-14.7ZM320.4,337.8h1.2v-14.7h-1.2v14.7ZM331.2,323.1h-1.2v14.7h1.2v-14.7ZM340.8,323.1h-1.2v14.7h1.2v-14.7ZM497.9,337.8h1.2v-14.7h-1.2v14.7ZM507.5,337.8h1.2v-14.7h-1.2v14.7ZM603,337.8h1.2v-14.7h-1.2v14.7ZM612.6,337.8h1.2v-14.7h-1.2v14.7ZM331.2,339.1h-1.2v14.7h1.2v-14.7ZM340.8,339.1h-1.2v14.7h1.2v-14.7ZM497.9,353.8h1.2v-14.7h-1.2v14.7ZM507.5,353.8h1.2v-14.7h-1.2v14.7ZM39.4,369.8h1.2v-14.7h-1.2v14.7ZM50.2,355.1h-1.2v14.7h1.2v-14.7ZM58.6,369.8h1.2v-14.7h-1.2v14.7ZM69.4,355.1h-1.2v14.7h1.2v-14.7ZM77.8,369.8h1.2v-14.7h-1.2v14.7ZM88.6,355.1h-1.2v14.7h1.2v-14.7ZM120.8,369.8h1.2v-14.7h-1.2v14.7ZM130.4,369.8h1.2v-14.7h-1.2v14.7ZM149.6,369.8h1.2v-14.7h-1.2v14.7ZM159.2,369.8h1.2v-14.7h-1.2v14.7ZM168.7,369.8h1.2v-14.7h-1.2v14.7ZM178.3,369.8h1.2v-14.7h-1.2v14.7ZM230.1,355.1h-1.2v14.7h1.2v-14.7ZM239.7,355.1h-1.2v14.7h1.2v-14.7ZM249.3,355.1h-1.2v14.7h1.2v-14.7ZM258.9,355.1h-1.2v14.7h1.2v-14.7ZM268.5,355.1h-1.2v14.7h1.2v-14.7ZM276.9,369.8h1.2v-14.7h-1.2v14.7ZM331.2,355.1h-1.2v14.7h1.2v-14.7ZM340.8,355.1h-1.2v14.7h1.2v-14.7ZM388.4,355.1h-1.2v14.7h1.2v-14.7ZM396.8,369.8h1.2v-14.7h-1.2v14.7ZM445.9,355.1h-1.2v14.7h1.2v-14.7ZM454.3,369.8h1.2v-14.7h-1.2v14.7ZM478.7,369.8h1.2v-14.7h-1.2v14.7ZM488.3,369.8h1.2v-14.7h-1.2v14.7ZM497.9,369.8h1.2v-14.7h-1.2v14.7ZM507.5,369.8h1.2v-14.7h-1.2v14.7ZM517.1,369.8h1.2v-14.7h-1.2v14.7ZM526.7,369.8h1.2v-14.7h-1.2v14.7ZM583.8,369.8h1.2v-14.7h-1.2v14.7ZM593.4,369.8h1.2v-14.7h-1.2v14.7ZM603,369.8h1.2v-14.7h-1.2v14.7ZM612.6,369.8h1.2v-14.7h-1.2v14.7ZM670.2,369.8h1.2v-14.7h-1.2v14.7ZM679.8,369.8h1.2v-14.7h-1.2v14.7ZM689.4,369.8h1.2v-14.7h-1.2v14.7ZM699,369.8h1.2v-14.7h-1.2v14.7ZM708.6,369.8h1.2v-14.7h-1.2v14.7ZM718.2,355.1v14.7h1.2v-14.7h-1.2ZM88.6,371.1h-1.2v14.7h1.2v-14.7ZM98.2,371.1h-1.2v14.7h1.2v-14.7ZM120.8,385.8h1.2v-14.7h-1.2v14.7ZM130.4,385.8h1.2v-14.7h-1.2v14.7ZM140,385.8h1.2v-14.7h-1.2v14.7ZM149.6,385.8h1.2v-14.7h-1.2v14.7ZM187.9,385.8h1.2v-14.7h-1.2v14.7ZM197.5,385.8h1.2v-14.7h-1.2v14.7ZM276.9,385.8h1.2v-14.7h-1.2v14.7ZM287.7,371.1h-1.2v14.7h1.2v-14.7ZM331.2,371.1h-1.2v14.7h1.2v-14.7ZM340.8,371.1h-1.2v14.7h1.2v-14.7ZM388.4,371.1h-1.2v14.7h1.2v-14.7ZM396.8,385.8h1.2v-14.7h-1.2v14.7ZM445.9,371.1h-1.2v14.7h1.2v-14.7ZM454.3,385.8h1.2v-14.7h-1.2v14.7ZM497.9,385.8h1.2v-14.7h-1.2v14.7ZM507.5,385.8h1.2v-14.7h-1.2v14.7ZM603,385.8h1.2v-14.7h-1.2v14.7ZM612.6,385.8h1.2v-14.7h-1.2v14.7ZM660.6,385.8h1.2v-14.7h-1.2v14.7ZM670.2,385.8h1.2v-14.7h-1.2v14.7ZM39.4,401.8h1.2v-14.7h-1.2v14.7ZM50.2,387.1h-1.2v14.7h1.2v-14.7ZM58.6,401.8h1.2v-14.7h-1.2v14.7ZM69.4,387.1h-1.2v14.7h1.2v-14.7ZM77.8,401.8h1.2v-14.7h-1.2v14.7ZM88.6,387.1h-1.2v14.7h1.2v-14.7ZM98.2,387.1h-1.2v14.7h1.2v-14.7ZM120.8,401.8h1.2v-14.7h-1.2v14.7ZM130.4,401.8h1.2v-14.7h-1.2v14.7ZM187.9,401.8h1.2v-14.7h-1.2v14.7ZM197.5,401.8h1.2v-14.7h-1.2v14.7ZM230.1,387.1h-1.2v14.7h1.2v-14.7ZM239.7,387.1h-1.2v14.7h1.2v-14.7ZM249.3,387.1h-1.2v14.7h1.2v-14.7ZM258.9,387.1h-1.2v14.7h1.2v-14.7ZM268.5,387.1h-1.2v14.7h1.2v-14.7ZM276.9,401.8h1.2v-14.7h-1.2v14.7ZM287.7,387.1h-1.2v14.7h1.2v-14.7ZM331.2,387.1h-1.2v14.7h1.2v-14.7ZM340.8,387.1h-1.2v14.7h1.2v-14.7ZM388.4,387.1h-1.2v14.7h1.2v-14.7ZM396.8,401.8h1.2v-14.7h-1.2v14.7ZM436.4,387.1h-1.2v14.7h1.2v-14.7ZM445.9,387.1h-1.2v14.7h1.2v-14.7ZM454.3,401.8h1.2v-14.7h-1.2v14.7ZM497.9,401.8h1.2v-14.7h-1.2v14.7ZM507.5,401.8h1.2v-14.7h-1.2v14.7ZM603,401.8h1.2v-14.7h-1.2v14.7ZM612.6,401.8h1.2v-14.7h-1.2v14.7ZM660.6,401.8h1.2v-14.7h-1.2v14.7ZM670.2,401.8h1.2v-14.7h-1.2v14.7ZM29.8,417.8h1.2v-14.7h-1.2v14.7ZM39.4,417.8h1.2v-14.7h-1.2v14.7ZM88.6,403.1h-1.2v14.7h1.2v-14.7ZM98.2,403.1h-1.2v14.7h1.2v-14.7ZM120.8,417.8h1.2v-14.7h-1.2v14.7ZM130.4,417.8h1.2v-14.7h-1.2v14.7ZM187.9,417.8h1.2v-14.7h-1.2v14.7ZM197.5,417.8h1.2v-14.7h-1.2v14.7ZM220.5,403.1h-1.2v14.7h1.2v-14.7ZM276.9,417.8h1.2v-14.7h-1.2v14.7ZM287.7,403.1h-1.2v14.7h1.2v-14.7ZM331.2,403.1h-1.2v14.7h1.2v-14.7ZM340.8,403.1h-1.2v14.7h1.2v-14.7ZM407.6,403.1h-1.2v14.7h1.2v-14.7ZM417.2,403.1h-1.2v14.7h1.2v-14.7ZM426.8,403.1h-1.2v14.7h1.2v-14.7ZM445.9,403.1h-1.2v14.7h1.2v-14.7ZM454.3,417.8h1.2v-14.7h-1.2v14.7ZM497.9,417.8h1.2v-14.7h-1.2v14.7ZM507.5,417.8h1.2v-14.7h-1.2v14.7ZM545.9,417.8h1.2v-14.7h-1.2v14.7ZM555.5,417.8h1.2v-14.7h-1.2v14.7ZM603,417.8h1.2v-14.7h-1.2v14.7ZM612.6,417.8h1.2v-14.7h-1.2v14.7ZM660.6,417.8h1.2v-14.7h-1.2v14.7ZM670.2,417.8h1.2v-14.7h-1.2v14.7ZM39.4,433.8h1.2v-14.7h-1.2v14.7ZM49,433.8h1.2v-14.7h-1.2v14.7ZM58.6,433.8h1.2v-14.7h-1.2v14.7ZM68.2,433.8h1.2v-14.7h-1.2v14.7ZM77.8,433.8h1.2v-14.7h-1.2v14.7ZM87.4,433.8h1.2v-14.7h-1.2v14.7ZM97,433.8h1.2v-14.7h-1.2v14.7ZM120.8,433.8h1.2v-14.7h-1.2v14.7ZM130.4,433.8h1.2v-14.7h-1.2v14.7ZM187.9,433.8h1.2v-14.7h-1.2v14.7ZM197.5,433.8h1.2v-14.7h-1.2v14.7ZM230.1,419.1h-1.2v14.7h1.2v-14.7ZM239.7,419.1h-1.2v14.7h1.2v-14.7ZM249.3,419.1h-1.2v14.7h1.2v-14.7ZM258.9,419.1h-1.2v14.7h1.2v-14.7ZM268.5,419.1h-1.2v14.7h1.2v-14.7ZM276.9,433.8h1.2v-14.7h-1.2v14.7ZM287.7,419.1h-1.2v14.7h1.2v-14.7ZM312,419.1h-1.2v14.7h1.2v-14.7ZM320.4,433.8h1.2v-14.7h-1.2v14.7ZM331.2,419.1h-1.2v14.7h1.2v-14.7ZM340.8,419.1h-1.2v14.7h1.2v-14.7ZM350.4,419.1h-1.2v14.7h1.2v-14.7ZM360,419.1h-1.2v14.7h1.2v-14.7ZM445.9,419.1h-1.2v14.7h1.2v-14.7ZM454.3,433.8h1.2v-14.7h-1.2v14.7ZM507.5,433.8h1.2v-14.7h-1.2v14.7ZM517.1,433.8h1.2v-14.7h-1.2v14.7ZM526.7,433.8h1.2v-14.7h-1.2v14.7ZM536.3,433.8h1.2v-14.7h-1.2v14.7ZM583.8,433.8h1.2v-14.7h-1.2v14.7ZM593.4,433.8h1.2v-14.7h-1.2v14.7ZM603,433.8h1.2v-14.7h-1.2v14.7ZM612.6,433.8h1.2v-14.7h-1.2v14.7ZM622.2,433.8h1.2v-14.7h-1.2v14.7ZM631.8,433.8h1.2v-14.7h-1.2v14.7ZM670.2,433.8h1.2v-14.7h-1.2v14.7ZM679.8,433.8h1.2v-14.7h-1.2v14.7ZM689.4,433.8h1.2v-14.7h-1.2v14.7ZM699,433.8h1.2v-14.7h-1.2v14.7ZM708.6,433.8h1.2v-14.7h-1.2v14.7ZM718.2,433.8h1.2v-14.7h-1.2v14.7ZM388.4,435.1h-1.2v14.7h1.2v-14.7ZM396.8,449.8h1.2v-14.7h-1.2v14.7ZM445.9,435.1h-1.2v14.7h1.2v-14.7ZM454.3,449.8h1.2v-14.7h-1.2v14.7ZM407.6,451.1h-1.2v14.7h1.2v-14.7ZM417.2,451.1h-1.2v14.7h1.2v-14.7ZM426.8,451.1h-1.2v14.7h1.2v-14.7ZM436.4,451.1h-1.2v14.7h1.2v-14.7ZM445.9,451.1h-1.2v14.7h1.2v-14.7ZM166.3,487h-4.5v1.2h2.9v5.7h-2.9v1.2h2.9c0,.1,1.6.1,1.6.1h0c0-.1,2.8-.1,2.8-.1v-1.2h-2.8v-6.9ZM222.6,492.7l-1.5-8.6h-2.3v11h1.4v-9l1.6,9h1.5l1.6-9v9h1.5v-11h-2.2l-1.6,8.6ZM291.8,483.5c-.6,0-1.1,0-1.6.3-.4.2-.8.5-1.1.9-.3.4-.4.9-.4,1.5v.8h-2.3v1.2h2.3v5.7h-2.4v1.2h2.4,0s1.6,0,1.6,0h0s3.4,0,3.4,0v-1.2h-3.4v-5.7h3.2v-1.2h-3.2v-.7c0-.5,0-.8.3-1,.2-.3.4-.5.7-.5.3,0,.7,0,1,0s.5,0,.8,0,.5.2.7.2v-1.1c-.2,0-.5-.3-.9-.3-.3-.1-.4-.1-1-.1ZM331,484.5c-.5-.3-1-.4-1.6-.4h-4.8v11h-.1c0,.1,1.7.1,1.7.1v-4.6h3.2c.6,0,1.1-.1,1.6-.4s.8-.7,1.1-1.2.4-1,.4-1.6v-.2c0-.6,0-1.1-.4-1.6-.3-.4-.6-.8-1.1-1.1ZM330.6,488.2c-.2.3-.4.5-.7.7-.2.2-.6.2-.9.2h-2.8v-3.7h2.8c.3,0,.6,0,.9.3s.5.4.7.7c.2.2.2.6.2.9s0,.6-.2.9ZM310.7,486.8c-.5,0-1,.2-1.4.4-.4.2-.7.6-1,1v-1.2h-3.4v1.2h2.1v5.7h-2.1v1.2h2.1c0,0,1.6,0,1.6,0h0c0,0,3.7,0,3.7,0v-1.2h-3.7v-3.7c0-.4.1-.7.2-1,.1-.3.3-.6.5-.8.2-.2.5-.3.9-.3s.7,0,.9.2.4.4.5.6c.2.2.2.5.2.8v.3h1.4v-.3h0v-.4c0-.7-.3-1.3-.7-1.8-.4-.5-1-.7-1.8-.7ZM272.4,493.4h-2.9c-.4,0-.6,0-.8-.2-.3,0-.3-.4-.3-.6s0-.5.3-.6c.2-.2.5-.2.8-.2h1.3c1,0,1.8-.2,2.3-.7s.8-1.1.8-1.9-.1-.7-.2-1c-.2-.3-.3-.6-.6-.8.5-.1.9-.3,1.2-.7.3-.4.5-.9.5-1.4h-1.3c0,.4-.2.7-.4,1-.3.3-.6.5-1,.6-.4-.3-.5-.3-1.6-.3s-1.9.2-2.5.7c-.5.5-.8,1.1-.8,1.9s0,.8.3,1.2c.2.4.5.7.9.9-.4,0-.8.3-1,.6-.3.3-.4.7-.4,1s.1.6.2.8c.2.3.4.5.6.6-.4,0-.7.4-.9.7-.2.3-.3.5-.3,1.1s.2,1,.6,1.4.9.6,1.6.6v-.2c-.1,0,3.6,0,3.6,0,.8,0,1.4-.3,1.8-.7.5-.4.7-1.1.7-1.7s-.3-1.1-.7-1.5c-.5-.4-1-.6-1.8-.6ZM269.3,488.1c.4-.3.8-.4,1.4-.4s1.1.1,1.4.4.5.7.5,1.2-.2.9-.5,1.2c-.4.3-.8.4-1.4.4s-1.1,0-1.4-.4c-.3-.3-.5-.7-.5-1.2s.2-.9.5-1.2ZM273.1,496.7c-.2.2-.5.3-.9.3h-3c-.4,0-.7,0-.9-.3-.2-.3-.3-.5-.3-.8s0-.6.3-.8c.2-.2.5-.3.9-.3h3c.4,0,.7,0,.9.3.2.3.3.5.3.8s0,.6-.3.8ZM235.7,494.2c-.1,0-.3,0-.3,0-.1-.1-.1-.2-.1-.4v-4.3c0-.8-.2-1.5-.8-1.9-.5-.4-1.4-.6-2.4-.6s-1.8.2-2.4.6-.9,1-.9,1.7v.3h1.5v-.2c0-.4.2-.8.5-1,.3-.3.7-.4,1.3-.4s1,.2,1.3.4.4.6.4,1.1v.9c-1.3,0-2.3,0-3.1.3-.8.2-1.3.5-1.7.9-.3.3-.5.8-.5,1.5s.3,1.3.7,1.7c.5.4,1.2.6,2,.6h-.2c.4-.1.7-.2,1.1-.2.4-.1.7-.2,1-.4.3-.2.5-.5.7-.8,0,.3.2.6.2.8s.2.4.4.4c.2,0,.5,0,.8,0h.6c.2,0,.4-.2.5-.2v-1c0,.2-.4.2-.6.2ZM233.7,491.7c0,.4,0,.8-.2,1.2,0,.4-.4.7-.7.9-.3.2-.7.3-1.2.3h0c-.6.1-.9,0-1.2-.2-.3-.3-.4-.5-.4-1s.1-.8.3-1c.3-.2.7-.5,1.2-.5.6-.2,1.3-.2,2.2-.2v.5ZM245.6,486.9h-1.9l-3.8,4.5v-7.8h-1.6v11.5h0c0,0,1.6,0,1.6,0v-2l1.3-1.3,2.6,3.2h2l-3.4-4.4,3.2-3.8ZM339.5,486.8c-.5,0-1,.2-1.4.4-.4.2-.7.6-1,1v-1.2h-3.4v1.2h2.1v5.7h-2.2v1.2h2.2c0,0,1.6,0,1.6,0h0c0,0,3.6,0,3.6,0v-1.2h-3.6v-3.7c0-.4.1-.7.2-1,.1-.3.3-.6.5-.8.2-.2.5-.3.9-.3s.7,0,.9.2.4.4.5.6c.2.2.2.5.2.8v.3h1.4v-.3h0v-.4c0-.7-.3-1.3-.7-1.8-.4-.5-1-.7-1.8-.7ZM261.6,486.8c-.6,0-1.1,0-1.5.3-.4.2-.8.5-1,1l-.2-1.2h-1.3v8.2h0c0,0,1.6,0,1.6,0v-4.8c0-.5,0-.9.2-1.2s.4-.6.7-.8c.3-.2.4-.3,1-.3s1,.1,1.3.5c.3.4.5.9.5,1.7v4.9h1.6v-5.4c0-1-.3-1.7-.8-2.2s-1.2-.8-2.1-.8ZM252.7,487h-4.5v1.2h2.9v5.7h-2.9v1.2h2.9c0,.1,1.6.1,1.6.1h0c0-.1,2.8-.1,2.8-.1v-1.2h-2.8v-6.9ZM301.4,487.4c-.5-.3-1.2-.5-2-.5s-1.4.1-2,.5c-.6.3-1,.8-1.3,1.4-.3.6-.4,1.3-.4,2.1v.3c0,.8.1,1.5.4,2.1.3.7.7,1.1,1.3,1.5.5.3,1.2.5,2,.5h0c.8,0,1.4-.1,2-.4.6-.4,1-.9,1.3-1.5.3-.6.4-1.3.4-2.1v-.3c0-.8,0-1.5-.4-2.1-.3-.7-.7-1.1-1.3-1.5ZM301.5,491.5c0,.8-.2,1.4-.6,1.9-.4.5-.9.7-1.5.7s-1.1-.3-1.5-.7c-.4-.5-.6-1.1-.6-1.9v-1.1c0-.8.2-1.5.6-1.9.4-.5.9-.7,1.5-.7s1.1.2,1.5.7c.4.5.6,1.1.6,1.9v1.1ZM416.5,487.3c-.5-.3-1.2-.4-1.9-.4s-1.4.2-2,.5c-.5.3-1,.8-1.3,1.4-.3.6-.5,1.4-.5,2.2v.3c0,.8.1,1.5.4,2.1.2.6.6,1.1,1.2,1.4.5.3,1.2.5,2.1.5v.2c.6,0,1.3-.1,1.8-.4.6-.3,1-.6,1.3-1.1s.5-1,.5-1.7h-1.5c0,.7,0,1.2-.5,1.5-.4.3-1,.5-1.6.5s-1.1-.3-1.5-.7-.6-1.1-.6-1.9v-.3h5.7v-1.1c0-.7,0-1.3-.4-1.8-.3-.5-.7-.9-1.2-1.2ZM416.6,490.2h-4.2c0-.5,0-.9.2-1.2.2-.4.4-.7.7-.9.4-.2.8-.3,1.2-.3s.8.1,1.1.3c.3.2.5.5.7.8.3.3.3.7.3,1.1v.2ZM427.5,494.2c0,0-.3,0-.3,0,0-.1,0-.2,0-.4v-4.3c0-.8-.2-1.5-.8-1.9-.5-.4-1.4-.6-2.4-.6s-1.8.2-2.4.6c-.6.4-.9,1-.9,1.7v.3h1.5v-.2c0-.4.2-.8.5-1,.3-.3.7-.4,1.3-.4s1,.2,1.3.4.4.6.4,1.1v.9c-1.3,0-2.3,0-3.1.3-.8.2-1.3.5-1.7.9-.3.3-.5.8-.5,1.5s.3,1.3.7,1.7c.5.4,1.2.6,2,.6h-.2c.4-.1.7-.2,1.1-.2.4-.1.7-.2,1-.4.3-.2.5-.5.7-.8,0,.3.2.6.2.8s.2.4.4.4c.2,0,.5,0,.8,0h.6c.2,0,.4-.2.5-.2v-1c-.1.2-.4.2-.6.2ZM425.6,491.7c0,.4,0,.8-.2,1.2,0,.4-.4.7-.7.9s-.7.3-1.2.3h0c-.6.1-.9,0-1.2-.2-.3-.3-.4-.5-.4-1s0-.8.3-1c.3-.2.7-.5,1.2-.5.6-.2,1.3-.2,2.2-.2v.5ZM445.6,491c-.4-.2-1-.4-1.8-.5-.7,0-1.2-.2-1.5-.3-.3-.2-.6-.3-.7-.4-.2,0-.2.3-.2-.5s.7-1.2,1.9-1.2.7.1,1,.1c.3,0,.5.2.7.4.3.2.3.5.3.9h1.4v-.3c0-.5-.1-.9-.4-1.2-.3-.4-.7-.6-1.2-.8-.4-.3-.9-.3-1.6-.3s-1.3,0-1.8.3c-.5.2-.9.4-1.2.8-.3.3-.4.8-.4,1.3s0,.9.3,1.2c.1.3.5.5.9.7s1,.4,1.7.5c.6,0,1.1.2,1.5.3.4,0,.7.2.8.4q.2.2.2.6c0,.4-.2.7-.5.9-.4.2-.8.3-1.5.3s-1.3-.2-1.7-.4c-.4-.3-.6-.7-.6-1.1v-.2h-1.4v.4c0,.5,0,.9.4,1.3.3.3.7.6,1.2.8.5.3,1.1.3,1.8.3v.2c.8,0,1.5,0,2-.3.6,0,1-.4,1.3-.8.3-.4.4-.9.4-1.4s0-.9-.3-1.2-.5-.6-1-.8ZM436,486.7c-.5,0-.8,0-1.1.3-.3,0-.5.4-.7.8,0-.3-.3-.6-.6-.8-.3-.3-.6-.3-1-.3s-.7,0-1,.3c-.3.2-.5.4-.7.8l-.2-.9h-.9v8.2h1.4v-5.9c0-.4,0-.7.3-.9s0-.3.7-.3.9.4.9,1.2v5.9h1.4v-5.9c0-.4,0-.7.3-.9.2-.2,0-.3.7-.3s.9.4.9,1.2v5.9h1.4v-6.2c0-.7-.2-1.2-.5-1.6-.3-.4-.8-.6-1.3-.6ZM400.7,485.5h3.4v9.6h1.7v-9.6h3.4v-1.4h-8.5v1.4ZM370.7,494.1h-.3c0,0-.3,0-.3,0-.1-.1-.1-.2-.1-.4v-6.7h-1.6v5c0,.4,0,.8-.3,1.1-.2.4-.4.6-.7.8-.3.3-.5.3-1,.3s-1-.2-1.3-.5-.5-.8-.5-1.5v-5.1h-1.6v5.4c0,1,.3,1.7.8,2.2s1.2.7,2.1.7v-.3c.4,0,.8-.1,1.1-.2.4-.1.7-.2.9-.4s.4-.4.6-.7c0,.3,0,.5,0,.7.1.2.2.4.4.5.2.2.5.2.9.2h.6c.2,0,.4-.2.5-.2v-1c0,.2-.2.2-.3.2ZM358.7,487.9c-.2-.3-.5-.6-.9-.8-.4-.2-.8-.3-1.4-.3s-1.2.2-1.7.5-.9.8-1.2,1.4c-.3.6-.4,1.4-.4,2.3v.2c0,1,.1,1.8.4,2.4s.7,1,1.2,1.3,1,.4,1.6.4h0c.6-.1,1.1-.2,1.5-.4.4-.2.8-.6,1-1l.2,1.2h1.3v-11.5h-1.6v4.3ZM358.7,491.5c0,.9-.2,1.6-.6,2-.3.4-.8.6-1.4.6h0c-.6.1-1.1-.2-1.5-.6-.4-.4-.6-1.1-.6-2v-.9c0-.9.2-1.6.6-2,.4-.5,1-.7,1.5-.7s1,.3,1.4.7c.4.4.6,1.1.6,2v.9ZM349.4,487.4c-.5-.3-1.2-.5-2-.5s-1.4.1-2,.5c-.6.3-1,.8-1.3,1.4-.3.6-.4,1.3-.4,2.1v.3c0,.8.1,1.5.4,2.1.3.7.7,1.1,1.3,1.5.5.3,1.2.5,2,.5h0c.8,0,1.4-.1,2-.4.6-.4,1-.9,1.3-1.5.3-.6.4-1.3.4-2.1v-.3c0-.8,0-1.5-.4-2.1-.3-.7-.7-1.1-1.3-1.5ZM349.5,491.5c0,.8-.2,1.4-.6,1.9-.4.5-.9.7-1.5.7s-1.1-.3-1.5-.7c-.4-.5-.6-1.1-.6-1.9v-1.1c0-.8.2-1.5.6-1.9.4-.5.9-.7,1.5-.7s1.1.2,1.5.7c.4.5.6,1.1.6,1.9v1.1ZM385.7,484.4h-1l-.6,2.6h-2.4v1.2h2.4v4.4c0,1,.2,1.7.8,2.1.6.4,1.3.6,2.3.6h0c.4,0,.8-.1,1.2-.1s.7-.2,1-.3v-1.2c-.2,0-.5.3-.8.3-.2.1-.4.1-.9.1s-.8-.1-1.1-.2c-.3-.1-.6-.3-.7-.5-.2-.2-.2-.5-.2-.9v-4.3h3.7v-1.2h-3.7v-2.6ZM374.6,488.5c.4-.4.9-.6,1.5-.6s.7,0,1,.2c.3,0,.5.4.7.7.3.4.3.8.3,1.3h1.4c0-.7-.1-1.3-.4-1.8s-.7-.9-1.2-1.2-1-.4-1.7-.4h-.2c-.5,0-1,0-1.4.3-.5.2-.9.4-1.2.8-.4.4-.6.8-.8,1.3-.3.5-.3,1.1-.3,1.7v.4c0,.6,0,1.2.3,1.7.2.5.5.9.8,1.3.4.3.8.6,1.2.8.4.3.9.3,1.4.3h.2c.6,0,1.2,0,1.7-.4.5-.3.9-.7,1.2-1.2s.4-1.1.4-1.8h-1.4c0,.5,0,1-.3,1.3s-.4.5-.7.7-.4.2-1,.2-1.1-.3-1.5-.7c-.4-.4-.6-1.1-.6-1.9v-1.1c0-.8.2-1.5.6-1.9ZM42.4,487.3c-.5-.3-1.2-.4-1.9-.4s-1.4.2-2,.5c-.5.3-1,.8-1.3,1.4-.3.6-.5,1.4-.5,2.2v.3c0,.8,0,1.5.4,2.1.2.6.6,1.1,1.2,1.4.5.3,1.2.5,2.1.5v.2c.6,0,1.3-.1,1.8-.4.6-.3,1-.6,1.3-1.1s.5-1,.5-1.7h-1.5c0,.7,0,1.2-.5,1.5s-1,.5-1.6.5-1.1-.3-1.5-.7-.6-1.1-.6-1.9v-.3h5.7v-1.1c0-.7,0-1.3-.4-1.8-.3-.5-.7-.9-1.2-1.2ZM42.5,490.2h-4.2c0-.5,0-.9.2-1.2.2-.4.4-.7.7-.9.4-.2.8-.3,1.2-.3s.8,0,1.1.3.5.5.7.8c.3.3.3.7.3,1.1v.2ZM52.2,487.1c-.5-.2-1-.3-1.5-.3s-1,0-1.4.3c-.5.2-.8.5-1.1.9v-4.4h-1.6v11.5h1.7v-5.1c0-.4,0-.7.2-1,.2-.3.4-.5.7-.7.3-.3.5-.3,1-.3s1,.2,1.3.5.5.8.5,1.5v5.1h1.6v-5.4c0-.6-.2-1.2-.4-1.6-.2-.5-.6-.8-1-1ZM63,494.2c0,0-.3,0-.3,0-.1-.1-.1-.2-.1-.4v-4.3c0-.8-.2-1.5-.8-1.9-.5-.4-1.4-.6-2.4-.6s-1.8.2-2.4.6-.9,1-.9,1.7v.3h1.5v-.2c0-.4.2-.8.5-1,.3-.3.7-.4,1.3-.4s1,.2,1.3.4.4.6.4,1.1v.9c-1.3,0-2.3,0-3.1.3-.8.2-1.3.5-1.7.9-.3.3-.5.8-.5,1.5s.3,1.3.7,1.7c.5.4,1.2.6,2,.6h-.2c.4-.1.7-.2,1.1-.2.4-.1.7-.2,1-.4.3-.2.5-.5.7-.8,0,.3.2.6.2.8s.2.4.4.4c.2,0,.5,0,.8,0h.6c.2,0,.4-.2.5-.2v-1c0,.2-.4.2-.6.2ZM61.1,491.7c0,.4,0,.8-.2,1.2-.1.4-.4.7-.7.9s-.7.3-1.2.3h0c-.6.1-.9,0-1.2-.2-.3-.3-.4-.5-.4-1s0-.8.3-1c.3-.2.7-.5,1.2-.5.6-.2,1.3-.2,2.2-.2v.5ZM69.2,493.2l-2.4-6.3h-1.7l3.2,8.2h1.7l3.2-8.2h-1.6l-2.4,6.3ZM90.4,487.4c-.5-.3-1.2-.5-2-.5s-1.4.1-2,.5c-.6.3-1,.8-1.3,1.4-.3.6-.4,1.3-.4,2.1v.3c0,.8,0,1.5.4,2.1.3.7.7,1.1,1.3,1.5.5.3,1.2.5,2,.5h0c.8,0,1.4-.1,2-.4.6-.4,1-.9,1.3-1.5.3-.6.4-1.3.4-2.1v-.3c0-.8-.1-1.5-.4-2.1-.3-.7-.7-1.1-1.3-1.5ZM90.5,491.5c0,.8-.2,1.4-.6,1.9-.4.5-.9.7-1.5.7s-1.1-.3-1.5-.7c-.4-.5-.6-1.1-.6-1.9v-1.1c0-.8.2-1.5.6-1.9.4-.5.9-.7,1.5-.7s1.1.2,1.5.7c.4.5.6,1.1.6,1.9v1.1ZM79.8,483.7h-1.5v1.5h1.5v-1.5ZM80,487h-4.5v1.2h2.9v5.7h-2.9v1.2h2.9c0,.1,1.6.1,1.6.1h0c0-.1,2.8-.1,2.8-.1v-1.2h-2.8v-6.9ZM252.5,483.7h-1.5v1.5h1.5v-1.5ZM183.9,485.2h1.5v-1.5h-1.5v1.5ZM164.7,485.2h1.5v-1.5h-1.5v1.5ZM34.1,489.9c-.2-.2-.5-.4-.7-.4-.3,0-.5-.2-.7-.3.3-.1.6-.2.9-.4.3-.2.5-.4.7-.8.3-.4.3-.9.3-1.4s-.2-.9-.4-1.3c-.2-.4-.6-.7-1-.9-.4-.2-.9-.3-1.5-.3h-4.5v10.9h4.6c.6,0,1.1,0,1.6-.4.5-.3.8-.7,1.1-1.1.3-.5.4-1,.4-1.5s-.1-1-.2-1.3c-.2-.3-.4-.6-.6-.8ZM28.8,485.5h2.7c.5,0,.8.1,1.1.4.3.3.4.7.4,1.2s0,.6-.2.9c0,.2-.3.5-.6.6-.3.2-.6.2-.9.2h-2.5v-3.3ZM33,492.8c0,.3-.3.5-.6.7-.3.2-.6.2-.9.2h-2.8c0,0,0-3.5,0-3.5h2.7c.3,0,.6.1.9.2.3.1.5.3.7.6.2.2.2.6.2.9s0,.6-.2.9ZM118.1,483.6h-4.5v1.2h2.9v9.1h-3v1.2h7.3v-1.2h-2.7v-10.3ZM99.6,486.8c-.5,0-1,.2-1.4.4s-.7.6-1,1v-1.2h-3.4v1.2h2.1v5.7h-2.1v1.2h2.1c0,0,1.6,0,1.6,0h0c0,0,3.7,0,3.7,0v-1.2h-3.7v-3.7c0-.4.1-.7.2-1s.3-.6.5-.8c.2-.2.5-.3.9-.3s.7,0,.9.2.4.4.5.6c.2.2.2.5.2.8v.3h1.4v-.3h0v-.4c0-.7-.3-1.3-.7-1.8-.4-.5-1-.7-1.8-.7ZM185.5,487h-4.5v1.2h2.9v5.7h-2.9v1.2h2.9c0,.1,1.6.1,1.6.1h0c0-.1,2.8-.1,2.8-.1v-1.2h-2.8v-6.9ZM204.1,486.8c-.6,0-1.1,0-1.5.3-.4.2-.8.5-1,1l-.2-1.2h-1.3v8.2h0c0,0,1.6,0,1.6,0v-4.8c0-.5,0-.9.2-1.2s.4-.6.7-.8c.3-.2.4-.3,1-.3s1,.1,1.3.5c.3.4.5.9.5,1.7v4.9h1.6v-5.4c0-1-.3-1.7-.8-2.2s-1.2-.8-2.1-.8ZM195.9,487.4c-.5-.3-1.2-.5-2-.5s-1.4.1-2,.5c-.6.3-1,.8-1.3,1.4-.3.6-.4,1.3-.4,2.1v.3c0,.8,0,1.5.4,2.1.3.7.7,1.1,1.3,1.5.5.3,1.2.5,2,.5h0c.8,0,1.4-.1,2-.4.6-.4,1-.9,1.3-1.5.3-.6.4-1.3.4-2.1v-.3c0-.8,0-1.5-.4-2.1-.3-.7-.7-1.1-1.3-1.5ZM196,491.5c0,.8-.2,1.4-.6,1.9-.4.5-.9.7-1.5.7s-1.1-.3-1.5-.7c-.4-.5-.6-1.1-.6-1.9v-1.1c0-.8.2-1.5.6-1.9.4-.5.9-.7,1.5-.7s1.1.2,1.5.7c.4.5.6,1.1.6,1.9v1.1ZM153.9,488.5c.4-.4.9-.6,1.5-.6s.7,0,1,.2c.3,0,.5.4.7.7.3.4.3.8.3,1.3h1.4c0-.7,0-1.3-.4-1.8-.3-.5-.7-.9-1.2-1.2s-1-.4-1.7-.4h-.2c-.5,0-1,0-1.4.3-.5.2-.9.4-1.2.8-.4.4-.6.8-.8,1.3-.3.5-.3,1.1-.3,1.7v.4c0,.6,0,1.2.3,1.7s.5.9.8,1.3c.4.3.8.6,1.2.8.4.3.9.3,1.4.3h.2c.6,0,1.2,0,1.7-.4.5-.3.9-.7,1.2-1.2.3-.5.4-1.1.4-1.8h-1.4c0,.5-.1,1-.3,1.3-.2.3-.4.5-.7.7-.3.2-.4.2-1,.2s-1.1-.3-1.5-.7-.6-1.1-.6-1.9v-1.1c0-.8.2-1.5.6-1.9ZM177,491c-.4-.2-1-.4-1.8-.5-.7,0-1.2-.2-1.5-.3-.3-.2-.6-.3-.7-.4-.2,0-.2.3-.2-.5s.7-1.2,1.9-1.2.7.1,1,.1c.3,0,.5.2.7.4.3.2.3.5.3.9h1.4v-.3c0-.5-.1-.9-.4-1.2-.3-.4-.7-.6-1.2-.8-.4-.3-.9-.3-1.6-.3s-1.3,0-1.8.3c-.5.2-.9.4-1.2.8-.3.3-.4.8-.4,1.3s.1.9.3,1.2c0,.3.5.5.9.7.4.2,1,.4,1.7.5.6,0,1.1.2,1.5.3.4,0,.7.2.8.4q.2.2.2.6c0,.4-.2.7-.5.9-.4.2-.8.3-1.5.3s-1.3-.2-1.7-.4c-.4-.3-.6-.7-.6-1.1v-.2h-1.4v.4c0,.5,0,.9.4,1.3.3.3.7.6,1.2.8.5.3,1.1.3,1.8.3v.2c.8,0,1.5,0,2-.3.6,0,1-.4,1.3-.8.3-.4.4-.9.4-1.4s-.1-.9-.3-1.2c-.2-.3-.5-.6-1-.8ZM211.1,491.5h4v-1.5h-4v1.5ZM147.9,487.3c-.5-.3-1.2-.4-1.9-.4s-1.4.2-2,.5c-.5.3-1,.8-1.3,1.4-.3.6-.5,1.4-.5,2.2v.3c0,.8,0,1.5.4,2.1.2.6.6,1.1,1.2,1.4.5.3,1.2.5,2.1.5v.2c.6,0,1.3-.1,1.8-.4.6-.3,1-.6,1.3-1.1s.5-1,.5-1.7h-1.5c0,.7,0,1.2-.5,1.5s-1,.5-1.6.5-1.1-.3-1.5-.7-.6-1.1-.6-1.9v-.3h5.7v-1.1c0-.7,0-1.3-.4-1.8-.3-.5-.7-.9-1.2-1.2ZM148,490.2h-4.2c0-.5,0-.9.2-1.2.2-.4.4-.7.7-.9.4-.2.8-.3,1.2-.3s.8.1,1.1.3c.3.2.5.5.7.8.3.3.3.7.3,1.1v.2ZM110.9,494.2c-.1,0-.3,0-.3,0,0-.1,0-.2,0-.4v-4.3c0-.8-.2-1.5-.8-1.9-.5-.4-1.4-.6-2.4-.6s-1.8.2-2.4.6c-.6.4-.9,1-.9,1.7v.3h1.5v-.2c0-.4.2-.8.5-1,.3-.3.7-.4,1.3-.4s1,.2,1.3.4c.3.2.4.6.4,1.1v.9c-1.3,0-2.3,0-3.1.3-.8.2-1.3.5-1.7.9-.3.3-.5.8-.5,1.5s.3,1.3.7,1.7c.5.4,1.2.6,2,.6h-.2c.4-.1.7-.2,1.1-.2.4-.1.7-.2,1-.4.3-.2.5-.5.7-.8,0,.3.2.6.2.8s.2.4.4.4c.2,0,.5,0,.8,0h.6c.2,0,.4-.2.5-.2v-1c0,.2-.4.2-.6.2ZM109,491.7c0,.4,0,.8-.2,1.2,0,.4-.4.7-.7.9-.3.2-.7.3-1.2.3h0c-.6.1-.9,0-1.2-.2-.3-.3-.4-.5-.4-1s.1-.8.3-1c.3-.2.7-.5,1.2-.5.6-.2,1.3-.2,2.2-.2v.5ZM139.6,485.1c-.4-.4-.9-.6-1.4-.8s-1.1-.2-1.7-.2h-3.8v11h3.8c.6,0,1.2,0,1.7-.3s1-.4,1.4-.8.7-.8.9-1.4c.2-.6.3-1.3.3-2.1v-1.9c0-.8,0-1.5-.3-2.1-.2-.6-.5-1-.9-1.4ZM139.2,490.6c0,.8-.2,1.5-.4,1.9-.3.4-.6.7-1,.9-.4.3-.9.3-1.4.3h-2v-8.3h2c.5,0,1,0,1.4.3.4.1.8.5,1,.9.3.4.4,1,.4,1.8v2.2Z"/>
</svg>