<?xml version="1.0" encoding="UTF-8"?>
<svg id="Layer_1" xmlns="http://www.w3.org/2000/svg" version="1.1" viewBox="0 0 4340 1900">
  <!-- Generator: Adobe Illustrator 29.4.0, SVG Export Plug-In . SVG Version: 2.1.0 Build 152)  -->
  <path d="M48,261.7c-8.7,0-15.8-2.5-21.1-7.4-5.2-4.9-7.8-12.3-7.8-22.2v-53.8h16.2v50.7c0,6.8,1.5,11.9,4.6,15.2,3.2,3.3,7.6,5,13.3,5s7-.9,9.9-2.7c3-1.9,5.3-4.5,6.9-7.7,1.7-3.2,2.6-6.8,2.6-10.7v-49.8h16v67c0,1.7.4,2.9,1.1,3.7.7.7,1.9,1.1,3.4,1.1s2.1-.1,3.2-.3,2.2-.7,3.4-1.6v10.4c-1.4,1-3.1,1.7-5.3,2.2-2,.5-4.1.8-6.2.8-3.8,0-6.8-.5-8.8-1.6-1.9-1.2-3.3-2.8-4-4.8-.6-2-1.1-4.3-1.3-6.9-1.6,2.9-3.6,5.3-6.1,7.4-2.5,1.9-5.3,3.4-8.6,4.3-3.3,1.1-7,1.6-11.2,1.6h-.2,0Z"/>
  <polygon points="113.7 260.1 143 217.7 115.5 178.3 134.5 178.3 153.5 206.8 153.8 206.8 173.2 178.3 190.6 178.3 163.1 218 192.2 260.1 173.3 260.1 152.5 228.9 152.2 228.9 131.2 260.1 113.6 260.1 113.6 260.1 113.7 260.1"/>
  <path d="M249.1,261.7c-5,0-9.8-1-14.2-2.9s-8.2-4.6-11.5-8.2c-3.2-3.6-5.7-7.9-7.5-12.8-1.8-5-2.7-10.6-2.7-16.8v-3.8c0-6.2.9-11.7,2.7-16.6,1.8-5,4.3-9.3,7.5-12.8,3.3-3.6,7.1-6.3,11.5-8.2s9.2-2.9,14.4-2.9h1.9c6.6,0,12.4,1.4,17.4,4.2,5,2.7,9,6.5,11.8,11.5,2.9,4.9,4.3,10.9,4.3,17.9h-14.4c0-5.2-.9-9.4-2.6-12.6-1.7-3.3-4.1-5.7-7-7.2-2.9-1.6-6.3-2.4-10.2-2.4-5.8,0-10.7,2.1-14.7,6.4-3.9,4.2-5.9,10.6-5.9,19.4v10.7c0,8.4,1.9,14.8,5.8,19.2,3.9,4.4,9.1,6.6,15.4,6.6s7.2-.7,10.1-2.2c3-1.6,5.3-4,6.9-7.2,1.7-3.3,2.6-7.6,2.6-12.8h14.2c0,7.1-1.5,13.2-4.5,18.2-2.9,5-6.9,8.9-12,11.5-5,2.6-10.8,3.8-17.3,3.8h-2,0Z"/>
  <path d="M384.7,250.2c-1.4,0-2.5-.4-3.4-1.1-.9-.8-1.3-2-1.3-3.7v-43.4c0-8.5-2.8-14.8-8.3-19-5.4-4.1-14.2-6.2-24.3-6.2s-18.2,2-24.3,6.2c-6,4.2-9,9.8-9,16.8s0,.2-.2,0h0c0,.7.3,1.8.5,3.5h14.7v-1.9c0-4.2,1.5-7.6,4.6-9.9,3.1-2.3,6.9-3.5,13.1-3.5s10.5,1.2,13.1,3.5c2.7,2.3,4,6.1,4,11.2v9c-12.7,0-22.9.9-30.7,2.7-7.7,1.8-13.3,4.7-16.8,8.6-3.4,3.9-5.1,7.8-5.1,15.4s2.2,13.5,6.7,17.4c4.6,3.9,11.1,5.9,19.5,5.9h.3c3.8,0,7.5-.4,11-1.3,3.5-.7,6.7-2.1,9.6-4,2.8-2,5.2-4.7,7-8,.3,3.4.9,6.1,1.9,8s2.5,3.3,4.5,4c2,.9,4.6,1.3,7.8,1.3s4.4-.3,6.4-.8,3.7-1.2,5.1-2.2v-10.4c-1.8,1.3-3.9,1.9-6.4,1.9ZM363.9,226.3c0,4.5-.8,8.6-2.4,12.2-1.5,3.6-3.8,6.5-7,8.6-3.1,2.1-7.1,3.2-12,3.2s-9.1-1.1-11.7-3.2c-2.5-2.1-3.7-5.4-3.7-9.6s1.2-7.4,3.4-9.6c2.3-2.4,6.2-4,11.5-5,5.4-1.1,12.7-1.6,21.9-1.6v5Z"/>
  <path d="M406.9,260.1v-81.8h9.4l1.6,9.1c1.6-3.5,3.8-6.2,6.7-8,3-1.8,6.2-2.7,9.6-2.7s6.8,1,9.6,2.9c2.9,1.9,5,4.7,6.4,8.5,1.9-3.7,4.3-6.6,7-8.5,2.9-1.9,6.4-2.9,10.6-2.9s10.3,1.9,13.4,5.6c3.2,3.7,4.8,9.1,4.8,16v61.8h-13.8v-58.9c0-8-3-12-9-12s-5.3,1.1-7.2,3.4c-1.9,2.2-2.9,5.1-2.9,8.6v58.9h-13.6v-58.9c0-8-3.1-12-9.3-12s-5.3,1.1-7.2,3.4c-1.8,2.2-2.7,5.1-2.7,8.6v58.9h-13.6.2Z"/>
  <path d="M579,194.7c-2.8-6-6.6-10.5-11.5-13.4-4.8-3-10.5-4.5-16.5-4.5s-11.1,1.2-15.5,3.4c-4.2,2.2-7.6,5.5-9.9,9.9l-1.8-11.7h-13v110.7h16v-37.9c2.3,3,5.4,5.5,9.3,7.5,4,2,8.1,3,14.2,3s11.6-1.5,16.5-4.6c5-3.2,9-7.8,12-13.9,3-6.2,4.5-13.7,4.5-22.7v-2.1c0-9.7-1.4-17.6-4.3-23.7ZM567.2,224c0,8.9-1.9,15.5-5.6,19.8-3.7,4.3-8.5,6.4-14.4,6.4h0c-5.9.1-10.8-2-14.6-6.3-3.9-4.2-5.8-10.8-5.8-19.8v-9.3c0-6.6,1-11.9,2.9-15.7,1.9-3.9,4.4-6.7,7.5-8.3,3.1-1.7,6.3-2.6,9.9-2.6s6.9.9,9.9,2.7c3.1,1.7,5.6,4.5,7.4,8.3,1.8,3.8,2.7,9,2.7,15.5v9.3Z"/>
  <path d="M601,280.7v-11.5h80v11.5h-80Z"/>
  <polygon points="728.4 260.1 696.6 178.3 713.7 178.3 737.5 241 738 241 761.8 178.3 777.5 178.3 745.3 260.1 728.3 260.1 728.4 260.1 728.4 260.1"/>
  <rect x="830.7" y="146.1" width="15" height="15.4"/>
  <polygon points="875.1 247.8 875.1 260.1 802.1 260.1 802.1 247.8 831.3 247.8 831.3 190.8 802 190.8 802 178.3 847.3 178.3 847.3 247.8 875.1 247.8"/>
  <path d="M969,221.9v-10.9c0-6.6-1.5-12.5-4.5-17.6-2.9-5.2-7-9.2-12.3-12.2-5.2-3-11-4.5-18.9-4.5s-14.7,1.7-20.5,5.1c-5.8,3.3-10.2,8-13.3,14.1s-4.6,13.3-4.6,21.6v3.4c0,8,1.3,15.1,4,21.3,2.8,6.2,7,11,12.5,14.4,5.7,3.4,12.8,5.1,21.3,5.1h0c7.3,0,13.7-1.2,19-3.8,5.4-2.6,9.6-6.2,12.6-10.9,3.1-4.8,4.6-10.5,4.6-17h-15c0,7-1.8,12.1-5.4,15.4-3.5,3.3-9.3,5-15.5,5s-11.3-2.2-15.4-6.6c-4.1-4.4-6.1-10.8-6.1-19.2v-2.7h57.4ZM911.8,210.8c0-3.7.8-7.2,2.4-10.6,1.7-3.5,4.1-6.4,7.2-8.6,3.2-2.3,7.7-3.4,11.7-3.4s7.6.9,10.7,2.7c3.1,1.8,5.4,4.3,7,7.5,1.7,3.1,2.6,6.6,2.6,10.7v2.4h-41.6v-.7Z"/>
  <path d="M1045.4,261.7c-9.6,0-17.2-2.1-22.9-6.2-5.7-4.3-8.5-11.2-8.5-20.8v-43.8h-23.7v-12.5h24.2l5.6-26.1h9.9v26.1h37v12.5h-37v42.6c0,3.6.8,6.6,2.2,9,1.5,2.3,3.7,4.1,6.6,5.1s6.5,1.6,10.9,1.6,6.6-.4,9.4-1.3c3-1,5.6-2,7.8-3v12.3c-2.6,1.5-5.8,2.6-9.8,3.4-3.9.9-7.9,1.3-11.8,1.3v-.2h.1Z"/>
  <path d="M1094.2,260.1v-81.8h13l1.6,11.7c2.4-4.6,5.9-7.9,10.4-10.1,4.5-2.1,9.4-3.2,14.9-3.2,9,0,16.1,2.5,21.4,7.5s8,12.4,8,22.2v53.6h-16v-49c0-7.7-1.6-13.3-4.8-16.8-3.1-3.5-7.5-5.3-13.1-5.3s-7.4,1-10.2,3c-2.9,1.9-5.1,4.6-6.7,8.2-1.6,3.4-2.4,7.4-2.4,11.8v48h-16v.2h-.1Z"/>
  <path d="M1262.4,250.2c-1.4,0-2.6-.4-3.4-1.1-.9-.8-1.3-2-1.3-3.7v-43.4c0-8.5-2.8-14.8-8.3-19-5.4-4.1-14.2-6.2-24.3-6.2s-18.2,2-24.3,6.2c-6,4.2-9,9.8-9,16.8s-.2.2-.2,0h0c0,.7.3,1.8.5,3.5h14.7v-1.9c0-4.2,1.5-7.6,4.6-9.9s6.9-3.5,13.1-3.5,10.5,1.2,13.1,3.5c2.7,2.3,4,6.1,4,11.2v9c-12.7,0-22.9.9-30.7,2.7-7.7,1.8-13.3,4.7-16.8,8.6-3.4,3.9-5.1,7.8-5.1,15.4s2.2,13.5,6.7,17.4c4.6,3.9,11.1,5.9,19.5,5.9h.3c3.8,0,7.5-.4,11-1.3,3.5-.7,6.7-2.1,9.6-4,2.8-2,5.2-4.7,7-8,.3,3.4.9,6.1,1.9,8s2.5,3.3,4.5,4c2,.9,4.6,1.3,7.8,1.3s4.4-.3,6.4-.8,3.7-1.2,5.1-2.2v-10.4c-1.8,1.3-4,1.9-6.4,1.9ZM1241.6,226.3c0,4.5-.8,8.6-2.4,12.2-1.5,3.6-3.8,6.5-7,8.6-3.1,2.1-7.1,3.2-12,3.2s-9.1-1.1-11.7-3.2c-2.5-2.1-3.7-5.4-3.7-9.6s1.2-7.4,3.4-9.6c2.3-2.4,6.2-4,11.5-5,5.4-1.1,12.7-1.6,21.9-1.6v5Z"/>
  <path d="M1284.6,260.1v-81.8h9.4l1.6,9.1c1.6-3.5,3.8-6.2,6.7-8,3-1.8,6.2-2.7,9.6-2.7s6.8,1,9.6,2.9c2.9,1.9,5,4.7,6.4,8.5,1.9-3.7,4.3-6.6,7-8.5,2.9-1.9,6.4-2.9,10.6-2.9s10.3,1.9,13.4,5.6c3.2,3.7,4.8,9.1,4.8,16v61.8h-13.8v-58.9c0-8-3-12-9-12s-5.3,1.1-7.2,3.4c-1.9,2.2-2.9,5.1-2.9,8.6v58.9h-13.6v-58.9c0-8-3.1-12-9.3-12s-5.3,1.1-7.2,3.4c-1.8,2.2-2.7,5.1-2.7,8.6v58.9h-13.6.2Z"/>
  <path d="M109.3,1764.7c-2.5-6-6.1-10.8-10.9-14.2-4.8-3.4-12.4-5.1-17.8-5.1s-10.2,1-14.4,3c-4.1,1.9-7.3,4.8-9.6,8.5v-43.4h-16v115.2h13l1.4-11.7c2.6,4.3,6,7.7,10.4,9.9,4.4,2.3,9.3,3.4,14.7,3.4s12.4-1.7,17.3-5.1c4.9-3.5,8.7-8.3,11.5-14.6,2.8-6.4,4.2-13.9,4.2-22.7v-2.2c0-8-1.2-15-3.8-21ZM96.9,1791.6c0,9.5-1.9,16.4-5.6,20.8-3.7,4.3-8.5,6.4-14.4,6.4s-10.8-2.1-14.6-6.4c-3.9-4.4-5.8-11.3-5.8-20.8v-9.3c0-8.4,2-14.7,5.8-19,3.9-4.4,8.7-6.6,14.6-6.6s10.7,2.2,14.4,6.6c3.7,4.2,5.6,10.6,5.6,19v9.3Z"/>
  <path d="M208.2,1790.5v-10.9c0-6.6-1.5-12.5-4.5-17.6-2.9-5.2-7-9.2-12.3-12.2-5.2-3-11-4.5-18.9-4.5s-14.7,1.7-20.5,5.1c-5.8,3.3-10.2,8-13.3,14.1-3.1,6.1-4.6,13.3-4.6,21.6v3.4c0,8,1.3,15.1,4,21.3,2.8,6.2,7,11,12.5,14.4,5.7,3.4,12.8,5.1,21.3,5.1h0c7.3,0,13.7-1.2,19-3.8,5.4-2.6,9.6-6.2,12.6-10.9,3.1-4.8,4.6-10.5,4.6-17h-15c0,7-1.8,12.1-5.4,15.4-3.5,3.3-9.3,5-15.5,5s-11.3-2.2-15.4-6.6c-4.1-4.4-6.1-10.8-6.1-19.2v-2.7h57.4ZM150.9,1779.4c0-3.7.8-7.2,2.4-10.6,1.7-3.5,4.1-6.4,7.2-8.6,3.2-2.3,7.7-3.4,11.7-3.4s7.6.9,10.7,2.7c3.1,1.8,5.4,4.3,7,7.5,1.7,3.1,2.6,6.7,2.6,10.7v2.4h-41.6v-.7Z"/>
  <path d="M235.5,1828.7v-115.2h16v44.3c2.8-4.2,6.4-7.2,10.9-9.3,4.5-2.1,9.1-3.2,13.9-3.2s10.3,1.1,14.6,3.2c4.4,2.1,7.8,5.3,10.2,9.6,2.5,4.3,3.7,9.7,3.7,16.2v54.4h-16v-50.9c0-6.7-1.6-11.7-4.8-15-3.2-3.4-7.6-5.1-13.1-5.1s-6.9.9-9.9,2.7c-3,1.7-5.3,4.1-7,7.2-1.6,3-2.4,6.4-2.4,10.2v50.9h-16.1Z"/>
  <path d="M403.7,1818.8c-1.4,0-2.5-.3-3.4-1.1-.9-.8-1.3-2-1.3-3.7v-43.4c0-8.5-2.8-14.8-8.3-19-5.4-4.1-14.2-6.2-24.3-6.2s-18.2,2-24.3,6.2c-6,4.2-9,9.8-9,16.8s0,.2-.2,0h0c0,.7.3,1.8.5,3.5h14.7v-1.9c0-4.2,1.5-7.6,4.6-9.9,3.1-2.3,6.9-3.5,13.1-3.5s10.5,1.2,13.1,3.5c2.7,2.3,4,6.1,4,11.2v9c-12.7,0-22.9.9-30.7,2.7-7.7,1.8-13.3,4.7-16.8,8.6-3.4,3.9-5.1,7.8-5.1,15.4s2.2,13.4,6.7,17.4c4.6,3.9,11.1,5.9,19.5,5.9h.3c3.8,0,7.5-.4,11-1.3,3.5-.8,6.7-2.1,9.6-4,2.8-2,5.2-4.7,7-8,.3,3.4.9,6.1,1.9,8s2.5,3.2,4.5,4c2,.9,4.6,1.3,7.8,1.3s4.4-.3,6.4-.8,3.7-1.2,5.1-2.2v-10.4c-1.8,1.3-3.9,1.9-6.4,1.9ZM382.9,1794.9c0,4.5-.8,8.6-2.4,12.2-1.5,3.6-3.8,6.5-7,8.6-3.1,2.1-7.1,3.2-12,3.2s-9.1-1.1-11.7-3.2c-2.5-2.1-3.7-5.4-3.7-9.6s1.2-7.4,3.4-9.6c2.3-2.4,6.2-4,11.5-5,5.4-1.1,12.7-1.6,21.9-1.6v5Z"/>
  <polygon points="456.8 1828.7 425 1746.9 442.1 1746.9 465.9 1809.6 466.4 1809.6 490.2 1746.9 505.9 1746.9 473.7 1828.7 456.7 1828.7 456.8 1828.7"/>
  <rect x="559.1" y="1714.7" width="15" height="15.4"/>
  <polygon points="603.5 1816.4 603.5 1828.7 530.5 1828.7 530.5 1816.4 559.8 1816.4 559.8 1759.4 530.5 1759.4 530.5 1746.9 575.8 1746.9 575.8 1816.4 603.5 1816.4"/>
  <path d="M694.5,1765.2c-3-6.2-7.3-11.1-13-14.6s-12.7-5.3-20.5-5.3-14.5,1.8-20.2,5.3c-5.7,3.4-10,8.2-13,14.4s-4.5,13.3-4.5,21.4v2.7c0,7.9,1.5,15,4.5,21.3,3,6.2,7.3,11.1,13,14.6,5.6,3.5,12.4,5.3,20.3,5.3h.1c7.9,0,14.6-1.7,20.3-5.1,5.7-3.6,10-8.4,13-14.6,3-6.2,4.5-13.3,4.5-21.4v-2.7c0-8-1.5-15.1-4.5-21.3ZM682.2,1793.2c0,8.1-2,14.4-5.9,19-3.9,4.5-9,6.7-15.2,6.7s-11.1-2.2-15.2-6.7c-3.9-4.5-5.9-10.9-5.9-19v-10.7c0-8.1,2-14.4,5.9-18.9,4.1-4.6,9-6.9,15.2-6.9s11.3,2.3,15.2,6.9c3.9,4.5,5.9,10.8,5.9,18.9v10.7Z"/>
  <path d="M800.5,1770.6c0,7.4,0,2.3-.2,3.4,0,1,0,2.1-.3,3.5h-13.6v-3.4c0-2.9-.6-5.5-1.8-8-1.1-2.4-2.8-4.4-5.1-5.9-2.2-1.6-5.2-2.4-8.8-2.4s-6.5,1-9,3c-2.3,2-4.1,4.6-5.3,7.7-1.2,3.1-1.8,6.3-1.8,9.8v38.1h36.8v12.3h-73.8v-12.3h21.4v-57h-20.6v-12.5h33.6l.8,12c1.9-4.3,4.9-7.6,8.8-9.9,4.1-2.4,8.7-3.7,13.9-3.7,8,0,14.1,2.4,18.4,7.2,4.4,4.7,6.6,10.7,6.6,18.1Z"/>
  <path d="M893,1818.8c-1.4,0-2.5-.3-3.4-1.1-.9-.8-1.3-2-1.3-3.7v-43.4c0-8.5-2.8-14.8-8.3-19-5.4-4.1-14.2-6.2-24.3-6.2s-18.2,2-24.3,6.2c-6,4.2-9,9.8-9,16.8s-.2.2-.2,0h0c0,.7.3,1.8.5,3.5h14.7v-1.9c0-4.2,1.5-7.6,4.6-9.9,3.1-2.3,6.9-3.5,13.1-3.5s10.5,1.2,13.1,3.5c2.7,2.3,4,6.1,4,11.2v9c-12.7,0-22.9.9-30.7,2.7-7.7,1.8-13.3,4.7-16.8,8.6-3.4,3.9-5.1,7.8-5.1,15.4s2.2,13.4,6.7,17.4c4.6,3.9,11.1,5.9,19.5,5.9h.3c3.8,0,7.5-.4,11-1.3,3.5-.8,6.7-2.1,9.6-4,2.8-2,5.2-4.7,7-8,.3,3.4.9,6.1,1.9,8s2.5,3.2,4.5,4c2,.9,4.6,1.3,7.8,1.3s4.4-.3,6.4-.8,3.7-1.2,5.1-2.2v-10.4c-1.8,1.3-3.9,1.9-6.4,1.9ZM872.2,1794.9c0,4.5-.8,8.6-2.4,12.2-1.5,3.6-3.8,6.5-7,8.6-3.1,2.1-7.1,3.2-12,3.2s-9.1-1.1-11.7-3.2c-2.5-2.1-3.7-5.4-3.7-9.6s1.2-7.4,3.4-9.6c2.3-2.4,6.2-4,11.5-5,5.4-1.1,12.7-1.6,21.9-1.6v5Z"/>
  <polygon points="991.7 1816.4 991.7 1828.7 918.6 1828.7 918.6 1816.4 948 1816.4 948 1725.8 918.6 1725.8 918.6 1713.3 963.9 1713.3 963.9 1816.4 991.7 1816.4"/>
  <path d="M1011,1849.3v-11.5h80v11.5h-80Z"/>
  <path d="M1164.3,1713.4v42.9c-2.2-3.4-5.3-6.1-9.4-8-4-2-8.2-3-14.2-3s-11.6,1.6-16.6,4.8c-4.9,3.2-8.8,7.9-11.7,14.2-2.9,6.2-4.3,13.9-4.3,23v1.8c0,9.7,1.4,17.6,4.3,23.7,3,6,6.9,10.4,11.8,13.3,5,2.8,10.3,4.2,16.2,4.2h0c5.9-.1,10.9-1.3,15.2-3.5,4.2-2.3,7.6-5.6,9.9-9.9l1.8,11.7h13v-115.2h-16ZM1164.5,1792.2c0,9.1-2,15.8-5.8,20.2-3.7,4.3-8.5,6.4-14.4,6.4h0c-5.9,0-10.8-2.3-14.6-6.7-3.7-4.4-5.6-11.1-5.6-20.2v-8.8c0-8.8,1.9-15.4,5.6-19.8,3.9-4.5,8.7-6.7,14.6-6.7s10.7,2.2,14.4,6.6c3.9,4.4,5.8,11,5.8,20v9Z"/>
  <path d="M1281.2,1790.5v-10.9c0-6.6-1.5-12.5-4.5-17.6-2.9-5.2-7-9.2-12.3-12.2-5.2-3-11-4.5-18.9-4.5s-14.7,1.7-20.5,5.1c-5.8,3.3-10.2,8-13.3,14.1-3.1,6.1-4.6,13.3-4.6,21.6v3.4c0,8,1.3,15.1,4,21.3,2.8,6.2,7,11,12.5,14.4,5.7,3.4,12.8,5.1,21.3,5.1h0c7.3,0,13.7-1.2,19-3.8,5.4-2.6,9.6-6.2,12.6-10.9,3-4.8,4.6-10.5,4.6-17h-15c0,7-1.8,12.1-5.4,15.4-3.5,3.3-9.3,5-15.5,5s-11.3-2.2-15.4-6.6c-4.1-4.4-6.1-10.8-6.1-19.2v-2.7h57.4ZM1223.9,1779.4c0-3.7.8-7.2,2.4-10.6,1.7-3.5,4.1-6.4,7.2-8.6,3.2-2.3,7.7-3.4,11.7-3.4s7.6.9,10.7,2.7,5.4,4.3,7,7.5c1.7,3.1,2.6,6.7,2.6,10.7v2.4h-41.6v-.7Z"/>
  <path d="M1341.1,1830.3c-5,0-9.8-1-14.2-2.9-4.4-1.9-8.2-4.6-11.5-8.2-3.2-3.6-5.7-7.9-7.5-12.8-1.8-5-2.7-10.6-2.7-16.8v-3.8c0-6.2.9-11.7,2.7-16.6,1.8-5,4.3-9.3,7.5-12.8,3.3-3.6,7.2-6.4,11.5-8.2,4.4-1.9,9.2-2.9,14.4-2.9h1.9c6.6,0,12.4,1.4,17.5,4.2,5,2.7,9,6.5,11.8,11.5,2.9,4.9,4.3,10.9,4.3,17.9h-14.4c0-5.2-.8-9.4-2.6-12.6-1.7-3.3-4-5.7-7-7.2-2.9-1.6-6.3-2.4-10.2-2.4-5.8,0-10.7,2.1-14.7,6.4-3.9,4.2-5.9,10.6-5.9,19.4v10.7c0,8.4,1.9,14.8,5.8,19.2,3.9,4.4,9.1,6.6,15.4,6.6s7.2-.8,10.1-2.2c3-1.6,5.3-4,6.9-7.2,1.7-3.3,2.6-7.6,2.6-12.8h14.2c0,7.2-1.5,13.2-4.5,18.2-2.9,5-6.9,8.8-12,11.5-5,2.6-10.8,3.8-17.3,3.8h-2.1Z"/>
  <rect x="1436.4" y="1714.7" width="15" height="15.4"/>
  <polygon points="1480.8 1816.4 1480.8 1828.7 1407.8 1828.7 1407.8 1816.4 1437.1 1816.4 1437.1 1759.4 1407.8 1759.4 1407.8 1746.9 1453.1 1746.9 1453.1 1816.4 1480.8 1816.4"/>
  <path d="M1537.3,1830.3c-6.7,0-12.7-.9-17.9-2.7-5.1-1.9-9.2-4.6-12.2-8.2-2.9-3.6-4.3-7.9-4.3-12.8v-1.4c0-.6,0-1.3.2-2.1h13.8v1.6c0,4.5,1.9,8,5.8,10.6,4,2.4,9.6,3.7,16.8,3.7s11.4-1.1,14.7-3.4c3.4-2.3,5.1-5.4,5.1-9.1s-.7-4.5-2.1-6.1-3.9-3-7.5-4.2c-3.5-1.2-8.6-2.3-15.4-3.4-7.2-1.3-12.9-2.8-17.3-4.6-4.4-1.9-7.5-4.4-9.4-7.4-1.9-3.1-2.9-6.9-2.9-11.5s1.4-9.8,4.3-13.3,6.9-6.2,12-8c5.2-1.8,11.3-2.7,18.2-2.7s11.5.9,16.3,2.7c4.9,1.8,8.8,4.4,11.7,7.7,2.9,3.2,4.3,7.1,4.3,11.7v1.1c0,.4,0,1-.3,1.8h-13.9c0-3.8-.9-6.7-2.7-8.6-1.7-2-4-3.4-7-4-2.9-.8-6.1-1.1-9.6-1.1-12.4,0-18.6,3.8-18.6,11.5s.6,3.7,1.9,5.1c1.3,1.3,3.6,2.5,6.9,3.5,3.4,1.1,8.3,2.2,14.6,3.4,7.8,1.4,13.9,3.1,18.4,5.1,4.6,2,7.9,4.6,9.9,7.8,2,3.1,3,7.2,3,12.2s-1.5,10.3-4.5,14.1c-2.9,3.7-7.1,6.5-12.6,8.3-5.4,1.8-12,2.7-19.7,2.7h0Z"/>
  <rect x="1632.1" y="1714.7" width="15" height="15.4"/>
  <polygon points="1676.5 1816.4 1676.5 1828.7 1603.5 1828.7 1603.5 1816.4 1632.8 1816.4 1632.8 1759.4 1603.5 1759.4 1603.5 1746.9 1648.8 1746.9 1648.8 1816.4 1676.5 1816.4"/>
  <path d="M1767.6,1765.2c-3-6.2-7.3-11.1-13-14.6-5.7-3.5-12.7-5.3-20.5-5.3s-14.5,1.8-20.2,5.3c-5.7,3.4-10,8.2-13,14.4s-4.5,13.3-4.5,21.4v2.7c0,7.9,1.5,15,4.5,21.3,3,6.2,7.3,11.1,13,14.6,5.6,3.5,12.4,5.3,20.3,5.3h.1c7.9,0,14.6-1.7,20.3-5.1,5.7-3.6,10-8.4,13-14.6,3-6.2,4.5-13.3,4.5-21.4v-2.7c0-8-1.5-15.1-4.5-21.3ZM1755.3,1793.2c0,8.1-2,14.4-5.9,19-4,4.5-9,6.7-15.2,6.7s-11.1-2.2-15.2-6.7c-3.9-4.5-5.9-10.9-5.9-19v-10.7c0-8.1,2-14.4,5.9-18.9,4-4.6,9-6.9,15.2-6.9s11.3,2.3,15.2,6.9c3.9,4.5,5.9,10.8,5.9,18.9v10.7Z"/>
  <path d="M1797.8,1828.7v-81.8h13l1.6,11.7c2.5-4.6,5.9-8,10.4-10.1s9.4-3.2,14.9-3.2c9,0,16.1,2.5,21.4,7.5s8,12.4,8,22.2v53.6h-16v-49c0-7.7-1.6-13.3-4.8-16.8-3.1-3.5-7.5-5.3-13.1-5.3s-7.4,1-10.2,3c-2.9,1.9-5.1,4.6-6.7,8.2-1.6,3.4-2.4,7.4-2.4,11.8v48h-16v.2h-.1Z"/>
  <path d="M1888,1849.3v-11.5h80v11.5h-80Z"/>
  <path d="M1984.5,1828.7v-81.8h9.4l1.6,9.1c1.6-3.5,3.8-6.2,6.7-8,3-1.8,6.2-2.7,9.6-2.7s6.8,1,9.6,2.9c2.9,1.9,5,4.8,6.4,8.5,1.9-3.7,4.3-6.6,7-8.5,2.9-1.9,6.4-2.9,10.6-2.9s10.4,1.9,13.4,5.6c3.2,3.7,4.8,9.1,4.8,16v61.8h-13.8v-58.9c0-8-3-12-9-12s-5.3,1.1-7.2,3.4-2.9,5.1-2.9,8.6v58.9h-13.6v-58.9c0-8-3.1-12-9.3-12s-5.3,1.1-7.2,3.4c-1.8,2.2-2.7,5.1-2.7,8.6v58.9h-13.6.2Z"/>
  <path d="M2158,1818.8c-1.4,0-2.5-.3-3.4-1.1-.9-.8-1.3-2-1.3-3.7v-43.4c0-8.5-2.8-14.8-8.3-19-5.4-4.1-14.2-6.2-24.3-6.2s-18.2,2-24.3,6.2c-6,4.2-9,9.8-9,16.8s0,.2-.2,0h0c.1.7.3,1.8.5,3.5h14.7v-1.9c0-4.2,1.5-7.6,4.6-9.9,3.1-2.3,6.9-3.5,13.1-3.5s10.5,1.2,13.1,3.5c2.7,2.3,4,6.1,4,11.2v9c-12.7,0-22.9.9-30.7,2.7-7.7,1.8-13.3,4.7-16.8,8.6-3.4,3.9-5.1,7.8-5.1,15.4s2.2,13.4,6.7,17.4c4.6,3.9,11.1,5.9,19.5,5.9h.3c3.8,0,7.5-.4,11-1.3,3.5-.8,6.7-2.1,9.6-4,2.8-2,5.2-4.7,7-8,.3,3.4.9,6.1,1.9,8s2.5,3.2,4.5,4c2,.9,4.6,1.3,7.8,1.3s4.4-.3,6.4-.8,3.7-1.2,5.1-2.2v-10.4c-1.8,1.3-4,1.9-6.4,1.9ZM2137.2,1794.9c0,4.5-.8,8.6-2.4,12.2-1.5,3.6-3.8,6.5-7,8.6-3.1,2.1-7.1,3.2-12,3.2s-9.1-1.1-11.7-3.2c-2.5-2.1-3.7-5.4-3.7-9.6s1.2-7.4,3.4-9.6c2.3-2.4,6.2-4,11.5-5,5.4-1.1,12.7-1.6,21.9-1.6v5Z"/>
  <polygon points="2184.4 1828.7 2184.4 1713.5 2200.4 1713.5 2200.4 1791.7 2238.2 1746.9 2257.1 1746.9 2224.6 1785 2259 1828.7 2239.5 1828.7 2213.4 1796.2 2200.4 1809 2200.4 1828.7 2184.4 1828.7 2184.4 1828.7 2184.4 1828.7"/>
  <polygon points="2357.8 1816.4 2357.8 1828.7 2284.8 1828.7 2284.8 1816.4 2314.1 1816.4 2314.1 1759.4 2284.8 1759.4 2284.8 1746.9 2330.1 1746.9 2330.1 1816.4 2357.8 1816.4"/>
  <rect x="2313.4" y="1714.7" width="15" height="15.4"/>
  <path d="M2381.2,1828.7v-81.8h13l1.6,11.7c2.4-4.6,5.9-8,10.4-10.1s9.4-3.2,14.9-3.2c9,0,16.1,2.5,21.4,7.5s8,12.4,8,22.2v53.6h-16v-49c0-7.7-1.6-13.3-4.8-16.8-3.1-3.5-7.5-5.3-13.1-5.3s-7.4,1-10.2,3c-2.9,1.9-5.1,4.6-6.7,8.2-1.6,3.4-2.4,7.4-2.4,11.8v48h-16v.2h0Z"/>
  <path d="M2550.2,1819.5c-4.3-3.9-10.2-5.9-17.8-5.9h-29c-3.2,0-5.7-.7-7.5-2.1-1.8-1.4-2.7-3.6-2.7-6.2s.9-4.7,2.7-6.2c1.9-1.4,4.5-2.2,7.7-2.2h13.1c10.1,0,17.9-2.3,23.2-7,5.5-4.7,8.2-11,8.2-18.9s-.7-7-2.1-10.1c-1.3-3.2-3.2-5.8-5.8-7.8v-.3c4.9-1,8.8-3.4,11.8-7,3-3.7,4.6-8.3,4.6-13.6h-13c-.3,3.7-1.6,7-3.8,9.9-2.1,2.7-5.3,4.7-9.6,5.9-4.1-1.8-4.8-2.7-16-2.7s-19.6,2.3-25.4,6.9c-5.7,4.6-8.5,10.9-8.5,18.9s1,8.7,2.9,12.2c1.9,3.5,4.8,6.4,8.6,8.6-4.3.9-7.7,2.8-10.1,5.8-2.5,3-3.7,7.4-3.7,10.1s.6,5.4,1.9,7.8c1.4,2.4,3.3,4.4,5.6,5.9-3.5,1.5-6.4,3.8-8.6,7-2.3,3.2-3.4,5.4-3.4,10.9s1.9,10.1,5.6,13.8c3.7,3.7,9,5.6,15.8,5.6l.3-.2h36.8c7.9,0,13.9-2.2,18.2-6.7,4.4-4.4,6.6-10.6,6.6-17s-2.2-11.6-6.6-15.4ZM2500.4,1759.8c3.4-2.7,7.9-4,13.8-4s10.5,1.3,13.8,4c3.3,2.6,5,6.6,5,11.5s-1.7,8.7-5,11.5c-3.4,2.7-7.9,4-13.8,4s-10.4-1.3-13.8-4c-3.4-2.7-5-6.5-5-11.5s1.7-8.8,5-11.5ZM2538.6,1845c-2.1,2.1-5.1,3.2-9,3.2h-30.2c-3.8,0-6.8-1.1-8.8-3.2s-3-4.5-3-7.5,1-5.6,3-7.7c2-2,5-3,8.8-3h30.2c4.1,0,7.1,1,9,3,2,2,3,4.4,3,7.5s-1,5.7-3,7.7Z"/>
  <path d="M2570,1849.3v-11.5h80v11.5h-80Z"/>
  <path d="M2710.5,1739.9v7h32.5v12.5h-32.5v57h33.4v12.3h-72.6v-12.3h23v-57h-22.9v-12.5h22.9v-8.5c0-6,1.4-10.9,4.2-14.7s6.6-6.7,11.4-8.6c4.8-1.9,10.1-2.9,16-2.9s6.6.4,10.2,1.1c3.6.6,6.6,1.5,9,2.7v11.4c-2.1-.8-4.5-1.6-7-2.2-2.6-.8-5.3-1.1-8.2-1.1s-6.6.5-9.6,1.4c-3,.8-5.4,2.4-7.2,4.6-1.7,2.2-2.6,5.5-2.6,9.8Z"/>
  <path d="M2837.3,1765.2c-3-6.2-7.3-11.1-13-14.6s-12.7-5.3-20.5-5.3-14.6,1.8-20.2,5.3c-5.7,3.4-10,8.2-13,14.4s-4.5,13.3-4.5,21.4v2.7c0,7.9,1.5,15,4.5,21.3,3,6.2,7.3,11.1,13,14.6,5.6,3.5,12.4,5.3,20.3,5.3h.1c7.9,0,14.6-1.7,20.3-5.1,5.7-3.6,10-8.4,13-14.6,3-6.2,4.5-13.3,4.5-21.4v-2.7c0-8-1.5-15.1-4.5-21.3ZM2825,1793.2c0,8.1-2,14.4-5.9,19-4,4.5-9,6.7-15.2,6.7s-11.1-2.2-15.2-6.7c-3.9-4.5-5.9-10.9-5.9-19v-10.7c0-8.1,2-14.4,5.9-18.9,4-4.6,9-6.9,15.2-6.9s11.3,2.3,15.2,6.9c3.9,4.5,5.9,10.8,5.9,18.9v10.7Z"/>
  <path d="M2943.2,1770.6c0,7.4,0,2.3,0,3.4,0,1-.1,2.1-.3,3.5h-13.6v-3.4c0-2.9-.6-5.5-1.8-8-1.1-2.4-2.8-4.4-5.1-5.9-2.2-1.6-5.2-2.4-8.8-2.4s-6.5,1-9,3c-2.3,2-4.1,4.6-5.3,7.7s-1.8,6.3-1.8,9.8v38.1h36.7v12.3h-73.8v-12.3h21.4v-57h-20.6v-12.5h33.6l.8,12c1.9-4.3,4.9-7.6,8.8-9.9,4.1-2.4,8.7-3.7,13.9-3.7,8,0,14.1,2.4,18.4,7.2,4.4,4.7,6.6,10.7,6.6,18.1Z"/>
  <path d="M2958,1849.3v-11.5h80v11.5h-80Z"/>
  <path d="M3128.8,1763.3c-2.7-6-6.6-10.5-11.5-13.4-4.8-3-10.6-4.5-16.5-4.5s-11.1,1.2-15.5,3.4c-4.3,2.2-7.6,5.5-9.9,9.9l-1.8-11.7h-13v110.7h16v-37.9c2.3,3,5.3,5.5,9.3,7.5s8.1,3,14.2,3,11.6-1.5,16.5-4.6c5-3.2,9-7.8,12-13.9,3-6.2,4.5-13.7,4.5-22.7v-2.1c0-9.7-1.4-17.6-4.3-23.7ZM3116.9,1792.6c0,8.9-1.9,15.5-5.6,19.8-3.7,4.3-8.5,6.4-14.4,6.4h0c-5.9,0-10.7-2-14.5-6.3-3.9-4.2-5.8-10.8-5.8-19.8v-9.3c0-6.6,1-11.9,2.9-15.7,1.9-3.9,4.4-6.7,7.5-8.3,3.1-1.8,6.3-2.6,9.9-2.6s6.9.9,9.9,2.7c3.1,1.7,5.6,4.5,7.4,8.3s2.7,9,2.7,15.5v9.3Z"/>
  <path d="M3233.4,1770.6c0,7.4,0,2.3-.2,3.4,0,1,0,2.1-.3,3.5h-13.6v-3.4c0-2.9-.6-5.5-1.8-8-1.1-2.4-2.8-4.4-5.1-5.9-2.2-1.6-5.2-2.4-8.8-2.4s-6.5,1-9,3c-2.4,2-4.1,4.6-5.3,7.7s-1.8,6.3-1.8,9.8v38.1h36.7v12.3h-73.8v-12.3h21.5v-57h-20.6v-12.5h33.6l.8,12c1.9-4.3,4.8-7.6,8.8-9.9,4.1-2.4,8.7-3.7,13.9-3.7,8,0,14.1,2.4,18.4,7.2,4.4,4.7,6.6,10.7,6.6,18.1Z"/>
  <path d="M3323.1,1765.2c-3-6.2-7.3-11.1-13-14.6-5.7-3.5-12.7-5.3-20.5-5.3s-14.5,1.8-20.2,5.3c-5.7,3.4-10,8.2-13,14.4s-4.5,13.3-4.5,21.4v2.7c0,7.9,1.5,15,4.5,21.3,3,6.2,7.4,11.1,13,14.6,5.6,3.5,12.4,5.3,20.3,5.3h.1c7.9,0,14.6-1.7,20.3-5.1,5.7-3.6,10-8.4,13-14.6,3-6.2,4.5-13.3,4.5-21.4v-2.7c0-8-1.5-15.1-4.5-21.3ZM3310.8,1793.2c0,8.1-1.9,14.4-5.9,19-3.9,4.5-9,6.7-15.2,6.7s-11.1-2.2-15.2-6.7c-3.9-4.5-5.9-10.9-5.9-19v-10.7c0-8.1,2-14.4,5.9-18.9,4.1-4.6,9-6.9,15.2-6.9s11.3,2.3,15.2,6.9c3.9,4.5,5.9,10.8,5.9,18.9v10.7Z"/>
  <path d="M3404.9,1713.4v42.9c-2.2-3.4-5.3-6.1-9.4-8-4-2-8.2-3-14.2-3s-11.6,1.6-16.6,4.8c-4.9,3.2-8.8,7.9-11.7,14.2-2.9,6.2-4.3,13.9-4.3,23v1.8c0,9.7,1.4,17.6,4.3,23.7,2.9,6,6.9,10.4,11.8,13.3,5,2.8,10.3,4.2,16.2,4.2h0c5.9-.1,10.9-1.3,15.2-3.5,4.2-2.3,7.6-5.6,9.9-9.9l1.8,11.7h13v-115.2h-16ZM3405.1,1792.2c0,9.1-2,15.8-5.8,20.2-3.7,4.3-8.5,6.4-14.4,6.4h0c-5.9,0-10.8-2.3-14.6-6.7-3.7-4.4-5.6-11.1-5.6-20.2v-8.8c0-8.8,1.9-15.4,5.6-19.8,3.9-4.5,8.7-6.7,14.6-6.7s10.7,2.2,14.4,6.6c3.9,4.4,5.8,11,5.8,20v9Z"/>
  <path d="M3478.4,1830.3c-8.8,0-15.8-2.4-21.1-7.4-5.2-4.9-7.8-12.3-7.8-22.2v-53.8h16.2v50.7c0,6.8,1.5,11.9,4.6,15.2,3.2,3.3,7.6,5,13.3,5s7-.9,9.9-2.7c3-1.9,5.3-4.5,6.9-7.7,1.7-3.2,2.6-6.8,2.6-10.7v-49.8h16v67c0,1.7.4,2.9,1.1,3.7s1.9,1.1,3.4,1.1,2.1,0,3.2-.3,2.2-.8,3.4-1.6v10.4c-1.4,1-3.1,1.7-5.3,2.2-2,.5-4.1.8-6.2.8-3.8,0-6.8-.5-8.8-1.6-1.9-1.2-3.2-2.8-4-4.8-.6-2-1.1-4.3-1.3-6.9-1.6,2.9-3.6,5.3-6.1,7.4-2.4,1.9-5.3,3.4-8.6,4.3-3.3,1.1-7,1.6-11.2,1.6h-.2,0Z"/>
  <path d="M3581.7,1830.3c-5,0-9.8-1-14.2-2.9s-8.2-4.6-11.5-8.2c-3.2-3.6-5.7-7.9-7.5-12.8-1.8-5-2.7-10.6-2.7-16.8v-3.8c0-6.2.9-11.7,2.7-16.6,1.8-5,4.3-9.3,7.5-12.8,3.3-3.6,7.1-6.4,11.5-8.2,4.4-1.9,9.2-2.9,14.4-2.9h1.9c6.6,0,12.4,1.4,17.4,4.2,5,2.7,9,6.5,11.8,11.5,2.9,4.9,4.3,10.9,4.3,17.9h-14.4c0-5.2-.9-9.4-2.6-12.6-1.7-3.3-4.1-5.7-7-7.2-2.9-1.6-6.3-2.4-10.2-2.4-5.8,0-10.7,2.1-14.7,6.4-3.9,4.2-5.9,10.6-5.9,19.4v10.7c0,8.4,1.9,14.8,5.8,19.2,3.9,4.4,9.1,6.6,15.4,6.6s7.2-.8,10.1-2.2c3-1.6,5.3-4,6.9-7.2,1.7-3.3,2.6-7.6,2.6-12.8h14.2c0,7.2-1.5,13.2-4.5,18.2-2.9,5-6.9,8.8-12,11.5-5,2.6-10.8,3.8-17.3,3.8h-2Z"/>
  <path d="M3696,1830.3c-9.6,0-17.2-2.1-22.9-6.2-5.7-4.3-8.5-11.2-8.5-20.8v-43.8h-23.7v-12.5h24.2l5.6-26.1h9.9v26.1h37v12.5h-37v42.6c0,3.6.7,6.6,2.2,9,1.5,2.3,3.7,4.1,6.6,5.1,2.9,1.1,6.5,1.6,10.9,1.6s6.6-.4,9.4-1.3c3-1,5.6-2,7.8-3v12.3c-2.6,1.5-5.8,2.6-9.8,3.4-4,.9-7.9,1.3-11.8,1.3v-.2h.1Z"/>
  <path d="M3738,1849.3v-11.5h80v11.5h-80Z"/>
  <path d="M3888.9,1830.3c-9.6,0-17.2-2.1-22.9-6.2-5.6-4.3-8.5-11.2-8.5-20.8v-43.8h-23.7v-12.5h24.2l5.6-26.1h9.9v26.1h37v12.5h-37v42.6c0,3.6.8,6.6,2.2,9s3.7,4.1,6.6,5.1c2.9,1.1,6.5,1.6,10.9,1.6s6.6-.4,9.4-1.3c3-1,5.6-2,7.8-3v12.3c-2.6,1.5-5.8,2.6-9.8,3.4-3.9.9-7.9,1.3-11.8,1.3v-.2h.1Z"/>
  <path d="M4008.2,1790.5v-10.9c0-6.6-1.5-12.5-4.5-17.6-2.9-5.2-7-9.2-12.3-12.2-5.3-3-11-4.5-18.9-4.5s-14.7,1.7-20.5,5.1c-5.8,3.3-10.2,8-13.3,14.1-3.1,6.1-4.6,13.3-4.6,21.6v3.4c0,8,1.3,15.1,4,21.3,2.8,6.2,6.9,11,12.5,14.4,5.7,3.4,12.8,5.1,21.3,5.1h.1c7.3,0,13.7-1.2,19-3.8,5.4-2.6,9.6-6.2,12.6-10.9,3-4.8,4.6-10.5,4.6-17h-15c0,7-1.8,12.1-5.4,15.4-3.5,3.3-9.3,5-15.5,5s-11.3-2.2-15.4-6.6c-4.1-4.4-6.1-10.8-6.1-19.2v-2.7h57.4ZM3950.9,1779.4c0-3.7.8-7.2,2.4-10.6,1.7-3.5,4.1-6.4,7.2-8.6,3.2-2.3,7.7-3.4,11.7-3.4s7.6.9,10.7,2.7c3.1,1.8,5.4,4.3,7,7.5,1.7,3.1,2.6,6.7,2.6,10.7v2.4h-41.6v-.7Z"/>
  <path d="M4105.9,1818.8c-1.4,0-2.5-.3-3.4-1.1s-1.3-2-1.3-3.7v-43.4c0-8.5-2.8-14.8-8.3-19-5.4-4.1-14.2-6.2-24.3-6.2s-18.2,2-24.3,6.2c-6,4.2-9,9.8-9,16.8s-.1.2-.2,0h0c0,.7.3,1.8.5,3.5h14.7v-1.9c0-4.2,1.5-7.6,4.6-9.9,3.1-2.3,6.9-3.5,13.1-3.5s10.5,1.2,13.1,3.5c2.7,2.3,4,6.1,4,11.2v9c-12.7,0-22.9.9-30.7,2.7-7.7,1.8-13.3,4.7-16.8,8.6-3.4,3.9-5.1,7.8-5.1,15.4s2.2,13.4,6.7,17.4c4.6,3.9,11.1,5.9,19.5,5.9h.3c3.8,0,7.5-.4,11-1.3,3.5-.8,6.7-2.1,9.6-4,2.8-2,5.2-4.7,7-8,.3,3.4.9,6.1,1.9,8s2.5,3.2,4.5,4c2,.9,4.6,1.3,7.8,1.3s4.4-.3,6.4-.8,3.7-1.2,5.1-2.2v-10.4c-1.8,1.3-4,1.9-6.4,1.9ZM4085,1794.9c0,4.5-.8,8.6-2.4,12.2-1.4,3.6-3.8,6.5-7,8.6-3.1,2.1-7.1,3.2-12,3.2s-9.1-1.1-11.7-3.2c-2.5-2.1-3.7-5.4-3.7-9.6s1.2-7.4,3.4-9.6c2.3-2.4,6.2-4,11.5-5,5.4-1.1,12.7-1.6,21.9-1.6v5Z"/>
  <path d="M4128,1828.7v-81.8h9.4l1.6,9.1c1.6-3.5,3.8-6.2,6.7-8,3-1.8,6.2-2.7,9.6-2.7s6.8,1,9.6,2.9c2.9,1.9,5,4.8,6.4,8.5,1.9-3.7,4.3-6.6,7-8.5,2.9-1.9,6.4-2.9,10.6-2.9s10.4,1.9,13.4,5.6c3.2,3.7,4.8,9.1,4.8,16v61.8h-13.8v-58.9c0-8-3-12-9-12s-5.3,1.1-7.2,3.4-2.9,5.1-2.9,8.6v58.9h-13.6v-58.9c0-8-3.1-12-9.3-12s-5.3,1.1-7.2,3.4c-1.8,2.2-2.7,5.1-2.7,8.6v58.9h-13.6.2Z"/>
  <path d="M4264.3,1830.3c-6.7,0-12.7-.9-17.9-2.7-5.1-1.9-9.2-4.6-12.2-8.2-2.9-3.6-4.3-7.9-4.3-12.8v-1.4c0-.6,0-1.3.2-2.1h13.8v1.6c0,4.5,1.9,8,5.8,10.6,4,2.4,9.6,3.7,16.8,3.7s11.4-1.1,14.7-3.4c3.4-2.3,5.1-5.4,5.1-9.1s-.7-4.5-2.1-6.1-3.9-3-7.5-4.2c-3.5-1.2-8.6-2.3-15.4-3.4-7.1-1.3-12.9-2.8-17.3-4.6-4.4-1.9-7.5-4.4-9.4-7.4-1.9-3.1-2.9-6.9-2.9-11.5s1.4-9.8,4.3-13.3,6.9-6.2,12-8c5.2-1.8,11.3-2.7,18.2-2.7s11.5.9,16.3,2.7c4.9,1.8,8.8,4.4,11.7,7.7,2.9,3.2,4.3,7.1,4.3,11.7v1.1c0,.4-.1,1-.3,1.8h-13.9c0-3.8-.9-6.7-2.7-8.6-1.7-2-4-3.4-7-4-2.9-.8-6.1-1.1-9.6-1.1-12.4,0-18.6,3.8-18.6,11.5s.6,3.7,1.9,5.1c1.3,1.3,3.6,2.5,6.9,3.5,3.4,1.1,8.3,2.2,14.6,3.4,7.8,1.4,13.9,3.1,18.4,5.1,4.6,2,7.9,4.6,9.9,7.8,2,3.1,3,7.2,3,12.2s-1.5,10.3-4.5,14.1c-2.9,3.7-7.1,6.5-12.6,8.3-5.4,1.8-12,2.7-19.7,2.7h0Z"/>
  <rect x="64" y="468" width="48" height="48"/>
  <rect x="128" y="468" width="48" height="48"/>
  <rect x="192" y="468" width="48" height="48"/>
  <rect x="192" y="596" width="48" height="48"/>
  <rect x="128" y="596" width="48" height="48"/>
  <rect x="64" y="596" width="48" height="48"/>
  <polygon points="0 660 0 708 48 708 48 660 .6 660 0 660"/>
  <rect x="192" y="724" width="48" height="48"/>
  <rect x="128" y="724" width="48" height="48"/>
  <rect x="64" y="724" width="48" height="48"/>
  <g>
    <polygon points="512 468 512 516 560 516 560 468 512.6 468 512 468"/>
    <polygon points="576 468 576 516 624 516 624 468 576.6 468 576 468"/>
    <polygon points="448 532 448 580 496 580 496 532 448.6 532 448 532"/>
    <polygon points="448 660 448 708 496 708 496 660 448.6 660 448 660"/>
    <polygon points="640 660 640 708 688 708 688 660 640.6 660 640 660"/>
    <polygon points="640 532 640 580 688 580 688 532 640.6 532 640 532"/>
    <polygon points="640 596 640 644 688 644 688 596 640.6 596 640 596"/>
    <polygon points="512 724 512 772 560 772 560 724 512.6 724 512 724"/>
    <polygon points="576 724 576 772 624 772 624 724 576.6 724 576 724"/>
    <polygon points="384 660 384 708 432 708 432 660 384.6 660 384 660"/>
    <polygon points="384 724 384 772 432 772 432 724 384.6 724 384 724"/>
    <polygon points="384 788 384 836 432 836 432 788 384.6 788 384 788"/>
    <polygon points="384 468 384 516 432 516 432 468 384.6 468 384 468"/>
    <polygon points="384 596 384 644 432 644 432 596 384.6 596 384 596"/>
    <polygon points="384 852 384 900 432 900 432 852 384.6 852 384 852"/>
    <polygon points="384 532 384 580 432 580 432 532 384.6 532 384 532"/>
  </g>
  <polygon points="895.8 468 895.8 516 943.8 516 943.8 468 896.4 468 895.8 468"/>
  <polygon points="959.8 468 959.8 516 1007.8 516 1007.8 468 960.4 468 959.8 468"/>
  <polygon points="831.8 660 831.8 708 879.8 708 879.8 660 832.4 660 831.8 660"/>
  <polygon points="831.8 532 831.8 580 879.8 580 879.8 532 832.4 532 831.8 532"/>
  <polygon points="1023.8 532 1023.8 580 1071.8 580 1071.8 532 1024.4 532 1023.8 532"/>
  <polygon points="1023.8 596 1023.8 644 1071.8 644 1071.8 596 1024.4 596 1023.8 596"/>
  <polygon points="1023.8 660 1023.8 708 1071.8 708 1071.8 660 1024.4 660 1023.8 660"/>
  <polygon points="895.8 724 895.8 772 943.8 772 943.8 724 896.4 724 895.8 724"/>
  <polygon points="959.8 724 959.8 772 1007.8 772 1007.8 724 960.4 724 959.8 724"/>
  <polygon points="767.8 724 767.8 772 815.8 772 815.8 724 768.4 724 767.8 724"/>
  <polygon points="767.8 660 767.8 708 815.8 708 815.8 660 768.4 660 767.8 660"/>
  <polygon points="767.8 852 767.8 900 815.8 900 815.8 852 768.4 852 767.8 852"/>
  <polygon points="767.8 468 767.8 516 815.8 516 815.8 468 768.4 468 767.8 468"/>
  <polygon points="767.8 788 767.8 836 815.8 836 815.8 788 768.4 788 767.8 788"/>
  <polygon points="767.8 532 767.8 580 815.8 580 815.8 532 768.4 532 767.8 532"/>
  <polygon points="767.8 596 767.8 644 815.8 644 815.8 596 768.4 596 767.8 596"/>
  <g>
    <polygon points="1152 340 1152 388 1200 388 1200 340 1152.6 340 1152 340"/>
    <polygon points="1216 532 1216 580 1264 580 1264 532 1216.6 532 1216 532"/>
    <polygon points="1216 404 1216 452 1264 452 1264 404 1216.6 404 1216 404"/>
    <polygon points="1216 468 1216 516 1264 516 1264 468 1216.6 468 1216 468"/>
    <polygon points="1216 340 1216 388 1264 388 1264 340 1216.6 340 1216 340"/>
    <polygon points="1216 596 1216 644 1264 644 1264 596 1216.6 596 1216 596"/>
    <polygon points="1216 660 1216 708 1264 708 1264 660 1216.6 660 1216 660"/>
    <polygon points="1280 724 1280 772 1328 772 1328 724 1280.6 724 1280 724"/>
    <polygon points="1152 724 1152 772 1200 772 1200 724 1152.6 724 1152 724"/>
    <polygon points="1216 724 1216 772 1264 772 1264 724 1216.6 724 1216 724"/>
  </g>
  <polygon points="1472 340 1472 388 1520 388 1520 340 1472.6 340 1472 340"/>
  <polygon points="1408 468 1408 516 1456 516 1456 468 1408.6 468 1408 468"/>
  <polygon points="1472 468 1472 516 1520 516 1520 468 1472.6 468 1472 468"/>
  <polygon points="1472 660 1472 708 1520 708 1520 660 1472.6 660 1472 660"/>
  <polygon points="1472 596 1472 644 1520 644 1520 596 1472.6 596 1472 596"/>
  <polygon points="1472 532 1472 580 1520 580 1520 532 1472.6 532 1472 532"/>
  <polygon points="1536 724 1536 772 1584 772 1584 724 1536.6 724 1536 724"/>
  <polygon points="1408 724 1408 772 1456 772 1456 724 1408.6 724 1408 724"/>
  <polygon points="1472 724 1472 772 1520 772 1520 724 1472.6 724 1472 724"/>
  <polygon points="1728.6 468 1728 468 1728 516 1776 516 1776 468 1728.6 468 1728.6 468"/>
  <polygon points="1792 468 1792 516 1840 516 1840 468 1792.6 468 1792 468"/>
  <polygon points="1856 468 1856 516 1904 516 1904 468 1856.6 468 1856 468"/>
  <polygon points="1792 596 1792 644 1840 644 1840 596 1792.6 596 1792 596"/>
  <polygon points="1728.6 596 1728 596 1728 644 1776 644 1776 596 1728.6 596 1728.6 596"/>
  <polygon points="1856 596 1856 644 1904 644 1904 596 1856.6 596 1856 596"/>
  <polygon points="1920 532 1920 580 1968 580 1968 532 1920.6 532 1920 532"/>
  <polygon points="1920 596 1920 644 1968 644 1968 596 1920.6 596 1920 596"/>
  <polygon points="1664 532 1664 580 1712 580 1712 532 1664.6 532 1664 532"/>
  <polygon points="1664 596 1664 644 1712 644 1712 596 1664.6 596 1664 596"/>
  <polygon points="1664 660 1664 708 1712 708 1712 660 1664.6 660 1664 660"/>
  <polygon points="1792 724 1792 772 1840 772 1840 724 1792.6 724 1792 724"/>
  <polygon points="1856 724 1856 772 1904 772 1904 724 1856.6 724 1856 724"/>
  <polygon points="1728.6 724 1728 724 1728 772 1776 772 1776 724 1728.6 724 1728.6 724"/>
  <polygon points="2176 468 2176 516 2224 516 2224 468 2176.6 468 2176 468"/>
  <polygon points="2112 468 2112 516 2160 516 2160 468 2112.6 468 2112 468"/>
  <polygon points="2240 532 2240 580 2288 580 2288 532 2240.6 532 2240 532"/>
  <polygon points="2048 532 2048 580 2096 580 2096 532 2048.6 532 2048 532"/>
  <polygon points="2048 660 2048 708 2096 708 2096 660 2048.6 660 2048 660"/>
  <polygon points="2048 596 2048 644 2096 644 2096 596 2048.6 596 2048 596"/>
  <polygon points="2240 660 2240 708 2288 708 2288 660 2240.6 660 2240 660"/>
  <polygon points="2112 724 2112 772 2160 772 2160 724 2112.6 724 2112 724"/>
  <polygon points="2176 724 2176 772 2224 772 2224 724 2176.6 724 2176 724"/>
  <polygon points="2304 404 2304 452 2352 452 2352 404 2304.6 404 2304 404"/>
  <polygon points="2304 532 2304 580 2352 580 2352 532 2304.6 532 2304 532"/>
  <polygon points="2304 660 2304 708 2352 708 2352 660 2304.6 660 2304 660"/>
  <polygon points="2304 340 2304 388 2352 388 2352 340 2304.6 340 2304 340"/>
  <polygon points="2304 468 2304 516 2352 516 2352 468 2304.6 468 2304 468"/>
  <polygon points="2304 724 2304 772 2352 772 2352 724 2304.6 724 2304 724"/>
  <polygon points="2304 596 2304 644 2352 644 2352 596 2304.6 596 2304 596"/>
  <polygon points="256 532 256 580 304 580 304 532 256.6 532 256 532"/>
  <polygon points="256 596 256 644 304 644 304 596 256.6 596 256 596"/>
  <polygon points="256 724 256 772 304 772 304 724 256.6 724 256 724"/>
  <polygon points="256 660 256 708 304 708 304 660 256.6 660 256 660"/>
  <polygon points="2240 980 2240 1028 2288 1028 2288 980 2240.6 980 2240 980"/>
  <polygon points="2304 1044 2304 1092 2352 1092 2352 1044 2304.6 1044 2304 1044"/>
  <polygon points="2304 980 2304 1028 2352 1028 2352 980 2304.6 980 2304 980"/>
  <polygon points="2304 1172 2304 1220 2352 1220 2352 1172 2304.6 1172 2304 1172"/>
  <polygon points="2304 1236 2304 1284 2352 1284 2352 1236 2304.6 1236 2304 1236"/>
  <polygon points="2304 1300 2304 1348 2352 1348 2352 1300 2304.6 1300 2304 1300"/>
  <polygon points="2304 1108 2304 1156 2352 1156 2352 1108 2304.6 1108 2304 1108"/>
  <polygon points="2368 1364 2368 1412 2416 1412 2416 1364 2368.6 1364 2368 1364"/>
  <polygon points="2304 1364 2304 1412 2352 1412 2352 1364 2304.6 1364 2304 1364"/>
  <polygon points="2240 1364 2240 1412 2288 1412 2288 1364 2240.6 1364 2240 1364"/>
  <polygon points="0 1172 0 1220 48 1220 48 1172 .6 1172 0 1172"/>
  <polygon points="0 1236 0 1284 48 1284 48 1236 .6 1236 0 1236"/>
  <polygon points="0 1300 0 1348 48 1348 48 1300 .6 1300 0 1300"/>
  <polygon points="0 1108 0 1156 48 1156 48 1108 .6 1108 0 1108"/>
  <polygon points="192 1300 192 1348 240 1348 240 1300 192.6 1300 192 1300"/>
  <polygon points="128 1364 128 1412 176 1412 176 1364 128.6 1364 128 1364"/>
  <polygon points="64 1364 64 1412 112 1412 112 1364 64.6 1364 64 1364"/>
  <polygon points="256 1300 256 1348 304 1348 304 1300 256.6 1300 256 1300"/>
  <polygon points="256 1172 256 1220 304 1220 304 1172 256.6 1172 256 1172"/>
  <polygon points="256 1236 256 1284 304 1284 304 1236 256.6 1236 256 1236"/>
  <polygon points="256 1364 256 1412 304 1412 304 1364 256.6 1364 256 1364"/>
  <polygon points="256 1108 256 1156 304 1156 304 1108 256.6 1108 256 1108"/>
  <polygon points="384 1108 384 1156 432 1156 432 1108 384.6 1108 384 1108"/>
  <polygon points="448 1172 448 1220 496 1220 496 1172 448.6 1172 448 1172"/>
  <polygon points="576 1172 576 1220 624 1220 624 1172 576.6 1172 576 1172"/>
  <polygon points="640 1108 640 1156 688 1156 688 1108 640.6 1108 640 1108"/>
  <polygon points="512 1236 512 1284 560 1284 560 1236 512.6 1236 512 1236"/>
  <polygon points="448 1300 448 1348 496 1348 496 1300 448.6 1300 448 1300"/>
  <polygon points="384 1364 384 1412 432 1412 432 1364 384.6 1364 384 1364"/>
  <polygon points="640 1364 640 1412 688 1412 688 1364 640.6 1364 640 1364"/>
  <polygon points="576 1300 576 1348 624 1348 624 1300 576.6 1300 576 1300"/>
  <polygon points="960 1428 960 1476 1008 1476 1008 1428 960.6 1428 960 1428"/>
  <polygon points="896 1428 896 1476 944 1476 944 1428 896.6 1428 896 1428"/>
  <polygon points="832 1428 832 1476 880 1476 880 1428 832.6 1428 832 1428"/>
  <polygon points="768 1428 768 1476 816 1476 816 1428 768.6 1428 768 1428"/>
  <polygon points="1600 1108 1600 1156 1648 1156 1648 1108 1600.6 1108 1600 1108"/>
  <polygon points="1664 1108 1664 1156 1712 1156 1712 1108 1664.6 1108 1664 1108"/>
  <polygon points="1536 1172 1536 1220 1584 1220 1584 1172 1536.6 1172 1536 1172"/>
  <polygon points="1472 1108 1472 1156 1520 1156 1520 1108 1472.6 1108 1472 1108"/>
  <polygon points="1472 1172 1472 1220 1520 1220 1520 1172 1472.6 1172 1472 1172"/>
  <polygon points="1472 1364 1472 1412 1520 1412 1520 1364 1472.6 1364 1472 1364"/>
  <polygon points="1472 1236 1472 1284 1520 1284 1520 1236 1472.6 1236 1472 1236"/>
  <polygon points="1472 1300 1472 1348 1520 1348 1520 1300 1472.6 1300 1472 1300"/>
  <polygon points="1728 1236 1728 1284 1776 1284 1776 1236 1728.6 1236 1728 1236"/>
  <polygon points="1728 1364 1728 1412 1776 1412 1776 1364 1728.6 1364 1728 1364"/>
  <polygon points="1728 1300 1728 1348 1776 1348 1776 1300 1728.6 1300 1728 1300"/>
  <polygon points="1728 1172 1728 1220 1776 1220 1776 1172 1728.6 1172 1728 1172"/>
  <polygon points="2496 1172 2496 1220 2544 1220 2544 1172 2496.6 1172 2496 1172"/>
  <polygon points="2496 1236 2496 1284 2544 1284 2544 1236 2496.6 1236 2496 1236"/>
  <polygon points="2496 1108 2496 1156 2544 1156 2544 1108 2496.6 1108 2496 1108"/>
  <polygon points="2688 1236 2688 1284 2736 1284 2736 1236 2688.6 1236 2688 1236"/>
  <polygon points="2560 1300 2560 1348 2608 1348 2608 1300 2560.6 1300 2560 1300"/>
  <polygon points="2624 1300 2624 1348 2672 1348 2672 1300 2624.6 1300 2624 1300"/>
  <polygon points="2496 1428 2496 1476 2544 1476 2544 1428 2496.6 1428 2496 1428"/>
  <polygon points="2752 1428 2752 1476 2800 1476 2800 1428 2752.6 1428 2752 1428"/>
  <polygon points="2752 1108 2752 1156 2800 1156 2800 1108 2752.6 1108 2752 1108"/>
  <polygon points="2752 1300 2752 1348 2800 1348 2800 1300 2752.6 1300 2752 1300"/>
  <polygon points="2752 1172 2752 1220 2800 1220 2800 1172 2752.6 1172 2752 1172"/>
  <polygon points="2752 1364 2752 1412 2800 1412 2800 1364 2752.6 1364 2752 1364"/>
  <polygon points="2752 1236 2752 1284 2800 1284 2800 1236 2752.6 1236 2752 1236"/>
  <polygon points="2560 1492 2560 1540 2608 1540 2608 1492 2560.6 1492 2560 1492"/>
  <polygon points="2624 1492 2624 1540 2672 1540 2672 1492 2624.6 1492 2624 1492"/>
  <polygon points="2688 1492 2688 1540 2736 1540 2736 1492 2688.6 1492 2688 1492"/>
  <polygon points="3008 1108 3008 1156 3056 1156 3056 1108 3008.6 1108 3008 1108"/>
  <polygon points="3072 1108 3072 1156 3120 1156 3120 1108 3072.6 1108 3072 1108"/>
  <polygon points="2880 1108 2880 1156 2928 1156 2928 1108 2880.6 1108 2880 1108"/>
  <polygon points="2944 1300 2944 1348 2992 1348 2992 1300 2944.6 1300 2944 1300"/>
  <polygon points="2944 1172 2944 1220 2992 1220 2992 1172 2944.6 1172 2944 1172"/>
  <polygon points="2944 980 2944 1028 2992 1028 2992 980 2944.6 980 2944 980"/>
  <polygon points="2944 1236 2944 1284 2992 1284 2992 1236 2944.6 1236 2944 1236"/>
  <polygon points="2944 1044 2944 1092 2992 1092 2992 1044 2944.6 1044 2944 1044"/>
  <polygon points="2944 1108 2944 1156 2992 1156 2992 1108 2944.6 1108 2944 1108"/>
  <polygon points="3136 1300 3136 1348 3184 1348 3184 1300 3136.6 1300 3136 1300"/>
  <polygon points="3072 1364 3072 1412 3120 1412 3120 1364 3072.6 1364 3072 1364"/>
  <polygon points="3008 1364 3008 1412 3056 1412 3056 1364 3008.6 1364 3008 1364"/>
  <polygon points="3328.2 980 3328.2 1028 3376.2 1028 3376.2 980 3328.8 980 3328.2 980"/>
  <polygon points="3264.2 1108 3264.2 1156 3312.2 1156 3312.2 1108 3264.8 1108 3264.2 1108"/>
  <polygon points="3328.2 1236 3328.2 1284 3376.2 1284 3376.2 1236 3328.8 1236 3328.2 1236"/>
  <polygon points="3328.2 1172 3328.2 1220 3376.2 1220 3376.2 1172 3328.8 1172 3328.2 1172"/>
  <polygon points="3328.2 1300 3328.2 1348 3376.2 1348 3376.2 1300 3328.8 1300 3328.2 1300"/>
  <polygon points="3328.2 1108 3328.2 1156 3376.2 1156 3376.2 1108 3328.8 1108 3328.2 1108"/>
  <polygon points="3264.2 1364 3264.2 1412 3312.2 1412 3312.2 1364 3264.8 1364 3264.2 1364"/>
  <polygon points="3328.2 1364 3328.2 1412 3376.2 1412 3376.2 1364 3328.8 1364 3328.2 1364"/>
  <polygon points="3392.2 1364 3392.2 1412 3440.2 1412 3440.2 1364 3392.8 1364 3392.2 1364"/>
  <polygon points="3584.2 1108 3584.2 1156 3632.2 1156 3632.2 1108 3584.8 1108 3584.2 1108"/>
  <polygon points="3648.2 1108 3648.2 1156 3696.2 1156 3696.2 1108 3648.8 1108 3648.2 1108"/>
  <polygon points="3712.8 1108 3712.2 1108 3712.2 1156 3760.2 1156 3760.2 1108 3712.8 1108"/>
  <polygon points="3520.2 1172 3520.2 1220 3568.2 1220 3568.2 1172 3520.8 1172 3520.2 1172"/>
  <polygon points="3520.2 1300 3520.2 1348 3568.2 1348 3568.2 1300 3520.8 1300 3520.2 1300"/>
  <polygon points="3520.2 1236 3520.2 1284 3568.2 1284 3568.2 1236 3520.8 1236 3520.2 1236"/>
  <polygon points="3648.2 1364 3648.2 1412 3696.2 1412 3696.2 1364 3648.8 1364 3648.2 1364"/>
  <polygon points="3712.2 1364 3712.2 1412 3760.2 1412 3760.2 1364 3712.8 1364 3712.2 1364"/>
  <polygon points="3584.2 1364 3584.2 1412 3632.2 1412 3632.2 1364 3584.8 1364 3584.2 1364"/>
  <rect x="1152" y="1108" width="48" height="48"/>
  <rect x="1216" y="1108" width="48" height="48"/>
  <rect x="1280" y="1108" width="48" height="48"/>
  <rect x="1152" y="1236" width="48" height="48"/>
  <rect x="1280" y="1236" width="48" height="48"/>
  <rect x="1216" y="1236" width="48" height="48"/>
  <polygon points="1088 1300 1088 1348 1136 1348 1136 1300 1088.6 1300 1088 1300"/>
  <rect x="1152" y="1364" width="48" height="48"/>
  <rect x="1280" y="1364" width="48" height="48"/>
  <rect x="1216" y="1364" width="48" height="48"/>
  <polygon points="1344 1364 1344 1412 1392 1412 1392 1364 1344.6 1364 1344 1364"/>
  <polygon points="1344 1300 1344 1348 1392 1348 1392 1300 1344.6 1300 1344 1300"/>
  <polygon points="1344 1172 1344 1220 1392 1220 1392 1172 1344.6 1172 1344 1172"/>
  <polygon points="1344 1236 1344 1284 1392 1284 1392 1236 1344.6 1236 1344 1236"/>
  <rect x="1920" y="1108" width="48" height="48"/>
  <rect x="2048" y="1108" width="48" height="48"/>
  <rect x="1984" y="1108" width="48" height="48"/>
  <rect x="1920" y="1236" width="48" height="48"/>
  <rect x="2048" y="1236" width="48" height="48"/>
  <rect x="1984" y="1236" width="48" height="48"/>
  <polygon points="1856 1300 1856 1348 1904 1348 1904 1300 1856.6 1300 1856 1300"/>
  <rect x="2048" y="1364" width="48" height="48"/>
  <rect x="1920" y="1364" width="48" height="48"/>
  <rect x="1984" y="1364" width="48" height="48"/>
  <polygon points="2112 1236 2112 1284 2160 1284 2160 1236 2112.6 1236 2112 1236"/>
  <polygon points="2112 1172 2112 1220 2160 1220 2160 1172 2112.6 1172 2112 1172"/>
  <polygon points="2112 1364 2112 1412 2160 1412 2160 1364 2112.6 1364 2112 1364"/>
  <polygon points="2112 1300 2112 1348 2160 1348 2160 1300 2112.6 1300 2112 1300"/>
</svg>