<?xml version="1.0" encoding="UTF-8"?>
<svg id="Layer_1" xmlns="http://www.w3.org/2000/svg" version="1.1" viewBox="0 0 805.8 532.4">
  <!-- Generator: Adobe Illustrator 29.4.0, SVG Export Plug-In . SVG Version: 2.1.0 Build 152)  -->
  <path d="M40.7,52.8h9c0,.1,19.3.1,19.3.1v2.7h19.2v-.9h9.8v-2.1h9c0,.1,9.4.1,9.4.1h0c0,0,19.6,0,19.6,0h0c0,.1,20,.1,20,.1v-.3h9.2v-20.4h-20c0,0-9.1,0-9.1,0v-2.4h-19.7v2.4h-2.1v-3.1h-13.5v3.2h-21.9v-.2h-39.1v.2h-19v20.4h19.9ZM415,71.8h9.6v-26.7h-22.8v26.7h13.2ZM631.6,45.1h-9.6v48h-6v-16h-32.3v16h-19.2v58.7h19.2v16h32.3v-16h6v16h22.8V45.1h-13.2ZM622,125.1h-9.6v16h-25.1v-37.3h25.1v16h9.6v5.3ZM156.8,77.1h-13.2v16h-6v-16h-22.8v122.7h22.8v-48h6v16h41.9v-16h9.6v-58.7h-9.6v-16h-28.7ZM172.3,103.8v37.3h-15.5v-16h-19.2v-5.3h19.2v-16h15.5ZM75.4,109.1h-42v16h-9.6v26.7h9.6v16h70.8v-74.7h-9.6v-16h-61.2v26.7h48v5.3h-6ZM81.4,141.1h-34.8v-5.3h34.8v5.3ZM319,167.8h48v-26.7h-19.2V45.1h-42v26.7h19.2v69.3h-19.2v26.7h13.2ZM395.8,167.8h48v-26.7h-19.2v-64h-42v26.7h19.2v37.3h-19.2v26.7h13.2ZM478.1,167.8h61.2v-26.7h-57.6v-5.3h57.6v-42.7h-9.6v-16h-51.6v16h-19.2v58.7h19.2v16ZM481.7,103.8h34.8v5.3h-34.8v-5.3ZM223.5,199.8h9.6v-48h6v16h42v-16h9.6v-58.7h-9.6v-16h-42v16h-6v-16h-22.8v122.7h13.2ZM233.1,119.8h19.2v-16h15.6v37.3h-15.6v-16h-19.2v-5.3ZM186.9,253.1h-15.5v-16h-19.2v-16h-22.8v26.7h19.2v16h19.1v5.3h-19.1v16h-19.2v26.7h22.8v-16h19.2v-16h15.5v16h19.2v16h22.8v-26.7h-19.2v-16h-19.2v-5.3h19.2v-16h19.2v-26.7h-22.8v16h-19.2v16ZM113.8,311.8v-90.7h-22.8v48h-19.2v16h-25.2v-64h-22.8v74.7h9.6v16h51.6v-16h6v16h22.8ZM610.2,343.8h9.6v-26.7h-22.8v26.7h13.2ZM448.3,349.1h-9.6v32h-9.5v16h-25.2v-48h-22.8v58.7h19.2v16h32.4v-16h5.9v37.3h-34.7v-16h-22.8v26.7h19.2v16h51.5v-16h9.6v-106.7h-13.2ZM181.9,391.8v48h22.8v-74.7h-19.2v-16h-41.9v16h-6v-16h-22.8v90.7h22.8v-48h19.2v-16h25.1v16ZM549.5,397.1h-9.6v16h-25.2v-37.3h19.2v-26.7h-19.2v-32h-22.8v32h-19.2v26.7h19.2v48h9.6v16h42v-16h19.2v-26.7h-13.2ZM677.4,397.1v-21.3h48v-26.7h-61.2v16h-9.6v58.7h9.6v16h61.2v-26.7h-48v-16ZM43,439.8h61.2v-74.7h-9.6v-16h-61.2v26.7h48v5.3h-48v16h-9.6v26.7h9.6v16h9.6ZM46.6,407.8h34.8v5.3h-34.8v-5.3ZM232.5,439.8h61.2v-74.7h-9.6v-16h-61.2v26.7h48v5.3h-48v16h-9.6v26.7h9.6v16h9.6ZM226.5,407.8h44.4v5.3h-44.4v-5.3ZM318,439.8h48v-26.7h-19.2v-96h-42v26.7h19.2v69.3h-19.2v26.7h13.2ZM625.8,413.1h-6v-64h-42v26.7h19.2v37.3h-19.2v26.7h61.2v-26.7h-13.2ZM21.2,504.1h431.7v-26.6H21.2v26.6Z"/>
</svg>