<svg width="396" height="166" viewBox="0 0 396 166" fill="none" xmlns="http://www.w3.org/2000/svg">
<path d="M8.035 10.6351C7.205 10.6351 6.535 10.4001 6.025 9.93011C5.525 9.45011 5.275 8.73511 5.275 7.78511V2.82011H6.295V7.54511C6.295 8.29511 6.465 8.85511 6.805 9.22511C7.155 9.59511 7.645 9.78011 8.275 9.78011C8.695 9.78011 9.065 9.67511 9.385 9.46511C9.705 9.24511 9.955 8.95511 10.135 8.59511C10.325 8.23511 10.42 7.84011 10.42 7.41011V2.82011H11.44V9.33011C11.44 9.49011 11.48 9.61011 11.56 9.69011C11.64 9.77011 11.755 9.81011 11.905 9.81011C12.015 9.81011 12.13 9.80011 12.25 9.78011C12.37 9.75011 12.495 9.69011 12.625 9.60011V10.3501C12.495 10.4501 12.345 10.5201 12.175 10.5601C12.015 10.6101 11.845 10.6351 11.665 10.6351C11.345 10.6351 11.1 10.5801 10.93 10.4701C10.77 10.3601 10.66 10.2001 10.6 9.99011C10.54 9.78011 10.505 9.53511 10.495 9.25511C10.345 9.57511 10.145 9.83511 9.895 10.0351C9.645 10.2351 9.36 10.3851 9.04 10.4851C8.72 10.5851 8.385 10.6351 8.035 10.6351Z" fill="white"/>
<path d="M14.08 10.4851L16.9 6.54011L14.215 2.82011H15.46L17.53 5.79011H17.545L19.66 2.82011H20.785L18.115 6.55511L20.92 10.4851H19.705L17.485 7.30511H17.455L15.22 10.4851H14.08Z" fill="white"/>
<path d="M26.41 10.6351C25.95 10.6351 25.52 10.5501 25.12 10.3801C24.72 10.2001 24.375 9.94511 24.085 9.61511C23.795 9.27511 23.57 8.87011 23.41 8.40011C23.25 7.92011 23.17 7.38011 23.17 6.78011V6.51011C23.17 5.91011 23.25 5.37511 23.41 4.90511C23.57 4.42511 23.79 4.02011 24.07 3.69011C24.36 3.35011 24.705 3.09511 25.105 2.92511C25.505 2.75511 25.94 2.67011 26.41 2.67011H26.5C27.08 2.67011 27.595 2.79511 28.045 3.04511C28.505 3.28511 28.865 3.63511 29.125 4.09511C29.395 4.55511 29.53 5.12011 29.53 5.79011H28.585C28.585 5.26011 28.49 4.82511 28.3 4.48511C28.11 4.14511 27.855 3.89511 27.535 3.73511C27.215 3.56511 26.86 3.48011 26.47 3.48011C25.83 3.48011 25.29 3.72011 24.85 4.20011C24.42 4.67011 24.205 5.38511 24.205 6.34511V6.96011C24.205 7.91011 24.42 8.62511 24.85 9.10511C25.29 9.58511 25.835 9.82511 26.485 9.82511C26.885 9.82511 27.24 9.74511 27.55 9.58511C27.87 9.41511 28.12 9.16011 28.3 8.82011C28.49 8.48011 28.585 8.04511 28.585 7.51511H29.53C29.53 8.17511 29.395 8.74011 29.125 9.21011C28.865 9.68011 28.505 10.0351 28.045 10.2751C27.595 10.5151 27.08 10.6351 26.5 10.6351H26.41Z" fill="white"/>
<path d="M34.585 10.6351C33.795 10.6351 33.19 10.4501 32.77 10.0801C32.36 9.70011 32.155 9.16511 32.155 8.47511C32.155 7.88511 32.315 7.41011 32.635 7.05011C32.955 6.68011 33.485 6.41511 34.225 6.25511C34.975 6.09511 35.97 6.01511 37.21 6.01511V5.08511C37.21 4.50511 37.07 4.09511 36.79 3.85511C36.51 3.60511 36.03 3.48011 35.35 3.48011C34.72 3.48011 34.235 3.61011 33.895 3.87011C33.565 4.12011 33.4 4.47511 33.4 4.93511V5.16011H32.455C32.435 4.95011 32.42 4.81511 32.41 4.75511C32.41 4.68511 32.41 4.66011 32.41 4.68011C32.41 4.69011 32.41 4.71511 32.41 4.75511C32.42 4.79511 32.425 4.80511 32.425 4.78511C32.425 4.14511 32.69 3.63511 33.22 3.25511C33.76 2.86511 34.475 2.67011 35.365 2.67011C36.325 2.67011 37.04 2.86011 37.51 3.24011C37.98 3.61011 38.215 4.18511 38.215 4.96511V9.33011C38.215 9.51011 38.26 9.63511 38.35 9.70511C38.44 9.77511 38.56 9.81011 38.71 9.81011C38.96 9.81011 39.19 9.74011 39.4 9.60011V10.3501C39.28 10.4401 39.135 10.5101 38.965 10.5601C38.805 10.6101 38.64 10.6351 38.47 10.6351C38.21 10.6351 37.99 10.5951 37.81 10.5151C37.64 10.4451 37.51 10.3151 37.42 10.1251C37.34 9.92511 37.29 9.63511 37.27 9.25511C37.09 9.61511 36.85 9.89511 36.55 10.0951C36.25 10.2951 35.93 10.4351 35.59 10.5151C35.25 10.5951 34.915 10.6351 34.585 10.6351ZM34.84 9.82511C35.39 9.82511 35.835 9.70511 36.175 9.46511C36.525 9.22511 36.785 8.90511 36.955 8.50511C37.125 8.10511 37.21 7.66011 37.21 7.17011V6.78011C36.18 6.78011 35.37 6.83011 34.78 6.93011C34.19 7.03011 33.77 7.20011 33.52 7.44011C33.28 7.68011 33.16 8.02011 33.16 8.46011C33.16 8.91011 33.295 9.25011 33.565 9.48011C33.835 9.71011 34.26 9.82511 34.84 9.82511Z" fill="white"/>
<path d="M40.9 10.4851V2.82011H41.575L41.695 3.72011C41.825 3.37011 42.025 3.11011 42.295 2.94011C42.575 2.76011 42.875 2.67011 43.195 2.67011C43.515 2.67011 43.81 2.76011 44.08 2.94011C44.36 3.12011 44.565 3.40011 44.695 3.78011C44.855 3.43011 45.065 3.16011 45.325 2.97011C45.595 2.77011 45.935 2.67011 46.345 2.67011C46.895 2.67011 47.32 2.84511 47.62 3.19511C47.93 3.53511 48.085 4.05011 48.085 4.74011V10.4851H47.155V4.87511C47.155 3.95511 46.815 3.49511 46.135 3.49511C45.795 3.49511 45.515 3.62511 45.295 3.88511C45.075 4.14511 44.965 4.47511 44.965 4.87511V10.4851H44.035V4.87511C44.035 3.95511 43.68 3.49511 42.97 3.49511C42.64 3.49511 42.37 3.62511 42.16 3.88511C41.95 4.14511 41.845 4.47511 41.845 4.87511V10.4851H40.9Z" fill="white"/>
<path d="M50.56 13.2001V2.82011H51.355L51.505 4.05011C51.735 3.58011 52.06 3.23511 52.48 3.01511C52.91 2.78511 53.4 2.67011 53.95 2.67011C54.52 2.67011 55.03 2.80511 55.48 3.07511C55.94 3.34511 56.305 3.77011 56.575 4.35011C56.855 4.92011 56.995 5.66011 56.995 6.57011V6.78011C56.995 7.60011 56.855 8.30011 56.575 8.88011C56.295 9.45011 55.925 9.88511 55.465 10.1851C55.005 10.4851 54.495 10.6351 53.935 10.6351C53.405 10.6351 52.935 10.5301 52.525 10.3201C52.125 10.1101 51.805 9.83511 51.565 9.49511V13.2001H50.56ZM53.785 9.81011C54.435 9.81011 54.96 9.57511 55.36 9.10511C55.77 8.63511 55.975 7.89511 55.975 6.88511V6.45011C55.975 5.72011 55.875 5.14011 55.675 4.71011C55.475 4.28011 55.21 3.97011 54.88 3.78011C54.55 3.58011 54.185 3.48011 53.785 3.48011C53.405 3.48011 53.045 3.57011 52.705 3.75011C52.365 3.93011 52.085 4.23511 51.865 4.66511C51.655 5.09511 51.55 5.69011 51.55 6.45011V6.88511C51.55 7.88511 51.76 8.62511 52.18 9.10511C52.6 9.57511 53.135 9.81011 53.785 9.81011Z" fill="white"/>
<path d="M58.75 12.3451V11.4151H66.25V12.3451H58.75Z" fill="white"/>
<path d="M71.005 10.4851L67.84 2.82011H68.935L71.53 9.19511H71.56L74.17 2.82011H75.16L71.98 10.4851H71.005Z" fill="white"/>
<path d="M80.38 10.4851V3.67511H77.515V2.82011H81.385V10.4851H80.38ZM77.515 10.4851V9.64511H84.16V10.4851H77.515ZM80.23 1.20011V0.000106514H81.355V1.20011H80.23Z" fill="white"/>
<path d="M89.47 10.6351C88.72 10.6351 88.095 10.4701 87.595 10.1401C87.105 9.81011 86.735 9.35511 86.485 8.77511C86.245 8.18511 86.125 7.52011 86.125 6.78011V6.52511C86.125 5.75511 86.26 5.08511 86.53 4.51511C86.81 3.93511 87.2 3.48511 87.7 3.16511C88.21 2.83511 88.815 2.67011 89.515 2.67011C90.165 2.67011 90.725 2.81511 91.195 3.10511C91.675 3.38511 92.045 3.76011 92.305 4.23011C92.565 4.70011 92.695 5.22511 92.695 5.80511V6.79511H87.16V6.96011C87.16 7.89011 87.38 8.60011 87.82 9.09011C88.26 9.58011 88.815 9.82511 89.485 9.82511C90.205 9.82511 90.755 9.65011 91.135 9.30011C91.525 8.95011 91.72 8.40011 91.72 7.65011H92.695C92.695 8.26011 92.56 8.79011 92.29 9.24011C92.02 9.68011 91.64 10.0251 91.15 10.2751C90.67 10.5151 90.11 10.6351 89.47 10.6351ZM87.175 6.00011H91.705V5.74511C91.705 5.32511 91.615 4.94511 91.435 4.60511C91.255 4.25511 91 3.98011 90.67 3.78011C90.34 3.58011 89.95 3.48011 89.5 3.48011C88.99 3.48011 88.56 3.61011 88.21 3.87011C87.87 4.12011 87.61 4.43511 87.43 4.81511C87.26 5.19511 87.175 5.57511 87.175 5.95511V6.00011Z" fill="white"/>
<path d="M99.895 10.6351C99.065 10.6351 98.395 10.4501 97.885 10.0801C97.385 9.70011 97.135 9.10011 97.135 8.28011V3.67511H94.78V2.82011H97.15L97.51 0.375107H98.14V2.82011H101.77V3.67511H98.14V8.22011C98.14 8.61011 98.22 8.92011 98.38 9.15011C98.54 9.38011 98.765 9.54511 99.055 9.64511C99.345 9.73511 99.69 9.78011 100.09 9.78011C100.43 9.78011 100.74 9.73511 101.02 9.64511C101.3 9.55511 101.55 9.46011 101.77 9.36011V10.2001C101.54 10.3301 101.255 10.4351 100.915 10.5151C100.575 10.5951 100.235 10.6351 99.895 10.6351Z" fill="white"/>
<path d="M104.455 10.4851V2.82011H105.25L105.4 4.05011C105.63 3.57011 105.965 3.22011 106.405 3.00011C106.845 2.78011 107.32 2.67011 107.83 2.67011C108.67 2.67011 109.345 2.91511 109.855 3.40511C110.375 3.88511 110.635 4.61511 110.635 5.59511V10.4851H109.63V5.98511C109.63 5.11511 109.455 4.48511 109.105 4.09511C108.755 3.70511 108.265 3.51011 107.635 3.51011C107.195 3.51011 106.81 3.62511 106.48 3.85511C106.15 4.07511 105.895 4.38011 105.715 4.77011C105.545 5.16011 105.46 5.61011 105.46 6.12011V10.4851H104.455Z" fill="white"/>
<path d="M115.585 10.6351C114.795 10.6351 114.19 10.4501 113.77 10.0801C113.36 9.70011 113.155 9.16511 113.155 8.47511C113.155 7.88511 113.315 7.41011 113.635 7.05011C113.955 6.68011 114.485 6.41511 115.225 6.25511C115.975 6.09511 116.97 6.01511 118.21 6.01511V5.08511C118.21 4.50511 118.07 4.09511 117.79 3.85511C117.51 3.60511 117.03 3.48011 116.35 3.48011C115.72 3.48011 115.235 3.61011 114.895 3.87011C114.565 4.12011 114.4 4.47511 114.4 4.93511V5.16011H113.455C113.435 4.95011 113.42 4.81511 113.41 4.75511C113.41 4.68511 113.41 4.66011 113.41 4.68011C113.41 4.69011 113.41 4.71511 113.41 4.75511C113.42 4.79511 113.425 4.80511 113.425 4.78511C113.425 4.14511 113.69 3.63511 114.22 3.25511C114.76 2.86511 115.475 2.67011 116.365 2.67011C117.325 2.67011 118.04 2.86011 118.51 3.24011C118.98 3.61011 119.215 4.18511 119.215 4.96511V9.33011C119.215 9.51011 119.26 9.63511 119.35 9.70511C119.44 9.77511 119.56 9.81011 119.71 9.81011C119.96 9.81011 120.19 9.74011 120.4 9.60011V10.3501C120.28 10.4401 120.135 10.5101 119.965 10.5601C119.805 10.6101 119.64 10.6351 119.47 10.6351C119.21 10.6351 118.99 10.5951 118.81 10.5151C118.64 10.4451 118.51 10.3151 118.42 10.1251C118.34 9.92511 118.29 9.63511 118.27 9.25511C118.09 9.61511 117.85 9.89511 117.55 10.0951C117.25 10.2951 116.93 10.4351 116.59 10.5151C116.25 10.5951 115.915 10.6351 115.585 10.6351ZM115.84 9.82511C116.39 9.82511 116.835 9.70511 117.175 9.46511C117.525 9.22511 117.785 8.90511 117.955 8.50511C118.125 8.10511 118.21 7.66011 118.21 7.17011V6.78011C117.18 6.78011 116.37 6.83011 115.78 6.93011C115.19 7.03011 114.77 7.20011 114.52 7.44011C114.28 7.68011 114.16 8.02011 114.16 8.46011C114.16 8.91011 114.295 9.25011 114.565 9.48011C114.835 9.71011 115.26 9.82511 115.84 9.82511Z" fill="white"/>
<path d="M121.9 10.4851V2.82011H122.575L122.695 3.72011C122.825 3.37011 123.025 3.11011 123.295 2.94011C123.575 2.76011 123.875 2.67011 124.195 2.67011C124.515 2.67011 124.81 2.76011 125.08 2.94011C125.36 3.12011 125.565 3.40011 125.695 3.78011C125.855 3.43011 126.065 3.16011 126.325 2.97011C126.595 2.77011 126.935 2.67011 127.345 2.67011C127.895 2.67011 128.32 2.84511 128.62 3.19511C128.93 3.53511 129.085 4.05011 129.085 4.74011V10.4851H128.155V4.87511C128.155 3.95511 127.815 3.49511 127.135 3.49511C126.795 3.49511 126.515 3.62511 126.295 3.88511C126.075 4.14511 125.965 4.47511 125.965 4.87511V10.4851H125.035V4.87511C125.035 3.95511 124.68 3.49511 123.97 3.49511C123.64 3.49511 123.37 3.62511 123.16 3.88511C122.95 4.14511 122.845 4.47511 122.845 4.87511V10.4851H121.9Z" fill="white"/>
<path d="M14.34 68.0851C11.18 68.0851 8.76 67.3451 7.08 65.8651C5.44 64.3451 4.62 62.2051 4.62 59.4451C4.62 57.0851 5.26 55.1851 6.54 53.7451C7.82 52.2651 9.94 51.2051 12.9 50.5651C15.9 49.9251 19.88 49.6051 24.84 49.6051V45.8851C24.84 43.5651 24.28 41.9251 23.16 40.9651C22.04 39.9651 20.12 39.4651 17.4 39.4651C14.88 39.4651 12.94 39.9851 11.58 41.0251C10.26 42.0251 9.6 43.4451 9.6 45.2851V46.1851H5.82C5.74 45.3451 5.68 44.8051 5.64 44.5651C5.64 44.2851 5.64 44.1851 5.64 44.2651C5.64 44.3051 5.64 44.4051 5.64 44.5651C5.68 44.7251 5.7 44.7651 5.7 44.6851C5.7 42.1251 6.76 40.0851 8.88 38.5651C11.04 37.0051 13.9 36.2251 17.46 36.2251C21.3 36.2251 24.16 36.9851 26.04 38.5051C27.92 39.9851 28.86 42.2851 28.86 45.4051V62.8651C28.86 63.5851 29.04 64.0851 29.4 64.3651C29.76 64.6451 30.24 64.7851 30.84 64.7851C31.84 64.7851 32.76 64.5051 33.6 63.9451V66.9451C33.12 67.3051 32.54 67.5851 31.86 67.7851C31.22 67.9851 30.56 68.0851 29.88 68.0851C28.84 68.0851 27.96 67.9251 27.24 67.6051C26.56 67.3251 26.04 66.8051 25.68 66.0451C25.36 65.2451 25.16 64.0851 25.08 62.5651C24.36 64.0051 23.4 65.1251 22.2 65.9251C21 66.7251 19.72 67.2851 18.36 67.6051C17 67.9251 15.66 68.0851 14.34 68.0851ZM15.36 64.8451C17.56 64.8451 19.34 64.3651 20.7 63.4051C22.1 62.4451 23.14 61.1651 23.82 59.5651C24.5 57.9651 24.84 56.1851 24.84 54.2251V52.6651C20.72 52.6651 17.48 52.8651 15.12 53.2651C12.76 53.6651 11.08 54.3451 10.08 55.3051C9.12 56.2651 8.64 57.6251 8.64 59.3851C8.64 61.1851 9.18 62.5451 10.26 63.4651C11.34 64.3851 13.04 64.8451 15.36 64.8451Z" fill="white"/>
<path d="M42.24 78.3451V36.8251H45.42L46.02 41.7451C46.94 39.8651 48.24 38.4851 49.92 37.6051C51.64 36.6851 53.6 36.2251 55.8 36.2251C58.08 36.2251 60.12 36.7651 61.92 37.8451C63.76 38.9251 65.22 40.6251 66.3 42.9451C67.42 45.2251 67.98 48.1851 67.98 51.8251V52.6651C67.98 55.9451 67.42 58.7451 66.3 61.0651C65.18 63.3451 63.7 65.0851 61.86 66.2851C60.02 67.4851 57.98 68.0851 55.74 68.0851C53.62 68.0851 51.74 67.6651 50.1 66.8251C48.5 65.9851 47.22 64.8851 46.26 63.5251V78.3451H42.24ZM55.14 64.7851C57.74 64.7851 59.84 63.8451 61.44 61.9651C63.08 60.0851 63.9 57.1251 63.9 53.0851V51.3451C63.9 48.4251 63.5 46.1051 62.7 44.3851C61.9 42.6651 60.84 41.4251 59.52 40.6651C58.2 39.8651 56.74 39.4651 55.14 39.4651C53.62 39.4651 52.18 39.8251 50.82 40.5451C49.46 41.2651 48.34 42.4851 47.46 44.2051C46.62 45.9251 46.2 48.3051 46.2 51.3451V53.0851C46.2 57.0851 47.04 60.0451 48.72 61.9651C50.4 63.8451 52.54 64.7851 55.14 64.7851Z" fill="white"/>
<path d="M78.24 78.3451V36.8251H81.42L82.02 41.7451C82.94 39.8651 84.24 38.4851 85.92 37.6051C87.64 36.6851 89.6 36.2251 91.8 36.2251C94.08 36.2251 96.12 36.7651 97.92 37.8451C99.76 38.9251 101.22 40.6251 102.3 42.9451C103.42 45.2251 103.98 48.1851 103.98 51.8251V52.6651C103.98 55.9451 103.42 58.7451 102.3 61.0651C101.18 63.3451 99.7 65.0851 97.86 66.2851C96.02 67.4851 93.98 68.0851 91.74 68.0851C89.62 68.0851 87.74 67.6651 86.1 66.8251C84.5 65.9851 83.22 64.8851 82.26 63.5251V78.3451H78.24ZM91.14 64.7851C93.74 64.7851 95.84 63.8451 97.44 61.9651C99.08 60.0851 99.9 57.1251 99.9 53.0851V51.3451C99.9 48.4251 99.5 46.1051 98.7 44.3851C97.9 42.6651 96.84 41.4251 95.52 40.6651C94.2 39.8651 92.74 39.4651 91.14 39.4651C89.62 39.4651 88.18 39.8251 86.82 40.5451C85.46 41.2651 84.34 42.4851 83.46 44.2051C82.62 45.9251 82.2 48.3051 82.2 51.3451V53.0851C82.2 57.0851 83.04 60.0451 84.72 61.9651C86.4 63.8451 88.54 64.7851 91.14 64.7851Z" fill="white"/>
<path d="M124.32 67.4851V27.6451H112.86V24.2251H128.34V67.4851H124.32ZM112.86 67.4851V64.1251H139.44V67.4851H112.86Z" fill="white"/>
<path d="M161.52 67.4851V40.2451H150.06V36.8251H165.54V67.4851H161.52ZM150.06 67.4851V64.1251H176.64V67.4851H150.06ZM160.92 30.3451V25.5451H165.42V30.3451H160.92Z" fill="white"/>
<path d="M197.88 68.0851C194.88 68.0851 192.38 67.4251 190.38 66.1051C188.42 64.7851 186.94 62.9651 185.94 60.6451C184.98 58.2851 184.5 55.6251 184.5 52.6651V51.6451C184.5 48.5651 185.04 45.8851 186.12 43.6051C187.24 41.2851 188.8 39.4851 190.8 38.2051C192.84 36.8851 195.26 36.2251 198.06 36.2251C200.66 36.2251 202.9 36.8051 204.78 37.9651C206.7 39.0851 208.18 40.5851 209.22 42.4651C210.26 44.3451 210.78 46.4451 210.78 48.7651V52.7251H188.64V53.3851C188.64 57.1051 189.52 59.9451 191.28 61.9051C193.04 63.8651 195.26 64.8451 197.94 64.8451C200.82 64.8451 203.02 64.1451 204.54 62.7451C206.1 61.3451 206.88 59.1451 206.88 56.1451H210.78C210.78 58.5851 210.24 60.7051 209.16 62.5051C208.08 64.2651 206.56 65.6451 204.6 66.6451C202.68 67.6051 200.44 68.0851 197.88 68.0851ZM188.7 49.5451H206.82V48.5251C206.82 46.8451 206.46 45.3251 205.74 43.9651C205.02 42.5651 204 41.4651 202.68 40.6651C201.36 39.8651 199.8 39.4651 198 39.4651C195.96 39.4651 194.24 39.9851 192.84 41.0251C191.48 42.0251 190.44 43.2851 189.72 44.8051C189.04 46.3251 188.7 47.8451 188.7 49.3651V49.5451Z" fill="white"/>
<path d="M232.26 68.0851C230.06 68.0851 228.02 67.5651 226.14 66.5251C224.3 65.4451 222.82 63.7651 221.7 61.4851C220.62 59.2051 220.08 56.2251 220.08 52.5451V51.8851C220.08 48.5251 220.6 45.6851 221.64 43.3651C222.72 41.0451 224.18 39.2851 226.02 38.0851C227.86 36.8451 229.94 36.2251 232.26 36.2251C234.42 36.2251 236.32 36.6451 237.96 37.4851C239.6 38.3251 240.86 39.5251 241.74 41.0851V24.2851H245.76V67.4851H242.58L241.98 62.5651C241.1 64.4051 239.8 65.7851 238.08 66.7051C236.4 67.6251 234.46 68.0851 232.26 68.0851ZM232.92 64.7851C235.52 64.7851 237.64 63.8251 239.28 61.9051C240.96 59.9851 241.8 56.9851 241.8 52.9051V51.3451C241.8 47.2651 240.96 44.2651 239.28 42.3451C237.64 40.4251 235.52 39.4651 232.92 39.4651C230.32 39.4651 228.2 40.4451 226.56 42.4051C224.92 44.3251 224.1 47.3051 224.1 51.3451V52.8451C224.1 56.9651 224.92 59.9851 226.56 61.9051C228.2 63.8251 230.32 64.7851 232.92 64.7851Z" fill="white"/>
<path d="M16.14 128.085C12.82 128.085 10.14 127.145 8.1 125.265C6.1 123.345 5.1 120.485 5.1 116.685V96.8251H9.18V115.725C9.18 118.725 9.86 120.965 11.22 122.445C12.62 123.925 14.58 124.665 17.1 124.665C18.78 124.665 20.26 124.245 21.54 123.405C22.82 122.525 23.82 121.365 24.54 119.925C25.3 118.485 25.68 116.905 25.68 115.185V96.8251H29.76V122.865C29.76 123.505 29.92 123.985 30.24 124.305C30.56 124.625 31.02 124.785 31.62 124.785C32.06 124.785 32.52 124.745 33 124.665C33.48 124.545 33.98 124.305 34.5 123.945V126.945C33.98 127.345 33.38 127.625 32.7 127.785C32.06 127.985 31.38 128.085 30.66 128.085C29.38 128.085 28.4 127.865 27.72 127.425C27.08 126.985 26.64 126.345 26.4 125.505C26.16 124.665 26.02 123.685 25.98 122.565C25.38 123.845 24.58 124.885 23.58 125.685C22.58 126.485 21.44 127.085 20.16 127.485C18.88 127.885 17.54 128.085 16.14 128.085Z" fill="white"/>
<path d="M40.32 127.485L51.6 111.705L40.86 96.8251H45.84L54.12 108.705H54.18L62.64 96.8251H67.14L56.46 111.765L67.68 127.485H62.82L53.94 114.765H53.82L44.88 127.485H40.32Z" fill="white"/>
<path d="M75 134.925V131.205H105V134.925H75Z" fill="white"/>
<path d="M122.34 128.085C119.18 128.085 116.76 127.345 115.08 125.865C113.44 124.345 112.62 122.205 112.62 119.445C112.62 117.085 113.26 115.185 114.54 113.745C115.82 112.265 117.94 111.205 120.9 110.565C123.9 109.925 127.88 109.605 132.84 109.605V105.885C132.84 103.565 132.28 101.925 131.16 100.965C130.04 99.9651 128.12 99.4651 125.4 99.4651C122.88 99.4651 120.94 99.9851 119.58 101.025C118.26 102.025 117.6 103.445 117.6 105.285V106.185H113.82C113.74 105.345 113.68 104.805 113.64 104.565C113.64 104.285 113.64 104.185 113.64 104.265C113.64 104.305 113.64 104.405 113.64 104.565C113.68 104.725 113.7 104.765 113.7 104.685C113.7 102.125 114.76 100.085 116.88 98.5651C119.04 97.0051 121.9 96.2251 125.46 96.2251C129.3 96.2251 132.16 96.9851 134.04 98.5051C135.92 99.9851 136.86 102.285 136.86 105.405V122.865C136.86 123.585 137.04 124.085 137.4 124.365C137.76 124.645 138.24 124.785 138.84 124.785C139.84 124.785 140.76 124.505 141.6 123.945V126.945C141.12 127.305 140.54 127.585 139.86 127.785C139.22 127.985 138.56 128.085 137.88 128.085C136.84 128.085 135.96 127.925 135.24 127.605C134.56 127.325 134.04 126.805 133.68 126.045C133.36 125.245 133.16 124.085 133.08 122.565C132.36 124.005 131.4 125.125 130.2 125.925C129 126.725 127.72 127.285 126.36 127.605C125 127.925 123.66 128.085 122.34 128.085ZM123.36 124.845C125.56 124.845 127.34 124.365 128.7 123.405C130.1 122.445 131.14 121.165 131.82 119.565C132.5 117.965 132.84 116.185 132.84 114.225V112.665C128.72 112.665 125.48 112.865 123.12 113.265C120.76 113.665 119.08 114.345 118.08 115.305C117.12 116.265 116.64 117.625 116.64 119.385C116.64 121.185 117.18 122.545 118.26 123.465C119.34 124.385 121.04 124.845 123.36 124.845Z" fill="white"/>
<path d="M149.82 127.485V96.8251H153L153.6 101.745C154.52 99.8251 155.86 98.4251 157.62 97.5451C159.38 96.6651 161.28 96.2251 163.32 96.2251C166.68 96.2251 169.38 97.2051 171.42 99.1651C173.5 101.085 174.54 104.005 174.54 107.925V127.485H170.52V109.485C170.52 106.005 169.82 103.485 168.42 101.925C167.02 100.365 165.06 99.5851 162.54 99.5851C160.78 99.5851 159.24 100.045 157.92 100.965C156.6 101.845 155.58 103.065 154.86 104.625C154.18 106.185 153.84 107.985 153.84 110.025V127.485H149.82Z" fill="white"/>
<path d="M194.34 128.085C191.18 128.085 188.76 127.345 187.08 125.865C185.44 124.345 184.62 122.205 184.62 119.445C184.62 117.085 185.26 115.185 186.54 113.745C187.82 112.265 189.94 111.205 192.9 110.565C195.9 109.925 199.88 109.605 204.84 109.605V105.885C204.84 103.565 204.28 101.925 203.16 100.965C202.04 99.9651 200.12 99.4651 197.4 99.4651C194.88 99.4651 192.94 99.9851 191.58 101.025C190.26 102.025 189.6 103.445 189.6 105.285V106.185H185.82C185.74 105.345 185.68 104.805 185.64 104.565C185.64 104.285 185.64 104.185 185.64 104.265C185.64 104.305 185.64 104.405 185.64 104.565C185.68 104.725 185.7 104.765 185.7 104.685C185.7 102.125 186.76 100.085 188.88 98.5651C191.04 97.0051 193.9 96.2251 197.46 96.2251C201.3 96.2251 204.16 96.9851 206.04 98.5051C207.92 99.9851 208.86 102.285 208.86 105.405V122.865C208.86 123.585 209.04 124.085 209.4 124.365C209.76 124.645 210.24 124.785 210.84 124.785C211.84 124.785 212.76 124.505 213.6 123.945V126.945C213.12 127.305 212.54 127.585 211.86 127.785C211.22 127.985 210.56 128.085 209.88 128.085C208.84 128.085 207.96 127.925 207.24 127.605C206.56 127.325 206.04 126.805 205.68 126.045C205.36 125.245 205.16 124.085 205.08 122.565C204.36 124.005 203.4 125.125 202.2 125.925C201 126.725 199.72 127.285 198.36 127.605C197 127.925 195.66 128.085 194.34 128.085ZM195.36 124.845C197.56 124.845 199.34 124.365 200.7 123.405C202.1 122.445 203.14 121.165 203.82 119.565C204.5 117.965 204.84 116.185 204.84 114.225V112.665C200.72 112.665 197.48 112.865 195.12 113.265C192.76 113.665 191.08 114.345 190.08 115.305C189.12 116.265 188.64 117.625 188.64 119.385C188.64 121.185 189.18 122.545 190.26 123.465C191.34 124.385 193.04 124.845 195.36 124.845Z" fill="white"/>
<path d="M232.32 127.485V87.6451H220.86V84.2251H236.34V127.485H232.32ZM220.86 127.485V124.125H247.44V127.485H220.86Z" fill="white"/>
<path d="M262.02 138.645C261.34 138.645 260.66 138.565 259.98 138.405C259.34 138.285 258.68 138.085 258 137.805V134.505C258.44 134.665 258.98 134.845 259.62 135.045C260.26 135.245 260.86 135.345 261.42 135.345C262.46 135.345 263.3 135.085 263.94 134.565C264.58 134.085 265.2 133.245 265.8 132.045C266.4 130.845 267.14 129.145 268.02 126.945L255.9 96.8251H260.28L270.06 121.785H270.36L280.14 96.8251H284.1L272.16 126.525C271.32 128.725 270.48 130.745 269.64 132.585C268.8 134.425 267.8 135.885 266.64 136.965C265.48 138.085 263.94 138.645 262.02 138.645Z" fill="white"/>
<path d="M311.58 128.085C308.26 128.085 305.58 127.345 303.54 125.865C301.54 124.345 300.54 121.945 300.54 118.665V100.245H291.12V96.8251H300.6L302.04 87.0451H304.56V96.8251H319.08V100.245H304.56V118.425C304.56 119.985 304.88 121.225 305.52 122.145C306.16 123.065 307.06 123.725 308.22 124.125C309.38 124.485 310.76 124.665 312.36 124.665C313.72 124.665 314.96 124.485 316.08 124.125C317.2 123.765 318.2 123.385 319.08 122.985V126.345C318.16 126.865 317.02 127.285 315.66 127.605C314.3 127.925 312.94 128.085 311.58 128.085Z" fill="white"/>
<path d="M341.52 127.485V100.245H330.06V96.8251H345.54V127.485H341.52ZM330.06 127.485V124.125H356.64V127.485H330.06ZM340.92 90.3451V85.5451H345.42V90.3451H340.92Z" fill="white"/>
<path d="M377.64 128.085C375.8 128.085 374.08 127.745 372.48 127.065C370.88 126.345 369.5 125.325 368.34 124.005C367.18 122.645 366.28 121.025 365.64 119.145C365 117.225 364.68 115.065 364.68 112.665V111.585C364.68 109.185 365 107.045 365.64 105.165C366.28 103.245 367.16 101.625 368.28 100.305C369.44 98.9451 370.82 97.9251 372.42 97.2451C374.02 96.5651 375.76 96.2251 377.64 96.2251H378C380.32 96.2251 382.38 96.7251 384.18 97.7251C386.02 98.6851 387.46 100.085 388.5 101.925C389.58 103.765 390.12 106.025 390.12 108.705H386.34C386.34 106.585 385.96 104.845 385.2 103.485C384.44 102.125 383.42 101.125 382.14 100.485C380.86 99.8051 379.44 99.4651 377.88 99.4651C375.32 99.4651 373.16 100.425 371.4 102.345C369.68 104.225 368.82 107.085 368.82 110.925V113.385C368.82 117.185 369.68 120.045 371.4 121.965C373.16 123.885 375.34 124.845 377.94 124.845C379.54 124.845 380.96 124.525 382.2 123.885C383.48 123.205 384.48 122.185 385.2 120.825C385.96 119.465 386.34 117.725 386.34 115.605H390.12C390.12 118.245 389.58 120.505 388.5 122.385C387.46 124.265 386.02 125.685 384.18 126.645C382.38 127.605 380.32 128.085 378 128.085H377.64Z" fill="white"/>
<path d="M9.895 163.635C9.065 163.635 8.395 163.45 7.885 163.08C7.385 162.7 7.135 162.1 7.135 161.28V156.675H4.78V155.82H7.15L7.51 153.375H8.14V155.82H11.77V156.675H8.14V161.22C8.14 161.61 8.22 161.92 8.38 162.15C8.54 162.38 8.765 162.545 9.055 162.645C9.345 162.735 9.69 162.78 10.09 162.78C10.43 162.78 10.74 162.735 11.02 162.645C11.3 162.555 11.55 162.46 11.77 162.36V163.2C11.54 163.33 11.255 163.435 10.915 163.515C10.575 163.595 10.235 163.635 9.895 163.635Z" fill="white"/>
<path d="M14.455 163.485V152.685H15.46V156.885C15.72 156.475 16.07 156.17 16.51 155.97C16.96 155.77 17.41 155.67 17.86 155.67C18.38 155.67 18.85 155.775 19.27 155.985C19.69 156.185 20.02 156.49 20.26 156.9C20.51 157.31 20.635 157.84 20.635 158.49V163.485H19.63V158.76C19.63 157.99 19.45 157.425 19.09 157.065C18.74 156.695 18.255 156.51 17.635 156.51C17.225 156.51 16.855 156.61 16.525 156.81C16.195 157 15.935 157.265 15.745 157.605C15.555 157.945 15.46 158.33 15.46 158.76V163.485H14.455Z" fill="white"/>
<path d="M26.47 163.635C25.72 163.635 25.095 163.47 24.595 163.14C24.105 162.81 23.735 162.355 23.485 161.775C23.245 161.185 23.125 160.52 23.125 159.78V159.525C23.125 158.755 23.26 158.085 23.53 157.515C23.81 156.935 24.2 156.485 24.7 156.165C25.21 155.835 25.815 155.67 26.515 155.67C27.165 155.67 27.725 155.815 28.195 156.105C28.675 156.385 29.045 156.76 29.305 157.23C29.565 157.7 29.695 158.225 29.695 158.805V159.795H24.16V159.96C24.16 160.89 24.38 161.6 24.82 162.09C25.26 162.58 25.815 162.825 26.485 162.825C27.205 162.825 27.755 162.65 28.135 162.3C28.525 161.95 28.72 161.4 28.72 160.65H29.695C29.695 161.26 29.56 161.79 29.29 162.24C29.02 162.68 28.64 163.025 28.15 163.275C27.67 163.515 27.11 163.635 26.47 163.635ZM24.175 159H28.705V158.745C28.705 158.325 28.615 157.945 28.435 157.605C28.255 157.255 28 156.98 27.67 156.78C27.34 156.58 26.95 156.48 26.5 156.48C25.99 156.48 25.56 156.61 25.21 156.87C24.87 157.12 24.61 157.435 24.43 157.815C24.26 158.195 24.175 158.575 24.175 158.955V159Z" fill="white"/>
<path d="M31.75 165.345V164.415H39.25V165.345H31.75Z" fill="white"/>
<path d="M44.5 163.635C43.79 163.635 43.185 163.47 42.685 163.14C42.195 162.8 41.815 162.34 41.545 161.76C41.285 161.17 41.155 160.505 41.155 159.765V159.54C41.155 158.78 41.285 158.11 41.545 157.53C41.815 156.95 42.2 156.495 42.7 156.165C43.2 155.835 43.8 155.67 44.5 155.67C45.21 155.67 45.815 155.84 46.315 156.18C46.815 156.51 47.195 156.965 47.455 157.545C47.715 158.125 47.845 158.79 47.845 159.54V159.765C47.845 160.525 47.71 161.195 47.44 161.775C47.18 162.355 46.8 162.81 46.3 163.14C45.81 163.47 45.21 163.635 44.5 163.635ZM44.5 162.825C45.18 162.825 45.735 162.58 46.165 162.09C46.595 161.59 46.81 160.88 46.81 159.96V159.345C46.81 158.425 46.595 157.72 46.165 157.23C45.735 156.73 45.18 156.48 44.5 156.48C43.82 156.48 43.265 156.73 42.835 157.23C42.405 157.72 42.19 158.425 42.19 159.345V159.96C42.19 160.88 42.405 161.59 42.835 162.09C43.265 162.58 43.82 162.825 44.5 162.825Z" fill="white"/>
<path d="M51.805 163.485V156.675H49.675V155.82H52.615L52.69 157.035C52.87 156.585 53.155 156.245 53.545 156.015C53.935 155.785 54.37 155.67 54.85 155.67C55.62 155.67 56.215 155.905 56.635 156.375C57.055 156.845 57.265 157.435 57.265 158.145C57.265 158.225 57.265 158.295 57.265 158.355C57.265 158.415 57.255 158.5 57.235 158.61H56.335V158.34C56.335 158.02 56.275 157.725 56.155 157.455C56.035 157.185 55.845 156.965 55.585 156.795C55.335 156.615 55.005 156.525 54.595 156.525C54.195 156.525 53.86 156.64 53.59 156.87C53.32 157.1 53.12 157.395 52.99 157.755C52.87 158.115 52.81 158.485 52.81 158.865V163.485H51.805ZM49.57 163.485V162.645H56.545V163.485H49.57Z" fill="white"/>
<path d="M61.585 163.635C60.795 163.635 60.19 163.45 59.77 163.08C59.36 162.7 59.155 162.165 59.155 161.475C59.155 160.885 59.315 160.41 59.635 160.05C59.955 159.68 60.485 159.415 61.225 159.255C61.975 159.095 62.97 159.015 64.21 159.015V158.085C64.21 157.505 64.07 157.095 63.79 156.855C63.51 156.605 63.03 156.48 62.35 156.48C61.72 156.48 61.235 156.61 60.895 156.87C60.565 157.12 60.4 157.475 60.4 157.935V158.16H59.455C59.435 157.95 59.42 157.815 59.41 157.755C59.41 157.685 59.41 157.66 59.41 157.68C59.41 157.69 59.41 157.715 59.41 157.755C59.42 157.795 59.425 157.805 59.425 157.785C59.425 157.145 59.69 156.635 60.22 156.255C60.76 155.865 61.475 155.67 62.365 155.67C63.325 155.67 64.04 155.86 64.51 156.24C64.98 156.61 65.215 157.185 65.215 157.965V162.33C65.215 162.51 65.26 162.635 65.35 162.705C65.44 162.775 65.56 162.81 65.71 162.81C65.96 162.81 66.19 162.74 66.4 162.6V163.35C66.28 163.44 66.135 163.51 65.965 163.56C65.805 163.61 65.64 163.635 65.47 163.635C65.21 163.635 64.99 163.595 64.81 163.515C64.64 163.445 64.51 163.315 64.42 163.125C64.34 162.925 64.29 162.635 64.27 162.255C64.09 162.615 63.85 162.895 63.55 163.095C63.25 163.295 62.93 163.435 62.59 163.515C62.25 163.595 61.915 163.635 61.585 163.635ZM61.84 162.825C62.39 162.825 62.835 162.705 63.175 162.465C63.525 162.225 63.785 161.905 63.955 161.505C64.125 161.105 64.21 160.66 64.21 160.17V159.78C63.18 159.78 62.37 159.83 61.78 159.93C61.19 160.03 60.77 160.2 60.52 160.44C60.28 160.68 60.16 161.02 60.16 161.46C60.16 161.91 60.295 162.25 60.565 162.48C60.835 162.71 61.26 162.825 61.84 162.825Z" fill="white"/>
<path d="M71.41 163.635C70.95 163.635 70.52 163.55 70.12 163.38C69.72 163.2 69.375 162.945 69.085 162.615C68.795 162.275 68.57 161.87 68.41 161.4C68.25 160.92 68.17 160.38 68.17 159.78V159.51C68.17 158.91 68.25 158.375 68.41 157.905C68.57 157.425 68.79 157.02 69.07 156.69C69.36 156.35 69.705 156.095 70.105 155.925C70.505 155.755 70.94 155.67 71.41 155.67H71.5C72.08 155.67 72.595 155.795 73.045 156.045C73.505 156.285 73.865 156.635 74.125 157.095C74.395 157.555 74.53 158.12 74.53 158.79H73.585C73.585 158.26 73.49 157.825 73.3 157.485C73.11 157.145 72.855 156.895 72.535 156.735C72.215 156.565 71.86 156.48 71.47 156.48C70.83 156.48 70.29 156.72 69.85 157.2C69.42 157.67 69.205 158.385 69.205 159.345V159.96C69.205 160.91 69.42 161.625 69.85 162.105C70.29 162.585 70.835 162.825 71.485 162.825C71.885 162.825 72.24 162.745 72.55 162.585C72.87 162.415 73.12 162.16 73.3 161.82C73.49 161.48 73.585 161.045 73.585 160.515H74.53C74.53 161.175 74.395 161.74 74.125 162.21C73.865 162.68 73.505 163.035 73.045 163.275C72.595 163.515 72.08 163.635 71.5 163.635H71.41Z" fill="white"/>
<path d="M80.08 163.485V153.525H77.215V152.67H81.085V163.485H80.08ZM77.215 163.485V162.645H83.86V163.485H77.215Z" fill="white"/>
<path d="M89.47 163.635C88.72 163.635 88.095 163.47 87.595 163.14C87.105 162.81 86.735 162.355 86.485 161.775C86.245 161.185 86.125 160.52 86.125 159.78V159.525C86.125 158.755 86.26 158.085 86.53 157.515C86.81 156.935 87.2 156.485 87.7 156.165C88.21 155.835 88.815 155.67 89.515 155.67C90.165 155.67 90.725 155.815 91.195 156.105C91.675 156.385 92.045 156.76 92.305 157.23C92.565 157.7 92.695 158.225 92.695 158.805V159.795H87.16V159.96C87.16 160.89 87.38 161.6 87.82 162.09C88.26 162.58 88.815 162.825 89.485 162.825C90.205 162.825 90.755 162.65 91.135 162.3C91.525 161.95 91.72 161.4 91.72 160.65H92.695C92.695 161.26 92.56 161.79 92.29 162.24C92.02 162.68 91.64 163.025 91.15 163.275C90.67 163.515 90.11 163.635 89.47 163.635ZM87.175 159H91.705V158.745C91.705 158.325 91.615 157.945 91.435 157.605C91.255 157.255 91 156.98 90.67 156.78C90.34 156.58 89.95 156.48 89.5 156.48C88.99 156.48 88.56 156.61 88.21 156.87C87.87 157.12 87.61 157.435 87.43 157.815C87.26 158.195 87.175 158.575 87.175 158.955V159Z" fill="white"/>
<path d="M94.75 165.345V164.415H102.25V165.345H94.75Z" fill="white"/>
<path d="M107.5 163.635C106.79 163.635 106.185 163.47 105.685 163.14C105.195 162.8 104.815 162.34 104.545 161.76C104.285 161.17 104.155 160.505 104.155 159.765V159.54C104.155 158.78 104.285 158.11 104.545 157.53C104.815 156.95 105.2 156.495 105.7 156.165C106.2 155.835 106.8 155.67 107.5 155.67C108.21 155.67 108.815 155.84 109.315 156.18C109.815 156.51 110.195 156.965 110.455 157.545C110.715 158.125 110.845 158.79 110.845 159.54V159.765C110.845 160.525 110.71 161.195 110.44 161.775C110.18 162.355 109.8 162.81 109.3 163.14C108.81 163.47 108.21 163.635 107.5 163.635ZM107.5 162.825C108.18 162.825 108.735 162.58 109.165 162.09C109.595 161.59 109.81 160.88 109.81 159.96V159.345C109.81 158.425 109.595 157.72 109.165 157.23C108.735 156.73 108.18 156.48 107.5 156.48C106.82 156.48 106.265 156.73 105.835 157.23C105.405 157.72 105.19 158.425 105.19 159.345V159.96C105.19 160.88 105.405 161.59 105.835 162.09C106.265 162.58 106.82 162.825 107.5 162.825Z" fill="white"/>
<path d="M115.615 163.485V156.675H113.29V155.82H115.615V154.98C115.615 154.42 115.74 153.96 115.99 153.6C116.25 153.24 116.59 152.98 117.01 152.82C117.43 152.65 117.885 152.565 118.375 152.565C118.685 152.565 119 152.6 119.32 152.67C119.65 152.73 119.925 152.82 120.145 152.94V153.765C119.925 153.665 119.685 153.58 119.425 153.51C119.165 153.43 118.875 153.39 118.555 153.39C118.225 153.39 117.91 153.44 117.61 153.54C117.32 153.63 117.085 153.795 116.905 154.035C116.725 154.275 116.635 154.615 116.635 155.055V155.82H119.89V156.675H116.635V163.485H115.615ZM113.275 163.485V162.645H120.01V163.485H113.275Z" fill="white"/>
<path d="M121.75 165.345V164.415H129.25V165.345H121.75Z" fill="white"/>
<path d="M184.75 165.345V164.415H192.25V165.345H184.75Z" fill="white"/>
<path d="M197.035 163.635C196.205 163.635 195.535 163.4 195.025 162.93C194.525 162.45 194.275 161.735 194.275 160.785V155.82H195.295V160.545C195.295 161.295 195.465 161.855 195.805 162.225C196.155 162.595 196.645 162.78 197.275 162.78C197.695 162.78 198.065 162.675 198.385 162.465C198.705 162.245 198.955 161.955 199.135 161.595C199.325 161.235 199.42 160.84 199.42 160.41V155.82H200.44V162.33C200.44 162.49 200.48 162.61 200.56 162.69C200.64 162.77 200.755 162.81 200.905 162.81C201.015 162.81 201.13 162.8 201.25 162.78C201.37 162.75 201.495 162.69 201.625 162.6V163.35C201.495 163.45 201.345 163.52 201.175 163.56C201.015 163.61 200.845 163.635 200.665 163.635C200.345 163.635 200.1 163.58 199.93 163.47C199.77 163.36 199.66 163.2 199.6 162.99C199.54 162.78 199.505 162.535 199.495 162.255C199.345 162.575 199.145 162.835 198.895 163.035C198.645 163.235 198.36 163.385 198.04 163.485C197.72 163.585 197.385 163.635 197.035 163.635Z" fill="white"/>
<path d="M206.44 163.635C205.83 163.635 205.29 163.545 204.82 163.365C204.36 163.185 203.995 162.935 203.725 162.615C203.465 162.285 203.335 161.905 203.335 161.475C203.335 161.455 203.335 161.41 203.335 161.34C203.335 161.27 203.34 161.195 203.35 161.115H204.265V161.31C204.265 161.78 204.47 162.15 204.88 162.42C205.3 162.69 205.885 162.825 206.635 162.825C207.285 162.825 207.79 162.7 208.15 162.45C208.52 162.19 208.705 161.85 208.705 161.43C208.705 161.16 208.635 160.94 208.495 160.77C208.355 160.59 208.11 160.435 207.76 160.305C207.42 160.175 206.945 160.06 206.335 159.96C205.645 159.82 205.095 159.665 204.685 159.495C204.275 159.315 203.98 159.09 203.8 158.82C203.62 158.55 203.53 158.215 203.53 157.815C203.53 157.355 203.655 156.965 203.905 156.645C204.155 156.325 204.505 156.085 204.955 155.925C205.415 155.755 205.96 155.67 206.59 155.67C207.15 155.67 207.645 155.76 208.075 155.94C208.505 156.11 208.845 156.35 209.095 156.66C209.345 156.96 209.47 157.32 209.47 157.74C209.47 157.76 209.47 157.79 209.47 157.83C209.47 157.86 209.465 157.905 209.455 157.965H208.525C208.525 157.545 208.425 157.23 208.225 157.02C208.035 156.8 207.78 156.655 207.46 156.585C207.15 156.515 206.82 156.48 206.47 156.48C205.16 156.48 204.505 156.905 204.505 157.755C204.505 157.985 204.565 158.175 204.685 158.325C204.815 158.465 205.045 158.59 205.375 158.7C205.705 158.81 206.17 158.93 206.77 159.06C207.5 159.21 208.075 159.38 208.495 159.57C208.925 159.76 209.23 160 209.41 160.29C209.59 160.57 209.68 160.935 209.68 161.385C209.68 161.875 209.555 162.285 209.305 162.615C209.055 162.945 208.69 163.2 208.21 163.38C207.73 163.55 207.14 163.635 206.44 163.635Z" fill="white"/>
<path d="M215.47 163.635C214.72 163.635 214.095 163.47 213.595 163.14C213.105 162.81 212.735 162.355 212.485 161.775C212.245 161.185 212.125 160.52 212.125 159.78V159.525C212.125 158.755 212.26 158.085 212.53 157.515C212.81 156.935 213.2 156.485 213.7 156.165C214.21 155.835 214.815 155.67 215.515 155.67C216.165 155.67 216.725 155.815 217.195 156.105C217.675 156.385 218.045 156.76 218.305 157.23C218.565 157.7 218.695 158.225 218.695 158.805V159.795H213.16V159.96C213.16 160.89 213.38 161.6 213.82 162.09C214.26 162.58 214.815 162.825 215.485 162.825C216.205 162.825 216.755 162.65 217.135 162.3C217.525 161.95 217.72 161.4 217.72 160.65H218.695C218.695 161.26 218.56 161.79 218.29 162.24C218.02 162.68 217.64 163.025 217.15 163.275C216.67 163.515 216.11 163.635 215.47 163.635ZM213.175 159H217.705V158.745C217.705 158.325 217.615 157.945 217.435 157.605C217.255 157.255 217 156.98 216.67 156.78C216.34 156.58 215.95 156.48 215.5 156.48C214.99 156.48 214.56 156.61 214.21 156.87C213.87 157.12 213.61 157.435 213.43 157.815C213.26 158.195 213.175 158.575 213.175 158.955V159Z" fill="white"/>
<path d="M222.805 163.485V156.675H220.675V155.82H223.615L223.69 157.035C223.87 156.585 224.155 156.245 224.545 156.015C224.935 155.785 225.37 155.67 225.85 155.67C226.62 155.67 227.215 155.905 227.635 156.375C228.055 156.845 228.265 157.435 228.265 158.145C228.265 158.225 228.265 158.295 228.265 158.355C228.265 158.415 228.255 158.5 228.235 158.61H227.335V158.34C227.335 158.02 227.275 157.725 227.155 157.455C227.035 157.185 226.845 156.965 226.585 156.795C226.335 156.615 226.005 156.525 225.595 156.525C225.195 156.525 224.86 156.64 224.59 156.87C224.32 157.1 224.12 157.395 223.99 157.755C223.87 158.115 223.81 158.485 223.81 158.865V163.485H222.805ZM220.57 163.485V162.645H227.545V163.485H220.57Z" fill="white"/>
<path d="M229.75 165.345V164.415H237.25V165.345H229.75Z" fill="white"/>
<path d="M242.935 163.635C242.385 163.635 241.895 163.525 241.465 163.305C241.045 163.075 240.71 162.725 240.46 162.255L240.355 163.485H239.56V152.685H240.565V156.945C240.795 156.515 241.115 156.195 241.525 155.985C241.945 155.775 242.42 155.67 242.95 155.67C243.6 155.67 244.15 155.83 244.6 156.15C245.06 156.47 245.405 156.91 245.635 157.47C245.875 158.03 245.995 158.675 245.995 159.405V159.63C245.995 160.47 245.865 161.19 245.605 161.79C245.345 162.39 244.985 162.85 244.525 163.17C244.065 163.48 243.535 163.635 242.935 163.635ZM242.785 162.81C243.435 162.81 243.96 162.575 244.36 162.105C244.77 161.625 244.975 160.84 244.975 159.75V159.345C244.975 158.395 244.77 157.68 244.36 157.2C243.96 156.72 243.435 156.48 242.785 156.48C242.135 156.48 241.6 156.72 241.18 157.2C240.76 157.68 240.55 158.395 240.55 159.345V159.75C240.55 160.84 240.76 161.625 241.18 162.105C241.6 162.575 242.135 162.81 242.785 162.81Z" fill="white"/>
<path d="M251.47 163.635C250.72 163.635 250.095 163.47 249.595 163.14C249.105 162.81 248.735 162.355 248.485 161.775C248.245 161.185 248.125 160.52 248.125 159.78V159.525C248.125 158.755 248.26 158.085 248.53 157.515C248.81 156.935 249.2 156.485 249.7 156.165C250.21 155.835 250.815 155.67 251.515 155.67C252.165 155.67 252.725 155.815 253.195 156.105C253.675 156.385 254.045 156.76 254.305 157.23C254.565 157.7 254.695 158.225 254.695 158.805V159.795H249.16V159.96C249.16 160.89 249.38 161.6 249.82 162.09C250.26 162.58 250.815 162.825 251.485 162.825C252.205 162.825 252.755 162.65 253.135 162.3C253.525 161.95 253.72 161.4 253.72 160.65H254.695C254.695 161.26 254.56 161.79 254.29 162.24C254.02 162.68 253.64 163.025 253.15 163.275C252.67 163.515 252.11 163.635 251.47 163.635ZM249.175 159H253.705V158.745C253.705 158.325 253.615 157.945 253.435 157.605C253.255 157.255 253 156.98 252.67 156.78C252.34 156.58 251.95 156.48 251.5 156.48C250.99 156.48 250.56 156.61 250.21 156.87C249.87 157.12 249.61 157.435 249.43 157.815C249.26 158.195 249.175 158.575 249.175 158.955V159Z" fill="white"/>
<path d="M257.455 163.485V152.685H258.46V156.885C258.72 156.475 259.07 156.17 259.51 155.97C259.96 155.77 260.41 155.67 260.86 155.67C261.38 155.67 261.85 155.775 262.27 155.985C262.69 156.185 263.02 156.49 263.26 156.9C263.51 157.31 263.635 157.84 263.635 158.49V163.485H262.63V158.76C262.63 157.99 262.45 157.425 262.09 157.065C261.74 156.695 261.255 156.51 260.635 156.51C260.225 156.51 259.855 156.61 259.525 156.81C259.195 157 258.935 157.265 258.745 157.605C258.555 157.945 258.46 158.33 258.46 158.76V163.485H257.455Z" fill="white"/>
<path d="M268.585 163.635C267.795 163.635 267.19 163.45 266.77 163.08C266.36 162.7 266.155 162.165 266.155 161.475C266.155 160.885 266.315 160.41 266.635 160.05C266.955 159.68 267.485 159.415 268.225 159.255C268.975 159.095 269.97 159.015 271.21 159.015V158.085C271.21 157.505 271.07 157.095 270.79 156.855C270.51 156.605 270.03 156.48 269.35 156.48C268.72 156.48 268.235 156.61 267.895 156.87C267.565 157.12 267.4 157.475 267.4 157.935V158.16H266.455C266.435 157.95 266.42 157.815 266.41 157.755C266.41 157.685 266.41 157.66 266.41 157.68C266.41 157.69 266.41 157.715 266.41 157.755C266.42 157.795 266.425 157.805 266.425 157.785C266.425 157.145 266.69 156.635 267.22 156.255C267.76 155.865 268.475 155.67 269.365 155.67C270.325 155.67 271.04 155.86 271.51 156.24C271.98 156.61 272.215 157.185 272.215 157.965V162.33C272.215 162.51 272.26 162.635 272.35 162.705C272.44 162.775 272.56 162.81 272.71 162.81C272.96 162.81 273.19 162.74 273.4 162.6V163.35C273.28 163.44 273.135 163.51 272.965 163.56C272.805 163.61 272.64 163.635 272.47 163.635C272.21 163.635 271.99 163.595 271.81 163.515C271.64 163.445 271.51 163.315 271.42 163.125C271.34 162.925 271.29 162.635 271.27 162.255C271.09 162.615 270.85 162.895 270.55 163.095C270.25 163.295 269.93 163.435 269.59 163.515C269.25 163.595 268.915 163.635 268.585 163.635ZM268.84 162.825C269.39 162.825 269.835 162.705 270.175 162.465C270.525 162.225 270.785 161.905 270.955 161.505C271.125 161.105 271.21 160.66 271.21 160.17V159.78C270.18 159.78 269.37 159.83 268.78 159.93C268.19 160.03 267.77 160.2 267.52 160.44C267.28 160.68 267.16 161.02 267.16 161.46C267.16 161.91 267.295 162.25 267.565 162.48C267.835 162.71 268.26 162.825 268.84 162.825Z" fill="white"/>
<path d="M278.005 163.485L274.84 155.82H275.935L278.53 162.195H278.56L281.17 155.82H282.16L278.98 163.485H278.005Z" fill="white"/>
<path d="M287.38 163.485V156.675H284.515V155.82H288.385V163.485H287.38ZM284.515 163.485V162.645H291.16V163.485H284.515ZM287.23 154.2V153H288.355V154.2H287.23Z" fill="white"/>
<path d="M296.5 163.635C295.79 163.635 295.185 163.47 294.685 163.14C294.195 162.8 293.815 162.34 293.545 161.76C293.285 161.17 293.155 160.505 293.155 159.765V159.54C293.155 158.78 293.285 158.11 293.545 157.53C293.815 156.95 294.2 156.495 294.7 156.165C295.2 155.835 295.8 155.67 296.5 155.67C297.21 155.67 297.815 155.84 298.315 156.18C298.815 156.51 299.195 156.965 299.455 157.545C299.715 158.125 299.845 158.79 299.845 159.54V159.765C299.845 160.525 299.71 161.195 299.44 161.775C299.18 162.355 298.8 162.81 298.3 163.14C297.81 163.47 297.21 163.635 296.5 163.635ZM296.5 162.825C297.18 162.825 297.735 162.58 298.165 162.09C298.595 161.59 298.81 160.88 298.81 159.96V159.345C298.81 158.425 298.595 157.72 298.165 157.23C297.735 156.73 297.18 156.48 296.5 156.48C295.82 156.48 295.265 156.73 294.835 157.23C294.405 157.72 294.19 158.425 294.19 159.345V159.96C294.19 160.88 294.405 161.59 294.835 162.09C295.265 162.58 295.82 162.825 296.5 162.825Z" fill="white"/>
<path d="M303.805 163.485V156.675H301.675V155.82H304.615L304.69 157.035C304.87 156.585 305.155 156.245 305.545 156.015C305.935 155.785 306.37 155.67 306.85 155.67C307.62 155.67 308.215 155.905 308.635 156.375C309.055 156.845 309.265 157.435 309.265 158.145C309.265 158.225 309.265 158.295 309.265 158.355C309.265 158.415 309.255 158.5 309.235 158.61H308.335V158.34C308.335 158.02 308.275 157.725 308.155 157.455C308.035 157.185 307.845 156.965 307.585 156.795C307.335 156.615 307.005 156.525 306.595 156.525C306.195 156.525 305.86 156.64 305.59 156.87C305.32 157.1 305.12 157.395 304.99 157.755C304.87 158.115 304.81 158.485 304.81 158.865V163.485H303.805ZM301.57 163.485V162.645H308.545V163.485H301.57Z" fill="white"/>
</svg>
