<svg width="1087" height="340" viewBox="0 0 1087 340" fill="none" xmlns="http://www.w3.org/2000/svg">
<path d="M320.394 335V328.072H318.33V326.824H321.69L321.77 328.024C321.962 327.597 322.255 327.267 322.65 327.032C323.055 326.787 323.519 326.664 324.042 326.664C324.842 326.664 325.455 326.904 325.882 327.384C326.319 327.853 326.538 328.456 326.538 329.192C326.538 329.309 326.532 329.421 326.522 329.528C326.522 329.624 326.511 329.741 326.49 329.88H325.13V329.544C325.13 329.256 325.071 328.989 324.954 328.744C324.847 328.499 324.676 328.301 324.442 328.152C324.218 327.992 323.924 327.912 323.562 327.912C323.21 327.912 322.911 328.013 322.666 328.216C322.431 328.419 322.255 328.675 322.138 328.984C322.02 329.293 321.962 329.619 321.962 329.96V335H320.394ZM318.25 335V333.768H325.626V335H318.25Z" fill="white"/>
<path d="M312.8 335.16C312.011 335.16 311.333 334.984 310.768 334.632C310.203 334.28 309.771 333.795 309.472 333.176C309.173 332.547 309.024 331.837 309.024 331.048V330.776C309.024 329.965 309.173 329.251 309.472 328.632C309.771 328.013 310.203 327.533 310.768 327.192C311.333 326.84 312.005 326.664 312.784 326.664C313.584 326.664 314.267 326.84 314.832 327.192C315.397 327.544 315.829 328.029 316.128 328.648C316.427 329.267 316.576 329.976 316.576 330.776V331.048C316.576 331.859 316.427 332.573 316.128 333.192C315.829 333.811 315.397 334.296 314.832 334.648C314.267 334.989 313.589 335.16 312.8 335.16ZM312.8 334.024C313.419 334.024 313.925 333.8 314.32 333.352C314.715 332.893 314.912 332.259 314.912 331.448V330.376C314.912 329.565 314.715 328.936 314.32 328.488C313.925 328.029 313.419 327.8 312.8 327.8C312.192 327.8 311.685 328.029 311.28 328.488C310.885 328.936 310.688 329.565 310.688 330.376V331.448C310.688 332.259 310.885 332.893 311.28 333.352C311.685 333.8 312.192 334.024 312.8 334.024Z" fill="white"/>
<path d="M302.854 335V328.072H299.926V326.824H304.454V335H302.854ZM299.926 335V333.768H307.222V335H299.926ZM302.79 325.144V323.608H304.294V325.144H302.79Z" fill="white"/>
<path d="M292.748 335L289.564 326.824H291.276L293.66 333.096H293.708L296.092 326.824H297.66L294.444 335H292.748Z" fill="white"/>
<path d="M282.915 335.16C282.072 335.16 281.421 334.963 280.963 334.568C280.515 334.173 280.291 333.592 280.291 332.824C280.291 332.184 280.461 331.672 280.803 331.288C281.155 330.893 281.715 330.605 282.483 330.424C283.261 330.243 284.285 330.152 285.555 330.152V329.256C285.555 328.744 285.421 328.371 285.155 328.136C284.899 327.901 284.461 327.784 283.843 327.784C283.277 327.784 282.84 327.901 282.531 328.136C282.221 328.371 282.067 328.701 282.067 329.128V329.32H280.595C280.573 329.149 280.557 329.037 280.547 328.984C280.547 328.931 280.547 328.909 280.547 328.92C280.547 328.931 280.547 328.947 280.547 328.968C280.557 328.989 280.563 328.989 280.563 328.968C280.563 328.264 280.861 327.704 281.459 327.288C282.067 326.872 282.877 326.664 283.891 326.664C284.968 326.664 285.779 326.872 286.323 327.288C286.877 327.704 287.155 328.339 287.155 329.192V333.528C287.155 333.699 287.197 333.821 287.283 333.896C287.368 333.971 287.48 334.008 287.619 334.008C287.864 334.008 288.077 333.944 288.259 333.816V334.856C288.12 334.952 287.949 335.027 287.747 335.08C287.544 335.133 287.331 335.16 287.107 335.16C286.787 335.16 286.525 335.117 286.323 335.032C286.12 334.957 285.971 334.824 285.875 334.632C285.779 334.44 285.715 334.173 285.683 333.832C285.501 334.163 285.267 334.429 284.979 334.632C284.691 334.824 284.371 334.957 284.019 335.032C283.667 335.117 283.299 335.16 282.915 335.16ZM283.411 334.024C283.901 334.024 284.301 333.917 284.611 333.704C284.931 333.491 285.165 333.203 285.315 332.84C285.475 332.477 285.555 332.072 285.555 331.624V331.128C284.637 331.128 283.907 331.181 283.363 331.288C282.829 331.384 282.445 331.549 282.211 331.784C281.987 332.008 281.875 332.328 281.875 332.744C281.875 333.171 281.997 333.491 282.243 333.704C282.499 333.917 282.888 334.024 283.411 334.024Z" fill="white"/>
<path d="M271.001 335V323.48H272.601V327.912C272.878 327.496 273.241 327.187 273.689 326.984C274.137 326.771 274.601 326.664 275.081 326.664C275.625 326.664 276.11 326.771 276.537 326.984C276.974 327.197 277.316 327.517 277.561 327.944C277.806 328.371 277.929 328.909 277.929 329.56V335H276.329V329.912C276.329 329.24 276.169 328.739 275.849 328.408C275.529 328.067 275.092 327.896 274.537 327.896C274.174 327.896 273.844 327.987 273.545 328.168C273.246 328.339 273.012 328.579 272.841 328.888C272.681 329.187 272.601 329.528 272.601 329.912V335H271.001Z" fill="white"/>
<path d="M264.831 335.16C263.978 335.16 263.269 334.989 262.703 334.648C262.149 334.307 261.733 333.827 261.455 333.208C261.189 332.589 261.055 331.88 261.055 331.08V330.744C261.055 329.912 261.21 329.192 261.519 328.584C261.829 327.976 262.271 327.507 262.847 327.176C263.423 326.835 264.106 326.664 264.895 326.664C265.631 326.664 266.261 326.813 266.783 327.112C267.317 327.411 267.727 327.816 268.015 328.328C268.314 328.84 268.463 329.427 268.463 330.088V331.176H262.719V331.448C262.719 332.291 262.922 332.931 263.327 333.368C263.733 333.805 264.245 334.024 264.863 334.024C265.546 334.024 266.063 333.859 266.415 333.528C266.778 333.197 266.959 332.685 266.959 331.992H268.463C268.463 332.643 268.309 333.208 267.999 333.688C267.701 334.157 267.279 334.52 266.735 334.776C266.202 335.032 265.567 335.16 264.831 335.16ZM262.735 330.136H266.895V329.896C266.895 329.491 266.81 329.133 266.639 328.824C266.479 328.504 266.245 328.253 265.935 328.072C265.626 327.891 265.269 327.8 264.863 327.8C264.405 327.8 264.015 327.912 263.695 328.136C263.386 328.36 263.146 328.648 262.975 329C262.815 329.341 262.735 329.693 262.735 330.056V330.136Z" fill="white"/>
<path d="M255.846 335.16C255.302 335.16 254.811 335.048 254.374 334.824C253.936 334.6 253.59 334.269 253.334 333.832L253.19 335H251.894V323.48H253.494V327.816C253.728 327.443 254.048 327.16 254.454 326.968C254.87 326.765 255.35 326.664 255.894 326.664C256.598 326.664 257.19 326.835 257.67 327.176C258.15 327.517 258.512 327.992 258.758 328.6C259.014 329.197 259.142 329.896 259.142 330.696V330.92C259.142 331.795 259.003 332.552 258.726 333.192C258.448 333.821 258.064 334.307 257.574 334.648C257.083 334.989 256.507 335.16 255.846 335.16ZM255.526 334.008C256.112 334.008 256.592 333.795 256.966 333.368C257.339 332.931 257.526 332.237 257.526 331.288V330.36C257.526 329.517 257.339 328.883 256.966 328.456C256.592 328.019 256.112 327.8 255.526 327.8C254.939 327.8 254.454 328.019 254.07 328.456C253.686 328.883 253.494 329.517 253.494 330.36V331.288C253.494 332.237 253.686 332.931 254.07 333.368C254.454 333.795 254.939 334.008 255.526 334.008Z" fill="white"/>
<path d="M241.644 337.064V335.912H249.644V337.064H241.644Z" fill="white"/>
<path d="M234.05 335V328.072H231.986V326.824H235.346L235.426 328.024C235.618 327.597 235.911 327.267 236.306 327.032C236.711 326.787 237.175 326.664 237.698 326.664C238.498 326.664 239.111 326.904 239.538 327.384C239.975 327.853 240.194 328.456 240.194 329.192C240.194 329.309 240.189 329.421 240.178 329.528C240.178 329.624 240.167 329.741 240.146 329.88H238.786V329.544C238.786 329.256 238.727 328.989 238.61 328.744C238.503 328.499 238.333 328.301 238.098 328.152C237.874 327.992 237.581 327.912 237.218 327.912C236.866 327.912 236.567 328.013 236.322 328.216C236.087 328.419 235.911 328.675 235.794 328.984C235.677 329.293 235.618 329.619 235.618 329.96V335H234.05ZM231.906 335V333.768H239.282V335H231.906Z" fill="white"/>
<path d="M226.456 335.16C225.603 335.16 224.894 334.989 224.328 334.648C223.774 334.307 223.358 333.827 223.08 333.208C222.814 332.589 222.68 331.88 222.68 331.08V330.744C222.68 329.912 222.835 329.192 223.144 328.584C223.454 327.976 223.896 327.507 224.472 327.176C225.048 326.835 225.731 326.664 226.52 326.664C227.256 326.664 227.886 326.813 228.408 327.112C228.942 327.411 229.352 327.816 229.64 328.328C229.939 328.84 230.088 329.427 230.088 330.088V331.176H224.344V331.448C224.344 332.291 224.547 332.931 224.952 333.368C225.358 333.805 225.87 334.024 226.488 334.024C227.171 334.024 227.688 333.859 228.04 333.528C228.403 333.197 228.584 332.685 228.584 331.992H230.088C230.088 332.643 229.934 333.208 229.624 333.688C229.326 334.157 228.904 334.52 228.36 334.776C227.827 335.032 227.192 335.16 226.456 335.16ZM224.36 330.136H228.52V329.896C228.52 329.491 228.435 329.133 228.264 328.824C228.104 328.504 227.87 328.253 227.56 328.072C227.251 327.891 226.894 327.8 226.488 327.8C226.03 327.8 225.64 327.912 225.32 328.136C225.011 328.36 224.771 328.648 224.6 329C224.44 329.341 224.36 329.693 224.36 330.056V330.136Z" fill="white"/>
<path d="M216.751 335.16C216.079 335.16 215.481 335.069 214.959 334.888C214.447 334.696 214.041 334.424 213.743 334.072C213.455 333.709 213.311 333.283 213.311 332.792C213.311 332.76 213.311 332.712 213.311 332.648C213.311 332.584 213.316 332.515 213.327 332.44H214.703V332.6C214.703 333.048 214.895 333.4 215.279 333.656C215.673 333.901 216.233 334.024 216.959 334.024C217.609 334.024 218.1 333.912 218.431 333.688C218.772 333.453 218.943 333.149 218.943 332.776C218.943 332.531 218.873 332.328 218.735 332.168C218.596 332.008 218.345 331.869 217.983 331.752C217.631 331.635 217.119 331.523 216.447 331.416C215.732 331.288 215.156 331.133 214.719 330.952C214.281 330.76 213.967 330.515 213.775 330.216C213.583 329.907 213.487 329.523 213.487 329.064C213.487 328.531 213.631 328.088 213.919 327.736C214.207 327.384 214.607 327.117 215.119 326.936C215.641 326.755 216.249 326.664 216.943 326.664C217.551 326.664 218.095 326.755 218.575 326.936C219.065 327.117 219.455 327.373 219.743 327.704C220.031 328.024 220.175 328.413 220.175 328.872C220.175 328.904 220.175 328.941 220.175 328.984C220.175 329.027 220.164 329.085 220.143 329.16H218.751C218.751 328.776 218.66 328.488 218.479 328.296C218.308 328.093 218.073 327.96 217.775 327.896C217.487 327.821 217.167 327.784 216.815 327.784C215.577 327.784 214.959 328.168 214.959 328.936C214.959 329.139 215.023 329.309 215.151 329.448C215.279 329.576 215.508 329.693 215.839 329.8C216.18 329.907 216.665 330.019 217.295 330.136C218.073 330.275 218.687 330.445 219.135 330.648C219.593 330.851 219.924 331.112 220.127 331.432C220.329 331.741 220.431 332.147 220.431 332.648C220.431 333.213 220.281 333.683 219.983 334.056C219.695 334.429 219.273 334.707 218.719 334.888C218.175 335.069 217.519 335.16 216.751 335.16Z" fill="white"/>
<path d="M206.565 335.16C205.69 335.16 204.986 334.915 204.453 334.424C203.93 333.933 203.669 333.192 203.669 332.2V326.824H205.285V331.896C205.285 332.579 205.439 333.085 205.749 333.416C206.069 333.747 206.511 333.912 207.077 333.912C207.45 333.912 207.781 333.821 208.069 333.64C208.367 333.448 208.597 333.192 208.757 332.872C208.927 332.552 209.013 332.195 209.013 331.8V326.824H210.613V333.528C210.613 333.699 210.65 333.821 210.725 333.896C210.799 333.971 210.911 334.008 211.061 334.008C211.167 334.008 211.274 333.997 211.381 333.976C211.487 333.955 211.599 333.901 211.717 333.816V334.856C211.578 334.952 211.402 335.027 211.189 335.08C210.986 335.133 210.778 335.16 210.565 335.16C210.181 335.16 209.887 335.107 209.685 335C209.493 334.883 209.359 334.723 209.285 334.52C209.221 334.317 209.178 334.088 209.157 333.832C208.997 334.12 208.794 334.365 208.549 334.568C208.303 334.76 208.015 334.904 207.685 335C207.354 335.107 206.981 335.16 206.565 335.16Z" fill="white"/>
<path d="M193.675 337.064V335.912H201.675V337.064H193.675Z" fill="white"/>
<path d="M184.657 335V326.824H185.953L186.113 327.992C186.359 327.533 186.705 327.197 187.153 326.984C187.601 326.771 188.097 326.664 188.641 326.664C189.537 326.664 190.252 326.915 190.785 327.416C191.319 327.917 191.585 328.659 191.585 329.64V335H189.985V330.104C189.985 329.336 189.825 328.776 189.505 328.424C189.196 328.072 188.759 327.896 188.193 327.896C187.799 327.896 187.457 327.997 187.169 328.2C186.881 328.392 186.657 328.664 186.497 329.016C186.337 329.357 186.257 329.752 186.257 330.2V335H184.657Z" fill="white"/>
<path d="M178.487 335.16C177.634 335.16 176.925 334.989 176.359 334.648C175.805 334.307 175.389 333.827 175.111 333.208C174.845 332.589 174.711 331.88 174.711 331.08V330.744C174.711 329.912 174.866 329.192 175.175 328.584C175.485 327.976 175.927 327.507 176.503 327.176C177.079 326.835 177.762 326.664 178.551 326.664C179.287 326.664 179.917 326.813 180.439 327.112C180.973 327.411 181.383 327.816 181.671 328.328C181.97 328.84 182.119 329.427 182.119 330.088V331.176H176.375V331.448C176.375 332.291 176.578 332.931 176.983 333.368C177.389 333.805 177.901 334.024 178.519 334.024C179.202 334.024 179.719 333.859 180.071 333.528C180.434 333.197 180.615 332.685 180.615 331.992H182.119C182.119 332.643 181.965 333.208 181.655 333.688C181.357 334.157 180.935 334.52 180.391 334.776C179.858 335.032 179.223 335.16 178.487 335.16ZM176.391 330.136H180.551V329.896C180.551 329.491 180.466 329.133 180.295 328.824C180.135 328.504 179.901 328.253 179.591 328.072C179.282 327.891 178.925 327.8 178.519 327.8C178.061 327.8 177.671 327.912 177.351 328.136C177.042 328.36 176.802 328.648 176.631 329C176.471 329.341 176.391 329.693 176.391 330.056V330.136Z" fill="white"/>
<path d="M168.238 335.16C167.651 335.16 167.113 335.021 166.622 334.744C166.131 334.456 165.737 334.013 165.438 333.416C165.15 332.808 165.006 332.019 165.006 331.048V330.872C165.006 329.965 165.15 329.197 165.438 328.568C165.726 327.939 166.115 327.464 166.606 327.144C167.107 326.824 167.662 326.664 168.27 326.664C168.814 326.664 169.289 326.765 169.694 326.968C170.099 327.16 170.414 327.427 170.638 327.768V323.48H172.238V335H170.942L170.766 333.832C170.531 334.259 170.201 334.589 169.774 334.824C169.347 335.048 168.835 335.16 168.238 335.16ZM168.622 334.008C169.209 334.008 169.689 333.795 170.062 333.368C170.446 332.931 170.638 332.259 170.638 331.352V330.456C170.638 329.56 170.446 328.893 170.062 328.456C169.689 328.019 169.209 327.8 168.622 327.8C168.035 327.8 167.55 328.024 167.166 328.472C166.793 328.909 166.606 329.571 166.606 330.456V331.336C166.606 332.243 166.793 332.915 167.166 333.352C167.55 333.789 168.035 334.008 168.622 334.008Z" fill="white"/>
<path d="M158.644 335.16C158.057 335.16 157.519 335.021 157.028 334.744C156.537 334.456 156.143 334.013 155.844 333.416C155.556 332.808 155.412 332.019 155.412 331.048V330.872C155.412 329.965 155.556 329.197 155.844 328.568C156.132 327.939 156.521 327.464 157.012 327.144C157.513 326.824 158.068 326.664 158.676 326.664C159.22 326.664 159.695 326.765 160.1 326.968C160.505 327.16 160.82 327.427 161.044 327.768V323.48H162.644V335H161.348L161.172 333.832C160.937 334.259 160.607 334.589 160.18 334.824C159.753 335.048 159.241 335.16 158.644 335.16ZM159.028 334.008C159.615 334.008 160.095 333.795 160.468 333.368C160.852 332.931 161.044 332.259 161.044 331.352V330.456C161.044 329.56 160.852 328.893 160.468 328.456C160.095 328.019 159.615 327.8 159.028 327.8C158.441 327.8 157.956 328.024 157.572 328.472C157.199 328.909 157.012 329.571 157.012 330.456V331.336C157.012 332.243 157.199 332.915 157.572 333.352C157.956 333.789 158.441 334.008 159.028 334.008Z" fill="white"/>
<path d="M149.354 335V328.072H146.426V326.824H150.954V335H149.354ZM146.426 335V333.768H153.722V335H146.426ZM149.29 325.144V323.608H150.794V325.144H149.29Z" fill="white"/>
<path d="M136.688 335V323.48H138.288V327.912C138.566 327.496 138.928 327.187 139.376 326.984C139.824 326.771 140.288 326.664 140.768 326.664C141.312 326.664 141.798 326.771 142.224 326.984C142.662 327.197 143.003 327.517 143.248 327.944C143.494 328.371 143.616 328.909 143.616 329.56V335H142.016V329.912C142.016 329.24 141.856 328.739 141.536 328.408C141.216 328.067 140.779 327.896 140.224 327.896C139.862 327.896 139.531 327.987 139.232 328.168C138.934 328.339 138.699 328.579 138.528 328.888C138.368 329.187 138.288 329.528 138.288 329.912V335H136.688Z" fill="white"/>
<path d="M126.519 337.064V335.912H134.519V337.064H126.519Z" fill="white"/>
<path d="M119.757 335V328.072H117.469V326.824H119.757V325.976C119.757 325.379 119.896 324.888 120.173 324.504C120.45 324.12 120.829 323.832 121.309 323.64C121.789 323.448 122.322 323.352 122.909 323.352C123.229 323.352 123.57 323.389 123.933 323.464C124.296 323.528 124.594 323.619 124.829 323.736V324.872C124.616 324.787 124.381 324.712 124.125 324.648C123.869 324.573 123.597 324.536 123.309 324.536C122.968 324.536 122.648 324.584 122.349 324.68C122.05 324.765 121.81 324.92 121.629 325.144C121.458 325.368 121.373 325.693 121.373 326.12V326.824H124.621V328.072H121.373V335H119.757ZM117.453 335V333.768H124.717V335H117.453Z" fill="white"/>
<path d="M111.331 335.16C110.542 335.16 109.865 334.984 109.299 334.632C108.734 334.28 108.302 333.795 108.003 333.176C107.705 332.547 107.555 331.837 107.555 331.048V330.776C107.555 329.965 107.705 329.251 108.003 328.632C108.302 328.013 108.734 327.533 109.299 327.192C109.865 326.84 110.537 326.664 111.315 326.664C112.115 326.664 112.798 326.84 113.363 327.192C113.929 327.544 114.361 328.029 114.659 328.648C114.958 329.267 115.107 329.976 115.107 330.776V331.048C115.107 331.859 114.958 332.573 114.659 333.192C114.361 333.811 113.929 334.296 113.363 334.648C112.798 334.989 112.121 335.16 111.331 335.16ZM111.331 334.024C111.95 334.024 112.457 333.8 112.851 333.352C113.246 332.893 113.443 332.259 113.443 331.448V330.376C113.443 329.565 113.246 328.936 112.851 328.488C112.457 328.029 111.95 327.8 111.331 327.8C110.723 327.8 110.217 328.029 109.811 328.488C109.417 328.936 109.219 329.565 109.219 330.376V331.448C109.219 332.259 109.417 332.893 109.811 333.352C110.217 333.8 110.723 334.024 111.331 334.024Z" fill="white"/>
<path d="M97.7375 337.064V335.912H105.738V337.064H97.7375Z" fill="white"/>
<path d="M92.1437 335.16C91.2903 335.16 90.581 334.989 90.0157 334.648C89.461 334.307 89.045 333.827 88.7677 333.208C88.501 332.589 88.3677 331.88 88.3677 331.08V330.744C88.3677 329.912 88.5223 329.192 88.8317 328.584C89.141 327.976 89.5837 327.507 90.1597 327.176C90.7357 326.835 91.4183 326.664 92.2077 326.664C92.9437 326.664 93.573 326.813 94.0957 327.112C94.629 327.411 95.0397 327.816 95.3277 328.328C95.6263 328.84 95.7757 329.427 95.7757 330.088V331.176H90.0317V331.448C90.0317 332.291 90.2343 332.931 90.6397 333.368C91.045 333.805 91.557 334.024 92.1757 334.024C92.8583 334.024 93.3757 333.859 93.7277 333.528C94.0903 333.197 94.2717 332.685 94.2717 331.992H95.7757C95.7757 332.643 95.621 333.208 95.3117 333.688C95.013 334.157 94.5917 334.52 94.0477 334.776C93.5143 335.032 92.8797 335.16 92.1437 335.16ZM90.0477 330.136H94.2077V329.896C94.2077 329.491 94.1223 329.133 93.9517 328.824C93.7917 328.504 93.557 328.253 93.2477 328.072C92.9383 327.891 92.581 327.8 92.1757 327.8C91.717 327.8 91.3277 327.912 91.0077 328.136C90.6983 328.36 90.4583 328.648 90.2877 329C90.1277 329.341 90.0477 329.693 90.0477 330.056V330.136Z" fill="white"/>
<path d="M81.8781 335V324.712H78.9341V323.464H83.4621V335H81.8781ZM78.9341 335V333.768H86.2461V335H78.9341Z" fill="white"/>
<path d="M72.7963 335.16C72.295 335.16 71.8203 335.064 71.3723 334.872C70.935 334.68 70.551 334.408 70.2203 334.056C69.9003 333.693 69.6496 333.267 69.4683 332.776C69.287 332.275 69.1963 331.715 69.1963 331.096V330.712C69.1963 330.093 69.287 329.539 69.4683 329.048C69.6496 328.547 69.9003 328.12 70.2203 327.768C70.551 327.405 70.935 327.133 71.3723 326.952C71.8096 326.76 72.2896 326.664 72.8123 326.664H73.0043C73.6656 326.664 74.247 326.803 74.7483 327.08C75.2496 327.347 75.6443 327.731 75.9323 328.232C76.2203 328.723 76.3643 329.32 76.3643 330.024H74.9243C74.9243 329.501 74.839 329.08 74.6683 328.76C74.4976 328.429 74.263 328.189 73.9643 328.04C73.6763 327.88 73.335 327.8 72.9403 327.8C72.3643 327.8 71.8736 328.013 71.4683 328.44C71.0736 328.856 70.8763 329.501 70.8763 330.376V331.448C70.8763 332.291 71.0683 332.931 71.4523 333.368C71.847 333.805 72.359 334.024 72.9883 334.024C73.3723 334.024 73.7083 333.949 73.9963 333.8C74.295 333.64 74.5243 333.4 74.6843 333.08C74.855 332.749 74.9403 332.323 74.9403 331.8H76.3643C76.3643 332.515 76.215 333.123 75.9163 333.624C75.6283 334.125 75.2283 334.509 74.7163 334.776C74.215 335.032 73.639 335.16 72.9883 335.16H72.7963Z" fill="white"/>
<path d="M62.2585 335.16C61.4159 335.16 60.7652 334.963 60.3065 334.568C59.8585 334.173 59.6345 333.592 59.6345 332.824C59.6345 332.184 59.8052 331.672 60.1465 331.288C60.4985 330.893 61.0585 330.605 61.8265 330.424C62.6052 330.243 63.6292 330.152 64.8985 330.152V329.256C64.8985 328.744 64.7652 328.371 64.4985 328.136C64.2425 327.901 63.8052 327.784 63.1865 327.784C62.6212 327.784 62.1839 327.901 61.8745 328.136C61.5652 328.371 61.4105 328.701 61.4105 329.128V329.32H59.9385C59.9172 329.149 59.9012 329.037 59.8905 328.984C59.8905 328.931 59.8905 328.909 59.8905 328.92C59.8905 328.931 59.8905 328.947 59.8905 328.968C59.9012 328.989 59.9065 328.989 59.9065 328.968C59.9065 328.264 60.2052 327.704 60.8025 327.288C61.4105 326.872 62.2212 326.664 63.2345 326.664C64.3119 326.664 65.1225 326.872 65.6665 327.288C66.2212 327.704 66.4985 328.339 66.4985 329.192V333.528C66.4985 333.699 66.5412 333.821 66.6265 333.896C66.7119 333.971 66.8239 334.008 66.9625 334.008C67.2079 334.008 67.4212 333.944 67.6025 333.816V334.856C67.4639 334.952 67.2932 335.027 67.0905 335.08C66.8879 335.133 66.6745 335.16 66.4505 335.16C66.1305 335.16 65.8692 335.117 65.6665 335.032C65.4639 334.957 65.3145 334.824 65.2185 334.632C65.1225 334.44 65.0585 334.173 65.0265 333.832C64.8452 334.163 64.6105 334.429 64.3225 334.632C64.0345 334.824 63.7145 334.957 63.3625 335.032C63.0105 335.117 62.6425 335.16 62.2585 335.16ZM62.7545 334.024C63.2452 334.024 63.6452 333.917 63.9545 333.704C64.2745 333.491 64.5092 333.203 64.6585 332.84C64.8185 332.477 64.8985 332.072 64.8985 331.624V331.128C63.9812 331.128 63.2505 331.181 62.7065 331.288C62.1732 331.384 61.7892 331.549 61.5545 331.784C61.3305 332.008 61.2185 332.328 61.2185 332.744C61.2185 333.171 61.3412 333.491 61.5865 333.704C61.8425 333.917 62.2319 334.024 62.7545 334.024Z" fill="white"/>
<path d="M51.7688 335V328.072H49.7048V326.824H53.0648L53.1448 328.024C53.3368 327.597 53.6301 327.267 54.0248 327.032C54.4301 326.787 54.8941 326.664 55.4168 326.664C56.2168 326.664 56.8301 326.904 57.2568 327.384C57.6941 327.853 57.9128 328.456 57.9128 329.192C57.9128 329.309 57.9074 329.421 57.8968 329.528C57.8968 329.624 57.8861 329.741 57.8648 329.88H56.5048V329.544C56.5048 329.256 56.4461 328.989 56.3288 328.744C56.2221 328.499 56.0514 328.301 55.8168 328.152C55.5928 327.992 55.2994 327.912 54.9368 327.912C54.5848 327.912 54.2861 328.013 54.0408 328.216C53.8061 328.419 53.6301 328.675 53.5128 328.984C53.3954 329.293 53.3368 329.619 53.3368 329.96V335H51.7688ZM49.6248 335V333.768H57.0008V335H49.6248Z" fill="white"/>
<path d="M44.1749 335.16C43.3856 335.16 42.7083 334.984 42.1429 334.632C41.5776 334.28 41.1456 333.795 40.8469 333.176C40.5483 332.547 40.3989 331.837 40.3989 331.048V330.776C40.3989 329.965 40.5483 329.251 40.8469 328.632C41.1456 328.013 41.5776 327.533 42.1429 327.192C42.7083 326.84 43.3803 326.664 44.1589 326.664C44.9589 326.664 45.6416 326.84 46.2069 327.192C46.7723 327.544 47.2043 328.029 47.5029 328.648C47.8016 329.267 47.9509 329.976 47.9509 330.776V331.048C47.9509 331.859 47.8016 332.573 47.5029 333.192C47.2043 333.811 46.7723 334.296 46.2069 334.648C45.6416 334.989 44.9643 335.16 44.1749 335.16ZM44.1749 334.024C44.7936 334.024 45.3003 333.8 45.6949 333.352C46.0896 332.893 46.2869 332.259 46.2869 331.448V330.376C46.2869 329.565 46.0896 328.936 45.6949 328.488C45.3003 328.029 44.7936 327.8 44.1749 327.8C43.5669 327.8 43.0603 328.029 42.6549 328.488C42.2603 328.936 42.0629 329.565 42.0629 330.376V331.448C42.0629 332.259 42.2603 332.893 42.6549 333.352C43.0603 333.8 43.5669 334.024 44.1749 334.024Z" fill="white"/>
<path d="M30.5813 337.064V335.912H38.5813V337.064H30.5813Z" fill="white"/>
<path d="M24.9874 335.16C24.1341 335.16 23.4248 334.989 22.8594 334.648C22.3048 334.307 21.8888 333.827 21.6114 333.208C21.3448 332.589 21.2114 331.88 21.2114 331.08V330.744C21.2114 329.912 21.3661 329.192 21.6754 328.584C21.9848 327.976 22.4274 327.507 23.0034 327.176C23.5794 326.835 24.2621 326.664 25.0514 326.664C25.7874 326.664 26.4168 326.813 26.9394 327.112C27.4728 327.411 27.8834 327.816 28.1714 328.328C28.4701 328.84 28.6194 329.427 28.6194 330.088V331.176H22.8754V331.448C22.8754 332.291 23.0781 332.931 23.4834 333.368C23.8888 333.805 24.4008 334.024 25.0194 334.024C25.7021 334.024 26.2194 333.859 26.5714 333.528C26.9341 333.197 27.1154 332.685 27.1154 331.992H28.6194C28.6194 332.643 28.4648 333.208 28.1554 333.688C27.8568 334.157 27.4354 334.52 26.8914 334.776C26.3581 335.032 25.7234 335.16 24.9874 335.16ZM22.8914 330.136H27.0514V329.896C27.0514 329.491 26.9661 329.133 26.7954 328.824C26.6354 328.504 26.4008 328.253 26.0914 328.072C25.7821 327.891 25.4248 327.8 25.0194 327.8C24.5608 327.8 24.1714 327.912 23.8514 328.136C23.5421 328.36 23.3021 328.648 23.1314 329C22.9714 329.341 22.8914 329.693 22.8914 330.056V330.136Z" fill="white"/>
<path d="M11.9697 335V323.48H13.5697V327.912C13.8471 327.496 14.2097 327.187 14.6577 326.984C15.1057 326.771 15.5697 326.664 16.0497 326.664C16.5937 326.664 17.0791 326.771 17.5057 326.984C17.9431 327.197 18.2844 327.517 18.5297 327.944C18.7751 328.371 18.8977 328.909 18.8977 329.56V335H17.2977V329.912C17.2977 329.24 17.1377 328.739 16.8177 328.408C16.4977 328.067 16.0604 327.896 15.5057 327.896C15.1431 327.896 14.8124 327.987 14.5137 328.168C14.2151 328.339 13.9804 328.579 13.8097 328.888C13.6497 329.187 13.5697 329.528 13.5697 329.912V335H11.9697Z" fill="white"/>
<path d="M7.28794 335.16C6.32794 335.16 5.56527 334.952 4.99994 334.536C4.4346 334.109 4.15194 333.416 4.15194 332.456V328.072H1.78394V326.824H4.19994L4.75994 324.216H5.75194V326.824H9.44794V328.072H5.75194V332.328C5.75194 332.691 5.8266 332.989 5.97594 333.224C6.12527 333.459 6.34394 333.629 6.63194 333.736C6.91994 333.843 7.2826 333.896 7.71994 333.896C8.06127 333.896 8.37594 333.853 8.66394 333.768C8.9626 333.672 9.22394 333.571 9.44794 333.464V334.696C9.19194 334.845 8.8666 334.957 8.47194 335.032C8.07727 335.117 7.6826 335.16 7.28794 335.16Z" fill="white"/>
<path d="M782.302 322.2V307.48H783.486V322.2H782.302Z" fill="white"/>
<path d="M772.708 322.2V307.48H773.892V322.2H772.708Z" fill="white"/>
<path d="M763.114 322.2V307.48H764.298V322.2H763.114Z" fill="white"/>
<path d="M753.521 322.2V307.48H754.705V322.2H753.521Z" fill="white"/>
<path d="M743.927 322.2V307.48H745.111V322.2H743.927Z" fill="white"/>
<path d="M734.333 322.2V307.48H735.517V322.2H734.333Z" fill="white"/>
<path d="M791.896 306.2V291.48H793.08V306.2H791.896Z" fill="white"/>
<path d="M782.302 306.2V291.48H783.486V306.2H782.302Z" fill="white"/>
<path d="M724.739 306.2V291.48H725.923V306.2H724.739Z" fill="white"/>
<path d="M715.146 306.2V291.48H716.33V306.2H715.146Z" fill="white"/>
<path d="M273.833 306.2V291.48H275.017V306.2H273.833Z" fill="white"/>
<path d="M264.239 306.2V291.48H265.423V306.2H264.239Z" fill="white"/>
<path d="M254.646 306.2V291.48H255.829V306.2H254.646Z" fill="white"/>
<path d="M245.052 306.2V291.48H246.236V306.2H245.052Z" fill="white"/>
<path d="M235.458 306.2V291.48H236.642V306.2H235.458Z" fill="white"/>
<path d="M225.864 306.2V291.48H227.048V306.2H225.864Z" fill="white"/>
<path d="M216.271 306.2V291.48H217.454V306.2H216.271Z" fill="white"/>
<path d="M1079.71 290.2V275.48H1080.89V290.2H1079.71Z" fill="white"/>
<path d="M1070.11 290.2V275.48H1071.3V290.2H1070.11Z" fill="white"/>
<path d="M1060.52 290.2V275.48H1061.7V290.2H1060.52Z" fill="white"/>
<path d="M1050.93 290.2V275.48H1052.11V290.2H1050.93Z" fill="white"/>
<path d="M1041.33 290.2V275.48H1042.52V290.2H1041.33Z" fill="white"/>
<path d="M1031.74 290.2V275.48H1032.92V290.2H1031.74Z" fill="white"/>
<path d="M993.364 290.2V275.48H994.548V290.2H993.364Z" fill="white"/>
<path d="M983.771 290.2V275.48H984.955V290.2H983.771Z" fill="white"/>
<path d="M974.177 290.2V275.48H975.361V290.2H974.177Z" fill="white"/>
<path d="M964.583 290.2V275.48H965.767V290.2H964.583Z" fill="white"/>
<path d="M954.989 290.2V275.48H956.173V290.2H954.989Z" fill="white"/>
<path d="M945.396 290.2V275.48H946.58V290.2H945.396Z" fill="white"/>
<path d="M887.833 290.2V275.48H889.017V290.2H887.833Z" fill="white"/>
<path d="M878.239 290.2V275.48H879.423V290.2H878.239Z" fill="white"/>
<path d="M868.646 290.2V275.48H869.83V290.2H868.646Z" fill="white"/>
<path d="M859.052 290.2V275.48H860.236V290.2H859.052Z" fill="white"/>
<path d="M791.896 290.2V275.48H793.08V290.2H791.896Z" fill="white"/>
<path d="M782.302 290.2V275.48H783.486V290.2H782.302Z" fill="white"/>
<path d="M676.771 290.2V275.48H677.955V290.2H676.771Z" fill="white"/>
<path d="M667.177 290.2V275.48H668.361V290.2H667.177Z" fill="white"/>
<path d="M657.583 290.2V275.48H658.767V290.2H657.583Z" fill="white"/>
<path d="M647.989 290.2V275.48H649.173V290.2H647.989Z" fill="white"/>
<path d="M638.396 290.2V275.48H639.58V290.2H638.396Z" fill="white"/>
<path d="M628.802 290.2V275.48H629.986V290.2H628.802Z" fill="white"/>
<path d="M590.427 290.2V275.48H591.611V290.2H590.427Z" fill="white"/>
<path d="M580.833 290.2V275.48H582.017V290.2H580.833Z" fill="white"/>
<path d="M571.239 290.2V275.48H572.423V290.2H571.239Z" fill="white"/>
<path d="M561.646 290.2V275.48H562.83V290.2H561.646Z" fill="white"/>
<path d="M552.052 290.2V275.48H553.236V290.2H552.052Z" fill="white"/>
<path d="M542.458 290.2V275.48H543.642V290.2H542.458Z" fill="white"/>
<path d="M532.864 290.2V275.48H534.048V290.2H532.864Z" fill="white"/>
<path d="M484.896 290.2V275.48H486.079V290.2H484.896Z" fill="white"/>
<path d="M475.302 290.2V275.48H476.486V290.2H475.302Z" fill="white"/>
<path d="M417.739 290.2V275.48H418.923V290.2H417.739Z" fill="white"/>
<path d="M408.146 290.2V275.48H409.329V290.2H408.146Z" fill="white"/>
<path d="M379.364 290.2V275.48H380.548V290.2H379.364Z" fill="white"/>
<path d="M369.771 290.2V275.48H370.954V290.2H369.771Z" fill="white"/>
<path d="M360.177 290.2V275.48H361.361V290.2H360.177Z" fill="white"/>
<path d="M350.583 290.2V275.48H351.767V290.2H350.583Z" fill="white"/>
<path d="M340.989 290.2V275.48H342.173V290.2H340.989Z" fill="white"/>
<path d="M331.396 290.2V275.48H332.579V290.2H331.396Z" fill="white"/>
<path d="M321.802 290.2V275.48H322.986V290.2H321.802Z" fill="white"/>
<path d="M312.208 290.2V275.48H313.392V290.2H312.208Z" fill="white"/>
<path d="M197.083 290.2V275.48H198.267V290.2H197.083Z" fill="white"/>
<path d="M187.489 290.2V275.48H188.673V290.2H187.489Z" fill="white"/>
<path d="M120.333 290.2V275.48H121.517V290.2H120.333Z" fill="white"/>
<path d="M110.739 290.2V275.48H111.923V290.2H110.739Z" fill="white"/>
<path d="M81.958 290.2V275.48H83.142V290.2H81.958Z" fill="white"/>
<path d="M72.3643 290.2V275.48H73.5483V290.2H72.3643Z" fill="white"/>
<path d="M53.1768 290.2V275.48H54.3608V290.2H53.1768Z" fill="white"/>
<path d="M43.583 290.2V275.48H44.767V290.2H43.583Z" fill="white"/>
<path d="M33.9893 290.2V275.48H35.1733V290.2H33.9893Z" fill="white"/>
<path d="M24.3955 290.2V275.48H25.5795V290.2H24.3955Z" fill="white"/>
<path d="M14.8018 290.2V275.48H15.9858V290.2H14.8018Z" fill="white"/>
<path d="M1031.74 274.2V259.48H1032.92V274.2H1031.74Z" fill="white"/>
<path d="M1022.15 274.2V259.48H1023.33V274.2H1022.15Z" fill="white"/>
<path d="M974.177 274.2V259.48H975.361V274.2H974.177Z" fill="white"/>
<path d="M964.583 274.2V259.48H965.767V274.2H964.583Z" fill="white"/>
<path d="M907.021 274.2V259.48H908.205V274.2H907.021Z" fill="white"/>
<path d="M897.427 274.2V259.48H898.611V274.2H897.427Z" fill="white"/>
<path d="M859.052 274.2V259.48H860.236V274.2H859.052Z" fill="white"/>
<path d="M849.458 274.2V259.48H850.642V274.2H849.458Z" fill="white"/>
<path d="M791.896 274.2V259.48H793.08V274.2H791.896Z" fill="white"/>
<path d="M782.302 274.2V259.48H783.486V274.2H782.302Z" fill="white"/>
<path d="M763.114 274.2V259.48H764.298V274.2H763.114Z" fill="white"/>
<path d="M753.521 274.2V259.48H754.705V274.2H753.521Z" fill="white"/>
<path d="M743.927 274.2V259.48H745.111V274.2H743.927Z" fill="white"/>
<path d="M734.333 274.2V259.48H735.517V274.2H734.333Z" fill="white"/>
<path d="M657.583 274.2V259.48H658.767V274.2H657.583Z" fill="white"/>
<path d="M647.989 274.2V259.48H649.173V274.2H647.989Z" fill="white"/>
<path d="M590.427 274.2V259.48H591.611V274.2H590.427Z" fill="white"/>
<path d="M580.833 274.2V259.48H582.017V274.2H580.833Z" fill="white"/>
<path d="M523.271 274.2V259.48H524.455V274.2H523.271Z" fill="white"/>
<path d="M513.677 274.2V259.48H514.861V274.2H513.677Z" fill="white"/>
<path d="M484.896 274.2V259.48H486.079V274.2H484.896Z" fill="white"/>
<path d="M475.302 274.2V259.48H476.486V274.2H475.302Z" fill="white"/>
<path d="M417.739 274.2V259.48H418.923V274.2H417.739Z" fill="white"/>
<path d="M408.146 274.2V259.48H409.329V274.2H408.146Z" fill="white"/>
<path d="M379.364 274.2V259.48H380.548V274.2H379.364Z" fill="white"/>
<path d="M369.771 274.2V259.48H370.954V274.2H369.771Z" fill="white"/>
<path d="M302.614 274.2V259.48H303.798V274.2H302.614Z" fill="white"/>
<path d="M293.021 274.2V259.48H294.204V274.2H293.021Z" fill="white"/>
<path d="M177.896 274.2V259.48H179.079V274.2H177.896Z" fill="white"/>
<path d="M168.302 274.2V259.48H169.486V274.2H168.302Z" fill="white"/>
<path d="M139.521 274.2V259.48H140.704V274.2H139.521Z" fill="white"/>
<path d="M129.927 274.2V259.48H131.111V274.2H129.927Z" fill="white"/>
<path d="M81.958 274.2V259.48H83.142V274.2H81.958Z" fill="white"/>
<path d="M72.3643 274.2V259.48H73.5483V274.2H72.3643Z" fill="white"/>
<path d="M62.7705 274.2V259.48H63.9545V274.2H62.7705Z" fill="white"/>
<path d="M53.1768 274.2V259.48H54.3608V274.2H53.1768Z" fill="white"/>
<path d="M14.8018 274.2V259.48H15.9858V274.2H14.8018Z" fill="white"/>
<path d="M5.20801 274.2V259.48H6.39201V274.2H5.20801Z" fill="white"/>
<path d="M1031.74 258.2V243.48H1032.92V258.2H1031.74Z" fill="white"/>
<path d="M1022.15 258.2V243.48H1023.33V258.2H1022.15Z" fill="white"/>
<path d="M974.177 258.2V243.48H975.361V258.2H974.177Z" fill="white"/>
<path d="M964.583 258.2V243.48H965.767V258.2H964.583Z" fill="white"/>
<path d="M859.052 258.2V243.48H860.236V258.2H859.052Z" fill="white"/>
<path d="M849.458 258.2V243.48H850.642V258.2H849.458Z" fill="white"/>
<path d="M791.896 258.2V243.48H793.08V258.2H791.896Z" fill="white"/>
<path d="M782.302 258.2V243.48H783.486V258.2H782.302Z" fill="white"/>
<path d="M772.708 258.2V243.48H773.892V258.2H772.708Z" fill="white"/>
<path d="M724.739 258.2V243.48H725.923V258.2H724.739Z" fill="white"/>
<path d="M715.146 258.2V243.48H716.33V258.2H715.146Z" fill="white"/>
<path d="M657.583 258.2V243.48H658.767V258.2H657.583Z" fill="white"/>
<path d="M647.989 258.2V243.48H649.173V258.2H647.989Z" fill="white"/>
<path d="M590.427 258.2V243.48H591.611V258.2H590.427Z" fill="white"/>
<path d="M580.833 258.2V243.48H582.017V258.2H580.833Z" fill="white"/>
<path d="M571.239 258.2V243.48H572.423V258.2H571.239Z" fill="white"/>
<path d="M561.646 258.2V243.48H562.83V258.2H561.646Z" fill="white"/>
<path d="M552.052 258.2V243.48H553.236V258.2H552.052Z" fill="white"/>
<path d="M542.458 258.2V243.48H543.642V258.2H542.458Z" fill="white"/>
<path d="M532.864 258.2V243.48H534.048V258.2H532.864Z" fill="white"/>
<path d="M484.896 258.2V243.48H486.079V258.2H484.896Z" fill="white"/>
<path d="M475.302 258.2V243.48H476.486V258.2H475.302Z" fill="white"/>
<path d="M417.739 258.2V243.48H418.923V258.2H417.739Z" fill="white"/>
<path d="M408.146 258.2V243.48H409.329V258.2H408.146Z" fill="white"/>
<path d="M379.364 258.2V243.48H380.548V258.2H379.364Z" fill="white"/>
<path d="M369.771 258.2V243.48H370.954V258.2H369.771Z" fill="white"/>
<path d="M360.177 258.2V243.48H361.361V258.2H360.177Z" fill="white"/>
<path d="M350.583 258.2V243.48H351.767V258.2H350.583Z" fill="white"/>
<path d="M340.989 258.2V243.48H342.173V258.2H340.989Z" fill="white"/>
<path d="M331.396 258.2V243.48H332.579V258.2H331.396Z" fill="white"/>
<path d="M321.802 258.2V243.48H322.986V258.2H321.802Z" fill="white"/>
<path d="M312.208 258.2V243.48H313.392V258.2H312.208Z" fill="white"/>
<path d="M158.708 258.2V243.48H159.892V258.2H158.708Z" fill="white"/>
<path d="M149.114 258.2V243.48H150.298V258.2H149.114Z" fill="white"/>
<path d="M81.958 258.2V243.48H83.142V258.2H81.958Z" fill="white"/>
<path d="M72.3643 258.2V243.48H73.5483V258.2H72.3643Z" fill="white"/>
<path d="M14.8018 258.2V243.48H15.9858V258.2H14.8018Z" fill="white"/>
<path d="M5.20801 258.2V243.48H6.39201V258.2H5.20801Z" fill="white"/>
<path d="M1031.74 242.2V227.48H1032.92V242.2H1031.74Z" fill="white"/>
<path d="M1022.15 242.2V227.48H1023.33V242.2H1022.15Z" fill="white"/>
<path d="M974.177 242.2V227.48H975.361V242.2H974.177Z" fill="white"/>
<path d="M964.583 242.2V227.48H965.767V242.2H964.583Z" fill="white"/>
<path d="M859.052 242.2V227.48H860.236V242.2H859.052Z" fill="white"/>
<path d="M849.458 242.2V227.48H850.642V242.2H849.458Z" fill="white"/>
<path d="M791.896 242.2V227.48H793.08V242.2H791.896Z" fill="white"/>
<path d="M782.302 242.2V227.48H783.486V242.2H782.302Z" fill="white"/>
<path d="M724.739 242.2V227.48H725.923V242.2H724.739Z" fill="white"/>
<path d="M715.146 242.2V227.48H716.33V242.2H715.146Z" fill="white"/>
<path d="M657.583 242.2V227.48H658.767V242.2H657.583Z" fill="white"/>
<path d="M647.989 242.2V227.48H649.173V242.2H647.989Z" fill="white"/>
<path d="M590.427 242.2V227.48H591.611V242.2H590.427Z" fill="white"/>
<path d="M580.833 242.2V227.48H582.017V242.2H580.833Z" fill="white"/>
<path d="M484.896 242.2V227.48H486.079V242.2H484.896Z" fill="white"/>
<path d="M475.302 242.2V227.48H476.486V242.2H475.302Z" fill="white"/>
<path d="M436.927 242.2V227.48H438.111V242.2H436.927Z" fill="white"/>
<path d="M427.333 242.2V227.48H428.517V242.2H427.333Z" fill="white"/>
<path d="M417.739 242.2V227.48H418.923V242.2H417.739Z" fill="white"/>
<path d="M408.146 242.2V227.48H409.329V242.2H408.146Z" fill="white"/>
<path d="M379.364 242.2V227.48H380.548V242.2H379.364Z" fill="white"/>
<path d="M369.771 242.2V227.48H370.954V242.2H369.771Z" fill="white"/>
<path d="M177.896 242.2V227.48H179.079V242.2H177.896Z" fill="white"/>
<path d="M168.302 242.2V227.48H169.486V242.2H168.302Z" fill="white"/>
<path d="M139.521 242.2V227.48H140.704V242.2H139.521Z" fill="white"/>
<path d="M129.927 242.2V227.48H131.111V242.2H129.927Z" fill="white"/>
<path d="M81.958 242.2V227.48H83.142V242.2H81.958Z" fill="white"/>
<path d="M72.3643 242.2V227.48H73.5483V242.2H72.3643Z" fill="white"/>
<path d="M14.8018 242.2V227.48H15.9858V242.2H14.8018Z" fill="white"/>
<path d="M5.20801 242.2V227.48H6.39201V242.2H5.20801Z" fill="white"/>
<path d="M1079.71 226.2V211.48H1080.89V226.2H1079.71Z" fill="white"/>
<path d="M1070.11 226.2V211.48H1071.3V226.2H1070.11Z" fill="white"/>
<path d="M1060.52 226.2V211.48H1061.7V226.2H1060.52Z" fill="white"/>
<path d="M1050.93 226.2V211.48H1052.11V226.2H1050.93Z" fill="white"/>
<path d="M1041.33 226.2V211.48H1042.52V226.2H1041.33Z" fill="white"/>
<path d="M1031.74 226.2V211.48H1032.92V226.2H1031.74Z" fill="white"/>
<path d="M974.177 226.2V211.48H975.361V226.2H974.177Z" fill="white"/>
<path d="M964.583 226.2V211.48H965.767V226.2H964.583Z" fill="white"/>
<path d="M954.989 226.2V211.48H956.173V226.2H954.989Z" fill="white"/>
<path d="M945.396 226.2V211.48H946.58V226.2H945.396Z" fill="white"/>
<path d="M878.239 226.2V211.48H879.423V226.2H878.239Z" fill="white"/>
<path d="M868.646 226.2V211.48H869.83V226.2H868.646Z" fill="white"/>
<path d="M859.052 226.2V211.48H860.236V226.2H859.052Z" fill="white"/>
<path d="M849.458 226.2V211.48H850.642V226.2H849.458Z" fill="white"/>
<path d="M839.864 226.2V211.48H841.048V226.2H839.864Z" fill="white"/>
<path d="M830.271 226.2V211.48H831.455V226.2H830.271Z" fill="white"/>
<path d="M791.896 226.2V211.48H793.08V226.2H791.896Z" fill="white"/>
<path d="M782.302 226.2V211.48H783.486V226.2H782.302Z" fill="white"/>
<path d="M724.739 226.2V211.48H725.923V226.2H724.739Z" fill="white"/>
<path d="M715.146 226.2V211.48H716.33V226.2H715.146Z" fill="white"/>
<path d="M657.583 226.2V211.48H658.767V226.2H657.583Z" fill="white"/>
<path d="M647.989 226.2V211.48H649.173V226.2H647.989Z" fill="white"/>
<path d="M580.833 226.2V211.48H582.017V226.2H580.833Z" fill="white"/>
<path d="M571.239 226.2V211.48H572.423V226.2H571.239Z" fill="white"/>
<path d="M561.646 226.2V211.48H562.83V226.2H561.646Z" fill="white"/>
<path d="M552.052 226.2V211.48H553.236V226.2H552.052Z" fill="white"/>
<path d="M542.458 226.2V211.48H543.642V226.2H542.458Z" fill="white"/>
<path d="M532.864 226.2V211.48H534.048V226.2H532.864Z" fill="white"/>
<path d="M465.708 226.2V211.48H466.892V226.2H465.708Z" fill="white"/>
<path d="M456.114 226.2V211.48H457.298V226.2H456.114Z" fill="white"/>
<path d="M446.521 226.2V211.48H447.704V226.2H446.521Z" fill="white"/>
<path d="M436.927 226.2V211.48H438.111V226.2H436.927Z" fill="white"/>
<path d="M417.739 226.2V211.48H418.923V226.2H417.739Z" fill="white"/>
<path d="M408.146 226.2V211.48H409.329V226.2H408.146Z" fill="white"/>
<path d="M369.771 226.2V211.48H370.954V226.2H369.771Z" fill="white"/>
<path d="M360.177 226.2V211.48H361.361V226.2H360.177Z" fill="white"/>
<path d="M350.583 226.2V211.48H351.767V226.2H350.583Z" fill="white"/>
<path d="M340.989 226.2V211.48H342.173V226.2H340.989Z" fill="white"/>
<path d="M331.396 226.2V211.48H332.579V226.2H331.396Z" fill="white"/>
<path d="M321.802 226.2V211.48H322.986V226.2H321.802Z" fill="white"/>
<path d="M312.208 226.2V211.48H313.392V226.2H312.208Z" fill="white"/>
<path d="M197.083 226.2V211.48H198.267V226.2H197.083Z" fill="white"/>
<path d="M187.489 226.2V211.48H188.673V226.2H187.489Z" fill="white"/>
<path d="M120.333 226.2V211.48H121.517V226.2H120.333Z" fill="white"/>
<path d="M110.739 226.2V211.48H111.923V226.2H110.739Z" fill="white"/>
<path d="M81.958 226.2V211.48H83.142V226.2H81.958Z" fill="white"/>
<path d="M72.3643 226.2V211.48H73.5483V226.2H72.3643Z" fill="white"/>
<path d="M14.8018 226.2V211.48H15.9858V226.2H14.8018Z" fill="white"/>
<path d="M5.20801 226.2V211.48H6.39201V226.2H5.20801Z" fill="white"/>
<path d="M859.052 210.2V195.48H860.236V210.2H859.052Z" fill="white"/>
<path d="M849.458 210.2V195.48H850.642V210.2H849.458Z" fill="white"/>
<path d="M657.583 210.2V195.48H658.767V210.2H657.583Z" fill="white"/>
<path d="M647.989 210.2V195.48H649.173V210.2H647.989Z" fill="white"/>
<path d="M974.177 194.2V179.48H975.361V194.2H974.177Z" fill="white"/>
<path d="M964.583 194.2V179.48H965.767V194.2H964.583Z" fill="white"/>
<path d="M859.052 194.2V179.48H860.236V194.2H859.052Z" fill="white"/>
<path d="M849.458 194.2V179.48H850.642V194.2H849.458Z" fill="white"/>
<path d="M657.583 194.2V179.48H658.767V194.2H657.583Z" fill="white"/>
<path d="M647.989 194.2V179.48H649.173V194.2H647.989Z" fill="white"/>
<path d="M638.396 194.2V179.48H639.58V194.2H638.396Z" fill="white"/>
<path d="M628.802 194.2V179.48H629.986V194.2H628.802Z" fill="white"/>
<path d="M222.456 161.064V159.912H230.456V161.064H222.456Z" fill="white"/>
<path d="M212.863 161.064V159.912H220.863V161.064H212.863Z" fill="white"/>
<path d="M107.331 161.064V159.912H115.331V161.064H107.331Z" fill="white"/>
<path d="M97.7375 161.064V159.912H105.738V161.064H97.7375Z" fill="white"/>
<path d="M222.456 145.064V143.912H230.456V145.064H222.456Z" fill="white"/>
<path d="M212.863 145.064V143.912H220.863V145.064H212.863Z" fill="white"/>
<path d="M107.331 145.064V143.912H115.331V145.064H107.331Z" fill="white"/>
<path d="M97.7375 145.064V143.912H105.738V145.064H97.7375Z" fill="white"/>
<path d="M654.175 129.064V127.912H662.175V129.064H654.175Z" fill="white"/>
<path d="M644.581 129.064V127.912H652.581V129.064H644.581Z" fill="white"/>
<path d="M625.394 129.064V127.912H633.394V129.064H625.394Z" fill="white"/>
<path d="M615.8 129.064V127.912H623.8V129.064H615.8Z" fill="white"/>
<path d="M606.206 129.064V127.912H614.206V129.064H606.206Z" fill="white"/>
<path d="M548.644 129.064V127.912H556.644V129.064H548.644Z" fill="white"/>
<path d="M539.05 129.064V127.912H547.05V129.064H539.05Z" fill="white"/>
<path d="M529.456 129.064V127.912H537.456V129.064H529.456Z" fill="white"/>
<path d="M519.863 129.064V127.912H527.863V129.064H519.863Z" fill="white"/>
<path d="M510.269 129.064V127.912H518.269V129.064H510.269Z" fill="white"/>
<path d="M500.675 129.064V127.912H508.675V129.064H500.675Z" fill="white"/>
<path d="M443.113 129.064V127.912H451.113V129.064H443.113Z" fill="white"/>
<path d="M433.519 129.064V127.912H441.519V129.064H433.519Z" fill="white"/>
<path d="M423.925 129.064V127.912H431.925V129.064H423.925Z" fill="white"/>
<path d="M414.331 129.064V127.912H422.331V129.064H414.331Z" fill="white"/>
<path d="M404.738 129.064V127.912H412.738V129.064H404.738Z" fill="white"/>
<path d="M395.144 129.064V127.912H403.144V129.064H395.144Z" fill="white"/>
<path d="M366.363 129.064V127.912H374.363V129.064H366.363Z" fill="white"/>
<path d="M356.769 129.064V127.912H364.769V129.064H356.769Z" fill="white"/>
<path d="M347.175 129.064V127.912H355.175V129.064H347.175Z" fill="white"/>
<path d="M337.581 129.064V127.912H345.581V129.064H337.581Z" fill="white"/>
<path d="M327.988 129.064V127.912H335.988V129.064H327.988Z" fill="white"/>
<path d="M318.394 129.064V127.912H326.394V129.064H318.394Z" fill="white"/>
<path d="M270.425 129.064V127.912H278.425V129.064H270.425Z" fill="white"/>
<path d="M260.831 129.064V127.912H268.831V129.064H260.831Z" fill="white"/>
<path d="M251.238 129.064V127.912H259.238V129.064H251.238Z" fill="white"/>
<path d="M241.644 129.064V127.912H249.644V129.064H241.644Z" fill="white"/>
<path d="M222.456 129.064V127.912H230.456V129.064H222.456Z" fill="white"/>
<path d="M212.863 129.064V127.912H220.863V129.064H212.863Z" fill="white"/>
<path d="M155.3 129.064V127.912H163.3V129.064H155.3Z" fill="white"/>
<path d="M145.706 129.064V127.912H153.706V129.064H145.706Z" fill="white"/>
<path d="M136.113 129.064V127.912H144.113V129.064H136.113Z" fill="white"/>
<path d="M126.519 129.064V127.912H134.519V129.064H126.519Z" fill="white"/>
<path d="M107.331 129.064V127.912H115.331V129.064H107.331Z" fill="white"/>
<path d="M97.7375 129.064V127.912H105.738V129.064H97.7375Z" fill="white"/>
<path d="M68.9563 129.064V127.912H76.9563V129.064H68.9563Z" fill="white"/>
<path d="M59.3625 129.064V127.912H67.3626V129.064H59.3625Z" fill="white"/>
<path d="M49.7688 129.064V127.912H57.7688V129.064H49.7688Z" fill="white"/>
<path d="M40.175 129.064V127.912H48.175V129.064H40.175Z" fill="white"/>
<path d="M30.5813 129.064V127.912H38.5813V129.064H30.5813Z" fill="white"/>
<path d="M20.9875 129.064V127.912H28.9875V129.064H20.9875Z" fill="white"/>
<path d="M11.3938 129.064V127.912H19.3938V129.064H11.3938Z" fill="white"/>
<path d="M654.175 113.064V111.912H662.175V113.064H654.175Z" fill="white"/>
<path d="M644.581 113.064V111.912H652.581V113.064H644.581Z" fill="white"/>
<path d="M634.987 113.064V111.912H642.987V113.064H634.987Z" fill="white"/>
<path d="M596.613 113.064V111.912H604.613V113.064H596.613Z" fill="white"/>
<path d="M587.019 113.064V111.912H595.019V113.064H587.019Z" fill="white"/>
<path d="M491.081 113.064V111.912H499.081V113.064H491.081Z" fill="white"/>
<path d="M481.488 113.064V111.912H489.488V113.064H481.488Z" fill="white"/>
<path d="M423.925 113.064V111.912H431.925V113.064H423.925Z" fill="white"/>
<path d="M414.331 113.064V111.912H422.331V113.064H414.331Z" fill="white"/>
<path d="M347.175 113.064V111.912H355.175V113.064H347.175Z" fill="white"/>
<path d="M337.581 113.064V111.912H345.581V113.064H337.581Z" fill="white"/>
<path d="M289.613 113.064V111.912H297.613V113.064H289.613Z" fill="white"/>
<path d="M280.019 113.064V111.912H288.019V113.064H280.019Z" fill="white"/>
<path d="M241.644 113.064V111.912H249.644V113.064H241.644Z" fill="white"/>
<path d="M232.05 113.064V111.912H240.05V113.064H232.05Z" fill="white"/>
<path d="M222.456 113.064V111.912H230.456V113.064H222.456Z" fill="white"/>
<path d="M212.863 113.064V111.912H220.863V113.064H212.863Z" fill="white"/>
<path d="M174.488 113.064V111.912H182.488V113.064H174.488Z" fill="white"/>
<path d="M164.894 113.064V111.912H172.894V113.064H164.894Z" fill="white"/>
<path d="M126.519 113.064V111.912H134.519V113.064H126.519Z" fill="white"/>
<path d="M116.925 113.064V111.912H124.925V113.064H116.925Z" fill="white"/>
<path d="M107.331 113.064V111.912H115.331V113.064H107.331Z" fill="white"/>
<path d="M97.7375 113.064V111.912H105.738V113.064H97.7375Z" fill="white"/>
<path d="M68.9563 113.064V111.912H76.9563V113.064H68.9563Z" fill="white"/>
<path d="M59.3625 113.064V111.912H67.3626V113.064H59.3625Z" fill="white"/>
<path d="M11.3938 113.064V111.912H19.3938V113.064H11.3938Z" fill="white"/>
<path d="M1.80005 113.064V111.912H9.80005V113.064H1.80005Z" fill="white"/>
<path d="M654.175 97.0641V95.9121H662.175V97.0641H654.175Z" fill="white"/>
<path d="M644.581 97.0641V95.9121H652.581V97.0641H644.581Z" fill="white"/>
<path d="M596.613 97.0641V95.9121H604.613V97.0641H596.613Z" fill="white"/>
<path d="M587.019 97.0641V95.9121H595.019V97.0641H587.019Z" fill="white"/>
<path d="M548.644 97.0641V95.9121H556.644V97.0641H548.644Z" fill="white"/>
<path d="M539.05 97.0641V95.9121H547.05V97.0641H539.05Z" fill="white"/>
<path d="M529.456 97.0641V95.9121H537.456V97.0641H529.456Z" fill="white"/>
<path d="M519.863 97.0641V95.9121H527.863V97.0641H519.863Z" fill="white"/>
<path d="M510.269 97.0641V95.9121H518.269V97.0641H510.269Z" fill="white"/>
<path d="M500.675 97.0641V95.9121H508.675V97.0641H500.675Z" fill="white"/>
<path d="M491.081 97.0641V95.9121H499.081V97.0641H491.081Z" fill="white"/>
<path d="M481.488 97.0641V95.9121H489.488V97.0641H481.488Z" fill="white"/>
<path d="M423.925 97.0641V95.9121H431.925V97.0641H423.925Z" fill="white"/>
<path d="M414.331 97.0641V95.9121H422.331V97.0641H414.331Z" fill="white"/>
<path d="M347.175 97.0641V95.9121H355.175V97.0641H347.175Z" fill="white"/>
<path d="M337.581 97.0641V95.9121H345.581V97.0641H337.581Z" fill="white"/>
<path d="M289.613 97.0641V95.9121H297.613V97.0641H289.613Z" fill="white"/>
<path d="M280.019 97.0641V95.9121H288.019V97.0641H280.019Z" fill="white"/>
<path d="M222.456 97.0641V95.9121H230.456V97.0641H222.456Z" fill="white"/>
<path d="M212.863 97.0641V95.9121H220.863V97.0641H212.863Z" fill="white"/>
<path d="M174.488 97.0641V95.9121H182.488V97.0641H174.488Z" fill="white"/>
<path d="M164.894 97.0641V95.9121H172.894V97.0641H164.894Z" fill="white"/>
<path d="M107.331 97.0641V95.9121H115.331V97.0641H107.331Z" fill="white"/>
<path d="M97.7375 97.0641V95.9121H105.738V97.0641H97.7375Z" fill="white"/>
<path d="M68.9563 97.0641V95.9121H76.9563V97.0641H68.9563Z" fill="white"/>
<path d="M59.3625 97.0641V95.9121H67.3626V97.0641H59.3625Z" fill="white"/>
<path d="M49.7688 97.0641V95.9121H57.7688V97.0641H49.7688Z" fill="white"/>
<path d="M40.175 97.0641V95.9121H48.175V97.0641H40.175Z" fill="white"/>
<path d="M30.5813 97.0641V95.9121H38.5813V97.0641H30.5813Z" fill="white"/>
<path d="M20.9875 97.0641V95.9121H28.9875V97.0641H20.9875Z" fill="white"/>
<path d="M11.3938 97.0641V95.9121H19.3938V97.0641H11.3938Z" fill="white"/>
<path d="M654.175 81.0641V79.9121H662.175V81.0641H654.175Z" fill="white"/>
<path d="M644.581 81.0641V79.9121H652.581V81.0641H644.581Z" fill="white"/>
<path d="M634.987 81.0641V79.9121H642.987V81.0641H634.987Z" fill="white"/>
<path d="M596.613 81.0641V79.9121H604.613V81.0641H596.613Z" fill="white"/>
<path d="M587.019 81.0641V79.9121H595.019V81.0641H587.019Z" fill="white"/>
<path d="M548.644 81.0641V79.9121H556.644V81.0641H548.644Z" fill="white"/>
<path d="M539.05 81.0641V79.9121H547.05V81.0641H539.05Z" fill="white"/>
<path d="M491.081 81.0641V79.9121H499.081V81.0641H491.081Z" fill="white"/>
<path d="M481.488 81.0641V79.9121H489.488V81.0641H481.488Z" fill="white"/>
<path d="M423.925 81.0641V79.9121H431.925V81.0641H423.925Z" fill="white"/>
<path d="M414.331 81.0641V79.9121H422.331V81.0641H414.331Z" fill="white"/>
<path d="M347.175 81.0641V79.9121H355.175V81.0641H347.175Z" fill="white"/>
<path d="M337.581 81.0641V79.9121H345.581V81.0641H337.581Z" fill="white"/>
<path d="M289.613 81.0641V79.9121H297.613V81.0641H289.613Z" fill="white"/>
<path d="M280.019 81.0641V79.9121H288.019V81.0641H280.019Z" fill="white"/>
<path d="M241.644 81.0641V79.9121H249.644V81.0641H241.644Z" fill="white"/>
<path d="M232.05 81.0641V79.9121H240.05V81.0641H232.05Z" fill="white"/>
<path d="M222.456 81.0641V79.9121H230.456V81.0641H222.456Z" fill="white"/>
<path d="M212.863 81.0641V79.9121H220.863V81.0641H212.863Z" fill="white"/>
<path d="M174.488 81.0641V79.9121H182.488V81.0641H174.488Z" fill="white"/>
<path d="M164.894 81.0641V79.9121H172.894V81.0641H164.894Z" fill="white"/>
<path d="M126.519 81.0641V79.9121H134.519V81.0641H126.519Z" fill="white"/>
<path d="M116.925 81.0641V79.9121H124.925V81.0641H116.925Z" fill="white"/>
<path d="M107.331 81.0641V79.9121H115.331V81.0641H107.331Z" fill="white"/>
<path d="M97.7375 81.0641V79.9121H105.738V81.0641H97.7375Z" fill="white"/>
<path d="M68.9563 81.0641V79.9121H76.9563V81.0641H68.9563Z" fill="white"/>
<path d="M59.3625 81.0641V79.9121H67.3626V81.0641H59.3625Z" fill="white"/>
<path d="M654.175 65.0641V63.9121H662.175V65.0641H654.175Z" fill="white"/>
<path d="M644.581 65.0641V63.9121H652.581V65.0641H644.581Z" fill="white"/>
<path d="M625.394 65.0641V63.9121H633.394V65.0641H625.394Z" fill="white"/>
<path d="M615.8 65.0641V63.9121H623.8V65.0641H615.8Z" fill="white"/>
<path d="M606.206 65.0641V63.9121H614.206V65.0641H606.206Z" fill="white"/>
<path d="M539.05 65.0641V63.9121H547.05V65.0641H539.05Z" fill="white"/>
<path d="M529.456 65.0641V63.9121H537.456V65.0641H529.456Z" fill="white"/>
<path d="M519.863 65.0641V63.9121H527.863V65.0641H519.863Z" fill="white"/>
<path d="M510.269 65.0641V63.9121H518.269V65.0641H510.269Z" fill="white"/>
<path d="M500.675 65.0641V63.9121H508.675V65.0641H500.675Z" fill="white"/>
<path d="M423.925 65.0641V63.9121H431.925V65.0641H423.925Z" fill="white"/>
<path d="M414.331 65.0641V63.9121H422.331V65.0641H414.331Z" fill="white"/>
<path d="M404.738 65.0641V63.9121H412.738V65.0641H404.738Z" fill="white"/>
<path d="M395.144 65.0641V63.9121H403.144V65.0641H395.144Z" fill="white"/>
<path d="M347.175 65.0641V63.9121H355.175V65.0641H347.175Z" fill="white"/>
<path d="M337.581 65.0641V63.9121H345.581V65.0641H337.581Z" fill="white"/>
<path d="M270.425 65.0641V63.9121H278.425V65.0641H270.425Z" fill="white"/>
<path d="M260.831 65.0641V63.9121H268.831V65.0641H260.831Z" fill="white"/>
<path d="M251.238 65.0641V63.9121H259.238V65.0641H251.238Z" fill="white"/>
<path d="M241.644 65.0641V63.9121H249.644V65.0641H241.644Z" fill="white"/>
<path d="M222.456 65.0641V63.9121H230.456V65.0641H222.456Z" fill="white"/>
<path d="M212.863 65.0641V63.9121H220.863V65.0641H212.863Z" fill="white"/>
<path d="M155.3 65.0641V63.9121H163.3V65.0641H155.3Z" fill="white"/>
<path d="M145.706 65.0641V63.9121H153.706V65.0641H145.706Z" fill="white"/>
<path d="M136.113 65.0641V63.9121H144.113V65.0641H136.113Z" fill="white"/>
<path d="M126.519 65.0641V63.9121H134.519V65.0641H126.519Z" fill="white"/>
<path d="M107.331 65.0641V63.9121H115.331V65.0641H107.331Z" fill="white"/>
<path d="M97.7375 65.0641V63.9121H105.738V65.0641H97.7375Z" fill="white"/>
<path d="M49.7688 65.0641V63.9121H57.7688V65.0641H49.7688Z" fill="white"/>
<path d="M40.175 65.0641V63.9121H48.175V65.0641H40.175Z" fill="white"/>
<path d="M30.5813 65.0641V63.9121H38.5813V65.0641H30.5813Z" fill="white"/>
<path d="M20.9875 65.0641V63.9121H28.9875V65.0641H20.9875Z" fill="white"/>
<path d="M11.3938 65.0641V63.9121H19.3938V65.0641H11.3938Z" fill="white"/>
<path d="M654.175 49.0641V47.9121H662.175V49.0641H654.175Z" fill="white"/>
<path d="M644.581 49.0641V47.9121H652.581V49.0641H644.581Z" fill="white"/>
<path d="M347.175 49.0641V47.9121H355.175V49.0641H347.175Z" fill="white"/>
<path d="M337.581 49.0641V47.9121H345.581V49.0641H337.581Z" fill="white"/>
<path d="M654.175 33.0641V31.9121H662.175V33.0641H654.175Z" fill="white"/>
<path d="M644.581 33.0641V31.9121H652.581V33.0641H644.581Z" fill="white"/>
<path d="M423.925 33.0641V31.9121H431.925V33.0641H423.925Z" fill="white"/>
<path d="M414.331 33.0641V31.9121H422.331V33.0641H414.331Z" fill="white"/>
<path d="M347.175 33.0641V31.9121H355.175V33.0641H347.175Z" fill="white"/>
<path d="M337.581 33.0641V31.9121H345.581V33.0641H337.581Z" fill="white"/>
<path d="M327.988 33.0641V31.9121H335.988V33.0641H327.988Z" fill="white"/>
<path d="M318.394 33.0641V31.9121H326.394V33.0641H318.394Z" fill="white"/>
<path d="M126.567 15.0001V6.82406H127.511L127.671 7.73606C127.831 7.38406 128.055 7.1174 128.343 6.93606C128.641 6.75473 128.961 6.66406 129.303 6.66406C129.665 6.66406 129.985 6.76006 130.263 6.95206C130.551 7.14406 130.764 7.42673 130.903 7.80006C131.095 7.42673 131.329 7.14406 131.607 6.95206C131.895 6.76006 132.247 6.66406 132.663 6.66406C133.249 6.66406 133.697 6.85073 134.007 7.22406C134.327 7.5974 134.487 8.13073 134.487 8.82406V15.0001H133.111V9.11206C133.111 8.31206 132.812 7.91206 132.215 7.91206C131.927 7.91206 131.687 8.02406 131.495 8.24806C131.303 8.47206 131.207 8.76006 131.207 9.11206V15.0001H129.847V9.11206C129.847 8.31206 129.537 7.91206 128.919 7.91206C128.631 7.91206 128.391 8.02406 128.199 8.24806C128.017 8.47206 127.927 8.76006 127.927 9.11206V15.0001H126.567Z" fill="white"/>
<path d="M119.821 15.1601C118.978 15.1601 118.328 14.9627 117.869 14.5681C117.421 14.1734 117.197 13.5921 117.197 12.8241C117.197 12.1841 117.368 11.6721 117.709 11.2881C118.061 10.8934 118.621 10.6054 119.389 10.4241C120.168 10.2427 121.192 10.1521 122.461 10.1521V9.25606C122.461 8.74406 122.328 8.37073 122.061 8.13606C121.805 7.9014 121.368 7.78406 120.749 7.78406C120.184 7.78406 119.746 7.9014 119.437 8.13606C119.128 8.37073 118.973 8.7014 118.973 9.12806V9.32006H117.501C117.48 9.1494 117.464 9.0374 117.453 8.98406C117.453 8.93073 117.453 8.9094 117.453 8.92006C117.453 8.93073 117.453 8.94673 117.453 8.96806C117.464 8.9894 117.469 8.9894 117.469 8.96806C117.469 8.26406 117.768 7.70406 118.365 7.28806C118.973 6.87206 119.784 6.66406 120.797 6.66406C121.874 6.66406 122.685 6.87206 123.229 7.28806C123.784 7.70406 124.061 8.33873 124.061 9.19206V13.5281C124.061 13.6987 124.104 13.8214 124.189 13.8961C124.274 13.9707 124.386 14.0081 124.525 14.0081C124.77 14.0081 124.984 13.9441 125.165 13.8161V14.8561C125.026 14.9521 124.856 15.0267 124.653 15.0801C124.45 15.1334 124.237 15.1601 124.013 15.1601C123.693 15.1601 123.432 15.1174 123.229 15.0321C123.026 14.9574 122.877 14.8241 122.781 14.6321C122.685 14.4401 122.621 14.1734 122.589 13.8321C122.408 14.1627 122.173 14.4294 121.885 14.6321C121.597 14.8241 121.277 14.9574 120.925 15.0321C120.573 15.1174 120.205 15.1601 119.821 15.1601ZM120.317 14.0241C120.808 14.0241 121.208 13.9174 121.517 13.7041C121.837 13.4907 122.072 13.2027 122.221 12.8401C122.381 12.4774 122.461 12.0721 122.461 11.6241V11.1281C121.544 11.1281 120.813 11.1814 120.269 11.2881C119.736 11.3841 119.352 11.5494 119.117 11.7841C118.893 12.0081 118.781 12.3281 118.781 12.7441C118.781 13.1707 118.904 13.4907 119.149 13.7041C119.405 13.9174 119.794 14.0241 120.317 14.0241Z" fill="white"/>
<path d="M107.907 15.0001V6.82406H109.203L109.363 7.99206C109.609 7.5334 109.955 7.1974 110.403 6.98406C110.851 6.77073 111.347 6.66406 111.891 6.66406C112.787 6.66406 113.502 6.91473 114.035 7.41606C114.569 7.9174 114.835 8.65873 114.835 9.64006V15.0001H113.235V10.1041C113.235 9.33606 113.075 8.77606 112.755 8.42406C112.446 8.07206 112.009 7.89606 111.443 7.89606C111.049 7.89606 110.707 7.9974 110.419 8.20006C110.131 8.39206 109.907 8.66406 109.747 9.01606C109.587 9.3574 109.507 9.75206 109.507 10.2001V15.0001H107.907Z" fill="white"/>
<path d="M103.225 15.1601C102.265 15.1601 101.503 14.9521 100.937 14.5361C100.372 14.1094 100.089 13.4161 100.089 12.4561V8.07206H97.7214V6.82406H100.137L100.697 4.21606H101.689V6.82406H105.385V8.07206H101.689V12.3281C101.689 12.6907 101.764 12.9894 101.913 13.2241C102.063 13.4587 102.281 13.6294 102.569 13.7361C102.857 13.8427 103.22 13.8961 103.657 13.8961C103.999 13.8961 104.313 13.8534 104.601 13.7681C104.9 13.6721 105.161 13.5707 105.385 13.4641V14.6961C105.129 14.8454 104.804 14.9574 104.409 15.0321C104.015 15.1174 103.62 15.1601 103.225 15.1601Z" fill="white"/>
<path d="M92.1437 15.1601C91.2903 15.1601 90.581 14.9894 90.0157 14.6481C89.461 14.3067 89.045 13.8267 88.7677 13.2081C88.501 12.5894 88.3677 11.8801 88.3677 11.0801V10.7441C88.3677 9.91206 88.5223 9.19206 88.8317 8.58406C89.141 7.97606 89.5837 7.50673 90.1597 7.17606C90.7357 6.83473 91.4183 6.66406 92.2077 6.66406C92.9437 6.66406 93.573 6.8134 94.0957 7.11206C94.629 7.41073 95.0397 7.81606 95.3277 8.32806C95.6263 8.84006 95.7757 9.42673 95.7757 10.0881V11.1761H90.0317V11.4481C90.0317 12.2907 90.2343 12.9307 90.6397 13.3681C91.045 13.8054 91.557 14.0241 92.1757 14.0241C92.8583 14.0241 93.3757 13.8587 93.7277 13.5281C94.0903 13.1974 94.2717 12.6854 94.2717 11.9921H95.7757C95.7757 12.6427 95.621 13.2081 95.3117 13.6881C95.013 14.1574 94.5917 14.5201 94.0477 14.7761C93.5143 15.0321 92.8797 15.1601 92.1437 15.1601ZM90.0477 10.1361H94.2077V9.89606C94.2077 9.49073 94.1223 9.1334 93.9517 8.82406C93.7917 8.50406 93.557 8.2534 93.2477 8.07206C92.9383 7.89073 92.581 7.80006 92.1757 7.80006C91.717 7.80006 91.3277 7.91206 91.0077 8.13606C90.6983 8.36006 90.4583 8.64806 90.2877 9.00006C90.1277 9.3414 90.0477 9.6934 90.0477 10.0561V10.1361Z" fill="white"/>
<path d="M82.198 14.9999V8.07191H79.27V6.82391H83.798V14.9999H82.198ZM79.27 14.9999V13.7679H86.566V14.9999H79.27ZM82.134 5.14391V3.60791H83.638V5.14391H82.134Z" fill="white"/>
<path d="M72.0922 15L68.9082 6.82397H70.6202L73.0042 13.096H73.0522L75.4362 6.82397H77.0042L73.7882 15H72.0922Z" fill="white"/>
<path d="M59.3625 17.0641V15.9121H67.3626V17.0641H59.3625Z" fill="white"/>
<path d="M50.4248 17.8961V6.82406H51.7208L51.8968 7.99206C52.1315 7.55473 52.4621 7.22406 52.8888 7.00006C53.3261 6.77606 53.8435 6.66406 54.4408 6.66406C55.0595 6.66406 55.6088 6.8134 56.0888 7.11206C56.5795 7.40006 56.9635 7.84806 57.2408 8.45606C57.5288 9.06406 57.6728 9.8534 57.6728 10.8241V11.0321C57.6728 11.9281 57.5235 12.6854 57.2248 13.3041C56.9261 13.9121 56.5261 14.3761 56.0248 14.6961C55.5341 15.0054 54.9848 15.1601 54.3768 15.1601C53.8328 15.1601 53.3581 15.0587 52.9528 14.8561C52.5581 14.6534 52.2488 14.4027 52.0248 14.1041V17.8961H50.4248ZM54.0568 14.0081C54.6435 14.0081 55.1235 13.7947 55.4968 13.3681C55.8701 12.9414 56.0568 12.2801 56.0568 11.3841V10.4561C56.0568 9.8054 55.9661 9.28806 55.7848 8.90406C55.6035 8.52006 55.3581 8.24273 55.0488 8.07206C54.7501 7.89073 54.4195 7.80006 54.0568 7.80006C53.7048 7.80006 53.3741 7.8854 53.0648 8.05606C52.7555 8.21606 52.5048 8.4934 52.3128 8.88806C52.1208 9.27206 52.0248 9.79473 52.0248 10.4561V11.3841C52.0248 12.2801 52.2168 12.9414 52.6008 13.3681C52.9848 13.7947 53.4701 14.0081 54.0568 14.0081Z" fill="white"/>
<path d="M40.2229 15.0001V6.82406H41.1669L41.3269 7.73606C41.4869 7.38406 41.7109 7.1174 41.9989 6.93606C42.2976 6.75473 42.6176 6.66406 42.9589 6.66406C43.3216 6.66406 43.6416 6.76006 43.9189 6.95206C44.2069 7.14406 44.4202 7.42673 44.5589 7.80006C44.7509 7.42673 44.9856 7.14406 45.2629 6.95206C45.5509 6.76006 45.9029 6.66406 46.3189 6.66406C46.9056 6.66406 47.3536 6.85073 47.6629 7.22406C47.9829 7.5974 48.1429 8.13073 48.1429 8.82406V15.0001H46.7669V9.11206C46.7669 8.31206 46.4682 7.91206 45.8709 7.91206C45.5829 7.91206 45.3429 8.02406 45.1509 8.24806C44.9589 8.47206 44.8629 8.76006 44.8629 9.11206V15.0001H43.5029V9.11206C43.5029 8.31206 43.1936 7.91206 42.5749 7.91206C42.2869 7.91206 42.0469 8.02406 41.8549 8.24806C41.6736 8.47206 41.5829 8.76006 41.5829 9.11206V15.0001H40.2229Z" fill="white"/>
<path d="M33.4773 15.1601C32.6346 15.1601 31.9839 14.9627 31.5253 14.5681C31.0773 14.1734 30.8533 13.5921 30.8533 12.8241C30.8533 12.1841 31.0239 11.6721 31.3653 11.2881C31.7173 10.8934 32.2773 10.6054 33.0453 10.4241C33.8239 10.2427 34.8479 10.1521 36.1173 10.1521V9.25606C36.1173 8.74406 35.9839 8.37073 35.7173 8.13606C35.4613 7.9014 35.0239 7.78406 34.4053 7.78406C33.8399 7.78406 33.4026 7.9014 33.0933 8.13606C32.7839 8.37073 32.6293 8.7014 32.6293 9.12806V9.32006H31.1573C31.1359 9.1494 31.1199 9.0374 31.1093 8.98406C31.1093 8.93073 31.1093 8.9094 31.1093 8.92006C31.1093 8.93073 31.1093 8.94673 31.1093 8.96806C31.1199 8.9894 31.1253 8.9894 31.1253 8.96806C31.1253 8.26406 31.4239 7.70406 32.0213 7.28806C32.6293 6.87206 33.4399 6.66406 34.4533 6.66406C35.5306 6.66406 36.3413 6.87206 36.8853 7.28806C37.4399 7.70406 37.7173 8.33873 37.7173 9.19206V13.5281C37.7173 13.6987 37.7599 13.8214 37.8453 13.8961C37.9306 13.9707 38.0426 14.0081 38.1813 14.0081C38.4266 14.0081 38.6399 13.9441 38.8213 13.8161V14.8561C38.6826 14.9521 38.5119 15.0267 38.3093 15.0801C38.1066 15.1334 37.8933 15.1601 37.6693 15.1601C37.3493 15.1601 37.0879 15.1174 36.8853 15.0321C36.6826 14.9574 36.5333 14.8241 36.4373 14.6321C36.3413 14.4401 36.2773 14.1734 36.2453 13.8321C36.0639 14.1627 35.8293 14.4294 35.5413 14.6321C35.2533 14.8241 34.9333 14.9574 34.5813 15.0321C34.2293 15.1174 33.8613 15.1601 33.4773 15.1601ZM33.9733 14.0241C34.4639 14.0241 34.8639 13.9174 35.1733 13.7041C35.4933 13.4907 35.7279 13.2027 35.8773 12.8401C36.0373 12.4774 36.1173 12.0721 36.1173 11.6241V11.1281C35.1999 11.1281 34.4693 11.1814 33.9253 11.2881C33.3919 11.3841 33.0079 11.5494 32.7733 11.7841C32.5493 12.0081 32.4373 12.3281 32.4373 12.7441C32.4373 13.1707 32.5599 13.4907 32.8053 13.7041C33.0613 13.9174 33.4506 14.0241 33.9733 14.0241Z" fill="white"/>
<path d="M24.8275 15.1601C24.3262 15.1601 23.8515 15.0641 23.4035 14.8721C22.9662 14.6801 22.5822 14.4081 22.2515 14.0561C21.9315 13.6934 21.6809 13.2667 21.4995 12.7761C21.3182 12.2747 21.2275 11.7147 21.2275 11.0961V10.7121C21.2275 10.0934 21.3182 9.53873 21.4995 9.04806C21.6809 8.54673 21.9315 8.12006 22.2515 7.76806C22.5822 7.4054 22.9662 7.1334 23.4035 6.95206C23.8409 6.76006 24.3209 6.66406 24.8435 6.66406H25.0355C25.6969 6.66406 26.2782 6.80273 26.7795 7.08006C27.2809 7.34673 27.6755 7.73073 27.9635 8.23206C28.2515 8.72273 28.3955 9.32006 28.3955 10.0241H26.9555C26.9555 9.5014 26.8702 9.08006 26.6995 8.76006C26.5289 8.4294 26.2942 8.1894 25.9955 8.04006C25.7075 7.88006 25.3662 7.80006 24.9715 7.80006C24.3955 7.80006 23.9049 8.0134 23.4995 8.44006C23.1049 8.85606 22.9075 9.5014 22.9075 10.3761V11.4481C22.9075 12.2907 23.0995 12.9307 23.4835 13.3681C23.8782 13.8054 24.3902 14.0241 25.0195 14.0241C25.4035 14.0241 25.7395 13.9494 26.0275 13.8001C26.3262 13.6401 26.5555 13.4001 26.7155 13.0801C26.8862 12.7494 26.9715 12.3227 26.9715 11.8001H28.3955C28.3955 12.5147 28.2462 13.1227 27.9475 13.6241C27.6595 14.1254 27.2595 14.5094 26.7475 14.7761C26.2462 15.0321 25.6702 15.1601 25.0195 15.1601H24.8275Z" fill="white"/>
<path d="M11.4736 15L14.4016 10.76L11.6496 6.82397H13.5536L15.4576 9.67198H15.4896L17.4256 6.82397H19.1696L16.4176 10.792L19.3296 15H17.4416L15.3616 11.88H15.3296L13.2336 15H11.4736Z" fill="white"/>
<path d="M5.09595 15.16C4.22128 15.16 3.51728 14.9146 2.98395 14.424C2.46128 13.9333 2.19995 13.192 2.19995 12.2V6.82397H3.81595V11.896C3.81595 12.5786 3.97062 13.0853 4.27995 13.416C4.59995 13.7466 5.04262 13.912 5.60795 13.912C5.98128 13.912 6.31195 13.8213 6.59995 13.64C6.89862 13.448 7.12795 13.192 7.28795 12.872C7.45862 12.552 7.54395 12.1946 7.54395 11.8V6.82397H9.14395V13.528C9.14395 13.6986 9.18128 13.8213 9.25595 13.896C9.33062 13.9706 9.44262 14.008 9.59195 14.008C9.69862 14.008 9.80529 13.9973 9.91195 13.976C10.0186 13.9546 10.1306 13.9013 10.248 13.816V14.856C10.1093 14.952 9.93328 15.0266 9.71995 15.08C9.51729 15.1333 9.30929 15.16 9.09595 15.16C8.71195 15.16 8.41862 15.1066 8.21595 15C8.02395 14.8826 7.89062 14.7226 7.81595 14.52C7.75195 14.3173 7.70928 14.088 7.68795 13.832C7.52795 14.12 7.32528 14.3653 7.07995 14.568C6.83462 14.76 6.54662 14.904 6.21595 15C5.88528 15.1066 5.51195 15.16 5.09595 15.16Z" fill="white"/>
</svg>
