<svg width="1087" height="340" viewBox="0 0 1087 340" fill="none" xmlns="http://www.w3.org/2000/svg">
<g clip-path="url(#clip0_2863_9262)">
<path d="M12.5 18.3999H19.5V18.5999H41.1V18.3999H48.7V21.2999H59.9V20.4999H69.6V18.3999H86.6V18.5999H107.6V18.3999H115.4V18.5999H127.4V18.3999H136.7V3.9999H107.6V1.5999H95.9V3.9999H88.7V0.899902H77.4V4.1999H67V13.2999H59.8V3.9999H19.4V4.1999H0.4V18.4999H12.4V18.2999L12.5 18.3999ZM424.4 40.5999H434V23.2999H412.8V40.5999H424.4ZM134.5 55.2999H124.9V71.2999H117.3V55.2999H96.1V168.6H117.3V120.6H124.9V136.6H165.3V120.6H184.5V71.2999H165.3V55.2999H134.5ZM146.1 72.5999H163.3V119.3H136.5V103.3H117.3V88.5999H136.5V72.5999H146.1ZM9.8 136.6H79V71.2999H59.8V55.2999H9.8V72.5999H57.8V87.2999H9.8V103.3H0.2V120.6H9.8V136.6ZM21.4 104.6H57.8V119.3H21.4V104.6ZM328.4 136.6H376.4V119.3H357.2V23.2999H316.8V40.5999H336V119.3H316.8V136.6H328.4ZM405.2 136.6H453.2V119.3H434V55.2999H393.6V72.5999H412.8V119.3H393.6V136.6H405.2ZM508.7 136.6H558.7V119.3H501.1V104.6H558.7V71.2999H549.1V55.2999H499.1V71.2999H479.9V120.6H499.1V136.6H508.7ZM501.1 72.5999H537.5V87.2999H501.1V72.5999ZM625.8 136.6H635.4V120.6H643V136.6H664.2V23.2999H643V71.2999H635.4V55.2999H604.6V71.2999H585.4V120.6H604.6V136.6H625.8ZM614.2 119.3H606.6V72.5999H633.4V88.5999H643V103.3H633.4V119.3H614.2ZM222.9 168.6H232.5V120.6H240.1V136.6H280.5V120.6H299.7V71.2999H280.5V55.2999H240.1V71.2999H232.5V55.2999H211.3V168.6H222.9ZM232.5 88.5999H251.7V72.5999H278.5V119.3H251.7V103.3H232.5V88.5999ZM971.2 195.6H980.8V178.3H959.6V195.6H971.2ZM182.5 226.3H163.3V242.3H146.1V226.3H126.9V210.3H105.7V227.6H124.9V243.6H144.1V258.3H124.9V274.3H105.7V291.6H126.9V275.6H146.1V259.6H163.3V275.6H182.5V291.6H203.7V274.3H184.5V258.3H165.3V243.6H184.5V227.6H203.7V210.3H182.5V226.3ZM587.4 210.3H527.8V227.6H575.8V242.3H527.8V258.3H508.6V275.6H527.8V291.6H597V226.3H587.4V210.3ZM575.8 274.3H529.9V259.6H575.8V274.3ZM786.9 210.3H777.3V242.3H767.7V258.3H731.3V210.3H710.1V259.6H729.3V275.6H769.7V259.6H777.3V306.3H731.4V290.3H710.2V307.6H729.4V323.6H789V307.6H798.6V210.3H787H786.9ZM374.4 226.3H366.8V210.3H307.2V227.6H364.8V242.3H307.2V258.3H288V275.6H307.2V291.6H386V226.3H374.4ZM364.8 274.3H309.3V259.6H364.8V274.3ZM479.9 226.3H472.3V210.3H431.9V226.3H424.3V210.3H403.1V291.6H424.3V243.6H443.5V227.6H470.3V291.6H491.5V226.3H479.9ZM902 258.3H892.4V274.3H865.6V227.6H884.8V210.3H865.6V178.3H844.4V210.3H825.2V227.6H844.4V275.6H854V291.6H894.4V275.6H913.6V258.3H902ZM1038.4 258.3V227.6H1086.4V210.3H1026.8V226.3H1017.2V275.6H1026.8V291.6H1086.4V274.3H1038.4V258.3ZM9.8 291.6H59.8V275.6H67.4V291.6H88.6V210.3H67.4V258.3H48.2V274.3H21.4V210.3H0.2V275.6H9.8V291.6ZM671.8 274.3H664.2V178.3H623.8V195.6H643V274.3H623.8V291.6H683.4V274.3H671.8ZM988.4 274.3H980.8V210.3H940.4V227.6H959.6V274.3H940.4V291.6H1000V274.3H988.4ZM222.9 307.6H280.5V290.3H211.3V307.6H222.9ZM316.5 323.1H309.5V320H298.2V323.2H290.5V323H280.2V319.8H269.3V323H261.4V319.8H250.2V332.2H242.5V323H211.6V323.2H202V332.3H193.9V323.1H174.6V319.9H153.8C153.8 320 146 320 146 320C146 319.9 135.1 319.9 135.1 319.9V332.3H127.2V319.7H115.8V323H105.9V332.2H98.1V323H88.6V319.8H77.3V323H38.8V332.2H31V323H21.3V319.8H10.4V320.5H0V337.4H11.7V337.2H19.5V337.4H28.9V339.3H40.9V337.4H50.3V337.2H58V337.4H78.7V337.2H86.7V337.4H96.1V339.3H108.1V337.4H117.5V337.2H124.9V339.3H136.9V337.2H153.8V337.4H184.5V337.2H192.1V339.3H204.1V337.4H232.5V337.2H240.1V339.3H252.1V337.4H270.9V337.2H278.7V337.4H290.7V337.2H307.5V337.4H319.1V337.2H329.1V322.9H316.8L316.5 323.1Z" fill="black"/>
</g>
<defs>
<clipPath id="clip0_2863_9262">
<rect width="1087" height="340" fill="white"/>
</clipPath>
</defs>
</svg>
