<?xml version="1.0" encoding="UTF-8"?>
<svg id="Layer_1" xmlns="http://www.w3.org/2000/svg" version="1.1" viewBox="0 0 4340 1900">
  <!-- Generator: Adobe Illustrator 29.4.0, SVG Export Plug-In . SVG Version: 2.1.0 Build 152)  -->
  <path d="M48,176.6c-8.7,0-15.8-2.5-21.1-7.4-5.2-4.9-7.8-12.3-7.8-22.2v-53.8h16.2v50.7c0,6.8,1.5,11.9,4.6,15.2,3.2,3.3,7.6,5,13.3,5s7-.9,9.9-2.7c3-1.9,5.3-4.5,6.9-7.7,1.7-3.2,2.6-6.8,2.6-10.7v-49.8h16v67c0,1.7.4,2.9,1.1,3.7.7.7,1.9,1.1,3.4,1.1s2.1-.1,3.2-.3c1.1-.2,2.2-.7,3.4-1.6v10.4c-1.4,1-3.1,1.7-5.3,2.2-2,.5-4.1.8-6.2.8-3.8,0-6.8-.5-8.8-1.6-1.9-1.2-3.3-2.8-4-4.8-.6-2-1.1-4.3-1.3-6.9-1.6,2.9-3.6,5.3-6.1,7.4-2.5,1.9-5.3,3.4-8.6,4.3-3.3,1.1-7,1.6-11.2,1.6ZM113.7,175l29.3-42.4-27.5-39.4h19l19,28.5h.3l19.4-28.5h17.4l-27.5,39.7,29.1,42.1h-18.9l-20.8-31.2h-.3l-21,31.2h-17.6ZM249.1,176.6c-5,0-9.8-1-14.2-2.9-4.4-1.9-8.2-4.6-11.5-8.2-3.2-3.6-5.7-7.9-7.5-12.8-1.8-5-2.7-10.6-2.7-16.8v-3.8c0-6.2.9-11.7,2.7-16.6,1.8-5,4.3-9.3,7.5-12.8,3.3-3.6,7.1-6.3,11.5-8.2,4.4-1.9,9.2-2.9,14.4-2.9h1.9c6.6,0,12.4,1.4,17.4,4.2,5,2.7,9,6.5,11.8,11.5,2.9,4.9,4.3,10.9,4.3,17.9h-14.4c0-5.2-.9-9.4-2.6-12.6-1.7-3.3-4.1-5.7-7-7.2-2.9-1.6-6.3-2.4-10.2-2.4-5.8,0-10.7,2.1-14.7,6.4-3.9,4.2-5.9,10.6-5.9,19.4v10.7c0,8.4,1.9,14.8,5.8,19.2,3.9,4.4,9.1,6.6,15.4,6.6s7.2-.7,10.1-2.2c3-1.6,5.3-4,6.9-7.2,1.7-3.3,2.6-7.6,2.6-12.8h14.2c0,7.1-1.5,13.2-4.5,18.2-2.9,5-6.9,8.9-12,11.5-5,2.6-10.8,3.8-17.3,3.8h-1.9ZM337.5,176.6c-8.4,0-14.9-2-19.5-5.9-4.5-3.9-6.7-9.8-6.7-17.4s1.7-11.5,5.1-15.4c3.5-3.9,9.1-6.8,16.8-8.6,7.8-1.8,18-2.7,30.7-2.7v-9c0-5.1-1.3-8.9-4-11.2-2.6-2.3-6.9-3.5-13.1-3.5s-10,1.2-13.1,3.5c-3.1,2.3-4.6,5.7-4.6,9.9v1.9h-14.7c-.2-1.7-.4-2.8-.5-3.4,0-.5,0-.7,0-.6v.5c.1.2.2.2.2,0,0-7,3-12.6,9-16.8,6.1-4.2,14.2-6.2,24.3-6.2s18.9,2.1,24.3,6.2c5.5,4.2,8.3,10.5,8.3,19v43.4c0,1.7.4,2.9,1.3,3.7.9.7,2,1.1,3.4,1.1,2.5,0,4.6-.6,6.4-1.9v10.4c-1.4,1-3.1,1.7-5.1,2.2-2,.5-4.2.8-6.4.8-3.2,0-5.8-.4-7.8-1.3-2-.7-3.5-2.1-4.5-4-1-1.9-1.6-4.6-1.9-8-1.8,3.3-4.2,6-7,8-2.9,1.9-6.1,3.3-9.6,4-3.5.9-7.2,1.3-11,1.3ZM342.5,165.2c4.9,0,8.9-1.1,12-3.2,3.2-2.1,5.5-5,7-8.6,1.6-3.6,2.4-7.7,2.4-12.2v-5c-9.2,0-16.5.5-21.9,1.6-5.3,1-9.2,2.6-11.5,5-2.2,2.2-3.4,5.4-3.4,9.6s1.2,7.5,3.7,9.6c2.6,2.1,6.5,3.2,11.7,3.2ZM406.9,175v-81.8h9.4l1.6,9.1c1.6-3.5,3.8-6.2,6.7-8,3-1.8,6.2-2.7,9.6-2.7s6.8,1,9.6,2.9c2.9,1.9,5,4.7,6.4,8.5,1.9-3.7,4.3-6.6,7-8.5,2.9-1.9,6.4-2.9,10.6-2.9s10.3,1.9,13.4,5.6c3.2,3.7,4.8,9.1,4.8,16v61.8h-13.8v-58.9c0-8-3-12-9-12s-5.3,1.1-7.2,3.4c-1.9,2.2-2.9,5.1-2.9,8.6v58.9h-13.6v-58.9c0-8-3.1-12-9.3-12s-5.3,1.1-7.2,3.4c-1.8,2.2-2.7,5.1-2.7,8.6v58.9h-13.6ZM510.8,204v-110.7h13l1.8,11.7c2.3-4.4,5.7-7.7,9.9-9.9,4.4-2.2,9.5-3.4,15.5-3.4s11.7,1.5,16.5,4.5c4.9,2.9,8.7,7.4,11.5,13.4,2.9,6.1,4.3,14,4.3,23.7v2.1c0,9-1.5,16.5-4.5,22.7-3,6.1-7,10.7-12,13.9-4.9,3.1-10.4,4.6-16.5,4.6s-10.2-1-14.2-3c-3.9-2-7-4.5-9.3-7.5v37.9h-16ZM547.2,165.1c5.9,0,10.7-2.1,14.4-6.4,3.7-4.3,5.6-10.9,5.6-19.8v-9.3c0-6.5-.9-11.7-2.7-15.5-1.8-3.8-4.3-6.6-7.4-8.3-3-1.8-6.3-2.7-9.9-2.7s-6.8.9-9.9,2.6c-3.1,1.6-5.6,4.4-7.5,8.3-1.9,3.8-2.9,9.1-2.9,15.7v9.3c0,9,1.9,15.6,5.8,19.8,3.8,4.3,8.7,6.4,14.6,6.4Z"/>
  <path d="M601,195.6v-11.5h80v11.5h-80Z"/>
  <path d="M728.4,175l-31.8-81.8h17.1l23.8,62.7h.5l23.8-62.7h15.7l-32.2,81.8h-17ZM831.3,175v-69.3h-29.3v-12.5h45.3v81.8h-16ZM802.1,175v-12.3h73v12.3h-73ZM830.7,76.4v-15.4h15v15.4h-15ZM932.7,176.6c-8.5,0-15.6-1.7-21.3-5.1-5.5-3.4-9.7-8.2-12.5-14.4-2.7-6.2-4-13.3-4-21.3v-3.4c0-8.3,1.5-15.5,4.6-21.6,3.1-6.1,7.5-10.8,13.3-14.1,5.8-3.4,12.6-5.1,20.5-5.1s13.7,1.5,18.9,4.5c5.3,3,9.4,7,12.3,12.2,3,5.1,4.5,11,4.5,17.6v10.9h-57.4v2.7c0,8.4,2,14.8,6.1,19.2,4.1,4.4,9.2,6.6,15.4,6.6s12-1.7,15.5-5c3.6-3.3,5.4-8.4,5.4-15.4h15c0,6.5-1.5,12.2-4.6,17-3,4.7-7.2,8.3-12.6,10.9-5.3,2.6-11.7,3.8-19,3.8ZM911.8,126.4h41.6v-2.4c0-4.1-.9-7.6-2.6-10.7-1.6-3.2-3.9-5.7-7-7.5-3.1-1.8-6.7-2.7-10.7-2.7s-8.5,1.1-11.7,3.4c-3.1,2.2-5.5,5.1-7.2,8.6-1.6,3.4-2.4,6.9-2.4,10.6v.8ZM1045.4,176.6c-9.6,0-17.2-2.1-22.9-6.2-5.7-4.3-8.5-11.2-8.5-20.8v-43.8h-23.7v-12.5h24.2l5.6-26.1h9.9v26.1h37v12.5h-37v42.6c0,3.6.8,6.6,2.2,9,1.5,2.3,3.7,4.1,6.6,5.1s6.5,1.6,10.9,1.6,6.6-.4,9.4-1.3c3-1,5.6-2,7.8-3v12.3c-2.6,1.5-5.8,2.6-9.8,3.4-3.9.9-7.9,1.3-11.8,1.3ZM1094.2,175v-81.8h13l1.6,11.7c2.4-4.6,5.9-7.9,10.4-10.1,4.5-2.1,9.4-3.2,14.9-3.2,9,0,16.1,2.5,21.4,7.5,5.3,5,8,12.4,8,22.2v53.6h-16v-49c0-7.7-1.6-13.3-4.8-16.8-3.1-3.5-7.5-5.3-13.1-5.3s-7.4,1-10.2,3c-2.9,1.9-5.1,4.6-6.7,8.2-1.6,3.4-2.4,7.4-2.4,11.8v48h-16ZM1215.2,176.6c-8.4,0-14.9-2-19.5-5.9-4.5-3.9-6.7-9.8-6.7-17.4s1.7-11.5,5.1-15.4c3.5-3.9,9.1-6.8,16.8-8.6,7.8-1.8,18-2.7,30.7-2.7v-9c0-5.1-1.3-8.9-4-11.2-2.6-2.3-6.9-3.5-13.1-3.5s-10,1.2-13.1,3.5c-3.1,2.3-4.6,5.7-4.6,9.9v1.9h-14.7c-.2-1.7-.4-2.8-.5-3.4,0-.5,0-.7,0-.6v.5c.1.2.2.2.2,0,0-7,3-12.6,9-16.8,6.1-4.2,14.2-6.2,24.3-6.2s18.9,2.1,24.3,6.2c5.5,4.2,8.3,10.5,8.3,19v43.4c0,1.7.4,2.9,1.3,3.7.8.7,2,1.1,3.4,1.1,2.4,0,4.6-.6,6.4-1.9v10.4c-1.4,1-3.1,1.7-5.1,2.2-2,.5-4.2.8-6.4.8-3.2,0-5.8-.4-7.8-1.3-2-.7-3.5-2.1-4.5-4-1-1.9-1.6-4.6-1.9-8-1.8,3.3-4.2,6-7,8-2.9,1.9-6.1,3.3-9.6,4-3.5.9-7.2,1.3-11,1.3ZM1220.2,165.2c4.9,0,8.9-1.1,12-3.2,3.2-2.1,5.5-5,7-8.6,1.6-3.6,2.4-7.7,2.4-12.2v-5c-9.2,0-16.5.5-21.9,1.6-5.3,1-9.2,2.6-11.5,5-2.2,2.2-3.4,5.4-3.4,9.6s1.2,7.5,3.7,9.6c2.6,2.1,6.4,3.2,11.7,3.2ZM1284.6,175v-81.8h9.4l1.6,9.1c1.6-3.5,3.8-6.2,6.7-8,3-1.8,6.2-2.7,9.6-2.7s6.8,1,9.6,2.9c2.9,1.9,5,4.7,6.4,8.5,1.9-3.7,4.3-6.6,7-8.5,2.9-1.9,6.4-2.9,10.6-2.9s10.3,1.9,13.4,5.6c3.2,3.7,4.8,9.1,4.8,16v61.8h-13.8v-58.9c0-8-3-12-9-12s-5.3,1.1-7.2,3.4c-1.9,2.2-2.9,5.1-2.9,8.6v58.9h-13.6v-58.9c0-8-3.1-12-9.3-12s-5.3,1.1-7.2,3.4c-1.8,2.2-2.7,5.1-2.7,8.6v58.9h-13.6Z"/>
  <path d="M64.6,468h47.4v48h-48v-48h.6Z"/>
  <path d="M128.6,468h47.4v48h-48v-48h.6Z"/>
  <path d="M192.6,468h47.4v48h-48v-48h.6Z"/>
  <path d="M256.6,532h47.4v48h-48v-48h.6Z"/>
  <path d="M64.6,596h47.4v48h-48v-48h.6Z"/>
  <path d="M128.6,596h47.4v48h-48v-48h.6Z"/>
  <path d="M192.6,596h47.4v48h-48v-48h.6Z"/>
  <path d="M256.6,596h47.4v48h-48v-48h.6Z"/>
  <path d="M.6,660h47.4v48H0v-48h.6Z"/>
  <path d="M256.6,660h47.4v48h-48v-48h.6Z"/>
  <path d="M64.6,724h47.4v48h-48v-48h.6Z"/>
  <path d="M128.6,724h47.4v48h-48v-48h.6Z"/>
  <path d="M192.6,724h47.4v48h-48v-48h.6Z"/>
  <path d="M256.6,724h47.4v48h-48v-48h.6Z"/>
  <path d="M392.1,468h47.4v48h-48v-48h.6Z"/>
  <path d="M520.1,468h47.4v48h-48v-48h.6Z"/>
  <path d="M584.1,468h47.4v48h-48v-48h.6Z"/>
  <path d="M392.1,532h47.4v48h-48v-48h.6Z"/>
  <path d="M456.1,532h47.4v48h-48v-48h.6Z"/>
  <path d="M648.1,532h47.4v48h-48v-48h.6Z"/>
  <path d="M392.1,596h47.4v48h-48v-48h.6Z"/>
  <path d="M648.1,596h47.4v48h-48v-48h.6Z"/>
  <path d="M392.1,660h47.4v48h-48v-48h.6Z"/>
  <path d="M456.1,660h47.4v48h-48v-48h.6Z"/>
  <path d="M648.1,660h47.4v48h-48v-48h.6Z"/>
  <path d="M392.1,724h47.4v48h-48v-48h.6Z"/>
  <path d="M520.1,724h47.4v48h-48v-48h.6Z"/>
  <path d="M584.1,724h47.4v48h-48v-48h.6Z"/>
  <path d="M392.1,788h47.4v48h-48v-48h.6Z"/>
  <path d="M392.1,852h47.4v48h-48v-48h.6Z"/>
  <path d="M783.5,468h47.4v48h-48v-48h.6Z"/>
  <path d="M911.5,468h47.4v48h-48v-48h.6Z"/>
  <path d="M975.5,468h47.4v48h-48v-48h.6Z"/>
  <path d="M783.5,532h47.4v48h-48v-48h.6Z"/>
  <path d="M847.5,532h47.4v48h-48v-48h.6Z"/>
  <path d="M1039.5,532h47.4v48h-48v-48h.6Z"/>
  <path d="M783.5,596h47.4v48h-48v-48h.6Z"/>
  <path d="M1039.5,596h47.4v48h-48v-48h.6Z"/>
  <path d="M783.5,660h47.4v48h-48v-48h.6Z"/>
  <path d="M847.5,660h47.4v48h-48v-48h.6Z"/>
  <path d="M1039.5,660h47.4v48h-48v-48h.6Z"/>
  <path d="M783.5,724h47.4v48h-48v-48h.6Z"/>
  <path d="M911.5,724h47.4v48h-48v-48h.6Z"/>
  <path d="M975.5,724h47.4v48h-48v-48h.6Z"/>
  <path d="M783.5,788h47.4v48h-48v-48h.6Z"/>
  <path d="M783.5,852h47.4v48h-48v-48h.6Z"/>
  <path d="M1238.9,340h47.4v48h-48v-48h.6Z"/>
  <path d="M1302.9,340h47.4v48h-48v-48h.6Z"/>
  <path d="M1302.9,404h47.4v48h-48v-48h.6Z"/>
  <path d="M1302.9,468h47.4v48h-48v-48h.6Z"/>
  <path d="M1302.9,532h47.4v48h-48v-48h.6Z"/>
  <path d="M1302.9,596h47.4v48h-48v-48h.6Z"/>
  <path d="M1302.9,660h47.4v48h-48v-48h.6Z"/>
  <path d="M1238.9,724h47.4v48h-48v-48h.6Z"/>
  <path d="M1302.9,724h47.4v48h-48v-48h.6Z"/>
  <path d="M1366.9,724h47.4v48h-48v-48h.6Z"/>
  <path d="M1694.4,340h47.4v48h-48v-48h.6Z"/>
  <path d="M1630.4,468h47.4v48h-48v-48h.6Z"/>
  <path d="M1694.4,468h47.4v48h-48v-48h.6Z"/>
  <path d="M1694.4,532h47.4v48h-48v-48h.6Z"/>
  <path d="M1694.4,596h47.4v48h-48v-48h.6Z"/>
  <path d="M1694.4,660h47.4v48h-48v-48h.6Z"/>
  <path d="M1630.4,724h47.4v48h-48v-48h.6Z"/>
  <path d="M1694.4,724h47.4v48h-48v-48h.6Z"/>
  <path d="M1758.4,724h47.4v48h-48v-48h.6Z"/>
  <path d="M2021.8,468h47.4v48h-48v-48h.6Z"/>
  <path d="M2085.8,468h47.4v48h-48v-48h.6Z"/>
  <path d="M2149.8,468h47.4v48h-48v-48h.6Z"/>
  <path d="M1957.8,532h47.4v48h-48v-48h.6Z"/>
  <path d="M2213.8,532h47.4v48h-48v-48h.6Z"/>
  <path d="M1957.8,596h47.4v48h-48v-48h.6Z"/>
  <path d="M2021.8,596h47.4v48h-48v-48h.6Z"/>
  <path d="M2085.8,596h47.4v48h-48v-48h.6Z"/>
  <path d="M2149.8,596h47.4v48h-48v-48h.6Z"/>
  <path d="M2213.8,596h47.4v48h-48v-48h.6Z"/>
  <path d="M1957.8,660h47.4v48h-48v-48h.6Z"/>
  <path d="M2021.8,724h47.4v48h-48v-48h.6Z"/>
  <path d="M2085.8,724h47.4v48h-48v-48h.6Z"/>
  <path d="M2149.8,724h47.4v48h-48v-48h.6Z"/>
  <path d="M2605.2,340h47.4v48h-48v-48h.6Z"/>
  <path d="M2605.2,404h47.4v48h-48v-48h.6Z"/>
  <path d="M2413.2,468h47.4v48h-48v-48h.6Z"/>
  <path d="M2477.2,468h47.4v48h-48v-48h.6Z"/>
  <path d="M2605.2,468h47.4v48h-48v-48h.6Z"/>
  <path d="M2349.2,532h47.4v48h-48v-48h.6Z"/>
  <path d="M2541.2,532h47.4v48h-48v-48h.6Z"/>
  <path d="M2605.2,532h47.4v48h-48v-48h.6Z"/>
  <path d="M2349.2,596h47.4v48h-48v-48h.6Z"/>
  <path d="M2605.2,596h47.4v48h-48v-48h.6Z"/>
  <path d="M2349.2,660h47.4v48h-48v-48h.6Z"/>
  <path d="M2541.2,660h47.4v48h-48v-48h.6Z"/>
  <path d="M2605.2,660h47.4v48h-48v-48h.6Z"/>
  <path d="M2413.2,724h47.4v48h-48v-48h.6Z"/>
  <path d="M2477.2,724h47.4v48h-48v-48h.6Z"/>
  <path d="M2605.2,724h47.4v48h-48v-48h.6Z"/>
  <path d="M.6,1128h47.4v48H0v-48h.6Z"/>
  <path d="M256.6,1128h47.4v48h-48v-48h.6Z"/>
  <path d="M.6,1192h47.4v48H0v-48h.6Z"/>
  <path d="M256.6,1192h47.4v48h-48v-48h.6Z"/>
  <path d="M.6,1256h47.4v48H0v-48h.6Z"/>
  <path d="M256.6,1256h47.4v48h-48v-48h.6Z"/>
  <path d="M.6,1320h47.4v48H0v-48h.6Z"/>
  <path d="M192.6,1320h47.4v48h-48v-48h.6Z"/>
  <path d="M256.6,1320h47.4v48h-48v-48h.6Z"/>
  <path d="M64.6,1384h47.4v48h-48v-48h.6Z"/>
  <path d="M128.6,1384h47.4v48h-48v-48h.6Z"/>
  <path d="M256.6,1384h47.4v48h-48v-48h.6Z"/>
  <path d="M392.1,1128h47.4v48h-48v-48h.6Z"/>
  <path d="M648.1,1128h47.4v48h-48v-48h.6Z"/>
  <path d="M456.1,1192h47.4v48h-48v-48h.6Z"/>
  <path d="M584.1,1192h47.4v48h-48v-48h.6Z"/>
  <path d="M520.1,1256h47.4v48h-48v-48h.6Z"/>
  <path d="M456.1,1320h47.4v48h-48v-48h.6Z"/>
  <path d="M584.1,1320h47.4v48h-48v-48h.6Z"/>
  <path d="M392.1,1384h47.4v48h-48v-48h.6Z"/>
  <path d="M648.1,1384h47.4v48h-48v-48h.6Z"/>
  <path d="M783.5,1448h47.4v48h-48v-48h.6Z"/>
  <path d="M847.5,1448h47.4v48h-48v-48h.6Z"/>
  <path d="M911.5,1448h47.4v48h-48v-48h.6Z"/>
  <path d="M975.5,1448h47.4v48h-48v-48h.6Z"/>
  <path d="M1039.5,1448h47.4v48h-48v-48h.6Z"/>
  <path d="M1238.9,1128h47.4v48h-48v-48h.6Z"/>
  <path d="M1302.9,1128h47.4v48h-48v-48h.6Z"/>
  <path d="M1366.9,1128h47.4v48h-48v-48h.6Z"/>
  <path d="M1430.9,1192h47.4v48h-48v-48h.6Z"/>
  <path d="M1238.9,1256h47.4v48h-48v-48h.6Z"/>
  <path d="M1302.9,1256h47.4v48h-48v-48h.6Z"/>
  <path d="M1366.9,1256h47.4v48h-48v-48h.6Z"/>
  <path d="M1430.9,1256h47.4v48h-48v-48h.6Z"/>
  <path d="M1174.9,1320h47.4v48h-48v-48h.6Z"/>
  <path d="M1430.9,1320h47.4v48h-48v-48h.6Z"/>
  <path d="M1238.9,1384h47.4v48h-48v-48h.6Z"/>
  <path d="M1302.9,1384h47.4v48h-48v-48h.6Z"/>
  <path d="M1366.9,1384h47.4v48h-48v-48h.6Z"/>
  <path d="M1430.9,1384h47.4v48h-48v-48h.6Z"/>
  <path d="M1566.4,1128h47.4v48h-48v-48h.6Z"/>
  <path d="M1694.4,1128h47.4v48h-48v-48h.6Z"/>
  <path d="M1758.4,1128h47.4v48h-48v-48h.6Z"/>
  <path d="M1566.4,1192h47.4v48h-48v-48h.6Z"/>
  <path d="M1630.4,1192h47.4v48h-48v-48h.6Z"/>
  <path d="M1822.4,1192h47.4v48h-48v-48h.6Z"/>
  <path d="M1566.4,1256h47.4v48h-48v-48h.6Z"/>
  <path d="M1822.4,1256h47.4v48h-48v-48h.6Z"/>
  <path d="M1566.4,1320h47.4v48h-48v-48h.6Z"/>
  <path d="M1822.4,1320h47.4v48h-48v-48h.6Z"/>
  <path d="M1566.4,1384h47.4v48h-48v-48h.6Z"/>
  <path d="M1822.4,1384h47.4v48h-48v-48h.6Z"/>
  <path d="M2021.8,1128h47.4v48h-48v-48h.6Z"/>
  <path d="M2085.8,1128h47.4v48h-48v-48h.6Z"/>
  <path d="M2149.8,1128h47.4v48h-48v-48h.6Z"/>
  <path d="M2213.8,1192h47.4v48h-48v-48h.6Z"/>
  <path d="M2021.8,1256h47.4v48h-48v-48h.6Z"/>
  <path d="M2085.8,1256h47.4v48h-48v-48h.6Z"/>
  <path d="M2149.8,1256h47.4v48h-48v-48h.6Z"/>
  <path d="M2213.8,1256h47.4v48h-48v-48h.6Z"/>
  <path d="M1957.8,1320h47.4v48h-48v-48h.6Z"/>
  <path d="M2213.8,1320h47.4v48h-48v-48h.6Z"/>
  <path d="M2021.8,1384h47.4v48h-48v-48h.6Z"/>
  <path d="M2085.8,1384h47.4v48h-48v-48h.6Z"/>
  <path d="M2149.8,1384h47.4v48h-48v-48h.6Z"/>
  <path d="M2213.8,1384h47.4v48h-48v-48h.6Z"/>
  <path d="M2413.2,1000h47.4v48h-48v-48h.6Z"/>
  <path d="M2477.2,1000h47.4v48h-48v-48h.6Z"/>
  <path d="M2477.2,1064h47.4v48h-48v-48h.6Z"/>
  <path d="M2477.2,1128h47.4v48h-48v-48h.6Z"/>
  <path d="M2477.2,1192h47.4v48h-48v-48h.6Z"/>
  <path d="M2477.2,1256h47.4v48h-48v-48h.6Z"/>
  <path d="M2477.2,1320h47.4v48h-48v-48h.6Z"/>
  <path d="M2413.2,1384h47.4v48h-48v-48h.6Z"/>
  <path d="M2477.2,1384h47.4v48h-48v-48h.6Z"/>
  <path d="M2541.2,1384h47.4v48h-48v-48h.6Z"/>
  <path d="M2740.6,1128h47.4v48h-48v-48h.6Z"/>
  <path d="M2996.6,1128h47.4v48h-48v-48h.6Z"/>
  <path d="M2740.6,1192h47.4v48h-48v-48h.6Z"/>
  <path d="M2996.6,1192h47.4v48h-48v-48h.6Z"/>
  <path d="M2740.6,1256h47.4v48h-48v-48h.6Z"/>
  <path d="M2932.6,1256h47.4v48h-48v-48h.6Z"/>
  <path d="M2996.6,1256h47.4v48h-48v-48h.6Z"/>
  <path d="M2804.6,1320h47.4v48h-48v-48h.6Z"/>
  <path d="M2868.6,1320h47.4v48h-48v-48h.6Z"/>
  <path d="M2996.6,1320h47.4v48h-48v-48h.6Z"/>
  <path d="M2996.6,1384h47.4v48h-48v-48h.6Z"/>
  <path d="M2740.6,1448h47.4v48h-48v-48h.6Z"/>
  <path d="M2996.6,1448h47.4v48h-48v-48h.6Z"/>
  <path d="M2804.6,1512h47.4v48h-48v-48h.6Z"/>
  <path d="M2868.6,1512h47.4v48h-48v-48h.6Z"/>
  <path d="M2932.6,1512h47.4v48h-48v-48h.6Z"/>
  <path d="M3196.1,1000h47.4v48h-48v-48h.6Z"/>
  <path d="M3196.1,1064h47.4v48h-48v-48h.6Z"/>
  <path d="M3132.1,1128h47.4v48h-48v-48h.6Z"/>
  <path d="M3196.1,1128h47.4v48h-48v-48h.6Z"/>
  <path d="M3260.1,1128h47.4v48h-48v-48h.6Z"/>
  <path d="M3324.1,1128h47.4v48h-48v-48h.6Z"/>
  <path d="M3196.1,1192h47.4v48h-48v-48h.6Z"/>
  <path d="M3196.1,1256h47.4v48h-48v-48h.6Z"/>
  <path d="M3196.1,1320h47.4v48h-48v-48h.6Z"/>
  <path d="M3388.1,1320h47.4v48h-48v-48h.6Z"/>
  <path d="M3260.1,1384h47.4v48h-48v-48h.6Z"/>
  <path d="M3324.1,1384h47.4v48h-48v-48h.6Z"/>
  <path d="M3651.5,1000h47.4v48h-48v-48h.6Z"/>
  <path d="M3587.5,1128h47.4v48h-48v-48h.6Z"/>
  <path d="M3651.5,1128h47.4v48h-48v-48h.6Z"/>
  <path d="M3651.5,1192h47.4v48h-48v-48h.6Z"/>
  <path d="M3651.5,1256h47.4v48h-48v-48h.6Z"/>
  <path d="M3651.5,1320h47.4v48h-48v-48h.6Z"/>
  <path d="M3587.5,1384h47.4v48h-48v-48h.6Z"/>
  <path d="M3651.5,1384h47.4v48h-48v-48h.6Z"/>
  <path d="M3715.5,1384h47.4v48h-48v-48h.6Z"/>
  <path d="M3978.9,1128h47.4v48h-48v-48h.6Z"/>
  <path d="M4042.9,1128h47.4v48h-48v-48h.6Z"/>
  <path d="M4106.9,1128h47.4v48h-48v-48h.6Z"/>
  <path d="M3914.9,1192h47.4v48h-48v-48h.6Z"/>
  <path d="M3914.9,1256h47.4v48h-48v-48h.6Z"/>
  <path d="M3914.9,1320h47.4v48h-48v-48h.6Z"/>
  <path d="M3978.9,1384h47.4v48h-48v-48h.6Z"/>
  <path d="M4042.9,1384h47.4v48h-48v-48h.6Z"/>
  <path d="M4106.9,1384h47.4v48h-48v-48h.6Z"/>
  <path d="M80.1,1836.6c-5.4,0-10.3-1.1-14.7-3.4-4.4-2.2-7.8-5.6-10.4-9.9l-1.4,11.7h-13v-115.2h16v43.4c2.3-3.7,5.5-6.6,9.6-8.5,4.2-2,9-3,14.4-3s13,1.7,17.8,5.1,8.4,8.2,10.9,14.2c2.6,6,3.8,13,3.8,21v2.2c0,8.8-1.4,16.3-4.2,22.7-2.8,6.3-6.6,11.1-11.5,14.6-4.9,3.4-10.7,5.1-17.3,5.1ZM76.9,1825.1c5.9,0,10.7-2.1,14.4-6.4,3.7-4.4,5.6-11.3,5.6-20.8v-9.3c0-8.4-1.9-14.8-5.6-19-3.7-4.4-8.5-6.6-14.4-6.6s-10.7,2.2-14.6,6.6c-3.8,4.3-5.8,10.6-5.8,19v9.3c0,9.5,1.9,16.4,5.8,20.8,3.8,4.3,8.7,6.4,14.6,6.4ZM171.9,1836.6c-8.5,0-15.6-1.7-21.3-5.1-5.5-3.4-9.7-8.2-12.5-14.4-2.7-6.2-4-13.3-4-21.3v-3.4c0-8.3,1.5-15.5,4.6-21.6,3.1-6.1,7.5-10.8,13.3-14.1,5.8-3.4,12.6-5.1,20.5-5.1s13.7,1.5,18.9,4.5c5.3,3,9.4,7,12.3,12.2,3,5.1,4.5,11,4.5,17.6v10.9h-57.4v2.7c0,8.4,2,14.8,6.1,19.2,4.1,4.4,9.2,6.6,15.4,6.6s12-1.7,15.5-5c3.6-3.3,5.4-8.4,5.4-15.4h15c0,6.5-1.5,12.2-4.6,17-3,4.7-7.2,8.3-12.6,10.9-5.3,2.6-11.7,3.8-19,3.8ZM150.9,1786.4h41.6v-2.4c0-4-.9-7.6-2.6-10.7-1.6-3.2-3.9-5.7-7-7.5-3.1-1.8-6.7-2.7-10.7-2.7s-8.5,1.1-11.7,3.4c-3.1,2.2-5.5,5.1-7.2,8.6-1.6,3.4-2.4,6.9-2.4,10.6v.8ZM235.5,1835v-115.2h16v44.3c2.8-4.2,6.4-7.2,10.9-9.3,4.5-2.1,9.1-3.2,13.9-3.2s10.3,1.1,14.6,3.2c4.4,2.1,7.8,5.3,10.2,9.6,2.5,4.3,3.7,9.7,3.7,16.2v54.4h-16v-50.9c0-6.7-1.6-11.7-4.8-15-3.2-3.4-7.6-5.1-13.1-5.1s-6.9.9-9.9,2.7c-3,1.7-5.3,4.1-7,7.2-1.6,3-2.4,6.4-2.4,10.2v50.9h-16ZM356.5,1836.6c-8.4,0-14.9-2-19.5-5.9-4.5-4-6.7-9.8-6.7-17.4s1.7-11.5,5.1-15.4c3.5-3.9,9.1-6.8,16.8-8.6,7.8-1.8,18-2.7,30.7-2.7v-9c0-5.1-1.3-8.9-4-11.2-2.6-2.3-6.9-3.5-13.1-3.5s-10,1.2-13.1,3.5c-3.1,2.3-4.6,5.7-4.6,9.9v1.9h-14.7c-.2-1.7-.4-2.8-.5-3.4,0-.5,0-.8,0-.6v.5c.1.2.2.2.2,0,0-7,3-12.6,9-16.8,6.1-4.2,14.2-6.2,24.3-6.2s18.9,2.1,24.3,6.2c5.5,4.2,8.3,10.5,8.3,19v43.4c0,1.7.4,2.9,1.3,3.7.9.8,2,1.1,3.4,1.1,2.5,0,4.6-.6,6.4-1.9v10.4c-1.4,1-3.1,1.7-5.1,2.2-2,.5-4.2.8-6.4.8-3.2,0-5.8-.4-7.8-1.3-2-.8-3.5-2.1-4.5-4-1-1.9-1.6-4.6-1.9-8-1.8,3.3-4.2,6-7,8-2.9,1.9-6.1,3.2-9.6,4-3.5.9-7.2,1.3-11,1.3ZM361.5,1825.2c4.9,0,8.9-1.1,12-3.2,3.2-2.1,5.5-5,7-8.6,1.6-3.6,2.4-7.7,2.4-12.2v-5c-9.2,0-16.5.5-21.9,1.6-5.3,1-9.2,2.6-11.5,5-2.2,2.2-3.4,5.4-3.4,9.6s1.2,7.5,3.7,9.6c2.6,2.1,6.5,3.2,11.7,3.2ZM456.8,1835l-31.8-81.8h17.1l23.8,62.7h.5l23.8-62.7h15.7l-32.2,81.8h-17ZM559.8,1835v-69.3h-29.3v-12.5h45.3v81.8h-16ZM530.5,1835v-12.3h73v12.3h-73ZM559.1,1736.4v-15.4h15v15.4h-15ZM661.1,1836.6c-7.9,0-14.7-1.8-20.3-5.3-5.7-3.5-10-8.4-13-14.6-3-6.3-4.5-13.4-4.5-21.3v-2.7c0-8.1,1.5-15.2,4.5-21.4,3-6.2,7.3-11,13-14.4,5.7-3.5,12.4-5.3,20.2-5.3s14.8,1.8,20.5,5.3c5.7,3.5,10,8.4,13,14.6,3,6.2,4.5,13.3,4.5,21.3v2.7c0,8.1-1.5,15.2-4.5,21.4-3,6.2-7.3,11-13,14.6-5.7,3.4-12.4,5.1-20.3,5.1ZM661.1,1825.2c6.2,0,11.3-2.2,15.2-6.7,3.9-4.6,5.9-10.9,5.9-19v-10.7c0-8.1-2-14.4-5.9-18.9-3.9-4.6-9-6.9-15.2-6.9s-11.1,2.3-15.2,6.9c-3.9,4.5-5.9,10.8-5.9,18.9v10.7c0,8.1,2,14.5,5.9,19,4.1,4.5,9.1,6.7,15.2,6.7ZM739,1835v-69.3h-20.6v-12.5h33.6l.8,12c1.9-4.3,4.9-7.6,8.8-9.9,4.1-2.4,8.7-3.7,13.9-3.7,8,0,14.1,2.4,18.4,7.2,4.4,4.7,6.6,10.7,6.6,18.1s0,2.3-.2,3.4c0,1-.1,2.1-.3,3.5h-13.6v-3.4c0-2.9-.6-5.5-1.8-8-1.1-2.4-2.8-4.4-5.1-5.9-2.2-1.6-5.2-2.4-8.8-2.4s-6.5,1-9,3c-2.3,2-4.1,4.6-5.3,7.7-1.2,3.1-1.8,6.3-1.8,9.8v50.4h-15.7ZM717.6,1835v-12.3h73.8v12.3h-73.8ZM845.8,1836.6c-8.4,0-14.9-2-19.5-5.9-4.5-4-6.7-9.8-6.7-17.4s1.7-11.5,5.1-15.4c3.5-3.9,9.1-6.8,16.8-8.6,7.8-1.8,18-2.7,30.7-2.7v-9c0-5.1-1.3-8.9-4-11.2-2.6-2.3-6.9-3.5-13.1-3.5s-10,1.2-13.1,3.5c-3.1,2.3-4.6,5.7-4.6,9.9v1.9h-14.7c-.2-1.7-.4-2.8-.5-3.4,0-.5,0-.8,0-.6v.5c.1.2.2.2.2,0,0-7,3-12.6,9-16.8,6.1-4.2,14.2-6.2,24.3-6.2s18.9,2.1,24.3,6.2c5.5,4.2,8.3,10.5,8.3,19v43.4c0,1.7.4,2.9,1.3,3.7s2,1.1,3.4,1.1c2.5,0,4.6-.6,6.4-1.9v10.4c-1.4,1-3.1,1.7-5.1,2.2-2,.5-4.2.8-6.4.8-3.2,0-5.8-.4-7.8-1.3-2-.8-3.5-2.1-4.5-4s-1.6-4.6-1.9-8c-1.8,3.3-4.2,6-7,8-2.9,1.9-6.1,3.2-9.6,4-3.5.9-7.2,1.3-11,1.3ZM850.8,1825.2c4.9,0,8.9-1.1,12-3.2,3.2-2.1,5.5-5,7-8.6,1.6-3.6,2.4-7.7,2.4-12.2v-5c-9.2,0-16.5.5-21.9,1.6-5.3,1-9.2,2.6-11.5,5-2.2,2.2-3.4,5.4-3.4,9.6s1.2,7.5,3.7,9.6c2.6,2.1,6.5,3.2,11.7,3.2ZM948,1835v-102.9h-29.4v-12.5h45.3v115.4h-15.8ZM918.6,1835v-12.3h73.1v12.3h-73.1Z"/>
  <path d="M1011,1855.6v-11.5h80v11.5h-80Z"/>
  <path d="M1140.4,1836.6c-5.9,0-11.2-1.4-16.2-4.2-4.9-2.9-8.8-7.3-11.8-13.3-2.9-6.1-4.3-14-4.3-23.7v-1.8c0-9.1,1.4-16.8,4.3-23,2.9-6.3,6.8-11,11.7-14.2,5-3.2,10.6-4.8,16.6-4.8s10.2,1,14.2,3c4.1,1.9,7.2,4.6,9.4,8v-42.9h16v115.2h-13l-1.8-11.7c-2.3,4.3-5.7,7.6-9.9,9.9-4.3,2.2-9.4,3.4-15.4,3.4ZM1144.3,1825.1c5.9,0,10.7-2.1,14.4-6.4,3.8-4.4,5.8-11.1,5.8-20.2v-9c0-9-1.9-15.6-5.8-20-3.7-4.4-8.5-6.6-14.4-6.6s-10.7,2.2-14.6,6.7c-3.7,4.4-5.6,11-5.6,19.8v8.8c0,9.1,1.9,15.8,5.6,20.2,3.8,4.4,8.7,6.6,14.6,6.6ZM1244.9,1836.6c-8.5,0-15.6-1.7-21.3-5.1-5.5-3.4-9.7-8.2-12.5-14.4-2.7-6.2-4-13.3-4-21.3v-3.4c0-8.3,1.5-15.5,4.6-21.6,3.1-6.1,7.5-10.8,13.3-14.1,5.8-3.4,12.6-5.1,20.5-5.1s13.7,1.5,18.9,4.5c5.3,3,9.4,7,12.3,12.2,3,5.1,4.5,11,4.5,17.6v10.9h-57.4v2.7c0,8.4,2,14.8,6.1,19.2,4.1,4.4,9.2,6.6,15.4,6.6s12-1.7,15.5-5c3.6-3.3,5.4-8.4,5.4-15.4h15c0,6.5-1.6,12.2-4.6,17-3,4.7-7.2,8.3-12.6,10.9-5.3,2.6-11.7,3.8-19,3.8ZM1223.9,1786.4h41.6v-2.4c0-4-.9-7.6-2.6-10.7-1.6-3.2-3.9-5.7-7-7.5-3.1-1.8-6.7-2.7-10.7-2.7s-8.5,1.1-11.7,3.4c-3.1,2.2-5.5,5.1-7.2,8.6-1.6,3.4-2.4,6.9-2.4,10.6v.8ZM1341.1,1836.6c-5,0-9.8-1-14.2-2.9-4.4-1.9-8.2-4.6-11.5-8.2-3.2-3.6-5.7-7.9-7.5-12.8-1.8-5-2.7-10.6-2.7-16.8v-3.8c0-6.2.9-11.7,2.7-16.6,1.8-5,4.3-9.3,7.5-12.8,3.3-3.6,7.2-6.4,11.5-8.2,4.4-1.9,9.2-2.9,14.4-2.9h1.9c6.6,0,12.4,1.4,17.5,4.2,5,2.7,9,6.5,11.8,11.5,2.9,4.9,4.3,10.9,4.3,17.9h-14.4c0-5.2-.8-9.4-2.6-12.6-1.7-3.3-4-5.7-7-7.2-2.9-1.6-6.3-2.4-10.2-2.4-5.8,0-10.7,2.1-14.7,6.4-3.9,4.2-5.9,10.6-5.9,19.4v10.7c0,8.4,1.9,14.8,5.8,19.2,3.9,4.4,9.1,6.6,15.4,6.6s7.2-.8,10.1-2.2c3-1.6,5.3-4,6.9-7.2,1.7-3.3,2.6-7.6,2.6-12.8h14.2c0,7.2-1.5,13.2-4.5,18.2-2.9,5-6.9,8.8-12,11.5-5,2.6-10.8,3.8-17.3,3.8h-1.9ZM1437.1,1835v-69.3h-29.3v-12.5h45.3v81.8h-16ZM1407.8,1835v-12.3h73v12.3h-73ZM1436.4,1736.4v-15.4h15v15.4h-15ZM1537.3,1836.6c-6.7,0-12.7-.9-17.9-2.7-5.1-1.9-9.2-4.6-12.2-8.2-2.9-3.6-4.3-7.9-4.3-12.8v-1.4c0-.6,0-1.3.2-2.1h13.8v1.6c0,4.5,1.9,8,5.8,10.6,4,2.4,9.6,3.7,16.8,3.7s11.4-1.1,14.7-3.4c3.4-2.3,5.1-5.4,5.1-9.1s-.7-4.5-2.1-6.1c-1.4-1.6-3.9-3-7.5-4.2-3.5-1.2-8.6-2.3-15.4-3.4-7.2-1.3-12.9-2.8-17.3-4.6-4.4-1.9-7.5-4.4-9.4-7.4-1.9-3.1-2.9-6.9-2.9-11.5s1.4-9.8,4.3-13.3,6.9-6.2,12-8c5.2-1.8,11.3-2.7,18.2-2.7s11.5.9,16.3,2.7c4.9,1.8,8.8,4.4,11.7,7.7,2.9,3.2,4.3,7.1,4.3,11.7v1.1c0,.4-.1,1-.3,1.8h-13.9c0-3.8-.9-6.7-2.7-8.6-1.7-2-4-3.4-7-4-2.9-.8-6.1-1.1-9.6-1.1-12.4,0-18.6,3.8-18.6,11.5s.6,3.7,1.9,5.1c1.3,1.3,3.6,2.5,6.9,3.5,3.4,1.1,8.3,2.2,14.6,3.4,7.8,1.4,13.9,3.1,18.4,5.1,4.6,2,7.9,4.6,9.9,7.8,2,3.1,3,7.2,3,12.2s-1.5,10.3-4.5,14.1c-2.9,3.7-7.1,6.5-12.6,8.3-5.4,1.8-12,2.7-19.7,2.7ZM1632.8,1835v-69.3h-29.3v-12.5h45.3v81.8h-16ZM1603.5,1835v-12.3h73v12.3h-73ZM1632.1,1736.4v-15.4h15v15.4h-15ZM1734.2,1836.6c-7.9,0-14.7-1.8-20.3-5.3-5.7-3.5-10-8.4-13-14.6-3-6.3-4.5-13.4-4.5-21.3v-2.7c0-8.1,1.5-15.2,4.5-21.4,3-6.2,7.3-11,13-14.4,5.7-3.5,12.4-5.3,20.2-5.3s14.8,1.8,20.5,5.3c5.7,3.5,10,8.4,13,14.6,3,6.2,4.5,13.3,4.5,21.3v2.7c0,8.1-1.5,15.2-4.5,21.4-3,6.2-7.3,11-13,14.6-5.7,3.4-12.4,5.1-20.3,5.1ZM1734.2,1825.2c6.2,0,11.2-2.2,15.2-6.7,3.9-4.6,5.9-10.9,5.9-19v-10.7c0-8.1-2-14.4-5.9-18.9-3.9-4.6-9-6.9-15.2-6.9s-11.2,2.3-15.2,6.9c-3.9,4.5-5.9,10.8-5.9,18.9v10.7c0,8.1,2,14.5,5.9,19,4.1,4.5,9.1,6.7,15.2,6.7ZM1797.8,1835v-81.8h13l1.6,11.7c2.5-4.6,5.9-8,10.4-10.1s9.4-3.2,14.9-3.2c9,0,16.1,2.5,21.4,7.5,5.3,5,8,12.4,8,22.2v53.6h-16v-49c0-7.7-1.6-13.3-4.8-16.8-3.1-3.5-7.5-5.3-13.1-5.3s-7.4,1-10.2,3c-2.9,1.9-5.1,4.6-6.7,8.2-1.6,3.4-2.4,7.4-2.4,11.8v48h-16Z"/>
  <path d="M1888,1855.6v-11.5h80v11.5h-80Z"/>
  <path d="M1984.5,1835v-81.8h9.4l1.6,9.1c1.6-3.5,3.8-6.2,6.7-8,3-1.8,6.2-2.7,9.6-2.7s6.8,1,9.6,2.9c2.9,1.9,5,4.8,6.4,8.5,1.9-3.7,4.3-6.6,7-8.5,2.9-1.9,6.4-2.9,10.6-2.9s10.4,1.9,13.4,5.6c3.2,3.7,4.8,9.1,4.8,16v61.8h-13.8v-58.9c0-8-3-12-9-12s-5.3,1.1-7.2,3.4-2.9,5.1-2.9,8.6v58.9h-13.6v-58.9c0-8-3.1-12-9.3-12s-5.3,1.1-7.2,3.4c-1.8,2.2-2.7,5.1-2.7,8.6v58.9h-13.6ZM2110.8,1836.6c-8.4,0-14.9-2-19.5-5.9-4.5-4-6.7-9.8-6.7-17.4s1.7-11.5,5.1-15.4c3.5-3.9,9.1-6.8,16.8-8.6,7.8-1.8,18-2.7,30.7-2.7v-9c0-5.1-1.3-8.9-4-11.2-2.6-2.3-6.9-3.5-13.1-3.5s-10,1.2-13.1,3.5c-3.1,2.3-4.6,5.7-4.6,9.9v1.9h-14.7c-.2-1.7-.4-2.8-.5-3.4,0-.5,0-.8,0-.6v.5c.1.2.2.2.2,0,0-7,3-12.6,9-16.8,6.1-4.2,14.2-6.2,24.3-6.2s18.9,2.1,24.3,6.2c5.5,4.2,8.3,10.5,8.3,19v43.4c0,1.7.4,2.9,1.3,3.7.9.8,2,1.1,3.4,1.1,2.4,0,4.6-.6,6.4-1.9v10.4c-1.4,1-3.1,1.7-5.1,2.2-2,.5-4.2.8-6.4.8-3.2,0-5.8-.4-7.8-1.3-2-.8-3.5-2.1-4.5-4-1-1.9-1.6-4.6-1.9-8-1.8,3.3-4.2,6-7,8-2.9,1.9-6.1,3.2-9.6,4-3.5.9-7.2,1.3-11,1.3ZM2115.8,1825.2c4.9,0,8.9-1.1,12-3.2,3.2-2.1,5.5-5,7-8.6,1.6-3.6,2.4-7.7,2.4-12.2v-5c-9.2,0-16.5.5-21.9,1.6-5.3,1-9.2,2.6-11.5,5-2.2,2.2-3.4,5.4-3.4,9.6s1.2,7.5,3.7,9.6c2.6,2.1,6.4,3.2,11.7,3.2ZM2184.4,1835v-115.2h16v78.2l37.8-44.8h18.9l-32.5,38.1,34.4,43.7h-19.5l-26.1-32.5-13,12.8v19.7h-16ZM2314.1,1835v-69.3h-29.3v-12.5h45.3v81.8h-16ZM2284.8,1835v-12.3h73v12.3h-73ZM2313.4,1736.4v-15.4h15v15.4h-15ZM2381.2,1835v-81.8h13l1.6,11.7c2.4-4.6,5.9-8,10.4-10.1s9.4-3.2,14.9-3.2c9,0,16.1,2.5,21.4,7.5s8,12.4,8,22.2v53.6h-16v-49c0-7.7-1.6-13.3-4.8-16.8-3.1-3.5-7.5-5.3-13.1-5.3s-7.4,1-10.2,3c-2.9,1.9-5.1,4.6-6.7,8.2-1.6,3.4-2.4,7.4-2.4,11.8v48h-16ZM2494.9,1865.1c-6.8,0-12.1-1.9-15.8-5.6-3.7-3.7-5.6-8.3-5.6-13.8s1.1-7.7,3.4-10.9c2.2-3.2,5.1-5.5,8.6-7-2.3-1.5-4.2-3.5-5.6-5.9-1.3-2.4-1.9-5.1-1.9-7.8s1.2-7.1,3.7-10.1c2.4-3,5.8-4.9,10.1-5.8-3.8-2.2-6.7-5.1-8.6-8.6-1.9-3.5-2.9-7.6-2.9-12.2,0-8,2.8-14.3,8.5-18.9,5.8-4.6,14.2-6.9,25.4-6.9s11.9.9,16,2.7c4.3-1.2,7.5-3.2,9.6-5.9,2.2-2.9,3.5-6.2,3.8-9.9h13c0,5.3-1.6,9.9-4.6,13.6-3,3.6-6.9,6-11.8,7v.3c2.6,2,4.5,4.6,5.8,7.8,1.4,3.1,2.1,6.5,2.1,10.1,0,7.9-2.7,14.2-8.2,18.9-5.3,4.7-13.1,7-23.2,7h-13.1c-3.2,0-5.8.8-7.7,2.2-1.8,1.5-2.7,3.6-2.7,6.2s.9,4.8,2.7,6.2c1.8,1.4,4.3,2.1,7.5,2.1h29c7.6,0,13.5,2,17.8,5.9,4.4,3.8,6.6,9,6.6,15.4s-2.2,12.6-6.6,17c-4.3,4.5-10.3,6.7-18.2,6.7h-36.8ZM2499.4,1854.5h30.2c3.9,0,6.9-1.1,9-3.2,2-2,3-4.6,3-7.7s-1-5.5-3-7.5c-1.9-2-4.9-3-9-3h-30.2c-3.8,0-6.8,1-8.8,3-2,2.1-3,4.7-3,7.7s1,5.4,3,7.5c2,2.1,5,3.2,8.8,3.2ZM2514.2,1793.1c5.9,0,10.4-1.3,13.8-4,3.3-2.8,5-6.6,5-11.5s-1.7-8.9-5-11.5c-3.3-2.7-7.9-4-13.8-4s-10.4,1.3-13.8,4c-3.3,2.7-5,6.5-5,11.5s1.6,8.8,5,11.5c3.4,2.7,8,4,13.8,4Z"/>
  <path d="M2570,1855.6v-11.5h80v11.5h-80Z"/>
  <path d="M2694.3,1835v-69.3h-22.9v-12.5h22.9v-8.5c0-6,1.4-10.9,4.2-14.7,2.8-3.8,6.6-6.7,11.4-8.6,4.8-1.9,10.1-2.9,16-2.9s6.6.4,10.2,1.1c3.6.6,6.6,1.5,9,2.7v11.4c-2.1-.8-4.5-1.6-7-2.2-2.6-.8-5.3-1.1-8.2-1.1s-6.6.5-9.6,1.4c-3,.8-5.4,2.4-7.2,4.6-1.7,2.2-2.6,5.5-2.6,9.8v7h32.5v12.5h-32.5v69.3h-16.2ZM2671.3,1835v-12.3h72.6v12.3h-72.6ZM2803.9,1836.6c-7.9,0-14.7-1.8-20.3-5.3-5.7-3.5-10-8.4-13-14.6-3-6.3-4.5-13.4-4.5-21.3v-2.7c0-8.1,1.5-15.2,4.5-21.4,3-6.2,7.3-11,13-14.4,5.6-3.5,12.4-5.3,20.2-5.3s14.8,1.8,20.5,5.3c5.7,3.5,10,8.4,13,14.6,3,6.2,4.5,13.3,4.5,21.3v2.7c0,8.1-1.5,15.2-4.5,21.4-3,6.2-7.3,11-13,14.6-5.7,3.4-12.4,5.1-20.3,5.1ZM2803.9,1825.2c6.2,0,11.2-2.2,15.2-6.7,3.9-4.6,5.9-10.9,5.9-19v-10.7c0-8.1-2-14.4-5.9-18.9-3.9-4.6-9-6.9-15.2-6.9s-11.2,2.3-15.2,6.9c-3.9,4.5-5.9,10.8-5.9,18.9v10.7c0,8.1,2,14.5,5.9,19,4.1,4.5,9.1,6.7,15.2,6.7ZM2881.7,1835v-69.3h-20.6v-12.5h33.6l.8,12c1.9-4.3,4.9-7.6,8.8-9.9,4.1-2.4,8.7-3.7,13.9-3.7,8,0,14.1,2.4,18.4,7.2,4.4,4.7,6.6,10.7,6.6,18.1s0,2.3-.1,3.4c0,1-.1,2.1-.3,3.5h-13.6v-3.4c0-2.9-.6-5.5-1.8-8-1.1-2.4-2.8-4.4-5.1-5.9-2.2-1.6-5.2-2.4-8.8-2.4s-6.5,1-9,3c-2.3,2-4.1,4.6-5.3,7.7-1.2,3.1-1.8,6.3-1.8,9.8v50.4h-15.7ZM2860.3,1835v-12.3h73.8v12.3h-73.8Z"/>
  <path d="M2958,1855.6v-11.5h80v11.5h-80Z"/>
  <path d="M3060.6,1864v-110.7h13l1.8,11.7c2.3-4.4,5.6-7.7,9.9-9.9,4.4-2.2,9.6-3.4,15.5-3.4s11.7,1.5,16.5,4.5c4.9,2.9,8.8,7.4,11.5,13.4,2.9,6.1,4.3,14,4.3,23.7v2.1c0,9-1.5,16.5-4.5,22.7-3,6.1-7,10.7-12,13.9-4.9,3.1-10.4,4.6-16.5,4.6s-10.2-1-14.2-3c-4-2-7-4.5-9.3-7.5v37.9h-16ZM3096.9,1825.1c5.9,0,10.7-2.1,14.4-6.4,3.7-4.3,5.6-10.9,5.6-19.8v-9.3c0-6.5-.9-11.7-2.7-15.5-1.8-3.8-4.3-6.6-7.4-8.3-3-1.8-6.3-2.7-9.9-2.7s-6.8.8-9.9,2.6c-3.1,1.6-5.6,4.4-7.5,8.3-1.9,3.8-2.9,9.1-2.9,15.7v9.3c0,9,1.9,15.6,5.8,19.8,3.8,4.3,8.7,6.4,14.6,6.4ZM3171.9,1835v-69.3h-20.6v-12.5h33.6l.8,12c1.9-4.3,4.8-7.6,8.8-9.9,4.1-2.4,8.7-3.7,13.9-3.7,8,0,14.1,2.4,18.4,7.2,4.4,4.7,6.6,10.7,6.6,18.1s0,2.3-.2,3.4c0,1-.1,2.1-.3,3.5h-13.6v-3.4c0-2.9-.6-5.5-1.8-8-1.1-2.4-2.8-4.4-5.1-5.9-2.2-1.6-5.2-2.4-8.8-2.4s-6.5,1-9,3c-2.4,2-4.1,4.6-5.3,7.7-1.2,3.1-1.8,6.3-1.8,9.8v50.4h-15.7ZM3150.4,1835v-12.3h73.8v12.3h-73.8ZM3289.7,1836.6c-7.9,0-14.7-1.8-20.3-5.3-5.6-3.5-10-8.4-13-14.6-3-6.3-4.5-13.4-4.5-21.3v-2.7c0-8.1,1.5-15.2,4.5-21.4,3-6.2,7.3-11,13-14.4,5.7-3.5,12.4-5.3,20.2-5.3s14.8,1.8,20.5,5.3c5.7,3.5,10,8.4,13,14.6,3,6.2,4.5,13.3,4.5,21.3v2.7c0,8.1-1.5,15.2-4.5,21.4-3,6.2-7.3,11-13,14.6-5.7,3.4-12.4,5.1-20.3,5.1ZM3289.7,1825.2c6.2,0,11.3-2.2,15.2-6.7,4-4.6,5.9-10.9,5.9-19v-10.7c0-8.1-2-14.4-5.9-18.9-3.9-4.6-9-6.9-15.2-6.9s-11.1,2.3-15.2,6.9c-3.9,4.5-5.9,10.8-5.9,18.9v10.7c0,8.1,2,14.5,5.9,19,4.1,4.5,9.1,6.7,15.2,6.7ZM3381,1836.6c-5.9,0-11.2-1.4-16.2-4.2-4.9-2.9-8.9-7.3-11.8-13.3-2.9-6.1-4.3-14-4.3-23.7v-1.8c0-9.1,1.4-16.8,4.3-23,2.9-6.3,6.8-11,11.7-14.2,5-3.2,10.6-4.8,16.6-4.8s10.2,1,14.2,3c4.1,1.9,7.2,4.6,9.4,8v-42.9h16v115.2h-13l-1.8-11.7c-2.3,4.3-5.7,7.6-9.9,9.9-4.3,2.2-9.4,3.4-15.4,3.4ZM3384.9,1825.1c5.9,0,10.7-2.1,14.4-6.4,3.8-4.4,5.8-11.1,5.8-20.2v-9c0-9-1.9-15.6-5.8-20-3.7-4.4-8.5-6.6-14.4-6.6s-10.7,2.2-14.6,6.7c-3.7,4.4-5.6,11-5.6,19.8v8.8c0,9.1,1.9,15.8,5.6,20.2,3.8,4.4,8.7,6.6,14.6,6.6ZM3478.4,1836.6c-8.8,0-15.8-2.4-21.1-7.4-5.2-4.9-7.8-12.3-7.8-22.2v-53.8h16.2v50.7c0,6.8,1.5,11.9,4.6,15.2,3.2,3.3,7.6,5,13.3,5s7-.9,9.9-2.7c3-1.9,5.3-4.5,6.9-7.7,1.7-3.2,2.6-6.8,2.6-10.7v-49.8h16v67c0,1.7.4,2.9,1.1,3.7s1.9,1.1,3.4,1.1,2.1-.1,3.2-.3,2.2-.8,3.4-1.6v10.4c-1.4,1-3.1,1.7-5.3,2.2-2,.5-4.1.8-6.2.8-3.8,0-6.8-.5-8.8-1.6-1.9-1.2-3.2-2.8-4-4.8-.6-2-1.1-4.3-1.3-6.9-1.6,2.9-3.6,5.3-6.1,7.4-2.4,1.9-5.3,3.4-8.6,4.3-3.3,1.1-7,1.6-11.2,1.6ZM3581.7,1836.6c-5,0-9.8-1-14.2-2.9-4.4-1.9-8.2-4.6-11.5-8.2-3.2-3.6-5.7-7.9-7.5-12.8-1.8-5-2.7-10.6-2.7-16.8v-3.8c0-6.2.9-11.7,2.7-16.6,1.8-5,4.3-9.3,7.5-12.8,3.3-3.6,7.1-6.4,11.5-8.2,4.4-1.9,9.2-2.9,14.4-2.9h1.9c6.6,0,12.4,1.4,17.4,4.2,5,2.7,9,6.5,11.8,11.5,2.9,4.9,4.3,10.9,4.3,17.9h-14.4c0-5.2-.9-9.4-2.6-12.6-1.7-3.3-4.1-5.7-7-7.2-2.9-1.6-6.3-2.4-10.2-2.4-5.8,0-10.7,2.1-14.7,6.4-3.9,4.2-5.9,10.6-5.9,19.4v10.7c0,8.4,1.9,14.8,5.8,19.2,3.9,4.4,9.1,6.6,15.4,6.6s7.2-.8,10.1-2.2c3-1.6,5.3-4,6.9-7.2,1.7-3.3,2.6-7.6,2.6-12.8h14.2c0,7.2-1.5,13.2-4.5,18.2-2.9,5-6.9,8.8-12,11.5-5,2.6-10.8,3.8-17.3,3.8h-1.9ZM3696,1836.6c-9.6,0-17.2-2.1-22.9-6.2-5.7-4.3-8.5-11.2-8.5-20.8v-43.8h-23.7v-12.5h24.2l5.6-26.1h9.9v26.1h37v12.5h-37v42.6c0,3.6.7,6.6,2.2,9,1.5,2.3,3.7,4.1,6.6,5.1,2.9,1.1,6.5,1.6,10.9,1.6s6.6-.4,9.4-1.3c3-1,5.6-2,7.8-3v12.3c-2.6,1.5-5.8,2.6-9.8,3.4-4,.9-7.9,1.3-11.8,1.3Z"/>
  <path d="M3738,1855.6v-11.5h80v11.5h-80Z"/>
  <path d="M3888.9,1836.6c-9.6,0-17.2-2.1-22.9-6.2-5.6-4.3-8.5-11.2-8.5-20.8v-43.8h-23.7v-12.5h24.2l5.6-26.1h9.9v26.1h37v12.5h-37v42.6c0,3.6.8,6.6,2.2,9s3.7,4.1,6.6,5.1c2.9,1.1,6.5,1.6,10.9,1.6s6.6-.4,9.4-1.3c3-1,5.6-2,7.8-3v12.3c-2.6,1.5-5.8,2.6-9.8,3.4-3.9.9-7.9,1.3-11.8,1.3ZM3971.9,1836.6c-8.5,0-15.6-1.7-21.3-5.1-5.6-3.4-9.7-8.2-12.5-14.4-2.7-6.2-4-13.3-4-21.3v-3.4c0-8.3,1.5-15.5,4.6-21.6,3.1-6.1,7.5-10.8,13.3-14.1,5.8-3.4,12.6-5.1,20.5-5.1s13.6,1.5,18.9,4.5c5.3,3,9.4,7,12.3,12.2,3,5.1,4.5,11,4.5,17.6v10.9h-57.4v2.7c0,8.4,2,14.8,6.1,19.2,4.1,4.4,9.2,6.6,15.4,6.6s12-1.7,15.5-5c3.6-3.3,5.4-8.4,5.4-15.4h15c0,6.5-1.6,12.2-4.6,17-3,4.7-7.2,8.3-12.6,10.9-5.3,2.6-11.7,3.8-19,3.8ZM3950.9,1786.4h41.6v-2.4c0-4-.9-7.6-2.6-10.7-1.6-3.2-3.9-5.7-7-7.5-3.1-1.8-6.7-2.7-10.7-2.7s-8.5,1.1-11.7,3.4c-3.1,2.2-5.5,5.1-7.2,8.6-1.6,3.4-2.4,6.9-2.4,10.6v.8ZM4058.7,1836.6c-8.4,0-14.9-2-19.5-5.9-4.5-4-6.7-9.8-6.7-17.4s1.7-11.5,5.1-15.4c3.5-3.9,9.1-6.8,16.8-8.6,7.8-1.8,18-2.7,30.7-2.7v-9c0-5.1-1.3-8.9-4-11.2-2.6-2.3-6.9-3.5-13.1-3.5s-10,1.2-13.1,3.5c-3.1,2.3-4.6,5.7-4.6,9.9v1.9h-14.7c-.2-1.7-.4-2.8-.5-3.4,0-.5,0-.8,0-.6v.5c.1.2.2.2.2,0,0-7,3-12.6,9-16.8,6.1-4.2,14.2-6.2,24.3-6.2s18.9,2.1,24.3,6.2c5.5,4.2,8.3,10.5,8.3,19v43.4c0,1.7.4,2.9,1.3,3.7.9.8,2,1.1,3.4,1.1,2.4,0,4.6-.6,6.4-1.9v10.4c-1.4,1-3.1,1.7-5.1,2.2-2,.5-4.2.8-6.4.8-3.2,0-5.8-.4-7.8-1.3-2-.8-3.5-2.1-4.5-4-1-1.9-1.6-4.6-1.9-8-1.8,3.3-4.2,6-7,8-2.9,1.9-6.1,3.2-9.6,4-3.5.9-7.2,1.3-11,1.3ZM4063.6,1825.2c4.9,0,8.9-1.1,12-3.2,3.2-2.1,5.6-5,7-8.6,1.6-3.6,2.4-7.7,2.4-12.2v-5c-9.2,0-16.5.5-21.9,1.6-5.3,1-9.2,2.6-11.5,5-2.2,2.2-3.4,5.4-3.4,9.6s1.2,7.5,3.7,9.6c2.6,2.1,6.5,3.2,11.7,3.2ZM4128,1835v-81.8h9.4l1.6,9.1c1.6-3.5,3.8-6.2,6.7-8,3-1.8,6.2-2.7,9.6-2.7s6.8,1,9.6,2.9c2.9,1.9,5,4.8,6.4,8.5,1.9-3.7,4.3-6.6,7-8.5,2.9-1.9,6.4-2.9,10.6-2.9s10.4,1.9,13.4,5.6c3.2,3.7,4.8,9.1,4.8,16v61.8h-13.8v-58.9c0-8-3-12-9-12s-5.3,1.1-7.2,3.4-2.9,5.1-2.9,8.6v58.9h-13.6v-58.9c0-8-3.1-12-9.3-12s-5.3,1.1-7.2,3.4c-1.8,2.2-2.7,5.1-2.7,8.6v58.9h-13.6ZM4264.3,1836.6c-6.7,0-12.7-.9-17.9-2.7-5.1-1.9-9.2-4.6-12.2-8.2-2.9-3.6-4.3-7.9-4.3-12.8v-1.4c0-.6,0-1.3.2-2.1h13.8v1.6c0,4.5,1.9,8,5.8,10.6,4,2.4,9.6,3.7,16.8,3.7s11.4-1.1,14.7-3.4c3.4-2.3,5.1-5.4,5.1-9.1s-.7-4.5-2.1-6.1c-1.4-1.6-3.9-3-7.5-4.2-3.5-1.2-8.6-2.3-15.4-3.4-7.1-1.3-12.9-2.8-17.3-4.6-4.4-1.9-7.5-4.4-9.4-7.4-1.9-3.1-2.9-6.9-2.9-11.5s1.4-9.8,4.3-13.3c2.9-3.5,6.9-6.2,12-8,5.2-1.8,11.3-2.7,18.2-2.7s11.5.9,16.3,2.7c4.9,1.8,8.8,4.4,11.7,7.7,2.9,3.2,4.3,7.1,4.3,11.7v1.1c0,.4-.1,1-.3,1.8h-13.9c0-3.8-.9-6.7-2.7-8.6-1.7-2-4-3.4-7-4-2.9-.8-6.1-1.1-9.6-1.1-12.4,0-18.6,3.8-18.6,11.5s.6,3.7,1.9,5.1c1.3,1.3,3.6,2.5,6.9,3.5,3.4,1.1,8.3,2.2,14.6,3.4,7.8,1.4,13.9,3.1,18.4,5.1,4.6,2,7.9,4.6,9.9,7.8,2,3.1,3,7.2,3,12.2s-1.5,10.3-4.5,14.1c-2.9,3.7-7.1,6.5-12.6,8.3-5.4,1.8-12,2.7-19.7,2.7Z"/>
</svg>