<?xml version="1.0" encoding="UTF-8"?>
<svg id="Layer_1" xmlns="http://www.w3.org/2000/svg" version="1.1" viewBox="0 0 396 166">
  <!-- Generator: Adobe Illustrator 29.4.0, SVG Export Plug-In . SVG Version: 2.1.0 Build 152)  -->
  <path d="M131.5,163.5v-10.8h1v4.2c.3-.4.6-.7,1-.9.5-.2.9-.3,1.4-.3s1,.1,1.4.3c.4.2.8.5,1,.9.2.4.4.9.4,1.6v5h-1v-4.7c0-.8-.2-1.3-.5-1.7-.3-.4-.8-.6-1.5-.6s-.8.1-1.1.3c-.3.2-.6.5-.8.8-.2.3-.3.7-.3,1.2v4.7h-1Z"/>
  <path d="M143.4,163.5v-6.8h-2.9v-.9h3.9v7.7h-1ZM140.5,163.5v-.8h6.6v.8h-6.6ZM143.2,154.2v-1.2h1.1v1.2h-1.1Z"/>
  <path d="M152.1,163.6c-.6,0-1.1-.1-1.5-.4-.5-.3-.8-.7-1.1-1.3-.3-.6-.4-1.3-.4-2.2v-.2c0-.8.1-1.6.4-2.1.3-.6.6-1,1.1-1.3.5-.3,1-.5,1.6-.5s1,.1,1.4.3c.4.2.7.5.9.9v-4.2h1v10.8h-.8l-.2-1.2c-.2.5-.5.8-1,1-.4.2-.9.3-1.5.3ZM152.2,162.8c.7,0,1.2-.2,1.6-.7.4-.5.6-1.2.6-2.2v-.4c0-1-.2-1.8-.6-2.2-.4-.5-.9-.7-1.6-.7s-1.2.2-1.6.7c-.4.5-.6,1.2-.6,2.2v.4c0,1,.2,1.8.6,2.3.4.5.9.7,1.6.7Z"/>
  <path d="M161.1,163.6c-.6,0-1.1-.1-1.5-.4-.5-.3-.8-.7-1.1-1.3-.3-.6-.4-1.3-.4-2.2v-.2c0-.8.1-1.6.4-2.1.3-.6.6-1,1.1-1.3.5-.3,1-.5,1.6-.5s1,.1,1.4.3c.4.2.7.5.9.9v-4.2h1v10.8h-.8l-.2-1.2c-.2.5-.5.8-1,1-.4.2-.9.3-1.5.3ZM161.2,162.8c.7,0,1.2-.2,1.6-.7.4-.5.6-1.2.6-2.2v-.4c0-1-.2-1.8-.6-2.2-.4-.5-.9-.7-1.6-.7s-1.2.2-1.6.7c-.4.5-.6,1.2-.6,2.2v.4c0,1,.2,1.8.6,2.3.4.5.9.7,1.6.7Z"/>
  <path d="M170.5,163.6c-.8,0-1.4-.2-1.9-.5-.5-.3-.9-.8-1.1-1.4-.2-.6-.4-1.3-.4-2v-.3c0-.8.1-1.4.4-2,.3-.6.7-1,1.2-1.4.5-.3,1.1-.5,1.8-.5s1.2.1,1.7.4c.5.3.8.7,1.1,1.1.3.5.4,1,.4,1.6v1h-5.5v.2c0,.9.2,1.6.7,2.1.4.5,1,.7,1.7.7s1.3-.2,1.6-.5c.4-.4.6-.9.6-1.7h1c0,.6-.1,1.1-.4,1.6-.3.4-.6.8-1.1,1-.5.2-1,.4-1.7.4ZM168.2,159h4.5v-.3c0-.4,0-.8-.3-1.1-.2-.3-.4-.6-.8-.8s-.7-.3-1.2-.3-.9.1-1.3.4c-.3.2-.6.6-.8.9-.2.4-.3.8-.3,1.1h0Z"/>
  <path d="M176.5,163.5v-7.7h.8v1.2c.4-.5.7-.8,1.2-1.1s.9-.3,1.4-.3c.8,0,1.5.2,2,.7.5.5.8,1.2.8,2.2v4.9h-1v-4.5c0-.9-.2-1.5-.5-1.9-.3-.4-.8-.6-1.5-.6s-.8.1-1.2.3c-.3.2-.6.5-.8.9-.2.4-.3.8-.3,1.3v4.4h-1Z"/>
  <path d="M11.7,10.4c-.3,0-.5,0-.6-.1-.1,0-.2-.2-.2-.4,0-.2,0-.4,0-.7h-.4c-.1.2-.3.5-.5.6-.2.2-.5.3-.8.4-.3,0-.6.1-.9.1-.8,0-1.4-.2-1.9-.7-.5-.4-.7-1.1-.7-2V3h.6v4.5c0,.8.2,1.4.6,1.8.4.4.9.6,1.6.6s.9-.1,1.2-.3c.4-.2.6-.6.8-.9.2-.4.3-.8.3-1.3V3h.6v6.3c0,.2,0,.4.2.5.1.1.3.2.5.2s.2,0,.4,0c0,0,0,0,.1,0v.3c0,0-.2,0-.3.1-.2,0-.3,0-.5,0Z"/>
  <polygon points="19.8 10.3 17.6 7.1 17.4 7.1 17.3 7.2 15.1 10.3 14.5 10.3 17.1 6.5 14.6 3 15.4 3 17.4 6 17.6 6 17.7 5.9 19.8 3 20.4 3 17.9 6.6 20.5 10.3 19.8 10.3"/>
  <path d="M26.4,10.4c-.4,0-.8,0-1.2-.2-.4-.2-.7-.4-1-.7-.3-.3-.5-.7-.6-1.1-.2-.5-.2-1-.2-1.6v-.3c0-.6,0-1.1.2-1.5.2-.5.4-.8.6-1.2.3-.3.6-.6,1-.7.4-.2.8-.2,1.2-.2.6,0,1.1.1,1.5.3.4.2.8.6,1,1,.2.4.4.9.4,1.4h-.5c0-.5-.1-.9-.3-1.2-.2-.4-.5-.7-.8-.8-.3-.2-.7-.3-1.2-.3-.7,0-1.3.3-1.8.8-.5.5-.7,1.3-.7,2.3v.6c0,1,.2,1.8.7,2.3.5.5,1.1.8,1.8.8s.8,0,1.2-.3c.4-.2.6-.5.8-.8.2-.3.3-.7.3-1.2h.5c0,.5-.1,1-.4,1.4-.2.4-.6.8-1,1-.4.2-.9.3-1.5.3h0Z"/>
  <path d="M38.5,10.4c-.2,0-.4,0-.6-.1-.1,0-.2-.1-.3-.3,0-.2-.1-.4-.1-.8v-.8s-.4.7-.4.7c-.2.3-.4.6-.7.8-.3.2-.6.3-.9.4-.3,0-.6.1-1,.1-.7,0-1.3-.2-1.7-.5-.4-.3-.5-.8-.5-1.5s.1-1,.4-1.3c.3-.3.8-.6,1.5-.7.7-.2,1.7-.2,2.9-.2h.2v-1.1c0-.6-.2-1.1-.5-1.4-.3-.3-.8-.4-1.6-.4s-1.2.1-1.6.4c-.4.3-.6.7-.6,1.2h0s-.6,0-.6,0c0,0,0,0,0-.1h0c0-.6.2-1.1.7-1.4.5-.4,1.2-.5,2-.5s1.6.2,2,.5c.4.3.6.8.6,1.6v4.4c0,.2,0,.4.2.5.1,0,.3.1.5.1s.3,0,.5,0v.3c0,0-.2,0-.3.1-.1,0-.3,0-.4,0ZM37.2,6.6c-1,0-1.9,0-2.5.2-.6.1-1.1.3-1.4.6-.3.3-.4.7-.4,1.2s.2.9.5,1.2c.3.3.8.4,1.4.4s1.1-.1,1.5-.4c.4-.3.7-.6.8-1,.2-.4.3-.9.3-1.4v-.6h-.2Z"/>
  <path d="M47.4,10.3v-5.4c0-1.3-.7-1.6-1.2-1.6s-.7.2-1,.5c-.3.3-.4.7-.4,1.1v5.4h-.5v-5.4c0-1.3-.7-1.6-1.3-1.6s-.7.2-1,.5c-.2.3-.4.7-.4,1.1v5.4h-.5V3h.3v.7c0,0,.5,0,.5,0,.1-.3.3-.5.5-.7.3-.2.5-.2.8-.2s.5,0,.8.2c.2.2.4.4.5.7l.2.5.2-.5c.1-.3.3-.6.6-.7.2-.2.5-.3.9-.3s.9.1,1.1.5c.3.3.4.8.4,1.4v5.5h-.5Z"/>
  <path d="M50.8,13V3h.4l.2,1.7.3-.6c.2-.4.5-.7.9-.9.4-.2.9-.3,1.4-.3s1,.1,1.4.4c.4.2.8.6,1,1.2.3.5.4,1.3.4,2.1v.2c0,.8-.1,1.5-.4,2-.3.5-.6.9-1,1.2-.4.3-.9.4-1.4.4s-.9,0-1.3-.3c-.4-.2-.7-.5-.9-.8l-.4-.5v4.1h-.6ZM53.8,3.3c-.4,0-.8,0-1.2.3-.4.2-.7.5-.9,1-.2.5-.3,1.1-.3,1.9v.4c0,1,.2,1.8.7,2.4.5.5,1,.8,1.8.8s1.3-.3,1.7-.8c.4-.5.7-1.3.7-2.3v-.4c0-.8-.1-1.4-.3-1.8-.2-.5-.5-.8-.9-1-.4-.2-.8-.3-1.2-.3Z"/>
  <rect x="59" y="11.6" width="7.1" height=".5"/>
  <polygon points="71.1 10.3 68.1 3 68.8 3 71.4 9.4 71.7 9.4 71.7 9.3 74.3 3 74.9 3 71.8 10.3 71.1 10.3"/>
  <path d="M77.7,10.3v-.4h2.9V3.5h-2.9v-.5h3.5v6.8h2.8v.4h-6.2ZM80.4,1V.2h.7v.8h-.7Z"/>
  <path d="M89.5,10.4c-.7,0-1.3-.2-1.8-.5-.5-.3-.8-.7-1-1.3-.2-.6-.3-1.2-.3-1.9v-.3c0-.7.1-1.4.4-1.9.3-.5.6-1,1.1-1.3.5-.3,1-.5,1.7-.5s1.1.1,1.6.4c.5.3.8.6,1,1.1.2.4.4.9.4,1.5v.8h-5.5v.4c0,1,.2,1.7.7,2.3.5.5,1.1.8,1.8.8s1.4-.2,1.8-.6c.4-.4.6-.9.6-1.6h.6c0,.5-.2.9-.4,1.3-.2.4-.6.7-1.1,1-.4.2-1,.3-1.6.3ZM89.5,3.3c-.6,0-1,.1-1.4.4-.4.3-.6.6-.8,1-.2.4-.3.8-.3,1.2v.2h.2s4.7,0,4.7,0v-.5c0-.5,0-.9-.3-1.2-.2-.4-.5-.7-.8-.9-.4-.2-.8-.3-1.3-.3Z"/>
  <path d="M99.9,10.4c-.8,0-1.4-.2-1.9-.5-.4-.3-.7-.9-.7-1.6V3.5h-2.4v-.5h2.3l.4-2.4h.3v2.4h3.6v.5h-3.6v4.7c0,.4,0,.8.3,1,.2.3.4.5.8.6.3,0,.7.1,1.1.1s.7,0,1-.1c.2,0,.3-.1.5-.2v.4c-.2,0-.4.2-.7.2-.3,0-.7.1-1,.1Z"/>
  <path d="M109.8,10.3v-4.3c0-.9-.2-1.6-.6-2-.4-.4-.9-.7-1.6-.7s-.9.1-1.3.4c-.4.2-.6.6-.8,1-.2.4-.3.9-.3,1.4v4.2h-.6V3h.4l.2,1.7.3-.6c.2-.4.5-.8.9-1,.4-.2.9-.3,1.3-.3.8,0,1.4.2,1.9.7.5.4.7,1.1.7,2v4.7h-.6Z"/>
  <path d="M119.5,10.4c-.2,0-.4,0-.6-.1-.1,0-.2-.1-.3-.3,0-.2-.1-.4-.1-.8v-.8s-.4.7-.4.7c-.2.3-.4.6-.7.8-.3.2-.6.3-.9.4-.3,0-.6.1-1,.1-.7,0-1.3-.2-1.7-.5-.4-.3-.5-.8-.5-1.5s.1-1,.4-1.3c.3-.3.8-.6,1.5-.7.7-.2,1.7-.2,2.9-.2h.2v-1.1c0-.6-.2-1.1-.5-1.4-.3-.3-.8-.4-1.6-.4s-1.2.1-1.6.4c-.4.3-.6.7-.6,1.2h0s-.6,0-.6,0c0,0,0,0,0-.1h0c0-.6.2-1.1.7-1.4.5-.4,1.2-.5,2-.5s1.6.2,2,.5c.4.3.6.8.6,1.6v4.4c0,.2,0,.4.2.5.1,0,.3.1.5.1s.3,0,.5,0v.3c0,0-.2,0-.3.1-.1,0-.3,0-.4,0ZM118.2,6.6c-1,0-1.9,0-2.5.2-.6.1-1.1.3-1.4.6-.3.3-.4.7-.4,1.2s.2.9.5,1.2c.3.3.8.4,1.4.4s1.1-.1,1.5-.4c.4-.3.7-.6.8-1,.2-.4.3-.9.3-1.4v-.6h-.2Z"/>
  <path d="M128.4,10.3v-5.4c0-1.3-.7-1.6-1.2-1.6s-.7.2-1,.5c-.3.3-.4.7-.4,1.1v5.4h-.5v-5.4c0-1.3-.7-1.6-1.3-1.6s-.7.2-1,.5c-.2.3-.4.7-.4,1.1v5.4h-.5V3h.3v.7c0,0,.5,0,.5,0,.1-.3.3-.5.5-.7.3-.2.5-.2.8-.2s.5,0,.8.2c.2.2.4.4.5.7l.2.5.2-.5c.1-.3.3-.6.6-.7.2-.2.5-.3.9-.3s.9.1,1.1.5c.3.3.4.8.4,1.4v5.5h-.5Z"/>
  <path d="M29.9,67.9c-1,0-1.9-.2-2.6-.5-.6-.3-1.1-.8-1.5-1.5-.3-.8-.5-1.9-.6-3.4v-.8s-.4.7-.4.7c-.7,1.4-1.6,2.5-2.8,3.3-1.2.8-2.4,1.3-3.8,1.7-1.3.3-2.7.5-4,.5-3.1,0-5.5-.7-7.1-2.2-1.6-1.5-2.4-3.6-2.4-6.3s.6-4.2,1.9-5.6c1.2-1.4,3.3-2.5,6.3-3.1,3-.6,7-1,11.9-1h.2v-3.9c0-2.4-.6-4.1-1.7-5.1-1.1-1-3.1-1.5-5.9-1.5s-4.6.5-5.9,1.6c-1.4,1-2.1,2.5-2.1,4.4v.7h-3.4c0-.4,0-.8-.1-1.1v-.2c0-2.5,1.1-4.5,3.1-6,2.1-1.5,5-2.3,8.5-2.3s6.6.8,8.5,2.2c1.8,1.4,2.7,3.7,2.7,6.7v17.5c0,.8.2,1.3.6,1.7.4.3.9.5,1.6.5.9,0,1.8-.2,2.6-.7v2.5c-.4.3-1,.6-1.6.7-.6.2-1.3.3-1.9.3ZM24.8,52.5c-4.1,0-7.4.2-9.8.6-2.4.4-4.1,1.1-5.1,2.1-1,1-1.5,2.4-1.5,4.2s.6,3.3,1.7,4.2c1.1.9,2.9,1.4,5.2,1.4s4.1-.5,5.5-1.5c1.4-1,2.5-2.3,3.2-3.9.7-1.6,1-3.4,1-5.4v-1.8h-.2Z"/>
  <path d="M42.4,78.1v-41.1h2.8l.7,5.4.3-.6c.9-1.8,2.2-3.2,3.8-4.1,1.7-.9,3.6-1.4,5.8-1.4s4.3.5,6,1.6c1.8,1.1,3.2,2.7,4.3,5,1.1,2.2,1.7,5.2,1.7,8.8v.8c0,3.2-.6,6-1.7,8.3-1.1,2.2-2.6,4-4.4,5.1-1.8,1.2-3.8,1.8-6,1.8s-3.9-.4-5.5-1.2c-1.6-.8-2.8-1.9-3.8-3.2l-.4-.5v15.2h-3.6ZM55.1,39.3c-1.5,0-3,.4-4.4,1.1-1.4.7-2.5,2-3.4,3.7-.9,1.7-1.3,4.2-1.3,7.2v1.7c0,4,.9,7.1,2.6,9,1.7,1.9,3.9,2.9,6.6,2.9s4.8-1,6.5-2.9c1.7-1.9,2.5-4.9,2.5-9v-1.7c0-2.9-.4-5.3-1.2-7-.8-1.7-1.9-3-3.3-3.8-1.3-.8-2.8-1.2-4.5-1.2Z"/>
  <path d="M78.4,78.1v-41.1h2.8l.7,5.4.3-.6c.9-1.8,2.2-3.2,3.8-4.1,1.7-.9,3.6-1.4,5.8-1.4s4.3.5,6,1.6c1.8,1.1,3.2,2.7,4.3,5,1.1,2.2,1.7,5.2,1.7,8.8v.8c0,3.2-.6,6-1.7,8.3-1.1,2.2-2.6,4-4.4,5.1-1.8,1.2-3.8,1.8-6,1.8s-3.9-.4-5.5-1.2c-1.6-.8-2.8-1.9-3.8-3.2l-.4-.5v15.2h-3.6ZM91.1,39.3c-1.5,0-3,.4-4.4,1.1-1.4.7-2.5,2-3.4,3.7-.9,1.7-1.3,4.2-1.3,7.2v1.7c0,4,.9,7.1,2.6,9,1.7,1.9,3.9,2.9,6.6,2.9s4.8-1,6.5-2.9c1.7-1.9,2.5-4.9,2.5-9v-1.7c0-2.9-.4-5.3-1.2-7-.8-1.7-1.9-3-3.3-3.8-1.3-.8-2.8-1.2-4.5-1.2Z"/>
  <polygon points="113.1 67.3 113.1 64.3 124.5 64.3 124.5 27.4 113.1 27.4 113.1 24.4 128.1 24.4 128.1 64.3 139.2 64.3 139.2 67.3 113.1 67.3"/>
  <path d="M150.3,67.3v-3h11.5v-24.3h-11.5v-3h15.1v27.3h11.1v3h-26.2ZM161.1,30.1v-4.4h4.1v4.4h-4.1Z"/>
  <path d="M197.9,67.9c-2.9,0-5.4-.7-7.4-1.9-1.9-1.3-3.4-3.1-4.4-5.4-.9-2.3-1.4-5-1.4-7.9v-1c0-3,.5-5.7,1.6-8,1.1-2.3,2.6-4.1,4.6-5.3,2-1.3,4.4-1.9,7.2-1.9s4.8.6,6.6,1.7c1.9,1.1,3.4,2.6,4.4,4.4,1,1.8,1.5,3.9,1.5,6.2v3.8h-22.1v.9c0,3.8.9,6.7,2.7,8.7,1.8,2,4.1,3,6.8,3s5.2-.7,6.7-2.2c1.6-1.4,2.4-3.6,2.4-6.5h3.5c0,2.3-.6,4.3-1.6,6.1-1.1,1.7-2.6,3.1-4.5,4.1-1.9.9-4.1,1.4-6.6,1.4ZM198,39.3c-2.1,0-3.9.5-5.3,1.6-1.4,1-2.5,2.3-3.2,3.9-.7,1.5-1,3.1-1,4.6v.4h18.5v-1.2c0-1.7-.4-3.3-1.1-4.7-.7-1.4-1.8-2.6-3.1-3.4-1.3-.8-3-1.2-4.8-1.2Z"/>
  <path d="M232.3,67.9c-2.2,0-4.2-.5-6-1.5-1.8-1.1-3.3-2.7-4.4-5-1.1-2.2-1.6-5.2-1.6-8.9v-.7c0-3.3.5-6.2,1.5-8.4,1.1-2.3,2.5-4,4.3-5.2,1.8-1.2,3.9-1.8,6.1-1.8s4,.4,5.6,1.2c1.6.8,2.8,2,3.7,3.5l.4.7v-17.4h3.6v42.8h-2.8l-.7-5.4-.3.6c-.9,1.8-2.1,3.2-3.8,4.1-1.6.9-3.6,1.4-5.7,1.4ZM232.9,39.3c-2.6,0-4.8,1-6.5,3-1.7,1.9-2.5,5-2.5,9.1v1.5c0,4.1.8,7.2,2.5,9.2,1.7,2,3.9,3,6.5,3s4.8-1,6.5-3c1.7-1.9,2.6-5,2.6-9.1v-1.6c0-4.1-.9-7.2-2.6-9.1-1.7-2-3.9-2.9-6.5-2.9Z"/>
  <path d="M30.7,127.9c-1.2,0-2.2-.2-2.8-.6-.6-.4-1-1-1.2-1.8-.2-.8-.4-1.8-.4-2.9h-.4c-.6,1.2-1.4,2.2-2.3,3-1,.8-2.1,1.4-3.4,1.8-1.3.4-2.6.6-4,.6-3.3,0-5.9-.9-7.9-2.8-1.9-1.9-2.9-4.7-2.9-8.4v-19.7h3.7v18.7c0,3,.7,5.3,2.1,6.9,1.4,1.5,3.5,2.3,6,2.3s3.2-.4,4.5-1.3c1.3-.9,2.3-2.1,3.1-3.6.8-1.5,1.2-3.1,1.2-4.8v-18.2h3.7v25.8c0,.7.2,1.2.5,1.6.4.4.9.5,1.5.5s.9,0,1.4-.1c.4-.1.8-.3,1.3-.5v2.5c-.5.3-1,.6-1.6.7-.6.2-1.3.3-2,.3Z"/>
  <polygon points="62.9 127.3 54 114.6 53.7 114.6 44.8 127.3 40.7 127.3 51.8 111.7 41.3 97 45.7 97 54 108.9 54.2 108.9 54.3 108.8 62.7 97 66.8 97 56.2 111.8 67.3 127.3 62.9 127.3"/>
  <rect x="75.2" y="131.4" width="29.6" height="3.3"/>
  <path d="M137.9,127.9c-1,0-1.9-.2-2.6-.5-.6-.3-1.1-.8-1.5-1.5-.3-.8-.5-1.9-.6-3.4v-.8s-.4.7-.4.7c-.7,1.4-1.6,2.5-2.8,3.3-1.2.8-2.4,1.3-3.8,1.7-1.3.3-2.7.5-4,.5-3.1,0-5.5-.7-7.1-2.2-1.6-1.5-2.4-3.6-2.4-6.3s.6-4.2,1.9-5.6c1.2-1.4,3.3-2.5,6.3-3.1,3-.6,7-1,11.9-1h.2v-3.9c0-2.4-.6-4.1-1.7-5.1-1.1-1-3.1-1.5-5.9-1.5s-4.6.5-5.9,1.6c-1.4,1-2.1,2.5-2.1,4.4v.7h-3.4c0-.4,0-.8-.1-1.1v-.2c0-2.5,1.1-4.5,3.1-6,2.1-1.5,5-2.3,8.5-2.3s6.6.8,8.5,2.2c1.8,1.4,2.7,3.7,2.7,6.7v17.5c0,.8.2,1.3.6,1.7.4.3.9.5,1.6.5.9,0,1.8-.2,2.6-.7v2.5c-.4.3-1,.6-1.6.8-.6.2-1.3.3-1.9.3ZM132.8,112.5c-4.1,0-7.4.2-9.8.6-2.4.4-4.1,1.1-5.1,2.1-1,1-1.5,2.4-1.5,4.2s.6,3.3,1.7,4.2c1.1.9,2.9,1.4,5.2,1.4s4.1-.5,5.5-1.5c1.4-1,2.5-2.3,3.2-3.9.7-1.6,1-3.4,1-5.4v-1.8h-.2Z"/>
  <path d="M170.7,127.3v-17.8c0-3.5-.7-6.1-2.2-7.7-1.4-1.6-3.5-2.4-6-2.4s-3.4.5-4.7,1.4c-1.3.9-2.4,2.2-3.1,3.7-.7,1.6-1,3.4-1,5.5v17.3h-3.6v-30.3h2.8l.7,5.4.3-.6c.9-1.9,2.2-3.3,3.9-4.1,1.7-.9,3.6-1.3,5.6-1.3,3.3,0,6,1,8,2.9,2,1.9,3.1,4.8,3.1,8.6v19.4h-3.6Z"/>
  <path d="M209.9,127.9c-1,0-1.9-.2-2.6-.5-.6-.3-1.1-.8-1.5-1.5-.3-.8-.5-1.9-.6-3.4v-.8s-.4.7-.4.7c-.7,1.4-1.6,2.5-2.8,3.3-1.2.8-2.4,1.3-3.8,1.7-1.3.3-2.7.5-4,.5-3.1,0-5.5-.7-7.1-2.2-1.6-1.5-2.4-3.6-2.4-6.3s.6-4.2,1.9-5.6c1.2-1.4,3.3-2.5,6.3-3.1,3-.6,7-1,11.9-1h.2v-3.9c0-2.4-.6-4.1-1.8-5.1-1.1-1-3.1-1.5-5.9-1.5s-4.6.5-5.9,1.6c-1.4,1-2.1,2.5-2.1,4.4v.7h-3.4c0-.4,0-.8-.1-1.1v-.2c0-2.5,1.1-4.5,3.1-6,2.1-1.5,5-2.3,8.5-2.3s6.6.8,8.5,2.2c1.8,1.4,2.7,3.7,2.7,6.7v17.5c0,.8.2,1.3.6,1.7.4.3.9.5,1.6.5.9,0,1.8-.2,2.6-.7v2.5c-.4.3-1,.6-1.6.8-.6.2-1.3.3-1.9.3ZM204.8,112.5c-4.1,0-7.4.2-9.8.6-2.4.4-4.1,1.1-5.1,2.1-1,1-1.5,2.4-1.5,4.2s.6,3.3,1.7,4.2c1.1.9,2.9,1.4,5.2,1.4s4.1-.5,5.5-1.5c1.4-1,2.5-2.3,3.2-3.9.7-1.6,1-3.4,1-5.4v-1.8h-.2Z"/>
  <polygon points="221.1 127.3 221.1 124.3 232.5 124.3 232.5 87.4 221.1 87.4 221.1 84.4 236.1 84.4 236.1 124.3 247.2 124.3 247.2 127.3 221.1 127.3"/>
  <path d="M262,138.4c-.7,0-1.3,0-2-.2-.6-.1-1.2-.3-1.8-.5v-2.9c.4.1.8.3,1.4.4.7.2,1.3.3,1.9.3,1.1,0,2-.3,2.6-.8.7-.5,1.3-1.4,1.9-2.6.6-1.2,1.3-2.9,2.2-5.1h0c0,0-12-30-12-30h3.9l9.8,25h.6l9.8-25h3.5l-11.8,29.4c-.8,2.2-1.7,4.2-2.5,6.1-.8,1.8-1.8,3.3-3,4.3-1.1,1.1-2.6,1.6-4.5,1.6Z"/>
  <path d="M311.6,127.9c-3.3,0-5.9-.7-7.9-2.2-1.9-1.5-2.9-3.8-2.9-7v-18.6h-9.4v-3h9.5l1.4-9.8h2.1v9.8h14.5v3h-14.5v18.4c0,1.6.3,2.9,1,3.8.7,1,1.6,1.6,2.8,2.1,1.2.4,2.6.6,4.2.6s2.6-.2,3.8-.5c1-.3,1.9-.7,2.7-1v2.9c-.9.5-2,.9-3.3,1.2-1.3.3-2.7.5-4,.5Z"/>
  <path d="M330.3,127.3v-3h11.5v-24.3h-11.5v-3h15.1v27.3h11.1v3h-26.2ZM341.1,90.1v-4.4h4.1v4.4h-4.1Z"/>
  <path d="M377.6,127.9c-1.8,0-3.5-.3-5.1-1-1.6-.7-2.9-1.7-4.1-3-1.1-1.3-2-2.9-2.7-4.8-.6-1.9-.9-4-.9-6.4v-1.1c0-2.4.3-4.5.9-6.4.6-1.9,1.5-3.5,2.6-4.8,1.1-1.3,2.5-2.3,4.1-3,1.6-.7,3.3-1,5.1-1h.4c2.3,0,4.3.5,6.1,1.5,1.8.9,3.2,2.3,4.2,4.1,1,1.8,1.6,3.9,1.6,6.5h-3.4c0-2.1-.4-3.8-1.2-5.1-.8-1.4-1.8-2.4-3.1-3.1-1.3-.7-2.8-1-4.3-1-2.6,0-4.8,1-6.6,2.9-1.7,1.9-2.6,4.8-2.6,8.7v2.5c0,3.8.9,6.8,2.6,8.7,1.8,2,4,2.9,6.7,2.9s3.1-.3,4.4-1c1.3-.7,2.3-1.8,3.1-3.1.7-1.3,1.1-3.1,1.2-5.1h3.4c0,2.5-.6,4.7-1.6,6.5-1,1.8-2.4,3.2-4.2,4.2-1.8.9-3.8,1.4-6.1,1.4h-.4Z"/>
  <path d="M9.9,163.4c-.8,0-1.4-.2-1.9-.5-.4-.3-.7-.9-.7-1.6v-4.8h-2.4v-.5h2.3l.4-2.4h.3v2.4h3.6v.5h-3.6v4.7c0,.4,0,.8.3,1,.2.3.4.5.8.6.3,0,.7.1,1.1.1s.7,0,1-.1c.2,0,.3-.1.5-.2v.4c-.2,0-.4.2-.7.2-.3,0-.7.1-1,.1Z"/>
  <path d="M19.8,163.3v-4.5c0-.8-.2-1.4-.6-1.8-.4-.4-.9-.6-1.6-.6s-.9.1-1.2.3c-.4.2-.6.5-.9.9-.2.4-.3.8-.3,1.3v4.5h-.6v-10.4h.6v4.7l.4-.6c.2-.4.6-.7,1-.8.4-.2.8-.3,1.3-.3s.9,0,1.3.3c.4.2.7.5.9.8.2.4.3.9.3,1.5v4.8h-.6Z"/>
  <path d="M26.5,163.4c-.7,0-1.3-.2-1.8-.5-.5-.3-.8-.7-1-1.3-.2-.6-.3-1.2-.3-1.9v-.3c0-.7.1-1.4.4-1.9.3-.5.6-1,1.1-1.3.5-.3,1-.5,1.7-.5s1.1.1,1.6.4c.5.3.8.6,1,1.1.2.4.4.9.4,1.5v.8h-5.5v.4c0,1,.2,1.7.7,2.3.5.5,1.1.8,1.8.8s1.4-.2,1.8-.6c.4-.4.6-.9.6-1.6h.6c0,.5-.2.9-.4,1.3-.2.4-.6.7-1.1,1-.4.2-1,.3-1.6.3ZM26.5,156.3c-.6,0-1,.1-1.4.4-.4.3-.6.6-.8,1-.2.4-.3.8-.3,1.2v.2h.2s4.7,0,4.7,0v-.5c0-.5,0-.9-.3-1.2-.2-.4-.5-.7-.8-.9-.4-.2-.8-.3-1.3-.3Z"/>
  <rect x="32" y="164.6" width="7.1" height=".5"/>
  <path d="M44.5,163.4c-.7,0-1.2-.2-1.7-.5-.5-.3-.8-.8-1.1-1.3-.2-.6-.4-1.2-.4-1.9v-.2c0-.7.1-1.4.4-1.9.3-.5.6-1,1.1-1.3.5-.3,1-.5,1.7-.5s1.2.2,1.7.5c.5.3.8.7,1.1,1.3.2.6.4,1.2.4,1.9v.2c0,.7-.1,1.4-.4,1.9-.2.5-.6,1-1.1,1.3-.5.3-1,.5-1.7.5ZM44.5,156.3c-.7,0-1.3.3-1.8.8-.5.5-.7,1.3-.7,2.2v.6c0,1,.2,1.7.7,2.3.5.5,1.1.8,1.8.8s1.3-.3,1.8-.8c.5-.5.7-1.3.7-2.3v-.6c0-1-.2-1.7-.7-2.2-.5-.5-1.1-.8-1.8-.8Z"/>
  <path d="M49.8,163.3v-.4h2.2v-6.4h-2.1v-.5h2.6v1c0,0,.4,0,.4,0,.2-.4.4-.7.8-.9.4-.2.8-.3,1.2-.3.7,0,1.3.2,1.6.6.4.4.6,1,.6,1.6,0,0,0,.2,0,.3h-.5c0-.4,0-.7-.2-1-.1-.3-.4-.6-.6-.7-.3-.2-.6-.3-1.1-.3s-.8.1-1.1.4c-.3.3-.5.6-.7,1-.1.4-.2.8-.2,1.2v4h3.7v.4h-6.6Z"/>
  <path d="M65.5,163.4c-.2,0-.4,0-.6-.1-.1,0-.2-.1-.3-.3,0-.2-.1-.4-.1-.8v-.8s-.4.7-.4.7c-.2.3-.4.6-.7.8-.3.2-.6.3-.9.4-.3,0-.6.1-1,.1-.7,0-1.3-.2-1.7-.5-.4-.3-.5-.8-.5-1.5s.1-1,.4-1.3c.3-.3.8-.6,1.5-.7.7-.2,1.7-.2,2.9-.2h.2v-1.1c0-.6-.2-1.1-.5-1.4-.3-.3-.8-.4-1.6-.4s-1.2.1-1.6.4c-.4.3-.6.7-.6,1.2h0s-.6,0-.6,0c0,0,0,0,0-.1h0c0-.6.2-1.1.7-1.4.5-.4,1.2-.5,2-.5s1.6.2,2,.5c.4.3.6.8.6,1.6v4.4c0,.2,0,.4.2.5.1,0,.3.1.5.1s.3,0,.5,0v.3c0,0-.2,0-.3.1-.1,0-.3,0-.4,0ZM64.2,159.6c-1,0-1.9,0-2.5.2-.6.1-1.1.3-1.4.6-.3.3-.4.7-.4,1.2s.2.9.5,1.2c.3.3.8.4,1.4.4s1.1-.1,1.5-.4c.4-.3.7-.6.8-1,.2-.4.3-.9.3-1.4v-.6h-.2Z"/>
  <path d="M71.4,163.4c-.4,0-.8,0-1.2-.2-.4-.2-.7-.4-1-.7-.3-.3-.5-.7-.6-1.1-.2-.5-.2-1-.2-1.6v-.3c0-.6,0-1.1.2-1.5.2-.5.4-.8.6-1.1.3-.3.6-.6,1-.7.4-.2.8-.2,1.2-.2.6,0,1.1.1,1.5.3.4.2.8.6,1,1,.2.4.4.9.4,1.4h-.5c0-.5-.1-.9-.3-1.2-.2-.4-.5-.7-.8-.8-.3-.2-.7-.3-1.2-.3-.7,0-1.3.3-1.8.8-.5.5-.7,1.3-.7,2.3v.6c0,1,.2,1.8.7,2.3.5.5,1.1.8,1.8.8s.8,0,1.2-.3c.4-.2.6-.5.8-.8.2-.3.3-.7.3-1.2h.5c0,.5-.1,1-.4,1.4-.2.4-.6.8-1,1-.4.2-.9.3-1.5.3h0Z"/>
  <polygon points="77.4 163.3 77.4 162.8 80.3 162.8 80.3 153.3 77.4 153.3 77.4 152.9 80.9 152.9 80.9 162.8 83.7 162.8 83.7 163.3 77.4 163.3"/>
  <path d="M89.5,163.4c-.7,0-1.3-.2-1.8-.5-.5-.3-.8-.7-1-1.3-.2-.6-.3-1.2-.3-1.9v-.3c0-.7.1-1.4.4-1.9.3-.5.6-1,1.1-1.3.5-.3,1-.5,1.7-.5s1.1.1,1.6.4c.5.3.8.6,1,1.1.2.4.4.9.4,1.5v.8h-5.5v.4c0,1,.2,1.7.7,2.3.5.5,1.1.8,1.8.8s1.4-.2,1.8-.6c.4-.4.6-.9.6-1.6h.6c0,.5-.2.9-.4,1.3-.2.4-.6.7-1.1,1-.4.2-1,.3-1.6.3ZM89.5,156.3c-.6,0-1,.1-1.4.4-.4.3-.6.6-.8,1-.2.4-.3.8-.3,1.2v.2h.2s4.7,0,4.7,0v-.5c0-.5,0-.9-.3-1.2-.2-.4-.5-.7-.8-.9-.4-.2-.8-.3-1.3-.3Z"/>
  <rect x="95" y="164.6" width="7.1" height=".5"/>
  <path d="M107.5,163.4c-.7,0-1.2-.2-1.7-.5-.5-.3-.8-.8-1.1-1.3-.2-.6-.4-1.2-.4-1.9v-.2c0-.7.1-1.4.4-1.9.3-.5.6-1,1.1-1.3.5-.3,1-.5,1.7-.5s1.2.2,1.7.5c.5.3.8.7,1.1,1.3.2.6.4,1.2.4,1.9v.2c0,.7-.1,1.4-.4,1.9-.2.5-.6,1-1.1,1.3-.5.3-1,.5-1.7.5ZM107.5,156.3c-.7,0-1.3.3-1.8.8-.5.5-.7,1.3-.7,2.2v.6c0,1,.2,1.7.7,2.3.5.5,1.1.8,1.8.8s1.3-.3,1.8-.8c.5-.5.7-1.3.7-2.3v-.6c0-1-.2-1.7-.7-2.2-.5-.5-1.1-.8-1.8-.8Z"/>
  <path d="M113.5,163.3v-.4h2.3v-6.4h-2.3v-.5h2.3v-1c0-.5.1-.9.3-1.3.2-.3.5-.6.9-.7.4-.2.8-.2,1.3-.2s.6,0,.9,0c.3,0,.5.1.7.2v.4c-.1,0-.3-.1-.5-.1-.3,0-.6-.1-.9-.1s-.7,0-1,.2c-.3.1-.6.3-.8.6-.2.3-.3.7-.3,1.1v1h3.3v.5h-3.3v6.4h3.4v.4h-6.3Z"/>
  <rect x="122" y="164.6" width="7.1" height=".5"/>
  <rect x="185" y="164.6" width="7.1" height=".5"/>
  <path d="M200.7,163.4c-.3,0-.5,0-.6-.1-.1,0-.2-.2-.2-.4,0-.2,0-.4,0-.7h-.4c-.1.2-.3.5-.5.6-.2.2-.5.3-.8.4-.3,0-.6.1-.9.1-.8,0-1.4-.2-1.9-.7-.5-.4-.7-1.1-.7-2v-4.8h.6v4.5c0,.8.2,1.4.6,1.8.4.4.9.6,1.6.6s.9-.1,1.2-.3c.4-.2.6-.6.8-.9.2-.4.3-.8.3-1.3v-4.4h.6v6.3c0,.2,0,.4.2.5.1.1.3.2.5.2s.2,0,.4,0c0,0,0,0,.1,0v.3c0,0-.2,0-.3.1-.2,0-.3,0-.5,0Z"/>
  <path d="M206.4,163.4c-.6,0-1.1,0-1.5-.3-.4-.2-.8-.4-1-.7-.2-.3-.3-.6-.3-1v-.2h.5c0,.5.2,1,.7,1.3.5.3,1.1.4,1.9.4s1.2-.1,1.6-.4c.4-.3.6-.7.6-1.2s0-.6-.3-.8c-.2-.2-.4-.4-.8-.5-.4-.1-.8-.3-1.5-.4-.7-.1-1.2-.3-1.6-.5-.4-.2-.6-.4-.8-.6-.2-.2-.2-.5-.2-.9s.1-.8.3-1c.2-.3.5-.5,1-.7.4-.2,1-.2,1.6-.2s1,0,1.4.3c.4.2.7.4.9.7.2.3.3.6.3,1h0s-.6,0-.6,0c0-.4-.1-.7-.3-.9-.2-.2-.5-.4-.9-.5-.3,0-.7-.1-1-.1-1.8,0-2.2.8-2.2,1.5s0,.5.2.7c.2.2.4.3.8.4.3.1.8.2,1.4.4.7.1,1.3.3,1.7.5.4.2.7.4.8.6.2.2.2.6.2,1s-.1.8-.3,1.1c-.2.3-.6.5-1,.7-.5.2-1,.2-1.7.2Z"/>
  <path d="M215.5,163.4c-.7,0-1.3-.2-1.8-.5-.5-.3-.8-.7-1-1.3-.2-.6-.3-1.2-.3-1.9v-.3c0-.7.1-1.4.4-1.9.3-.5.6-1,1.1-1.3.5-.3,1-.5,1.7-.5s1.1.1,1.6.4c.5.3.8.6,1,1.1.2.4.4.9.4,1.5v.8h-5.5v.4c0,1,.2,1.7.7,2.3.5.5,1.1.8,1.8.8s1.4-.2,1.8-.6c.4-.4.6-.9.6-1.6h.6c0,.5-.2.9-.4,1.3-.2.4-.6.7-1.1,1-.4.2-1,.3-1.6.3ZM215.5,156.3c-.6,0-1,.1-1.4.4-.4.3-.6.6-.8,1-.2.4-.3.8-.3,1.2v.2h.2s4.7,0,4.7,0v-.5c0-.5,0-.9-.3-1.2-.2-.4-.5-.7-.8-.9-.4-.2-.8-.3-1.3-.3Z"/>
  <path d="M220.8,163.3v-.4h2.2v-6.4h-2.1v-.5h2.6v1c0,0,.4,0,.4,0,.2-.4.4-.7.8-.9.4-.2.8-.3,1.2-.3.7,0,1.3.2,1.6.6.4.4.6,1,.6,1.6,0,0,0,.2,0,.3h-.5c0-.4,0-.7-.2-1-.1-.3-.4-.6-.6-.7-.3-.2-.6-.3-1.1-.3s-.8.1-1.1.4c-.3.3-.5.6-.7,1-.1.4-.2.8-.2,1.2v4h3.7v.4h-6.6Z"/>
  <rect x="230" y="164.6" width="7.1" height=".5"/>
  <path d="M242.9,163.4c-.5,0-1-.1-1.4-.3-.4-.2-.7-.5-.9-1l-.3-.6v1.7h-.6v-10.4h.6v4.1h.4c.2-.3.5-.6.9-.8.4-.2.8-.3,1.3-.3s1.1.1,1.5.4c.4.3.8.7,1,1.2.2.5.3,1.2.3,1.9v.2c0,.8-.1,1.5-.4,2.1-.2.6-.6,1-1,1.3-.4.3-.9.4-1.5.4ZM242.8,156.3c-.7,0-1.3.3-1.8.8-.5.5-.7,1.3-.7,2.3v.4c0,1.1.2,2,.7,2.5.5.5,1,.8,1.8.8s1.3-.3,1.7-.8c.4-.5.7-1.4.7-2.5v-.4c0-1-.2-1.8-.7-2.3-.4-.5-1-.8-1.7-.8Z"/>
  <path d="M251.5,163.4c-.7,0-1.3-.2-1.8-.5-.5-.3-.8-.7-1-1.3-.2-.6-.3-1.2-.3-1.9v-.3c0-.7.1-1.4.4-1.9.3-.5.6-1,1.1-1.3.5-.3,1-.5,1.7-.5s1.1.1,1.6.4c.5.3.8.6,1,1.1.2.4.4.9.4,1.5v.8h-5.5v.4c0,1,.2,1.7.7,2.3.5.5,1.1.8,1.8.8s1.4-.2,1.8-.6c.4-.4.6-.9.6-1.6h.6c0,.5-.2.9-.4,1.3-.2.4-.6.7-1.1,1-.4.2-1,.3-1.6.3ZM251.5,156.3c-.6,0-1,.1-1.4.4-.4.3-.6.6-.8,1-.2.4-.3.8-.3,1.2v.2h.2s4.7,0,4.7,0v-.5c0-.5,0-.9-.3-1.2-.2-.4-.5-.7-.8-.9-.4-.2-.8-.3-1.3-.3Z"/>
  <path d="M262.8,163.3v-4.5c0-.8-.2-1.4-.6-1.8-.4-.4-.9-.6-1.6-.6s-.9.1-1.2.3c-.4.2-.6.5-.9.9-.2.4-.3.8-.3,1.3v4.5h-.6v-10.4h.6v4.7l.4-.6c.2-.4.6-.7,1-.8.4-.2.8-.3,1.3-.3s.9,0,1.3.3c.4.2.7.5.9.8.2.4.3.9.3,1.5v4.8h-.6Z"/>
  <path d="M272.5,163.4c-.2,0-.4,0-.6-.1-.1,0-.2-.1-.3-.3,0-.2-.1-.4-.1-.8v-.8s-.4.7-.4.7c-.2.3-.4.6-.7.8-.3.2-.6.3-.9.4-.3,0-.6.1-1,.1-.7,0-1.3-.2-1.7-.5-.4-.3-.5-.8-.5-1.5s.1-1,.4-1.3c.3-.3.8-.6,1.5-.7.7-.2,1.7-.2,2.9-.2h.2v-1.1c0-.6-.2-1.1-.5-1.4-.3-.3-.8-.4-1.6-.4s-1.2.1-1.6.4c-.4.3-.6.7-.6,1.2h0s-.6,0-.6,0c0,0,0,0,0-.1h0c0-.6.2-1.1.7-1.4.5-.4,1.2-.5,2-.5s1.6.2,2,.5c.4.3.6.8.6,1.6v4.4c0,.2,0,.4.2.5.1,0,.3.1.5.1s.3,0,.5,0v.3c0,0-.2,0-.3.1-.1,0-.3,0-.4,0ZM271.2,159.6c-1,0-1.9,0-2.5.2-.6.1-1.1.3-1.4.6-.3.3-.4.7-.4,1.2s.2.9.5,1.2c.3.3.8.4,1.4.4s1.1-.1,1.5-.4c.4-.3.7-.6.8-1,.2-.4.3-.9.3-1.4v-.6h-.2Z"/>
  <polygon points="278.1 163.3 275.1 156 275.8 156 278.4 162.4 278.7 162.4 278.7 162.3 281.3 156 281.9 156 278.8 163.3 278.1 163.3"/>
  <path d="M284.7,163.3v-.4h2.9v-6.4h-2.9v-.5h3.5v6.8h2.8v.4h-6.2ZM287.4,154v-.8h.7v.8h-.7Z"/>
  <path d="M296.5,163.4c-.7,0-1.2-.2-1.7-.5-.5-.3-.8-.8-1.1-1.3-.2-.6-.4-1.2-.4-1.9v-.2c0-.7.1-1.4.4-1.9.3-.5.6-1,1.1-1.3.5-.3,1-.5,1.7-.5s1.2.2,1.7.5c.5.3.8.7,1.1,1.3.2.6.4,1.2.4,1.9v.2c0,.7-.1,1.4-.4,1.9-.2.5-.6,1-1.1,1.3-.5.3-1,.5-1.7.5ZM296.5,156.3c-.7,0-1.3.3-1.8.8-.5.5-.7,1.3-.7,2.2v.6c0,1,.2,1.7.7,2.3.5.5,1.1.8,1.8.8s1.3-.3,1.8-.8c.5-.5.7-1.3.7-2.3v-.6c0-1-.2-1.7-.7-2.2-.5-.5-1.1-.8-1.8-.8Z"/>
  <path d="M301.8,163.3v-.4h2.2v-6.4h-2.1v-.5h2.6v1c0,0,.4,0,.4,0,.2-.4.4-.7.8-.9.4-.2.8-.3,1.2-.3.7,0,1.3.2,1.6.6.4.4.6,1,.6,1.6,0,0,0,.2,0,.3h-.5c0-.4,0-.7-.2-1-.1-.3-.4-.6-.6-.7-.3-.2-.6-.3-1.1-.3s-.8.1-1.1.4c-.3.3-.5.6-.7,1-.1.4-.2.8-.2,1.2v4h3.7v.4h-6.6Z"/>
</svg>