<svg width="2744" height="1000" viewBox="0 0 2744 1000" fill="none" xmlns="http://www.w3.org/2000/svg">
<path d="M1023.21 97.737C1018.63 97.737 1014.89 96.4212 1012.1 93.8423C1009.37 91.2633 1008 87.3686 1008 82.1581V53.8423H1016.53V80.5265C1016.53 84.1054 1017.31 86.7897 1018.95 88.5265C1020.63 90.2633 1022.95 91.1581 1025.95 91.1581C1028.95 91.1581 1029.63 90.6844 1031.16 89.737C1032.73 88.737 1033.94 87.3686 1034.79 85.6844C1035.68 84.0002 1036.16 82.1054 1036.16 80.0528V53.8423H1044.58V89.1054C1044.58 90.0002 1044.79 90.6318 1045.15 91.0528C1045.52 91.4212 1046.15 91.6318 1046.94 91.6318C1047.73 91.6318 1048.05 91.5791 1048.63 91.4739C1049.21 91.3686 1049.79 91.1054 1050.42 90.6318V96.1054C1049.68 96.6318 1048.79 97.0002 1047.63 97.2633C1046.58 97.5265 1045.47 97.6844 1044.37 97.6844C1042.37 97.6844 1040.79 97.4212 1039.73 96.8423C1038.73 96.2107 1038 95.3686 1037.63 94.316C1037.31 93.2633 1037.05 92.0528 1036.94 90.6844C1036.1 92.2107 1035.05 93.4739 1033.73 94.5791C1032.42 95.5791 1030.95 96.3686 1029.21 96.8423C1027.47 97.4212 1025.52 97.6844 1023.31 97.6844H1023.21V97.737Z" fill="#0000FF"/>
<path d="M1057.79 96.8949L1073.2 74.5791L1058.73 53.8423H1068.73L1078.73 68.8423H1078.89L1089.1 53.8423H1098.26L1083.78 74.737L1099.1 96.8949H1089.15L1078.2 80.4739H1078.05L1066.99 96.8949H1057.73H1057.79Z" fill="#0000FF"/>
<path d="M1129.04 97.7369C1126.41 97.7369 1123.88 97.2105 1121.57 96.2105C1119.25 95.2105 1117.25 93.7895 1115.52 91.8947C1113.83 90 1112.52 87.7368 1111.57 85.1579C1110.62 82.5263 1110.15 79.5789 1110.15 76.3158V74.3158C1110.15 71.0526 1110.62 68.1579 1111.57 65.579C1112.52 62.9474 1113.83 60.6842 1115.52 58.8421C1117.25 56.9474 1119.25 55.5263 1121.57 54.5263C1123.88 53.5263 1126.41 53 1129.15 53H1130.15C1133.62 53 1136.67 53.7368 1139.3 55.2105C1141.93 56.6316 1144.04 58.6316 1145.51 61.2632C1147.04 63.8421 1147.78 67 1147.78 70.6842H1140.2C1140.2 67.9474 1139.72 65.7368 1138.83 64.0526C1137.94 62.3158 1136.67 61.0526 1135.15 60.2632C1133.62 59.4211 1131.83 59 1129.78 59C1126.73 59 1124.15 60.1053 1122.04 62.3684C1119.99 64.5789 1118.94 67.9474 1118.94 72.5789V78.2105C1118.94 82.6316 1119.94 86 1121.99 88.3158C1124.04 90.6316 1126.78 91.7895 1130.09 91.7895C1133.41 91.7895 1133.88 91.4211 1135.41 90.6316C1136.99 89.7895 1138.2 88.5263 1139.04 86.8421C1139.94 85.1053 1140.41 82.8421 1140.41 80.1053H1147.88C1147.88 83.8421 1147.09 87.0526 1145.51 89.6842C1143.99 92.3158 1141.88 94.3684 1139.2 95.7368C1136.57 97.1053 1133.51 97.7369 1130.09 97.7369H1129.04Z" fill="#0000FF"/>
<path d="M1200.4 91.6843C1199.67 91.6843 1199.09 91.4738 1198.61 91.1054C1198.14 90.6843 1197.93 90.0527 1197.93 89.158V66.3159C1197.93 61.8422 1196.46 58.5264 1193.56 56.3159C1190.72 54.158 1186.09 53.0527 1180.77 53.0527C1175.46 53.0527 1171.2 54.1054 1167.99 56.3159C1164.83 58.5264 1163.25 61.4738 1163.25 65.158C1163.25 68.8422 1163.25 65.2633 1163.14 65.158C1163.14 65.5264 1163.3 66.1054 1163.41 67.0001H1171.14V66.0001C1171.14 63.7896 1171.93 62.0001 1173.56 60.7896C1175.2 59.579 1177.2 58.9475 1180.46 58.9475C1183.72 58.9475 1185.98 59.579 1187.35 60.7896C1188.77 62.0001 1189.46 64.0001 1189.46 66.6843V71.4212C1182.77 71.4212 1177.41 71.8948 1173.3 72.8422C1169.25 73.7896 1166.3 75.3159 1164.46 77.3685C1162.67 79.4212 1161.78 81.4738 1161.78 85.4738C1161.78 89.4738 1162.93 92.5791 1165.3 94.6317C1167.72 96.6843 1171.14 97.737 1175.56 97.737H1175.72C1177.72 97.737 1179.67 97.5264 1181.51 97.0527C1183.35 96.6843 1185.04 95.9475 1186.56 94.9475C1188.04 93.8948 1189.3 92.4738 1190.25 90.7369C1190.4 92.5264 1190.72 93.9475 1191.25 94.9475C1191.77 95.9475 1192.56 96.6843 1193.61 97.0527C1194.67 97.5264 1196.04 97.737 1197.72 97.737C1199.4 97.737 1200.04 97.579 1201.09 97.3159C1202.14 97.0527 1203.03 96.6843 1203.77 96.158V90.6843C1202.82 91.3685 1201.72 91.6843 1200.4 91.6843ZM1189.46 79.1054C1189.46 81.4738 1189.04 83.6317 1188.19 85.5264C1187.4 87.4212 1186.19 88.9475 1184.51 90.0527C1182.88 91.158 1180.77 91.7369 1178.19 91.7369C1175.62 91.7369 1173.41 91.158 1172.04 90.0527C1170.72 88.9475 1170.09 87.2106 1170.09 85.0001C1170.09 82.7896 1170.72 81.1054 1171.88 79.9475C1173.09 78.6843 1175.14 77.8422 1177.93 77.3159C1180.77 76.7369 1184.62 76.4738 1189.46 76.4738V79.1054Z" fill="#0000FF"/>
<path d="M1212.09 96.8947V53.8421H1217.03L1217.88 58.6316C1218.72 56.7895 1219.88 55.3684 1221.4 54.4211C1222.98 53.4737 1224.67 53 1226.45 53C1228.24 53 1230.03 53.5263 1231.51 54.5263C1233.03 55.5263 1234.14 57 1234.88 59C1235.87 57.0526 1237.14 55.5263 1238.56 54.5263C1240.09 53.5263 1241.93 53 1244.14 53C1246.35 53 1249.56 54 1251.19 55.9474C1252.87 57.8947 1253.72 60.7368 1253.72 64.3684V96.8947H1246.45V65.8947C1246.45 61.6842 1244.87 59.5789 1241.72 59.5789C1238.56 59.5789 1238.93 60.1579 1237.93 61.3684C1236.93 62.5263 1236.4 64.0526 1236.4 65.8947V96.8947H1229.24V65.8947C1229.24 61.6842 1227.61 59.5789 1224.35 59.5789C1221.09 59.5789 1221.56 60.1579 1220.56 61.3684C1219.61 62.5263 1219.14 64.0526 1219.14 65.8947V96.8947H1211.98H1212.09Z" fill="#0000FF"/>
<path d="M1302.66 62.4738C1301.18 59.3159 1299.18 56.9475 1296.6 55.4212C1294.08 53.8422 1291.08 53.0527 1287.92 53.0527C1284.76 53.0527 1282.08 53.6843 1279.76 54.8422C1277.55 56.0001 1275.76 57.7369 1274.55 60.0527L1273.61 53.8948H1266.77V112.158H1275.19V92.2106C1276.4 93.7896 1278.03 95.1054 1280.08 96.158C1282.19 97.2106 1284.34 97.737 1287.55 97.737C1290.76 97.737 1293.66 96.9475 1296.24 95.3159C1298.87 93.6317 1300.97 91.2106 1302.55 88.0001C1304.13 84.7369 1304.92 80.7896 1304.92 76.0527V74.9475C1304.92 69.8422 1304.18 65.6843 1302.66 62.4738ZM1296.45 77.8948C1296.45 82.579 1295.45 86.0527 1293.5 88.3159C1291.55 90.5791 1289.03 91.6843 1285.92 91.6843C1282.82 91.7369 1280.24 90.6317 1278.24 88.3685C1276.19 86.158 1275.19 82.6843 1275.19 77.9475V73.0527C1275.19 69.5791 1275.71 66.7896 1276.71 64.7896C1277.71 62.7369 1279.03 61.2633 1280.66 60.4212C1282.29 59.5264 1283.97 59.0527 1285.87 59.0527C1287.76 59.0527 1289.5 59.5264 1291.08 60.4738C1292.71 61.3685 1294.03 62.8422 1294.97 64.8422C1295.92 66.8422 1296.39 69.579 1296.39 73.0001V77.8948H1296.45Z" fill="#0000FF"/>
<path d="M1314.24 107.737V101.684H1356.34V107.737H1314.24Z" fill="#0000FF"/>
<path d="M1381.28 96.8949L1364.55 53.8423H1373.55L1386.07 86.8423H1386.33L1398.86 53.8423H1407.12L1390.18 96.8949H1381.23H1381.28Z" fill="#0000FF"/>
<path d="M1443.01 36.8945H1435.12V44.9998H1443.01V36.8945Z" fill="#0000FF"/>
<path d="M1458.49 90.4212V96.8949H1420.07V90.4212H1435.44V60.4212H1420.02V53.8423H1443.86V90.4212H1458.49Z" fill="#0000FF"/>
<path d="M1507.9 76.7895V71.0526C1507.9 67.5789 1507.11 64.4737 1505.53 61.7895C1504.01 59.0526 1501.85 56.9474 1499.06 55.3684C1496.32 53.7895 1493.27 53 1489.11 53C1484.96 53 1481.38 53.8947 1478.33 55.6842C1475.27 57.4211 1472.96 59.8947 1471.33 63.1053C1469.7 66.3158 1468.91 70.1053 1468.91 74.4737V76.2632C1468.91 80.4737 1469.59 84.2105 1471.01 87.4737C1472.48 90.7368 1474.7 93.2632 1477.59 95.0526C1480.59 96.8421 1484.33 97.7369 1488.8 97.7369C1492.64 97.7369 1496.01 97.1053 1498.8 95.7368C1501.64 94.3684 1503.85 92.4737 1505.43 90C1507.06 87.4737 1507.85 84.4737 1507.85 81.0526H1499.96C1499.96 84.7368 1499.01 87.4211 1497.11 89.1579C1495.27 90.8947 1492.22 91.7895 1488.96 91.7895C1485.69 91.7895 1483.01 90.6316 1480.85 88.3158C1478.69 86 1477.64 82.6316 1477.64 78.2105V76.7895H1507.85H1507.9ZM1477.8 70.9474C1477.8 69 1478.22 67.1579 1479.06 65.3684C1479.96 63.5263 1481.22 62 1482.85 60.8421C1484.54 59.6316 1486.9 59.0526 1489.01 59.0526C1491.11 59.0526 1493.01 59.5263 1494.64 60.4737C1496.27 61.4211 1497.48 62.7368 1498.32 64.4211C1499.22 66.0526 1499.69 67.8947 1499.69 70.0526V71.3158H1477.8V70.9474Z" fill="#0000FF"/>
<path d="M1548.11 97.7367C1543.06 97.7367 1539.06 96.6314 1536.06 94.4735C1533.06 92.2103 1531.58 88.5788 1531.58 83.5261V60.4735H1519.11V53.8946H1531.85L1534.79 40.1577H1540V53.8946H1559.48V60.4735H1540V82.8946C1540 84.7893 1540.43 86.3682 1541.16 87.6314C1541.95 88.8419 1543.11 89.7893 1544.64 90.3156C1546.16 90.8419 1548.06 91.1577 1550.37 91.1577C1552.69 91.1577 1553.84 90.9472 1555.32 90.4735C1556.9 89.9472 1558.27 89.4209 1559.42 88.8945V95.3682C1558.06 96.1577 1556.37 96.7367 1554.27 97.1577C1552.21 97.6314 1550.11 97.8419 1548.06 97.8419V97.7367H1548.11Z" fill="#0000FF"/>
<path d="M1573.79 96.8947V53.8421H1580.63L1581.47 60C1582.74 57.5789 1584.58 55.8421 1586.95 54.6842C1589.32 53.5789 1591.89 53 1594.79 53C1599.53 53 1603.26 54.3158 1606.05 56.9474C1608.84 59.5789 1610.26 63.4737 1610.26 68.6316V96.8421H1601.84V71.0526C1601.84 67 1601 64.0526 1599.31 62.2105C1597.68 60.3684 1595.37 59.4211 1592.42 59.4211C1589.47 59.4211 1588.53 59.9474 1587.05 61C1585.53 62 1584.37 63.4211 1583.53 65.3158C1582.68 67.1053 1582.26 69.2105 1582.26 71.5263V96.7895H1573.84V96.8947H1573.79Z" fill="#0000FF"/>
<path d="M1662.31 91.6843C1661.57 91.6843 1660.94 91.4738 1660.52 91.1054C1660.05 90.6843 1659.84 90.0527 1659.84 89.158V66.3159C1659.84 61.8422 1658.36 58.5264 1655.47 56.3159C1652.63 54.158 1648 53.0527 1642.68 53.0527C1637.36 53.0527 1633.1 54.1054 1629.89 56.3159C1626.73 58.5264 1625.16 61.4738 1625.16 65.158C1625.16 68.8422 1625.05 65.2633 1625.05 65.158C1625.05 65.5264 1625.21 66.1054 1625.31 67.0001H1633.05V66.0001C1633.05 63.7896 1633.84 62.0001 1635.47 60.7896C1637.1 59.579 1639.1 58.9475 1642.36 58.9475C1645.63 58.9475 1647.89 59.579 1649.26 60.7896C1650.68 62.0001 1651.36 64.0001 1651.36 66.6843V71.4212C1644.68 71.4212 1639.31 71.8948 1635.21 72.8422C1631.15 73.7896 1628.21 75.3159 1626.37 77.3685C1624.58 79.4212 1623.68 81.4738 1623.68 85.4738C1623.68 89.4738 1624.84 92.5791 1627.21 94.6317C1629.63 96.6843 1633.05 97.737 1637.47 97.737H1637.63C1639.63 97.737 1641.57 97.5264 1643.42 97.0527C1645.26 96.6843 1646.94 95.9475 1648.47 94.9475C1649.94 93.8948 1651.21 92.4738 1652.15 90.7369C1652.31 92.5264 1652.63 93.9475 1653.15 94.9475C1653.68 95.9475 1654.47 96.6843 1655.52 97.0527C1656.57 97.5264 1657.94 97.737 1659.63 97.737C1661.31 97.737 1661.94 97.579 1662.99 97.3159C1664.05 97.0527 1664.94 96.6843 1665.68 96.158V90.6843C1664.73 91.3685 1663.57 91.6843 1662.31 91.6843ZM1651.36 79.1054C1651.36 81.4738 1650.94 83.6317 1650.1 85.5264C1649.31 87.4212 1648.1 88.9475 1646.42 90.0527C1644.78 91.158 1642.68 91.7369 1640.1 91.7369C1637.52 91.7369 1635.31 91.158 1633.94 90.0527C1632.63 88.9475 1632 87.2106 1632 85.0001C1632 82.7896 1632.63 81.1054 1633.79 79.9475C1635 78.6843 1637.05 77.8422 1639.84 77.3159C1642.68 76.7369 1646.52 76.4738 1651.36 76.4738V79.1054Z" fill="#0000FF"/>
<path d="M1673.99 96.8947V53.8421H1678.94L1679.78 58.6316C1680.62 56.7895 1681.78 55.3684 1683.31 54.4211C1684.89 53.4737 1686.57 53 1688.36 53C1690.15 53 1691.94 53.5263 1693.41 54.5263C1694.94 55.5263 1696.04 57 1696.78 59C1697.78 57.0526 1699.04 55.5263 1700.46 54.5263C1701.99 53.5263 1703.83 53 1706.04 53C1708.25 53 1711.46 54 1713.09 55.9474C1714.78 57.8947 1715.62 60.7368 1715.62 64.3684V96.8947H1708.36V65.8947C1708.36 61.6842 1706.78 59.5789 1703.62 59.5789C1700.46 59.5789 1700.83 60.1579 1699.83 61.3684C1698.83 62.5263 1698.31 64.0526 1698.31 65.8947V96.8947H1691.15V65.8947C1691.15 61.6842 1689.52 59.5789 1686.25 59.5789C1682.99 59.5789 1683.46 60.1579 1682.46 61.3684C1681.52 62.5263 1681.04 64.0526 1681.04 65.8947V96.8947H1673.89H1673.99Z" fill="#0000FF"/>
<path d="M277.155 928.79C275.839 925.632 273.944 923.105 271.418 921.316C268.892 919.526 264.893 918.632 262.051 918.632C259.209 918.632 256.683 919.158 254.472 920.211C252.315 921.211 250.631 922.737 249.42 924.684V901.842H241V962.474H247.841L248.578 956.316C249.947 958.579 251.736 960.369 254.051 961.527C256.367 962.737 258.946 963.316 261.788 963.316C264.629 963.316 268.313 962.421 270.892 960.632C273.471 958.79 275.471 956.263 276.944 952.948C278.418 949.579 279.154 945.632 279.154 941V939.842C279.154 935.632 278.523 931.948 277.155 928.79ZM270.629 942.948C270.629 947.948 269.629 951.579 267.682 953.895C265.735 956.158 263.208 957.263 260.104 957.263C256.999 957.263 254.42 956.158 252.42 953.895C250.368 951.579 249.368 947.948 249.368 942.948V938.053C249.368 933.632 250.42 930.316 252.42 928.053C254.472 925.737 256.999 924.579 260.104 924.579C263.208 924.579 265.735 925.737 267.682 928.053C269.629 930.263 270.629 933.632 270.629 938.053V942.948Z" fill="#0000FF"/>
<path d="M329.201 942.369V936.632C329.201 933.158 328.412 930.053 326.833 927.369C325.307 924.632 323.149 922.526 320.36 920.948C317.624 919.369 314.571 918.579 310.414 918.579C306.256 918.579 302.678 919.474 299.625 921.263C296.573 923 294.257 925.474 292.626 928.684C290.994 931.895 290.205 935.684 290.205 940.053V941.842C290.205 946.053 290.889 949.79 292.31 953.053C293.784 956.316 295.994 958.842 298.888 960.632C301.888 962.421 305.625 963.316 310.098 963.316C313.94 963.316 317.308 962.684 320.097 961.316C322.939 959.947 325.149 958.053 326.728 955.579C328.359 953.053 329.149 950.053 329.149 946.632H321.255C321.255 950.316 320.308 953 318.413 954.737C316.571 956.474 313.519 957.369 310.256 957.369C306.993 957.369 304.309 956.211 302.151 953.895C299.994 951.579 298.941 948.211 298.941 943.79V942.369H329.149H329.201ZM299.046 936.526C299.046 934.579 299.467 932.737 300.309 930.948C301.204 929.105 302.467 927.579 304.099 926.421C305.783 925.211 308.151 924.632 310.256 924.632C312.361 924.632 314.255 925.105 315.887 926.053C317.518 927 318.729 928.316 319.571 930C320.465 931.632 320.939 933.526 320.939 935.632V936.895H299.046V936.526Z" fill="#0000FF"/>
<path d="M343.568 962.474V901.842H351.989V925.158C353.462 922.948 355.357 921.369 357.725 920.263C360.093 919.158 362.514 918.579 365.04 918.579C367.566 918.579 370.461 919.158 372.724 920.263C375.039 921.369 376.828 923.053 378.091 925.316C379.407 927.579 380.039 930.421 380.039 933.842V962.474H371.618V935.684C371.618 932.158 370.776 929.527 369.092 927.79C367.408 926 365.093 925.105 362.198 925.105C359.304 925.105 358.567 925.579 356.988 926.527C355.409 927.421 354.199 928.684 353.304 930.316C352.462 931.895 352.041 933.684 352.041 935.684V962.474H343.568Z" fill="#0000FF"/>
<path d="M432.087 957.263C431.35 957.263 430.771 957.105 430.298 956.684C429.824 956.263 429.614 955.632 429.614 954.737V931.895C429.614 927.421 428.14 924.105 425.246 921.895C422.404 919.737 417.773 918.632 412.457 918.632C407.142 918.632 402.879 919.684 399.669 921.895C396.511 924.105 394.933 927.053 394.933 930.737C394.933 934.421 394.933 930.842 394.827 930.737C394.827 931.106 394.985 931.684 395.09 932.579H402.827V931.579C402.827 929.369 403.616 927.579 405.247 926.369C406.879 925.158 408.879 924.527 412.141 924.527C415.404 924.527 417.667 925.158 419.036 926.369C420.456 927.579 421.141 929.579 421.141 932.263V937C414.457 937 409.089 937.474 404.984 938.421C400.932 939.369 397.985 940.895 396.143 942.948C394.354 945 393.459 947.053 393.459 951.053C393.459 955.053 394.617 958.106 396.985 960.211C399.406 962.263 402.827 963.316 407.247 963.316H407.405C409.405 963.316 411.352 963.106 413.194 962.632C415.036 962.211 416.72 961.527 418.246 960.527C419.72 959.474 420.983 958.053 421.93 956.316C422.088 958.106 422.404 959.527 422.93 960.527C423.456 961.527 424.246 962.211 425.298 962.632C426.351 963.106 427.719 963.316 429.403 963.316C431.087 963.316 431.719 963.158 432.771 962.895C433.824 962.632 434.718 962.263 435.455 961.737V956.263C434.508 956.948 433.403 957.263 432.087 957.263ZM421.141 944.684C421.141 947.053 420.72 949.211 419.878 951.105C419.088 953 417.878 954.527 416.194 955.632C414.562 956.737 412.457 957.316 409.879 957.316C407.3 957.316 405.089 956.737 403.721 955.632C402.406 954.527 401.774 952.79 401.774 950.579C401.774 948.369 402.406 946.684 403.563 945.527C404.774 944.263 406.826 943.421 409.615 942.895C412.457 942.316 416.299 942.053 421.141 942.053V944.684Z" fill="#0000FF"/>
<path d="M460.032 962.473L443.297 919.421H452.296L464.821 952.421H465.084L477.61 919.421H485.872L468.926 962.473H459.98H460.032Z" fill="#0000FF"/>
<path d="M521.763 902.474H513.869V910.579H521.763V902.474Z" fill="#0000FF"/>
<path d="M537.236 956V962.473H498.818V956H514.238V926H498.818V919.421H522.658V956H537.236Z" fill="#0000FF"/>
<path d="M585.125 929.053C583.546 925.79 581.283 923.211 578.283 921.369C575.283 919.526 571.599 918.579 567.495 918.579C563.39 918.579 559.864 919.526 556.864 921.369C553.864 923.158 551.601 925.684 550.022 928.947C548.444 932.211 547.654 935.948 547.654 940.211V941.632C547.654 945.79 548.444 949.526 550.022 952.842C551.601 956.105 553.864 958.684 556.864 960.526C559.811 962.369 563.39 963.316 567.547 963.316H567.6C571.757 963.316 575.283 962.421 578.283 960.632C581.283 958.737 583.546 956.211 585.125 952.947C586.703 949.684 587.493 945.947 587.493 941.684V940.263C587.493 936.053 586.703 932.316 585.125 929.053ZM578.651 943.79C578.651 948.053 577.599 951.369 575.546 953.79C573.494 956.158 570.81 957.316 567.547 957.316C564.284 957.316 561.706 956.158 559.548 953.79C557.496 951.421 556.443 948.053 556.443 943.79V938.158C556.443 933.895 557.496 930.579 559.548 928.211C561.706 925.79 564.284 924.579 567.547 924.579C570.81 924.579 573.494 925.79 575.546 928.211C577.599 930.579 578.651 933.895 578.651 938.158V943.79Z" fill="#0000FF"/>
<path d="M640.909 931.895C640.909 935.79 640.909 933.105 640.804 933.684C640.804 934.211 640.804 934.79 640.646 935.526H633.488V933.737C633.488 932.211 633.173 930.842 632.541 929.526C631.962 928.263 631.068 927.211 629.857 926.421C628.699 925.579 627.121 925.158 625.226 925.158C623.332 925.158 621.805 925.684 620.49 926.737C619.279 927.79 618.332 929.158 617.7 930.79C617.069 932.421 616.753 934.105 616.753 935.948V956H636.12V962.474H597.281V956H608.543V926H597.702V919.421H615.385L615.806 925.737C616.806 923.474 618.385 921.737 620.437 920.526C622.595 919.263 625.016 918.579 627.752 918.579C631.962 918.579 635.173 919.842 637.435 922.369C639.751 924.842 640.909 928 640.909 931.895Z" fill="#0000FF"/>
<path d="M689.589 957.263C688.852 957.263 688.273 957.105 687.8 956.684C687.326 956.263 687.116 955.632 687.116 954.737V931.895C687.116 927.421 685.642 924.105 682.747 921.895C679.906 919.737 675.275 918.632 669.959 918.632C664.644 918.632 660.381 919.684 657.171 921.895C654.013 924.105 652.435 927.053 652.435 930.737C652.435 934.421 652.329 930.842 652.329 930.737C652.329 931.106 652.487 931.684 652.592 932.579H660.329V931.579C660.329 929.369 661.118 927.579 662.749 926.369C664.381 925.158 666.381 924.527 669.643 924.527C672.906 924.527 675.169 925.158 676.538 926.369C677.958 927.579 678.643 929.579 678.643 932.263V937C671.959 937 666.591 937.474 662.486 938.421C658.434 939.369 655.487 940.895 653.645 942.948C651.856 945 650.961 947.053 650.961 951.053C650.961 955.053 652.119 958.106 654.487 960.211C656.908 962.263 660.329 963.316 664.749 963.316H664.907C666.907 963.316 668.854 963.106 670.696 962.632C672.538 962.211 674.222 961.527 675.748 960.527C677.222 959.474 678.485 958.053 679.432 956.316C679.59 958.106 679.906 959.527 680.432 960.527C680.958 961.527 681.748 962.211 682.8 962.632C683.853 963.106 685.221 963.316 686.905 963.316C688.589 963.316 689.221 963.158 690.273 962.895C691.326 962.632 692.22 962.263 692.957 961.737V956.263C692.01 956.948 690.905 957.263 689.589 957.263ZM678.643 944.684C678.643 947.053 678.222 949.211 677.38 951.105C676.59 953 675.38 954.527 673.696 955.632C672.064 956.737 669.959 957.316 667.38 957.316C664.802 957.316 662.591 956.737 661.223 955.632C659.907 954.527 659.276 952.79 659.276 950.579C659.276 948.369 659.907 946.684 661.065 945.527C662.276 944.263 664.328 943.421 667.117 942.895C669.959 942.316 673.801 942.053 678.643 942.053V944.684Z" fill="#0000FF"/>
<path d="M741.533 956V962.474H703.062V956H718.535V908.316H703.062V901.737H726.902V956H741.533Z" fill="#0000FF"/>
<path d="M751.689 973.316V967.263H793.791V973.316H751.689Z" fill="#0000FF"/>
<path d="M832.365 901.79V924.369C831.208 922.579 829.576 921.158 827.418 920.158C825.313 919.105 823.103 918.579 819.945 918.579C816.788 918.579 813.841 919.421 811.209 921.105C808.631 922.79 806.578 925.263 805.052 928.579C803.526 931.842 802.789 935.895 802.789 940.684V941.632C802.789 946.737 803.526 950.895 805.052 954.105C806.631 957.263 808.683 959.579 811.262 961.105C813.893 962.579 816.683 963.316 819.788 963.316C822.892 963.263 825.524 962.632 827.787 961.474C829.997 960.263 831.786 958.526 832.997 956.263L833.944 962.421H840.786V901.79H832.365ZM832.471 943.263C832.471 948.053 831.418 951.579 829.418 953.895C827.471 956.158 824.945 957.263 821.84 957.263C818.735 957.263 816.156 956.053 814.156 953.737C812.209 951.421 811.209 947.895 811.209 943.105V938.474C811.209 933.842 812.209 930.369 814.156 928.053C816.209 925.684 818.735 924.526 821.84 924.526C824.945 924.526 827.471 925.684 829.418 928C831.471 930.316 832.471 933.79 832.471 938.526V943.263Z" fill="#0000FF"/>
<path d="M893.887 942.369V936.632C893.887 933.158 893.098 930.053 891.519 927.369C889.993 924.632 887.835 922.526 885.046 920.948C882.309 919.369 879.257 918.579 875.099 918.579C870.942 918.579 867.363 919.474 864.311 921.263C861.258 923 858.943 925.474 857.311 928.684C855.68 931.895 854.891 935.684 854.891 940.053V941.842C854.891 946.053 855.575 949.79 856.996 953.053C858.469 956.316 860.68 958.842 863.574 960.632C866.574 962.421 870.31 963.316 874.784 963.316C878.625 963.316 881.993 962.684 884.783 961.316C887.624 959.947 889.835 958.053 891.414 955.579C892.992 953.053 893.834 950.053 893.834 946.632H885.94C885.94 950.316 884.993 953 883.099 954.737C881.257 956.474 878.204 957.369 874.941 957.369C871.679 957.369 868.995 956.211 866.837 953.895C864.679 951.579 863.627 948.211 863.627 943.79V942.369H893.834H893.887ZM863.732 936.526C863.732 934.579 864.153 932.737 864.995 930.948C865.89 929.105 867.153 927.579 868.784 926.421C870.468 925.211 872.836 924.632 874.941 924.632C877.046 924.632 878.941 925.105 880.572 926.053C882.204 927 883.414 928.316 884.256 930C885.151 931.632 885.625 933.526 885.625 935.632V936.895H863.732V936.526Z" fill="#0000FF"/>
<path d="M925.411 963.316C922.779 963.316 920.253 962.79 917.938 961.79C915.622 960.79 913.622 959.369 911.886 957.474C910.201 955.579 908.886 953.316 907.939 950.737C906.991 948.105 906.518 945.158 906.518 941.895V939.895C906.518 936.632 906.991 933.737 907.939 931.158C908.886 928.526 910.201 926.263 911.886 924.421C913.622 922.526 915.675 921.053 917.938 920.105C920.253 919.105 922.779 918.579 925.516 918.579H926.516C929.989 918.579 933.041 919.316 935.725 920.79C938.357 922.211 940.462 924.211 941.935 926.842C943.462 929.421 944.198 932.579 944.198 936.263H936.62C936.62 933.526 936.199 931.316 935.252 929.632C934.357 927.895 933.147 926.632 931.568 925.842C930.042 925 928.252 924.579 926.2 924.579C923.148 924.579 920.569 925.684 918.464 927.947C916.411 930.158 915.359 933.526 915.359 938.158V943.79C915.359 948.211 916.359 951.579 918.411 953.895C920.464 956.211 923.2 957.369 926.516 957.369C929.831 957.369 930.305 956.948 931.831 956.211C933.41 955.369 934.62 954.105 935.462 952.421C936.357 950.684 936.831 948.421 936.831 945.684H944.304C944.304 949.474 943.514 952.632 941.935 955.263C940.409 957.895 938.304 959.895 935.62 961.316C932.989 962.684 929.936 963.316 926.516 963.316H925.411Z" fill="#0000FF"/>
<path d="M983.457 902.474H975.562V910.579H983.457V902.474Z" fill="#0000FF"/>
<path d="M998.929 956V962.473H960.512V956H975.931V926H960.512V919.421H984.352V956H998.929Z" fill="#0000FF"/>
<path d="M1028.66 963.316C1025.14 963.316 1021.98 962.842 1019.24 961.895C1016.56 960.895 1014.4 959.474 1012.82 957.579C1011.3 955.684 1010.56 953.421 1010.56 950.842V950.105C1010.56 949.79 1010.56 949.421 1010.67 949H1017.93V949.842C1017.93 952.211 1018.93 954.053 1020.98 955.421C1023.09 956.684 1026.03 957.369 1029.82 957.369C1033.61 957.369 1035.82 956.79 1037.56 955.579C1039.35 954.369 1040.24 952.737 1040.24 950.79C1040.24 948.842 1039.87 948.421 1039.14 947.579C1038.4 946.737 1037.08 946 1035.19 945.369C1033.35 944.737 1030.66 944.158 1027.09 943.579C1023.3 942.895 1020.3 942.105 1017.98 941.158C1015.67 940.158 1014.03 938.842 1013.03 937.263C1012.03 935.632 1011.51 933.632 1011.51 931.211C1011.51 928.79 1012.24 926.053 1013.77 924.211C1015.3 922.369 1017.4 920.947 1020.09 920C1022.82 919.053 1026.03 918.579 1029.66 918.579C1033.3 918.579 1035.72 919.053 1038.24 920C1040.82 920.947 1042.87 922.316 1044.4 924.053C1045.93 925.737 1046.66 927.79 1046.66 930.211V930.79C1046.66 931 1046.66 931.316 1046.5 931.737H1039.19C1039.19 929.737 1038.72 928.211 1037.77 927.211C1036.87 926.158 1035.66 925.421 1034.08 925.105C1032.56 924.684 1030.87 924.526 1029.03 924.526C1022.51 924.526 1019.24 926.526 1019.24 930.579C1019.24 934.632 1019.56 932.526 1020.24 933.263C1020.93 933.947 1022.14 934.579 1023.88 935.105C1025.66 935.684 1028.24 936.263 1031.56 936.895C1035.66 937.632 1038.87 938.526 1041.24 939.579C1043.66 940.632 1045.4 942 1046.45 943.684C1047.5 945.316 1048.03 947.474 1048.03 950.105C1048.03 952.737 1047.24 955.526 1045.66 957.526C1044.14 959.474 1041.93 960.947 1039.03 961.895C1036.19 962.842 1032.72 963.316 1028.66 963.316Z" fill="#0000FF"/>
<path d="M1086.45 902.474H1078.55V910.579H1086.45V902.474Z" fill="#0000FF"/>
<path d="M1101.92 956V962.473H1063.5V956H1078.92V926H1063.5V919.421H1087.34V956H1101.92Z" fill="#0000FF"/>
<path d="M1149.86 929.053C1148.28 925.79 1146.02 923.211 1143.02 921.369C1140.02 919.526 1136.34 918.579 1132.23 918.579C1128.13 918.579 1124.6 919.526 1121.6 921.369C1118.6 923.158 1116.34 925.684 1114.76 928.947C1113.18 932.211 1112.39 935.948 1112.39 940.211V941.632C1112.39 945.79 1113.18 949.526 1114.76 952.842C1116.34 956.105 1118.6 958.684 1121.6 960.526C1124.55 962.369 1128.13 963.316 1132.29 963.316H1132.34C1136.5 963.316 1140.02 962.421 1143.02 960.632C1146.02 958.737 1148.28 956.211 1149.86 952.947C1151.44 949.684 1152.23 945.947 1152.23 941.684V940.263C1152.23 936.053 1151.44 932.316 1149.86 929.053ZM1143.39 943.79C1143.39 948.053 1142.34 951.369 1140.28 953.79C1138.18 956.158 1135.55 957.316 1132.29 957.316C1129.02 957.316 1126.44 956.158 1124.29 953.79C1122.23 951.421 1121.18 948.053 1121.18 943.79V938.158C1121.18 933.895 1122.23 930.579 1124.29 928.211C1126.39 925.79 1129.02 924.579 1132.29 924.579C1135.55 924.579 1138.23 925.79 1140.28 928.211C1142.34 930.579 1143.39 933.895 1143.39 938.158V943.79Z" fill="#0000FF"/>
<path d="M1165.76 962.474V919.421H1172.6L1173.44 925.579C1174.76 923.158 1176.54 921.369 1178.91 920.263C1181.28 919.158 1183.86 918.579 1186.75 918.579C1191.49 918.579 1195.23 919.895 1198.02 922.526C1200.81 925.158 1202.23 929.053 1202.23 934.211V962.421H1193.81V936.632C1193.81 932.579 1192.96 929.632 1191.28 927.79C1189.65 925.948 1187.33 925 1184.39 925C1181.44 925 1180.49 925.526 1179.02 926.579C1177.49 927.579 1176.33 929 1175.49 930.895C1174.65 932.684 1174.23 934.79 1174.23 937.105V962.369H1165.81V962.474H1165.76Z" fill="#0000FF"/>
<path d="M1213.22 973.316V967.263H1255.33V973.316H1213.22Z" fill="#0000FF"/>
<path d="M1264.01 962.474V919.421H1268.96L1269.8 924.211C1270.64 922.369 1271.8 920.947 1273.32 920C1274.9 919.053 1276.59 918.579 1278.38 918.579C1280.17 918.579 1281.96 919.105 1283.43 920.105C1284.95 921.105 1286.06 922.632 1286.8 924.579C1287.8 922.632 1289.06 921.105 1290.48 920.105C1292.01 919.105 1293.85 918.579 1296.06 918.579C1298.27 918.579 1301.53 919.579 1303.11 921.526C1304.8 923.474 1305.64 926.316 1305.64 929.948V962.474H1298.37V931.474C1298.37 927.263 1296.8 925.158 1293.64 925.158C1290.48 925.158 1290.85 925.737 1289.85 926.947C1288.85 928.158 1288.32 929.632 1288.32 931.474V962.474H1281.17V931.474C1281.17 927.263 1279.53 925.158 1276.27 925.158C1273.01 925.158 1273.48 925.737 1272.48 926.947C1271.54 928.105 1271.06 929.632 1271.06 931.474V962.474H1263.9H1264.01Z" fill="#0000FF"/>
<path d="M1355.32 957.263C1354.58 957.263 1354 957.105 1353.53 956.684C1353.05 956.263 1352.84 955.632 1352.84 954.737V931.895C1352.84 927.421 1351.37 924.105 1348.48 921.895C1345.63 919.737 1341 918.632 1335.69 918.632C1330.37 918.632 1326.11 919.684 1322.9 921.895C1319.74 924.105 1318.16 927.053 1318.16 930.737C1318.16 934.421 1318.16 930.842 1318.06 930.737C1318.11 931.106 1318.22 931.684 1318.32 932.579H1326.06V931.579C1326.06 929.369 1326.85 927.579 1328.48 926.369C1330.11 925.158 1332.11 924.527 1335.37 924.527C1338.63 924.527 1340.9 925.158 1342.27 926.369C1343.69 927.579 1344.37 929.579 1344.37 932.263V937C1337.69 937 1332.32 937.474 1328.21 938.421C1324.16 939.369 1321.22 940.895 1319.37 942.948C1317.58 945 1316.69 947.053 1316.69 951.053C1316.69 955.053 1317.85 958.106 1320.22 960.211C1322.64 962.263 1326.06 963.316 1330.48 963.316H1330.64C1332.64 963.316 1334.58 963.106 1336.42 962.632C1338.27 962.211 1339.95 961.527 1341.48 960.527C1342.95 959.474 1344.21 958.053 1345.16 956.316C1345.32 958.106 1345.63 959.527 1346.16 960.527C1346.69 961.527 1347.48 962.211 1348.53 962.632C1349.58 963.106 1350.95 963.316 1352.63 963.316C1354.32 963.316 1354.95 963.158 1356 962.895C1357.05 962.632 1357.95 962.263 1358.69 961.737V956.263C1357.74 956.948 1356.58 957.263 1355.32 957.263ZM1344.37 944.684C1344.37 947.053 1343.95 949.211 1343.11 951.105C1342.32 953 1341.11 954.527 1339.42 955.632C1337.79 956.737 1335.69 957.316 1333.11 957.316C1330.53 957.316 1328.32 956.737 1326.95 955.632C1325.64 954.527 1325 952.79 1325 950.579C1325 948.369 1325.64 946.684 1326.79 945.527C1328 944.263 1330.06 943.421 1332.85 942.895C1335.69 942.316 1339.53 942.053 1344.37 942.053V944.684Z" fill="#0000FF"/>
<path d="M1369.21 962.474V901.842H1377.63V943L1397.52 919.421H1407.47L1390.37 939.474L1408.47 962.474H1398.21L1384.47 945.369L1377.63 952.105V962.474H1369.21Z" fill="#0000FF"/>
<path d="M1460.47 956V962.473H1422.05V956H1437.47V926H1422.05V919.421H1445.89V956H1460.47Z" fill="#0000FF"/>
<path d="M1444.99 902.474H1437.1V910.579H1444.99V902.474Z" fill="#0000FF"/>
<path d="M1472.78 962.474V919.421H1479.62L1480.46 925.579C1481.73 923.158 1483.57 921.369 1485.94 920.263C1488.31 919.158 1490.88 918.579 1493.78 918.579C1498.52 918.579 1502.25 919.895 1505.04 922.526C1507.83 925.158 1509.25 929.053 1509.25 934.211V962.421H1500.83V936.632C1500.83 932.579 1499.99 929.632 1498.31 927.79C1496.67 925.948 1494.36 925 1491.41 925C1488.46 925 1487.52 925.526 1486.04 926.579C1484.52 927.579 1483.36 929 1482.52 930.895C1481.68 932.684 1481.25 934.79 1481.25 937.105V962.369H1472.83V962.474H1472.78Z" fill="#0000FF"/>
<path d="M1561.72 957.631C1559.46 955.579 1556.35 954.526 1552.35 954.526H1537.09C1535.41 954.526 1534.09 954.158 1533.14 953.421C1532.2 952.684 1531.72 951.526 1531.72 950.158C1531.72 948.789 1532.2 947.684 1533.14 946.895C1534.14 946.158 1535.51 945.737 1537.2 945.737H1544.09C1549.41 945.737 1553.51 944.526 1556.3 942.053C1559.19 939.579 1560.62 936.263 1560.62 932.105C1560.62 927.947 1560.25 928.421 1559.51 926.789C1558.83 925.105 1557.83 923.737 1556.46 922.684V922.526C1559.04 922 1561.09 920.737 1562.67 918.842C1564.25 916.895 1565.09 914.474 1565.09 911.684H1558.25C1558.09 913.631 1557.4 915.368 1556.25 916.895C1555.14 918.316 1553.46 919.368 1551.19 920C1549.04 919.053 1548.67 918.579 1542.77 918.579C1536.88 918.579 1532.46 919.789 1529.41 922.21C1526.41 924.631 1524.93 927.947 1524.93 932.158C1524.93 936.368 1525.46 936.737 1526.46 938.579C1527.46 940.421 1528.99 941.947 1530.99 943.105C1528.72 943.579 1526.93 944.579 1525.67 946.158C1524.36 947.737 1523.72 950.053 1523.72 951.474C1523.72 952.895 1524.04 954.316 1524.72 955.579C1525.46 956.842 1526.46 957.895 1527.67 958.684C1525.83 959.474 1524.3 960.684 1523.14 962.368C1521.93 964.053 1521.36 965.21 1521.36 968.105C1521.36 971 1522.36 973.421 1524.3 975.368C1526.25 977.316 1529.04 978.316 1532.62 978.316L1532.78 978.21H1552.14C1556.3 978.21 1559.46 977.053 1561.72 974.684C1564.04 972.368 1565.19 969.105 1565.19 965.737C1565.19 962.368 1564.04 959.631 1561.72 957.631ZM1535.51 926.21C1537.3 924.789 1539.67 924.105 1542.77 924.105C1545.88 924.105 1548.3 924.789 1550.04 926.21C1551.77 927.579 1552.67 929.684 1552.67 932.263C1552.67 934.842 1551.77 936.842 1550.04 938.316C1548.25 939.737 1545.88 940.421 1542.77 940.421C1539.67 940.421 1537.3 939.737 1535.51 938.316C1533.72 936.895 1532.88 934.895 1532.88 932.263C1532.88 929.632 1533.78 927.632 1535.51 926.21ZM1555.62 971.053C1554.51 972.158 1552.93 972.737 1550.88 972.737H1534.99C1532.99 972.737 1531.41 972.158 1530.35 971.053C1529.3 969.947 1528.78 968.684 1528.78 967.105C1528.78 965.526 1529.3 964.158 1530.35 963.053C1531.41 962 1532.99 961.474 1534.99 961.474H1550.88C1553.04 961.474 1554.62 962 1555.62 963.053C1556.67 964.105 1557.19 965.368 1557.19 967C1557.19 968.632 1556.67 970 1555.62 971.053Z" fill="#0000FF"/>
<path d="M1572.14 973.316V967.263H1614.24V973.316H1572.14Z" fill="#0000FF"/>
<path d="M1646.08 915.737V919.421H1663.18V926H1646.08V956H1663.66V962.474H1625.45V956H1637.56V926H1625.5V919.421H1637.56V914.947C1637.56 911.789 1638.29 909.21 1639.77 907.21C1641.24 905.21 1643.24 903.684 1645.77 902.684C1648.29 901.684 1651.08 901.158 1654.19 901.158C1657.29 901.158 1657.66 901.368 1659.55 901.737C1661.45 902.053 1663.03 902.526 1664.29 903.158V909.158C1663.18 908.737 1661.92 908.316 1660.61 908C1659.24 907.579 1657.82 907.421 1656.29 907.421C1654.76 907.421 1652.82 907.684 1651.24 908.158C1649.66 908.579 1648.4 909.421 1647.45 910.579C1646.55 911.737 1646.08 913.474 1646.08 915.737Z" fill="#0000FF"/>
<path d="M1712.81 929.053C1711.23 925.79 1708.97 923.211 1705.97 921.369C1702.97 919.526 1699.28 918.579 1695.18 918.579C1691.08 918.579 1687.5 919.526 1684.55 921.369C1681.55 923.158 1679.29 925.684 1677.71 928.947C1676.13 932.211 1675.34 935.948 1675.34 940.211V941.632C1675.34 945.79 1676.13 949.526 1677.71 952.842C1679.29 956.105 1681.55 958.684 1684.55 960.526C1687.5 962.369 1691.08 963.316 1695.23 963.316H1695.29C1699.44 963.316 1702.97 962.421 1705.97 960.632C1708.97 958.737 1711.23 956.211 1712.81 952.947C1714.39 949.684 1715.18 945.947 1715.18 941.684V940.263C1715.18 936.053 1714.39 932.316 1712.81 929.053ZM1706.34 943.79C1706.34 948.053 1705.28 951.369 1703.23 953.79C1701.13 956.158 1698.5 957.316 1695.23 957.316C1691.97 957.316 1689.39 956.158 1687.23 953.79C1685.18 951.421 1684.13 948.053 1684.13 943.79V938.158C1684.13 933.895 1685.18 930.579 1687.23 928.211C1689.34 925.79 1691.97 924.579 1695.23 924.579C1698.5 924.579 1701.18 925.79 1703.23 928.211C1705.28 930.579 1706.34 933.895 1706.34 938.158V943.79Z" fill="#0000FF"/>
<path d="M1768.54 931.895C1768.54 935.79 1768.54 933.105 1768.54 933.684C1768.54 934.211 1768.49 934.79 1768.38 935.526H1761.23V933.737C1761.23 932.211 1760.91 930.842 1760.28 929.526C1759.7 928.263 1758.81 927.211 1757.6 926.421C1756.44 925.579 1754.86 925.158 1752.96 925.158C1751.07 925.158 1749.54 925.684 1748.23 926.737C1747.02 927.79 1746.07 929.158 1745.44 930.79C1744.81 932.421 1744.49 934.105 1744.49 935.948V956H1763.81V962.474H1724.97V956H1736.23V926H1725.39V919.421H1743.07L1743.49 925.737C1744.49 923.474 1746.07 921.737 1748.12 920.526C1750.28 919.263 1752.7 918.579 1755.44 918.579C1759.65 918.579 1762.86 919.842 1765.12 922.369C1767.44 924.842 1768.59 928 1768.59 931.895H1768.54Z" fill="#0000FF"/>
<path d="M1776.33 973.316V967.263H1818.43V973.316H1776.33Z" fill="#0000FF"/>
<path d="M1866.22 928.053C1864.8 924.895 1862.74 922.527 1860.17 921C1857.64 919.421 1854.59 918.632 1851.48 918.632C1848.38 918.632 1845.64 919.263 1843.32 920.421C1841.06 921.579 1839.33 923.316 1838.11 925.632L1837.17 919.474H1830.33V977.737H1838.75V957.79C1839.96 959.369 1841.54 960.684 1843.64 961.737C1845.75 962.79 1847.9 963.316 1851.11 963.316C1854.32 963.316 1857.22 962.527 1859.8 960.895C1862.43 959.211 1864.53 956.79 1866.11 953.579C1867.69 950.316 1868.48 946.369 1868.48 941.632V940.527C1868.48 935.421 1867.74 931.263 1866.22 928.053ZM1859.95 943.474C1859.95 948.158 1858.96 951.632 1857.01 953.895C1855.06 956.158 1852.53 957.263 1849.43 957.263C1846.32 957.263 1843.8 956.211 1841.8 953.948C1839.75 951.737 1838.75 948.263 1838.75 943.527V938.632C1838.75 935.158 1839.27 932.369 1840.27 930.369C1841.27 928.316 1842.59 926.842 1844.22 926C1845.85 925.053 1847.54 924.632 1849.43 924.632C1851.32 924.632 1853.06 925.106 1854.64 926.053C1856.27 926.948 1857.59 928.421 1858.53 930.421C1859.48 932.421 1859.95 935.158 1859.95 938.579V943.474Z" fill="#0000FF"/>
<path d="M1921.27 931.895C1921.27 935.79 1921.27 933.105 1921.16 933.684C1921.16 934.211 1921.16 934.79 1921 935.526H1913.85V933.737C1913.85 932.211 1913.53 930.842 1912.9 929.526C1912.32 928.263 1911.42 927.211 1910.21 926.421C1909.06 925.579 1907.48 925.158 1905.58 925.158C1903.69 925.158 1902.16 925.684 1900.85 926.737C1899.58 927.79 1898.69 929.158 1898.06 930.79C1897.43 932.421 1897.11 934.105 1897.11 935.948V956H1916.42V962.474H1877.59V956H1888.9V926H1878.06V919.421H1895.74L1896.16 925.737C1897.16 923.474 1898.69 921.737 1900.79 920.526C1902.95 919.263 1905.37 918.579 1908.11 918.579C1912.32 918.579 1915.53 919.842 1917.79 922.369C1920.11 924.842 1921.27 928 1921.27 931.895Z" fill="#0000FF"/>
<path d="M1968.47 929.053C1966.89 925.79 1964.63 923.211 1961.63 921.369C1958.63 919.526 1954.95 918.579 1950.84 918.579C1946.74 918.579 1943.21 919.526 1940.21 921.369C1937.21 923.158 1934.95 925.684 1933.37 928.947C1931.79 932.211 1931 935.948 1931 940.211V941.632C1931 945.79 1931.79 949.526 1933.37 952.842C1934.95 956.105 1937.26 958.684 1940.21 960.526C1943.16 962.369 1946.74 963.316 1950.89 963.316H1950.95C1955.11 963.316 1958.63 962.421 1961.63 960.632C1964.63 958.737 1966.89 956.211 1968.47 952.947C1970.05 949.684 1970.84 945.947 1970.84 941.684V940.263C1970.84 936.053 1970.05 932.316 1968.47 929.053ZM1962 943.79C1962 948.053 1961 951.369 1958.89 953.79C1956.84 956.158 1954.16 957.316 1950.89 957.316C1947.63 957.316 1945.05 956.158 1942.9 953.79C1940.84 951.421 1939.79 948.053 1939.79 943.79V938.158C1939.79 933.895 1940.84 930.579 1942.9 928.211C1945.05 925.79 1947.63 924.579 1950.89 924.579C1954.16 924.579 1956.84 925.79 1958.89 928.211C1960.95 930.579 1962 933.895 1962 938.158V943.79Z" fill="#0000FF"/>
<path d="M2011.52 901.79V924.369C2010.36 922.579 2008.73 921.158 2006.57 920.158C2004.47 919.105 2002.26 918.579 1999.1 918.579C1995.94 918.579 1992.99 919.421 1990.36 921.105C1987.78 922.79 1985.73 925.263 1984.21 928.579C1982.68 931.842 1981.94 935.895 1981.94 940.684V941.632C1981.94 946.737 1982.68 950.895 1984.21 954.105C1985.73 957.263 1987.84 959.579 1990.42 961.105C1993.05 962.579 1995.84 963.316 1998.94 963.316C2002.05 963.263 2004.68 962.632 2006.94 961.474C2009.15 960.263 2010.94 958.526 2012.15 956.263L2013.1 962.421H2019.94V901.79H2011.52ZM2011.62 943.263C2011.62 948.053 2010.57 951.579 2008.57 953.895C2006.63 956.158 2004.1 957.263 2000.99 957.263C1997.89 957.263 1995.31 956.053 1993.31 953.737C1991.36 951.421 1990.36 947.895 1990.36 943.105V938.474C1990.36 933.842 1991.36 930.369 1993.31 928.053C1995.36 925.684 1997.89 924.526 2000.99 924.526C2004.1 924.526 2006.63 925.684 2008.57 928C2010.62 930.316 2011.62 933.79 2011.62 938.526V943.263Z" fill="#0000FF"/>
<path d="M2050.2 963.316C2045.57 963.316 2041.89 962.052 2039.1 959.421C2036.36 956.842 2034.99 952.947 2034.99 947.737V919.421H2043.52V946.105C2043.52 949.684 2044.31 952.368 2045.94 954.105C2047.62 955.842 2049.94 956.737 2052.94 956.737C2055.94 956.737 2056.62 956.263 2058.15 955.316C2059.73 954.316 2060.94 952.947 2061.78 951.263C2062.67 949.579 2063.15 947.684 2063.15 945.631V919.421H2071.57V954.684C2071.57 955.579 2071.78 956.21 2072.15 956.631C2072.52 957.052 2073.15 957.21 2073.94 957.21C2074.73 957.21 2075.04 957.21 2075.62 957.052C2076.2 956.895 2076.78 956.631 2077.41 956.21V961.684C2076.67 962.21 2075.78 962.579 2074.62 962.842C2073.57 963.105 2072.46 963.263 2071.36 963.263C2069.36 963.263 2067.78 963 2066.73 962.421C2065.73 961.789 2065.04 960.947 2064.62 959.895C2064.31 958.842 2064.04 957.631 2063.94 956.263C2063.09 957.789 2062.04 959.052 2060.73 960.158C2059.46 961.158 2057.94 961.947 2056.2 962.421C2054.46 963 2052.52 963.263 2050.31 963.263H2050.2V963.316Z" fill="#0000FF"/>
<path d="M2104.56 963.316C2101.93 963.316 2099.41 962.79 2097.09 961.79C2094.78 960.79 2092.78 959.369 2091.04 957.474C2089.36 955.579 2088.04 953.316 2087.09 950.737C2086.15 948.105 2085.67 945.158 2085.67 941.895V939.895C2085.67 936.632 2086.15 933.737 2087.09 931.158C2088.04 928.526 2089.36 926.263 2091.04 924.421C2092.78 922.526 2094.78 921.053 2097.09 920.105C2099.41 919.105 2101.93 918.579 2104.67 918.579H2105.67C2109.14 918.579 2112.2 919.316 2114.83 920.79C2117.46 922.211 2119.56 924.211 2121.04 926.842C2122.56 929.421 2123.3 932.579 2123.3 936.263H2115.72C2115.72 933.526 2115.25 931.316 2114.35 929.632C2113.46 927.895 2112.2 926.632 2110.67 925.842C2109.14 925 2107.35 924.579 2105.3 924.579C2102.25 924.579 2099.67 925.684 2097.57 927.947C2095.51 930.158 2094.46 933.526 2094.46 938.158V943.79C2094.46 948.211 2095.46 951.579 2097.51 953.895C2099.57 956.211 2102.3 957.369 2105.62 957.369C2108.93 957.369 2109.41 956.948 2110.93 956.211C2112.51 955.369 2113.72 954.105 2114.56 952.421C2115.46 950.684 2115.93 948.421 2115.93 945.684H2123.41C2123.41 949.474 2122.62 952.632 2121.04 955.263C2119.51 957.895 2117.41 959.895 2114.72 961.316C2112.09 962.684 2109.04 963.316 2105.62 963.316H2104.56Z" fill="#0000FF"/>
<path d="M2164.72 963.316C2159.66 963.316 2155.66 962.21 2152.66 960.053C2149.66 957.789 2148.19 954.158 2148.19 949.105V926.053H2135.72V919.474H2148.45L2151.4 905.737H2156.61V919.474H2176.08V926.053H2156.61V948.474C2156.61 950.368 2156.98 951.947 2157.77 953.21C2158.56 954.421 2159.72 955.368 2161.24 955.895C2162.77 956.474 2164.66 956.737 2166.98 956.737C2169.29 956.737 2170.45 956.526 2171.93 956.053C2173.5 955.526 2174.87 955 2176.03 954.474V960.947C2174.66 961.737 2172.98 962.316 2170.87 962.737C2168.77 963.21 2166.72 963.421 2164.66 963.421V963.316H2164.72Z" fill="#0000FF"/>
<path d="M2186.82 973.316V967.263H2228.92V973.316H2186.82Z" fill="#0000FF"/>
<path d="M2266.23 963.316C2261.18 963.316 2257.18 962.21 2254.18 960.053C2251.24 957.789 2249.71 954.158 2249.71 949.105V926.053H2237.24V919.474H2249.97L2252.92 905.737H2258.13V919.474H2277.6V926.053H2258.13V948.474C2258.13 950.368 2258.55 951.947 2259.29 953.21C2260.02 954.474 2261.23 955.368 2262.76 955.895C2264.29 956.474 2266.18 956.737 2268.5 956.737C2270.81 956.737 2271.97 956.526 2273.44 956.053C2275.02 955.526 2276.39 955 2277.55 954.474V960.947C2276.18 961.737 2274.5 962.316 2272.39 962.737C2270.34 963.21 2268.23 963.421 2266.18 963.421V963.316H2266.23Z" fill="#0000FF"/>
<path d="M2329.02 942.369V936.632C2329.02 933.158 2328.23 930.053 2326.65 927.369C2325.12 924.632 2322.97 922.526 2320.18 920.948C2317.39 919.369 2314.39 918.579 2310.23 918.579C2306.07 918.579 2302.49 919.474 2299.44 921.263C2296.39 923 2294.07 925.474 2292.44 928.684C2290.81 931.895 2290.02 935.684 2290.02 940.053V941.842C2290.02 946.053 2290.71 949.79 2292.13 953.053C2293.6 956.316 2295.76 958.842 2298.7 960.632C2301.7 962.421 2305.44 963.316 2309.91 963.316H2309.97C2313.81 963.316 2317.18 962.684 2319.97 961.316C2322.81 959.947 2325.02 958.053 2326.6 955.579C2328.18 953.053 2329.02 950.053 2329.02 946.632H2321.12C2321.12 950.316 2320.18 953 2318.28 954.737C2316.44 956.474 2313.39 957.369 2310.12 957.369C2306.86 957.369 2304.18 956.211 2302.02 953.895C2299.86 951.579 2298.81 948.211 2298.81 943.79V942.369H2329.02ZM2298.86 936.526C2298.86 934.579 2299.28 932.737 2300.13 930.948C2301.02 929.105 2302.28 927.579 2303.91 926.421C2305.6 925.211 2307.97 924.632 2310.07 924.632C2312.18 924.632 2314.07 925.105 2315.7 926.053C2317.33 927 2318.55 928.316 2319.39 930C2320.28 931.632 2320.76 933.526 2320.76 935.632V936.895H2298.86V936.526Z" fill="#0000FF"/>
<path d="M2380.43 957.263C2379.7 957.263 2379.12 957.105 2378.64 956.684C2378.17 956.263 2377.96 955.632 2377.96 954.737V931.895C2377.96 927.421 2376.49 924.105 2373.59 921.895C2370.75 919.737 2366.12 918.632 2360.8 918.632C2355.49 918.632 2351.22 919.684 2348.01 921.895C2344.86 924.105 2343.28 927.053 2343.28 930.737C2343.28 934.421 2343.23 930.842 2343.17 930.737C2343.17 931.106 2343.33 931.684 2343.44 932.579H2351.17V931.579C2351.17 929.369 2351.96 927.579 2353.59 926.369C2355.22 925.158 2357.22 924.527 2360.49 924.527C2363.75 924.527 2366.01 925.158 2367.38 926.369C2368.8 927.579 2369.49 929.579 2369.49 932.263V937C2362.8 937 2357.43 937.474 2353.33 938.421C2349.28 939.369 2346.33 940.895 2344.49 942.948C2342.7 945 2341.8 947.053 2341.8 951.053C2341.8 955.053 2342.96 958.106 2345.33 960.211C2347.75 962.263 2351.17 963.316 2355.59 963.316H2355.75C2357.75 963.316 2359.7 963.106 2361.54 962.632C2363.38 962.211 2365.07 961.527 2366.59 960.527C2368.07 959.474 2369.33 958.053 2370.28 956.316C2370.43 958.106 2370.75 959.527 2371.28 960.527C2371.8 961.527 2372.59 962.211 2373.64 962.632C2374.7 963.106 2376.06 963.316 2377.75 963.316C2379.43 963.316 2380.06 963.158 2381.12 962.895C2382.17 962.632 2383.06 962.263 2383.8 961.737V956.263C2382.85 956.948 2381.7 957.263 2380.43 957.263ZM2369.43 944.684C2369.43 947.053 2369.01 949.211 2368.17 951.105C2367.43 953 2366.17 954.527 2364.49 955.632C2362.86 956.737 2360.75 957.316 2358.17 957.316C2355.59 957.316 2353.38 956.737 2352.01 955.632C2350.7 954.527 2350.07 952.79 2350.07 950.579C2350.07 948.369 2350.7 946.684 2351.86 945.527C2353.07 944.263 2355.12 943.421 2357.91 942.895C2360.75 942.316 2364.59 942.053 2369.43 942.053V944.684Z" fill="#0000FF"/>
<path d="M2392.06 962.474V919.421H2397.01L2397.85 924.211C2398.7 922.369 2399.85 920.947 2401.38 920C2402.96 919.053 2404.64 918.579 2406.43 918.579C2408.22 918.579 2410.01 919.105 2411.48 920.105C2413.01 921.105 2414.11 922.632 2414.85 924.579C2415.85 922.632 2417.11 921.105 2418.54 920.105C2420.06 919.105 2421.9 918.579 2424.11 918.579C2426.32 918.579 2429.59 919.579 2431.17 921.526C2432.85 923.474 2433.69 926.316 2433.69 929.948V962.474H2426.43V931.474C2426.43 927.263 2424.85 925.158 2421.69 925.158C2418.54 925.158 2418.9 925.737 2417.9 926.947C2416.9 928.158 2416.38 929.632 2416.38 931.474V962.474H2409.22V931.474C2409.22 927.263 2407.59 925.158 2404.33 925.158C2401.06 925.158 2401.54 925.737 2400.54 926.947C2399.59 928.105 2399.12 929.632 2399.12 931.474V962.474H2391.96H2392.06Z" fill="#0000FF"/>
<path d="M2463.79 963.316C2460.27 963.316 2457.11 962.842 2454.37 961.895C2451.69 960.895 2449.53 959.474 2447.95 957.579C2446.43 955.684 2445.69 953.421 2445.69 950.842V950.105C2445.69 949.79 2445.69 949.421 2445.8 949H2453.06V949.842C2453.06 952.211 2454.06 954.053 2456.11 955.421C2458.22 956.684 2461.16 957.369 2464.95 957.369C2468.74 957.369 2470.95 956.79 2472.69 955.579C2474.48 954.369 2475.37 952.737 2475.37 950.79C2475.37 948.842 2475 948.421 2474.27 947.579C2473.53 946.737 2472.22 946 2470.32 945.369C2468.48 944.737 2465.79 944.158 2462.22 943.579C2458.48 942.895 2455.43 942.105 2453.11 941.158C2450.8 940.158 2449.16 938.842 2448.16 937.263C2447.17 935.632 2446.64 933.632 2446.64 931.211C2446.64 928.79 2447.38 926.053 2448.9 924.211C2450.43 922.369 2452.53 920.947 2455.22 920C2457.95 919.053 2461.16 918.579 2464.8 918.579C2468.43 918.579 2470.85 919.053 2473.37 920C2475.95 920.947 2478 922.316 2479.53 924.053C2481.06 925.737 2481.79 927.79 2481.79 930.211V930.79C2481.79 931 2481.74 931.316 2481.64 931.737H2474.32C2474.32 929.737 2473.85 928.211 2472.9 927.211C2472 926.158 2470.79 925.421 2469.22 925.105C2467.69 924.684 2466.01 924.526 2464.16 924.526C2457.64 924.526 2454.37 926.526 2454.37 930.579C2454.37 934.632 2454.69 932.526 2455.37 933.263C2456.06 933.947 2457.27 934.579 2459.01 935.105C2460.8 935.684 2463.37 936.263 2466.69 936.895C2470.79 937.632 2474 938.526 2476.37 939.579C2478.79 940.632 2480.53 942 2481.58 943.684C2482.64 945.316 2483.16 947.474 2483.16 950.105C2483.16 952.737 2482.37 955.526 2480.79 957.526C2479.27 959.474 2477.06 960.947 2474.16 961.895C2471.32 962.842 2467.85 963.316 2463.79 963.316Z" fill="#0000FF"/>
<path d="M767.942 246.316H742.682V271.579H767.942V246.316Z" fill="#0000FF"/>
<path d="M801.622 246.316H776.361V271.579H801.622V246.316Z" fill="#0000FF"/>
<path d="M835.304 246.316H810.043V271.579H835.304V246.316Z" fill="#0000FF"/>
<path d="M835.304 313.684H810.043V338.947H835.304V313.684Z" fill="#0000FF"/>
<path d="M801.622 313.684H776.361V338.947H801.622V313.684Z" fill="#0000FF"/>
<path d="M767.942 313.684H742.682V338.947H767.942V313.684Z" fill="#0000FF"/>
<path d="M709 347.368V372.631H734.261V347.368H709.316H709Z" fill="#0000FF"/>
<path d="M835.304 381.053H810.043V406.316H835.304V381.053Z" fill="#0000FF"/>
<path d="M801.622 381.053H776.361V406.316H801.622V381.053Z" fill="#0000FF"/>
<path d="M767.942 381.053H742.682V406.316H767.942V381.053Z" fill="#0000FF"/>
<path d="M978.447 246.316V271.579H1003.71V246.316H978.763H978.447Z" fill="#0000FF"/>
<path d="M1012.13 246.316V271.579H1037.39V246.316H1012.44H1012.13Z" fill="#0000FF"/>
<path d="M944.768 280V305.263H970.028V280H945.083H944.768Z" fill="#0000FF"/>
<path d="M944.768 347.369V372.632H970.028V347.369H945.083H944.768Z" fill="#0000FF"/>
<path d="M1045.81 347.369V372.632H1071.07V347.369H1046.13H1045.81Z" fill="#0000FF"/>
<path d="M1045.81 280V305.263H1071.07V280H1046.13H1045.81Z" fill="#0000FF"/>
<path d="M1045.81 313.685V338.948H1071.07V313.685H1046.13H1045.81Z" fill="#0000FF"/>
<path d="M978.447 381.053V406.316H1003.71V381.053H978.763H978.447Z" fill="#0000FF"/>
<path d="M1012.13 381.053V406.316H1037.39V381.053H1012.44H1012.13Z" fill="#0000FF"/>
<path d="M911.086 347.369V372.632H936.347V347.369H911.402H911.086Z" fill="#0000FF"/>
<path d="M911.086 381.053V406.316H936.347V381.053H911.402H911.086Z" fill="#0000FF"/>
<path d="M911.086 414.737V440H936.347V414.737H911.402H911.086Z" fill="#0000FF"/>
<path d="M911.086 246.316V271.579H936.347V246.316H911.402H911.086Z" fill="#0000FF"/>
<path d="M911.086 313.685V338.948H936.347V313.685H911.402H911.086Z" fill="#0000FF"/>
<path d="M911.086 448.421V473.685H936.347V448.421H911.402H911.086Z" fill="#0000FF"/>
<path d="M911.086 280V305.263H936.347V280H911.402H911.086Z" fill="#0000FF"/>
<path d="M1180.43 246.316V271.579H1205.69V246.316H1180.75H1180.43Z" fill="#0000FF"/>
<path d="M1214.11 246.316V271.579H1239.37V246.316H1214.43H1214.11Z" fill="#0000FF"/>
<path d="M1146.75 347.368V372.631H1172.01V347.368H1147.07H1146.75Z" fill="#0000FF"/>
<path d="M1146.75 280V305.263H1172.01V280H1147.07H1146.75Z" fill="#0000FF"/>
<path d="M1247.79 280V305.263H1273.05V280H1248.11H1247.79Z" fill="#0000FF"/>
<path d="M1247.79 313.684V338.947H1273.05V313.684H1248.11H1247.79Z" fill="#0000FF"/>
<path d="M1247.79 347.368V372.631H1273.05V347.368H1248.11H1247.79Z" fill="#0000FF"/>
<path d="M1180.43 381.053V406.316H1205.69V381.053H1180.75H1180.43Z" fill="#0000FF"/>
<path d="M1214.11 381.053V406.316H1239.37V381.053H1214.43H1214.11Z" fill="#0000FF"/>
<path d="M1113.07 381.053V406.316H1138.33V381.053H1113.38H1113.07Z" fill="#0000FF"/>
<path d="M1113.07 347.368V372.631H1138.33V347.368H1113.38H1113.07Z" fill="#0000FF"/>
<path d="M1113.07 448.421V473.684H1138.33V448.421H1113.38H1113.07Z" fill="#0000FF"/>
<path d="M1113.07 246.316V271.579H1138.33V246.316H1113.38H1113.07Z" fill="#0000FF"/>
<path d="M1113.07 414.737V440H1138.33V414.737H1113.38H1113.07Z" fill="#0000FF"/>
<path d="M1113.07 280V305.263H1138.33V280H1113.38H1113.07Z" fill="#0000FF"/>
<path d="M1113.07 313.684V338.947H1138.33V313.684H1113.38H1113.07Z" fill="#0000FF"/>
<path d="M1315.26 178.947V204.21H1340.52V178.947H1315.58H1315.26Z" fill="#0000FF"/>
<path d="M1348.94 280V305.263H1374.2V280H1349.26H1348.94Z" fill="#0000FF"/>
<path d="M1348.94 212.631V237.895H1374.2V212.631H1349.26H1348.94Z" fill="#0000FF"/>
<path d="M1348.94 246.316V271.579H1374.2V246.316H1349.26H1348.94Z" fill="#0000FF"/>
<path d="M1348.94 178.947V204.21H1374.2V178.947H1349.26H1348.94Z" fill="#0000FF"/>
<path d="M1348.94 313.684V338.947H1374.2V313.684H1349.26H1348.94Z" fill="#0000FF"/>
<path d="M1348.94 347.368V372.631H1374.2V347.368H1349.26H1348.94Z" fill="#0000FF"/>
<path d="M1382.62 381.053V406.316H1407.88V381.053H1382.94H1382.62Z" fill="#0000FF"/>
<path d="M1315.26 381.053V406.316H1340.52V381.053H1315.58H1315.26Z" fill="#0000FF"/>
<path d="M1348.94 381.053V406.316H1374.2V381.053H1349.26H1348.94Z" fill="#0000FF"/>
<path d="M1483.67 178.947V204.21H1508.93V178.947H1483.98H1483.67Z" fill="#0000FF"/>
<path d="M1449.98 246.316V271.579H1475.25V246.316H1450.3H1449.98Z" fill="#0000FF"/>
<path d="M1483.67 246.316V271.579H1508.93V246.316H1483.98H1483.67Z" fill="#0000FF"/>
<path d="M1483.67 347.368V372.631H1508.93V347.368H1483.98H1483.67Z" fill="#0000FF"/>
<path d="M1483.67 313.684V338.947H1508.93V313.684H1483.98H1483.67Z" fill="#0000FF"/>
<path d="M1483.67 280V305.263H1508.93V280H1483.98H1483.67Z" fill="#0000FF"/>
<path d="M1517.35 381.053V406.316H1542.61V381.053H1517.66H1517.35Z" fill="#0000FF"/>
<path d="M1449.98 381.053V406.316H1475.25V381.053H1450.3H1449.98Z" fill="#0000FF"/>
<path d="M1483.67 381.053V406.316H1508.93V381.053H1483.98H1483.67Z" fill="#0000FF"/>
<path d="M1618.71 246.316H1618.39V271.579H1643.65V246.316H1618.71Z" fill="#0000FF"/>
<path d="M1652.07 246.316V271.579H1677.33V246.316H1652.39H1652.07Z" fill="#0000FF"/>
<path d="M1685.75 246.316V271.579H1711.01V246.316H1686.07H1685.75Z" fill="#0000FF"/>
<path d="M1652.07 313.684V338.947H1677.33V313.684H1652.39H1652.07Z" fill="#0000FF"/>
<path d="M1618.71 313.684H1618.39V338.947H1643.65V313.684H1618.71Z" fill="#0000FF"/>
<path d="M1685.75 313.684V338.947H1711.01V313.684H1686.07H1685.75Z" fill="#0000FF"/>
<path d="M1719.43 280V305.263H1744.69V280H1719.75H1719.43Z" fill="#0000FF"/>
<path d="M1719.43 313.684V338.947H1744.69V313.684H1719.75H1719.43Z" fill="#0000FF"/>
<path d="M1584.71 280V305.263H1609.97V280H1585.02H1584.71Z" fill="#0000FF"/>
<path d="M1584.71 313.684V338.947H1609.97V313.684H1585.02H1584.71Z" fill="#0000FF"/>
<path d="M1584.71 347.368V372.631H1609.97V347.368H1585.02H1584.71Z" fill="#0000FF"/>
<path d="M1652.07 381.053V406.316H1677.33V381.053H1652.39H1652.07Z" fill="#0000FF"/>
<path d="M1685.75 381.053V406.316H1711.01V381.053H1686.07H1685.75Z" fill="#0000FF"/>
<path d="M1618.71 381.053H1618.39V406.316H1643.65V381.053H1618.71Z" fill="#0000FF"/>
<path d="M1854.16 246.316V271.579H1879.42V246.316H1854.47H1854.16Z" fill="#0000FF"/>
<path d="M1820.48 246.316V271.579H1845.74V246.316H1820.79H1820.48Z" fill="#0000FF"/>
<path d="M1887.84 280V305.263H1913.1V280H1888.15H1887.84Z" fill="#0000FF"/>
<path d="M1786.79 280V305.263H1812.06V280H1787.11H1786.79Z" fill="#0000FF"/>
<path d="M1786.79 347.368V372.631H1812.06V347.368H1787.11H1786.79Z" fill="#0000FF"/>
<path d="M1786.79 313.684V338.947H1812.06V313.684H1787.11H1786.79Z" fill="#0000FF"/>
<path d="M1887.84 347.368V372.631H1913.1V347.368H1888.15H1887.84Z" fill="#0000FF"/>
<path d="M1820.48 381.053V406.316H1845.74V381.053H1820.79H1820.48Z" fill="#0000FF"/>
<path d="M1854.16 381.053V406.316H1879.42V381.053H1854.47H1854.16Z" fill="#0000FF"/>
<path d="M1921.52 212.631V237.895H1946.78V212.631H1921.84H1921.52Z" fill="#0000FF"/>
<path d="M1921.52 280V305.263H1946.78V280H1921.84H1921.52Z" fill="#0000FF"/>
<path d="M1921.52 347.368V372.631H1946.78V347.368H1921.84H1921.52Z" fill="#0000FF"/>
<path d="M1921.52 178.947V204.21H1946.78V178.947H1921.84H1921.52Z" fill="#0000FF"/>
<path d="M1921.52 246.316V271.579H1946.78V246.316H1921.84H1921.52Z" fill="#0000FF"/>
<path d="M1921.52 381.053V406.316H1946.78V381.053H1921.84H1921.52Z" fill="#0000FF"/>
<path d="M1921.52 313.684V338.947H1946.78V313.684H1921.84H1921.52Z" fill="#0000FF"/>
<path d="M843.725 280V305.263H868.985V280H844.04H843.725Z" fill="#0000FF"/>
<path d="M843.725 313.684V338.947H868.985V313.684H844.04H843.725Z" fill="#0000FF"/>
<path d="M843.725 381.053V406.316H868.985V381.053H844.04H843.725Z" fill="#0000FF"/>
<path d="M843.725 347.368V372.631H868.985V347.368H844.04H843.725Z" fill="#0000FF"/>
<path d="M1550.84 515.79V541.053H1576.1V515.79H1551.15H1550.84Z" fill="#0000FF"/>
<path d="M1584.52 549.474V574.737H1609.78V549.474H1584.84H1584.52Z" fill="#0000FF"/>
<path d="M1584.52 515.79V541.053H1609.78V515.79H1584.84H1584.52Z" fill="#0000FF"/>
<path d="M1584.52 616.842V642.105H1609.78V616.842H1584.84H1584.52Z" fill="#0000FF"/>
<path d="M1584.52 650.526V675.79H1609.78V650.526H1584.84H1584.52Z" fill="#0000FF"/>
<path d="M1584.52 684.21V709.474H1609.78V684.21H1584.84H1584.52Z" fill="#0000FF"/>
<path d="M1584.52 583.158V608.421H1609.78V583.158H1584.84H1584.52Z" fill="#0000FF"/>
<path d="M1618.2 717.895V743.158H1643.46V717.895H1618.52H1618.2Z" fill="#0000FF"/>
<path d="M1584.52 717.895V743.158H1609.78V717.895H1584.84H1584.52Z" fill="#0000FF"/>
<path d="M1550.84 717.895V743.158H1576.1V717.895H1551.15H1550.84Z" fill="#0000FF"/>
<path d="M372 616.842V642.105H397.261V616.842H372.316H372Z" fill="#0000FF"/>
<path d="M372 650.526V675.79H397.261V650.526H372.316H372Z" fill="#0000FF"/>
<path d="M372 684.21V709.474H397.261V684.21H372.316H372Z" fill="#0000FF"/>
<path d="M372 583.158V608.421H397.261V583.158H372.316H372Z" fill="#0000FF"/>
<path d="M473.043 684.21V709.474H498.304V684.21H473.359H473.043Z" fill="#0000FF"/>
<path d="M439.361 717.895V743.158H464.622V717.895H439.677H439.361Z" fill="#0000FF"/>
<path d="M405.682 717.895V743.158H430.942V717.895H405.997H405.682Z" fill="#0000FF"/>
<path d="M506.725 684.21V709.474H531.985V684.21H507.04H506.725Z" fill="#0000FF"/>
<path d="M506.725 616.842V642.105H531.985V616.842H507.04H506.725Z" fill="#0000FF"/>
<path d="M506.725 650.526V675.79H531.985V650.526H507.04H506.725Z" fill="#0000FF"/>
<path d="M506.725 717.895V743.158H531.985V717.895H507.04H506.725Z" fill="#0000FF"/>
<path d="M506.725 583.158V608.421H531.985V583.158H507.04H506.725Z" fill="#0000FF"/>
<path d="M574.086 583.158V608.421H599.347V583.158H574.402H574.086Z" fill="#0000FF"/>
<path d="M607.768 616.842V642.105H633.028V616.842H608.083H607.768Z" fill="#0000FF"/>
<path d="M675.131 616.842V642.105H700.392V616.842H675.447H675.131Z" fill="#0000FF"/>
<path d="M708.811 583.158V608.421H734.071V583.158H709.126H708.811Z" fill="#0000FF"/>
<path d="M641.449 650.526V675.79H666.71V650.526H641.765H641.449Z" fill="#0000FF"/>
<path d="M607.768 684.21V709.474H633.028V684.21H608.083H607.768Z" fill="#0000FF"/>
<path d="M574.086 717.895V743.158H599.347V717.895H574.402H574.086Z" fill="#0000FF"/>
<path d="M708.811 717.895V743.158H734.071V717.895H709.126H708.811Z" fill="#0000FF"/>
<path d="M675.131 684.21V709.474H700.392V684.21H675.447H675.131Z" fill="#0000FF"/>
<path d="M877.217 751.579V776.842H902.478V751.579H877.533H877.217Z" fill="#0000FF"/>
<path d="M843.535 751.579V776.842H868.796V751.579H843.851H843.535Z" fill="#0000FF"/>
<path d="M809.854 751.579V776.842H835.114V751.579H810.169H809.854Z" fill="#0000FF"/>
<path d="M776.174 751.579V776.842H801.435V751.579H776.49H776.174Z" fill="#0000FF"/>
<path d="M1214.03 583.158V608.421H1239.29V583.158H1214.34H1214.03Z" fill="#0000FF"/>
<path d="M1247.71 583.158V608.421H1272.97V583.158H1248.02H1247.71Z" fill="#0000FF"/>
<path d="M1180.35 616.842V642.105H1205.61V616.842H1180.66H1180.35Z" fill="#0000FF"/>
<path d="M1146.67 583.158V608.421H1171.93V583.158H1146.98H1146.67Z" fill="#0000FF"/>
<path d="M1146.67 616.842V642.105H1171.93V616.842H1146.98H1146.67Z" fill="#0000FF"/>
<path d="M1146.67 717.895V743.158H1171.93V717.895H1146.98H1146.67Z" fill="#0000FF"/>
<path d="M1146.67 650.526V675.79H1171.93V650.526H1146.98H1146.67Z" fill="#0000FF"/>
<path d="M1146.67 684.21V709.474H1171.93V684.21H1146.98H1146.67Z" fill="#0000FF"/>
<path d="M1281.39 650.526V675.79H1306.65V650.526H1281.71H1281.39Z" fill="#0000FF"/>
<path d="M1281.39 717.895V743.158H1306.65V717.895H1281.71H1281.39Z" fill="#0000FF"/>
<path d="M1281.39 684.21V709.474H1306.65V684.21H1281.71H1281.39Z" fill="#0000FF"/>
<path d="M1281.39 616.842V642.105H1306.65V616.842H1281.71H1281.39Z" fill="#0000FF"/>
<path d="M1685.56 616.842V642.105H1710.82V616.842H1685.88H1685.56Z" fill="#0000FF"/>
<path d="M1685.56 650.526V675.79H1710.82V650.526H1685.88H1685.56Z" fill="#0000FF"/>
<path d="M1685.56 583.158V608.421H1710.82V583.158H1685.88H1685.56Z" fill="#0000FF"/>
<path d="M1786.61 650.526V675.79H1811.87V650.526H1786.92H1786.61Z" fill="#0000FF"/>
<path d="M1719.24 684.21V709.474H1744.5V684.21H1719.56H1719.24Z" fill="#0000FF"/>
<path d="M1752.93 684.21V709.474H1778.19V684.21H1753.24H1752.93Z" fill="#0000FF"/>
<path d="M1685.56 751.579V776.842H1710.82V751.579H1685.88H1685.56Z" fill="#0000FF"/>
<path d="M1820.29 751.579V776.842H1845.55V751.579H1820.6H1820.29Z" fill="#0000FF"/>
<path d="M1820.29 583.158V608.421H1845.55V583.158H1820.6H1820.29Z" fill="#0000FF"/>
<path d="M1820.29 684.21V709.474H1845.55V684.21H1820.6H1820.29Z" fill="#0000FF"/>
<path d="M1820.29 616.842V642.105H1845.55V616.842H1820.6H1820.29Z" fill="#0000FF"/>
<path d="M1820.29 717.895V743.158H1845.55V717.895H1820.6H1820.29Z" fill="#0000FF"/>
<path d="M1820.29 650.526V675.79H1845.55V650.526H1820.6H1820.29Z" fill="#0000FF"/>
<path d="M1719.24 785.263V810.526H1744.5V785.263H1719.56H1719.24Z" fill="#0000FF"/>
<path d="M1752.93 785.263V810.526H1778.19V785.263H1753.24H1752.93Z" fill="#0000FF"/>
<path d="M1786.61 785.263V810.526H1811.87V785.263H1786.92H1786.61Z" fill="#0000FF"/>
<path d="M1955.01 583.158V608.421H1980.27V583.158H1955.33H1955.01Z" fill="#0000FF"/>
<path d="M1988.69 583.158V608.421H2013.95V583.158H1989.01H1988.69Z" fill="#0000FF"/>
<path d="M1887.65 583.158V608.421H1912.91V583.158H1887.97H1887.65Z" fill="#0000FF"/>
<path d="M1921.33 684.21V709.474H1946.59V684.21H1921.65H1921.33Z" fill="#0000FF"/>
<path d="M1921.33 616.842V642.105H1946.59V616.842H1921.65H1921.33Z" fill="#0000FF"/>
<path d="M1921.33 515.79V541.053H1946.59V515.79H1921.65H1921.33Z" fill="#0000FF"/>
<path d="M1921.33 650.526V675.79H1946.59V650.526H1921.65H1921.33Z" fill="#0000FF"/>
<path d="M1921.33 549.474V574.737H1946.59V549.474H1921.65H1921.33Z" fill="#0000FF"/>
<path d="M1921.33 583.158V608.421H1946.59V583.158H1921.65H1921.33Z" fill="#0000FF"/>
<path d="M2022.38 684.21V709.474H2047.64V684.21H2022.69H2022.38Z" fill="#0000FF"/>
<path d="M1988.69 717.895V743.158H2013.95V717.895H1989.01H1988.69Z" fill="#0000FF"/>
<path d="M1955.01 717.895V743.158H1980.27V717.895H1955.33H1955.01Z" fill="#0000FF"/>
<path d="M2123.52 515.79V541.053H2148.78V515.79H2123.84H2123.52Z" fill="#0000FF"/>
<path d="M2089.84 583.158V608.421H2115.1V583.158H2090.16H2089.84Z" fill="#0000FF"/>
<path d="M2123.52 650.526V675.79H2148.78V650.526H2123.84H2123.52Z" fill="#0000FF"/>
<path d="M2123.52 616.842V642.105H2148.78V616.842H2123.84H2123.52Z" fill="#0000FF"/>
<path d="M2123.52 684.21V709.474H2148.78V684.21H2123.84H2123.52Z" fill="#0000FF"/>
<path d="M2123.52 583.158V608.421H2148.78V583.158H2123.84H2123.52Z" fill="#0000FF"/>
<path d="M2089.84 717.895V743.158H2115.1V717.895H2090.16H2089.84Z" fill="#0000FF"/>
<path d="M2123.52 717.895V743.158H2148.78V717.895H2123.84H2123.52Z" fill="#0000FF"/>
<path d="M2157.2 717.895V743.158H2182.46V717.895H2157.52H2157.2Z" fill="#0000FF"/>
<path d="M2258.25 583.158V608.421H2283.51V583.158H2258.56H2258.25Z" fill="#0000FF"/>
<path d="M2291.93 583.158V608.421H2317.19V583.158H2292.24H2291.93Z" fill="#0000FF"/>
<path d="M2325.93 583.158H2325.61V608.421H2350.87V583.158H2325.93Z" fill="#0000FF"/>
<path d="M2224.57 616.842V642.105H2249.83V616.842H2224.88H2224.57Z" fill="#0000FF"/>
<path d="M2224.57 684.21V709.474H2249.83V684.21H2224.88H2224.57Z" fill="#0000FF"/>
<path d="M2224.57 650.526V675.79H2249.83V650.526H2224.88H2224.57Z" fill="#0000FF"/>
<path d="M2291.93 717.895V743.158H2317.19V717.895H2292.24H2291.93Z" fill="#0000FF"/>
<path d="M2325.61 717.895V743.158H2350.87V717.895H2325.93H2325.61Z" fill="#0000FF"/>
<path d="M2258.25 717.895V743.158H2283.51V717.895H2258.56H2258.25Z" fill="#0000FF"/>
<path d="M1003.52 583.158H978.26V608.421H1003.52V583.158Z" fill="#0000FF"/>
<path d="M1037.2 583.158H1011.94V608.421H1037.2V583.158Z" fill="#0000FF"/>
<path d="M1070.88 583.158H1045.62V608.421H1070.88V583.158Z" fill="#0000FF"/>
<path d="M1003.52 650.526H978.26V675.79H1003.52V650.526Z" fill="#0000FF"/>
<path d="M1070.88 650.526H1045.62V675.79H1070.88V650.526Z" fill="#0000FF"/>
<path d="M1037.2 650.526H1011.94V675.79H1037.2V650.526Z" fill="#0000FF"/>
<path d="M944.578 684.21V709.474H969.839V684.21H944.894H944.578Z" fill="#0000FF"/>
<path d="M1003.52 717.895H978.26V743.158H1003.52V717.895Z" fill="#0000FF"/>
<path d="M1070.88 717.895H1045.62V743.158H1070.88V717.895Z" fill="#0000FF"/>
<path d="M1037.2 717.895H1011.94V743.158H1037.2V717.895Z" fill="#0000FF"/>
<path d="M1079.3 717.895V743.158H1104.56V717.895H1079.62H1079.3Z" fill="#0000FF"/>
<path d="M1079.3 684.21V709.474H1104.56V684.21H1079.62H1079.3Z" fill="#0000FF"/>
<path d="M1079.3 616.842V642.105H1104.56V616.842H1079.62H1079.3Z" fill="#0000FF"/>
<path d="M1079.3 650.526V675.79H1104.56V650.526H1079.62H1079.3Z" fill="#0000FF"/>
<path d="M1407.69 583.158H1382.43V608.421H1407.69V583.158Z" fill="#0000FF"/>
<path d="M1475.06 583.158H1449.79V608.421H1475.06V583.158Z" fill="#0000FF"/>
<path d="M1441.37 583.158H1416.11V608.421H1441.37V583.158Z" fill="#0000FF"/>
<path d="M1407.69 650.526H1382.43V675.79H1407.69V650.526Z" fill="#0000FF"/>
<path d="M1475.06 650.526H1449.79V675.79H1475.06V650.526Z" fill="#0000FF"/>
<path d="M1441.37 650.526H1416.11V675.79H1441.37V650.526Z" fill="#0000FF"/>
<path d="M1348.75 684.21V709.474H1374.01V684.21H1349.07H1348.75Z" fill="#0000FF"/>
<path d="M1475.06 717.895H1449.79V743.158H1475.06V717.895Z" fill="#0000FF"/>
<path d="M1407.69 717.895H1382.43V743.158H1407.69V717.895Z" fill="#0000FF"/>
<path d="M1441.37 717.895H1416.11V743.158H1441.37V717.895Z" fill="#0000FF"/>
<path d="M1483.48 650.526V675.79H1508.74V650.526H1483.79H1483.48Z" fill="#0000FF"/>
<path d="M1483.48 616.842V642.105H1508.74V616.842H1483.79H1483.48Z" fill="#0000FF"/>
<path d="M1483.48 717.895V743.158H1508.74V717.895H1483.79H1483.48Z" fill="#0000FF"/>
<path d="M1483.48 684.21V709.474H1508.74V684.21H1483.79H1483.48Z" fill="#0000FF"/>
</svg>
