<svg width="302" height="100" viewBox="0 0 302 100" fill="none" xmlns="http://www.w3.org/2000/svg">
<path d="M19.4404 0.5H282.56C286.042 0.5 288.623 0.500686 290.663 0.672852C292.697 0.844499 294.148 1.18421 295.381 1.83691C297.418 2.91561 299.084 4.58183 300.163 6.61914C300.816 7.85195 301.156 9.30308 301.327 11.3369C301.499 13.3771 301.5 15.9583 301.5 19.4404V80.5596C301.5 84.0417 301.499 86.6229 301.327 88.6631C301.156 90.6969 300.816 92.1481 300.163 93.3809C299.084 95.4182 297.418 97.0844 295.381 98.1631C294.148 98.8158 292.697 99.1555 290.663 99.3271C288.623 99.4993 286.042 99.5 282.56 99.5H19.4404C15.9583 99.5 13.3771 99.4993 11.3369 99.3271C9.30308 99.1555 7.85195 98.8158 6.61914 98.1631C4.58183 97.0844 2.91562 95.4182 1.83691 93.3809C1.18422 92.1481 0.844498 90.6969 0.672852 88.6631C0.500686 86.6229 0.5 84.0417 0.5 80.5596V19.4404C0.5 15.9583 0.500686 13.3771 0.672852 11.3369C0.844498 9.30308 1.18422 7.85195 1.83691 6.61914C2.91562 4.58183 4.58183 2.91562 6.61914 1.83691C7.85195 1.18422 9.30308 0.844498 11.3369 0.672852C13.3771 0.500686 15.9583 0.5 19.4404 0.5Z" fill="#0055FF" stroke="#636270"/>
<path d="M111 68.1002C108.7 68.1002 106.8 67.3001 105.3 65.8001C103.8 64.3001 103 62.3001 103 60.0001C103 57.7001 103.8 55.8001 105.3 54.2001C106.8 52.7001 108.7 51.9001 111 51.9001C113.3 51.9001 115.2 52.7001 116.7 54.4001L115.3 55.7001C114.2 54.4001 112.8 53.7001 111 53.7001C109.3 53.7001 107.9 54.3001 106.7 55.4001C105.5 56.5001 105 58.0001 105 59.9001C105 61.7001 105.6 63.2001 106.7 64.4001C107.9 65.5001 109.3 66.1001 111 66.1001C112.9 66.1001 114.4 65.3001 115.8 63.9001L117.2 65.3001C116.5 66.1001 115.6 66.8001 114.5 67.3001C113.4 67.8001 112.3 68.1002 111 68.1002Z" fill="#FF0000"/>
<path d="M120.9 52.3V57.2L120.8 58.7H120.9C121.2 58.2 121.6 57.8 122.3 57.4C122.9 57 123.6 56.9 124.3 56.9C125.6 56.9 126.6 57.3 127.3 58.1C128 58.9 128.3 60 128.3 61.3V67.8H126.3V61.6C126.3 59.6 125.4 58.7 123.7 58.7C122.9 58.7 122.2 59 121.7 59.7C121.2 60.4 120.9 61.1 120.9 62V67.8H118.9V52.4L120.9 52.3Z" fill="#FF0000"/>
<path d="M132.6 67.7H130.6V57.1H132.5V58.8H132.6C132.8 58.2 133.2 57.7 133.8 57.4C134.4 57 135 56.8 135.6 56.8C136.2 56.8 136.7 56.9 137.1 57.1L136.3 59C136 58.9 135.7 58.8 135.2 58.8C134.5 58.8 133.8 59.1 133.3 59.7C132.7 60.3 132.5 61 132.5 61.9V67.7H132.6Z" fill="#FF0000"/>
<path d="M138.699 58.4C139.699 57.3 140.999 56.8 142.599 56.8C144.199 56.8 145.499 57.3 146.499 58.4C147.499 59.5 147.999 60.8 147.999 62.4C147.999 64 147.499 65.4 146.499 66.4C145.499 67.5 144.199 68 142.599 68C140.999 68 139.699 67.5 138.699 66.4C137.699 65.3 137.199 64 137.199 62.4C137.199 60.8 137.699 59.5 138.699 58.4ZM140.199 65.2C140.899 65.9 141.699 66.2 142.599 66.2C143.499 66.2 144.299 65.8 144.999 65.2C145.699 64.5 145.999 63.6 145.999 62.4C145.999 61.2 145.699 60.3 144.999 59.6C144.299 58.9 143.499 58.6 142.599 58.6C141.699 58.6 140.899 59 140.199 59.6C139.499 60.3 139.199 61.2 139.199 62.4C139.199 63.6 139.499 64.5 140.199 65.2Z" fill="#FF0000"/>
<path d="M149.699 67.7V57.1H151.599V58.6H151.699C151.999 58.1 152.499 57.7 153.099 57.3C153.699 56.9 154.299 56.8 154.999 56.8C156.599 56.8 157.799 57.5 158.299 58.8C159.199 57.5 160.399 56.8 161.999 56.8C163.299 56.8 164.199 57.2 164.799 58C165.399 58.8 165.799 59.9 165.799 61.2V67.7H163.799V61.5C163.799 60.4 163.599 59.7 163.199 59.2C162.799 58.8 162.199 58.5 161.399 58.5C160.599 58.5 159.999 58.8 159.499 59.5C158.999 60.2 158.699 60.9 158.699 61.8V67.6H156.699V61.4C156.699 60.3 156.499 59.6 156.099 59.1C155.699 58.7 155.099 58.4 154.299 58.4C153.499 58.4 152.899 58.7 152.399 59.4C151.899 60.1 151.599 60.8 151.599 61.7V67.5L149.699 67.7Z" fill="#FF0000"/>
<path d="M172.8 68.1001C171.2 68.1001 169.9 67.6 168.9 66.5C167.9 65.4 167.4 64.1 167.4 62.5C167.4 61 167.9 59.6 168.9 58.5C169.9 57.4 171.1 56.8 172.6 56.8C174.2 56.8 175.4 57.3 176.4 58.3C177.3 59.3 177.8 60.7 177.8 62.4V62.8H169.4C169.5 63.9 169.8 64.7 170.5 65.3C171.2 65.9 171.9 66.2 172.8 66.2C174.2 66.2 175.2 65.6 175.7 64.4L177.5 65.1C177.2 65.9 176.6 66.6 175.8 67.2C175 67.8 174 68.1001 172.8 68.1001ZM175.7 61.2C175.7 60.6 175.4 60 174.9 59.5C174.4 58.9 173.6 58.7 172.6 58.7C171.9 58.7 171.2 58.9 170.7 59.4C170.2 59.9 169.8 60.5 169.6 61.3H175.7V61.2Z" fill="#FF0000"/>
<path d="M201.799 52.3L197.699 67.7H195.699L192.399 57.5H192.299L188.999 67.7H186.999L182.699 52.3H184.799L188.099 64.5H188.199L191.499 54.4H193.399L196.699 64.5H196.799L199.899 52.3H201.799Z" fill="#FF0000"/>
<path d="M207 68.1001C205.4 68.1001 204.1 67.6 203.1 66.5C202.1 65.4 201.6 64.1 201.6 62.5C201.6 61 202.1 59.6 203.1 58.5C204.1 57.4 205.3 56.8 206.8 56.8C208.4 56.8 209.6 57.3 210.6 58.3C211.5 59.3 212 60.7 212 62.4V62.8H203.6C203.7 63.9 204 64.7 204.7 65.3C205.4 65.9 206.1 66.2 207 66.2C208.4 66.2 209.4 65.6 209.9 64.4L211.7 65.1C211.4 65.9 210.8 66.6 210 67.2C209.1 67.8 208.1 68.1001 207 68.1001ZM209.8 61.2C209.8 60.6 209.5 60 209 59.5C208.5 58.9 207.7 58.7 206.7 58.7C206 58.7 205.3 58.9 204.8 59.4C204.3 59.9 203.9 60.5 203.7 61.3H209.8V61.2Z" fill="#FF0000"/>
<path d="M219.299 68.1002C218.499 68.1002 217.799 67.9001 217.099 67.6001C216.499 67.3001 215.999 66.8001 215.699 66.3001H215.599V67.8001H213.699V52.4001H215.699V57.3001L215.599 58.8001H215.699C215.999 58.3001 216.499 57.8001 217.099 57.5001C217.699 57.2001 218.499 57.0001 219.299 57.0001C220.699 57.0001 221.799 57.5001 222.799 58.6001C223.799 59.7001 224.299 61.0001 224.299 62.6001C224.299 64.2001 223.799 65.5001 222.799 66.6001C221.899 67.5001 220.699 68.1002 219.299 68.1002ZM218.999 66.3001C219.899 66.3001 220.699 65.9001 221.399 65.3001C222.099 64.6001 222.399 63.7001 222.399 62.5001C222.399 61.3001 222.099 60.4001 221.399 59.7001C220.699 59.0001 219.899 58.7001 218.999 58.7001C218.099 58.7001 217.299 59.0001 216.599 59.7001C215.899 60.4001 215.599 61.3001 215.599 62.5001C215.599 63.7001 215.899 64.6001 216.599 65.3001C217.299 65.9001 218.099 66.3001 218.999 66.3001Z" fill="#FF0000"/>
<path d="M235 68.1003C233.9 68.1003 232.8 67.7002 231.7 67.0002C230.6 66.3002 229.9 65.2002 229.6 63.9002L231.4 63.2002C231.6 64.0002 232.1 64.8002 232.7 65.3002C233.3 65.8002 234.1 66.2002 235 66.2002C235.9 66.2002 236.6 66.0002 237.2 65.5002C237.8 65.0002 238.1 64.4002 238.1 63.7002C238.1 62.8002 237.8 62.2002 237.2 61.7002C236.6 61.2002 235.6 60.8002 234.3 60.4002C232.9 60.0002 231.9 59.4002 231.2 58.7002C230.5 58.0002 230.1 57.1002 230.1 56.1002C230.1 55.0002 230.5 54.0002 231.4 53.2002C232.3 52.4002 233.4 52.0002 234.8 52.0002C236.1 52.0002 237.2 52.3002 238 53.0002C238.8 53.7002 239.3 54.4002 239.6 55.1002L237.8 55.9002C237.7 55.4002 237.4 55.0002 236.8 54.5002C236.3 54.1002 235.6 53.9002 234.8 53.9002C234 53.9002 233.4 54.1002 232.9 54.5002C232.4 54.9002 232.1 55.5002 232.1 56.1002C232.1 56.7002 232.3 57.2002 232.8 57.6002C233.3 58.0002 234 58.4002 235 58.7002C235.8 58.9002 236.4 59.2002 236.9 59.4002C237.4 59.6002 237.9 59.9002 238.4 60.3002C238.9 60.7002 239.3 61.2002 239.6 61.7002C239.9 62.3002 240 62.9002 240 63.7002C240 64.5002 239.8 65.1002 239.5 65.7002C239.2 66.3002 238.8 66.8002 238.3 67.1002C237.8 67.4002 237.2 67.7002 236.6 67.9002C236.2 68.0002 235.6 68.1003 235 68.1003Z" fill="#FF0000"/>
<path d="M246.3 67.9002C245.2 67.9002 244.4 67.6002 243.8 67.0002C243.2 66.4002 242.9 65.6002 242.9 64.5002V59.0002H241V57.2002H242.9V54.0002H244.9V57.2002H247.5V59.0002H244.9V64.4002C244.9 65.5002 245.4 66.1002 246.3 66.1002C246.7 66.1002 247 66.0002 247.2 65.9002L247.9 67.6002C247.4 67.8002 246.9 67.9002 246.3 67.9002Z" fill="#FF0000"/>
<path d="M250.1 58.4C251.1 57.3 252.4 56.8 254 56.8C255.6 56.8 256.9 57.3 257.9 58.4C258.9 59.5 259.4 60.8 259.4 62.4C259.4 64 258.9 65.4 257.9 66.4C256.9 67.5 255.6 68 254 68C252.4 68 251.1 67.5 250.1 66.4C249.1 65.3 248.6 64 248.6 62.4C248.6 60.8 249.1 59.5 250.1 58.4ZM251.6 65.2C252.3 65.9 253.1 66.2 254 66.2C254.9 66.2 255.7 65.8 256.4 65.2C257.1 64.5 257.4 63.6 257.4 62.4C257.4 61.2 257.1 60.3 256.4 59.6C255.7 58.9 254.9 58.6 254 58.6C253.1 58.6 252.3 59 251.6 59.6C250.9 60.3 250.6 61.2 250.6 62.4C250.6 63.6 250.9 64.5 251.6 65.2Z" fill="#FF0000"/>
<path d="M263.1 67.7H261.1V57.1H263V58.8H263.1C263.3 58.2 263.7 57.7 264.3 57.4C264.9 57 265.5 56.8 266.1 56.8C266.7 56.8 267.2 56.9 267.6 57.1L266.8 59C266.5 58.9 266.2 58.8 265.7 58.8C265 58.8 264.3 59.1 263.8 59.7C263.2 60.3 263 61 263 61.9V67.7H263.1Z" fill="#FF0000"/>
<path d="M273 68.1001C271.4 68.1001 270.1 67.6 269.1 66.5C268.1 65.4 267.6 64.1 267.6 62.5C267.6 61 268.1 59.6 269.1 58.5C270.1 57.4 271.3 56.8 272.8 56.8C274.4 56.8 275.6 57.3 276.6 58.3C277.5 59.3 278 60.7 278 62.4V62.8H269.6C269.7 63.9 270 64.7 270.7 65.3C271.4 65.9 272.1 66.2 273 66.2C274.4 66.2 275.4 65.6 275.9 64.4L277.7 65.1C277.4 65.9 276.8 66.6 276 67.2C275.2 67.8 274.2 68.1001 273 68.1001ZM275.9 61.2C275.9 60.6 275.6 60 275.1 59.5C274.6 58.9 273.8 58.7 272.8 58.7C272.1 58.7 271.4 58.9 270.9 59.4C270.4 59.9 270 60.5 269.8 61.3H275.9V61.2Z" fill="#FF0000"/>
<path d="M104.1 43.7L108.5 32H110.2L114.6 43.7H113L111.9 40.5H107L105.9 43.7H104.1ZM107.5 39.2H111.4L109.5 33.9H109.4L107.5 39.2Z" fill="#FF0000"/>
<path d="M117.3 43.7L114.1 35.7H115.7L118 41.9L120.4 35.7H122L118.7 43.7H117.3Z" fill="#FF0000"/>
<path d="M125.4 44.0001C124.6 44.0001 123.8 43.8001 123.3 43.3001C122.7 42.8001 122.4 42.2001 122.4 41.4001C122.4 40.5001 122.7 39.9001 123.4 39.3001C124.1 38.8001 124.9 38.6001 125.9 38.6001C126.8 38.6001 127.5 38.8001 128.1 39.1001V38.9001C128.1 38.3001 127.9 37.8001 127.5 37.5001C127.1 37.1001 126.6 37.0001 126 37.0001C125.6 37.0001 125.2 37.1001 124.8 37.3001C124.4 37.5001 124.2 37.8001 124.1 38.1001L122.7 37.5001C122.9 37.0001 123.3 36.6001 123.8 36.2001C124.3 35.8001 125.1 35.6001 126 35.6001C127 35.6001 127.9 35.9001 128.5 36.5001C129.2 37.1001 129.5 37.9001 129.5 39.0001V43.8001H128.1V42.7001H128C127.5 43.5001 126.6 44.0001 125.4 44.0001ZM125.7 42.6001C126.3 42.6001 126.9 42.4001 127.4 41.9001C127.9 41.4001 128.2 40.9001 128.2 40.3001C127.8 39.9001 127.1 39.8001 126.3 39.8001C125.6 39.8001 125 40.0001 124.6 40.3001C124.2 40.6001 124 41.0001 124 41.4001C124 41.8001 124.2 42.1001 124.5 42.3001C124.9 42.5001 125.3 42.6001 125.7 42.6001Z" fill="#FF0000"/>
<path d="M132.9 33.7C132.7 33.9 132.4 34 132.1 34C131.8 34 131.6 33.9 131.3 33.7C131.1 33.5 131 33.2 131 32.9C131 32.6 131.1 32.4 131.3 32.1C131.5 31.9 131.8 31.8 132.1 31.8C132.4 31.8 132.6 31.9 132.9 32.1C133.1 32.3 133.2 32.6 133.2 32.9C133.2 33.2 133.1 33.5 132.9 33.7ZM132.9 43.7H131.4V35.7H132.9V43.7Z" fill="#FF0000"/>
<path d="M136.4 43.7001H134.9V32.1001H136.4V43.7001Z" fill="#FF0000"/>
<path d="M140.6 44.0001C139.8 44.0001 139 43.8001 138.5 43.3001C137.9 42.8001 137.6 42.2001 137.6 41.4001C137.6 40.5001 137.9 39.9001 138.6 39.3001C139.3 38.8001 140.1 38.6001 141.1 38.6001C142 38.6001 142.7 38.8001 143.3 39.1001V38.9001C143.3 38.3001 143.1 37.8001 142.7 37.5001C142.3 37.1001 141.8 37.0001 141.2 37.0001C140.8 37.0001 140.4 37.1001 140 37.3001C139.6 37.5001 139.4 37.8001 139.3 38.1001L137.9 37.5001C138.1 37.0001 138.5 36.6001 139 36.2001C139.5 35.8001 140.3 35.6001 141.2 35.6001C142.2 35.6001 143.1 35.9001 143.7 36.5001C144.4 37.1001 144.7 37.9001 144.7 39.0001V43.8001H143.3V42.7001H143.2C142.7 43.5001 141.8 44.0001 140.6 44.0001ZM140.9 42.6001C141.5 42.6001 142.1 42.4001 142.6 41.9001C143.1 41.4001 143.4 40.9001 143.4 40.3001C143 39.9001 142.3 39.8001 141.5 39.8001C140.8 39.8001 140.2 40.0001 139.8 40.3001C139.4 40.6001 139.2 41.0001 139.2 41.4001C139.2 41.8001 139.4 42.1001 139.7 42.3001C140.1 42.5001 140.5 42.6001 140.9 42.6001Z" fill="#FF0000"/>
<path d="M150.7 44.0001C150.1 44.0001 149.5 43.9001 149.1 43.6001C148.6 43.3001 148.3 43.0001 148 42.6001H147.9V43.7001H146.5V32.1001H148V35.8001L147.9 36.9001H148C148.2 36.5001 148.6 36.2001 149.1 35.9001C149.6 35.6001 150.1 35.5001 150.7 35.5001C151.7 35.5001 152.6 35.9001 153.4 36.7001C154.2 37.5001 154.5 38.5001 154.5 39.7001C154.5 40.9001 154.1 41.9001 153.4 42.7001C152.6 43.6001 151.7 44.0001 150.7 44.0001ZM150.5 42.6001C151.2 42.6001 151.8 42.3001 152.3 41.8001C152.8 41.3001 153.1 40.6001 153.1 39.7001C153.1 38.8001 152.9 38.1001 152.3 37.6001C151.8 37.1001 151.2 36.8001 150.5 36.8001C149.8 36.8001 149.2 37.1001 148.7 37.6001C148.2 38.1001 148 38.8001 148 39.7001C148 40.6001 148.2 41.3001 148.7 41.8001C149.1 42.4001 149.7 42.6001 150.5 42.6001Z" fill="#FF0000"/>
<path d="M157.299 43.7001H155.799V32.1001H157.299V43.7001Z" fill="#FF0000"/>
<path d="M162.699 44.0001C161.499 44.0001 160.499 43.6001 159.799 42.8001C158.999 42.0001 158.699 41.0001 158.699 39.7001C158.699 38.5001 159.099 37.5001 159.799 36.7001C160.499 35.9001 161.499 35.4001 162.599 35.4001C163.799 35.4001 164.699 35.8001 165.499 36.6001C166.199 37.4001 166.599 38.4001 166.599 39.7001V40.0001H160.299C160.299 40.8001 160.599 41.4001 161.099 41.9001C161.599 42.4001 162.199 42.6001 162.799 42.6001C163.899 42.6001 164.599 42.1001 164.999 41.2001L166.299 41.8001C165.999 42.4001 165.599 42.9001 164.999 43.4001C164.299 43.8001 163.499 44.0001 162.699 44.0001ZM164.799 38.8001C164.799 38.3001 164.599 37.9001 164.199 37.5001C163.799 37.1001 163.199 36.9001 162.499 36.9001C161.899 36.9001 161.499 37.1001 161.099 37.4001C160.699 37.8001 160.399 38.2001 160.299 38.8001H164.799Z" fill="#FF0000"/>
<path d="M173 33.7C172.8 33.9 172.5 34 172.2 34C171.9 34 171.7 33.9 171.4 33.7C171.2 33.5 171.1 33.2 171.1 32.9C171.1 32.6 171.2 32.4 171.4 32.1C171.6 31.9 171.9 31.8 172.2 31.8C172.5 31.8 172.7 31.9 173 32.1C173.2 32.3 173.3 32.6 173.3 32.9C173.3 33.2 173.2 33.5 173 33.7ZM173 43.7H171.5V35.7H173V43.7Z" fill="#FF0000"/>
<path d="M176.4 35.7001V36.8001H176.5C176.7 36.4001 177.1 36.1001 177.5 35.8001C178 35.5001 178.5 35.4001 179 35.4001C180 35.4001 180.7 35.7001 181.3 36.3001C181.8 36.9001 182.1 37.7001 182.1 38.8001V43.7001H180.6V39.0001C180.6 37.5001 179.9 36.8001 178.6 36.8001C178 36.8001 177.5 37.0001 177.1 37.5001C176.7 38.0001 176.5 38.6001 176.5 39.2001V43.6001H175V35.6001L176.4 35.7001Z" fill="#FF0000"/>
<path d="M190.9 43.9C190.1 43.9 189.4 43.7 189 43.2C188.6 42.8 188.3 42.1 188.3 41.3V37.1H186.9V35.7H188.3V33.2H189.8V35.7H191.8V37.1H189.8V41.2C189.8 42.1 190.2 42.5 190.9 42.5C191.2 42.5 191.4 42.5 191.6 42.4L192.1 43.7C191.8 43.8 191.4 43.9 190.9 43.9Z" fill="#FF0000"/>
<path d="M194.799 32.1001V35.8001L194.699 36.9001H194.799C194.999 36.5001 195.399 36.2001 195.799 35.9001C196.299 35.6001 196.799 35.5001 197.299 35.5001C198.299 35.5001 198.999 35.8001 199.599 36.4001C200.099 37.0001 200.399 37.8001 200.399 38.9001V43.8001H198.899V39.1001C198.899 37.6001 198.199 36.9001 196.899 36.9001C196.299 36.9001 195.799 37.1001 195.399 37.6001C194.999 38.1001 194.799 38.7001 194.799 39.3001V43.7001H193.299V32.1001H194.799Z" fill="#FF0000"/>
<path d="M205.799 44.0001C204.599 44.0001 203.599 43.6001 202.899 42.8001C202.099 42.0001 201.799 41.0001 201.799 39.7001C201.799 38.5001 202.199 37.5001 202.899 36.7001C203.599 35.9001 204.599 35.4001 205.699 35.4001C206.899 35.4001 207.799 35.8001 208.599 36.6001C209.299 37.4001 209.699 38.4001 209.699 39.7001V40.0001H203.399C203.399 40.8001 203.699 41.4001 204.199 41.9001C204.699 42.4001 205.299 42.6001 205.899 42.6001C206.999 42.6001 207.699 42.1001 208.099 41.2001L209.399 41.8001C209.099 42.4001 208.699 42.9001 208.099 43.4001C207.399 43.8001 206.599 44.0001 205.799 44.0001ZM207.899 38.8001C207.899 38.3001 207.699 37.9001 207.299 37.5001C206.899 37.1001 206.299 36.9001 205.599 36.9001C204.999 36.9001 204.599 37.1001 204.199 37.4001C203.799 37.8001 203.499 38.2001 203.399 38.8001H207.899Z" fill="#FF0000"/>
<mask id="mask0_111_6160" style="mask-type:luminance" maskUnits="userSpaceOnUse" x="24" y="22" width="65" height="56">
<path d="M24 22.2V73.3C24 75.7 26 77.7 28.4 77.7H83.9C86.3 77.7 88.3 75.7 88.3 73.3V22.2H24ZM63.4 33.9H48.8C47.2 33.9 45.9 32.6 45.9 31C45.9 29.4 47.2 28.1 48.8 28.1H63.4C65 28.1 66.3 29.4 66.3 31C66.3 32.6 65 33.9 63.4 33.9Z" fill="white"/>
</mask>
<g mask="url(#mask0_111_6160)">
<path d="M24 22.2H88.3V77.7H24V22.2Z" fill="#EEEDEE"/>
</g>
<mask id="mask1_111_6160" style="mask-type:luminance" maskUnits="userSpaceOnUse" x="24" y="22" width="65" height="56">
<path d="M24 22.2V73.3C24 75.7 26 77.7 28.4 77.7H83.9C86.3 77.7 88.3 75.7 88.3 73.3V22.2H24ZM63.4 33.9H48.8C47.2 33.9 45.9 32.6 45.9 31C45.9 29.4 47.2 28.1 48.8 28.1H63.4C65 28.1 66.3 29.4 66.3 31C66.3 32.6 65 33.9 63.4 33.9Z" fill="white"/>
</mask>
<g mask="url(#mask1_111_6160)">
<path d="M63.4004 28.0999H48.8004C47.2004 28.0999 45.9004 29.3999 45.9004 30.9999C45.9004 32.5999 47.2004 33.8999 48.8004 33.8999H63.4004C65.0004 33.8999 66.3004 32.5999 66.3004 30.9999C66.3004 29.3999 65.0004 28.0999 63.4004 28.0999Z" fill="white"/>
</g>
<mask id="mask2_111_6160" style="mask-type:luminance" maskUnits="userSpaceOnUse" x="24" y="22" width="65" height="56">
<path d="M24 22.2V73.3C24 75.7 26 77.7 28.4 77.7H83.9C86.3 77.7 88.3 75.7 88.3 73.3V22.2H24ZM63.4 33.9H48.8C47.2 33.9 45.9 32.6 45.9 31C45.9 29.4 47.2 28.1 48.8 28.1H63.4C65 28.1 66.3 29.4 66.3 31C66.3 32.6 65 33.9 63.4 33.9Z" fill="white"/>
</mask>
<g mask="url(#mask2_111_6160)">
<mask id="mask3_111_6160" style="mask-type:luminance" maskUnits="userSpaceOnUse" x="28" y="45" width="56" height="57">
<mask id="mask4_111_6160" style="mask-type:luminance" maskUnits="userSpaceOnUse" x="28" y="45" width="56" height="57">
<mask id="mask5_111_6160" style="mask-type:luminance" maskUnits="userSpaceOnUse" x="28" y="45" width="56" height="57">
<mask id="mask6_111_6160" style="mask-type:luminance" maskUnits="userSpaceOnUse" x="28" y="45" width="56" height="57">
<path d="M83.882 75.3612C84.9704 60.0463 73.4375 46.7488 58.1226 45.6605C42.8077 44.5721 29.5102 56.105 28.4219 71.4198C27.3335 86.7347 38.8663 100.032 54.1812 101.121C69.4961 102.209 82.7936 90.6761 83.882 75.3612Z" fill="white"/>
</mask>
<g mask="url(#mask6_111_6160)">
<path d="M83.882 75.3612C84.9704 60.0463 73.4375 46.7488 58.1226 45.6605C42.8077 44.5721 29.5102 56.105 28.4219 71.4198C27.3335 86.7347 38.8663 100.032 54.1812 101.121C69.4961 102.209 82.7936 90.6761 83.882 75.3612Z" fill="white"/>
</g>
</mask>
<g mask="url(#mask5_111_6160)">
<path d="M83.882 75.3612C84.9704 60.0463 73.4375 46.7488 58.1226 45.6605C42.8077 44.5721 29.5102 56.105 28.4219 71.4198C27.3335 86.7347 38.8663 100.032 54.1812 101.121C69.4961 102.209 82.7936 90.6761 83.882 75.3612Z" fill="white"/>
</g>
</mask>
<g mask="url(#mask4_111_6160)">
<path d="M83.882 75.3612C84.9704 60.0463 73.4375 46.7488 58.1226 45.6605C42.8077 44.5721 29.5102 56.105 28.4219 71.4198C27.3335 86.7347 38.8663 100.032 54.1812 101.121C69.4961 102.209 82.7936 90.6761 83.882 75.3612Z" fill="white"/>
</g>
</mask>
<g mask="url(#mask3_111_6160)">
<path d="M32.7988 45.6001V79.7001H45.1988L56.0988 60.8001H83.8988V45.7001H32.7988V45.6001ZM32.7988 45.6001V79.7001H45.1988L56.0988 60.8001H83.8988V45.7001H32.7988V45.6001Z" fill="#DC4637"/>
</g>
<mask id="mask7_111_6160" style="mask-type:luminance" maskUnits="userSpaceOnUse" x="28" y="45" width="56" height="57">
<mask id="mask8_111_6160" style="mask-type:luminance" maskUnits="userSpaceOnUse" x="28" y="45" width="56" height="57">
<mask id="mask9_111_6160" style="mask-type:luminance" maskUnits="userSpaceOnUse" x="28" y="45" width="56" height="57">
<mask id="mask10_111_6160" style="mask-type:luminance" maskUnits="userSpaceOnUse" x="28" y="45" width="56" height="57">
<path d="M83.882 75.3612C84.9704 60.0463 73.4375 46.7488 58.1226 45.6605C42.8077 44.5721 29.5102 56.105 28.4219 71.4198C27.3335 86.7347 38.8663 100.032 54.1812 101.121C69.4961 102.209 82.7936 90.6761 83.882 75.3612Z" fill="white"/>
</mask>
<g mask="url(#mask10_111_6160)">
<path d="M83.882 75.3612C84.9704 60.0463 73.4375 46.7488 58.1226 45.6605C42.8077 44.5721 29.5102 56.105 28.4219 71.4198C27.3335 86.7347 38.8663 100.032 54.1812 101.121C69.4961 102.209 82.7936 90.6761 83.882 75.3612Z" fill="white"/>
</g>
</mask>
<g mask="url(#mask9_111_6160)">
<path d="M83.882 75.3612C84.9704 60.0463 73.4375 46.7488 58.1226 45.6605C42.8077 44.5721 29.5102 56.105 28.4219 71.4198C27.3335 86.7347 38.8663 100.032 54.1812 101.121C69.4961 102.209 82.7936 90.6761 83.882 75.3612Z" fill="white"/>
</g>
</mask>
<g mask="url(#mask8_111_6160)">
<path d="M83.882 75.3612C84.9704 60.0463 73.4375 46.7488 58.1226 45.6605C42.8077 44.5721 29.5102 56.105 28.4219 71.4198C27.3335 86.7347 38.8663 100.032 54.1812 101.121C69.4961 102.209 82.7936 90.6761 83.882 75.3612Z" fill="white"/>
</g>
</mask>
<g mask="url(#mask7_111_6160)">
<path d="M28.3984 101.1H54.7984L66.9984 88.9V79.7H45.1984L28.3984 50.8C28.3984 50.8 28.3984 101.1 28.3984 101.1ZM28.3984 101.1H54.7984L66.9984 88.9V79.7H45.1984L28.3984 50.8C28.3984 50.8 28.3984 101.1 28.3984 101.1Z" fill="#0F9D58"/>
</g>
<mask id="mask11_111_6160" style="mask-type:luminance" maskUnits="userSpaceOnUse" x="28" y="45" width="56" height="57">
<mask id="mask12_111_6160" style="mask-type:luminance" maskUnits="userSpaceOnUse" x="28" y="45" width="56" height="57">
<mask id="mask13_111_6160" style="mask-type:luminance" maskUnits="userSpaceOnUse" x="28" y="45" width="56" height="57">
<mask id="mask14_111_6160" style="mask-type:luminance" maskUnits="userSpaceOnUse" x="28" y="45" width="56" height="57">
<path d="M83.882 75.3612C84.9704 60.0463 73.4375 46.7488 58.1226 45.6605C42.8077 44.5721 29.5102 56.105 28.4219 71.4198C27.3335 86.7347 38.8663 100.032 54.1812 101.121C69.4961 102.209 82.7936 90.6761 83.882 75.3612Z" fill="white"/>
</mask>
<g mask="url(#mask14_111_6160)">
<path d="M83.882 75.3612C84.9704 60.0463 73.4375 46.7488 58.1226 45.6605C42.8077 44.5721 29.5102 56.105 28.4219 71.4198C27.3335 86.7347 38.8663 100.032 54.1812 101.121C69.4961 102.209 82.7936 90.6761 83.882 75.3612Z" fill="white"/>
</g>
</mask>
<g mask="url(#mask13_111_6160)">
<path d="M83.882 75.3612C84.9704 60.0463 73.4375 46.7488 58.1226 45.6605C42.8077 44.5721 29.5102 56.105 28.4219 71.4198C27.3335 86.7347 38.8663 100.032 54.1812 101.121C69.4961 102.209 82.7936 90.6761 83.882 75.3612Z" fill="white"/>
</g>
</mask>
<g mask="url(#mask12_111_6160)">
<path d="M83.882 75.3612C84.9704 60.0463 73.4375 46.7488 58.1226 45.6605C42.8077 44.5721 29.5102 56.105 28.4219 71.4198C27.3335 86.7347 38.8663 100.032 54.1812 101.121C69.4961 102.209 82.7936 90.6761 83.882 75.3612Z" fill="white"/>
</g>
</mask>
<g mask="url(#mask11_111_6160)">
<path d="M56.0992 60.8L66.9992 79.7L54.6992 101.1H83.7992V60.7H56.0992V60.8ZM56.0992 60.8L66.9992 79.7L54.6992 101.1H83.7992V60.7H56.0992V60.8Z" fill="#FFCE41"/>
</g>
<mask id="mask15_111_6160" style="mask-type:luminance" maskUnits="userSpaceOnUse" x="28" y="45" width="56" height="57">
<mask id="mask16_111_6160" style="mask-type:luminance" maskUnits="userSpaceOnUse" x="28" y="45" width="56" height="57">
<mask id="mask17_111_6160" style="mask-type:luminance" maskUnits="userSpaceOnUse" x="28" y="45" width="56" height="57">
<mask id="mask18_111_6160" style="mask-type:luminance" maskUnits="userSpaceOnUse" x="28" y="45" width="56" height="57">
<path d="M83.882 75.3612C84.9704 60.0463 73.4375 46.7488 58.1226 45.6605C42.8077 44.5721 29.5102 56.105 28.4219 71.4198C27.3335 86.7347 38.8663 100.032 54.1812 101.121C69.4961 102.209 82.7936 90.6761 83.882 75.3612Z" fill="white"/>
</mask>
<g mask="url(#mask18_111_6160)">
<path d="M83.882 75.3612C84.9704 60.0463 73.4375 46.7488 58.1226 45.6605C42.8077 44.5721 29.5102 56.105 28.4219 71.4198C27.3335 86.7347 38.8663 100.032 54.1812 101.121C69.4961 102.209 82.7936 90.6761 83.882 75.3612Z" fill="white"/>
</g>
</mask>
<g mask="url(#mask17_111_6160)">
<path d="M83.882 75.3612C84.9704 60.0463 73.4375 46.7488 58.1226 45.6605C42.8077 44.5721 29.5102 56.105 28.4219 71.4198C27.3335 86.7347 38.8663 100.032 54.1812 101.121C69.4961 102.209 82.7936 90.6761 83.882 75.3612Z" fill="white"/>
</g>
</mask>
<g mask="url(#mask16_111_6160)">
<path d="M83.882 75.3612C84.9704 60.0463 73.4375 46.7488 58.1226 45.6605C42.8077 44.5721 29.5102 56.105 28.4219 71.4198C27.3335 86.7347 38.8663 100.032 54.1812 101.121C69.4961 102.209 82.7936 90.6761 83.882 75.3612Z" fill="white"/>
</g>
</mask>
<g mask="url(#mask15_111_6160)">
<path d="M56.098 86C63.0568 86 68.698 80.3588 68.698 73.4C68.698 66.4413 63.0568 60.8 56.098 60.8C49.1393 60.8 43.498 66.4413 43.498 73.4C43.498 80.3588 49.1393 86 56.098 86Z" fill="#F2F2F2"/>
<path d="M56.098 83.5C61.6761 83.5 66.198 78.9781 66.198 73.4C66.198 67.822 61.6761 63.3 56.098 63.3C50.52 63.3 45.998 67.822 45.998 73.4C45.998 78.9781 50.52 83.5 56.098 83.5Z" fill="#557EBF"/>
</g>
<mask id="mask19_111_6160" style="mask-type:luminance" maskUnits="userSpaceOnUse" x="24" y="22" width="65" height="56">
<path d="M24 22.2V73.3C24 75.7 26 77.7 28.4 77.7H83.9C86.3 77.7 88.3 75.7 88.3 73.3V22.2H24ZM63.4 33.9H48.8C47.2 33.9 45.9 32.6 45.9 31C45.9 29.4 47.2 28.1 48.8 28.1H63.4C65 28.1 66.3 29.4 66.3 31C66.3 32.6 65 33.9 63.4 33.9Z" fill="white"/>
</mask>
<g mask="url(#mask19_111_6160)">
<path d="M24 22.2H88.3V50H24V22.2Z" fill="#212121" fill-opacity="0.05"/>
</g>
<path d="M24 49.5999H88.3V49.9999H24V49.5999Z" fill="#212121" fill-opacity="0.02"/>
<path d="M24 50H88.3V50.4H24V50Z" fill="white" fill-opacity="0.05"/>
<path d="M63.4 33.9H48.8C47.3 33.9 46 32.7 45.9 31.2C45.9 31.3 45.9 31.3 45.9 31.4C45.9 33 47.2 34.3 48.8 34.3H63.4C65 34.3 66.3 33 66.3 31.4C66.3 31.3 66.3 31.3 66.3 31.2C66.2 32.7 65 33.9 63.4 33.9ZM24 22.2V22.6H88.3V22.2H24Z" fill="#212121" fill-opacity="0.02"/>
<path d="M48.8 28.1H63.4C64.9 28.1 66.2 29.3 66.3 30.8C66.3 30.7 66.3 30.7 66.3 30.6C66.3 29 65 27.7 63.4 27.7H48.8C47.2 27.7 45.9 29 45.9 30.6C45.9 30.7 45.9 30.7 45.9 30.8C46 29.3 47.3 28.1 48.8 28.1ZM83.9 77.3999H28.4C26 77.3999 24 75.4 24 73V73.3999C24 75.7999 26 77.8 28.4 77.8H83.9C86.3 77.8 88.3 75.7999 88.3 73.3999V73C88.3 75.4 86.3 77.3999 83.9 77.3999Z" fill="#231F20" fill-opacity="0.1"/>
<path d="M24 22.2V73.3C24 75.7 26 77.7 28.4 77.7H83.9C86.3 77.7 88.3 75.7 88.3 73.3V22.2H24ZM63.4 33.9H48.8C47.2 33.9 45.9 32.6 45.9 31C45.9 29.4 47.2 28.1 48.8 28.1H63.4C65 28.1 66.3 29.4 66.3 31C66.3 32.6 65 33.9 63.4 33.9Z" fill="url(#paint0_radial_111_6160)"/>
</g>
<defs>
<radialGradient id="paint0_radial_111_6160" cx="0" cy="0" r="1" gradientUnits="userSpaceOnUse" gradientTransform="translate(23.8064 22.0082) scale(83.109 83.109)">
<stop stop-color="white" stop-opacity="0.1"/>
<stop offset="1" stop-color="white" stop-opacity="0"/>
</radialGradient>
</defs>
</svg>
