<svg width="24" height="24" viewBox="0 0 24 24" fill="none" xmlns="http://www.w3.org/2000/svg">
<path d="M4.4166 7.75701C4.8558 7.99281 10.9398 11.2616 11.1666 11.3831C11.3934 11.5046 11.6868 11.5622 11.982 11.5622C12.2772 11.5622 12.5706 11.5046 12.7974 11.3831C13.0242 11.2616 19.1082 7.99281 19.5474 7.75701C19.9875 7.52031 20.4033 6.59961 19.596 6.59961H4.3689C3.5616 6.59961 3.9774 7.52031 4.4166 7.75701ZM19.7517 9.73971C19.2522 9.99981 13.1034 13.2038 12.7974 13.364C12.4914 13.5242 12.2772 13.5431 11.982 13.5431C11.6868 13.5431 11.4726 13.5242 11.1666 13.364C10.8606 13.2038 4.7469 9.99891 4.2474 9.73881C3.8964 9.55521 3.9 9.77031 3.9 9.93591C3.9 10.1015 3.9 16.4996 3.9 16.4996C3.9 16.8776 4.4094 17.3996 4.8 17.3996H19.2C19.5906 17.3996 20.1 16.8776 20.1 16.4996C20.1 16.4996 20.1 10.1024 20.1 9.93681C20.1 9.77121 20.1036 9.55611 19.7517 9.73971Z" fill="white"/>
</svg>
