<svg width="24" height="24" viewBox="0 0 24 24" fill="none" xmlns="http://www.w3.org/2000/svg">
<path fill-rule="evenodd" clip-rule="evenodd" d="M12.4779 19H5.77269C5.34582 19 5 18.654 5 18.2273V5.77269C5 5.34587 5.34588 5 5.77269 5H18.2274C18.6541 5 19 5.34587 19 5.77269V18.2273C19 18.654 18.654 19 18.2274 19H14.6598V13.5784H16.4796L16.7521 11.4655H14.6598V10.1166C14.6598 9.50488 14.8297 9.088 15.7069 9.088L16.8257 9.08751V7.19774C16.6322 7.17199 15.9681 7.11446 15.1954 7.11446C13.5822 7.11446 12.4779 8.09911 12.4779 9.90735V11.4655H10.6534V13.5784H12.4779V19Z" fill="white"/>
</svg>
