<svg width="92" height="92" viewBox="0 0 92 92" fill="none" xmlns="http://www.w3.org/2000/svg">
<rect width="92" height="92" fill="#F5EADB"/>
<path d="M61.9688 62.2265C61.136 62.6835 60.3342 63.1111 59.5013 63.5887C57.0338 64.9907 54.4251 66.1643 51.6467 66.7805C44.6548 68.0234 37.2316 66.2041 31.2525 62.5141L30.3096 62.0172C30.2798 61.9966 30.1593 61.9376 30.1295 61.9273C30.0686 61.8875 29.9689 61.9478 29.9896 62.0262C30.4015 62.3548 32.0763 63.269 32.5374 63.5771C37.453 66.421 43.2922 67.8732 48.9901 67.5945C53.7257 67.3365 57.8887 64.9291 61.8005 62.4935L62.031 62.3548C62.031 62.3548 62.101 62.315 62.0815 62.256C62.0712 62.1969 61.9714 62.2162 61.9714 62.2265H61.9688ZM57.1025 64.9407C56.8913 65.0498 56.6711 65.1397 56.4509 65.2193C56.7825 65.0703 57.1025 64.9214 57.4237 64.7519C57.3136 64.811 57.2126 64.8816 57.1025 64.9407ZM55.438 25.6629C50.5419 22.6495 44.182 22.6007 38.8856 24.569C37.3611 25.0966 35.8158 25.5833 34.391 26.3189C34.1203 26.4383 33.869 26.568 33.7395 26.6566C33.7187 26.6759 33.689 26.6861 33.6695 26.6964C33.6294 26.717 33.6488 26.7953 33.6993 26.7555C37.2406 25.632 40.7923 24.1799 44.524 23.8217C47.985 23.6432 51.6467 24.09 54.7969 25.582C54.8966 25.632 55.1777 25.7707 55.2684 25.8105C55.3487 25.8606 55.4886 25.7604 55.4393 25.6616L55.438 25.6629ZM26.2048 41.622C25.6427 42.5169 25.1621 43.4722 24.85 44.4762C24.8396 44.5751 25.0002 44.6354 25.03 44.5263C25.6012 43.7007 25.973 42.8353 26.3745 41.9212C26.4043 41.8519 26.4341 41.8313 26.4846 41.7222C26.5144 41.5732 26.2942 41.4731 26.2035 41.6233L26.2048 41.622ZM28.8135 40.0313C27.9211 40.9364 27.1879 41.9507 26.7372 43.1538C26.6465 43.3322 26.4159 43.8201 26.3253 43.9986C26.3149 44.0589 26.2748 44.0487 26.2657 44.1873C26.3162 44.3067 26.4367 44.326 26.526 44.2669C26.947 43.4619 27.3084 42.7853 27.7397 42.0599C28.0506 41.563 28.5428 40.6771 28.9029 40.22C29.0337 40.1109 28.9327 39.9311 28.8122 40.0313H28.8135ZM25.7437 45.71C25.2619 46.8938 25.1725 47.8183 24.8707 49.011C24.8409 49.1702 25.122 49.2498 25.1712 49.0611C25.3914 48.1765 25.653 47.3111 25.8033 46.4162C25.8331 46.257 25.8836 45.8885 25.9341 45.7396C25.9445 45.6202 25.7631 45.6009 25.7437 45.71ZM14.3672 46.3058C14.3271 46.2262 14.1963 46.2159 14.1768 46.3058H14.1872C14.1872 46.3058 14.1768 46.3058 14.1768 46.3161V46.3263C14.1768 46.3263 14.1768 46.3366 14.1665 46.3469C13.9761 46.7346 13.8854 47.0325 13.9255 47.4909C13.9255 47.5602 13.9048 47.6103 13.8958 47.7001C13.9255 47.8298 14.1159 47.8593 14.1768 47.7207C14.3569 47.2135 14.4683 46.8258 14.3672 46.3084V46.3058ZM15.7817 45.9386C15.8115 45.7999 15.5913 45.7499 15.5706 45.8795C15.3996 46.4162 15.2597 46.7346 15.2895 47.3419C15.2895 47.4215 15.2688 47.5011 15.2493 47.591C15.1794 47.7297 15.4397 47.8491 15.52 47.6706C15.7208 47.0736 15.8413 46.5472 15.7804 45.9399L15.7817 45.9386ZM16.9656 45.0527C16.6845 45.4109 16.384 45.8975 16.3633 46.4047C16.3425 46.8527 16.384 47.2803 16.2933 47.7168C16.3037 47.8658 16.4941 47.8863 16.564 47.7862C16.7544 47.0004 16.7842 46.334 16.9656 45.5983C16.9954 45.3993 17.0964 45.2607 17.1456 45.0617C17.1249 44.9821 17.0057 44.9525 16.9656 45.0514V45.0527ZM18.4305 44.6559C18.2103 45.0039 17.9785 45.4122 17.9785 45.859C17.9591 45.9283 17.9487 45.9977 17.9189 46.0683C17.8684 46.2069 18.0795 46.2968 18.1598 46.1774C18.4202 45.6805 18.6119 45.253 18.6715 44.7163C18.652 44.5571 18.4513 44.5378 18.4305 44.6572V44.6559ZM17.8386 46.8925C17.7777 46.863 17.6883 46.8823 17.6987 46.9721C17.6585 47.1314 17.4681 47.3201 17.4876 47.5088C17.5277 47.668 17.4772 47.9364 17.5575 47.9954C17.8891 48.2137 18.0989 46.9709 17.8386 46.8913V46.8925ZM20.0354 44.2284C19.2932 45.4314 19.1028 46.5857 18.7518 47.9171C18.731 47.9377 18.7116 48.0558 18.7919 48.1059C18.8424 48.1559 18.972 48.1559 19.0225 48.0661C19.3839 46.863 19.775 45.7691 20.1053 44.5853C20.1351 44.4955 20.1649 44.4159 20.196 44.3363C20.2763 44.2374 20.0963 44.0872 20.0354 44.2271V44.2284ZM21.5599 43.7213C21.5301 43.6712 21.4291 43.6622 21.3993 43.7315C21.0677 44.4775 20.617 45.1926 20.4162 45.9989C20.2854 46.5651 20.0652 47.5602 19.9046 48.1071C19.8048 48.2766 19.9849 48.5052 20.1649 48.2959C20.5056 47.1827 21.1182 45.2735 21.4395 44.1796C21.4602 44.0204 21.6195 43.8817 21.5599 43.7225V43.7213ZM22.8837 43.2732C22.8436 43.2334 22.784 43.2334 22.7438 43.2834C22.7438 43.2903 22.7404 43.2937 22.7335 43.2937V43.304H22.7231V43.3142C22.7231 43.3142 22.7127 43.3142 22.7127 43.3245C21.9407 44.7266 21.5288 46.3469 21.2478 47.9389C21.227 48.0686 21.0975 48.4166 21.1675 48.5052C21.2076 48.595 21.4187 48.595 21.4382 48.4551C21.7594 47.0928 22.17 45.7897 22.5418 44.448C22.6117 44.2297 22.762 43.6725 22.8526 43.4542C22.863 43.4041 22.9226 43.3553 22.8824 43.2757L22.8837 43.2732ZM24.1181 42.7763C23.6764 43.2732 23.7062 43.969 23.3552 44.516C23.3047 44.5455 23.3448 44.7343 23.4459 44.7445C23.5365 44.7946 23.6764 44.7047 23.6868 44.6251C24.0378 44.0782 24.1583 43.4619 24.3085 42.8456C24.3681 42.6967 24.1583 42.6363 24.1181 42.7763ZM23.1648 45.5804L23.1544 45.5906C23.1337 45.6009 23.1143 45.6009 23.1039 45.6202C22.7529 46.5651 22.6324 47.4498 22.4718 48.4345C22.442 48.5244 22.3721 48.7427 22.5521 48.7722C22.6117 48.7915 22.7127 48.7221 22.7231 48.6528C22.9537 47.867 23.1842 47.0813 23.2451 46.2557C23.2555 46.1068 23.2853 45.7781 23.2956 45.6292C23.2853 45.5598 23.2153 45.5496 23.1648 45.5791V45.5804ZM24.3189 45.8988H24.2982C24.2982 45.9283 24.2878 45.9489 24.2878 45.9784V45.9887C24.0572 46.4766 23.7762 47.0132 23.6855 47.5692C23.635 47.9864 23.565 48.7029 23.4744 49.1009C23.4446 49.2794 23.7153 49.3192 23.7658 49.16C23.9458 48.3447 24.2969 46.9619 24.4277 46.1569C24.4381 46.0773 24.4678 46.0182 24.4873 45.9386C24.4873 45.8295 24.337 45.8089 24.3163 45.8988H24.3189ZM77.5874 46.257C77.4876 46.1979 77.3672 46.2775 77.4164 46.3764C77.397 46.8733 77.3464 47.0428 77.5666 47.5396C77.5964 47.6192 77.5964 47.8581 77.7868 47.7977C77.8568 47.7785 77.8866 47.668 77.8775 47.6488C77.8775 47.1712 77.8671 46.655 77.5861 46.257H77.5874ZM76.5343 47.5884C76.5149 47.0916 76.4941 46.5844 76.3037 46.1171L76.204 45.8782C76.1638 45.7293 75.9527 45.8089 75.9929 45.9283C76.0032 46.5048 75.9825 46.8335 76.204 47.3907C76.2545 47.5204 76.204 47.7592 76.4048 47.7592C76.4954 47.7797 76.555 47.6205 76.5356 47.5897L76.5343 47.5884ZM74.739 44.9936C74.6587 44.9641 74.559 45.063 74.6289 45.1323C74.91 45.5406 74.8802 46.067 75.0007 46.5241C75.1004 46.9118 75.1717 47.3098 75.1807 47.7078C75.1911 47.8272 75.3413 47.8966 75.432 47.7977C75.5421 46.8733 75.4916 45.66 74.7403 44.9936H74.739ZM73.3544 44.6752C73.344 44.6251 73.2546 44.5455 73.1938 44.6059C73.1432 44.6161 73.1135 44.6958 73.1432 44.7356H73.1329C73.1122 45.1336 73.3531 45.3814 73.5137 45.6998L73.5733 45.8782C73.6238 45.9874 73.8246 45.9681 73.8544 45.8384C73.8246 45.3518 73.6639 45.0334 73.3531 44.6752H73.3544ZM73.9761 46.4855C73.8854 46.4162 73.765 46.5356 73.8155 46.5844C73.8051 46.9619 73.7559 47.3894 73.9554 47.7579C73.9852 47.8375 73.9658 47.867 74.0357 47.9762C74.1056 48.0661 74.296 47.9762 74.2766 47.8568C74.2766 47.3792 74.2572 46.8925 73.9761 46.4843V46.4855ZM72.5215 46.2968C72.3104 45.6112 72.1809 44.8845 71.8389 44.2489C71.7987 44.1591 71.7184 44.0602 71.6187 44.0897C71.5086 44.1 71.4387 44.2284 71.4788 44.3285C72.1407 45.5521 72.2715 46.8746 72.7028 48.1469C72.8531 48.2959 73.094 48.1867 73.1044 47.9877C72.9736 47.4305 72.6627 46.8643 72.5228 46.2968H72.5215ZM71.8803 48.1662C71.6498 46.6345 71.1485 45.1438 70.3856 43.7906C70.3454 43.6121 70.155 43.6814 70.1952 43.8009V43.8201C70.1952 43.827 70.1986 43.8304 70.2055 43.8304C70.6265 45.2825 71.269 46.7244 71.5798 48.206C71.5695 48.2355 71.62 48.3947 71.7405 48.3755C71.8402 48.3857 71.9114 48.2265 71.8803 48.1662ZM69.5424 44.3478C69.4426 44.1385 69.181 43.5916 69.0903 43.3926C69.0307 43.1435 68.7989 43.2231 68.8701 43.363C69.361 44.9936 70.0035 46.6447 70.3053 48.3344C70.3351 48.3935 70.2755 48.4538 70.396 48.5527C70.5164 48.6027 70.6369 48.5026 70.6162 48.3742C70.4361 47.0017 70.1252 45.6202 69.5424 44.3465V44.3478ZM68.3883 44.516C68.2484 43.9896 68.0968 43.4516 67.7963 42.9946L67.6357 42.7763C67.5852 42.6376 67.3754 42.6967 67.4349 42.8456C67.5748 43.1743 67.5554 43.571 67.7458 43.8792C67.8766 44.118 68.0372 44.3465 68.1176 44.6046C68.1279 44.6637 68.2173 44.7343 68.2885 44.7035C68.3792 44.7137 68.4284 44.5545 68.3883 44.5147V44.516ZM68.8002 45.8192C68.7406 45.6805 68.6396 45.3711 68.58 45.2324C68.51 45.1528 68.3792 45.2324 68.409 45.3223C68.4893 46.5061 68.7704 47.252 69.0204 48.3652C69.1305 48.4949 69.3118 48.3857 69.2911 48.2458C69.1913 47.4305 69.0709 46.6049 68.8002 45.8192ZM65.4894 41.6528C65.4493 41.563 65.299 41.613 65.3094 41.7119C65.6604 42.965 66.242 43.4722 66.6539 44.5558C66.7342 44.7343 66.9855 44.6354 66.9751 44.4762C66.6435 43.4516 66.0516 42.5567 65.4907 41.6516L65.4894 41.6528ZM67.5463 46.0875C67.5062 46.0182 67.4958 45.9578 67.4557 45.8782C67.3961 45.7884 67.2251 45.8487 67.2847 45.9578C67.4751 46.9516 67.8067 47.9364 67.9764 48.9404C67.9867 49.0393 67.9867 49.2986 68.1875 49.2485C68.2782 49.2485 68.308 49.0996 68.2872 49.0791C68.2471 48.0455 68.0359 47.0004 67.545 46.0862L67.5463 46.0875ZM65.47 44.0589C64.9584 42.567 64.1359 41.1855 63.0025 40.0813C62.8924 39.8926 62.7214 40.0608 62.8121 40.1404C63.6747 41.4628 64.5879 42.7057 65.1902 44.1578C65.2407 44.3863 65.5917 44.2875 65.4713 44.0589H65.47ZM66.0114 45.6895C65.9609 45.5804 65.7912 45.6497 65.8314 45.7588C66.0516 47.0222 66.413 47.9569 66.6034 49.0701C66.6629 49.2485 66.9246 49.16 66.8948 48.9905C66.7342 47.8568 66.4427 46.7526 66.0114 45.6895ZM77.5874 46.257C77.4876 46.1979 77.3672 46.2775 77.4164 46.3764C77.397 46.8733 77.3464 47.0428 77.5666 47.5396C77.5964 47.6192 77.5964 47.8581 77.7868 47.7977C77.8568 47.7785 77.8866 47.668 77.8775 47.6488C77.8775 47.1712 77.8671 46.655 77.5861 46.257H77.5874ZM76.5343 47.5884C76.5149 47.0916 76.4941 46.5844 76.3037 46.1171L76.204 45.8782C76.1638 45.7293 75.9527 45.8089 75.9929 45.9283C76.0032 46.5048 75.9825 46.8335 76.204 47.3907C76.2545 47.5204 76.204 47.7592 76.4048 47.7592C76.4954 47.7797 76.555 47.6205 76.5356 47.5897L76.5343 47.5884ZM74.739 44.9936C74.6587 44.9641 74.559 45.063 74.6289 45.1323C74.91 45.5406 74.8802 46.067 75.0007 46.5241C75.1004 46.9118 75.1717 47.3098 75.1807 47.7078C75.1911 47.8272 75.3413 47.8966 75.432 47.7977C75.5421 46.8733 75.4916 45.66 74.7403 44.9936H74.739ZM73.9761 46.4855C73.8854 46.4162 73.765 46.5356 73.8155 46.5844C73.8051 46.9619 73.7559 47.3894 73.9554 47.7579C73.9852 47.8375 73.9658 47.867 74.0357 47.9762C74.1056 48.0661 74.296 47.9762 74.2766 47.8568C74.2766 47.3792 74.2572 46.8925 73.9761 46.4843V46.4855ZM73.3544 44.6752C73.344 44.6251 73.2546 44.5455 73.1938 44.6059C73.1432 44.6161 73.1135 44.6958 73.1432 44.7356H73.1329C73.1122 45.1336 73.3531 45.3814 73.5137 45.6998L73.5733 45.8782C73.6238 45.9874 73.8246 45.9681 73.8544 45.8384C73.8246 45.3518 73.6639 45.0334 73.3531 44.6752H73.3544ZM72.5215 46.2968C72.3104 45.6112 72.1809 44.8845 71.8389 44.2489C71.7987 44.1591 71.7184 44.0602 71.6187 44.0897C71.5086 44.1 71.4387 44.2284 71.4788 44.3285C72.1407 45.5521 72.2715 46.8746 72.7028 48.1469C72.8531 48.2959 73.094 48.1867 73.1044 47.9877C72.9736 47.4305 72.6627 46.8643 72.5228 46.2968H72.5215ZM71.8803 48.1662C71.6498 46.6345 71.1485 45.1438 70.3856 43.7906C70.3454 43.6121 70.155 43.6814 70.1952 43.8009V43.8201C70.1952 43.827 70.1986 43.8304 70.2055 43.8304C70.6265 45.2825 71.269 46.7244 71.5798 48.206C71.5695 48.2355 71.62 48.3947 71.7405 48.3755C71.8402 48.3857 71.9114 48.2265 71.8803 48.1662ZM69.5424 44.3478C69.4426 44.1385 69.181 43.5916 69.0903 43.3926C69.0307 43.1435 68.7989 43.2231 68.8701 43.363C69.361 44.9936 70.0035 46.6447 70.3053 48.3344C70.3351 48.3935 70.2755 48.4538 70.396 48.5527C70.5164 48.6027 70.6369 48.5026 70.6162 48.3742C70.4361 47.0017 70.1252 45.6202 69.5424 44.3465V44.3478ZM68.8002 45.8192C68.7406 45.6805 68.6396 45.3711 68.58 45.2324C68.51 45.1528 68.3792 45.2324 68.409 45.3223C68.4893 46.5061 68.7704 47.252 69.0204 48.3652C69.1305 48.4949 69.3118 48.3857 69.2911 48.2458C69.1913 47.4305 69.0709 46.6049 68.8002 45.8192ZM68.3883 44.516C68.2484 43.9896 68.0968 43.4516 67.7963 42.9946L67.6357 42.7763C67.5852 42.6376 67.3754 42.6967 67.4349 42.8456C67.5748 43.1743 67.5554 43.571 67.7458 43.8792C67.8766 44.118 68.0372 44.3465 68.1176 44.6046C68.1279 44.6637 68.2173 44.7343 68.2885 44.7035C68.3792 44.7137 68.4284 44.5545 68.3883 44.5147V44.516ZM67.5463 46.0875C67.5062 46.0182 67.4958 45.9578 67.4557 45.8782C67.3961 45.7884 67.2251 45.8487 67.2847 45.9578C67.4751 46.9516 67.8067 47.9364 67.9764 48.9404C67.9867 49.0393 67.9867 49.2986 68.1875 49.2485C68.2782 49.2485 68.308 49.0996 68.2872 49.0791C68.2471 48.0455 68.0359 47.0004 67.545 46.0862L67.5463 46.0875ZM65.4894 41.6528C65.4493 41.563 65.299 41.613 65.3094 41.7119C65.6604 42.965 66.242 43.4722 66.6539 44.5558C66.7342 44.7343 66.9855 44.6354 66.9751 44.4762C66.6435 43.4516 66.0516 42.5567 65.4907 41.6516L65.4894 41.6528ZM66.0114 45.6895C65.9609 45.5804 65.7912 45.6497 65.8314 45.7588C66.0516 47.0222 66.413 47.9569 66.6034 49.0701C66.6629 49.2485 66.9246 49.16 66.8948 48.9905C66.7342 47.8568 66.4427 46.7526 66.0114 45.6895ZM65.47 44.0589C64.9584 42.567 64.1359 41.1855 63.0025 40.0813C62.8924 39.8926 62.7214 40.0608 62.8121 40.1404C63.6747 41.4628 64.5879 42.7057 65.1902 44.1578C65.2407 44.3863 65.5917 44.2875 65.4713 44.0589H65.47ZM28.8135 40.0313C27.9211 40.9364 27.1879 41.9507 26.7372 43.1538C26.6465 43.3322 26.4159 43.8201 26.3253 43.9986C26.3149 44.0589 26.2748 44.0487 26.2657 44.1873C26.3162 44.3067 26.4367 44.326 26.526 44.2669C26.947 43.4619 27.3084 42.7853 27.7397 42.0599C28.0506 41.563 28.5428 40.6771 28.9029 40.22C29.0337 40.1109 28.9327 39.9311 28.8122 40.0313H28.8135ZM26.2048 41.622C25.6427 42.5169 25.1621 43.4722 24.85 44.4762C24.8396 44.5751 25.0002 44.6354 25.03 44.5263C25.6012 43.7007 25.973 42.8353 26.3745 41.9212C26.4043 41.8519 26.4341 41.8313 26.4846 41.7222C26.5144 41.5732 26.2942 41.4731 26.2035 41.6233L26.2048 41.622ZM25.7437 45.71C25.2619 46.8938 25.1725 47.8183 24.8707 49.011C24.8409 49.1702 25.122 49.2498 25.1712 49.0611C25.3914 48.1765 25.653 47.3111 25.8033 46.4162C25.8331 46.257 25.8836 45.8885 25.9341 45.7396C25.9445 45.6202 25.7631 45.6009 25.7437 45.71ZM24.3189 45.8988H24.2982C24.2982 45.9283 24.2878 45.9489 24.2878 45.9784V45.9887C24.0572 46.4766 23.7762 47.0132 23.6855 47.5692C23.635 47.9864 23.565 48.7029 23.4744 49.1009C23.4446 49.2794 23.7153 49.3192 23.7658 49.16C23.9458 48.3447 24.2969 46.9619 24.4277 46.1569C24.4381 46.0773 24.4678 46.0182 24.4873 45.9386C24.4873 45.8295 24.337 45.8089 24.3163 45.8988H24.3189ZM24.1181 42.7763C23.6764 43.2732 23.7062 43.969 23.3552 44.516C23.3047 44.5455 23.3448 44.7343 23.4459 44.7445C23.5365 44.7946 23.6764 44.7047 23.6868 44.6251C24.0378 44.0782 24.1583 43.4619 24.3085 42.8456C24.3681 42.6967 24.1583 42.6363 24.1181 42.7763ZM23.1648 45.5804L23.1544 45.5906C23.1337 45.6009 23.1143 45.6009 23.1039 45.6202C22.7529 46.5651 22.6324 47.4498 22.4718 48.4345C22.442 48.5244 22.3721 48.7427 22.5521 48.7722C22.6117 48.7915 22.7127 48.7221 22.7231 48.6528C22.9537 47.867 23.1842 47.0813 23.2451 46.2557C23.2555 46.1068 23.2853 45.7781 23.2956 45.6292C23.2853 45.5598 23.2153 45.5496 23.1648 45.5791V45.5804ZM22.8837 43.2732C22.8436 43.2334 22.784 43.2334 22.7438 43.2834C22.7438 43.2903 22.7404 43.2937 22.7335 43.2937V43.304H22.7231V43.3142C22.7231 43.3142 22.7127 43.3142 22.7127 43.3245C21.9407 44.7266 21.5288 46.3469 21.2478 47.9389C21.227 48.0686 21.0975 48.4166 21.1675 48.5052C21.2076 48.595 21.4187 48.595 21.4382 48.4551C21.7594 47.0928 22.17 45.7897 22.5418 44.448C22.6117 44.2297 22.762 43.6725 22.8526 43.4542C22.863 43.4041 22.9226 43.3553 22.8824 43.2757L22.8837 43.2732ZM21.5599 43.7213C21.5301 43.6712 21.4291 43.6622 21.3993 43.7315C21.0677 44.4775 20.617 45.1926 20.4162 45.9989C20.2854 46.5651 20.0652 47.5602 19.9046 48.1071C19.8048 48.2766 19.9849 48.5052 20.1649 48.2959C20.5056 47.1827 21.1182 45.2735 21.4395 44.1796C21.4602 44.0204 21.6195 43.8817 21.5599 43.7225V43.7213ZM20.0354 44.2284C19.2932 45.4314 19.1028 46.5857 18.7518 47.9171C18.731 47.9377 18.7116 48.0558 18.7919 48.1059C18.8424 48.1559 18.972 48.1559 19.0225 48.0661C19.3839 46.863 19.775 45.7691 20.1053 44.5853C20.1351 44.4955 20.1649 44.4159 20.196 44.3363C20.2763 44.2374 20.0963 44.0872 20.0354 44.2271V44.2284ZM18.4305 44.6559C18.2103 45.0039 17.9785 45.4122 17.9785 45.859C17.9591 45.9283 17.9487 45.9977 17.9189 46.0683C17.8684 46.2069 18.0795 46.2968 18.1598 46.1774C18.4202 45.6805 18.6119 45.253 18.6715 44.7163C18.652 44.5571 18.4513 44.5378 18.4305 44.6572V44.6559ZM17.8386 46.8925C17.7777 46.863 17.6883 46.8823 17.6987 46.9721C17.6585 47.1314 17.4681 47.3201 17.4876 47.5088C17.5277 47.668 17.4772 47.9364 17.5575 47.9954C17.8891 48.2137 18.0989 46.9709 17.8386 46.8913V46.8925ZM16.9656 45.0527C16.6845 45.4109 16.384 45.8975 16.3633 46.4047C16.3425 46.8527 16.384 47.2803 16.2933 47.7168C16.3037 47.8658 16.4941 47.8863 16.564 47.7862C16.7544 47.0004 16.7842 46.334 16.9656 45.5983C16.9954 45.3993 17.0964 45.2607 17.1456 45.0617C17.1249 44.9821 17.0057 44.9525 16.9656 45.0514V45.0527ZM15.7817 45.9386C15.8115 45.7999 15.5913 45.7499 15.5706 45.8795C15.3996 46.4162 15.2597 46.7346 15.2895 47.3419C15.2895 47.4215 15.2688 47.5011 15.2493 47.591C15.1794 47.7297 15.4397 47.8491 15.52 47.6706C15.7208 47.0736 15.8413 46.5472 15.7804 45.9399L15.7817 45.9386ZM14.3672 46.3058C14.3271 46.2262 14.1963 46.2159 14.1768 46.3058H14.1872C14.1872 46.3058 14.1768 46.3058 14.1768 46.3161V46.3263C14.1768 46.3263 14.1768 46.3366 14.1665 46.3469C13.9761 46.7346 13.8854 47.0325 13.9255 47.4909C13.9255 47.5602 13.9048 47.6103 13.8958 47.7001C13.9255 47.8298 14.1159 47.8593 14.1768 47.7207C14.3569 47.2135 14.4683 46.8258 14.3672 46.3084V46.3058ZM61.9688 62.2265C61.136 62.6835 60.3342 63.1111 59.5013 63.5887C57.0338 64.9907 54.4251 66.1643 51.6467 66.7805C44.6548 68.0234 37.2316 66.2041 31.2525 62.5141L30.3096 62.0172C30.2798 61.9966 30.1593 61.9376 30.1295 61.9273C30.0686 61.8875 29.9689 61.9478 29.9896 62.0262C30.4015 62.3548 32.0763 63.269 32.5374 63.5771C37.453 66.421 43.2922 67.8732 48.9901 67.5945C53.7257 67.3365 57.8887 64.9291 61.8005 62.4935L62.031 62.3548C62.031 62.3548 62.101 62.315 62.0815 62.256C62.0712 62.1969 61.9714 62.2162 61.9714 62.2265H61.9688ZM57.1025 64.9407C56.8913 65.0498 56.6711 65.1397 56.4509 65.2193C56.7825 65.0703 57.1025 64.9214 57.4237 64.7519C57.3136 64.811 57.2126 64.8816 57.1025 64.9407ZM55.438 25.6629C50.5419 22.6495 44.182 22.6007 38.8856 24.569C37.3611 25.0966 35.8158 25.5833 34.391 26.3189C34.1203 26.4383 33.869 26.568 33.7395 26.6566C33.7187 26.6759 33.689 26.6861 33.6695 26.6964C33.6294 26.717 33.6488 26.7953 33.6993 26.7555C37.2406 25.632 40.7923 24.1799 44.524 23.8217C47.985 23.6432 51.6467 24.09 54.7969 25.582C54.8966 25.632 55.1777 25.7707 55.2684 25.8105C55.3487 25.8606 55.4886 25.7604 55.4393 25.6616L55.438 25.6629ZM14.3672 46.3058C14.3271 46.2262 14.1963 46.2159 14.1768 46.3058H14.1872C14.1872 46.3058 14.1768 46.3058 14.1768 46.3161V46.3263C14.1768 46.3263 14.1768 46.3366 14.1665 46.3469C13.9761 46.7346 13.8854 47.0325 13.9255 47.4909C13.9255 47.5602 13.9048 47.6103 13.8958 47.7001C13.9255 47.8298 14.1159 47.8593 14.1768 47.7207C14.3569 47.2135 14.4683 46.8258 14.3672 46.3084V46.3058ZM15.7817 45.9386C15.8115 45.7999 15.5913 45.7499 15.5706 45.8795C15.3996 46.4162 15.2597 46.7346 15.2895 47.3419C15.2895 47.4215 15.2688 47.5011 15.2493 47.591C15.1794 47.7297 15.4397 47.8491 15.52 47.6706C15.7208 47.0736 15.8413 46.5472 15.7804 45.9399L15.7817 45.9386ZM16.9656 45.0527C16.6845 45.4109 16.384 45.8975 16.3633 46.4047C16.3425 46.8527 16.384 47.2803 16.2933 47.7168C16.3037 47.8658 16.4941 47.8863 16.564 47.7862C16.7544 47.0004 16.7842 46.334 16.9656 45.5983C16.9954 45.3993 17.0964 45.2607 17.1456 45.0617C17.1249 44.9821 17.0057 44.9525 16.9656 45.0514V45.0527ZM17.8386 46.8925C17.7777 46.863 17.6883 46.8823 17.6987 46.9721C17.6585 47.1314 17.4681 47.3201 17.4876 47.5088C17.5277 47.668 17.4772 47.9364 17.5575 47.9954C17.8891 48.2137 18.0989 46.9709 17.8386 46.8913V46.8925ZM18.4305 44.6559C18.2103 45.0039 17.9785 45.4122 17.9785 45.859C17.9591 45.9283 17.9487 45.9977 17.9189 46.0683C17.8684 46.2069 18.0795 46.2968 18.1598 46.1774C18.4202 45.6805 18.6119 45.253 18.6715 44.7163C18.652 44.5571 18.4513 44.5378 18.4305 44.6572V44.6559ZM20.0354 44.2284C19.2932 45.4314 19.1028 46.5857 18.7518 47.9171C18.731 47.9377 18.7116 48.0558 18.7919 48.1059C18.8424 48.1559 18.972 48.1559 19.0225 48.0661C19.3839 46.863 19.775 45.7691 20.1053 44.5853C20.1351 44.4955 20.1649 44.4159 20.196 44.3363C20.2763 44.2374 20.0963 44.0872 20.0354 44.2271V44.2284ZM21.5599 43.7213C21.5301 43.6712 21.4291 43.6622 21.3993 43.7315C21.0677 44.4775 20.617 45.1926 20.4162 45.9989C20.2854 46.5651 20.0652 47.5602 19.9046 48.1071C19.8048 48.2766 19.9849 48.5052 20.1649 48.2959C20.5056 47.1827 21.1182 45.2735 21.4395 44.1796C21.4602 44.0204 21.6195 43.8817 21.5599 43.7225V43.7213ZM22.8837 43.2732C22.8436 43.2334 22.784 43.2334 22.7438 43.2834C22.7438 43.2903 22.7404 43.2937 22.7335 43.2937V43.304H22.7231V43.3142C22.7231 43.3142 22.7127 43.3142 22.7127 43.3245C21.9407 44.7266 21.5288 46.3469 21.2478 47.9389C21.227 48.0686 21.0975 48.4166 21.1675 48.5052C21.2076 48.595 21.4187 48.595 21.4382 48.4551C21.7594 47.0928 22.17 45.7897 22.5418 44.448C22.6117 44.2297 22.762 43.6725 22.8526 43.4542C22.863 43.4041 22.9226 43.3553 22.8824 43.2757L22.8837 43.2732ZM23.1648 45.5804L23.1544 45.5906C23.1337 45.6009 23.1143 45.6009 23.1039 45.6202C22.7529 46.5651 22.6324 47.4498 22.4718 48.4345C22.442 48.5244 22.3721 48.7427 22.5521 48.7722C22.6117 48.7915 22.7127 48.7221 22.7231 48.6528C22.9537 47.867 23.1842 47.0813 23.2451 46.2557C23.2555 46.1068 23.2853 45.7781 23.2956 45.6292C23.2853 45.5598 23.2153 45.5496 23.1648 45.5791V45.5804ZM24.1181 42.7763C23.6764 43.2732 23.7062 43.969 23.3552 44.516C23.3047 44.5455 23.3448 44.7343 23.4459 44.7445C23.5365 44.7946 23.6764 44.7047 23.6868 44.6251C24.0378 44.0782 24.1583 43.4619 24.3085 42.8456C24.3681 42.6967 24.1583 42.6363 24.1181 42.7763ZM24.3189 45.8988H24.2982C24.2982 45.9283 24.2878 45.9489 24.2878 45.9784V45.9887C24.0572 46.4766 23.7762 47.0132 23.6855 47.5692C23.635 47.9864 23.565 48.7029 23.4744 49.1009C23.4446 49.2794 23.7153 49.3192 23.7658 49.16C23.9458 48.3447 24.2969 46.9619 24.4277 46.1569C24.4381 46.0773 24.4678 46.0182 24.4873 45.9386C24.4873 45.8295 24.337 45.8089 24.3163 45.8988H24.3189ZM25.7437 45.71C25.2619 46.8938 25.1725 47.8183 24.8707 49.011C24.8409 49.1702 25.122 49.2498 25.1712 49.0611C25.3914 48.1765 25.653 47.3111 25.8033 46.4162C25.8331 46.257 25.8836 45.8885 25.9341 45.7396C25.9445 45.6202 25.7631 45.6009 25.7437 45.71ZM26.2048 41.622C25.6427 42.5169 25.1621 43.4722 24.85 44.4762C24.8396 44.5751 25.0002 44.6354 25.03 44.5263C25.6012 43.7007 25.973 42.8353 26.3745 41.9212C26.4043 41.8519 26.4341 41.8313 26.4846 41.7222C26.5144 41.5732 26.2942 41.4731 26.2035 41.6233L26.2048 41.622ZM28.8135 40.0313C27.9211 40.9364 27.1879 41.9507 26.7372 43.1538C26.6465 43.3322 26.4159 43.8201 26.3253 43.9986C26.3149 44.0589 26.2748 44.0487 26.2657 44.1873C26.3162 44.3067 26.4367 44.326 26.526 44.2669C26.947 43.4619 27.3084 42.7853 27.7397 42.0599C28.0506 41.563 28.5428 40.6771 28.9029 40.22C29.0337 40.1109 28.9327 39.9311 28.8122 40.0313H28.8135ZM55.438 25.6629C50.5419 22.6495 44.182 22.6007 38.8856 24.569C37.3611 25.0966 35.8158 25.5833 34.391 26.3189C34.1203 26.4383 33.869 26.568 33.7395 26.6566C33.7187 26.6759 33.689 26.6861 33.6695 26.6964C33.6294 26.717 33.6488 26.7953 33.6993 26.7555C37.2406 25.632 40.7923 24.1799 44.524 23.8217C47.985 23.6432 51.6467 24.09 54.7969 25.582C54.8966 25.632 55.1777 25.7707 55.2684 25.8105C55.3487 25.8606 55.4886 25.7604 55.4393 25.6616L55.438 25.6629ZM61.9688 62.2265C61.136 62.6835 60.3342 63.1111 59.5013 63.5887C57.0338 64.9907 54.4251 66.1643 51.6467 66.7805C44.6548 68.0234 37.2316 66.2041 31.2525 62.5141L30.3096 62.0172C30.2798 61.9966 30.1593 61.9376 30.1295 61.9273C30.0686 61.8875 29.9689 61.9478 29.9896 62.0262C30.4015 62.3548 32.0763 63.269 32.5374 63.5771C37.453 66.421 43.2922 67.8732 48.9901 67.5945C53.7257 67.3365 57.8887 64.9291 61.8005 62.4935L62.031 62.3548C62.031 62.3548 62.101 62.315 62.0815 62.256C62.0712 62.1969 61.9714 62.2162 61.9714 62.2265H61.9688ZM57.1025 64.9407C56.8913 65.0498 56.6711 65.1397 56.4509 65.2193C56.7825 65.0703 57.1025 64.9214 57.4237 64.7519C57.3136 64.811 57.2126 64.8816 57.1025 64.9407ZM65.47 44.0589C64.9584 42.567 64.1359 41.1855 63.0025 40.0813C62.8924 39.8926 62.7214 40.0608 62.8121 40.1404C63.6747 41.4628 64.5879 42.7057 65.1902 44.1578C65.2407 44.3863 65.5917 44.2875 65.4713 44.0589H65.47ZM66.0114 45.6895C65.9609 45.5804 65.7912 45.6497 65.8314 45.7588C66.0516 47.0222 66.413 47.9569 66.6034 49.0701C66.6629 49.2485 66.9246 49.16 66.8948 48.9905C66.7342 47.8568 66.4427 46.7526 66.0114 45.6895ZM65.4894 41.6528C65.4493 41.563 65.299 41.613 65.3094 41.7119C65.6604 42.965 66.242 43.4722 66.6539 44.5558C66.7342 44.7343 66.9855 44.6354 66.9751 44.4762C66.6435 43.4516 66.0516 42.5567 65.4907 41.6516L65.4894 41.6528ZM67.5463 46.0875C67.5062 46.0182 67.4958 45.9578 67.4557 45.8782C67.3961 45.7884 67.2251 45.8487 67.2847 45.9578C67.4751 46.9516 67.8067 47.9364 67.9764 48.9404C67.9867 49.0393 67.9867 49.2986 68.1875 49.2485C68.2782 49.2485 68.308 49.0996 68.2872 49.0791C68.2471 48.0455 68.0359 47.0004 67.545 46.0862L67.5463 46.0875ZM68.3883 44.516C68.2484 43.9896 68.0968 43.4516 67.7963 42.9946L67.6357 42.7763C67.5852 42.6376 67.3754 42.6967 67.4349 42.8456C67.5748 43.1743 67.5554 43.571 67.7458 43.8792C67.8766 44.118 68.0372 44.3465 68.1176 44.6046C68.1279 44.6637 68.2173 44.7343 68.2885 44.7035C68.3792 44.7137 68.4284 44.5545 68.3883 44.5147V44.516ZM68.8002 45.8192C68.7406 45.6805 68.6396 45.3711 68.58 45.2324C68.51 45.1528 68.3792 45.2324 68.409 45.3223C68.4893 46.5061 68.7704 47.252 69.0204 48.3652C69.1305 48.4949 69.3118 48.3857 69.2911 48.2458C69.1913 47.4305 69.0709 46.6049 68.8002 45.8192ZM69.5424 44.3478C69.4426 44.1385 69.181 43.5916 69.0903 43.3926C69.0307 43.1435 68.7989 43.2231 68.8701 43.363C69.361 44.9936 70.0035 46.6447 70.3053 48.3344C70.3351 48.3935 70.2755 48.4538 70.396 48.5527C70.5164 48.6027 70.6369 48.5026 70.6162 48.3742C70.4361 47.0017 70.1252 45.6202 69.5424 44.3465V44.3478ZM71.8803 48.1662C71.6498 46.6345 71.1485 45.1438 70.3856 43.7906C70.3454 43.6121 70.155 43.6814 70.1952 43.8009V43.8201C70.1952 43.827 70.1986 43.8304 70.2055 43.8304C70.6265 45.2825 71.269 46.7244 71.5798 48.206C71.5695 48.2355 71.62 48.3947 71.7405 48.3755C71.8402 48.3857 71.9114 48.2265 71.8803 48.1662ZM72.5215 46.2968C72.3104 45.6112 72.1809 44.8845 71.8389 44.2489C71.7987 44.1591 71.7184 44.0602 71.6187 44.0897C71.5086 44.1 71.4387 44.2284 71.4788 44.3285C72.1407 45.5521 72.2715 46.8746 72.7028 48.1469C72.8531 48.2959 73.094 48.1867 73.1044 47.9877C72.9736 47.4305 72.6627 46.8643 72.5228 46.2968H72.5215ZM73.3544 44.6752C73.344 44.6251 73.2546 44.5455 73.1938 44.6059C73.1432 44.6161 73.1135 44.6958 73.1432 44.7356H73.1329C73.1122 45.1336 73.3531 45.3814 73.5137 45.6998L73.5733 45.8782C73.6238 45.9874 73.8246 45.9681 73.8544 45.8384C73.8246 45.3518 73.6639 45.0334 73.3531 44.6752H73.3544ZM73.9761 46.4855C73.8854 46.4162 73.765 46.5356 73.8155 46.5844C73.8051 46.9619 73.7559 47.3894 73.9554 47.7579C73.9852 47.8375 73.9658 47.867 74.0357 47.9762C74.1056 48.0661 74.296 47.9762 74.2766 47.8568C74.2766 47.3792 74.2572 46.8925 73.9761 46.4843V46.4855ZM74.739 44.9936C74.6587 44.9641 74.559 45.063 74.6289 45.1323C74.91 45.5406 74.8802 46.067 75.0007 46.5241C75.1004 46.9118 75.1717 47.3098 75.1807 47.7078C75.1911 47.8272 75.3413 47.8966 75.432 47.7977C75.5421 46.8733 75.4916 45.66 74.7403 44.9936H74.739ZM76.5343 47.5884C76.5149 47.0916 76.4941 46.5844 76.3037 46.1171L76.204 45.8782C76.1638 45.7293 75.9527 45.8089 75.9929 45.9283C76.0032 46.5048 75.9825 46.8335 76.204 47.3907C76.2545 47.5204 76.204 47.7592 76.4048 47.7592C76.4954 47.7797 76.555 47.6205 76.5356 47.5897L76.5343 47.5884ZM77.5874 46.257C77.4876 46.1979 77.3672 46.2775 77.4164 46.3764C77.397 46.8733 77.3464 47.0428 77.5666 47.5396C77.5964 47.6192 77.5964 47.8581 77.7868 47.7977C77.8568 47.7785 77.8866 47.668 77.8775 47.6488C77.8775 47.1712 77.8671 46.655 77.5861 46.257H77.5874ZM77.5874 46.257C77.4876 46.1979 77.3672 46.2775 77.4164 46.3764C77.397 46.8733 77.3464 47.0428 77.5666 47.5396C77.5964 47.6192 77.5964 47.8581 77.7868 47.7977C77.8568 47.7785 77.8866 47.668 77.8775 47.6488C77.8775 47.1712 77.8671 46.655 77.5861 46.257H77.5874ZM76.3037 46.1171L76.204 45.8782C76.1638 45.7293 75.9527 45.8089 75.9929 45.9283C76.0032 46.5048 75.9825 46.8335 76.204 47.3907C76.2545 47.5204 76.204 47.7592 76.4048 47.7592C76.4954 47.7797 76.555 47.6205 76.5356 47.5897C76.5162 47.0928 76.4954 46.5857 76.305 46.1183L76.3037 46.1171ZM74.6289 45.1323C74.91 45.5406 74.8802 46.067 75.0007 46.5241C75.1004 46.9118 75.1717 47.3098 75.1807 47.7078C75.1911 47.8272 75.3413 47.8966 75.432 47.7977C75.5421 46.8733 75.4916 45.66 74.7403 44.9936C74.66 44.9641 74.5603 45.063 74.6302 45.1323H74.6289ZM73.8155 46.5844C73.8051 46.9619 73.7559 47.3894 73.9554 47.7579C73.9852 47.8375 73.9658 47.867 74.0357 47.9762C74.1056 48.0661 74.296 47.9762 74.2766 47.8568C74.2766 47.3792 74.2572 46.8925 73.9761 46.4843C73.8854 46.4149 73.765 46.5343 73.8155 46.5831V46.5844ZM73.8557 45.8384C73.8259 45.3518 73.6652 45.0334 73.3544 44.6752C73.344 44.6251 73.2546 44.5455 73.1938 44.6059C73.1432 44.6161 73.1135 44.6958 73.1432 44.7356H73.1329C73.1122 45.1336 73.3531 45.3814 73.5137 45.6998L73.5733 45.8782C73.6238 45.9874 73.8246 45.9681 73.8544 45.8384H73.8557ZM71.8389 44.2477C71.7987 44.1578 71.7184 44.0589 71.6187 44.0885C71.5086 44.0987 71.4387 44.2271 71.4788 44.3273C72.1407 45.5508 72.2715 46.8733 72.7028 48.1457C72.8531 48.2946 73.094 48.1855 73.1044 47.9864C72.9736 47.4292 72.6627 46.863 72.5228 46.2955C72.3117 45.6099 72.1821 44.8832 71.8402 44.2477H71.8389ZM70.3843 43.7906C70.3441 43.6121 70.1537 43.6814 70.1939 43.8009V43.8201C70.1939 43.827 70.1973 43.8304 70.2043 43.8304C70.6252 45.2825 71.2677 46.7244 71.5785 48.206C71.5682 48.2355 71.6187 48.3947 71.7392 48.3755C71.8389 48.3857 71.9101 48.2265 71.8791 48.1662C71.6485 46.6345 71.1472 45.1438 70.3843 43.7906ZM69.0903 43.3926C69.0307 43.1435 68.7989 43.2231 68.8701 43.363C69.361 44.9936 70.0035 46.6447 70.3053 48.3344C70.3351 48.3935 70.2755 48.4538 70.396 48.5527C70.5164 48.6027 70.6369 48.5026 70.6162 48.3742C70.4361 47.0017 70.1252 45.6202 69.5424 44.3465C69.4426 44.1372 69.181 43.5903 69.0903 43.3913V43.3926ZM68.5787 45.2324C68.5087 45.1528 68.3779 45.2324 68.4077 45.3223C68.488 46.5061 68.7691 47.252 69.0191 48.3652C69.1292 48.4949 69.3105 48.3857 69.2898 48.2458C69.19 47.4305 69.0696 46.6049 68.7989 45.8192C68.7393 45.6805 68.6383 45.3711 68.5787 45.2324ZM67.7963 42.9946L67.6357 42.7763C67.5852 42.6376 67.3754 42.6967 67.4349 42.8456C67.5748 43.1743 67.5554 43.571 67.7458 43.8792C67.8766 44.118 68.0372 44.3465 68.1176 44.6046C68.1279 44.6637 68.2173 44.7343 68.2885 44.7035C68.3792 44.7137 68.4284 44.5545 68.3883 44.5147C68.2484 43.9883 68.0968 43.4503 67.7963 42.9933V42.9946ZM67.4557 45.8782C67.3961 45.7884 67.2251 45.8487 67.2847 45.9578C67.4751 46.9516 67.8067 47.9364 67.9764 48.9404C67.9867 49.0393 67.9867 49.2986 68.1875 49.2485C68.2782 49.2485 68.308 49.0996 68.2872 49.0791C68.2471 48.0455 68.0359 47.0004 67.545 46.0862C67.5049 46.0169 67.4945 45.9566 67.4544 45.877L67.4557 45.8782ZM65.3094 41.7119C65.6604 42.965 66.242 43.4722 66.6539 44.5558C66.7342 44.7343 66.9855 44.6354 66.9751 44.4762C66.6435 43.4516 66.0516 42.5567 65.4907 41.6516C65.4506 41.5617 65.3003 41.6118 65.3107 41.7106L65.3094 41.7119ZM65.8301 45.7588C66.0503 47.0222 66.4117 47.9569 66.6021 49.0701C66.6617 49.2485 66.9233 49.16 66.8935 48.9905C66.7329 47.8568 66.4415 46.7526 66.0101 45.6895C65.9596 45.5804 65.7899 45.6497 65.8301 45.7588ZM63.0012 40.0813C62.8911 39.8926 62.7201 40.0608 62.8108 40.1404C63.6734 41.4628 64.5866 42.7057 65.1889 44.1578C65.2394 44.3863 65.5905 44.2875 65.47 44.0589C64.9584 42.567 64.1359 41.1855 63.0025 40.0813H63.0012ZM28.8135 40.0313C27.9211 40.9364 27.1879 41.9507 26.7372 43.1538C26.6465 43.3322 26.4159 43.8201 26.3253 43.9986C26.3149 44.0589 26.2748 44.0487 26.2657 44.1873C26.3162 44.3067 26.4367 44.326 26.526 44.2669C26.947 43.4619 27.3084 42.7853 27.7397 42.0599C28.0506 41.563 28.5428 40.6771 28.9029 40.22C29.0337 40.1109 28.9327 39.9311 28.8122 40.0313H28.8135ZM25.0313 44.5263C25.6025 43.7007 25.9743 42.8353 26.3758 41.9212C26.4056 41.8519 26.4354 41.8313 26.4859 41.7222C26.5157 41.5732 26.2955 41.4731 26.2048 41.6233C25.6427 42.5182 25.1621 43.4735 24.85 44.4775C24.8396 44.5763 25.0002 44.6367 25.03 44.5276L25.0313 44.5263ZM25.7437 45.71C25.2619 46.8938 25.1725 47.8183 24.8707 49.011C24.8409 49.1702 25.122 49.2498 25.1712 49.0611C25.3914 48.1765 25.653 47.3111 25.8033 46.4162C25.8331 46.257 25.8836 45.8885 25.9341 45.7396C25.9445 45.6202 25.7631 45.6009 25.7437 45.71ZM24.3189 45.8988H24.2982C24.2982 45.9283 24.2878 45.9489 24.2878 45.9784V45.9887C24.0572 46.4766 23.7762 47.0132 23.6855 47.5692C23.635 47.9864 23.565 48.7029 23.4744 49.1009C23.4446 49.2794 23.7153 49.3192 23.7658 49.16C23.9458 48.3447 24.2969 46.9619 24.4277 46.1569C24.4381 46.0773 24.4678 46.0182 24.4873 45.9386C24.4873 45.8295 24.337 45.8089 24.3163 45.8988H24.3189ZM23.6868 44.6251C24.0378 44.0782 24.1583 43.4619 24.3085 42.8456C24.3681 42.6967 24.1583 42.6363 24.1181 42.7763C23.6764 43.2732 23.7062 43.969 23.3552 44.516C23.3047 44.5455 23.3448 44.7343 23.4459 44.7445C23.5365 44.7946 23.6764 44.7047 23.6868 44.6251ZM23.1648 45.5804L23.1544 45.5906C23.1337 45.6009 23.1143 45.6009 23.1039 45.6202C22.7529 46.5651 22.6324 47.4498 22.4718 48.4345C22.442 48.5244 22.3721 48.7427 22.5521 48.7722C22.6117 48.7915 22.7127 48.7221 22.7231 48.6528C22.9537 47.867 23.1842 47.0813 23.2451 46.2557C23.2555 46.1068 23.2853 45.7781 23.2956 45.6292C23.2853 45.5598 23.2153 45.5496 23.1648 45.5791V45.5804ZM22.8539 43.4516C22.8643 43.4016 22.9239 43.3528 22.8837 43.2732C22.8436 43.2334 22.784 43.2334 22.7438 43.2834C22.7438 43.2903 22.7404 43.2937 22.7335 43.2937V43.304H22.7231V43.3142C22.7231 43.3142 22.7127 43.3142 22.7127 43.3245C21.9407 44.7266 21.5288 46.3469 21.2478 47.9389C21.227 48.0686 21.0975 48.4166 21.1675 48.5052C21.2076 48.595 21.4187 48.595 21.4382 48.4551C21.7594 47.0928 22.17 45.7897 22.5418 44.448C22.6117 44.2297 22.762 43.6725 22.8526 43.4542L22.8539 43.4516ZM21.5599 43.7213C21.5301 43.6712 21.4291 43.6622 21.3993 43.7315C21.0677 44.4775 20.617 45.1926 20.4162 45.9989C20.2854 46.5651 20.0652 47.5602 19.9046 48.1071C19.8048 48.2766 19.9849 48.5052 20.1649 48.2959C20.5056 47.1827 21.1182 45.2735 21.4395 44.1796C21.4602 44.0204 21.6195 43.8817 21.5599 43.7225V43.7213ZM20.196 44.3375C20.2763 44.2387 20.0963 44.0885 20.0354 44.2284C19.2932 45.4314 19.1028 46.5857 18.7518 47.9171C18.731 47.9377 18.7116 48.0558 18.7919 48.1059C18.8424 48.1559 18.972 48.1559 19.0225 48.0661C19.3839 46.863 19.775 45.7691 20.1053 44.5853C20.1351 44.4955 20.1649 44.4159 20.196 44.3363V44.3375ZM18.4305 44.6559C18.2103 45.0039 17.9785 45.4122 17.9785 45.859C17.9591 45.9283 17.9487 45.9977 17.9189 46.0683C17.8684 46.2069 18.0795 46.2968 18.1598 46.1774C18.4202 45.6805 18.6119 45.253 18.6715 44.7163C18.652 44.5571 18.4513 44.5378 18.4305 44.6572V44.6559ZM17.6974 46.9721C17.6573 47.1314 17.4668 47.3201 17.4863 47.5088C17.5264 47.668 17.4759 47.9364 17.5562 47.9954C17.8878 48.2137 18.0976 46.9709 17.8373 46.8913C17.7764 46.8617 17.687 46.881 17.6974 46.9709V46.9721ZM16.9656 45.0527C16.6845 45.4109 16.384 45.8975 16.3633 46.4047C16.3425 46.8527 16.384 47.2803 16.2933 47.7168C16.3037 47.8658 16.4941 47.8863 16.564 47.7862C16.7544 47.0004 16.7842 46.334 16.9656 45.5983C16.9954 45.3993 17.0964 45.2607 17.1456 45.0617C17.1249 44.9821 17.0057 44.9525 16.9656 45.0514V45.0527ZM15.5706 45.8782C15.3996 46.4149 15.2597 46.7333 15.2895 47.3406C15.2895 47.4202 15.2688 47.4998 15.2493 47.5897C15.1794 47.7284 15.4397 47.8478 15.52 47.6693C15.7208 47.0723 15.8413 46.5459 15.7804 45.9386C15.8102 45.7999 15.59 45.7499 15.5693 45.8795L15.5706 45.8782ZM14.1768 46.3058H14.1872C14.1872 46.3058 14.1768 46.3058 14.1768 46.3161V46.3263C14.1768 46.3263 14.1768 46.3366 14.1665 46.3469C13.9761 46.7346 13.8854 47.0325 13.9255 47.4909C13.9255 47.5602 13.9048 47.6103 13.8958 47.7001C13.9255 47.8298 14.1159 47.8593 14.1768 47.7207C14.3569 47.2135 14.4683 46.8258 14.3672 46.3084C14.3271 46.2288 14.1963 46.2185 14.1768 46.3084V46.3058ZM61.9688 62.2265C61.136 62.6835 60.3342 63.1111 59.5013 63.5887C57.0338 64.9907 54.4251 66.1643 51.6467 66.7805C44.6548 68.0234 37.2316 66.2041 31.2525 62.5141L30.3096 62.0172C30.2798 61.9966 30.1593 61.9376 30.1295 61.9273C30.0686 61.8875 29.9689 61.9478 29.9896 62.0262C30.4015 62.3548 32.0763 63.269 32.5374 63.5771C37.453 66.421 43.2922 67.8732 48.9901 67.5945C53.7257 67.3365 57.8887 64.9291 61.8005 62.4935L62.031 62.3548C62.031 62.3548 62.101 62.315 62.0815 62.256C62.0712 62.1969 61.9714 62.2162 61.9714 62.2265H61.9688ZM57.1025 64.9407C56.8913 65.0498 56.6711 65.1397 56.4509 65.2193C56.7825 65.0703 57.1025 64.9214 57.4237 64.7519C57.3136 64.811 57.2126 64.8816 57.1025 64.9407ZM55.438 25.6629C50.5419 22.6495 44.182 22.6007 38.8856 24.569C37.3611 25.0966 35.8158 25.5833 34.391 26.3189C34.1203 26.4383 33.869 26.568 33.7395 26.6566C33.7187 26.6759 33.689 26.6861 33.6695 26.6964C33.6294 26.717 33.6488 26.7953 33.6993 26.7555C37.2406 25.632 40.7923 24.1799 44.524 23.8217C47.985 23.6432 51.6467 24.09 54.7969 25.582C54.8966 25.632 55.1777 25.7707 55.2684 25.8105C55.3487 25.8606 55.4886 25.7604 55.4393 25.6616L55.438 25.6629ZM88.0209 45.063H88.0105C88.0036 45.0561 87.9971 45.0527 87.9911 45.0527C86.3163 44.5853 84.2296 42.8251 82.8345 41.8313C80.3968 40.1507 78.0394 37.8434 75.9527 35.7352C73.6756 33.6668 71.348 31.6382 68.8196 29.878C51.1545 17.0618 34.8521 19.726 18.8722 33.2894C18.6119 33.4986 18.3606 33.7169 18.1002 33.9262C16.6962 35.0496 15.0304 36.7893 13.7261 37.9937C11.629 40.1314 8.91021 41.961 6.46342 43.711C5.68107 44.2772 4.82878 44.7253 3.87545 44.9243C3.75499 44.9744 3.74463 45.1028 3.78478 45.1824V45.2029C3.80421 45.2324 3.81457 45.253 3.8353 45.2722C3.85602 45.2915 3.86509 45.3018 3.89488 45.3223C4.85857 45.6998 6.47249 46.863 7.62659 47.6988C11.3687 50.155 14.4488 53.3764 17.9888 56.1008C20.3359 57.9304 22.8138 59.5906 25.2916 61.2224C27.4379 62.5256 30.6891 65.0408 32.7654 66.0654C32.7758 66.0757 32.7758 66.0949 32.7861 66.1052L34.562 66.8216C34.6617 66.8614 34.7822 66.9012 34.8936 66.9513C40.2405 68.9799 46.0187 69.6167 51.6066 68.5819C53.5029 68.2532 55.429 67.7165 57.1944 67.0604C60.1036 65.7881 62.632 63.8583 65.2705 62.1186C70.598 58.7278 75.6535 54.9196 80.288 50.6429C82.4343 48.9828 84.6117 47.2225 86.9691 45.8795C86.6181 46.0785 86.2567 46.2673 85.9057 46.4855C86.517 46.0773 87.1491 45.7101 87.802 45.4122C87.5507 45.5419 87.311 45.6908 87.0701 45.8205C87.4017 45.642 87.732 45.4623 88.0636 45.2941C88.1737 45.2645 88.1543 45.0655 88.0234 45.0655L88.0209 45.063ZM45.9773 21.9138C45.9967 21.9138 46.0071 21.9241 46.0278 21.9343H45.9371C45.9475 21.9241 45.9669 21.9138 45.9773 21.9138ZM16.384 37.7343C19.2634 35.5465 21.942 33.0801 24.9212 31.0322C25.2826 30.7742 25.7139 30.4159 26.1051 30.2067C26.1245 30.1771 26.1154 30.2272 26.1854 30.1168C26.2152 30.0577 26.166 29.9871 26.0947 29.9781L26.0844 29.9679L26.074 29.9781C26.0533 29.9781 26.0338 29.9781 26.0235 29.9884C22.9537 31.7384 20.3851 34.1547 17.6275 36.313C15.6716 37.9539 13.5551 39.3662 11.3881 40.7182C13.4346 39.0182 15.2804 37.0988 17.257 35.3488C19.8346 32.8926 22.7943 30.6753 25.7735 28.7558C44.0512 16.7332 60.443 22.073 75.6017 36.0639C76.7959 37.1874 77.9993 38.3211 79.2233 39.415C79.4837 39.6538 79.7349 39.8926 79.9953 40.1211C80.3269 40.41 80.6779 40.6784 81.0186 40.9467C81.5898 41.414 82.1817 41.8621 82.784 42.2987C80.8282 41.0956 78.871 39.8926 76.985 38.5997C73.243 35.915 69.9322 32.5139 65.9803 30.1476L65.8197 30.0577L65.7394 30.0179C65.6785 29.9383 65.4687 30.0475 65.619 30.1771C67.3741 31.271 69.0204 32.5344 70.5941 33.8864C72.2897 35.3385 74.8984 37.3966 76.6327 38.7781C78.7894 40.22 82.4809 42.5272 85.0391 44.0987C80.8256 42.6761 76.8335 40.618 73.3324 37.8743C69.611 35.0599 66.3003 31.5009 61.9261 29.6405C61.8665 29.6507 61.9261 29.5801 61.7059 29.6199C61.5854 29.679 61.5557 29.8587 61.7059 29.9576C63.803 31.0309 65.8391 32.225 67.615 33.776C72.1588 37.5648 76.875 41.3139 82.3514 43.6108C81.7193 43.372 81.0976 43.1037 80.4758 42.8148L77.9177 41.6811C75.3491 40.5076 73.1925 38.7371 70.8959 37.127C63.2421 32.085 55.3966 25.582 45.7066 25.7116C40.0592 25.7617 34.6617 28.3065 29.9262 31.2004C27.2579 33.0801 23.2749 35.6248 20.6468 37.475C16.9954 40.4087 12.8323 42.5657 8.418 44.1372C7.83642 44.3157 7.23412 44.4159 6.64217 44.5147C9.92312 43.4709 12.9528 41.9096 15.8011 40.0402C15.9216 39.9606 16.0524 39.9016 16.1729 39.8117C16.2933 39.7424 16.3931 39.6525 16.5135 39.5729C19.1624 37.7831 21.6493 35.7442 24.0676 33.6566C25.7826 32.2147 27.6996 30.9719 29.715 29.9768L29.9158 29.878C29.956 29.8484 29.9961 29.8574 30.0155 29.8086C30.0363 29.7688 29.9961 29.6892 29.9249 29.7393C29.785 29.7984 29.6438 29.869 29.5039 29.9383C29.1632 30.0873 28.8316 30.2465 28.5013 30.4159C28.3109 30.5148 28.1296 30.6252 27.9496 30.7241C27.719 30.8538 27.4884 30.9924 27.2579 31.1324C24.1078 33.0711 21.4097 35.7558 18.4202 37.9038C16.6042 39.415 14.5874 40.6681 12.4917 41.7517C10.5254 42.7557 8.46852 43.6108 6.36239 44.2669C9.44257 42.3179 13.6458 39.9208 16.384 37.7343ZM81.3592 43.6815C80.8877 43.4927 80.4357 43.304 79.9746 43.0947C80.2155 43.1936 80.4564 43.2937 80.6973 43.3926C80.9175 43.4914 81.139 43.5813 81.3592 43.6815ZM72.1407 38.5599C71.2884 37.9731 70.4348 37.3671 69.5721 36.7598C70.0242 37.0577 70.4853 37.3568 70.927 37.6753C71.3389 37.9641 71.7392 38.262 72.1407 38.5599ZM18.0795 38.2517C18.2103 38.1529 18.3308 38.0527 18.4603 37.9539C18.7712 37.7253 19.0821 37.4865 19.3929 37.2477C18.9616 37.5956 18.5199 37.9243 18.0782 38.2517H18.0795ZM4.32491 45.1824V45.1926L4.31455 45.1824L4.30419 45.1721H4.32491V45.1824ZM65.9013 59.4814C66.5839 59.0243 67.2562 58.557 67.9271 58.0794C67.9271 58.0691 67.9375 58.0691 67.9466 58.0588C70.6252 56.1599 73.1834 54.121 75.7416 52.0526C78.0485 49.9945 80.687 48.3639 83.556 47.1994C83.556 47.1994 84.8099 46.6422 85.622 46.284C84.5793 46.9606 83.5353 47.6359 82.5418 48.3819L80.696 49.7146L78.9604 51.1963C78.2285 51.8023 75.3388 54.279 74.6263 54.8657C71.607 57.0535 67.5243 60.0168 64.3638 62.0249L60.5712 64.5401C53.0275 69.2431 43.4865 69.5114 35.2614 66.4596C32.3924 65.5942 29.9948 63.5759 27.447 61.9748C24.3176 59.986 20.2841 57.0432 17.2946 54.885C15.7493 53.5625 12.8207 51.0961 11.2858 49.7839C9.73142 48.631 7.98538 47.3779 6.34037 46.284C8.88819 47.4767 11.5073 48.5706 13.7636 50.2616L16.121 52.1708C19.231 54.7258 22.4006 57.2525 25.732 59.5097L25.7722 59.5392L25.7929 59.5495H25.8033C25.8434 59.5995 25.9134 59.5597 25.9432 59.4994C25.9432 59.4891 25.9535 59.4789 25.9535 59.4699C25.9535 59.4493 25.9432 59.4198 25.9134 59.4095V59.3992C22.5832 56.8738 19.2621 54.338 16.0718 51.6431C14.4864 50.2705 12.8116 48.9879 10.936 48.034C9.50086 47.2983 8.03719 46.6319 6.57223 45.9553C6.95304 46.0644 7.32479 46.1735 7.7056 46.284C10.1239 47.1095 12.7209 48.1238 14.8879 49.4963C17.4358 51.1077 20.9369 53.8809 23.4355 55.6412C24.5689 56.4565 29.0233 59.6483 30.4676 60.6832C38.0009 65.4658 46.6793 67.7229 55.1764 63.9649C57.8045 62.8016 60.443 61.528 62.7305 59.7883L65.0374 58.1282C65.0568 58.1179 65.0775 58.1076 65.0879 58.0986C68.067 55.9314 72.4218 52.8487 75.2701 50.6313C78.4306 48.3537 82.0613 46.8232 85.8137 45.7986C84.2192 46.4945 82.3423 47.2803 80.9383 48.0263C79.0329 48.9712 77.3775 50.2834 75.7714 51.6559C72.9528 54.053 70.0035 56.2896 67.0736 58.557C67.0438 58.5865 67.014 58.6071 66.9932 58.6263C66.6215 58.9049 66.2614 59.1925 65.8897 59.4711V59.4814H65.9H65.9013ZM27.0273 57.5928C23.4757 45.4314 33.2265 32.763 45.9773 32.9016C58.8381 32.7925 68.3287 45.6099 64.5465 57.7507C63.4532 58.3875 61.7577 59.8589 60.3731 60.6344C48.1041 68.1723 38.1123 65.8548 27.0273 57.5915V57.5928ZM86.7372 45.1824C84.3902 45.6702 82.1131 46.4252 79.9357 47.4292C79.9357 47.3201 79.915 47.211 79.9059 47.1108L79.8761 46.9221C79.8761 46.9028 79.8658 46.8425 79.8165 46.8232C79.7764 46.7937 79.7064 46.863 79.7168 46.9028C79.7168 47.1121 79.7064 47.3201 79.7168 47.5396L79.1145 47.8285C79.1145 47.3907 79.064 46.9439 78.8541 46.5562C78.8438 46.5164 78.7544 46.4868 78.7233 46.5266C78.713 46.8245 78.8036 47.0132 78.8438 47.252C78.8736 47.4806 78.8736 47.7194 78.8541 47.9479L76.5965 49.2203V49.0714C76.6263 49.0123 76.5162 48.8326 76.4061 48.9224C76.3154 49.0213 76.3763 49.0919 76.3555 49.1612V49.3602L75.5227 49.8969V49.0714C75.5227 49.0213 75.533 48.9815 75.5123 48.9122C75.4825 48.8326 75.3815 48.803 75.3219 48.8531C75.2312 49.1214 75.2921 49.2704 75.2714 49.4899V50.0664C75.2416 50.0869 74.5888 50.553 74.4592 50.6429C74.4489 50.3347 74.4295 49.7673 74.4087 49.5297L74.3984 49.3307C74.4191 49.2511 74.2779 49.1214 74.1782 49.201C74.0875 49.7274 74.2183 50.2949 74.2183 50.8124C74.1782 50.8419 73.4956 51.3388 73.3557 51.4389C73.3453 51.2605 73.3052 50.3848 73.3052 50.3848C73.2844 50.1858 73.2754 49.7185 73.2546 49.5195C73.2443 49.4604 73.265 49.4399 73.2339 49.35C73.1834 49.2806 73.094 49.2511 73.0137 49.3102C72.9334 49.4 72.9839 49.4591 72.9736 49.4989L72.9839 49.6376C72.9943 49.8263 73.0241 50.3142 73.0241 50.5029C73.0241 50.5029 73.0837 51.5673 73.0837 51.6264L72.3816 52.1438C72.3117 51.4672 72.221 50.3835 72.1511 49.757L72.1407 49.5785C72.1511 49.3795 71.7897 49.409 71.8402 49.6183C71.87 49.9958 71.9399 50.5736 71.971 50.951L72.0915 52.3338L70.9983 53.1388C71.0281 52.0745 70.9685 50.951 70.8584 49.8969C70.848 49.8764 70.8584 49.7981 70.7884 49.7377C70.7288 49.6979 70.6485 49.6787 70.5682 49.7377C70.4776 49.8571 70.5475 49.9265 70.5384 50.0356L70.5682 50.2539L70.6084 50.7019C70.6589 51.557 70.7185 52.502 70.668 53.3571C70.6084 53.3969 69.9556 53.8835 69.725 54.053C69.8247 52.5611 69.7949 51.0602 69.6253 49.5785C69.6356 49.1612 69.1538 49.201 69.2535 49.5682L69.2729 49.7275C69.2937 49.9265 69.3429 50.4336 69.3532 50.6519C69.5035 51.7561 69.3325 53.5163 69.383 54.2713L68.4401 54.9671C68.6305 53.4752 68.6512 51.9538 68.5204 50.4529L68.4802 50.1152V50.0253C68.4802 49.7968 68.1396 49.7762 68.0891 49.965C68.0683 49.9945 68.0593 50.015 68.0593 50.0446C68.26 51.7753 68.2393 53.5343 67.9997 55.265L67.137 55.8813C67.308 54.1814 67.3171 52.4507 67.1668 50.7507L67.1461 50.5723C67.1357 50.4131 66.9453 50.3232 66.8054 50.4336C66.6953 50.6429 66.7847 50.6429 66.7653 50.7122C66.7653 50.8316 66.8158 51.1205 66.8054 51.2489C66.9764 52.7896 66.7847 54.9684 66.7549 56.1715C66.7549 56.1715 65.6915 56.9277 65.3301 57.1858C66.865 51.3888 65.5309 44.9551 61.829 40.2418C57.2346 34.2562 50.4434 31.8989 43.9929 32.555C43.7922 32.5742 43.6017 32.605 43.4113 32.6243C43.0901 32.6641 42.7598 32.7142 42.4386 32.7732C42.1174 32.8233 41.7961 32.8824 41.4762 32.962C41.4464 32.962 41.4062 32.9722 41.3765 32.9825C40.6135 33.161 39.8713 33.3805 39.1499 33.6386C38.9789 33.6977 38.7988 33.7683 38.6279 33.8273C38.3364 33.9365 38.0566 34.0559 37.7756 34.1753C32.2279 36.5916 27.7035 41.4538 26.2489 48.2753C25.6673 51.1783 25.6971 54.2122 26.4393 57.0856C26.0274 56.7967 24.9743 56.0418 24.9743 56.0418C24.894 54.5794 24.7541 52.4019 24.9639 50.7019C25.0442 50.4131 24.7334 50.2937 24.6427 50.5633L24.6323 50.7418C24.4717 52.4224 24.4925 54.1223 24.6531 55.7927C24.3318 55.5642 23.6803 55.0968 23.6803 55.0968C23.6104 53.9233 23.429 51.9242 23.6298 50.4734L23.6699 50.1357C23.6596 50.0561 23.7205 49.9663 23.6104 49.8867C23.4899 49.8071 23.3397 49.8764 23.3189 50.0061C23.3189 50.0163 23.3086 50.0163 23.3086 50.0163C23.1285 51.6071 23.1376 53.2184 23.3189 54.8195C23.0586 54.6205 22.4861 54.2032 22.4161 54.1531C22.3565 53.3674 22.3358 52.5919 22.3565 51.8061C22.3669 51.1295 22.4368 50.3938 22.5068 49.7185C22.5171 49.5695 22.5871 49.4604 22.4861 49.3204C22.2451 49.151 22.1247 49.4103 22.1247 49.5695C22.1052 49.7685 22.0547 50.2654 22.034 50.4747C21.9433 51.5879 21.9343 52.7126 22.0042 53.836C21.7439 53.637 21.2011 53.2493 21.1208 53.1902C21.1105 52.6432 21.1208 52.086 21.1506 51.5301C21.1804 51.2412 21.1908 50.5261 21.2413 50.2474L21.2711 50.0292L21.2814 49.9303V49.861C21.3009 49.6915 21.0807 49.6029 20.9499 49.7018C20.7996 49.8212 20.8799 49.9598 20.8501 50.1101C20.8203 50.8265 20.7504 52.0591 20.7193 52.8846L19.7258 52.1592C19.7763 51.6521 19.8657 50.5389 19.9162 50.0908C19.9369 49.9123 19.9564 49.6337 19.9758 49.4642C20.016 49.1561 19.5743 49.1163 19.5548 49.4052C19.5341 49.7339 19.4551 50.3296 19.4344 50.6686C19.4344 50.6686 19.3541 51.5237 19.3139 51.8613L18.7518 51.4441C18.7816 50.9472 18.8217 50.1113 18.8515 49.6337L18.8619 49.504V49.4347C18.902 49.2254 18.5911 49.1163 18.4707 49.305C18.4007 49.4437 18.4409 49.4347 18.4305 49.4938L18.4098 49.7621C18.3994 50.06 18.3502 50.7071 18.3295 51.1346C18.0886 50.9652 17.7181 50.6865 17.6378 50.6275C17.6572 50.2295 17.678 49.6427 17.7078 49.2652C17.7078 49.2652 17.7272 49.1266 17.6275 49.0662C17.5472 49.0072 17.4565 49.0072 17.3865 49.0457C17.2259 49.1445 17.2868 49.3038 17.2661 49.4334C17.2557 49.6222 17.2259 50.0305 17.2156 50.3283L16.5731 49.8802C16.5731 49.662 16.5627 49.2537 16.5731 49.0842C16.5524 48.9455 16.6236 48.7953 16.4928 48.6862C16.3827 48.5963 16.2221 48.6271 16.1521 48.7658C16.1223 48.9147 16.1418 48.8955 16.1418 48.9648L16.1314 49.2537V49.5824C15.9008 49.4437 15.5796 49.2344 15.4993 49.1843V48.916C15.5395 48.6181 15.0576 48.5385 15.068 48.9263C14.7273 48.7375 13.1212 47.8529 12.9916 47.7823C12.9709 47.5037 13.0512 47.1956 13.0914 46.9169C13.1212 46.7282 13.2714 46.3995 12.9515 46.3995C12.8919 46.3995 12.8116 46.4894 12.8116 46.5087C12.6316 46.8271 12.5603 47.1943 12.5409 47.5628L12.1497 47.374C12.1497 47.2649 12.1601 47.1455 12.1497 47.0453C12.1393 46.9067 12.2002 46.7166 12.059 46.6178C11.9282 46.5382 11.778 46.6383 11.7676 46.7564V46.7667C11.7482 46.8964 11.7274 47.0351 11.7171 47.175C9.78064 46.3199 7.76518 45.624 5.68755 45.1759C7.3222 44.9577 8.99829 44.5995 10.4723 43.883C14.0939 42.5503 17.4345 40.6219 20.4641 38.2646C28.2889 33.1533 36.1344 26.4011 45.9851 26.3125C53.0677 26.4422 59.0765 29.7329 64.8249 33.5911C65.4169 34.0084 66.0192 34.4167 66.6202 34.8237C69.8701 37.0808 73.05 39.4278 76.3115 41.3871C78.3878 42.5709 80.6649 43.4054 82.8721 44.3208C84.0858 44.7291 85.4601 44.9872 86.7139 45.0861C86.824 45.1066 86.9341 45.1156 87.0455 45.1361C86.9652 45.1464 86.7346 45.1862 86.7346 45.1862L86.7372 45.1824ZM88.0714 45.1233C88.0714 45.1233 88.0714 45.113 88.061 45.113H88.0714V45.1233ZM77.4177 46.3751C77.3982 46.872 77.3477 47.0415 77.5679 47.5384C77.5977 47.618 77.5977 47.8568 77.7881 47.7964C77.8581 47.7772 77.8879 47.6668 77.8788 47.6475C77.8788 47.1699 77.8684 46.6537 77.5874 46.2557C77.4876 46.1967 77.3672 46.2763 77.4164 46.3751H77.4177ZM76.3037 46.1171L76.204 45.8782C76.1638 45.7293 75.9527 45.8089 75.9929 45.9283C76.0032 46.5048 75.9825 46.8335 76.204 47.3907C76.2545 47.5204 76.204 47.7592 76.4048 47.7592C76.4954 47.7797 76.555 47.6205 76.5356 47.5897C76.5162 47.0928 76.4954 46.5857 76.305 46.1183L76.3037 46.1171ZM74.6289 45.1323C74.91 45.5406 74.8802 46.067 75.0007 46.5241C75.1004 46.9118 75.1717 47.3098 75.1807 47.7078C75.1911 47.8272 75.3413 47.8966 75.432 47.7977C75.5421 46.8733 75.4916 45.66 74.7403 44.9936C74.66 44.9641 74.5603 45.063 74.6302 45.1323H74.6289ZM73.8155 46.5844C73.8051 46.9619 73.7559 47.3894 73.9554 47.7579C73.9852 47.8375 73.9658 47.867 74.0357 47.9762C74.1056 48.0661 74.296 47.9762 74.2766 47.8568C74.2766 47.3792 74.2572 46.8925 73.9761 46.4843C73.8854 46.4149 73.765 46.5343 73.8155 46.5831V46.5844ZM73.8557 45.8384C73.8259 45.3518 73.6652 45.0334 73.3544 44.6752C73.344 44.6251 73.2546 44.5455 73.1938 44.6059C73.1432 44.6161 73.1135 44.6958 73.1432 44.7356H73.1329C73.1122 45.1336 73.3531 45.3814 73.5137 45.6998L73.5733 45.8782C73.6238 45.9874 73.8246 45.9681 73.8544 45.8384H73.8557ZM71.8389 44.2477C71.7987 44.1578 71.7184 44.0589 71.6187 44.0885C71.5086 44.0987 71.4387 44.2271 71.4788 44.3273C72.1407 45.5508 72.2715 46.8733 72.7028 48.1457C72.8531 48.2946 73.094 48.1855 73.1044 47.9864C72.9736 47.4292 72.6627 46.863 72.5228 46.2955C72.3117 45.6099 72.1821 44.8832 71.8402 44.2477H71.8389ZM70.3843 43.7906C70.3441 43.6121 70.1537 43.6814 70.1939 43.8009V43.8201C70.1939 43.827 70.1973 43.8304 70.2043 43.8304C70.6252 45.2825 71.2677 46.7244 71.5785 48.206C71.5682 48.2355 71.6187 48.3947 71.7392 48.3755C71.8389 48.3857 71.9101 48.2265 71.8791 48.1662C71.6485 46.6345 71.1472 45.1438 70.3843 43.7906ZM69.0903 43.3926C69.0307 43.1435 68.7989 43.2231 68.8701 43.363C69.361 44.9936 70.0035 46.6447 70.3053 48.3344C70.3351 48.3935 70.2755 48.4538 70.396 48.5527C70.5164 48.6027 70.6369 48.5026 70.6162 48.3742C70.4361 47.0017 70.1252 45.6202 69.5424 44.3465C69.4426 44.1372 69.181 43.5903 69.0903 43.3913V43.3926ZM68.5787 45.2324C68.5087 45.1528 68.3779 45.2324 68.4077 45.3223C68.488 46.5061 68.7691 47.252 69.0191 48.3652C69.1292 48.4949 69.3105 48.3857 69.2898 48.2458C69.19 47.4305 69.0696 46.6049 68.7989 45.8192C68.7393 45.6805 68.6383 45.3711 68.5787 45.2324ZM67.7963 42.9946L67.6357 42.7763C67.5852 42.6376 67.3754 42.6967 67.4349 42.8456C67.5748 43.1743 67.5554 43.571 67.7458 43.8792C67.8766 44.118 68.0372 44.3465 68.1176 44.6046C68.1279 44.6637 68.2173 44.7343 68.2885 44.7035C68.3792 44.7137 68.4284 44.5545 68.3883 44.5147C68.2484 43.9883 68.0968 43.4503 67.7963 42.9933V42.9946ZM67.4557 45.8782C67.3961 45.7884 67.2251 45.8487 67.2847 45.9578C67.4751 46.9516 67.8067 47.9364 67.9764 48.9404C67.9867 49.0393 67.9867 49.2986 68.1875 49.2485C68.2782 49.2485 68.308 49.0996 68.2872 49.0791C68.2471 48.0455 68.0359 47.0004 67.545 46.0862C67.5049 46.0169 67.4945 45.9566 67.4544 45.877L67.4557 45.8782ZM65.3094 41.7119C65.6604 42.965 66.242 43.4722 66.6539 44.5558C66.7342 44.7343 66.9855 44.6354 66.9751 44.4762C66.6435 43.4516 66.0516 42.5567 65.4907 41.6516C65.4506 41.5617 65.3003 41.6118 65.3107 41.7106L65.3094 41.7119ZM65.8301 45.7588C66.0503 47.0222 66.4117 47.9569 66.6021 49.0701C66.6617 49.2485 66.9233 49.16 66.8935 48.9905C66.7329 47.8568 66.4415 46.7526 66.0101 45.6895C65.9596 45.5804 65.7899 45.6497 65.8301 45.7588ZM63.0012 40.0813C62.8911 39.8926 62.7201 40.0608 62.8108 40.1404C63.6734 41.4628 64.5866 42.7057 65.1889 44.1578C65.2394 44.3863 65.5905 44.2875 65.47 44.0589C64.9584 42.567 64.1359 41.1855 63.0025 40.0813H63.0012ZM61.9688 62.2265C61.136 62.6835 60.3342 63.1111 59.5013 63.5887C57.0338 64.9907 54.4251 66.1643 51.6467 66.7805C44.6548 68.0234 37.2316 66.2041 31.2525 62.5141L30.3096 62.0172C30.2798 61.9966 30.1593 61.9376 30.1295 61.9273C30.0686 61.8875 29.9689 61.9478 29.9896 62.0262C30.4015 62.3548 32.0763 63.269 32.5374 63.5771C37.453 66.421 43.2922 67.8732 48.9901 67.5945C53.7257 67.3365 57.8887 64.9291 61.8005 62.4935L62.031 62.3548C62.031 62.3548 62.101 62.315 62.0815 62.256C62.0712 62.1969 61.9714 62.2162 61.9714 62.2265H61.9688ZM57.1025 64.9407C56.8913 65.0498 56.6711 65.1397 56.4509 65.2193C56.7825 65.0703 57.1025 64.9214 57.4237 64.7519C57.3136 64.811 57.2126 64.8816 57.1025 64.9407ZM44.5227 23.823C47.9837 23.6445 51.6454 24.0913 54.7956 25.5833C54.8953 25.6333 55.1764 25.772 55.2671 25.8118C55.3474 25.8619 55.4873 25.7617 55.438 25.6629C50.5419 22.6495 44.182 22.6007 38.8856 24.569C37.3611 25.0966 35.8158 25.5833 34.391 26.3189C34.1203 26.4383 33.869 26.568 33.7395 26.6566C33.7187 26.6759 33.689 26.6861 33.6695 26.6964C33.6294 26.717 33.6488 26.7953 33.6993 26.7555C37.2406 25.632 40.7923 24.1799 44.524 23.8217L44.5227 23.823ZM28.8135 40.0313C27.9211 40.9364 27.1879 41.9507 26.7372 43.1538C26.6465 43.3322 26.4159 43.8201 26.3253 43.9986C26.3149 44.0589 26.2748 44.0487 26.2657 44.1873C26.3162 44.3067 26.4367 44.326 26.526 44.2669C26.947 43.4619 27.3084 42.7853 27.7397 42.0599C28.0506 41.563 28.5428 40.6771 28.9029 40.22C29.0337 40.1109 28.9327 39.9311 28.8122 40.0313H28.8135ZM26.4859 41.7222C26.5157 41.5732 26.2955 41.4731 26.2048 41.6233C25.6427 42.5182 25.1621 43.4735 24.85 44.4775C24.8396 44.5763 25.0002 44.6367 25.03 44.5276C25.6012 43.702 25.973 42.8366 26.3745 41.9225C26.4043 41.8531 26.4341 41.8326 26.4846 41.7235L26.4859 41.7222ZM25.7437 45.71C25.2619 46.8938 25.1725 47.8183 24.8707 49.011C24.8409 49.1702 25.122 49.2498 25.1712 49.0611C25.3914 48.1765 25.653 47.3111 25.8033 46.4162C25.8331 46.257 25.8836 45.8885 25.9341 45.7396C25.9445 45.6202 25.7631 45.6009 25.7437 45.71ZM24.3189 45.8988H24.2982C24.2982 45.9283 24.2878 45.9489 24.2878 45.9784V45.9887C24.0572 46.4766 23.7762 47.0132 23.6855 47.5692C23.635 47.9864 23.565 48.7029 23.4744 49.1009C23.4446 49.2794 23.7153 49.3192 23.7658 49.16C23.9458 48.3447 24.2969 46.9619 24.4277 46.1569C24.4381 46.0773 24.4678 46.0182 24.4873 45.9386C24.4873 45.8295 24.337 45.8089 24.3163 45.8988H24.3189ZM23.6868 44.6251C24.0378 44.0782 24.1583 43.4619 24.3085 42.8456C24.3681 42.6967 24.1583 42.6363 24.1181 42.7763C23.6764 43.2732 23.7062 43.969 23.3552 44.516C23.3047 44.5455 23.3448 44.7343 23.4459 44.7445C23.5365 44.7946 23.6764 44.7047 23.6868 44.6251ZM23.1648 45.5804L23.1544 45.5906C23.1337 45.6009 23.1143 45.6009 23.1039 45.6202C22.7529 46.5651 22.6324 47.4498 22.4718 48.4345C22.442 48.5244 22.3721 48.7427 22.5521 48.7722C22.6117 48.7915 22.7127 48.7221 22.7231 48.6528C22.9537 47.867 23.1842 47.0813 23.2451 46.2557C23.2555 46.1068 23.2853 45.7781 23.2956 45.6292C23.2853 45.5598 23.2153 45.5496 23.1648 45.5791V45.5804ZM22.8539 43.4516C22.8643 43.4016 22.9239 43.3528 22.8837 43.2732C22.8436 43.2334 22.784 43.2334 22.7438 43.2834C22.7438 43.2903 22.7404 43.2937 22.7335 43.2937V43.304H22.7231V43.3142C22.7231 43.3142 22.7127 43.3142 22.7127 43.3245C21.9407 44.7266 21.5288 46.3469 21.2478 47.9389C21.227 48.0686 21.0975 48.4166 21.1675 48.5052C21.2076 48.595 21.4187 48.595 21.4382 48.4551C21.7594 47.0928 22.17 45.7897 22.5418 44.448C22.6117 44.2297 22.762 43.6725 22.8526 43.4542L22.8539 43.4516ZM21.5599 43.7213C21.5301 43.6712 21.4291 43.6622 21.3993 43.7315C21.0677 44.4775 20.617 45.1926 20.4162 45.9989C20.2854 46.5651 20.0652 47.5602 19.9046 48.1071C19.8048 48.2766 19.9849 48.5052 20.1649 48.2959C20.5056 47.1827 21.1182 45.2735 21.4395 44.1796C21.4602 44.0204 21.6195 43.8817 21.5599 43.7225V43.7213ZM20.196 44.3375C20.2763 44.2387 20.0963 44.0885 20.0354 44.2284C19.2932 45.4314 19.1028 46.5857 18.7518 47.9171C18.731 47.9377 18.7116 48.0558 18.7919 48.1059C18.8424 48.1559 18.972 48.1559 19.0225 48.0661C19.3839 46.863 19.775 45.7691 20.1053 44.5853C20.1351 44.4955 20.1649 44.4159 20.196 44.3363V44.3375ZM18.4305 44.6559C18.2103 45.0039 17.9785 45.4122 17.9785 45.859C17.9591 45.9283 17.9487 45.9977 17.9189 46.0683C17.8684 46.2069 18.0795 46.2968 18.1598 46.1774C18.4202 45.6805 18.6119 45.253 18.6715 44.7163C18.652 44.5571 18.4513 44.5378 18.4305 44.6572V44.6559ZM17.6974 46.9721C17.6573 47.1314 17.4668 47.3201 17.4863 47.5088C17.5264 47.668 17.4759 47.9364 17.5562 47.9954C17.8878 48.2137 18.0976 46.9709 17.8373 46.8913C17.7764 46.8617 17.687 46.881 17.6974 46.9709V46.9721ZM16.9656 45.0527C16.6845 45.4109 16.384 45.8975 16.3633 46.4047C16.3425 46.8527 16.384 47.2803 16.2933 47.7168C16.3037 47.8658 16.4941 47.8863 16.564 47.7862C16.7544 47.0004 16.7842 46.334 16.9656 45.5983C16.9954 45.3993 17.0964 45.2607 17.1456 45.0617C17.1249 44.9821 17.0057 44.9525 16.9656 45.0514V45.0527ZM15.5706 45.8782C15.3996 46.4149 15.2597 46.7333 15.2895 47.3406C15.2895 47.4202 15.2688 47.4998 15.2493 47.5897C15.1794 47.7284 15.4397 47.8478 15.52 47.6693C15.7208 47.0723 15.8413 46.5459 15.7804 45.9386C15.8102 45.7999 15.59 45.7499 15.5693 45.8795L15.5706 45.8782ZM14.1768 46.3058H14.1872C14.1872 46.3058 14.1768 46.3058 14.1768 46.3161V46.3263C14.1768 46.3263 14.1768 46.3366 14.1665 46.3469C13.9761 46.7346 13.8854 47.0325 13.9255 47.4909C13.9255 47.5602 13.9048 47.6103 13.8958 47.7001C13.9255 47.8298 14.1159 47.8593 14.1768 47.7207C14.3569 47.2135 14.4683 46.8258 14.3672 46.3084C14.3271 46.2288 14.1963 46.2185 14.1768 46.3084V46.3058ZM55.438 25.6629C50.5419 22.6495 44.182 22.6007 38.8856 24.569C37.3611 25.0966 35.8158 25.5833 34.391 26.3189C34.1203 26.4383 33.869 26.568 33.7395 26.6566C33.7187 26.6759 33.689 26.6861 33.6695 26.6964C33.6294 26.717 33.6488 26.7953 33.6993 26.7555C37.2406 25.632 40.7923 24.1799 44.524 23.8217C47.985 23.6432 51.6467 24.09 54.7969 25.582C54.8966 25.632 55.1777 25.7707 55.2684 25.8105C55.3487 25.8606 55.4886 25.7604 55.4393 25.6616L55.438 25.6629ZM61.9688 62.2265C61.136 62.6835 60.3342 63.1111 59.5013 63.5887C57.0338 64.9907 54.4251 66.1643 51.6467 66.7805C44.6548 68.0234 37.2316 66.2041 31.2525 62.5141L30.3096 62.0172C30.2798 61.9966 30.1593 61.9376 30.1295 61.9273C30.0686 61.8875 29.9689 61.9478 29.9896 62.0262C30.4015 62.3548 32.0763 63.269 32.5374 63.5771C37.453 66.421 43.2922 67.8732 48.9901 67.5945C53.7257 67.3365 57.8887 64.9291 61.8005 62.4935L62.031 62.3548C62.031 62.3548 62.101 62.315 62.0815 62.256C62.0712 62.1969 61.9714 62.2162 61.9714 62.2265H61.9688ZM57.1025 64.9407C56.8913 65.0498 56.6711 65.1397 56.4509 65.2193C56.7825 65.0703 57.1025 64.9214 57.4237 64.7519C57.3136 64.811 57.2126 64.8816 57.1025 64.9407ZM14.3672 46.3058C14.3271 46.2262 14.1963 46.2159 14.1768 46.3058H14.1872C14.1872 46.3058 14.1768 46.3058 14.1768 46.3161V46.3263C14.1768 46.3263 14.1768 46.3366 14.1665 46.3469C13.9761 46.7346 13.8854 47.0325 13.9255 47.4909C13.9255 47.5602 13.9048 47.6103 13.8958 47.7001C13.9255 47.8298 14.1159 47.8593 14.1768 47.7207C14.3569 47.2135 14.4683 46.8258 14.3672 46.3084V46.3058ZM15.7817 45.9386C15.8115 45.7999 15.5913 45.7499 15.5706 45.8795C15.3996 46.4162 15.2597 46.7346 15.2895 47.3419C15.2895 47.4215 15.2688 47.5011 15.2493 47.591C15.1794 47.7297 15.4397 47.8491 15.52 47.6706C15.7208 47.0736 15.8413 46.5472 15.7804 45.9399L15.7817 45.9386ZM16.9656 45.0527C16.6845 45.4109 16.384 45.8975 16.3633 46.4047C16.3425 46.8527 16.384 47.2803 16.2933 47.7168C16.3037 47.8658 16.4941 47.8863 16.564 47.7862C16.7544 47.0004 16.7842 46.334 16.9656 45.5983C16.9954 45.3993 17.0964 45.2607 17.1456 45.0617C17.1249 44.9821 17.0057 44.9525 16.9656 45.0514V45.0527ZM17.8386 46.8925C17.7777 46.863 17.6883 46.8823 17.6987 46.9721C17.6585 47.1314 17.4681 47.3201 17.4876 47.5088C17.5277 47.668 17.4772 47.9364 17.5575 47.9954C17.8891 48.2137 18.0989 46.9709 17.8386 46.8913V46.8925ZM18.4305 44.6559C18.2103 45.0039 17.9785 45.4122 17.9785 45.859C17.9591 45.9283 17.9487 45.9977 17.9189 46.0683C17.8684 46.2069 18.0795 46.2968 18.1598 46.1774C18.4202 45.6805 18.6119 45.253 18.6715 44.7163C18.652 44.5571 18.4513 44.5378 18.4305 44.6572V44.6559ZM20.0354 44.2284C19.2932 45.4314 19.1028 46.5857 18.7518 47.9171C18.731 47.9377 18.7116 48.0558 18.7919 48.1059C18.8424 48.1559 18.972 48.1559 19.0225 48.0661C19.3839 46.863 19.775 45.7691 20.1053 44.5853C20.1351 44.4955 20.1649 44.4159 20.196 44.3363C20.2763 44.2374 20.0963 44.0872 20.0354 44.2271V44.2284ZM21.5599 43.7213C21.5301 43.6712 21.4291 43.6622 21.3993 43.7315C21.0677 44.4775 20.617 45.1926 20.4162 45.9989C20.2854 46.5651 20.0652 47.5602 19.9046 48.1071C19.8048 48.2766 19.9849 48.5052 20.1649 48.2959C20.5056 47.1827 21.1182 45.2735 21.4395 44.1796C21.4602 44.0204 21.6195 43.8817 21.5599 43.7225V43.7213ZM22.8837 43.2732C22.8436 43.2334 22.784 43.2334 22.7438 43.2834C22.7438 43.2903 22.7404 43.2937 22.7335 43.2937V43.304H22.7231V43.3142C22.7231 43.3142 22.7127 43.3142 22.7127 43.3245C21.9407 44.7266 21.5288 46.3469 21.2478 47.9389C21.227 48.0686 21.0975 48.4166 21.1675 48.5052C21.2076 48.595 21.4187 48.595 21.4382 48.4551C21.7594 47.0928 22.17 45.7897 22.5418 44.448C22.6117 44.2297 22.762 43.6725 22.8526 43.4542C22.863 43.4041 22.9226 43.3553 22.8824 43.2757L22.8837 43.2732ZM23.1648 45.5804L23.1544 45.5906C23.1337 45.6009 23.1143 45.6009 23.1039 45.6202C22.7529 46.5651 22.6324 47.4498 22.4718 48.4345C22.442 48.5244 22.3721 48.7427 22.5521 48.7722C22.6117 48.7915 22.7127 48.7221 22.7231 48.6528C22.9537 47.867 23.1842 47.0813 23.2451 46.2557C23.2555 46.1068 23.2853 45.7781 23.2956 45.6292C23.2853 45.5598 23.2153 45.5496 23.1648 45.5791V45.5804ZM24.1181 42.7763C23.6764 43.2732 23.7062 43.969 23.3552 44.516C23.3047 44.5455 23.3448 44.7343 23.4459 44.7445C23.5365 44.7946 23.6764 44.7047 23.6868 44.6251C24.0378 44.0782 24.1583 43.4619 24.3085 42.8456C24.3681 42.6967 24.1583 42.6363 24.1181 42.7763ZM24.3189 45.8988H24.2982C24.2982 45.9283 24.2878 45.9489 24.2878 45.9784V45.9887C24.0572 46.4766 23.7762 47.0132 23.6855 47.5692C23.635 47.9864 23.565 48.7029 23.4744 49.1009C23.4446 49.2794 23.7153 49.3192 23.7658 49.16C23.9458 48.3447 24.2969 46.9619 24.4277 46.1569C24.4381 46.0773 24.4678 46.0182 24.4873 45.9386C24.4873 45.8295 24.337 45.8089 24.3163 45.8988H24.3189ZM25.7437 45.71C25.2619 46.8938 25.1725 47.8183 24.8707 49.011C24.8409 49.1702 25.122 49.2498 25.1712 49.0611C25.3914 48.1765 25.653 47.3111 25.8033 46.4162C25.8331 46.257 25.8836 45.8885 25.9341 45.7396C25.9445 45.6202 25.7631 45.6009 25.7437 45.71ZM26.2048 41.622C25.6427 42.5169 25.1621 43.4722 24.85 44.4762C24.8396 44.5751 25.0002 44.6354 25.03 44.5263C25.6012 43.7007 25.973 42.8353 26.3745 41.9212C26.4043 41.8519 26.4341 41.8313 26.4846 41.7222C26.5144 41.5732 26.2942 41.4731 26.2035 41.6233L26.2048 41.622ZM28.8135 40.0313C27.9211 40.9364 27.1879 41.9507 26.7372 43.1538C26.6465 43.3322 26.4159 43.8201 26.3253 43.9986C26.3149 44.0589 26.2748 44.0487 26.2657 44.1873C26.3162 44.3067 26.4367 44.326 26.526 44.2669C26.947 43.4619 27.3084 42.7853 27.7397 42.0599C28.0506 41.563 28.5428 40.6771 28.9029 40.22C29.0337 40.1109 28.9327 39.9311 28.8122 40.0313H28.8135ZM65.47 44.0589C64.9584 42.567 64.1359 41.1855 63.0025 40.0813C62.8924 39.8926 62.7214 40.0608 62.8121 40.1404C63.6747 41.4628 64.5879 42.7057 65.1902 44.1578C65.2407 44.3863 65.5917 44.2875 65.4713 44.0589H65.47ZM66.0114 45.6895C65.9609 45.5804 65.7912 45.6497 65.8314 45.7588C66.0516 47.0222 66.413 47.9569 66.6034 49.0701C66.6629 49.2485 66.9246 49.16 66.8948 48.9905C66.7342 47.8568 66.4427 46.7526 66.0114 45.6895ZM65.4894 41.6528C65.4493 41.563 65.299 41.613 65.3094 41.7119C65.6604 42.965 66.242 43.4722 66.6539 44.5558C66.7342 44.7343 66.9855 44.6354 66.9751 44.4762C66.6435 43.4516 66.0516 42.5567 65.4907 41.6516L65.4894 41.6528ZM67.5463 46.0875C67.5062 46.0182 67.4958 45.9578 67.4557 45.8782C67.3961 45.7884 67.2251 45.8487 67.2847 45.9578C67.4751 46.9516 67.8067 47.9364 67.9764 48.9404C67.9867 49.0393 67.9867 49.2986 68.1875 49.2485C68.2782 49.2485 68.308 49.0996 68.2872 49.0791C68.2471 48.0455 68.0359 47.0004 67.545 46.0862L67.5463 46.0875ZM68.3883 44.516C68.2484 43.9896 68.0968 43.4516 67.7963 42.9946L67.6357 42.7763C67.5852 42.6376 67.3754 42.6967 67.4349 42.8456C67.5748 43.1743 67.5554 43.571 67.7458 43.8792C67.8766 44.118 68.0372 44.3465 68.1176 44.6046C68.1279 44.6637 68.2173 44.7343 68.2885 44.7035C68.3792 44.7137 68.4284 44.5545 68.3883 44.5147V44.516ZM68.8002 45.8192C68.7406 45.6805 68.6396 45.3711 68.58 45.2324C68.51 45.1528 68.3792 45.2324 68.409 45.3223C68.4893 46.5061 68.7704 47.252 69.0204 48.3652C69.1305 48.4949 69.3118 48.3857 69.2911 48.2458C69.1913 47.4305 69.0709 46.6049 68.8002 45.8192ZM69.5424 44.3478C69.4426 44.1385 69.181 43.5916 69.0903 43.3926C69.0307 43.1435 68.7989 43.2231 68.8701 43.363C69.361 44.9936 70.0035 46.6447 70.3053 48.3344C70.3351 48.3935 70.2755 48.4538 70.396 48.5527C70.5164 48.6027 70.6369 48.5026 70.6162 48.3742C70.4361 47.0017 70.1252 45.6202 69.5424 44.3465V44.3478ZM71.8803 48.1662C71.6498 46.6345 71.1485 45.1438 70.3856 43.7906C70.3454 43.6121 70.155 43.6814 70.1952 43.8009V43.8201C70.1952 43.827 70.1986 43.8304 70.2055 43.8304C70.6265 45.2825 71.269 46.7244 71.5798 48.206C71.5695 48.2355 71.62 48.3947 71.7405 48.3755C71.8402 48.3857 71.9114 48.2265 71.8803 48.1662ZM72.5215 46.2968C72.3104 45.6112 72.1809 44.8845 71.8389 44.2489C71.7987 44.1591 71.7184 44.0602 71.6187 44.0897C71.5086 44.1 71.4387 44.2284 71.4788 44.3285C72.1407 45.5521 72.2715 46.8746 72.7028 48.1469C72.8531 48.2959 73.094 48.1867 73.1044 47.9877C72.9736 47.4305 72.6627 46.8643 72.5228 46.2968H72.5215ZM73.3544 44.6752C73.344 44.6251 73.2546 44.5455 73.1938 44.6059C73.1432 44.6161 73.1135 44.6958 73.1432 44.7356H73.1329C73.1122 45.1336 73.3531 45.3814 73.5137 45.6998L73.5733 45.8782C73.6238 45.9874 73.8246 45.9681 73.8544 45.8384C73.8246 45.3518 73.6639 45.0334 73.3531 44.6752H73.3544ZM73.9761 46.4855C73.8854 46.4162 73.765 46.5356 73.8155 46.5844C73.8051 46.9619 73.7559 47.3894 73.9554 47.7579C73.9852 47.8375 73.9658 47.867 74.0357 47.9762C74.1056 48.0661 74.296 47.9762 74.2766 47.8568C74.2766 47.3792 74.2572 46.8925 73.9761 46.4843V46.4855ZM74.739 44.9936C74.6587 44.9641 74.559 45.063 74.6289 45.1323C74.91 45.5406 74.8802 46.067 75.0007 46.5241C75.1004 46.9118 75.1717 47.3098 75.1807 47.7078C75.1911 47.8272 75.3413 47.8966 75.432 47.7977C75.5421 46.8733 75.4916 45.66 74.7403 44.9936H74.739ZM76.5343 47.5884C76.5149 47.0916 76.4941 46.5844 76.3037 46.1171L76.204 45.8782C76.1638 45.7293 75.9527 45.8089 75.9929 45.9283C76.0032 46.5048 75.9825 46.8335 76.204 47.3907C76.2545 47.5204 76.204 47.7592 76.4048 47.7592C76.4954 47.7797 76.555 47.6205 76.5356 47.5897L76.5343 47.5884ZM77.5874 46.257C77.4876 46.1979 77.3672 46.2775 77.4164 46.3764C77.397 46.8733 77.3464 47.0428 77.5666 47.5396C77.5964 47.6192 77.5964 47.8581 77.7868 47.7977C77.8568 47.7785 77.8866 47.668 77.8775 47.6488C77.8775 47.1712 77.8671 46.655 77.5861 46.257H77.5874ZM77.5874 46.257C77.4876 46.1979 77.3672 46.2775 77.4164 46.3764C77.397 46.8733 77.3464 47.0428 77.5666 47.5396C77.5964 47.6192 77.5964 47.8581 77.7868 47.7977C77.8568 47.7785 77.8866 47.668 77.8775 47.6488C77.8775 47.1712 77.8671 46.655 77.5861 46.257H77.5874ZM76.5343 47.5884C76.5149 47.0916 76.4941 46.5844 76.3037 46.1171L76.204 45.8782C76.1638 45.7293 75.9527 45.8089 75.9929 45.9283C76.0032 46.5048 75.9825 46.8335 76.204 47.3907C76.2545 47.5204 76.204 47.7592 76.4048 47.7592C76.4954 47.7797 76.555 47.6205 76.5356 47.5897L76.5343 47.5884ZM74.739 44.9936C74.6587 44.9641 74.559 45.063 74.6289 45.1323C74.91 45.5406 74.8802 46.067 75.0007 46.5241C75.1004 46.9118 75.1717 47.3098 75.1807 47.7078C75.1911 47.8272 75.3413 47.8966 75.432 47.7977C75.5421 46.8733 75.4916 45.66 74.7403 44.9936H74.739ZM73.9761 46.4855C73.8854 46.4162 73.765 46.5356 73.8155 46.5844C73.8051 46.9619 73.7559 47.3894 73.9554 47.7579C73.9852 47.8375 73.9658 47.867 74.0357 47.9762C74.1056 48.0661 74.296 47.9762 74.2766 47.8568C74.2766 47.3792 74.2572 46.8925 73.9761 46.4843V46.4855ZM73.3544 44.6752C73.344 44.6251 73.2546 44.5455 73.1938 44.6059C73.1432 44.6161 73.1135 44.6958 73.1432 44.7356H73.1329C73.1122 45.1336 73.3531 45.3814 73.5137 45.6998L73.5733 45.8782C73.6238 45.9874 73.8246 45.9681 73.8544 45.8384C73.8246 45.3518 73.6639 45.0334 73.3531 44.6752H73.3544ZM72.5215 46.2968C72.3104 45.6112 72.1809 44.8845 71.8389 44.2489C71.7987 44.1591 71.7184 44.0602 71.6187 44.0897C71.5086 44.1 71.4387 44.2284 71.4788 44.3285C72.1407 45.5521 72.2715 46.8746 72.7028 48.1469C72.8531 48.2959 73.094 48.1867 73.1044 47.9877C72.9736 47.4305 72.6627 46.8643 72.5228 46.2968H72.5215ZM71.8803 48.1662C71.6498 46.6345 71.1485 45.1438 70.3856 43.7906C70.3454 43.6121 70.155 43.6814 70.1952 43.8009V43.8201C70.1952 43.827 70.1986 43.8304 70.2055 43.8304C70.6265 45.2825 71.269 46.7244 71.5798 48.206C71.5695 48.2355 71.62 48.3947 71.7405 48.3755C71.8402 48.3857 71.9114 48.2265 71.8803 48.1662ZM69.5424 44.3478C69.4426 44.1385 69.181 43.5916 69.0903 43.3926C69.0307 43.1435 68.7989 43.2231 68.8701 43.363C69.361 44.9936 70.0035 46.6447 70.3053 48.3344C70.3351 48.3935 70.2755 48.4538 70.396 48.5527C70.5164 48.6027 70.6369 48.5026 70.6162 48.3742C70.4361 47.0017 70.1252 45.6202 69.5424 44.3465V44.3478ZM68.8002 45.8192C68.7406 45.6805 68.6396 45.3711 68.58 45.2324C68.51 45.1528 68.3792 45.2324 68.409 45.3223C68.4893 46.5061 68.7704 47.252 69.0204 48.3652C69.1305 48.4949 69.3118 48.3857 69.2911 48.2458C69.1913 47.4305 69.0709 46.6049 68.8002 45.8192ZM68.3883 44.516C68.2484 43.9896 68.0968 43.4516 67.7963 42.9946L67.6357 42.7763C67.5852 42.6376 67.3754 42.6967 67.4349 42.8456C67.5748 43.1743 67.5554 43.571 67.7458 43.8792C67.8766 44.118 68.0372 44.3465 68.1176 44.6046C68.1279 44.6637 68.2173 44.7343 68.2885 44.7035C68.3792 44.7137 68.4284 44.5545 68.3883 44.5147V44.516ZM67.5463 46.0875C67.5062 46.0182 67.4958 45.9578 67.4557 45.8782C67.3961 45.7884 67.2251 45.8487 67.2847 45.9578C67.4751 46.9516 67.8067 47.9364 67.9764 48.9404C67.9867 49.0393 67.9867 49.2986 68.1875 49.2485C68.2782 49.2485 68.308 49.0996 68.2872 49.0791C68.2471 48.0455 68.0359 47.0004 67.545 46.0862L67.5463 46.0875ZM65.4894 41.6528C65.4493 41.563 65.299 41.613 65.3094 41.7119C65.6604 42.965 66.242 43.4722 66.6539 44.5558C66.7342 44.7343 66.9855 44.6354 66.9751 44.4762C66.6435 43.4516 66.0516 42.5567 65.4907 41.6516L65.4894 41.6528ZM66.0114 45.6895C65.9609 45.5804 65.7912 45.6497 65.8314 45.7588C66.0516 47.0222 66.413 47.9569 66.6034 49.0701C66.6629 49.2485 66.9246 49.16 66.8948 48.9905C66.7342 47.8568 66.4427 46.7526 66.0114 45.6895ZM65.47 44.0589C64.9584 42.567 64.1359 41.1855 63.0025 40.0813C62.8924 39.8926 62.7214 40.0608 62.8121 40.1404C63.6747 41.4628 64.5879 42.7057 65.1902 44.1578C65.2407 44.3863 65.5917 44.2875 65.4713 44.0589H65.47ZM61.9688 62.2265C61.136 62.6835 60.3342 63.1111 59.5013 63.5887C57.0338 64.9907 54.4251 66.1643 51.6467 66.7805C44.6548 68.0234 37.2316 66.2041 31.2525 62.5141L30.3096 62.0172C30.2798 61.9966 30.1593 61.9376 30.1295 61.9273C30.0686 61.8875 29.9689 61.9478 29.9896 62.0262C30.4015 62.3548 32.0763 63.269 32.5374 63.5771C37.453 66.421 43.2922 67.8732 48.9901 67.5945C53.7257 67.3365 57.8887 64.9291 61.8005 62.4935L62.031 62.3548C62.031 62.3548 62.101 62.315 62.0815 62.256C62.0712 62.1969 61.9714 62.2162 61.9714 62.2265H61.9688ZM57.1025 64.9407C56.8913 65.0498 56.6711 65.1397 56.4509 65.2193C56.7825 65.0703 57.1025 64.9214 57.4237 64.7519C57.3136 64.811 57.2126 64.8816 57.1025 64.9407ZM55.438 25.6629C50.5419 22.6495 44.182 22.6007 38.8856 24.569C37.3611 25.0966 35.8158 25.5833 34.391 26.3189C34.1203 26.4383 33.869 26.568 33.7395 26.6566C33.7187 26.6759 33.689 26.6861 33.6695 26.6964C33.6294 26.717 33.6488 26.7953 33.6993 26.7555C37.2406 25.632 40.7923 24.1799 44.524 23.8217C47.985 23.6432 51.6467 24.09 54.7969 25.582C54.8966 25.632 55.1777 25.7707 55.2684 25.8105C55.3487 25.8606 55.4886 25.7604 55.4393 25.6616L55.438 25.6629ZM28.8135 40.0313C27.9211 40.9364 27.1879 41.9507 26.7372 43.1538C26.6465 43.3322 26.4159 43.8201 26.3253 43.9986C26.3149 44.0589 26.2748 44.0487 26.2657 44.1873C26.3162 44.3067 26.4367 44.326 26.526 44.2669C26.947 43.4619 27.3084 42.7853 27.7397 42.0599C28.0506 41.563 28.5428 40.6771 28.9029 40.22C29.0337 40.1109 28.9327 39.9311 28.8122 40.0313H28.8135ZM26.2048 41.622C25.6427 42.5169 25.1621 43.4722 24.85 44.4762C24.8396 44.5751 25.0002 44.6354 25.03 44.5263C25.6012 43.7007 25.973 42.8353 26.3745 41.9212C26.4043 41.8519 26.4341 41.8313 26.4846 41.7222C26.5144 41.5732 26.2942 41.4731 26.2035 41.6233L26.2048 41.622ZM25.7437 45.71C25.2619 46.8938 25.1725 47.8183 24.8707 49.011C24.8409 49.1702 25.122 49.2498 25.1712 49.0611C25.3914 48.1765 25.653 47.3111 25.8033 46.4162C25.8331 46.257 25.8836 45.8885 25.9341 45.7396C25.9445 45.6202 25.7631 45.6009 25.7437 45.71ZM24.3189 45.8988H24.2982C24.2982 45.9283 24.2878 45.9489 24.2878 45.9784V45.9887C24.0572 46.4766 23.7762 47.0132 23.6855 47.5692C23.635 47.9864 23.565 48.7029 23.4744 49.1009C23.4446 49.2794 23.7153 49.3192 23.7658 49.16C23.9458 48.3447 24.2969 46.9619 24.4277 46.1569C24.4381 46.0773 24.4678 46.0182 24.4873 45.9386C24.4873 45.8295 24.337 45.8089 24.3163 45.8988H24.3189ZM24.1181 42.7763C23.6764 43.2732 23.7062 43.969 23.3552 44.516C23.3047 44.5455 23.3448 44.7343 23.4459 44.7445C23.5365 44.7946 23.6764 44.7047 23.6868 44.6251C24.0378 44.0782 24.1583 43.4619 24.3085 42.8456C24.3681 42.6967 24.1583 42.6363 24.1181 42.7763ZM23.1648 45.5804L23.1544 45.5906C23.1337 45.6009 23.1143 45.6009 23.1039 45.6202C22.7529 46.5651 22.6324 47.4498 22.4718 48.4345C22.442 48.5244 22.3721 48.7427 22.5521 48.7722C22.6117 48.7915 22.7127 48.7221 22.7231 48.6528C22.9537 47.867 23.1842 47.0813 23.2451 46.2557C23.2555 46.1068 23.2853 45.7781 23.2956 45.6292C23.2853 45.5598 23.2153 45.5496 23.1648 45.5791V45.5804ZM22.8837 43.2732C22.8436 43.2334 22.784 43.2334 22.7438 43.2834C22.7438 43.2903 22.7404 43.2937 22.7335 43.2937V43.304H22.7231V43.3142C22.7231 43.3142 22.7127 43.3142 22.7127 43.3245C21.9407 44.7266 21.5288 46.3469 21.2478 47.9389C21.227 48.0686 21.0975 48.4166 21.1675 48.5052C21.2076 48.595 21.4187 48.595 21.4382 48.4551C21.7594 47.0928 22.17 45.7897 22.5418 44.448C22.6117 44.2297 22.762 43.6725 22.8526 43.4542C22.863 43.4041 22.9226 43.3553 22.8824 43.2757L22.8837 43.2732ZM21.5599 43.7213C21.5301 43.6712 21.4291 43.6622 21.3993 43.7315C21.0677 44.4775 20.617 45.1926 20.4162 45.9989C20.2854 46.5651 20.0652 47.5602 19.9046 48.1071C19.8048 48.2766 19.9849 48.5052 20.1649 48.2959C20.5056 47.1827 21.1182 45.2735 21.4395 44.1796C21.4602 44.0204 21.6195 43.8817 21.5599 43.7225V43.7213ZM20.0354 44.2284C19.2932 45.4314 19.1028 46.5857 18.7518 47.9171C18.731 47.9377 18.7116 48.0558 18.7919 48.1059C18.8424 48.1559 18.972 48.1559 19.0225 48.0661C19.3839 46.863 19.775 45.7691 20.1053 44.5853C20.1351 44.4955 20.1649 44.4159 20.196 44.3363C20.2763 44.2374 20.0963 44.0872 20.0354 44.2271V44.2284ZM18.4305 44.6559C18.2103 45.0039 17.9785 45.4122 17.9785 45.859C17.9591 45.9283 17.9487 45.9977 17.9189 46.0683C17.8684 46.2069 18.0795 46.2968 18.1598 46.1774C18.4202 45.6805 18.6119 45.253 18.6715 44.7163C18.652 44.5571 18.4513 44.5378 18.4305 44.6572V44.6559ZM17.8386 46.8925C17.7777 46.863 17.6883 46.8823 17.6987 46.9721C17.6585 47.1314 17.4681 47.3201 17.4876 47.5088C17.5277 47.668 17.4772 47.9364 17.5575 47.9954C17.8891 48.2137 18.0989 46.9709 17.8386 46.8913V46.8925ZM16.9656 45.0527C16.6845 45.4109 16.384 45.8975 16.3633 46.4047C16.3425 46.8527 16.384 47.2803 16.2933 47.7168C16.3037 47.8658 16.4941 47.8863 16.564 47.7862C16.7544 47.0004 16.7842 46.334 16.9656 45.5983C16.9954 45.3993 17.0964 45.2607 17.1456 45.0617C17.1249 44.9821 17.0057 44.9525 16.9656 45.0514V45.0527ZM15.7817 45.9386C15.8115 45.7999 15.5913 45.7499 15.5706 45.8795C15.3996 46.4162 15.2597 46.7346 15.2895 47.3419C15.2895 47.4215 15.2688 47.5011 15.2493 47.591C15.1794 47.7297 15.4397 47.8491 15.52 47.6706C15.7208 47.0736 15.8413 46.5472 15.7804 45.9399L15.7817 45.9386ZM14.3672 46.3058C14.3271 46.2262 14.1963 46.2159 14.1768 46.3058H14.1872C14.1872 46.3058 14.1768 46.3058 14.1768 46.3161V46.3263C14.1768 46.3263 14.1768 46.3366 14.1665 46.3469C13.9761 46.7346 13.8854 47.0325 13.9255 47.4909C13.9255 47.5602 13.9048 47.6103 13.8958 47.7001C13.9255 47.8298 14.1159 47.8593 14.1768 47.7207C14.3569 47.2135 14.4683 46.8258 14.3672 46.3084V46.3058Z" fill="black"/>
<path d="M45.998 64.6012C52.9369 64.6012 58.5623 58.9758 58.5623 52.0368C58.5623 45.0979 52.9369 39.4725 45.998 39.4725C39.059 39.4725 33.4336 45.0979 33.4336 52.0368C33.4336 58.9758 39.059 64.6012 45.998 64.6012Z" fill="url(#paint0_radial_7135_597)"/>
<path d="M45.9976 56.8108C48.6341 56.8108 50.7711 54.6733 50.7711 52.0368C50.7711 49.4003 48.6341 47.2628 45.9976 47.2628C43.3612 47.2628 41.2236 49.4003 41.2236 52.0368C41.2236 54.6733 43.3606 56.8108 45.9976 56.8108Z" fill="black"/>
<path d="M51.9902 43.1105C50.947 43.1105 50.101 43.956 50.101 44.9997C50.101 46.0435 50.9464 46.889 51.9902 46.889C53.0339 46.889 53.8788 46.0429 53.8788 44.9997C53.8788 43.9566 53.0333 43.1105 51.9902 43.1105ZM40.4988 58.3536C40.098 58.3536 39.7729 58.6787 39.7729 59.0794C39.7729 59.4801 40.098 59.8052 40.4988 59.8052C40.8995 59.8052 41.2246 59.4801 41.2246 59.0794C41.2246 58.6787 40.8995 58.3536 40.4988 58.3536Z" fill="white"/>
<defs>
<radialGradient id="paint0_radial_7135_597" cx="0" cy="0" r="1" gradientUnits="userSpaceOnUse" gradientTransform="translate(45.998 52.0368) rotate(90) scale(12.5644)">
<stop stop-color="#FFD471" stop-opacity="0"/>
<stop offset="1" stop-color="#FFD471"/>
</radialGradient>
</defs>
</svg>
