<svg width="24" height="24" viewBox="0 0 24 24" fill="none" xmlns="http://www.w3.org/2000/svg">
<path d="M18 5H5.99687C5.44687 5 5 5.45313 5 6.00938V17.9906C5 18.5469 5.44687 19 5.99687 19H18C18.55 19 19 18.5469 19 17.9906V6.00938C19 5.45313 18.55 5 18 5ZM9.23125 17H7.15625V10.3187H9.23438V17H9.23125ZM8.19375 9.40625C7.52812 9.40625 6.99063 8.86563 6.99063 8.20312C6.99063 7.54062 7.52812 7 8.19375 7C8.85625 7 9.39687 7.54062 9.39687 8.20312C9.39687 8.86875 8.85937 9.40625 8.19375 9.40625ZM17.0094 17H14.9344V13.75C14.9344 12.975 14.9187 11.9781 13.8562 11.9781C12.775 11.9781 12.6094 12.8219 12.6094 13.6938V17H10.5344V10.3187H12.525V11.2312H12.5531C12.8312 10.7062 13.5094 10.1531 14.5188 10.1531C16.6188 10.1531 17.0094 11.5375 17.0094 13.3375V17Z" fill="white"/>
</svg>
