<svg width="48" height="48" viewBox="0 0 48 48" fill="none" xmlns="http://www.w3.org/2000/svg">
<rect width="48" height="48" fill="#020A18"/>
<path d="M27.5473 24.035C27.1093 24.035 26.7061 23.9499 26.3378 23.7798C25.9794 23.6096 25.6758 23.3744 25.4269 23.0741C25.178 22.7639 24.9939 22.4185 24.8744 22.0382L25.0685 21.783L24.9491 23.8849H23.5454V13H25.1432V18.2698L24.964 18.0145C25.1531 17.4941 25.4767 17.0687 25.9346 16.7384C26.3925 16.3981 26.9451 16.2279 27.5921 16.2279C28.1894 16.2279 28.737 16.3831 29.2347 16.6933C29.7424 17.0036 30.1406 17.449 30.4293 18.0296C30.718 18.6101 30.8624 19.3157 30.8624 20.1465C30.8624 20.9572 30.713 21.6528 30.4144 22.2334C30.1257 22.8139 29.7275 23.2593 29.2198 23.5696C28.722 23.8799 28.1645 24.035 27.5473 24.035ZM27.2039 22.7438C27.851 22.7438 28.3537 22.5136 28.7121 22.0532C29.0804 21.5828 29.2646 20.9422 29.2646 20.1315C29.2646 19.3207 29.0854 18.6852 28.727 18.2247C28.3686 17.7643 27.8659 17.5341 27.2188 17.5341C26.8007 17.5341 26.4373 17.6442 26.1287 17.8644C25.8201 18.0746 25.5762 18.3749 25.397 18.7652C25.2278 19.1556 25.1432 19.621 25.1432 20.1615C25.1432 20.692 25.2278 21.1524 25.397 21.5427C25.5663 21.9231 25.8052 22.2184 26.1138 22.4285C26.4324 22.6387 26.7957 22.7438 27.2039 22.7438Z" fill="white"/>
<path d="M19.6431 19.0656C19.6431 18.5651 19.5037 18.1798 19.225 17.9096C18.9562 17.6293 18.5829 17.4892 18.105 17.4892C17.6571 17.4892 17.2738 17.5943 16.9552 17.8045C16.6367 18.0146 16.4027 18.355 16.2534 18.8254L14.9095 18.2549C15.0986 17.6443 15.4669 17.1539 16.0145 16.7835C16.572 16.4132 17.2887 16.228 18.1648 16.228C18.7621 16.228 19.2897 16.3281 19.7476 16.5283C20.2055 16.7185 20.5639 17.0087 20.8228 17.3991C21.0915 17.7894 21.2259 18.2899 21.2259 18.9005V22.2485C21.2259 22.6188 21.4101 22.804 21.7784 22.804C21.9576 22.804 22.1318 22.779 22.3011 22.7289L22.2115 23.8399C21.9825 23.95 21.6938 24.0051 21.3454 24.0051C21.0268 24.0051 20.7381 23.95 20.4793 23.8399C20.2304 23.7198 20.0313 23.5447 19.882 23.3145C19.7426 23.0742 19.6729 22.779 19.6729 22.4287V22.3236L20.0015 22.3085C19.9119 22.6989 19.7277 23.0242 19.449 23.2844C19.1702 23.5347 18.8467 23.7248 18.4783 23.8549C18.11 23.9751 17.7367 24.0351 17.3584 24.0351C16.8905 24.0351 16.4674 23.96 16.0891 23.8099C15.7208 23.6598 15.4271 23.4346 15.2081 23.1343C14.9991 22.824 14.8945 22.4437 14.8945 21.9933C14.8945 21.4327 15.0737 20.9723 15.4321 20.612C15.8004 20.2517 16.3181 20.0065 16.9851 19.8763L19.882 19.3058L19.8671 20.4318L17.7616 20.8672C17.3435 20.9473 17.0299 21.0624 16.8208 21.2125C16.6118 21.3627 16.5072 21.5829 16.5072 21.8731C16.5072 22.1534 16.6118 22.3786 16.8208 22.5488C17.0398 22.7089 17.3285 22.789 17.6869 22.789C17.9358 22.789 18.1747 22.7589 18.4037 22.6989C18.6426 22.6388 18.8566 22.5438 19.0458 22.4136C19.2349 22.2735 19.3793 22.0984 19.4788 21.8882C19.5883 21.668 19.6431 21.4077 19.6431 21.1075V19.0656Z" fill="white"/>
<path d="M12.0313 14.1711V21.6329C12.0313 22.0032 12.1259 22.2735 12.315 22.4436C12.5141 22.6138 12.7779 22.6989 13.1065 22.6989C13.3752 22.6989 13.6092 22.6588 13.8083 22.5788C14.0074 22.4887 14.1915 22.3686 14.3608 22.2184L14.7192 23.3895C14.4902 23.5897 14.2065 23.7498 13.868 23.8699C13.5395 23.98 13.1712 24.0351 12.763 24.0351C12.3349 24.0351 11.9417 23.965 11.5833 23.8249C11.2249 23.6848 10.9462 23.4596 10.7471 23.1493C10.548 22.829 10.4435 22.4136 10.4335 21.9032V14.6216L12.0313 14.1711ZM14.5997 16.3781V17.6393H9V16.3781H14.5997Z" fill="white"/>
<path d="M38.8206 27.3432L35.4907 30.7663L35.1472 31.0065L32.8028 33.4537L32.7879 31.622L36.9242 27.3432H38.8206ZM33.3702 25.8418V34.85H31.7725V25.8418H33.3702ZM35.6848 29.8654L38.9998 34.85H37.1482L34.4902 30.7813L35.6848 29.8654Z" fill="white"/>
<path d="M27.0048 34.9999C26.2581 34.9999 25.5762 34.8548 24.959 34.5646C24.3418 34.2743 23.854 33.8639 23.4956 33.3334L24.6006 32.3726C24.8196 32.7829 25.1332 33.1132 25.5414 33.3635C25.9595 33.6037 26.4572 33.7238 27.0346 33.7238C27.4926 33.7238 27.8559 33.6437 28.1247 33.4836C28.3935 33.3234 28.5279 33.0982 28.5279 32.808C28.5279 32.6178 28.4632 32.4526 28.3338 32.3125C28.2143 32.1624 27.9803 32.0473 27.6319 31.9672L26.064 31.6369C25.2676 31.4768 24.7002 31.2215 24.3617 30.8712C24.0232 30.5109 23.854 30.0555 23.854 29.505C23.854 29.0946 23.9734 28.7143 24.2124 28.3639C24.4513 28.0136 24.7997 27.7334 25.2576 27.5232C25.7255 27.303 26.283 27.1929 26.9301 27.1929C27.6767 27.1929 28.3138 27.328 28.8415 27.5982C29.3691 27.8585 29.7723 28.2338 30.051 28.7243L28.946 29.6551C28.7568 29.2547 28.4781 28.9595 28.1098 28.7693C27.7414 28.5691 27.3582 28.469 26.96 28.469C26.6414 28.469 26.3676 28.5091 26.1387 28.5891C25.9097 28.6692 25.7355 28.7793 25.616 28.9194C25.4966 29.0596 25.4368 29.2247 25.4368 29.4149C25.4368 29.6151 25.5115 29.7902 25.6608 29.9404C25.8101 30.0905 26.0789 30.2056 26.4672 30.2857L28.1695 30.646C28.8863 30.7861 29.389 31.0263 29.6777 31.3667C29.9763 31.697 30.1257 32.1023 30.1257 32.5828C30.1257 33.0632 30.0012 33.4886 29.7523 33.8589C29.5035 34.2192 29.1451 34.4995 28.6772 34.6997C28.2093 34.8999 27.6518 34.9999 27.0048 34.9999Z" fill="white"/>
<path d="M20.2652 30.0304C20.2652 29.53 20.1258 29.1446 19.847 28.8744C19.5783 28.5941 19.2049 28.454 18.7271 28.454C18.2791 28.454 17.8959 28.5591 17.5773 28.7693C17.2587 28.9795 17.0248 29.3198 16.8755 29.7902L15.5315 29.2197C15.7207 28.6092 16.089 28.1187 16.6365 27.7484C17.194 27.378 17.9108 27.1929 18.7868 27.1929C19.3841 27.1929 19.9117 27.293 20.3697 27.4931C20.8276 27.6833 21.186 27.9736 21.4448 28.3639C21.7136 28.7543 21.848 29.2547 21.848 29.8653V33.2133C21.848 33.5837 22.0322 33.7688 22.4005 33.7688C22.5797 33.7688 22.7539 33.7438 22.9231 33.6938L22.8336 34.8048C22.6046 34.9149 22.3159 34.9699 21.9675 34.9699C21.6489 34.9699 21.3602 34.9149 21.1014 34.8048C20.8525 34.6847 20.6534 34.5095 20.5041 34.2793C20.3647 34.0391 20.295 33.7438 20.295 33.3935V33.2884L20.6235 33.2734C20.5339 33.6637 20.3498 33.989 20.071 34.2493C19.7923 34.4995 19.4687 34.6897 19.1004 34.8198C18.7321 34.9399 18.3588 34.9999 17.9805 34.9999C17.5126 34.9999 17.0895 34.9249 16.7112 34.7747C16.3429 34.6246 16.0492 34.3994 15.8302 34.0991C15.6211 33.7889 15.5166 33.4085 15.5166 32.9581C15.5166 32.3976 15.6958 31.9372 16.0542 31.5768C16.4225 31.2165 16.9402 30.9713 17.6072 30.8412L20.5041 30.2707L20.4891 31.3967L18.3837 31.8321C17.9655 31.9122 17.652 32.0273 17.4429 32.1774C17.2338 32.3275 17.1293 32.5477 17.1293 32.838C17.1293 33.1182 17.2338 33.3434 17.4429 33.5136C17.6619 33.6737 17.9506 33.7538 18.309 33.7538C18.5579 33.7538 18.7968 33.7238 19.0257 33.6637C19.2647 33.6037 19.4787 33.5086 19.6678 33.3785C19.857 33.2384 20.0013 33.0632 20.1009 32.853C20.2104 32.6328 20.2652 32.3726 20.2652 32.0723V30.0304Z" fill="white"/>
<path d="M12.6534 25.136V32.5978C12.6534 32.9681 12.748 33.2383 12.9371 33.4085C13.1362 33.5786 13.4 33.6637 13.7285 33.6637C13.9973 33.6637 14.2312 33.6237 14.4304 33.5436C14.6295 33.4535 14.8136 33.3334 14.9829 33.1833L15.3412 34.3543C15.1123 34.5545 14.8286 34.7147 14.4901 34.8348C14.1616 34.9449 13.7932 34.9999 13.3851 34.9999C12.957 34.9999 12.5638 34.9299 12.2054 34.7897C11.847 34.6496 11.5683 34.4244 11.3692 34.1141C11.1701 33.7938 11.0655 33.3785 11.0556 32.868V25.5864L12.6534 25.136ZM15.2218 27.343V28.6041H9.62207V27.343H15.2218Z" fill="white"/>
<path d="M34.3955 24.0016C33.869 24.0016 33.4083 23.9198 33.0134 23.7563C32.6263 23.5851 32.3243 23.3437 32.1075 23.0324C31.8985 22.7132 31.7939 22.3317 31.7939 21.888C31.7939 21.6622 31.8249 21.4365 31.8869 21.2107C31.9488 20.9849 32.0572 20.7709 32.2121 20.5685C32.3747 20.3583 32.5915 20.1675 32.8625 19.9963C33.1412 19.825 33.4935 19.6888 33.9193 19.5876L34.3258 19.4241C34.6433 19.2372 34.8949 19.0699 35.0808 18.922C35.2666 18.7663 35.3982 18.6106 35.4756 18.4549C35.5608 18.2914 35.6034 18.1084 35.6034 17.906C35.6034 17.6803 35.5337 17.5051 35.3943 17.3806C35.255 17.2482 35.0692 17.1821 34.8369 17.1821C34.5736 17.1821 34.3723 17.2599 34.2329 17.4156C34.1013 17.5635 34.0355 17.7503 34.0355 17.9761C34.0355 18.1084 34.0548 18.2369 34.0936 18.3615C34.14 18.486 34.2252 18.6417 34.3491 18.8285C34.473 19.0076 34.6549 19.245 34.8949 19.5409C35.1427 19.8367 35.4718 20.222 35.8821 20.6969C36.2848 21.164 36.6216 21.5455 36.8926 21.8413C37.1713 22.1371 37.4075 22.3629 37.601 22.5186C37.8024 22.6665 37.9921 22.7677 38.1701 22.8222C38.356 22.8689 38.5612 22.8806 38.7857 22.8572L38.5999 24.0016C38.3134 24.0016 38.054 23.9743 37.8217 23.9198C37.5972 23.8731 37.361 23.7719 37.1133 23.6162C36.8655 23.4527 36.5751 23.2114 36.2422 22.8922C35.917 22.5731 35.5182 22.1449 35.0459 21.6077C34.5504 21.0628 34.1439 20.6074 33.8264 20.2415C33.5167 19.8756 33.2767 19.5642 33.1064 19.3073C32.936 19.0504 32.816 18.8169 32.7463 18.6067C32.6766 18.3965 32.6418 18.1746 32.6418 17.9411C32.6418 17.6297 32.7192 17.33 32.8741 17.0419C33.0289 16.7539 33.2689 16.5203 33.5941 16.3413C33.9193 16.1545 34.3375 16.061 34.8485 16.061C35.3053 16.061 35.6808 16.1389 35.9751 16.2946C36.277 16.4503 36.5016 16.6566 36.6487 16.9135C36.8035 17.1704 36.881 17.4584 36.881 17.7776C36.881 18.0968 36.8152 18.3965 36.6835 18.6767C36.5519 18.9492 36.3312 19.2022 36.0215 19.4358C35.7195 19.6615 35.3053 19.8678 34.7788 20.0547L34.4071 20.2415C34.0897 20.405 33.8419 20.5607 33.6638 20.7086C33.4857 20.8565 33.3619 21.0161 33.2922 21.1873C33.2225 21.3508 33.1876 21.5455 33.1876 21.7712C33.1876 21.997 33.2496 22.1955 33.3735 22.3668C33.4974 22.538 33.6638 22.6704 33.8729 22.7638C34.0819 22.8572 34.322 22.9039 34.593 22.9039C34.9801 22.9039 35.313 22.8377 35.5918 22.7054C35.8705 22.573 36.1338 22.394 36.3816 22.1682L36.5558 21.9697C36.7184 21.6973 36.8461 21.3898 36.939 21.0472C37.0397 20.7047 37.0784 20.3116 37.0552 19.8678L38.1818 19.9145C38.1972 20.4128 38.1276 20.8876 37.9727 21.3392C37.8256 21.7907 37.5972 22.1877 37.2875 22.5302L37.0087 22.7988C36.7377 23.1647 36.3816 23.4566 35.9402 23.6746C35.5066 23.8926 34.9917 24.0016 34.3955 24.0016Z" fill="white"/>
</svg>
