<svg width="59" height="43" viewBox="0 0 59 43" fill="none" xmlns="http://www.w3.org/2000/svg">
<path d="M36.4799 21.5684C35.6184 21.5684 34.8255 21.4021 34.1011 21.0696C33.3963 20.737 32.7992 20.2772 32.3097 19.6904C31.8203 19.0839 31.4581 18.409 31.2231 17.6656L31.6049 17.1667L31.37 21.275H28.6094V0H31.7517V10.3L31.3993 9.8012C31.7713 8.7839 32.4076 7.9524 33.3082 7.3069C34.2088 6.6417 35.2954 6.3091 36.568 6.3091C37.7427 6.3091 38.8195 6.6124 39.7984 7.2188C40.7969 7.8253 41.58 8.6958 42.1478 9.8305C42.7156 10.9652 42.9994 12.3444 42.9994 13.9681C42.9994 15.5527 42.7058 16.9124 42.1184 18.047C41.5506 19.1817 40.7675 20.0523 39.769 20.6587C38.7901 21.2652 37.6937 21.5684 36.4799 21.5684ZM35.8044 19.0448C37.077 19.0448 38.0657 18.5948 38.7705 17.6949C39.4949 16.7754 39.8571 15.5234 39.8571 13.9388C39.8571 12.3542 39.5047 11.1119 38.7999 10.212C38.0951 9.3121 37.1064 8.8621 35.8338 8.8621C35.0115 8.8621 34.2969 9.0773 33.69 9.5077C33.0831 9.9185 32.6034 10.5054 32.251 11.2684C31.9182 12.0314 31.7517 12.9411 31.7517 13.9975C31.7517 15.0343 31.9182 15.9342 32.251 16.6972C32.5838 17.4406 33.0537 18.0177 33.6606 18.4285C34.2871 18.8394 35.0017 19.0448 35.8044 19.0448Z" fill="#C9C4CA"/>
<path d="M20.9326 11.8547C20.9326 10.8766 20.6585 10.1234 20.1103 9.59519C19.5817 9.04739 18.8476 8.77349 17.9078 8.77349C17.0268 8.77349 16.273 8.97899 15.6465 9.38979C15.02 9.80059 14.5598 10.4658 14.2661 11.3852L11.6231 10.2701C11.9951 9.07679 12.7196 8.11819 13.7964 7.39429C14.8927 6.67049 16.3024 6.30859 18.0253 6.30859C19.2 6.30859 20.2376 6.50419 21.1382 6.89549C22.0388 7.26719 22.7435 7.83449 23.2526 8.59749C23.7812 9.36039 24.0455 10.3386 24.0455 11.532V18.0758C24.0455 18.7997 24.4078 19.1616 25.1322 19.1616C25.4846 19.1616 25.8271 19.1127 26.1599 19.0149L25.9838 21.1864C25.5335 21.4016 24.9657 21.5092 24.2805 21.5092C23.654 21.5092 23.0862 21.4016 22.5772 21.1864C22.0877 20.9516 21.6961 20.6093 21.4024 20.1593C21.1283 19.6898 20.9914 19.1127 20.9914 18.428V18.2226L21.6374 18.1932C21.4612 18.9562 21.0989 19.592 20.5508 20.1006C20.0026 20.5897 19.3664 20.9614 18.642 21.2157C17.9176 21.4505 17.1833 21.5679 16.4393 21.5679C15.5192 21.5679 14.6871 21.4211 13.9431 21.1277C13.2187 20.8343 12.6412 20.3941 12.2104 19.8072C11.7993 19.2007 11.5938 18.4573 11.5938 17.577C11.5938 16.4814 11.9461 15.5815 12.6509 14.8773C13.3753 14.173 14.3934 13.6937 15.7051 13.4394L21.4024 12.3243L21.373 14.5251L17.2322 15.3761C16.41 15.5326 15.7932 15.7576 15.3821 16.0511C14.971 16.3445 14.7654 16.7749 14.7654 17.3422C14.7654 17.89 14.971 18.3302 15.3821 18.6627C15.8128 18.9758 16.3807 19.1323 17.0855 19.1323C17.575 19.1323 18.0448 19.0736 18.4951 18.9562C18.965 18.8388 19.3859 18.653 19.7578 18.3986C20.1298 18.1248 20.4137 17.7824 20.6095 17.3716C20.8249 16.9412 20.9326 16.4325 20.9326 15.8456V11.8547Z" fill="#C9C4CA"/>
<path d="M5.9616 2.28906V16.8734C5.9616 17.5972 6.1476 18.1254 6.5196 18.458C6.9111 18.7906 7.4299 18.9569 8.076 18.9569C8.6046 18.9569 9.0647 18.8786 9.4563 18.7221C9.8479 18.546 10.21 18.3113 10.5429 18.0178L11.2477 20.3067C10.7974 20.698 10.2394 21.011 9.5738 21.2457C8.9277 21.4609 8.2033 21.5685 7.4006 21.5685C6.5587 21.5685 5.7854 21.4316 5.0806 21.1577C4.3757 20.8838 3.8275 20.4437 3.436 19.8372C3.0444 19.2112 2.8388 18.3993 2.8193 17.4016V3.1694L5.9616 2.28906ZM11.0128 6.60274V9.06774H0V6.60274H11.0128Z" fill="#C9C4CA"/>
<path d="M58.6504 28.034L52.1015 34.7246L51.4261 35.1942L46.8154 39.9774L46.786 36.3973L54.9208 28.034H58.6504ZM47.9314 25.0996V42.7064H44.7891V25.0996H47.9314ZM52.4833 32.964L59.0028 42.7064H55.3613L50.1339 34.754L52.4833 32.964Z" fill="#C9C4CA"/>
<path d="M35.4092 42.9995C33.9408 42.9995 32.5997 42.7159 31.3858 42.1485C30.172 41.5812 29.2127 40.7791 28.5078 39.7422L30.681 37.8642C31.1117 38.6663 31.7285 39.3119 32.5312 39.8009C33.3534 40.2705 34.3324 40.5052 35.4679 40.5052C36.3685 40.5052 37.0831 40.3487 37.6117 40.0357C38.1403 39.7227 38.4046 39.2825 38.4046 38.7152C38.4046 38.3435 38.2774 38.0207 38.0229 37.7468C37.7879 37.4534 37.3278 37.2284 36.6426 37.0719L33.559 36.4263C31.9928 36.1133 30.8768 35.6144 30.2111 34.9297C29.5455 34.2254 29.2127 33.3353 29.2127 32.2593C29.2127 31.4572 29.4476 30.7138 29.9175 30.0291C30.3873 29.3444 31.0726 28.7966 31.9732 28.3858C32.8934 27.9554 33.9897 27.7402 35.2623 27.7402C36.7307 27.7402 37.9837 28.0043 39.0213 28.5325C40.059 29.0412 40.8519 29.7748 41.4001 30.7334L39.2269 32.5528C38.8549 31.7702 38.3067 31.1931 37.5823 30.8214C36.858 30.4302 36.1042 30.2345 35.3211 30.2345C34.6946 30.2345 34.1562 30.3128 33.7059 30.4693C33.2556 30.6258 32.9129 30.841 32.678 31.1149C32.4431 31.3888 32.3256 31.7116 32.3256 32.0833C32.3256 32.4745 32.4724 32.8169 32.7661 33.1103C33.0598 33.4038 33.5884 33.6287 34.3519 33.7852L37.6998 34.4895C39.1094 34.7634 40.0981 35.2329 40.6659 35.8981C41.2533 36.5437 41.5469 37.336 41.5469 38.275C41.5469 39.214 41.3022 40.0455 40.8128 40.7693C40.3233 41.4736 39.6185 42.0214 38.6983 42.4126C37.7781 42.8039 36.6817 42.9995 35.4092 42.9995Z" fill="#C9C4CA"/>
<path d="M22.1591 33.2864C22.1591 32.3082 21.885 31.555 21.3368 31.0268C20.8082 30.4791 20.074 30.2052 19.1342 30.2052C18.2532 30.2052 17.4994 30.4106 16.8729 30.8214C16.2464 31.2323 15.7864 31.8974 15.4927 32.8169L12.8496 31.7018C13.2216 30.5084 13.946 29.5498 15.0228 28.826C16.1192 28.1021 17.5288 27.7402 19.2517 27.7402C20.4264 27.7402 21.464 27.9359 22.3646 28.3271C23.2652 28.6988 23.9701 29.2662 24.4791 30.0291C25.0077 30.7921 25.272 31.7702 25.272 32.9636V39.5075C25.272 40.2313 25.6342 40.5932 26.3586 40.5932C26.711 40.5932 27.0536 40.5443 27.3865 40.4465L27.2102 42.618C26.76 42.8332 26.1922 42.9408 25.5069 42.9408C24.8804 42.9408 24.3127 42.8332 23.8036 42.618C23.3142 42.3833 22.9226 42.0409 22.6289 41.591C22.3548 41.1214 22.2178 40.5443 22.2178 39.8596V39.6542L22.8639 39.6249C22.6877 40.3878 22.3255 41.0236 21.7773 41.5323C21.2291 42.0214 20.5928 42.3931 19.8684 42.6474C19.144 42.8821 18.4098 42.9995 17.6659 42.9995C16.7457 42.9995 15.9136 42.8528 15.1696 42.5593C14.4452 42.2659 13.8677 41.8257 13.437 41.2388C13.0258 40.6324 12.8203 39.889 12.8203 39.0086C12.8203 37.9131 13.1727 37.0132 13.8775 36.3089C14.6019 35.6046 15.6199 35.1253 16.9317 34.871L22.6289 33.7559L22.5996 35.9568L18.4588 36.8078C17.6365 36.9643 17.0198 37.1892 16.6086 37.4827C16.1975 37.7761 15.9919 38.2065 15.9919 38.7739C15.9919 39.3216 16.1975 39.7618 16.6086 40.0944C17.0394 40.4074 17.6071 40.5639 18.3119 40.5639C18.8014 40.5639 19.2713 40.5052 19.7216 40.3878C20.1915 40.2705 20.6124 40.0846 20.9844 39.8303C21.3564 39.5564 21.6402 39.214 21.836 38.8032C22.0514 38.3728 22.1591 37.8642 22.1591 37.2773V33.2864Z" fill="#C9C4CA"/>
<path d="M7.18816 23.7207V38.305C7.18816 39.0289 7.37416 39.5571 7.74616 39.8896C8.13766 40.2222 8.65656 40.3885 9.30266 40.3885C9.83126 40.3885 10.2914 40.3102 10.6829 40.1537C11.0745 39.9777 11.4367 39.7429 11.7695 39.4495L12.4743 41.7384C12.024 42.1296 11.466 42.4426 10.8004 42.6774C10.1543 42.8926 9.42986 43.0002 8.62716 43.0002C7.78526 43.0002 7.01196 42.8632 6.30716 42.5894C5.60236 42.3155 5.05416 41.8753 4.66256 41.2688C4.27096 40.6428 4.06546 39.8309 4.04586 38.8332V24.601L7.18816 23.7207ZM12.2394 28.0343V30.4993H1.22656V28.0343H12.2394Z" fill="#C9C4CA"/>
<path d="M49.9446 21.5025C48.9091 21.5025 48.0031 21.3428 47.2265 21.0232C46.4651 20.6885 45.8712 20.2168 45.4449 19.6082C45.0337 18.9843 44.8281 18.2388 44.8281 17.3714C44.8281 16.9302 44.889 16.4889 45.0109 16.0477C45.1327 15.6064 45.3459 15.188 45.6504 14.7924C45.9702 14.3815 46.3966 14.0088 46.9295 13.674C47.4777 13.3393 48.1706 13.073 49.0081 12.8752L49.8075 12.5556C50.4319 12.1905 50.9268 11.8633 51.2922 11.5742C51.6577 11.2699 51.9165 10.9656 52.0688 10.6613C52.2363 10.3417 52.3201 9.98422 52.3201 9.58862C52.3201 9.14732 52.183 8.80492 51.9089 8.56152C51.6348 8.30282 51.2694 8.17352 50.8125 8.17352C50.2948 8.17352 49.8989 8.32562 49.6248 8.63002C49.3659 8.91912 49.2365 9.28422 49.2365 9.72552C49.2365 9.98422 49.2746 10.2352 49.3507 10.4787C49.4421 10.7221 49.6096 11.0265 49.8532 11.3916C50.0969 11.7416 50.4547 12.2057 50.9268 12.7839C51.414 13.3621 52.0612 14.1153 52.8683 15.0434C53.6601 15.9564 54.3225 16.702 54.8555 17.2802C55.4036 17.8584 55.8681 18.2996 56.2488 18.6039C56.6447 18.893 57.0178 19.0908 57.368 19.1973C57.7335 19.2886 58.137 19.3115 58.5786 19.2658L58.2131 21.5025C57.6497 21.5025 57.1396 21.4493 56.6828 21.3428C56.2412 21.2515 55.7767 21.0537 55.2894 20.7494C54.8022 20.4298 54.2311 19.9581 53.5763 19.3343C52.9368 18.7104 52.1526 17.8736 51.2237 16.8237C50.2491 15.7586 49.4497 14.8684 48.8254 14.1533C48.2163 13.4382 47.7442 12.8295 47.4092 12.3274C47.0742 11.8253 46.8382 11.3688 46.7011 10.958C46.5641 10.5472 46.4955 10.1135 46.4955 9.65702C46.4955 9.04842 46.6478 8.46262 46.9524 7.89962C47.2569 7.33662 47.729 6.88012 48.3685 6.53022C49.0081 6.16502 49.8304 5.98242 50.8354 5.98242C51.7338 5.98242 52.4723 6.13462 53.051 6.43892C53.6449 6.74322 54.0865 7.14642 54.3758 7.64852C54.6803 8.15072 54.8326 8.71362 54.8326 9.33752C54.8326 9.96132 54.7032 10.5472 54.4443 11.0949C54.1854 11.6275 53.7515 12.122 53.1424 12.5785C52.5485 13.0197 51.7338 13.4229 50.6983 13.7881L49.9674 14.1533C49.3431 14.4728 48.8558 14.7772 48.5056 15.0663C48.1553 15.3554 47.9117 15.6673 47.7747 16.002C47.6376 16.3216 47.5691 16.702 47.5691 17.1432C47.5691 17.5845 47.6909 17.9725 47.9345 18.3072C48.1782 18.642 48.5056 18.9006 48.9167 19.0832C49.3279 19.2658 49.7999 19.3571 50.3329 19.3571C51.0943 19.3571 51.749 19.2278 52.2972 18.9691C52.8454 18.7104 53.3632 18.3605 53.8504 17.9192L54.1931 17.5312C54.5128 16.9987 54.7641 16.3976 54.9468 15.7281C55.1448 15.0586 55.2209 14.2902 55.1752 13.4229L57.3908 13.5142C57.4213 14.4881 57.2842 15.4162 56.9797 16.2987C56.6904 17.1813 56.2412 17.9573 55.6321 18.6268L55.0839 19.1517C54.5509 19.8668 53.8504 20.4374 52.9825 20.8635C52.1297 21.2895 51.1171 21.5025 49.9446 21.5025Z" fill="#C9C4CA"/>
</svg>
