<svg width="24" height="24" viewBox="0 0 24 24" fill="none" xmlns="http://www.w3.org/2000/svg">
<path d="M20.8243 8.05467C20.8062 7.91517 20.6222 6.67626 20.0439 6.06397C19.3509 5.30841 18.5599 5.23149 18.1791 5.19379L18.0675 5.18173C15.6658 5.00226 12.0418 5 11.9981 5C11.9619 5 8.33492 5.00226 5.91894 5.18399L5.82242 5.19379C5.44238 5.23149 4.65062 5.30841 3.96066 6.05944C3.37853 6.67551 3.19455 7.91517 3.17569 8.0607C3.16815 8.12027 3 9.55297 3 11.0136V12.3784C3 13.8398 3.16891 15.2747 3.17645 15.3418C3.19455 15.4813 3.37853 16.7172 3.95689 17.3303C4.59633 18.027 5.38582 18.1243 5.85786 18.1824C5.93704 18.1922 6.00792 18.2005 6.0984 18.2163C7.48058 18.3573 11.8134 18.3995 11.9966 18.401C11.9981 18.401 11.9996 18.401 12.0011 18.401C12.0373 18.401 15.6651 18.3927 18.0863 18.211L18.1904 18.1989C18.5983 18.1567 19.3569 18.079 20.0393 17.3348C20.6215 16.718 20.8055 15.4813 20.8243 15.3358C20.8318 15.2755 21 13.8413 21 12.3792V11.0143C21.0008 9.55373 20.8318 8.12103 20.8243 8.05467ZM15.0588 11.8476L10.3995 14.3646C10.3437 14.3955 10.2826 14.4106 10.2208 14.4106C10.1537 14.4106 10.0866 14.3932 10.0278 14.3578C9.91391 14.2892 9.84378 14.1663 9.84378 14.0336L9.84228 8.97989C9.84228 8.84642 9.9124 8.72351 10.0263 8.65565C10.1401 8.58778 10.2811 8.58477 10.3995 8.64811L15.0603 11.1847C15.1817 11.2511 15.2571 11.3785 15.2571 11.5165C15.2571 11.6545 15.181 11.782 15.0588 11.8476Z" fill="white"/>
</svg>
